<svg width="260" height="163" viewBox="0 0 260 163" fill="none" xmlns="http://www.w3.org/2000/svg"><path d="m23.083 31.223 100.905 2.402a.5.5 0 0 0 .024-1L23.107 30.224a4.5 4.5 0 0 0-4.607 4.499V132a4.5 4.5 0 0 0 4.5 4.5h55a.5.5 0 0 0 0-1H23a3.5 3.5 0 0 1-3.5-3.5V34.722a3.5 3.5 0 0 1 3.583-3.5Zm142.417 2.89a.5.5 0 0 1 .512-.487l17.095.407a4.5 4.5 0 0 1 4.393 4.498V132a4.5 4.5 0 0 1-4.5 4.5h-7.625a.5.5 0 0 1 0-1H183a3.5 3.5 0 0 0 3.5-3.5V38.531a3.5 3.5 0 0 0-3.417-3.499l-17.095-.407a.5.5 0 0 1-.488-.512ZM81.375 136a.5.5 0 0 1 .5-.5H90.5a.5.5 0 0 1 0 1h-8.625a.5.5 0 0 1-.5-.5Z" fill="#E0E0E0"/><path d="M125.844 52H80.156v22.313h45.688V52Zm-46.75 0v22.313H35V54.124c0-1.174.951-2.125 2.125-2.125h41.969ZM35 75.375v22.313h44.094V75.374H35Zm0 23.375v19.125c0 1.174.951 2.125 2.125 2.125h41.969V98.75H35ZM80.156 120h45.688V98.75H80.156V120Zm46.75 0h41.969a2.124 2.124 0 0 0 2.125-2.125V98.75h-44.094V120ZM171 97.688V75.374h-44.094v22.313H171Zm0-23.375V54.124A2.125 2.125 0 0 0 168.875 52h-41.969v22.313H171ZM80.156 97.688V75.374h45.688v22.313H80.156Z" fill="#42BDEB"/><path d="m196.122 85.889-.669-14.946 3.398-2.985 3.635-4.255v-4.167l-9.9-11.142-6.974-1.24-2.749 4.935s-4.492 12.205-3.221 16.135c.798 2.542 1.98 3.872 3.398 4.61-.123 2.053-1.714 5.905-2.675 8.067-.422.951-2.945 8.944-2.945 8.944" fill="#EBEBEB"/><path d="M185.699 46.661a.5.5 0 0 0-.524.25l-2.748 4.934a.466.466 0 0 0-.033.07l.469.174-.469-.173-.003.01-.01.026-.038.105-.142.398a93.148 93.148 0 0 0-1.907 6.096c-.485 1.781-.933 3.697-1.18 5.423-.243 1.701-.303 3.301.052 4.402.775 2.468 1.924 3.898 3.347 4.737-.113.933-.489 2.21-.966 3.545a61.145 61.145 0 0 1-1.638 4.04c-.226.507-.973 2.781-1.65 4.878a690.36 690.36 0 0 0-.914 2.854l-.292.919-.102.322-.005.017-.002.006.476.15-.476-.15a.5.5 0 0 0 .397.644l10.885 1.759a.5.5 0 0 0 .375-.09l7.816-5.715a.502.502 0 0 0 .205-.426l-.659-14.706 3.218-2.826a.544.544 0 0 0 .051-.05l3.635-4.257a.5.5 0 0 0 .119-.324v-4.167a.501.501 0 0 0-.126-.332l-9.9-11.142a.5.5 0 0 0-.286-.16l-6.975-1.24Zm-4.866 34.42a61.923 61.923 0 0 0 1.655-4.086c.534-1.49.986-3.026 1.052-4.13a.5.5 0 0 0-.268-.474c-1.276-.665-2.385-1.872-3.153-4.316l-.001-.005c-.279-.864-.255-2.263-.014-3.954.239-1.668.675-3.54 1.155-5.302a87.729 87.729 0 0 1 2.025-6.418l.035-.099 2.556-4.589 6.453 1.148 9.658 10.87v3.792l-3.492 4.088-3.371 2.962a.503.503 0 0 0-.17.398l.658 14.677-7.432 5.433-10.1-1.631 2.754-8.364Z" fill="#2851A3"/><path d="m108.685 95.159-2.339-2.785c-3.732-3.119-14.954-8.772-17.906-10.833.473-.362 2.255-.417 4.595.585-1.727-2.033-4.54-4.706-5.988-6.962-.5-.807-1.058-1.67-1.086-2.617-.055-1.56 1.254-2.897 2.73-3.37 1.642-.529 3.815.724 6.85 2.478 4.233 2.451 10.805 6.35 10.805 6.35-.669-1.755-2.813-7.268-1.309-8.884 1.058 1.7 3.397 5.375 4.818 7.63a12.39 12.39 0 0 1 1.67 4.01l3.537 11.168" fill="#EBEBEB"/><path d="M108.687 95.59a.5.5 0 0 1-.39-.18l-2.3-2.78c-2.23-1.83-7.43-4.7-11.6-7.09-2.73-1.53-5.09-2.85-6.25-3.61a.49.49 0 0 1-.21-.4.508.508 0 0 1 .2-.41c.5-.38 1.7-.48 3.26-.1l-.73-.79a38.095 38.095 0 0 1-4-4.82l-.06-.08a5.859 5.859 0 0 1-1.15-2.84 4.23 4.23 0 0 1 3.08-3.86c1.6-.52 5.26 1.49 9.52 4l.69.4c2.75 1.59 5.24 3 6.65 3.82-1.15-3.2-2.06-6.68-.73-8.11a.53.53 0 0 1 .41-.16.488.488 0 0 1 .38.24c.64 1 1.75 2.78 2.85 4.51l2 3.12a12.693 12.693 0 0 1 1.69 4.14l3.53 11.12a.508.508 0 0 1-.33.63.501.501 0 0 1-.62-.33l-3.53-11.17a11.906 11.906 0 0 0-1.62-3.91l-2-3.12-2.35-3.74c-.23 1 0 3.2 1.7 7.59v.1a.482.482 0 0 1-.14.55.497.497 0 0 1-.57.06s-3.62-2.06-7.85-4.51l-.69-.4c-2.53-1.53-7.37-4.3-8.69-3.88a3.2 3.2 0 0 0-2.38 2.88 5 5 0 0 0 1 2.29 37.566 37.566 0 0 0 4 4.75c.73.79 1.43 1.54 2 2.23a.5.5 0 0 1 0 .62.5.5 0 0 1-.6.17 8.55 8.55 0 0 0-3.07-.78c1.26.76 3.08 1.79 5.11 2.93 4.42 2.49 9.44 5.26 11.77 7.26l2.4 2.85a.485.485 0 0 1 .063.55.478.478 0 0 1-.123.15.51.51 0 0 1-.32.11Z" fill="#2851A3"/><path d="M96.96 75.778c-2.116-1.42-6.878-4.595-9.022-6.015l9.022 6.015Z" fill="#EBEBEB"/><path d="M87.52 69.487a.5.5 0 0 0 .141.693c2.144 1.42 6.905 4.593 9.02 6.013a.5.5 0 0 0 .558-.83c-2.118-1.421-6.88-4.596-9.025-6.017a.5.5 0 0 0-.693.14Z" fill="#2851A3"/><path d="M95.428 78.84c-2.256-1.837-7.101-5.43-9.273-7.38l9.273 7.38Z" fill="#EBEBEB"/><path d="M85.783 71.127a.5.5 0 0 0 .038.706c1.379 1.238 3.849 3.15 6.037 4.843 1.268.982 2.442 1.89 3.254 2.552a.5.5 0 0 0 .632-.775c-.856-.698-2.058-1.627-3.341-2.62-2.162-1.673-4.555-3.525-5.914-4.744a.5.5 0 0 0-.706.038Z" fill="#2851A3"/><path d="M98.324 75.026c-1.086 1.643-2.2 3.286-3.37 4.874l3.37-4.874Z" fill="#EBEBEB"/><path d="M98.6 74.61a.5.5 0 0 0-.693.14c-1.084 1.641-2.193 3.276-3.355 4.853a.5.5 0 0 0 .805.593c1.177-1.597 2.296-3.248 3.384-4.894a.5.5 0 0 0-.141-.693Z" fill="#2851A3"/><path d="M106.344 77.978c-.028 1.615.028 3.119.307 4.4l-.307-4.4Z" fill="#EBEBEB"/><path d="M106.353 77.478a.5.5 0 0 0-.509.49c-.028 1.626.027 3.176.318 4.516a.5.5 0 0 0 .977-.213c-.266-1.223-.322-2.68-.295-4.285a.5.5 0 0 0-.491-.508Z" fill="#2851A3"/><path d="M102.362 84.494c-1.838-.028-5.096-.39-7.268-1.337l-2.2-1.114" fill="#EBEBEB"/><path fill-rule="evenodd" clip-rule="evenodd" d="M92.448 81.817a.5.5 0 0 0 .22.672l2.2 1.114a.474.474 0 0 0 .026.012c2.261.986 5.597 1.35 7.46 1.379a.5.5 0 0 0 .016-1c-1.809-.028-4.98-.386-7.064-1.29l-2.186-1.107a.5.5 0 0 0-.672.22Z" fill="#2851A3"/><path d="m108.042 96.3 24.84 37.399c3.815 5.319 11.668 4.345 14.954.418l16.765-22.139.751 25.397 34.559.474 12.476-27.347 15.261 18.463-18.101 20.357h13.534l14.425-12.671c3.703-2.924 4.789-8.048 2.645-12.225l-14.202-27.541c-2.813-5.458-6.795-11.39-12.699-13.089l-16.814-3.592-.663 1.096c-3.738 6.18-13.09 4.725-14.773-2.3l-3.478 1.204s-7.965 2.228-9.719 2.952c-6.043 2.478-10.415 7.435-14.035 12.893l-13.729 22.223-25.313-28.293-6.684 6.321Z" fill="#4C88FF"/><path d="m180.658 79.647-2.972 1.03a.57.57 0 0 1-.03.009l-.344.096-.925.262c-.773.22-1.822.521-2.926.844-2.223.651-4.621 1.38-5.467 1.73h-.001c-5.902 2.421-10.204 7.274-13.804 12.701l-13.725 22.215a.497.497 0 0 1-.798.071l-24.97-27.91-6.004 5.679 24.602 37.041c1.794 2.497 4.538 3.527 7.252 3.46 2.725-.066 5.361-1.238 6.899-3.07l16.757-22.129a.5.5 0 0 1 .898.287l.738 24.919 33.754.462 12.34-27.049a.5.5 0 0 1 .841-.111l15.26 18.463a.499.499 0 0 1-.012.65l-17.361 19.525h12.232l14.284-12.547.02-.016c3.515-2.775 4.546-7.638 2.51-11.605l-14.202-27.54c-2.811-5.455-6.705-11.192-12.375-12.832l-16.449-3.515-.479.791c-3.874 6.405-13.423 5.088-15.543-1.91Zm-3.285.08 3.463-1.2L181 79l.486-.117c1.579 6.59 10.352 7.956 13.86 2.158l.662-1.096a.501.501 0 0 1 .533-.23l16.814 3.592a.47.47 0 0 1 .034.009c6.128 1.763 10.193 7.884 13.004 13.34l14.203 27.541c2.25 4.384 1.114 9.764-2.77 12.838l-14.415 12.662a.499.499 0 0 1-.33.125h-13.534a.5.5 0 0 1-.374-.832l17.816-20.037-14.478-17.517-12.145 26.62a.501.501 0 0 1-.461.293l-34.559-.474a.5.5 0 0 1-.493-.485l-.71-23.979-15.908 21.008-.015.019c-1.749 2.09-4.678 3.364-7.65 3.437-2.985.073-6.073-1.067-8.094-3.884a.13.13 0 0 1-.01-.015l-24.84-37.4a.5.5 0 0 1 .073-.64l6.683-6.32a.5.5 0 0 1 .716.03l24.867 27.794 13.378-21.653.008-.014c3.639-5.487 8.08-10.544 14.262-13.08" fill="#4C88FF"/><path d="m191.196 97.637-1.225 2.784 9.969.335 1.031-2.84-9.775-.28Z" fill="#EBEBEB"/><path d="M184.372 48.69c-1.005-.414-3.842 1.27-4.67 2.01-3.96 3.635-.62 8.186.562 10.373 0 0 1.921-8.807 5.113-11.319 3.191-2.541 13.446-1.537 13.446-1.537s-1.921-1.123-5.172-1.655c-3.25-.532-5.112-3.605-6.945-1.27-1.832 2.423-2.334 3.398-2.334 3.398Z" fill="#2851A3"/><path d="M206.004 56.994c-.326 5.438-5.35 12.649-10.373 14.954l.236-3.783 4.566-4.206-2.814.142a.722.722 0 0 1-.76-.695c-.032-.837-.266-1.378-.57-1.748-.311-.378-.744-.64-1.274-.826-.533-.187-1.126-.285-1.72-.36l-.414-.049c-.435-.05-.88-.1-1.225-.182-1.613-.37-3.109-.835-4.164-1.74-1.117-.958-1.651-2.322-1.537-4.239v-.003a15.64 15.64 0 0 1 .497-2.98c.133-.504.135-.981.013-1.36a3.73 3.73 0 0 0-.637.401l-.004.003c-.68.536-1.342 1.453-1.954 2.6-.605 1.134-1.13 2.433-1.563 3.671a44.863 44.863 0 0 0-1.25 4.264l-.065.276-.016.07-.004.018v.004a.724.724 0 0 1-1.345.19 29.73 29.73 0 0 0-.395-.695c-.606-1.045-1.464-2.526-1.878-4.109-.264-1.011-.365-2.112-.106-3.23.261-1.124.876-2.216 1.965-3.216l.007-.006c.478-.427 1.455-1.067 2.431-1.547a8.361 8.361 0 0 1 1.498-.587c.178-.047.375-.09.578-.11.002-.228.04-.452.096-.66.157-.582.489-1.165.849-1.674.367-.516.793-.999 1.183-1.384.377-.373.764-.699 1.054-.865a.726.726 0 0 1 .516-.078h.004l.008.003.033.007.125.029c.109.025.267.063.469.113l.205.05c1.874-.832 4.821-1.44 8.485 1.51.806.649 1.761 1.211 2.746 1.791 3.276 1.93 6.89 4.057 6.504 10.236Zm2.982 49.134a.5.5 0 0 0-.083.702l3.926 4.985a.5.5 0 0 0 .786-.619l-3.927-4.985a.5.5 0 0 0-.702-.083Zm-44.742.394a.5.5 0 0 0-.477.522l.362 8.187a.5.5 0 0 0 .999-.044l-.362-8.188a.5.5 0 0 0-.522-.477Zm.252 30.313a.725.725 0 0 1 .737-.63l34.726.919a.725.725 0 0 1 .618.38l6.015 11.151a.724.724 0 0 1-.637 1.068h-42.317a.727.727 0 0 1-.544-.246.726.726 0 0 1-.173-.572l1.575-12.07Z" fill="#2851A3"/><path d="M233 149.322a.5.5 0 0 0-.5-.5h-98a.5.5 0 0 0 0 1h98a.5.5 0 0 0 .5-.5Z" fill="#2851A3"/><path d="m207.265 37.084 5.097 6.45a1.226 1.226 0 0 0 1.724.2l6.446-5.095a1.223 1.223 0 0 0 .459-.82 1.223 1.223 0 0 0-.255-.905l-5.101-6.445a1.232 1.232 0 0 0-1.729-.205l-6.441 5.096a1.23 1.23 0 0 0-.2 1.724Z" fill="#FAC823"/><path d="M240 56a5.996 5.996 0 0 0 5.543-3.704 6.005 6.005 0 0 0-1.3-6.539 6.002 6.002 0 0 0-9.232.91A6.002 6.002 0 0 0 240 56Z" fill="#4C88FF"/><path d="M101 139a3 3 0 1 0-.001-6.002A3 3 0 0 0 101 139Z" fill="#FAC823"/><path d="M221.977 61.562a.609.609 0 0 1 .208.582.632.632 0 0 1-.406.478l-4.898 1.779a.632.632 0 0 1-.614-.105.606.606 0 0 1-.21-.58l.948-5.063a.63.63 0 0 1 .731-.507.623.623 0 0 1 .293.135l3.948 3.28Z" fill="#41CCB9"/></svg>