<svg width="350" height="350" viewBox="0 0 350 350" fill="none" xmlns="http://www.w3.org/2000/svg"><mask id="ud56vakeb8ma" style="mask-type:alpha" maskUnits="userSpaceOnUse" x="35" y="141" width="140" height="186"><path d="M35.116 141.48h139.746v185.484H35.116V141.48Z" fill="#C4C4C4"/></mask><g mask="url(#ud56vakeb8ma)"><path d="M168.04 194.835c1.221-2.68 2.179-4.815 2.869-4.869-.906 4.084-8.912 27.992-8.719 30.72l-8.724 51.364c-2.067 15.146-14.985 17.015-21.559 10.476-6.568-6.535-15.398-21.571-15.398-21.571l-3.16-4.236 15.731-9.289 10.397 17.614 13.436-45.316s.823-5.267.811-7.176c0-.48-5.038-8.577-5.038-8.577s-1.283-8.245-1.905-11.671c2.511.617 4.777 7.569 5.864 8.672 0 0 2.611-8.52 4.334-13.944 1.252-3.93 2.114-6.694 3.966-7.537 1.648-.752 3.841-.626 5.011.752.721.852.937 2.005 1.129 3.104.534 3.072.85 8.381.955 11.484Z" fill="#fff"/><path d="M166.307 179.949c-1.349-1.589-3.791-1.677-5.553-.873-1.078.491-1.816 1.517-2.434 2.834-.602 1.286-1.128 2.938-1.73 4.827l-.05.155c-.862 2.714-1.946 6.201-2.814 9.009l-1.086 3.523-.151.491a21.67 21.67 0 0 1-.453-.877c-.132-.265-.271-.553-.417-.854-.297-.612-.622-1.282-.964-1.938-.511-.984-1.079-1.974-1.687-2.763-.594-.771-1.289-1.432-2.077-1.626a.46.46 0 0 0-.563.529c.31 1.707.786 4.62 1.184 7.111.199 1.244.379 2.381.509 3.207l.154.981.056.359v.001l.455-.07-.391.243.216.348.57.923a389.4 389.4 0 0 1 1.73 2.832 145.917 145.917 0 0 1 1.726 2.916c.235.411.428.76.561 1.019.067.13.116.231.147.302l.019.047c-.002.93-.196 2.656-.397 4.19a133.586 133.586 0 0 1-.374 2.633l-.026.17-.004.028-13.126 44.274-9.861-16.704a.462.462 0 0 0-.631-.162l-15.731 9.289a.46.46 0 0 0-.134.671l3.145 4.215.013.022.076.128.293.491a215.605 215.605 0 0 0 4.854 7.693c3.029 4.576 6.901 10.005 10.221 13.309 3.408 3.389 8.466 4.606 12.95 3 4.503-1.612 8.336-6.033 9.389-13.733l8.723-51.356a.443.443 0 0 0 .005-.109 3.395 3.395 0 0 1 .053-.65c.046-.312.12-.7.22-1.155.2-.912.498-2.077.866-3.418.735-2.682 1.744-6.048 2.79-9.462.539-1.764 1.09-3.542 1.617-5.246 1.507-4.871 2.824-9.127 3.164-10.658a.46.46 0 0 0-.486-.558.99.99 0 0 0-.506.201c-.137.1-.264.229-.381.371-.234.284-.473.67-.716 1.116a31.308 31.308 0 0 0-.85 1.708c-.149-3.08-.441-7.098-.882-9.631-.187-1.077-.417-2.36-1.231-3.323Zm-49.798 81.005.397-.232a.307.307 0 0 0-.028-.042l-2.854-3.826 14.893-8.794 10.164 17.218a.462.462 0 0 0 .838-.103l13.435-45.316.008-.029.006-.031.009-.061.026-.171.094-.625c.077-.525.18-1.246.282-2.026.204-1.548.411-3.375.405-4.367l-.46.003h.46v-.003c0-.091-.025-.17-.036-.206a1.614 1.614 0 0 0-.058-.148 5.733 5.733 0 0 0-.173-.36 29.674 29.674 0 0 0-.581-1.054 149.064 149.064 0 0 0-1.737-2.935 422.18 422.18 0 0 0-2.306-3.764l-.167-.27-.042-.269-.154-.981c-.13-.827-.309-1.965-.509-3.21a505.565 505.565 0 0 0-1.023-6.204c.268.218.549.518.841.897.558.723 1.095 1.655 1.6 2.625.336.646.649 1.292.943 1.897.148.305.291.6.429.879.203.41.396.785.574 1.095.173.301.352.574.532.757a.46.46 0 0 0 .768-.188l-.44-.135.44.135.116-.376.319-1.039c.271-.884.652-2.118 1.086-3.522.868-2.807 1.951-6.291 2.812-9.001m0 0 .035-.111c.614-1.927 1.124-3.529 1.701-4.76.59-1.258 1.208-2.035 1.982-2.388 1.533-.699 3.478-.536 4.469.631.627.741.831 1.765 1.026 2.885.529 3.037.844 8.318.949 11.421a.46.46 0 0 0 .879.175l.079-.174c.502-1.102.952-2.088 1.354-2.865-.591 2.047-1.526 5.069-2.558 8.405-.531 1.716-1.088 3.516-1.637 5.308-1.045 3.415-2.058 6.792-2.797 9.488a71.15 71.15 0 0 0-.877 3.464c-.103.467-.181.877-.232 1.217a4.556 4.556 0 0 0-.063.79l-8.716 51.314-.002.015c-1.016 7.441-4.674 11.526-8.789 12.999-4.135 1.481-8.823.363-11.99-2.786-3.247-3.232-7.074-8.589-10.102-13.164a212.443 212.443 0 0 1-5.123-8.146l-.075-.126-.025-.042-.397.232m32.177-56.979-.391.243a.453.453 0 0 1-.064-.173l.455-.07Z" fill="#0C296E"/><path d="M161.667 179.073a.46.46 0 0 0-.557.336l-1.658 6.69-1.229 4.96a.46.46 0 1 0 .893.222l1.229-4.959a8173.37 8173.37 0 0 0 1.659-6.692.46.46 0 0 0-.337-.557Zm3.223 1.204a.459.459 0 0 0-.504.411c-.168 1.659-.539 3.731-.934 5.821l-.215 1.136c-.323 1.695-.638 3.35-.841 4.726a.46.46 0 0 0 .91.135c.2-1.355.511-2.985.833-4.68.073-.379.146-.762.218-1.146.394-2.086.772-4.195.945-5.899a.46.46 0 0 0-.412-.504Zm-8.127 11.785a.46.46 0 0 0 .332.56c2.237.569 4.489 1.089 6.757 1.553a.46.46 0 0 0 .184-.901 146.401 146.401 0 0 1-6.714-1.544.46.46 0 0 0-.559.332Zm-4.586 8.23a.46.46 0 0 0-.013.651c1.302 1.358 2.405 2.665 3.123 3.95a.461.461 0 0 0 .804-.448c-.777-1.39-1.946-2.765-3.263-4.139a.462.462 0 0 0-.651-.014Zm16.061-5.879a.46.46 0 0 0-.611.223l-1.015 2.191c-.317.668-.704 1.294-1.187 1.822-1.445 1.569-2.997 3.043-4.559 4.522a.46.46 0 1 0 .634.668c1.559-1.477 3.134-2.971 4.603-4.568l.001-.001c.561-.613.996-1.323 1.341-2.051l.002-.003 1.016-2.193a.46.46 0 0 0-.225-.61ZM45.953 243.364l48.1-.876c7.39-.134 26.029-.508 36.163-.508 1.185-3.484-7.393-10.394-8.799-13.181-2.109-4.174-1.742-5.314-2.134-9.917-.545-6.42-4.776-10.103-8.208-15.218-3.187-4.752-4.521-10.943-5.205-16.57-.192-1.588-.527-3.157-1.054-4.665-1.203-3.436-3.293-6.648-6.808-9.067-7.048-4.683-16.117-3.721-22.398.374-5.358 3.495-7.688 8.039-8.724 14.183-1.094 6.481-6.539 10.226-8.345 16.322-1.156 3.909-.164 8.2-1.265 12.123-1.233 4.378-4.846 7.604-7.36 11.396-1.684 2.536-2.938 5.973-2.276 9.043.741 3.451 3.057 4.911-1.687 6.561Z" fill="#0C296E"/><path d="M75.358 173.352c-5.49 3.581-7.874 8.254-8.926 14.491-.528 3.132-2.108 5.615-3.83 8.122l-.446.645c-1.578 2.282-3.208 4.639-4.057 7.502-.598 2.024-.638 4.137-.672 6.179v.05c-.034 2.046-.067 4.021-.594 5.9-.593 2.106-1.764 3.952-3.125 5.766-.478.638-.987 1.278-1.5 1.925-.924 1.165-1.864 2.35-2.677 3.575-1.715 2.585-3.04 6.151-2.341 9.394.19.886.48 1.643.723 2.281l.013.035c.255.668.435 1.158.468 1.579.03.373-.058.68-.392 1.002-.364.352-1.031.726-2.2 1.132a.461.461 0 0 0 .16.895l24.05-.438h.013l24.036-.437 3.145-.059c8.636-.161 24.108-.45 33.01-.45a.46.46 0 0 0 .436-.312c.363-1.069-.041-2.309-.711-3.51-.684-1.224-1.714-2.53-2.805-3.791-.705-.814-1.449-1.626-2.149-2.39-.382-.417-.751-.819-1.093-1.2-.994-1.105-1.748-2.013-2.067-2.645-1.04-2.059-1.455-3.341-1.667-4.663-.133-.833-.185-1.669-.251-2.73a98.137 98.137 0 0 0-.168-2.356c-.281-3.312-1.515-5.911-3.096-8.312-.787-1.197-1.664-2.35-2.551-3.513l-.031-.041c-.879-1.153-1.767-2.319-2.606-3.57-3.125-4.658-4.449-10.758-5.13-16.368-.196-1.615-.537-3.217-1.077-4.762-1.23-3.512-3.373-6.81-6.981-9.294l-.007-.004c-7.228-4.803-16.498-3.804-22.904.372Zm.503.77c-5.225 3.409-7.501 7.825-8.521 13.874-.566 3.35-2.256 5.98-3.98 8.49l-.437.633c-1.59 2.302-3.137 4.539-3.941 7.254m62.024 24.635c-1.069-2.115-1.524-3.49-1.754-4.933-.139-.871-.197-1.779-.266-2.883a95.37 95.37 0 0 0-.162-2.27c-.264-3.108-1.418-5.56-2.947-7.884-.768-1.166-1.625-2.294-2.515-3.461l-.037-.05c-.875-1.148-1.778-2.332-2.632-3.606-3.251-4.845-4.594-11.126-5.28-16.77-.189-1.561-.517-3.097-1.032-4.569-1.176-3.359-3.211-6.483-6.631-8.838-6.867-4.56-15.733-3.634-21.889.378m-16.88 30.251c-.557 1.885-.6 3.872-.633 5.933l-.002.105c-.033 2.007-.068 4.085-.628 6.079-.639 2.272-1.891 4.227-3.274 6.069a87.7 87.7 0 0 1-1.554 1.995c-.904 1.14-1.797 2.264-2.592 3.462-1.65 2.487-2.833 5.795-2.209 8.691.176.817.444 1.519.69 2.165l.015.04c.237.621.473 1.238.518 1.812.05.63-.128 1.213-.67 1.737a3.636 3.636 0 0 1-.512.404l21.85-.398.184-.003 23.88-.435 3.144-.058c8.518-.159 23.7-.442 32.664-.45m-81.722 1.344-2.186.04.009.46.151.435c.862-.3 1.529-.604 2.026-.935Zm81.722-1.344h.364v.46l-.435-.148c.033-.099.057-.203.071-.312Zm-55.214 56.361 37.29-.165c3.458 7.078 8.892 20.702 11.584 29.251H58.745c.077-.309.156-.607.238-.893 3.27-13.255 6.614-16.498 15.655-28.193Z" fill="#0C296E"/><path d="M79.41 220.058c1.059-.907 2.993-2.873 2.993-12.55l17.791-11.592c-.32 14.549-1.295 21.689 1.866 24.159.723.554 2.677 1.547 5.297 1.562l.774 3.428-2.792 11.678-21.978-4.689-4.355-7.325-1.699-4.083 2.102-.588Z" fill="#fff"/><path d="M100.418 195.515a.459.459 0 0 0-.475.017l-17.791 11.592a.46.46 0 0 0-.21.385c0 4.814-.481 7.669-1.074 9.416-.554 1.633-1.207 2.304-1.681 2.719l-2.003.56a.463.463 0 0 0-.301.62l1.698 4.082c.009.021.019.04.03.059l4.355 7.325a.46.46 0 0 0 .3.215l21.978 4.689a.46.46 0 0 0 .543-.343l2.792-11.678a.461.461 0 0 0 .001-.209l-.773-3.427a.462.462 0 0 0-.447-.359c-2.512-.015-4.368-.969-5.018-1.466-.688-.538-1.178-1.348-1.509-2.531-.332-1.189-.496-2.724-.551-4.668-.07-2.451.032-5.491.157-9.226.074-2.204.156-4.65.215-7.36a.46.46 0 0 0-.236-.412Zm-.704 1.264a673.125 673.125 0 0 1-.194 6.432c-.125 3.763-.228 6.851-.158 9.328.056 1.969.222 3.592.585 4.89.365 1.305.939 2.313 1.83 3.01l.004.002c.762.584 2.664 1.549 5.207 1.649l.671 2.973-2.662 11.137-21.343-4.553-4.236-7.124-1.486-3.573 1.602-.448a.467.467 0 0 0 .175-.093c.58-.497 1.383-1.281 2.03-3.188.628-1.849 1.107-4.747 1.124-9.462l16.85-10.98Z" fill="#0C296E"/><path d="M63.059 226.356c6.34-2.607 5.31-2.075 13.91-6.903l.203.018c1.286 1.488 8.508 9.382 16.96 11.236 7.755 1.707 11.357-.606 12.404-5.434.496-2.295.331-3.635.037-4.149 3.969 1.413 11.834 3.231 15.803 6.132 6.193 4.534 14.848 24.086 14.848 24.086l-14.848 11.016-1.029-4.7-9.408 40.269-37.873.165-12.606-44.95" fill="#00D6B9"/><path d="M86.212 246.783a3.685 3.685 0 0 0-5.031-1.348l-28.363 16.36a3.678 3.678 0 0 0-1.347 5.027l22.391 38.746a3.685 3.685 0 0 0 5.03 1.348l28.363-16.36a3.679 3.679 0 0 0 1.347-5.027l-22.39-38.746Z" fill="#3370FF"/><path d="M127.245 259.054c1.691-.79 3.124-2.442 2.83-3.452-.183-.495-.919-.385-1.36-.128-4.244 2.331-11.87 5.489-16.354 7.307" fill="#fff"/><path d="M129.639 255.75c.03.123.019.301-.073.54-.097.25-.27.533-.514.825a6.031 6.031 0 0 1-2.001 1.521.46.46 0 0 0 .389.834 6.932 6.932 0 0 0 2.318-1.765c.289-.346.524-.715.666-1.083.142-.366.204-.767.093-1.149a.281.281 0 0 0-.01-.031c-.185-.5-.649-.644-1.011-.647a2.069 2.069 0 0 0-1.007.277c-4.217 2.316-11.812 5.462-16.301 7.281a.46.46 0 0 0 .346.853c4.477-1.814 12.13-4.982 16.403-7.33l.01-.005c.162-.095.376-.157.541-.156a.314.314 0 0 1 .14.026.02.02 0 0 1 .011.009Z" fill="#0C296E"/><path d="m63.886 261.735-3.767 24.086s30.725-12.52 41.364-18.652c6.983-4.021 17.549-6.536 26.241-7.949 5.696-.937 1.47 10.703-1.507 12.465-2.72 1.597-6.046 1.707-9.188 1.799-2.462.055-6.817-.257-9.28-.183-3.675.128-25.505 19.001-41.382 27.024-7.773 3.91-18.67 7.013-21.132-.239-2.224-6.536-.33-38.131-.33-38.131l18.981-.22Z" fill="#fff"/><path d="M129.637 259.01c-.539-.296-1.207-.374-1.988-.245-8.699 1.414-19.336 3.939-26.396 8.004-5.293 3.051-15.608 7.703-24.624 11.602a962.906 962.906 0 0 1-15.344 6.474l-.585.241 3.64-23.281a.46.46 0 0 0-.46-.531l-18.981.22a.46.46 0 0 0-.454.433l.459.027-.46-.027v.001l-.005.09-.015.266a489.149 489.149 0 0 0-.24 4.688c-.144 3.066-.31 7.224-.409 11.587-.097 4.361-.126 8.933.01 12.827.135 3.869.433 7.139 1.014 8.848.657 1.934 1.89 3.198 3.495 3.918 1.588.712 3.511.88 5.556.697 4.088-.366 8.816-2.148 12.724-4.114 7.977-4.031 17.434-10.778 25.33-16.511l1.897-1.379c3.197-2.325 6.075-4.419 8.423-6.016 1.402-.954 2.605-1.724 3.566-2.258.481-.267.894-.47 1.235-.608.349-.14.59-.198.739-.203 1.213-.036 2.899.022 4.608.085l.162.005c1.645.06 3.297.12 4.505.093h.003c3.118-.091 6.569-.195 9.408-1.862l.001-.001c.857-.507 1.729-1.661 2.462-2.998a18.875 18.875 0 0 0 1.757-4.536c.364-1.53.478-3.062.072-4.179-.208-.574-.561-1.06-1.105-1.357Zm-84.298 3.399 18.008-.209-3.683 23.549a.46.46 0 0 0 .629.498l-.174-.426.174.426.348-.143.994-.408a977.434 977.434 0 0 0 15.359-6.48c9.005-3.894 19.372-8.568 24.718-11.649 6.906-3.976 17.401-6.482 26.085-7.894.644-.106 1.09-.025 1.398.144.305.166.532.45.682.864.311.856.251 2.168-.102 3.652a17.96 17.96 0 0 1-1.669 4.307c-.719 1.312-1.492 2.274-2.123 2.648-2.6 1.526-5.8 1.643-8.966 1.735-1.18.027-2.808-.032-4.469-.093l-.142-.005c-1.699-.062-3.421-.122-4.671-.085h-.002c-.31.011-.67.116-1.052.27-.39.157-.839.38-1.337.657-.998.554-2.228 1.342-3.638 2.301-2.36 1.606-5.254 3.711-8.45 6.035l-1.893 1.376c-7.907 5.742-17.304 12.442-25.203 16.434-3.865 1.944-8.472 3.669-12.392 4.019-1.958.175-3.707.004-5.097-.62-1.374-.616-2.426-1.684-3-3.375-.531-1.558-.83-4.69-.966-8.583-.135-3.868-.107-8.421-.01-12.775a489.88 489.88 0 0 1 .591-15.23l.053-.94Z" fill="#0C296E"/><path d="M129.98 263.076a.462.462 0 0 0-.527-.383c-.345.055-.692.105-1.041.155l-.002.001c-.348.05-.7.101-1.052.156a.461.461 0 0 0 .143.91c.346-.055.693-.105 1.042-.156h.002c.348-.05.7-.101 1.052-.157a.46.46 0 0 0 .383-.526Zm-5.028 3.698a.46.46 0 0 0 .392.519c.97.136 2.059.095 3.128.022a.46.46 0 0 0-.063-.919c-1.063.074-2.07.107-2.937-.015a.461.461 0 0 0-.52.393ZM60.537 285.63a.46.46 0 0 0-.61-.227l-7.369 3.378a.46.46 0 0 0 .384.837l7.369-3.378a.46.46 0 0 0 .226-.61Z" fill="#0C296E"/><path d="m65.54 252.536-1.636 12.025-20.03-.881s0-15.238 2.04-22.967c.863-2.79 2.297-8.867 17.144-14.338" fill="#00D6B9"/><path d="M65.6 252.08a.46.46 0 0 0-.517.394l-1.636 12.025a.46.46 0 1 0 .912.124l1.636-12.025a.461.461 0 0 0-.394-.518Zm13.533-79.321a5.56 5.56 0 0 0 5.561-5.558 5.56 5.56 0 0 0-5.56-5.558 5.56 5.56 0 0 0-5.562 5.558 5.56 5.56 0 0 0 5.561 5.558Z" fill="#0C296E"/><path d="M79.133 162.102a5.1 5.1 0 1 0 0 10.196 5.1 5.1 0 1 0 0-10.196Zm-6.021 5.098a6.02 6.02 0 0 1 6.021-6.018 6.02 6.02 0 1 1 0 12.037 6.02 6.02 0 0 1-6.021-6.019Z" fill="#0C296E"/><path d="M89.814 174.447h-.035c-8.809 0-15.954 6.875-15.954 15.359 0 8.483 2.048 10.316 6.202 10.316.007 0 9.763 5.043 9.766 5.043h.017c15.954 0 15.878-6.144 15.878-14.627.007-8.484-7.062-16.091-15.874-16.091Z" fill="#fff"/><path d="M73.365 189.805c0-8.754 7.367-15.819 16.414-15.819h.034c9.08 0 16.342 7.827 16.335 16.551v.138c0 2.061 0 4.022-.241 5.789-.249 1.812-.756 3.462-1.809 4.846-2.116 2.781-6.288 4.314-14.288 4.314h-.017a.969.969 0 0 1-.198-.045l-.007-.003-.005-.003-.007-.003-.022-.012-4.854-2.507a21333.644 21333.644 0 0 1-4.463-2.304l-.31-.16-.012-.006h.112a.927.927 0 0 1-.184-.038l-.013-.006-.003-.001.02.009.068.036c-2.091-.017-3.791-.505-4.928-2.178-1.116-1.643-1.622-4.349-1.622-8.598Zm16.414-14.898c-8.572 0-15.494 6.685-15.494 14.898 0 4.235.517 6.687 1.464 8.081.906 1.334 2.266 1.775 4.278 1.775a.913.913 0 0 1 .185.039l.013.006.008.004.009.004.023.012.083.043.311.16 1.107.571 3.356 1.734 4.782 2.47c7.89-.013 11.634-1.549 13.462-3.951.922-1.212 1.393-2.689 1.629-4.414.233-1.704.233-3.611.233-5.701v-.101c.007-8.243-6.87-15.63-15.414-15.63h-.035Z" fill="#0C296E"/><path d="M105.575 188.414c.718 5.146.943 11.165-.211 15.849-1.357 5.501-5.256 9.129-11.112 9.736-3.447.356-7.004-.942-9.583-3.22-2.58-2.278-4.509-7.079-5.484-10.654" fill="#fff"/><path d="M105.512 188.958a.46.46 0 0 1 .519.392c.721 5.167.954 11.254-.22 16.022-1.401 5.682-5.453 9.456-11.512 10.084-3.588.37-7.27-.979-9.934-3.333-1.358-1.199-2.517-3.033-3.454-4.986-.941-1.962-1.676-4.083-2.17-5.892a.46.46 0 0 1 .888-.242c.482 1.766 1.2 3.833 2.111 5.736.916 1.91 2.012 3.615 3.234 4.694 2.494 2.203 5.926 3.449 9.23 3.108 5.656-.587 9.401-4.068 10.714-9.389 1.132-4.599.917-10.55.201-15.675a.46.46 0 0 1 .393-.519Z" fill="#0C296E"/><path d="M99.97 192.516a.46.46 0 0 1 .573.308l1.968 6.578a.806.806 0 0 1-.932 1.022l-.003-.001-1.405-.293a.46.46 0 1 1 .188-.901l1.216.254-1.913-6.395a.46.46 0 0 1 .308-.572Zm-21.724 1.932c.204-4.232 23.736.007 23.736-15.807 0 0-6.507-11.571-22.845-4.563-7.775 3.332-9.415 14.386-8.597 20.381.338 2.477 1.88 2.641 4.7 2.568.938-.025 1.778-2.579 3.006-2.579Z" fill="#0C296E"/><path d="m102.383 178.414-.401.226.401-.225a.456.456 0 0 1 .059.225c0 4.087-1.528 6.915-3.84 8.896-2.292 1.963-5.324 3.069-8.302 3.798-1.902.465-3.837.787-5.554 1.073-.953.158-1.839.305-2.615.46-1.114.222-2 .456-2.606.749-.616.297-.806.583-.819.853a.46.46 0 0 1-.46.438c-.141 0-.317.074-.548.281-.228.206-.453.492-.695.815l-.1.134a8.886 8.886 0 0 1-.636.792c-.239.253-.58.546-1.014.557-1.39.036-2.588.024-3.478-.366a2.53 2.53 0 0 1-1.14-.954c-.285-.437-.46-.984-.55-1.646-.418-3.061-.208-7.394 1.094-11.393 1.302-3.998 3.72-7.735 7.777-9.473 8.29-3.555 14.15-2.416 17.952-.326a15.623 15.623 0 0 1 4.146 3.309c.447.503.776.942.995 1.258.109.158.191.285.247.374l.063.104.017.029.005.009.001.002.001.001Zm-.862.353a12.498 12.498 0 0 0-1.155-1.52 14.73 14.73 0 0 0-3.901-3.113c-3.536-1.944-9.098-3.086-17.147.366-3.719 1.594-6.007 5.05-7.264 8.912-1.257 3.859-1.458 8.051-1.058 10.984.08.576.223.98.41 1.268.183.281.423.475.738.613.67.293 1.652.326 3.084.289.036-.001.151-.038.37-.269.177-.187.356-.427.56-.702l.108-.144c.239-.318.513-.673.816-.946.214-.193.471-.372.77-.46.178-.577.684-.974 1.273-1.258.72-.348 1.706-.6 2.826-.823.834-.166 1.746-.317 2.71-.477 1.69-.28 3.542-.587 5.42-1.047 2.93-.717 5.794-1.781 7.922-3.603 2.083-1.784 3.488-4.32 3.518-8.07Z" fill="#0C296E"/><path d="M80.03 200.123c-1.122-.062-2.884-.432-3.844-1.046-1.177-.752-2.11-2.112-2.32-3.51-.135-.883-.004-4.204 3.184-4.204 1.284 0 3.018 1.647 3.55 2.085" fill="#fff"/><path d="M74.633 193.319c-.37.842-.37 1.801-.312 2.178v.001c.19 1.258 1.04 2.505 2.113 3.191.42.268 1.045.499 1.726.671.675.17 1.366.273 1.895.303a.46.46 0 1 1-.05.919 11.422 11.422 0 0 1-2.07-.33c-.72-.181-1.456-.442-1.996-.788-1.282-.819-2.296-2.292-2.528-3.829-.077-.507-.077-1.649.38-2.687.232-.528.59-1.044 1.132-1.428.544-.387 1.246-.618 2.127-.618.413 0 .831.131 1.213.306.387.177.766.414 1.11.657.523.369 1.001.782 1.302 1.042l.217.185a.46.46 0 0 1-.585.71c-.073-.06-.161-.136-.262-.223-.303-.261-.722-.623-1.203-.963a6.161 6.161 0 0 0-.962-.571c-.32-.147-.601-.222-.83-.222-.713 0-1.223.184-1.595.447-.376.267-.64.636-.822 1.049Z" fill="#0C296E"/></g><path d="M184.831 214.577c-4.713 0-8.534-3.827-8.534-8.549v-79.556c0-4.721 3.799-8.548 8.512-8.548h135.518c4.713 0 8.513 3.827 8.513 8.548v14.708h-24.099c-8.98 0-16.257 7.293-16.257 16.291v12.016a4.27 4.27 0 0 0 4.267 4.274h36.089v32.267c0 4.722-3.821 8.549-8.534 8.549h-5.549l-27.641 26.234v-26.234H184.831Z" fill="#fff"/><path d="M184.81 118.457c-4.417 0-7.98 3.587-7.98 8.015v79.555c0 4.427 3.582 8.015 8.001 8.015h102.285c.294 0 .533.239.533.534v24.992l26.742-25.38a.531.531 0 0 1 .366-.146h5.549c4.418 0 8-3.588 8-8.015v-31.539a.534.534 0 1 1 1.067 0v31.539c0 5.017-4.059 9.083-9.067 9.083h-5.336l-27.487 26.088a.534.534 0 0 1-.9-.388v-25.7H184.831c-5.008 0-9.067-4.066-9.067-9.083v-79.555c0-5.015 4.036-9.083 9.046-9.083h135.517c5.01 0 9.046 4.068 9.046 9.083v13.795a.534.534 0 1 1-1.067 0v-13.795c0-4.428-3.562-8.015-7.979-8.015H184.81Z" fill="#0C296E"/><g clip-path="url(#udzmjdcxv4jb)"><path d="M158.38 133.716c3.871 7.616 2.284 11.44 9.697 17.918 0 0 20.923 26.651 31.754 41.842 4.324 6.063 11.836 5.851 18.094.826l20.386-16.267-14.541-11.111-14.942 16.169c-6.626-6.723-29.622-29.529-34.681-35.514-.722-2.566-.637-5.276-.954-7.919-.777-6.412-4.099-10.677-7.539-16.161l-.065 1.294c-.535-.847-1.07-1.694-1.715-2.458-.893-1.062-2.022-1.979-3.491-2.1-1.88-.168-1.726.43-1.413 1.534 2.479 5.152 3.645 8.441 4.904 12.808l.444 5.663c-2.203-3.786-4.252-6.448-5.938-6.524Z" fill="#fff"/><path d="M208.069 198.895a12.467 12.467 0 0 1-1.557-.107 10.932 10.932 0 0 1-4.226-1.56 10.972 10.972 0 0 1-3.242-3.131c-10.667-15.013-31.522-41.557-31.735-41.824-4.918-4.274-5.952-7.555-7.147-11.327a41.625 41.625 0 0 0-2.603-6.679.53.53 0 0 1 .025-.535.534.534 0 0 1 .477-.245c1.461.064 3.093 1.592 5.205 4.873l-.266-3.377a72.842 72.842 0 0 0-4.875-12.673c-.224-.759-.406-1.4 0-1.881.405-.481.885-.513 1.941-.417a5.666 5.666 0 0 1 3.862 2.287c.33.395.629.802.917 1.218a.51.51 0 0 1 .309-.224.528.528 0 0 1 .587.224c.501.802 1.003 1.571 1.483 2.319 2.933 4.542 5.461 8.463 6.144 14.063.096.897.16 1.784.224 2.682.062 1.703.291 3.396.683 5.054 4.011 4.713 18.454 19.235 28.034 28.852 2.517 2.522 4.661 4.68 6.144 6.187l14.561-15.762a.544.544 0 0 1 .725-.064l14.54 11.114a.525.525 0 0 1 .202.416.52.52 0 0 1-.192.428l-20.427 16.221a15.987 15.987 0 0 1-9.793 3.868Zm-48.984-63.89a45.202 45.202 0 0 1 2.133 5.61c1.205 3.782 2.134 6.764 6.902 10.921.277.341 21.121 26.906 31.842 41.931a9.86 9.86 0 0 0 6.742 4.274c3.402.47 7.157-.791 10.582-3.537l19.777-15.847-13.612-10.408-14.614 15.815a.511.511 0 0 1-.384.171.568.568 0 0 1-.384-.16c-1.483-1.507-3.798-3.826-6.539-6.572-9.601-9.681-24.236-24.31-28.172-28.969a.76.76 0 0 1-.107-.203 27.29 27.29 0 0 1-.747-5.343 43.072 43.072 0 0 0-.224-2.629c-.587-4.883-2.699-8.495-5.227-12.46a348.19 348.19 0 0 0 3.03 5.578.542.542 0 0 1-.053.593.534.534 0 0 1-.564.178.54.54 0 0 1-.322-.247c-1.227-2.233-4.022-7.341-4.416-8.324a20.16 20.16 0 0 0-1.643-2.362 4.67 4.67 0 0 0-3.126-1.913c-.864-.074-1.066.054-1.066.054.039.272.103.54.192.801a72.836 72.836 0 0 1 4.896 12.823.32.32 0 0 1 0 .107l.448 5.664a.534.534 0 0 1-.992.309c-1.707-3.088-3.179-5.033-4.352-5.855Zm8.011-1.229a.535.535 0 0 1-.48-.3c-3.382-6.828-4.619-8.751-6.646-11.049a.513.513 0 0 1-.157-.374.53.53 0 0 1 .157-.374.507.507 0 0 1 .747 0c2.133 2.373 3.371 4.339 6.805 11.285a.542.542 0 0 1-.245.716.656.656 0 0 1-.181.096Z" fill="#0C296E"/><path d="M234.223 151.603a.533.533 0 0 1 .868.133l9.944 20.496c.1.205.058.452-.104.613l-14.018 13.934a.532.532 0 0 1-.768-.016l-14.013-15.202a.534.534 0 0 1 .003-.728l18.088-19.23Z" fill="#3370FF"/><path d="m233.742 147.751 16.97-7.756c-1.775-4.576-3.376-9.942-3.376-9.942s3.67-11.804 2.834-12.882c-.837-1.072-13.052-12.286-13.052-12.286l-11.407-.576-3.217 1.216s-3.507 8.177-2.126 12.086l-3.901 6.895 3.638.647s-.984 10.4 4.528 12.015c5.506 1.614 11.039-3.024 11.039-3.024" fill="#fff"/><path d="M233.85 148.293a.516.516 0 0 0 .214-.053l16.971-7.758a.522.522 0 0 0 .278-.673c-1.579-4.072-3.04-8.838-3.318-9.746 1.408-4.531 3.563-12.096 2.699-13.218-.864-1.122-11.862-11.199-13.11-12.353a.563.563 0 0 0-.331-.139l-11.414-.577a.692.692 0 0 0-.213 0l-3.2 1.218a.563.563 0 0 0-.299.289c-.139.342-3.446 8.11-2.219 12.246l-3.776 6.689a.538.538 0 0 0 0 .492.54.54 0 0 0 .384.299l3.2.555c-.128 2.138-.266 10.558 4.939 12.086 5.718 1.678 11.297-2.928 11.532-3.12a.556.556 0 0 0 .131-.162.539.539 0 0 0-.224-.723.536.536 0 0 0-.59.062c-.054 0-5.334 4.435-10.539 2.917-5.206-1.517-4.161-11.348-4.15-11.444a.54.54 0 0 0-.437-.577l-2.902-.524 3.531-6.23a.555.555 0 0 0 0-.449c-1.184-3.334 1.504-10.205 2.027-11.487l2.901-1.068 11.094.555c3.499 3.206 12.204 11.252 12.801 12.097.32.801-1.227 6.935-2.923 12.395a.513.513 0 0 0 0 .31c0 .053 1.515 5.076 3.2 9.51l-16.513 7.545a.543.543 0 0 0-.266.705.534.534 0 0 0 .522.331Z" fill="#0C296E"/><path d="M232.621 135.837a.534.534 0 0 0-.474.587l1.066 10.152a.534.534 0 0 0 1.061-.112l-1.066-10.152a.534.534 0 0 0-.587-.475Zm15.785-37.981s15.062 2.285 8.216 20.286c-3.948 10.377-8.786 13.435-8.786 13.435l-4.791-6.917s5.4-6.578.833-9.13c-4.564-2.545-6.259 5.935-5.534 8.588l-3.591-7.568s-6.729-1.859-5.635-9.259c0 0-12.079.545-12.056.08.019-.466 1.615-14.128 12.457-11.863 0 0 .643-4.988 8.952-3.539 8.308 1.455 9.935 5.887 9.935 5.887Z" fill="#0C296E"/><path d="M246.199 95.858c-1.364-1.218-3.754-2.65-7.82-3.361-4.049-.706-6.104.173-7.146 1.1-.53.47-.828.979-.994 1.366a3.154 3.154 0 0 0-.187.589l-.004.026-.001.002.001-.002-.001.002a.533.533 0 0 1-.637.452c-2.593-.541-4.591-.126-6.142.773-1.564.905-2.721 2.328-3.57 3.87-.848 1.541-1.374 3.174-1.689 4.457-.157.639-.26 1.188-.325 1.589-.015.092-.027.176-.038.252.306.026.75.042 1.296.049 1.119.014 2.618-.01 4.125-.049a329.549 329.549 0 0 0 5.509-.191l.383-.017.134-.006.025.534-.025-.534a.533.533 0 0 1 .552.612c-.517 3.5.806 5.643 2.236 6.928a8.6 8.6 0 0 0 2.764 1.655c.084.03.149.051.192.065l.047.014.01.003a.534.534 0 0 1 .34.286l2.467 5.199.029-.281c.133-1.169.43-2.45.906-3.573.47-1.11 1.144-2.135 2.073-2.698.975-.591 2.142-.621 3.427.096 1.289.719 1.907 1.755 2.066 2.896.154 1.107-.128 2.269-.533 3.29-.408 1.028-.962 1.964-1.408 2.638-.218.329-.413.599-.556.79l4.255 6.142c.099-.078.213-.173.343-.286.494-.43 1.201-1.116 2.034-2.124 1.664-2.015 3.832-5.322 5.786-10.458 1.687-4.438 2.007-7.859 1.577-10.488-.429-2.621-1.609-4.493-2.99-5.832-1.387-1.345-2.985-2.16-4.247-2.638a13.397 13.397 0 0 0-1.55-.486 9.34 9.34 0 0 0-.554-.118l-.027-.005h-.006a.533.533 0 0 1-.419-.342l-.001-.001-.001-.002-.01-.025a4.666 4.666 0 0 0-.321-.585 7.802 7.802 0 0 0-1.375-1.573Zm1.636 35.72.285.452a.533.533 0 0 1-.723-.147l-4.791-6.917a.534.534 0 0 1 .026-.644l.412.339-.412-.339.002-.003.01-.012.017-.021a13.154 13.154 0 0 0 .711-.988c.423-.639.935-1.507 1.306-2.442.374-.943.585-1.904.467-2.748-.112-.81-.532-1.554-1.528-2.11-.997-.556-1.752-.48-2.356-.114-.65.394-1.21 1.178-1.643 2.201-.428 1.01-.704 2.188-.828 3.276-.125 1.099-.088 2.049.068 2.617a.535.535 0 0 1-.996.371l-3.492-7.359a8.865 8.865 0 0 1-.879-.361 9.686 9.686 0 0 1-2.323-1.535c-1.568-1.41-2.987-3.706-2.655-7.24l-1.262.051c-1.133.044-2.645.097-4.156.136-1.51.04-3.026.064-4.166.05a19.292 19.292 0 0 1-1.404-.056 3.131 3.131 0 0 1-.46-.068.897.897 0 0 1-.234-.089.58.58 0 0 1-.302-.532l.533.027-.533-.021c.006-.165.118-1.145.444-2.475.329-1.34.883-3.068 1.791-4.718.908-1.649 2.185-3.246 3.97-4.28 1.69-.978 3.796-1.428 6.392-.988a4.923 4.923 0 0 1 1.399-2.095c1.357-1.205 3.777-2.095 8.038-1.352 4.242.743 6.82 2.254 8.346 3.616a8.85 8.85 0 0 1 1.561 1.792c.138.213.237.394.306.53a14.46 14.46 0 0 1 2.066.613c1.348.513 3.087 1.394 4.61 2.87 1.529 1.483 2.831 3.558 3.3 6.427.469 2.863.103 6.478-1.633 11.041-1.994 5.241-4.219 8.651-5.961 10.759-.87 1.054-1.619 1.782-2.155 2.249-.269.234-.484.403-.635.515-.075.056-.135.097-.176.126l-.05.033-.015.01-.004.003-.002.001s-.001.001-.286-.451Zm-30.526-24.652.003.001-.003-.001Z" fill="#0C296E"/><path d="m250.373 188.097-.658-.257a412.858 412.858 0 0 1-6.532-2.626c-5.025-2.075-10.881-4.631-14.077-6.518a.536.536 0 0 1-.262-.483c.138-3.267.138-6.296.138-9.286v-.003c0-.825 0-1.647.003-2.47.014-3.802.089-7.615.517-11.809.54-5.304 2.116-8.977 4.22-11.484 2.105-2.509 4.706-3.81 7.22-4.428 2.509-.617 4.937-.556 6.73-.346.898.105 1.642.249 2.163.367.26.058.466.111.607.149l.164.046.037.011c1.061.232 2.396.852 3.847 1.78 1.469.939 3.086 2.214 4.702 3.782 3.23 3.135 6.476 7.463 8.51 12.663 3.866 9.891 8.204 22.363 11.575 32.358 1.685 4.998 3.129 9.379 4.152 12.51.695 2.13.897 4.117 1.159 6.826.216 2.246.355 5.728.355 5.728h-13.47c-2.672 0-5.878-.534-5.878-.534-5.073 1.419-11.33-.028-17.1 0-.536.958.698-1.731.697-2.026-.08.42-.324.001-.029 0 .009 0-.306.957.029 0l1.181-23.95Z" fill="#3370FF"/><path d="M234.88 202.343c-12.801 7.088-17.554 10.896-26.396 15.286 8.842 0 6.83.051 25.347 0 11.2-.031 15.005 0 15.839-8.198.988-9.703 1.121-21.68 1.121-21.68l-17.944-7.98" fill="#fff"/><path d="M232.458 180.137a.534.534 0 0 1 .605-.855l17.944 7.98a.536.536 0 0 1 .317.495l-.002.137a307.41 307.41 0 0 1-.035 1.891c-.028 1.277-.075 3.08-.154 5.187-.157 4.211-.437 9.644-.933 14.513-.212 2.081-.617 3.701-1.318 4.943-.712 1.262-1.711 2.105-3.041 2.658-1.309.544-2.93.804-4.893.934-1.923.128-4.221.135-6.936.142l-.18.001c-12.252.033-15.519.022-18.887.011-1.723-.006-3.472-.011-6.461-.011a.535.535 0 0 1-.237-1.013c4.398-2.184 7.78-4.223 11.671-6.608l.883-.542.003-.002c3.618-2.22 7.748-4.754 13.526-7.962a222.36 222.36 0 0 0-.301-3.503c-.192-2.095-.447-4.789-.702-7.451a6970.808 6970.808 0 0 0-.934-9.622l-.088-.894a.535.535 0 0 1 .153-.429Zm.922.456.075.763.231 2.367c.192 1.964.447 4.594.703 7.257.255 2.662.51 5.359.702 7.456.186 2.041.317 3.559.321 3.891a.522.522 0 0 1-.248.467l-.033.019c-5.906 3.271-10.095 5.841-13.771 8.097l-.885.543c-3.295 2.02-6.246 3.805-9.767 5.642 1.735.002 2.995.006 4.241.011h.002c3.366.011 6.629.022 18.878-.012h.154c2.737-.008 5.006-.014 6.895-.14 1.927-.128 3.408-.379 4.555-.855 1.126-.469 1.934-1.157 2.52-2.196.597-1.058.98-2.509 1.186-4.527.492-4.835.772-10.242.928-14.444a334.229 334.229 0 0 0 .182-6.657l.003-.18-16.872-7.502Zm-.544-.079.3-.03-.3.03Zm-.531.052.531-.052-.531.052Z" fill="#0C296E"/><path d="M230.25 152.928a.534.534 0 0 0-.598.461c-.427 3.29-.628 9.515-.723 14.887a573.216 573.216 0 0 0-.085 9.157v.798h.533-.533a.537.537 0 0 0 .317.488l24.234 10.777a.533.533 0 0 0 .748-.535l-1.469-16.991a.533.533 0 1 0-1.063.092l1.391 16.09-23.092-10.269.001-.449a551.34 551.34 0 0 1 .085-9.139c.095-5.386.296-11.548.714-14.768a.534.534 0 0 0-.46-.599Z" fill="#0C296E"/></g><path d="M330.84 141.18h-26.099c-8.979 0-16.257 7.292-16.257 16.29v12.017a4.271 4.271 0 0 0 4.267 4.274h38.089c8.98 0 16.257-7.293 16.257-16.291 0-8.998-7.277-16.29-16.257-16.29Z" fill="#BBBFC4" fill-opacity=".45"/><path d="M300.223 153.907c0-.295.238-.534.533-.534h30.04a.534.534 0 0 1 0 1.069h-30.04a.533.533 0 0 1-.533-.535Zm0 8.614c0-.295.238-.535.533-.535h18.224a.535.535 0 0 1 0 1.069h-18.224a.533.533 0 0 1-.533-.534Z" fill="#0C296E"/><path d="M267.093 265.119h-89.231l-15.87 59.567h89.231l15.87-59.567Z" fill="#14C0FF"/><path d="M251.224 324.688H134.686v2.665h116.538v-2.665Z" fill="#0C296E"/><path d="M218.245 299.653a4.858 4.858 0 0 0 4.854-4.862 4.858 4.858 0 0 0-4.854-4.863 4.858 4.858 0 0 0-4.854 4.863 4.858 4.858 0 0 0 4.854 4.862Z" fill="#fff"/><path d="M18.1 327.353c0-.276.223-.499.498-.499h235.977a.498.498 0 0 1 0 .998H18.598a.499.499 0 0 1-.498-.499Z" fill="#0C296E"/><path d="M26.842 160.707a3.36 3.36 0 0 0-3.357 3.363v7.606h19.379a1.68 1.68 0 0 1 1.678 1.681v7.6h16.016a3.36 3.36 0 0 0 3.357-3.363V164.07a3.36 3.36 0 0 0-3.357-3.363H26.842Z" fill="#14C0FF"/><g filter="url(#udx9136axuuc)"><path d="M23.485 171.676h21.057v9.281h-17.7a3.36 3.36 0 0 1-3.357-3.363v-5.918Z" fill="#14C0FF"/></g><path d="M41.346 171.675a2.94 2.94 0 0 1 2.938 2.942v24.324l-6.931-6.774a.417.417 0 0 0-.294-.119H8.9a2.94 2.94 0 0 1-2.937-2.943v-14.488a2.94 2.94 0 0 1 2.937-2.942h32.447Zm3.777 2.942a3.78 3.78 0 0 0-3.777-3.783H8.9a3.78 3.78 0 0 0-3.776 3.783v14.488a3.78 3.78 0 0 0 3.776 3.783h27.99l7.521 7.351a.418.418 0 0 0 .713-.301v-25.321Z" fill="#0C296E"/><path d="M15.385 88.475a6.04 6.04 0 0 0 2.151 8.267l28.65 16.818 10.04-17.101C45.572 89.771 42.1 75.778 48.511 64.856c6.411-10.921 20.322-14.71 31.354-8.668l9.323-15.88-28.65-16.82a6.04 6.04 0 0 0-8.267 2.152L15.385 88.475Z" fill="#FFC60A"/><path d="M76.766 61.47c8.63 5.066 11.52 16.17 6.453 24.8-5.067 8.631-16.17 11.52-24.801 6.454-8.63-5.067-11.52-16.17-6.453-24.801 5.066-8.631 16.17-11.52 24.8-6.454Z" fill="#FFC60A"/><path d="M107.986 67.036a.5.5 0 0 1 .493.507c-.138 10.078-2.815 20.258-8.282 29.57-4.54 7.734-10.541 14.08-17.448 18.892a.5.5 0 0 1-.572-.82c6.791-4.731 12.693-10.971 17.158-18.578 5.377-9.158 8.008-19.169 8.144-29.078a.5.5 0 0 1 .507-.493Zm-13.102 81.743a.5.5 0 0 0 .683.186c13.867-7.943 25.913-19.501 34.583-34.269 8.669-14.768 12.89-30.92 13.066-46.9a.5.5 0 1 0-.999-.011c-.175 15.81-4.35 31.79-12.929 46.405-8.579 14.613-20.498 26.049-34.218 33.907a.5.5 0 0 0-.186.682Z" fill="#0C296E"/><path d="M99.96 166.633a.5.5 0 0 0 .675.212c18.177-9.469 34.001-23.996 45.142-42.974 11.141-18.978 16.113-39.875 15.522-60.363a.5.5 0 0 0-1 .029c.586 20.305-4.341 41.016-15.385 59.828-11.043 18.811-26.725 33.209-44.741 42.594a.5.5 0 0 0-.212.674Zm26.149-99.464a.5.5 0 0 0-.506.494c-.156 12.988-3.593 26.113-10.64 38.118-6.629 11.291-15.68 20.277-26.104 26.685a.5.5 0 0 0 .523.852c10.561-6.492 19.73-15.595 26.443-27.031 7.137-12.159 10.62-25.455 10.778-38.612a.5.5 0 0 0-.494-.506ZM89.473 24.92a.5.5 0 0 1 .5-.5h231.579a8.498 8.498 0 0 1 8.498 8.498v63.985a.5.5 0 0 1-1 0V32.918a7.498 7.498 0 0 0-7.498-7.498H89.972a.5.5 0 0 1-.5-.5Zm-64.386 94.858a.5.5 0 0 1 .5.5v29.448a.5.5 0 0 1-1 0v-29.448a.5.5 0 0 1 .5-.5Zm0 92.337a.5.5 0 0 1 .5.5v87.844a.5.5 0 1 1-1 0v-87.844a.5.5 0 0 1 .5-.5Z" fill="#0C296E"/><path d="M278.132 50.912a3.49 3.49 0 0 0-3.487 3.493 3.49 3.49 0 0 0 3.487 3.494 3.49 3.49 0 0 0 3.487-3.494 3.49 3.49 0 0 0-3.487-3.493Zm-4.484 3.493a4.488 4.488 0 0 1 4.484-4.49 4.488 4.488 0 0 1 4.484 4.49 4.488 4.488 0 0 1-4.484 4.492 4.488 4.488 0 0 1-4.484-4.492Zm19.185-3.493a3.49 3.49 0 0 0-3.487 3.493 3.49 3.49 0 0 0 3.487 3.494 3.49 3.49 0 0 0 3.487-3.494 3.49 3.49 0 0 0-3.487-3.493Zm-4.483 3.493a4.487 4.487 0 0 1 4.483-4.49 4.488 4.488 0 0 1 4.484 4.49 4.488 4.488 0 0 1-4.484 4.492 4.487 4.487 0 0 1-4.483-4.492Zm14.702 0a4.487 4.487 0 0 1 4.483-4.49 4.487 4.487 0 0 1 4.484 4.49 4.487 4.487 0 0 1-4.484 4.492 4.487 4.487 0 0 1-4.483-4.492Z" fill="#0C296E"/><g filter="url(#udhxdi1rtnnd)"><path d="M297.128 311.427c6.41 0 11.607-5.189 11.607-11.589 0-6.401-5.197-11.59-11.607-11.59-6.411 0-11.607 5.189-11.607 11.59 0 6.4 5.196 11.589 11.607 11.589Z" fill="#FFC60A"/></g><path d="M301.997 298.251v6.01h-7.57c-15.554 0-28.266 11.249-28.266 25.24a.5.5 0 0 0 .5.5h22.781a.5.5 0 0 0 0-1h-22.275c.299-13.105 12.336-23.74 27.26-23.74h8.07a.5.5 0 0 0 .5-.5v-6.51c0-13.334 12.152-24.24 27.265-24.24a.499.499 0 1 0 0-.999c-15.554 0-28.265 11.248-28.265 25.239Z" fill="#0C296E"/><defs><filter id="udx9136axuuc" x="19.485" y="167.676" width="29.058" height="17.281" filterUnits="userSpaceOnUse" color-interpolation-filters="sRGB"><feFlood flood-opacity="0" result="BackgroundImageFix"/><feBlend in="SourceGraphic" in2="BackgroundImageFix" result="shape"/><feGaussianBlur stdDeviation="2" result="effect1_foregroundBlur_15300_3342"/></filter><filter id="udhxdi1rtnnd" x="280.521" y="283.248" width="33.215" height="33.18" filterUnits="userSpaceOnUse" color-interpolation-filters="sRGB"><feFlood flood-opacity="0" result="BackgroundImageFix"/><feBlend in="SourceGraphic" in2="BackgroundImageFix" result="shape"/><feGaussianBlur stdDeviation="2.5" result="effect1_foregroundBlur_15300_3342"/></filter><clipPath id="udzmjdcxv4jb"><path fill="#fff" transform="matrix(-1 0 0 1 285.016 87.906)" d="M0 0h141.875v126.093H0z"/></clipPath></defs></svg>