<svg width="120" height="120" viewBox="0 0 120 120" fill="none" xmlns="http://www.w3.org/2000/svg"><g clip-path="url(#uddq41jg58ka)"><path d="m15.728 89.728 1.964-8.57c-1.939 0-13.41 1.907-13.41 7.266l.09 10.378c0-5.311 7.14-9.074 11.356-9.074Z" fill="#0C296E"/><path d="M85.614 64.85C79.689 61.426 74.2 50.81 72.18 37.678c-2.062-13.416.122-25.392 4.961-30.218a3.964 3.964 0 0 0-2.206.46L10.187 42.45c-3.288 1.753-2.58 6.658 1.073 7.436l71.765 15.28c.927.198 1.825.06 2.589-.314Z" fill="#BBBFC4" fill-opacity=".45"/><path d="M94.225 9.547c3.978 3.524 7.743 9.947 9.222 21.089l.002.012c.847 5.41 1.076 13.646-.518 20.742-1.602 7.133-4.982 12.875-11.17 13.763a.5.5 0 0 0 .141.99c6.855-.983 10.385-7.324 12.005-14.534 1.627-7.244 1.391-15.608.531-21.11-1.503-11.305-5.345-17.975-9.55-21.7-4.2-3.72-8.73-4.473-11.529-3.977a.5.5 0 0 0 .175.985c2.48-.44 6.707.21 10.69 3.74Z" fill="#0C296E"/><path d="M82.93 26.787c1.804 1.072 3.602 3.196 4.405 7.259.594 3.009.434 6.108-.532 8.548-.96 2.426-2.699 4.17-5.281 4.605a.5.5 0 1 0 .166.986c3.007-.506 4.988-2.553 6.045-5.223 1.051-2.656 1.206-5.957.583-9.11-.849-4.295-2.79-6.685-4.876-7.925-2.066-1.228-4.216-1.292-5.449-1.048a.5.5 0 1 0 .196.981c1.026-.204 2.919-.157 4.743.927Zm21.266-12.06a.486.486 0 0 1 .113-.69l8.062-5.932a.515.515 0 0 1 .711.082.486.486 0 0 1-.113.689l-8.062 5.933a.515.515 0 0 1-.711-.082Zm11.188 11.478a.524.524 0 0 1-.526.493h-5.23a.476.476 0 0 1-.487-.493.523.523 0 0 1 .525-.492h5.231c.279 0 .498.22.487.492Zm-7.471-6.327a.474.474 0 0 1 .267-.638l5.464-2.07a.527.527 0 0 1 .664.284.475.475 0 0 1-.268.638l-5.464 2.07a.526.526 0 0 1-.663-.284Z" fill="#0C296E"/><path d="M109.333 88.318v-8.43c-13.283 5.489-17.688 5.95-32.013 4.028v8.213c13.938 1.606 19.479 1.22 32.013-3.811Zm-64.689-3.612-.929 3.323c8.43-.587 16.33 1.165 25.365 3.095v-8.358c-7.826-1.824-15.606-3.591-22.96-3.078l-1.476 5.018Z" fill="#3370FF"/><path d="M4.264 98.575c1.346 5.218 5.291 9.772 26.229 8.688 20.937-1.085 27.18-.632 51.7 3.884v-8.167c-22.17-5.49-31.198-5.873-51.094-4.405-19.896 1.467-26.835-3.582-26.835-10.227v10.227Z" fill="#00D6B9"/><path d="M42.737 25.588a.5.5 0 0 1 .546.448c.15 1.509 1.867 9.518 3.373 17.332 1.624 8.429 7.999 15.4 16.393 17.206l10.661 2.295a.5.5 0 0 1 .089.95L49.183 74.15c-4.285 11.42-5.37 14.364-9.51 26.652a.5.5 0 0 1-.947-.32c4.169-12.372 5.245-15.29 9.597-26.885a.5.5 0 0 1 .274-.286l23.349-9.8-9.108-1.96c-8.783-1.89-15.607-8.824-17.307-17.648-1.498-7.774-3.088-16.2-3.243-17.77a.5.5 0 0 1 .449-.546Zm-37.514.536c.119-.57.333-.844.508-.938.134-.072.389-.11.832.207.448.32 1.002.954 1.616 2.022 1.183 2.211 3.82 7.638 6.245 12.949 1.212 2.654 2.425 5.584 3.26 7.436l.996 2.214.37.825.456-.204c.457-.204.456-.205.456-.205l-.37-.825a1605.383 1605.383 0 0 0-4.183-9.241c-2.422-5.303-5.152-11.186-6.352-13.428l-.007-.013c-.649-1.13-1.29-1.903-1.905-2.343-.62-.444-1.294-.595-1.889-.274-.554.299-.868.923-1.012 1.614-.147.71-.139 1.589.039 2.556.176.958.882 3.383 1.824 6.438a804.978 804.978 0 0 0 3.325 10.449 1873.675 1873.675 0 0 0 4.524 13.756l.1.302c.113.357.237.737.368 1.142 1.958 6.02 5.64 17.338-.356 32.293l-6.389 17.198a.5.5 0 1 0 .938.348l6.381-17.18c6.13-15.293 2.35-26.909.38-32.96-.132-.407-.257-.79-.37-1.146l-.002-.008-.474.159.474-.16-.102-.304a1140.004 1140.004 0 0 1-1.327-4c-.861-2.606-2.017-6.12-3.194-9.749a804.467 804.467 0 0 1-3.32-10.435c-.95-3.081-1.634-5.438-1.796-6.323-.161-.876-.158-1.62-.044-2.172Zm14.488 24.968a.5.5 0 0 1-.661-.253l.456-.204.456-.205a.5.5 0 0 1-.251.662Z" fill="#0C296E"/><path d="M35.28 22.52a.5.5 0 0 1-.162.687l-.009.006-.027.017-.107.067a113.081 113.081 0 0 0-1.895 1.219 116.984 116.984 0 0 0-4.641 3.208c-1.735 1.266-3.523 2.662-5 4.009-1.49 1.358-2.608 2.617-3.072 3.612-.383.904-.61 2.314-.72 3.974-.11 1.65-.102 3.492-.04 5.22a95.917 95.917 0 0 0 .438 6.288l.01.1.003.025.001.007-.497.056c-.496.056-.497.055-.497.055v-.009l-.003-.026-.011-.102-.04-.389a96.86 96.86 0 0 1-.404-5.97c-.062-1.745-.072-3.625.041-5.321.112-1.682.347-3.239.802-4.307l.006-.014c.553-1.194 1.809-2.571 3.308-3.938 1.515-1.381 3.336-2.801 5.085-4.078a118.017 118.017 0 0 1 6.596-4.467l.11-.069.028-.017.009-.006.225.363-.225-.363a.5.5 0 0 1 .689.162ZM19.563 51.014l-.497.055a.5.5 0 1 0 .994-.11l-.497.055Z" fill="#0C296E"/><path d="m36.745 22.38-.078.038c-.475.228-.94.451-1.351.723-.433.286-.767.602-.966.984-.347.67-.409 1.393-.472 2.234-.068 4.37.179 7.19.824 12.823a.5.5 0 1 1-.994.114c-.647-5.653-.9-8.525-.83-12.967l.002-.03.003-.037c.06-.808.128-1.729.58-2.598.307-.59.793-1.02 1.301-1.357.471-.311.995-.563 1.456-.784l.099-.047.014-.006c2.6-1.152 9.552-3.39 14.302-3.918 1.534-.17 2.679-.048 3.464.307.814.368 1.257 1 1.257 1.752a.5.5 0 0 1-.222.416c-2.741 1.827-4.695 2.864-9.605 5.469l-2.416 1.282a.5.5 0 1 1-.47-.883l2.414-1.281c4.76-2.525 6.698-3.554 9.261-5.246-.07-.214-.252-.426-.63-.598-.552-.249-1.49-.386-2.943-.224-4.62.513-11.463 2.713-14 3.835ZM26.63 27.985a.5.5 0 0 1 .45.547c-.466 4.689-.781 9.311-.564 14.082a.5.5 0 1 1-1 .045c-.22-4.841.101-9.52.568-14.226a.5.5 0 0 1 .547-.448Z" fill="#0C296E"/></g><defs><clipPath id="uddq41jg58ka"><path fill="#fff" d="M0 0h120v120H0z"/></clipPath></defs></svg>