<svg width="120" height="120" viewBox="0 0 120 120" fill="none" xmlns="http://www.w3.org/2000/svg"><g clip-path="url(#udfkn5h6rqxa)"><path d="m34.757 61.602-1.5-10C11.613 60.548 4.933 69.418 4.933 73.232a2.94 2.94 0 0 0-.158 1.204l.678 6.412c-.004-.037 1.162 2.603 3.587.73.61-2.01 6.073-12.03 25.717-19.976Zm46.859-25.635 1.214 9.392c10.903-2.551 21.392-8.599 21.011-12.934l-.939-10.666c.637 7.239-13.075 11.464-21.286 14.208Z" fill="#fff" fill-opacity=".4"/><path d="M14.2 34.056a4 4 0 0 1 2.762-4.936l54.856-15.486a4 4 0 0 1 4.937 2.763L92.24 71.253a4 4 0 0 1-2.763 4.937L34.621 91.675a4 4 0 0 1-4.936-2.763L14.199 34.056Z" fill="#FAC823"/><path d="M61.098 38.443a1.4 1.4 0 0 0-1.896.53L46.868 60.698a1.374 1.374 0 0 0 .526 1.881l4.846 2.702a1.4 1.4 0 0 0 1.896-.53L66.47 43.025a1.374 1.374 0 0 0-.526-1.881l-4.846-2.702ZM41.812 49.938a1.4 1.4 0 0 0-1.896.53l-2.74 4.825a1.374 1.374 0 0 0 .527 1.882l4.846 2.702a1.4 1.4 0 0 0 1.896-.531l2.74-4.825a1.374 1.374 0 0 0-.527-1.881l-4.846-2.702Z" fill="#fff"/><path d="M103.867 32.72a4.151 4.151 0 0 0-.024-.224C102.964 25.8 87.94 20.149 82.78 19.632l-.781-8.874c4.432.444 20.44 5.734 21.002 12.112l.866 9.85ZM4.741 74.149c.8 8.387 25.224 14.905 45.075 13.899l.797 9.054c-20.92 1.263-44.193-5.688-44.872-13.4l-1-9.553Z" fill="#41CCB9"/><path d="m62.511 113.322-.464-9.077c-14.55.211-32.68-.723-44.226-4.79l.482 9.441c11.299 3.818 28.94 4.793 44.208 4.426Z" fill="#4C88FF"/><path d="m54.888 16.105-.775-8.815c8.988 0 13.603.846 20.137 2.105l.797 9.057c-5.938-1.055-10.436-2.032-20.159-2.347Z" fill="#41CCB9"/><path d="M114.325 64.973c.427-.052.771-.043 1.028.006.26.05.398.135.465.205.078.082.213.338-.2 1.008-.396.645-1.212 1.495-2.579 2.51-4.393 3.263-9.178 7.664-12.857 11.24a228.013 228.013 0 0 0-5.81 5.86l-.344.363-.09.094-.03.033.368.342.367.342.03-.03.087-.094.34-.36c.3-.313.736-.769 1.287-1.336a226.203 226.203 0 0 1 4.497-4.496c3.67-3.567 8.417-7.932 12.757-11.155 1.409-1.047 2.34-1.986 2.832-2.786.477-.775.642-1.62.068-2.221-.26-.272-.619-.425-1.006-.5-.389-.074-.842-.077-1.338-.017-.992.12-2.223.496-3.603 1.148-2.228 1.042-5.526 3.279-9.229 5.996-3.396 2.491-7.164 5.412-10.814 8.24l-1.023.792c-3.28 2.53-6.355 4.883-8.824 6.631-1.235.875-2.31 1.593-3.18 2.104-.434.256-.81.457-1.124.599-.321.145-.549.216-.693.236h-.002c-1.73.24-3.164-.389-4.951-1.567a62.463 62.463 0 0 1-1.835-1.279c-1.385-.988-3.004-2.145-4.984-3.273h-.001c-2.608-1.478-4.27-2.162-5.455-2.367-.605-.105-1.096-.087-1.53.019-.43.105-.774.29-1.082.474a1.453 1.453 0 0 0-.61.644 1.46 1.46 0 0 0-.11.793c.062.487.322.962.564 1.327.156.243.527.634.967 1.073a89.74 89.74 0 0 0 1.692 1.625l.93.873c1.02.957 2.068 1.94 2.875 2.74 5.88 6.484 7.318 11.277 7.346 14.387.014 1.56-.325 2.717-.66 3.476a5.654 5.654 0 0 1-.456.846 3.508 3.508 0 0 1-.179.244l-.006.008v.001a.501.501 0 0 0 .752.665l-.376-.334c.375.334.376.333.376.333v-.001l.003-.003.006-.006.017-.021.057-.07c.046-.06.11-.147.186-.26.15-.225.345-.557.538-.994.385-.876.759-2.172.743-3.885-.03-3.432-1.62-8.454-7.616-15.063a.664.664 0 0 0-.018-.02c-.82-.812-1.887-1.813-2.914-2.776l-.92-.864a88.879 88.879 0 0 1-1.671-1.605c-.47-.468-.75-.776-.83-.904l-.006-.008c-.222-.334-.375-.65-.406-.9a.457.457 0 0 1 .027-.254.475.475 0 0 1 .21-.205l.008-.004c.279-.168.522-.292.807-.362.281-.069.632-.09 1.122-.005 1.003.173 2.536.78 5.128 2.25 1.94 1.104 3.471 2.199 4.833 3.172.675.482 1.31.935 1.93 1.345 1.843 1.215 3.54 2.016 5.644 1.724.288-.039.618-.156.97-.315.357-.162.767-.381 1.219-.648.904-.532 2.005-1.268 3.249-2.149 2.488-1.762 5.58-4.127 8.858-6.656l1.022-.792c3.651-2.83 7.41-5.742 10.794-8.225 3.713-2.724 6.937-4.903 9.064-5.897l.002-.001c1.315-.622 2.442-.957 3.297-1.06Zm-20.05 21.661-.367-.342a.502.502 0 0 0 .735.684l-.367-.342Z" fill="#E0E0E0"/><path d="M106.283 74.918a.499.499 0 0 0-.673.214c-1.593 3.125-3.403 6.192-4.816 8.48a143.542 143.542 0 0 1-2.377 3.718l-.035.05-.002.004-.099.128-.31.402a491.404 491.404 0 0 0-4.69 6.177c-2.681 3.591-5.666 7.713-6.776 9.71a.501.501 0 0 0-.053.147l-1.106 5.76a.504.504 0 0 0 .398.587.496.496 0 0 0 .586-.392l1.09-5.681c1.101-1.953 4.001-5.962 6.666-9.531a495.425 495.425 0 0 1 4.99-6.565l.108-.14-.397-.308.417.28.012-.018.035-.052.136-.204a149.172 149.172 0 0 0 2.261-3.544c1.42-2.3 3.245-5.392 4.856-8.55a.501.501 0 0 0-.221-.672Zm-7.496 12.76.397.308a.489.489 0 0 0 .02-.028l-.416-.28Zm11.727-26.314c-.13-.063-.232-.064-.298-.04a.7.7 0 0 1-.027.008c-.136.04-.253.172-.448.444-1.326 1.85-2.253 3.13-3.179 4.409-.926 1.279-1.851 2.557-3.176 4.404a.5.5 0 0 1-.698.113.5.5 0 0 1-.118-.698c1.326-1.85 2.253-3.129 3.179-4.408.926-1.279 1.851-2.557 3.176-4.404l.022-.031c.158-.222.452-.635.941-.784.377-.128.756-.057 1.057.088a1.8 1.8 0 0 1 .74.666c.016.028.03.056.041.086.147.392.122.867.046 1.305a8.324 8.324 0 0 1-.401 1.422c-.345.943-.813 1.866-1.106 2.33a.5.5 0 0 1-.69.153.5.5 0 0 1-.158-.69c.251-.398.689-1.256 1.014-2.142.162-.442.29-.875.355-1.25.061-.352.055-.597.017-.74a.798.798 0 0 0-.289-.241Zm-8.234 2.988c.301.071.567.252.744.55l.006.01c.211.371.19.767.105 1.086a3.167 3.167 0 0 1-.392.846.5.5 0 0 1-.69.153.5.5 0 0 1-.159-.69c.125-.197.226-.395.273-.572.045-.171.028-.27-.005-.332a.155.155 0 0 0-.108-.08.677.677 0 0 0-.323.028c-.309.087-.665.308-.917.547-2.008 2.047-4.054 5.254-5.268 7.866a.497.497 0 0 1-.058.095l-.043.055-.123.157-.465.588c-.399.501-.965 1.209-1.636 2.031-1.341 1.644-3.104 3.753-4.785 5.603a.501.501 0 0 1-.707.032.499.499 0 0 1-.037-.706c1.663-1.83 3.414-3.924 4.75-5.563a202.399 202.399 0 0 0 2.09-2.605l.122-.155.007-.01c1.252-2.679 3.346-5.962 5.441-8.095l.011-.01c.342-.328.839-.651 1.34-.792a1.66 1.66 0 0 1 .827-.037Z" fill="#E0E0E0"/><path d="M108.232 60.461c-.641.135-1.238.538-1.605.887l-.011.01c-.372.333-.84.894-1.337 1.563a46.178 46.178 0 0 0-1.44 2.073h-.001c-3.922 5.91-4.325 6.41-8.221 11.243-.278.345-.573.71-.888 1.103a.5.5 0 0 1-.704.073.5.5 0 0 1-.079-.702l.898-1.115c3.872-4.804 4.26-5.286 8.158-11.156.448-.677.963-1.435 1.471-2.118.501-.674 1.016-1.301 1.466-1.705.451-.427 1.204-.948 2.079-1.133.915-.193 1.948-.009 2.826.966a.498.498 0 1 1-.743.664c-.61-.678-1.264-.78-1.869-.653Z" fill="#E0E0E0"/></g><defs><clipPath id="udfkn5h6rqxa"><path fill="#fff" d="M0 0h120v120H0z"/></clipPath></defs></svg>