<svg width="120" height="120" viewBox="0 0 120 120" fill="none" xmlns="http://www.w3.org/2000/svg"><g clip-path="url(#udu2v6vf10oa)"><path d="m15.728 89.73 1.964-8.57c-1.939 0-13.41 1.906-13.41 7.266l.09 10.378c0-5.312 7.14-9.075 11.356-9.075Z" fill="#fff" fill-opacity=".4"/><path d="M85.614 64.851C79.689 61.425 74.2 50.811 72.18 37.678c-2.062-13.417.122-25.393 4.961-30.218a3.964 3.964 0 0 0-2.206.46L10.187 42.448c-3.288 1.754-2.58 6.659 1.073 7.437l71.765 15.28c.927.197 1.825.06 2.589-.315Z" fill="#fff" fill-opacity=".3"/><path d="M94.225 9.548c3.978 3.524 7.743 9.947 9.222 21.089l.002.011c.847 5.411 1.076 13.647-.518 20.743-1.602 7.133-4.982 12.875-11.17 13.763a.5.5 0 1 0 .141.99c6.855-.983 10.385-7.324 12.005-14.534 1.627-7.244 1.391-15.608.531-21.11-1.503-11.305-5.345-17.976-9.55-21.7-4.2-3.72-8.73-4.473-11.529-3.977a.5.5 0 0 0 .175.985c2.48-.44 6.707.21 10.69 3.74Z" fill="#E0E0E0"/><path d="M82.93 26.787c1.804 1.073 3.602 3.197 4.405 7.26.594 3.008.434 6.108-.532 8.547-.96 2.427-2.699 4.17-5.281 4.606a.5.5 0 1 0 .166.986c3.007-.507 4.988-2.554 6.045-5.223 1.051-2.657 1.206-5.958.583-9.11-.849-4.295-2.79-6.685-4.876-7.925-2.066-1.228-4.216-1.293-5.449-1.048a.5.5 0 1 0 .196.98c1.026-.203 2.919-.157 4.743.927Zm21.266-12.059a.486.486 0 0 1 .113-.689l8.062-5.933a.515.515 0 0 1 .711.082.486.486 0 0 1-.113.69l-8.062 5.932a.515.515 0 0 1-.711-.082Zm11.188 11.478a.524.524 0 0 1-.526.493h-5.23a.476.476 0 0 1-.487-.493.523.523 0 0 1 .525-.493h5.231c.279 0 .498.221.487.493Zm-7.471-6.326a.474.474 0 0 1 .267-.638l5.464-2.07a.527.527 0 0 1 .664.284.475.475 0 0 1-.268.638l-5.464 2.07a.526.526 0 0 1-.663-.284Z" fill="#E0E0E0"/><path d="M109.333 88.319v-8.43c-13.283 5.49-17.688 5.951-32.013 4.03v8.212c13.938 1.606 19.479 1.22 32.013-3.811Zm-64.689-3.612-.929 3.324c8.43-.588 16.33 1.164 25.365 3.094v-8.358c-7.826-1.824-15.606-3.591-22.96-3.078l-1.476 5.018Z" fill="#4C88FF"/><path d="M4.264 98.576c1.346 5.217 5.291 9.772 26.229 8.687 20.937-1.084 27.18-.631 51.7 3.885v-8.167c-22.17-5.49-31.198-5.873-51.094-4.405-19.896 1.467-26.835-3.582-26.835-10.228v10.228Z" fill="#41CCB9"/><path d="M42.737 25.588a.5.5 0 0 1 .546.448c.15 1.51 1.867 9.519 3.373 17.332 1.624 8.43 7.999 15.4 16.393 17.206L73.71 62.87a.5.5 0 0 1 .089.95L49.183 74.15c-4.285 11.42-5.37 14.365-9.51 26.652a.5.5 0 0 1-.947-.319c4.169-12.373 5.245-15.291 9.597-26.886a.5.5 0 0 1 .274-.285l23.349-9.8-9.108-1.961c-8.783-1.89-15.607-8.823-17.307-17.648-1.498-7.774-3.088-16.2-3.243-17.77a.5.5 0 0 1 .449-.546Zm-37.514.537c.119-.57.333-.844.508-.938.134-.072.389-.11.832.207.448.32 1.002.954 1.616 2.022 1.183 2.211 3.82 7.638 6.245 12.949 1.212 2.654 2.425 5.584 3.26 7.436l.996 2.214.37.825.456-.204c.457-.204.456-.205.456-.205l-.37-.825a1605.383 1605.383 0 0 0-4.183-9.241c-2.422-5.303-5.152-11.187-6.352-13.428l-.007-.013c-.649-1.13-1.29-1.903-1.905-2.343-.62-.444-1.294-.595-1.889-.274-.554.299-.868.923-1.012 1.615-.147.709-.139 1.588.039 2.555.176.958.882 3.383 1.824 6.437a804.978 804.978 0 0 0 3.325 10.45 1876.814 1876.814 0 0 0 4.524 13.756l.1.302c.113.357.237.737.368 1.142 1.958 6.02 5.64 17.338-.356 32.293l-6.389 17.198a.5.5 0 1 0 .938.348l6.381-17.18c6.13-15.293 2.35-26.909.38-32.96-.132-.407-.257-.79-.37-1.146l-.002-.008-.474.159.474-.16-.102-.304a1140.004 1140.004 0 0 1-1.327-4c-.861-2.607-2.017-6.12-3.194-9.749a804.467 804.467 0 0 1-3.32-10.435c-.95-3.081-1.634-5.438-1.796-6.323-.161-.877-.158-1.62-.044-2.172Zm14.488 24.968a.5.5 0 0 1-.661-.253l.456-.204.456-.205a.5.5 0 0 1-.251.662Z" fill="#E0E0E0"/><path d="M35.28 22.52a.5.5 0 0 1-.162.688l-.009.006-.027.016-.107.067a113.081 113.081 0 0 0-1.895 1.219 116.984 116.984 0 0 0-4.641 3.209c-1.735 1.266-3.523 2.662-5 4.009-1.49 1.358-2.608 2.617-3.072 3.612-.383.904-.61 2.314-.72 3.974-.11 1.649-.102 3.491-.04 5.22a95.909 95.909 0 0 0 .438 6.288l.01.1.003.024.001.008-.497.056-.497.055v-.01l-.003-.026-.011-.102-.04-.388a96.852 96.852 0 0 1-.404-5.97c-.062-1.746-.072-3.625.041-5.322.112-1.681.347-3.238.802-4.306l.006-.015c.553-1.193 1.809-2.57 3.308-3.937 1.515-1.382 3.336-2.802 5.085-4.078a118.017 118.017 0 0 1 6.596-4.467l.11-.069.028-.018.009-.005.225.362-.225-.362a.5.5 0 0 1 .689.162ZM19.563 51.016l-.497.055a.5.5 0 1 0 .994-.111l-.497.056Z" fill="#E0E0E0"/><path d="m36.745 22.381-.078.037c-.475.228-.94.451-1.351.723-.433.287-.767.603-.966.985-.347.668-.409 1.392-.472 2.234-.068 4.368.179 7.19.824 12.822a.5.5 0 1 1-.994.114c-.647-5.653-.9-8.525-.83-12.967l.002-.03.003-.037c.06-.808.128-1.728.58-2.598.307-.59.793-1.02 1.301-1.357.471-.311.995-.562 1.456-.783l.099-.048.014-.006c2.6-1.151 9.552-3.39 14.302-3.918 1.534-.17 2.679-.047 3.464.307.814.368 1.257 1 1.257 1.752a.5.5 0 0 1-.222.416c-2.741 1.827-4.695 2.864-9.605 5.469l-2.416 1.283a.5.5 0 1 1-.47-.883l2.414-1.282c4.76-2.525 6.698-3.554 9.261-5.246-.07-.214-.252-.426-.63-.597-.552-.25-1.49-.387-2.943-.225-4.62.513-11.463 2.714-14 3.835ZM26.63 27.987a.5.5 0 0 1 .45.547c-.466 4.689-.781 9.312-.564 14.082a.5.5 0 0 1-1 .045c-.22-4.841.101-9.52.568-14.226a.5.5 0 0 1 .547-.448Z" fill="#E0E0E0"/></g><defs><clipPath id="udu2v6vf10oa"><path fill="#fff" d="M0 0h120v120H0z"/></clipPath></defs></svg>