<svg width="120" height="120" viewBox="0 0 120 120" fill="none" xmlns="http://www.w3.org/2000/svg"><mask id="udmszgm98aha" style="mask-type:alpha" maskUnits="userSpaceOnUse" x="17" y="98" width="49" height="14"><path fill="#C4C4C4" d="M17 98h49v14H17z"/></mask><g mask="url(#udmszgm98aha)"><path d="M65.528 104.17c-11.43 0-41.774-3.023-48.032-5.836.184 1.945-.238 4.699 0 7.222 11.252 4.81 48.032 5.83 48.032 5.83v-7.216Z" fill="#4C88FF"/></g><path d="M98.077 22.052c.642-.186 1.055-.306 1.055-1.575v8.666c0 1.915-1.27 3.208-3.545 4.89-4.946 3.375-10.539 5.943-15.85 8.382-1.867.857-2.817 1.285-4.574 2.14-.494.25-1.884.915-2.406 1.167-.135.069.135-.069 0 0-4.817 2.302-11.16 4.858-17.56 7.404-13.638 5.423-29.372 11.68-40.833 19.97-1.771 1.538-5.157 4.514-6.203 5.994-.528.748-1.3 2.216-1.3 2.216s-.58-.545-.72.155A7.346 7.346 0 0 0 6 82.875v-6.988h.001c0-.464.047-.937.142-1.414.137-.7.38-1.424.719-2.155.335-.722.772-1.468 1.3-2.216 1.046-1.48 2.473-3.011 4.245-4.55 13.72-9.748 42.602-21.632 56.48-27.342a680.5 680.5 0 0 0 5.16-2.137c1.204-.59 2.501-1.205 3.849-1.845 6.755-3.205 14.762-7.004 18.384-11.084.678-.768 1.305-.95 1.797-1.092Z" fill="#fff" fill-opacity=".4"/><path d="M99.128 29.833a11.696 11.696 0 0 0-.451-2.932c-1.73-6-7.899-9.236-13.466-10.947V7c4.804 1.476 9.915 3.536 12.458 8.1.427.77.766 1.584 1.008 2.416.302 1.043.455 2.142.455 3.252v9.385c0-.107-.001-.214-.004-.32ZM6 75.518a9.112 9.112 0 0 0 .603 3.292 9.98 9.98 0 0 0 .983 1.917c2.363 3.595 6.675 5.384 10.687 6.407 4.877 1.245 19.89 3.177 24.906 3.177v8.187c-5.017 0-20.028-1.934-24.906-3.177-4.012-1.023-8.324-2.812-10.687-6.406a9.944 9.944 0 0 1-.983-1.918A9.213 9.213 0 0 1 6 83.705v-8.187Z" fill="#41CCB9"/><path d="M108.26 68.124c-.859.053-2.004.323-3.357.869h-.001c-2.187.871-5.544 2.862-9.424 5.369-3.537 2.286-7.475 4.979-11.302 7.595l-1.07.732c-3.435 2.338-6.672 4.522-9.269 6.14-1.298.807-2.444 1.48-3.38 1.959-.468.24-.891.436-1.258.577-.36.138-.698.236-.987.259-2.117.17-3.757-.729-5.515-2.05a60.78 60.78 0 0 1-1.836-1.455c-1.294-1.05-2.75-2.233-4.61-3.449-2.49-1.617-3.978-2.313-4.967-2.544-.483-.113-.834-.112-1.119-.06-.288.054-.54.164-.828.316l-.008.004a.48.48 0 0 0-.224.192.46.46 0 0 0-.043.251c.015.252.147.577.346.924l.005.008c.073.133.331.457.769.951.42.475.965 1.063 1.561 1.7.278.298.568.605.86.917a154.413 154.413 0 0 1 2.74 2.963c5.546 6.95 6.802 12.06 6.608 15.491-.097 1.712-.554 2.986-.996 3.838a6.59 6.59 0 0 1-.602.963 4.862 4.862 0 0 1-.202.249l-.061.067-.019.019-.006.007-.002.002-.001.001-.353-.354.352.354a.5.5 0 0 1-.706-.707v-.001l.007-.007.039-.043c.035-.04.089-.104.156-.192a5.65 5.65 0 0 0 .51-.818c.383-.739.798-1.876.886-3.435.175-3.109-.945-7.98-6.383-14.8a149.263 149.263 0 0 0-2.687-2.903l-.87-.927a88.42 88.42 0 0 1-1.58-1.72c-.41-.465-.755-.877-.894-1.13-.217-.377-.446-.868-.475-1.357-.015-.255.023-.53.162-.786a1.47 1.47 0 0 1 .65-.609c.319-.166.674-.33 1.109-.41.44-.082.931-.07 1.527.068 1.169.274 2.78 1.053 5.284 2.68h.001c1.9 1.243 3.44 2.492 4.756 3.56a60.41 60.41 0 0 0 1.745 1.383c1.704 1.28 3.093 1.992 4.834 1.852h.001c.146-.011.377-.07.707-.196.322-.124.71-.302 1.16-.533.9-.461 2.02-1.116 3.308-1.919 2.577-1.604 5.796-3.776 9.233-6.116l1.073-.733c3.823-2.614 7.772-5.314 11.321-7.608 3.87-2.5 7.305-4.544 9.595-5.457 1.418-.572 2.671-.877 3.668-.94.498-.03.95-.002 1.333.096.38.096.729.27.97.556.533.635.313 1.469-.213 2.216-.544.771-1.533 1.656-3.007 2.62-4.538 2.97-9.558 7.056-13.45 10.409a229.903 229.903 0 0 0-6.148 5.493c-.16.148-.282.263-.364.34l-.094.088-.03.03-.344-.364-.344-.363.032-.03.095-.09.367-.343a230.906 230.906 0 0 1 6.177-5.519c3.903-3.36 8.961-7.481 13.556-10.488 1.43-.935 2.299-1.738 2.736-2.36.455-.645.338-.909.265-.995-.062-.074-.194-.166-.45-.231-.254-.064-.595-.093-1.025-.066ZM86.85 88.609l-.343-.363a.5.5 0 1 0 .688.726l-.344-.363Z" fill="#E0E0E0"/><path d="M99.61 77.586a.5.5 0 0 1 .177.685c-1.813 3.062-3.835 6.046-5.403 8.262a147.32 147.32 0 0 1-2.486 3.41l-.148.197-.039.05-.013.017-.397-.304.375.33-.117.134-.335.383a490.408 490.408 0 0 0-5.07 5.889c-2.89 3.412-6.045 7.25-7.271 9.138l-1.46 5.613a.5.5 0 1 1-.967-.252l1.48-5.691a.51.51 0 0 1 .062-.144c1.238-1.931 4.484-5.877 7.392-9.31a505.462 505.462 0 0 1 5.417-6.285l.107-.122.003-.004.037-.048a66.615 66.615 0 0 0 .697-.93 147.35 147.35 0 0 0 1.917-2.648c1.559-2.205 3.564-5.164 5.358-8.194a.5.5 0 0 1 .685-.176Zm-8.309 12.317.375.33a.49.49 0 0 0 .022-.026l-.397-.304Zm13.437-25.606c-.126-.07-.227-.077-.295-.057a.536.536 0 0 1-.027.007c-.139.032-.263.156-.476.418-1.443 1.771-2.451 2.996-3.458 4.22v.001a1024.774 1024.774 0 0 0-3.455 4.218.5.5 0 1 1-.776-.632 972.768 972.768 0 0 1 3.459-4.221 1029.508 1029.508 0 0 0 3.479-4.247c.172-.213.492-.608.989-.729a1.387 1.387 0 0 1 1.048.15c.293.163.542.417.694.707a.472.472 0 0 1 .036.089c.121.4.065.873-.039 1.306a8.58 8.58 0 0 1-.493 1.398c-.407.922-.933 1.817-1.256 2.264a.5.5 0 1 1-.811-.585c.277-.383.77-1.216 1.152-2.083a7.66 7.66 0 0 0 .436-1.228c.083-.348.094-.593.065-.739a.783.783 0 0 0-.272-.257Zm-8.42 2.509a1.653 1.653 0 0 0-.826-.01c-.51.111-1.027.406-1.39.713l-.01.01c-2.23 2.01-4.531 5.17-5.956 7.774l-.007.009-.132.148-.499.557c-.428.475-1.036 1.146-1.755 1.926-1.44 1.56-3.323 3.55-5.101 5.284a.5.5 0 1 0 .698.716c1.796-1.751 3.692-3.757 5.137-5.322a208.048 208.048 0 0 0 2.266-2.496l.134-.15.046-.052a.492.492 0 0 0 .064-.092c1.382-2.54 3.632-5.625 5.769-7.554.266-.225.636-.425.95-.494a.675.675 0 0 1 .324-.01.154.154 0 0 1 .102.087c.029.063.04.163-.017.331a2.226 2.226 0 0 1-.31.557.5.5 0 1 0 .811.585 3.2 3.2 0 0 0 .447-.823c.105-.314.153-.708-.033-1.092l-.005-.01a1.153 1.153 0 0 0-.707-.592Z" fill="#E0E0E0"/><path d="M102.514 63.265c-.648.098-1.269.466-1.658.794l-.012.01c-.393.31-.896.844-1.436 1.483a47.65 47.65 0 0 0-1.572 1.989c-4.298 5.677-4.733 6.154-8.934 10.759l-.957 1.05a.5.5 0 1 1-.74-.674l.969-1.062c4.175-4.576 4.593-5.035 8.864-10.676a48.656 48.656 0 0 1 1.606-2.031c.544-.644 1.098-1.241 1.574-1.618.477-.4 1.262-.879 2.146-1.013.926-.14 1.944.104 2.755 1.13a.5.5 0 0 1-.784.62c-.564-.713-1.21-.853-1.821-.76Z" fill="#E0E0E0"/><path d="M10.567 37.155a4 4 0 0 0-2.829 4.9l10.578 39.474a4 4 0 0 0 4.899 2.828L79.55 69.262a4 4 0 0 0 2.828-4.899l-2.635-9.833 13.188 3.534c2.974.796 5.695-1.924 4.9-4.898l-7.194-26.878c-.796-2.976-4.515-3.972-6.693-1.794l-9.659 9.666-2.484-9.272a4 4 0 0 0-4.9-2.828L10.568 37.155Z" fill="#FAC823"/><path d="M60.471 46.57c1.487.399 1.985 2.257.896 3.346L45.078 66.205c-1.088 1.088-2.947.59-3.346-.896L35.76 43.047c-.4-1.488.962-2.85 2.45-2.45l22.26 5.973Z" fill="#fff"/><path d="M19.416 28.029c-2.222-.88-3.182-1.255-4.903-2.64a17.416 17.416 0 0 1-4.43-5.438l5.335-3.922a15.761 15.761 0 0 0 2.97 5.187c1.626 1.891 3.694 2.852 3.694 2.852l-2.666 3.96Z" fill="#4C88FF"/><path d="m35.426 19.405 1.706 5.964-3.401 2.548-2.983-5.447 4.678-3.065Z" fill="#FAC823"/><path d="m21.332 40.029-8.25-4.8 3.559-4.2 7.442 4.2-2.75 4.8Z" fill="#41CCB9"/><path d="m54.998 17.624.005-.007a10.628 10.628 0 0 0 1.783-4.372l3.23.71a8.344 8.344 0 0 1-.827 2.666 8.995 8.995 0 0 1-3.066 3.343l-2.674-.6a10.72 10.72 0 0 0 1.549-1.74Zm.81-4.594a9.627 9.627 0 0 1-1.625 4.014 9.776 9.776 0 0 1-1.96 2.044c-.36.28-.741.538-1.14.769l5.22 1.172a10.022 10.022 0 0 0 3.775-3.95 9.318 9.318 0 0 0 1.005-3.914L55.91 12.03c-.017.336-.052.67-.104 1Z" fill="#E0E0E0"/><path d="M61.395 25.418a9.823 9.823 0 0 1-2.675 8.83l5.188-.074a9.882 9.882 0 0 0 2.616-4.803 9.727 9.727 0 0 0 .057-4.064l-5.186.11Z" fill="#4C88FF"/></svg>