<svg width="120" height="120" viewBox="0 0 120 120" fill="none" xmlns="http://www.w3.org/2000/svg"><path d="M2.692 97.9c-2.5-4.7 2-11.5 9.8-18.9L13 89.194c-5.482 6.013-8.31 11.46-6.508 15.606-.8-.9-1.4-1.9-1.7-3-.4-1.4-1.2-2.7-2.1-3.9Z" fill="#0C296E"/><path d="M17 47.5a3.5 3.5 0 0 0-3.5 3.5v44.253a3.5 3.5 0 0 0 3.5 3.5h65a3.5 3.5 0 0 0 3.5-3.5V94.5a.5.5 0 0 1 1 0v.753a4.5 4.5 0 0 1-4.5 4.5H17a4.5 4.5 0 0 1-4.5-4.5V51a4.5 4.5 0 0 1 4.5-4.5h64.5a.5.5 0 0 1 0 1H17Z" fill="#0C296E"/><path d="M20.3 52.324c-1.072 0-1.933.86-1.933 1.912s.861 1.912 1.933 1.912 1.933-.86 1.933-1.912a1.923 1.923 0 0 0-1.933-1.912Zm-2.933 1.912c0-1.612 1.317-2.912 2.933-2.912 1.616 0 2.933 1.3 2.933 2.912 0 1.612-1.317 2.912-2.933 2.912-1.616 0-2.933-1.3-2.933-2.912Zm11.044-1.912c-1.072 0-1.933.86-1.933 1.912s.861 1.912 1.933 1.912 1.934-.86 1.934-1.912a1.923 1.923 0 0 0-1.934-1.912Zm-2.933 1.912c0-1.612 1.318-2.912 2.933-2.912 1.616 0 2.934 1.3 2.934 2.912 0 1.612-1.318 2.912-2.934 2.912-1.615 0-2.933-1.3-2.933-2.912ZM12.5 90.008a.5.5 0 0 0 .5.5h69a.5.5 0 1 0 0-1H13a.5.5 0 0 0-.5.5Zm12.295 16.651a2.528 2.528 0 0 1 2.528-2.528h44.61a2.528 2.528 0 0 1 0 5.055h-44.61a2.527 2.527 0 0 1-2.528-2.527Zm2.528-1.528a1.528 1.528 0 0 0 0 3.055h44.61a1.528 1.528 0 1 0 0-3.055h-44.61Z" fill="#0C296E"/><path d="M41.06 99.252a.5.5 0 0 1 .5-.5h16.136a.5.5 0 0 1 .5.5v5.379a.5.5 0 0 1-.5.5H41.56a.5.5 0 0 1-.5-.5v-5.379Zm1 .5v4.379h15.136v-4.379H42.06Zm65.574-71.553v-9.014c3.296 0 8.493 2.705 9.174 5.96 0 6.13.134 8.793-.001 10.975-1.012-3.654-5.049-8.282-9.173-7.921Z" fill="#0C296E"/><path d="M33.592 94.3c-18 6.001-28.9 6.501-31.4 2.6l3.1 6.801c2.4 3.7 10 4.4 28.2-1.8v-7.6h.1Z" fill="#00D6B9"/><path d="M34.5 14A4.5 4.5 0 0 1 39 9.5h65a4.5 4.5 0 0 1 4.5 4.5v41.5a.5.5 0 0 1-1 0V14a3.5 3.5 0 0 0-3.5-3.5H39a3.5 3.5 0 0 0-3.5 3.5v30.5a.5.5 0 0 1-1 0V14Z" fill="#0C296E"/><path d="M42.3 15.324c-1.072 0-1.933.86-1.933 1.912s.861 1.912 1.933 1.912 1.933-.86 1.933-1.912a1.923 1.923 0 0 0-1.933-1.912Zm-2.933 1.912c0-1.612 1.317-2.912 2.933-2.912 1.616 0 2.933 1.3 2.933 2.912 0 1.612-1.317 2.912-2.933 2.912-1.616 0-2.933-1.3-2.933-2.912Z" fill="#0C296E"/><path d="M101.235 43.751c15.611-8.138 15.649-14.29 15.649-19.589v10.673c0 3.936-1.06 10.218-15.649 18.433V43.75Z" fill="#FFC60A"/><path d="M50.411 15.324c-1.072 0-1.933.86-1.933 1.912s.861 1.912 1.933 1.912 1.934-.86 1.934-1.912a1.923 1.923 0 0 0-1.934-1.912Zm-2.933 1.912c0-1.612 1.318-2.912 2.933-2.912 1.616 0 2.934 1.3 2.934 2.912 0 1.612-1.318 2.912-2.934 2.912-1.615 0-2.933-1.3-2.933-2.912Z" fill="#0C296E"/><path d="m57.965 62.292-11.85 7.241 10.533 6.584 1.317-13.825Zm-5.267 11.356-2.633-1.646-4.115 6.584 2.633 1.646 4.115-6.584Zm24.267-49.356-11.85 7.241 10.533 6.584 1.317-13.825Zm-5.267 11.356-2.633-1.646-4.115 6.584 2.633 1.646 4.115-6.584Z" fill="#3370FF"/><path d="M73.06 67.969c-.49.332-.885.855-.944 1.518a.5.5 0 0 0 .09.333l20.02 28.298v15.788a.5.5 0 0 0 1 0V97.959a.5.5 0 0 0-.091-.288L73.143 69.412c.067-.234.231-.449.478-.616a1.675 1.675 0 0 1 1.056-.28c.849.081 1.928.418 2.64.928a727.84 727.84 0 0 0 2.539 1.799c2.884 2.037 4.522 3.194 8.107 6.044a.5.5 0 0 0 .622-.783c-3.608-2.868-5.268-4.04-8.158-6.082a791.867 791.867 0 0 1-2.529-1.792c-.888-.635-2.147-1.016-3.127-1.11h-.004c-.6-.053-1.22.117-1.708.449Z" fill="#0C296E"/><path d="M88.069 32.06c-.201-.068-.468-.088-.838-.008-.187.04-.405.188-.636.49-.227.295-.429.692-.594 1.13a7.69 7.69 0 0 0-.36 1.288c-.076.41-.094.72-.077.88l.001.013 3.416 43.538a.5.5 0 0 1-.997.078l-3.415-43.531c-.031-.302.008-.722.09-1.16.083-.453.22-.966.406-1.46.186-.492.43-.985.736-1.385.302-.394.705-.748 1.22-.859.5-.107.956-.101 1.37.039.415.14.743.403 1.006.735.504.636.811 1.587 1.096 2.614.122.44.4 1.954.768 4.07.371 2.134.84 4.92 1.349 7.939l.135.8c.983 5.846 2.087 12.406 2.89 16.758a.5.5 0 0 1-.983.182c-.805-4.361-1.91-10.928-2.893-16.77l-.135-.804c-.508-3.02-.978-5.803-1.348-7.934-.374-2.149-.641-3.595-.746-3.974-.292-1.053-.558-1.806-.917-2.26-.169-.213-.346-.342-.544-.41Z" fill="#0C296E"/><path d="M104.738 58.622c-3.663-.302-7.464.339-10.287.913a.5.5 0 0 1-.2-.98c2.837-.577 6.757-1.244 10.569-.93 3.812.315 7.591 1.618 10.048 5.047 1.852 2.28 2.428 6.016 2.354 10.657-.074 4.678-.816 10.417-1.733 16.805l-.003.023-.002.006-1.401 6.904.939 16.544a.5.5 0 1 1-.998.057l-.943-16.608a.457.457 0 0 1 .009-.128l1.412-6.954c.916-6.39 1.647-12.063 1.721-16.665.073-4.636-.527-8.045-2.14-10.022a.305.305 0 0 1-.019-.025c-2.22-3.107-5.667-4.342-9.326-4.644Z" fill="#0C296E"/><path d="M101.601 57.977a.5.5 0 0 1 .565.425l.674 4.75a.501.501 0 0 1-.99.14l-.674-4.75a.5.5 0 0 1 .425-.565Zm6.859.435a.5.5 0 0 1 .517.482c.033.95.009 1.677-.021 2.394l-.009.215c-.027.644-.055 1.293-.047 2.118a.5.5 0 1 1-1 .01c-.008-.852.021-1.526.048-2.17l.009-.214c.03-.71.053-1.407.021-2.318a.5.5 0 0 1 .482-.517Z" fill="#0C296E"/></svg>