<svg width="120" height="120" viewBox="0 0 120 120" fill="none" xmlns="http://www.w3.org/2000/svg"><path d="M84.84 104.884h8.8c-3.866-.005-7.355-5.674-9.87-14.826h-8.8c2.515 9.151 6.004 14.821 9.87 14.826ZM74.86 20.12c2.522-9.4 6.06-15.246 9.98-15.246h8.8c-3.925 0-7.463 5.845-9.984 15.245h-8.797Z" fill="#fff" fill-opacity=".4"/><path d="M9.357 24.12a4 4 0 0 1 4-4h82.836l2.394 10.485a110 110 0 0 1 0 48.968l-1.684 7.376a4 4 0 0 1-3.9 3.11H13.357a4 4 0 0 1-4-4v-61.94Z" fill="#fff" fill-opacity=".3"/><path d="m62.764 62.064 30.648-26.337a.5.5 0 0 0-.652-.758L62.112 61.306a3.5 3.5 0 0 1-4.562 0L12.438 22.54a.5.5 0 1 0-.652.759l45.112 38.765a4.5 4.5 0 0 0 5.865 0Z" fill="#fff" fill-opacity=".4"/><path d="M49.704 54.826a.5.5 0 0 1-.053.706l-28.977 24.9a.5.5 0 0 1-.652-.759L49 54.773a.5.5 0 0 1 .705.053Zm20.252 0a.5.5 0 0 1 .705-.053l22.714 19.519a.5.5 0 1 1-.652.758L70.01 55.532a.5.5 0 0 1-.053-.706Z" fill="#fff" fill-opacity=".4"/><path d="M71.935 92.13c-1.191 1.82-3.184 4.064-5.19 6.223a.5.5 0 1 0 .732.68c2-2.152 4.05-4.454 5.295-6.356.616-.942 1.075-1.844 1.197-2.612.063-.393.044-.79-.125-1.146-.173-.366-.477-.63-.872-.797-4.193-1.767-7.726-1.891-11.089-.869-3.336 1.014-6.467 3.145-9.88 5.803-4.853 3.778-9.725 7.441-16.571 7.352a.5.5 0 1 0-.014 1c7.24.094 12.37-3.803 17.199-7.563 3.404-2.65 6.411-4.68 9.557-5.635 3.119-.948 6.411-.852 10.41.834.208.088.306.196.356.303.056.117.084.294.042.56-.088.55-.445 1.303-1.047 2.222Z" fill="#E0E0E0"/><path d="M71.67 87.608a.5.5 0 0 0-.707.02l-9.932 10.537a.5.5 0 1 0 .728.686l9.932-10.537a.5.5 0 0 0-.02-.706Zm-4.71-.557a.5.5 0 0 0-.702-.076c-.717.576-1.563 1.531-2.527 2.618l-.031.035c-.975 1.1-2.097 2.365-3.399 3.626-2.625 2.544-5.948 5.038-10.157 6.053a.5.5 0 1 0 .235.972c4.456-1.074 7.933-3.704 10.619-6.307 1.328-1.288 2.471-2.577 3.443-3.672l.031-.036c.992-1.118 1.776-1.998 2.412-2.51a.5.5 0 0 0 .077-.703Z" fill="#E0E0E0"/><path d="M36.946 100.474a.231.231 0 0 1 .026-.002l.035.499-.035-.499 1.441-.103a4726.49 4726.49 0 0 0 15.964-1.166c9.095-.681 18.934-1.454 21.987-1.823a.5.5 0 0 1 .454.19c.506.648.816 1.43.524 2.24-.28.778-1.061 1.408-2.279 1.921-5.723 2.411-16.464 4.753-25.725 6.488a487.147 487.147 0 0 1-15.77 2.674c-.442.068-.785.119-1.019.154l-.266.039-.091.013-.072-.495.072.495a.488.488 0 0 1-.12.003L5.02 108.446a.5.5 0 1 1 .098-.995l26.99 2.65.03-.004.264-.04a488.551 488.551 0 0 0 4.725-.733 481.85 481.85 0 0 0 12.027-2.088c9.28-1.739 19.914-4.064 25.52-6.426 1.138-.48 2.144-1.376 1.69-2.294m-39.418 1.958-.01.001a.73.73 0 0 1-.045.005c-.04.003-.105.008-.189.012a7.664 7.664 0 0 1-.732-.006 10.155 10.155 0 0 1-2.526-.465c-2.014-.639-4.55-2.108-6.574-5.47-.454-.754-.329-1.63.36-2.722.692-1.095 1.877-2.28 3.282-3.531.697-.62 1.437-1.248 2.185-1.883l.007-.005c.748-.635 1.505-1.278 2.224-1.918 1.432-1.275 2.75-2.574 3.584-3.85.47-.72.827-1.343 1.072-1.875.242-.525.391-.995.413-1.4.022-.422-.094-.825-.434-1.1-.312-.252-.726-.322-1.13-.317-.81.009-1.938.325-3.258.812-1.34.494-2.94 1.189-4.724 2a443.99 443.99 0 0 0-4.154 1.928c-6.64 3.106-14.753 6.903-21.864 8.685a.5.5 0 0 0 .244.97c7.215-1.808 15.444-5.66 22.082-8.767 1.454-.68 2.832-1.326 4.106-1.905 1.78-.81 3.353-1.492 4.656-1.973 1.32-.487 2.302-.744 2.923-.75.311-.004.444.058.49.095.02.016.075.062.064.268-.012.221-.102.557-.322 1.035-.217.472-.546 1.05-1.002 1.747-.755 1.156-1.986 2.382-3.41 3.65-.71.631-1.457 1.266-2.207 1.902l-.012.01c-.745.632-1.492 1.266-2.198 1.894-1.409 1.255-2.69 2.52-3.462 3.745-.775 1.227-1.112 2.541-.372 3.77 2.161 3.592 4.907 5.204 7.13 5.908 1.106.351 2.077.475 2.776.511.349.018.63.014.828.006a6.076 6.076 0 0 0 .294-.021l.012-.001 1.431-.102 3.855-.277c3.216-.232 7.569-.549 12.113-.89 8.809-.66 18.534-1.3 21.912-1.684m28.489-82.09c-1.021-3.678-2.197-6.867-3.504-9.43h6.531c1.408 2.52 2.709 5.89 3.846 9.965 1.285 4.64 2.338 10.157 3.087 16.282h-6.785c-.76-6.298-1.841-12-3.175-16.817Zm-4.631-9.43c1.358 2.551 2.594 5.83 3.667 9.697 1.38 4.98 2.49 10.94 3.25 17.55h8.8l-.118-1c-.755-6.212-1.822-11.822-3.132-16.55-1.225-4.392-2.653-8.026-4.231-10.698h-8.797c.19.32.376.653.561 1Z" fill="#E0E0E0"/><path d="M107.229 44.824c-.55-9.78-1.89-18.51-3.78-25.3-2.52-9.05-5.98-14.65-9.81-14.65h-8.8c3.82 0 7.29 5.6 9.81 14.64 1.89 6.79 3.23 15.53 3.78 25.3h8.8v.01Z" fill="#4C88FF"/><path d="M103.449 90.234c1.72-6.21 2.99-14.04 3.62-22.81h-8.8c-.63 8.77-1.9 16.6-3.62 22.81-2.51 9.04-5.98 14.64-9.81 14.64h8.8c3.83 0 7.29-5.6 9.81-14.64Z" fill="#41CCB9"/><path d="M112.089 59.514h-8.8c-.229 8.839-1.085 17.005-2.421 23.9-.065.336-.132.67-.199 1h8.8c1.398-6.854 2.312-15.017 2.591-23.9.011-.333.02-.666.029-1Zm-1.029 1c-.268 8.48-1.118 16.286-2.411 22.9h-6.763c1.278-6.662 2.111-14.47 2.375-22.9h6.799Z" fill="#E0E0E0"/></svg>