<svg width="120" height="120" viewBox="0 0 120 120" fill="none" xmlns="http://www.w3.org/2000/svg">
  <path d="M24.889 12.664a6.887 6.887 0 1 0 0 13.774.5.5 0 0 1 0 1 7.887 7.887 0 1 1 7.887-7.887.5.5 0 1 1-1 0 6.887 6.887 0 0 0-6.887-6.887Zm37.998 0a6.887 6.887 0 1 0 0 13.774.5.5 0 0 1 0 1 7.887 7.887 0 1 1 7.887-7.887.5.5 0 0 1-1 0 6.887 6.887 0 0 0-6.887-6.887Zm-19 0a6.887 6.887 0 1 0 0 13.774.5.5 0 0 1 0 1 7.887 7.887 0 1 1 7.887-7.887.5.5 0 0 1-1 0 6.887 6.887 0 0 0-6.887-6.887Zm70.255 76.106-.021 7.108c.007-2.427-5.594-5.24-7.798-5.235l-2.264-7.883c1.797.238 10.083 2.447 10.083 6.01Z" fill="#0C296E"/>
  <path d="M65.654 107.151v-7.797c14.233-4.51 30.99.027 39.197-1.253 7.247-1.13 9.328-4.512 9.328-9.501v9.647c0 2.997-.994 6.153-8.56 7.623-7.565 1.469-25.99-3.541-39.965 1.281Z" fill="#3370FF"/>
  <path d="M33.554 92.079v-8.472C20.807 83.2 9.416 76.215 2.104 68.902v9.866c3.803 3.857 17.104 12.713 31.45 13.31Z" fill="#FFC60A"/>
  <path d="M8.56 24.26a4.5 4.5 0 0 1 4.5-4.5h72.547a4.5 4.5 0 0 1 4.5 4.5v22.402a.5.5 0 1 1-1 0V24.261a3.5 3.5 0 0 0-3.5-3.5L13.06 20.76a3.5 3.5 0 0 0-3.5 3.5v54a3.5 3.5 0 0 0 3.5 3.5h57.4a.5.5 0 1 1 0 1h-57.4a4.5 4.5 0 0 1-4.5-4.5v-54Z" fill="#0C296E"/>
  <path d="M16 33.5a.5.5 0 0 1 .5-.5h53.996a.5.5 0 0 1 0 1H16.5a.5.5 0 0 1-.5-.5Z" fill="#8F959E"/>
  <path d="M87.478 37.76c9.94 0 18-8.06 18-18 0-9.941-8.06-18-18-18-9.942 0-18 8.059-18 18 0 9.94 8.058 18 18 18ZM85.84 12.396c0-.452.367-.818.818-.818h1.637c.452 0 .818.366.818.818v5.727h5.727c.452 0 .818.367.818.819v1.636a.818.818 0 0 1-.818.818h-5.727v5.727a.818.818 0 0 1-.818.819h-1.637a.818.818 0 0 1-.818-.819v-5.727h-5.727a.818.818 0 0 1-.818-.818v-1.636c0-.452.366-.819.818-.819h5.727v-5.727Z" fill="#FFC60A"/>
  <path d="M85.84 12.396c0-.452.367-.818.819-.818h1.636c.452 0 .819.366.819.818v5.728h5.727c.452 0 .818.366.818.818v1.636a.818.818 0 0 1-.818.818h-5.727v5.728a.818.818 0 0 1-.819.818H86.66a.818.818 0 0 1-.818-.818v-5.728h-5.727a.818.818 0 0 1-.819-.818v-1.636c0-.452.367-.818.819-.818h5.727v-5.728Z" fill="#fff"/>
  <path d="M10.462 98.013V89.76c8.764 8.253 30.515 12.847 46.462 10.709v7.586c-17.745 2.118-38.441-2.17-46.462-10.042Z" fill="#00D6B9"/>
  <path d="M111.678 30.131c0 .053-.002.074-.002.074-.071.506-.43 1.608-.989 3.105-.55 1.473-1.272 3.27-2.036 5.129a803.166 803.166 0 0 1-1.825 4.39c-.904 2.163-1.718 4.11-2.207 5.368a.518.518 0 0 0 .27.665.481.481 0 0 0 .637-.28c.486-1.247 1.29-3.172 2.189-5.321.592-1.418 1.226-2.934 1.836-4.419.765-1.861 1.492-3.67 2.049-5.16.547-1.465.954-2.683 1.045-3.326.019-.133.013-.31.003-.484a15.015 15.015 0 0 0-.064-.69 55.342 55.342 0 0 0-.279-2.028c-.243-1.594-.59-3.606-.967-5.582-.376-1.975-.782-3.923-1.143-5.386a22.31 22.31 0 0 0-.506-1.797 4.329 4.329 0 0 0-.235-.57 1.225 1.225 0 0 0-.156-.232.609.609 0 0 0-.387-.214c-.686-.075-1.249.22-1.675.721-.411.482-.707 1.162-.927 1.923-.442 1.528-.632 3.573-.695 5.588a69.032 69.032 0 0 0 .078 5.583 75.788 75.788 0 0 0 .157 2.368l.004.05c-2.968 6.77-6.83 13.126-10.692 19.481l-.551.907c-.91 1.498-2.048 2.696-3.116 3.363-1.093.684-1.941.722-2.462.3-.945-.815-1.75-2.265-2.524-4.088-.483-1.138-.934-2.37-1.397-3.633-.28-.763-.564-1.538-.862-2.31-.778-2.02-1.64-3.994-2.723-5.5-1.087-1.512-2.44-2.615-4.206-2.763a.477.477 0 0 0-.384.146.521.521 0 0 0-.143.398c.331 4.668.597 8.627.826 12.031.59 8.775.932 13.863 1.49 17.901.768 5.546 1.947 9.133 4.695 17.498l.13.393a262.772 262.772 0 0 1 3.698 18.398c.084.514.147.915.189 1.187l.047.308.012.079.003.025.484-.076.484-.076v-.007l-.004-.021-.012-.08a152.538 152.538 0 0 0-.238-1.507 263.771 263.771 0 0 0-3.73-18.538l-.115-.35c-2.768-8.424-3.919-11.925-4.673-17.376-.553-3.998-.892-9.032-1.48-17.778-.219-3.255-.472-7.024-.784-11.445 1.122.276 2.073 1.073 2.927 2.263 1 1.392 1.824 3.258 2.599 5.269.283.735.562 1.494.84 2.251.47 1.285.941 2.567 1.432 3.724.78 1.836 1.662 3.488 2.802 4.467l.009.008c1.02.835 2.379.526 3.576-.222 1.226-.767 2.466-2.093 3.437-3.691l.563-.926c3.876-6.378 7.795-12.826 10.798-19.709a.525.525 0 0 0 .042-.26l-.487.048.487-.047v-.003l-.001-.008-.003-.034-.011-.133a68.889 68.889 0 0 1-.155-2.334 67.94 67.94 0 0 1-.077-5.495c.062-1.994.249-3.93.653-5.327.203-.7.448-1.219.723-1.541.208-.245.423-.368.664-.388.037.082.082.196.134.347.139.402.302.986.479 1.706.355 1.436.757 3.363 1.132 5.33.374 1.966.719 3.965.96 5.543.121.79.215 1.471.273 1.988.03.26.049.473.059.636.005.081.008.146.008.196Zm-23.31 73.52.483-.076a.507.507 0 0 1-.41.581.495.495 0 0 1-.558-.429l.484-.076Z" fill="#0C296E"/>
  <path d="m108.011 40.934.002.005.01.014.038.058.147.227a46.975 46.975 0 0 1 2.146 3.733c1.195 2.324 2.353 5.114 2.417 7.224a.5.5 0 0 0 .505.495.5.5 0 0 0 .474-.524c-.072-2.373-1.338-5.352-2.533-7.675a48.553 48.553 0 0 0-2.195-3.818l-.153-.236-.04-.062-.011-.016-.004-.006-.402.29.402-.29a.478.478 0 0 0-.682-.129.523.523 0 0 0-.121.71Z" fill="#0C296E"/>
  <path d="M111.568 45.485a.483.483 0 0 0-.631.295l-.236.652a172.083 172.083 0 0 1-2.61 6.864.52.52 0 0 0 .263.668.483.483 0 0 0 .641-.273c1.295-3.236 1.677-4.29 2.623-6.898l.235-.65a.518.518 0 0 0-.285-.658Zm1.671 6.318a.49.49 0 0 0-.455.336l-1.402 4.057-.348 1.008.352.133-.352-.133a.518.518 0 0 0 .296.653.484.484 0 0 0 .626-.306l.347-1.008.922-2.668c.623 2.334.802 5.144-.275 7.3-2.263 4.53-3.82 7.659-5.075 10.18-1.798 3.611-2.974 5.976-4.713 9.42a.53.53 0 0 0-.041.363l4.958 20.268a.489.489 0 0 0 .595.37.51.51 0 0 0 .354-.619l-4.912-20.078c1.692-3.354 2.862-5.703 4.63-9.255 1.255-2.522 2.812-5.651 5.073-10.176 1.495-2.994.849-6.905-.117-9.518a.492.492 0 0 0-.463-.328Z" fill="#0C296E"/>
  <rect x="41" y="40" width="12" height="12" rx="2" fill="#3370FF"/>
  <path fill-rule="evenodd" clip-rule="evenodd" d="M61 40a2 2 0 0 0-2 2v8a2 2 0 0 0 2 2h8a2 2 0 0 0 2-2v-8a2 2 0 0 0-2-2h-8ZM25 58a2 2 0 0 0-2 2v8a2 2 0 0 0 2 2h8a2 2 0 0 0 2-2v-8a2 2 0 0 0-2-2h-8Zm16 2a2 2 0 0 1 2-2h8a2 2 0 0 1 2 2v8a2 2 0 0 1-2 2h-8a2 2 0 0 1-2-2v-8Zm20-2a2 2 0 0 0-2 2v8a2 2 0 0 0 2 2h8a2 2 0 0 0 2-2v-8a2 2 0 0 0-2-2h-8Z" fill="#BBBFC4"/>
</svg>
