<svg width="120" height="120" viewBox="0 0 120 120" fill="none" xmlns="http://www.w3.org/2000/svg">
  <path d="M112.424 63.16a4 4 0 0 0 2.829-4.899l-9.573-35.724a4 4 0 0 0-4.899-2.829l-21.963 5.885 9.12 34.036-.002-.01-1.5-5.6c.646-.19 1.327-.396 2.03-.608 6.548-1.972 15.045-4.532 15.756-.568.766 4.185-7.7 7.453-13.216 9.583-.54.209-1.053.407-1.526.593 2.217 3.08 6.168 4.636 10.023 3.603l12.921-3.462Zm-24.271-2.774c.293.865.725 1.67 1.148 2.376a9.442 9.442 0 0 1-1.148-2.376Z" fill="#17CFB5"/>
  <path fill="#fff" fill-opacity=".3" d="m17.363 20.696 4.878-1.307 23.532 87.824-4.878 1.307z"/>
  <path d="m18.481 24.866-1.113-4.155-3.267 1.107-.542 2.03c0 .867 2.015 1.332 4.922 1.018Z" fill="#fff" fill-opacity=".4"/>
  <path d="M103.31 49.44 35.198 67.747 22.414 19.99 81.498 4.158c4.989-1.337 10.136 1.66 11.483 6.687L103.31 49.44Z" fill="#17CFB5"/>
  <path d="M95.44 20.675a.5.5 0 0 1 .61.36l8.062 31.337a.5.5 0 1 1-.968.25l-8.063-31.338a.5.5 0 0 1 .36-.61Z" fill="#E0E0E0"/>
  <path d="M104.222 52.843c-.787-4.39-11.125-.779-17.786 1.174l1.5 5.602c.285 1.27.934 2.443 1.526 3.407 5.288-2.09 15.602-5.584 14.76-10.183Z" fill="#fff" fill-opacity=".4"/>
  <path d="M74.868 21.748a2.404 2.404 0 0 0-.985-3.314 2.546 2.546 0 0 0-3.393 1.008L58.893 40.24l-10.806-6.025a2.548 2.548 0 0 0-3.418.926 2.403 2.403 0 0 0 .905 3.336l13.38 7.46a2.06 2.06 0 0 0 2.762-.749l1.057-1.792.019.01.418-.751.004-.006 11.654-20.902Z" fill="#fff"/>
  <path d="m22.658 51.163-.495-.068-.033.237a466.154 466.154 0 0 1-.453 3.22 832.355 832.355 0 0 1-1.27 8.547c-1.032 6.708-2.39 14.937-3.708 21.164l-8.835 4.914a.5.5 0 1 0 .487.874l9.033-5.025a.5.5 0 0 0 .246-.332c1.34-6.283 2.72-14.652 3.766-21.443A834.422 834.422 0 0 0 23.12 51.47l.015-.114c.186-.236.478-.473.814-.544.333-.07.835-.006 1.474.69.155.168.356.544.581 1.162.218.599.437 1.366.652 2.257.43 1.782.837 4.025 1.184 6.342.697 4.646 1.147 9.518 1.095 11.502a.5.5 0 0 0 .151.372c2.914 2.826 7.97 11.893 3.65 25.305a.5.5 0 1 0 .952.306c4.367-13.557-.56-22.935-3.749-26.175.02-2.19-.435-6.963-1.11-11.459-.349-2.332-.76-4.607-1.2-6.429-.22-.91-.449-1.716-.684-2.364-.229-.628-.485-1.17-.785-1.497-.815-.888-1.657-1.152-2.417-.992-.713.151-1.231.654-1.5 1.05a.5.5 0 0 0-.08.213l.495.068Z" fill="#E0E0E0"/>
  <path d="M39.454 69.15c-3.25 1.187-6.585 2.774-9.273 4.172a.5.5 0 0 1-.461-.887c2.708-1.408 6.084-3.017 9.39-4.225 3.289-1.202 6.579-2.035 9.086-1.83 1.74.143 3.153 1.53 4.277 3.416 1.138 1.91 2.062 4.464 2.775 7.211 1.426 5.495 2.044 11.897 1.793 15.783-.171 2.658-.674 4.81-1.808 6.583-1.137 1.78-2.874 3.123-5.408 4.234-5.02 2.199-13.351 3.555-26.89 5.502l-6.31 2.003a.5.5 0 1 1-.303-.953l6.35-2.015a.442.442 0 0 1 .08-.018c13.624-1.96 21.802-3.301 26.672-5.435 2.413-1.058 3.967-2.292 4.967-3.857 1.004-1.571 1.486-3.53 1.652-6.108.243-3.763-.36-10.057-1.763-15.468-.702-2.705-1.597-5.156-2.666-6.95-1.083-1.817-2.266-2.83-3.5-2.93-2.276-.187-5.39.576-8.66 1.771Z" fill="#E0E0E0"/>
  <path d="M56.497 93.18a.473.473 0 0 1-.087.685c-1.832 1.289-4.749 3.368-7.261 5.356-1.258.995-2.406 1.961-3.264 2.789a11.66 11.66 0 0 0-1.03 1.106c-.263.332-.384.562-.416.694a.558.558 0 0 0-.014.078c.027.008.07.017.137.023.367.032.995-.078 1.821-.32 1.618-.474 3.721-1.371 5.395-2.132a.537.537 0 0 1 .686.243c.13.247-.19.498-.438.611-1.676.763-3.61 1.726-5.301 2.222-.828.242-1.619.406-2.199.356-.287-.025-.637-.112-.88-.385-.26-.294-.272-.657-.197-.968.08-.336.309-.695.587-1.046.288-.364.669-.769 1.113-1.198.89-.859 2.065-1.846 3.332-2.849 2.535-2.005 5.47-4.097 7.303-5.387a.53.53 0 0 1 .713.122Z" fill="#E0E0E0"/>
  <path d="M47.345 67.099c.22.184.259.496.086.696l-.896 1.033c-2.006 2.313-4.202 4.845-6.16 7.32-2.258 2.856-4.168 5.6-5.103 7.816-.103.244-.398.345-.658.225-.26-.12-.388-.415-.285-.66.985-2.335 2.961-5.159 5.224-8.02 1.97-2.492 4.18-5.04 6.186-7.352l.894-1.031c.172-.2.491-.212.712-.028ZM34.958 91.228a.553.553 0 0 1 .642.359c.75 2.209 1.579 3.733 2.748 4.666 1.146.914 2.715 1.333 5.114 1.118 2.376-.213 5.434-1.454 7.941-2.676a58.357 58.357 0 0 0 4.276-2.316l.062-.039.016-.01.004-.001v-.001c.228-.14.545-.066.709.167.163.233.111.536-.116.677l-.296-.422.296.422-.006.004-.017.01-.067.04-.251.151a59.302 59.302 0 0 1-4.097 2.206c-2.511 1.223-5.708 2.538-8.28 2.769-2.55.228-4.44-.2-5.893-1.359-1.43-1.14-2.34-2.916-3.104-5.168a.452.452 0 0 1 .319-.597Zm19.348-16.205c.173.238.143.55-.067.696L35.29 88.942c-.21.147-.522.074-.696-.163-.173-.238-.143-.55.067-.697L53.61 74.86c.21-.147.522-.073.696.164Z" fill="#E0E0E0"/>
  <path d="M55.958 85.213c.136.261.057.56-.176.668L36.73 94.7c-.233.108-.532-.017-.667-.279-.136-.261-.058-.56.175-.668l19.054-8.819c.232-.108.531.017.667.279Z" fill="#E0E0E0"/>
  <path d="M72.12 79.324c8.91-4.416 17.317-2.714 26.154-7.04.502 2.458 1.436 5.26 1.942 7.215-8.444 4.116-17.785 1.947-26.154 7.04-.502-1.99-1.436-5.26-1.942-7.215Z" fill="#F0B622"/>
  <path d="M80.417 91.735c11.685-4.686 23.817-2.89 32.654-7.215.503 2.458 1.437 5.26 1.942 7.215-8.444 4.116-21.594 2.074-32.654 7.215-.502-1.99-1.436-5.26-1.942-7.215Z" fill="#528CFF"/>
  <path d="M12.724 16.376c.05-.098.16-.236.402-.41.376-.268.957-.539 1.763-.808 1.611-.537 3.83-.977 6.392-1.477l.257-.05c4.532-.886 10.023-1.958 14.226-4.134.334 1.357.743 2.77 1.111 4.04.169.583.329 1.136.47 1.64-3.55 1.71-8.41 2.615-12.953 3.46l-1.243.233c-2.54.478-4.943.964-6.775 1.61-.888.313-1.697.682-2.34 1.143l-.28-1.128a514.272 514.272 0 0 0-1.03-4.119Zm22.805-7.885c-4.091 2.186-9.592 3.261-14.28 4.177-5.152 1.007-9.322 1.821-9.558 3.709.313 1.21.708 2.803 1.089 4.345.142.572.281 1.138.415 1.674.129.518.252 1.01.364 1.452.096-.432.35-.816.74-1.16 1.651-1.464 5.723-2.221 10.31-3.073 4.803-.893 10.171-1.89 13.912-3.916a90.629 90.629 0 0 0-.706-2.512c-.386-1.334-.809-2.79-1.143-4.189-.083-.347-.161-.69-.231-1.027-.295.18-.6.354-.912.52Z" fill="#E0E0E0"/>
  <path d="M77.379 100.718c-.506-1.955-1.44-4.757-1.943-7.215-2.855 1.398-8.794 2.402-13.65 3.222l1.868 7.118c3.748-.451 10.913-1.755 13.724-3.125Z" fill="#528CFF"/>
</svg>
