<svg width="552" height="143" viewBox="0 0 552 143" fill="none" xmlns="http://www.w3.org/2000/svg">
  <g clip-path="url(#illustration_specialized_CTA-banner-Desktop__a)">
    <rect width="552" height="143" rx="6" fill="#F0F4FF"/>
    <path fill-rule="evenodd" clip-rule="evenodd" d="M179.007 35.477a4.5 4.5 0 0 1 4.5-4.5h30.904a4.5 4.5 0 0 1 4.5 4.5v5.384a.5.5 0 0 1-1 0v-5.384a3.5 3.5 0 0 0-3.5-3.5h-30.904a3.5 3.5 0 0 0-3.5 3.5v27.566a3.5 3.5 0 0 0 3.5 3.5h16.152a.5.5 0 0 1 0 1h-16.152a4.5 4.5 0 0 1-4.5-4.5V35.477Z" fill="#002270"/>
    <path fill-rule="evenodd" clip-rule="evenodd" d="M191.728 66.6V31.484h1V66.6h-1Z" fill="#002270"/>
    <path fill-rule="evenodd" clip-rule="evenodd" d="M200.103 43.215a.5.5 0 0 1-.5.5h-19.768v-1h19.768a.5.5 0 0 1 .5.5Zm4.819-2.329v-9.269a.5.5 0 0 1 1 0v9.269a.5.5 0 1 1-1 0Zm-25.587 14.137h20.267a.5.5 0 0 1 0 1h-20.267v-1Z" fill="#002270"/>
    <path d="M157.415 57.957c-.878 0-1.589.71-1.589 1.584v16.183c0 .875.711 1.584 1.589 1.584h23.176c.878 0 1.59-.71 1.59-1.584v-4.032l4.698 2.704c1.06.61 2.384-.153 2.384-1.372l.004-11.017c0-1.22-1.325-1.983-2.385-1.372l-4.701 2.707V59.54c0-.875-.712-1.584-1.59-1.584h-23.176Z" fill="#33D6C0"/>
    <path d="M174.273 66.385a.998.998 0 0 1 .002 1.73l-6.554 3.77a1.002 1.002 0 0 1-1.502-.867l-.003-7.544a1 1 0 0 1 1.501-.864l6.556 3.775Z" fill="#fff"/>
    <rect x="203.099" y="44.375" width="149.018" height="111.95" rx="5.5" fill="#F0F4FF" stroke="#002270"/>
    <path d="M321.827 56.583c1.066 0 1.929-.86 1.929-1.922a1.925 1.925 0 0 0-1.929-1.922c-1.065 0-1.929.86-1.929 1.922 0 1.062.864 1.922 1.929 1.922Zm2.894-1.922a2.888 2.888 0 0 1-2.894 2.884 2.888 2.888 0 0 1-2.893-2.884 2.888 2.888 0 0 1 2.893-2.884 2.888 2.888 0 0 1 2.894 2.884Zm6.752 1.922c1.065 0 1.929-.86 1.929-1.922a1.926 1.926 0 0 0-1.929-1.922c-1.066 0-1.929.86-1.929 1.922 0 1.062.863 1.922 1.929 1.922Zm2.894-1.922a2.889 2.889 0 0 1-2.894 2.884 2.889 2.889 0 0 1-2.894-2.884 2.89 2.89 0 0 1 2.894-2.884 2.89 2.89 0 0 1 2.894 2.884Zm9.646 0a2.889 2.889 0 0 1-2.894 2.884 2.889 2.889 0 0 1-2.894-2.884 2.89 2.89 0 0 1 2.894-2.884 2.89 2.89 0 0 1 2.894 2.884Z" fill="#002270"/>
    <path d="M365.683 10.207v31.3h9.782v-31.3h-9.782Z" fill="#FFC60A"/>
    <path d="M358.599 39.002c0-.269.218-.486.487-.486h9.782c.269 0 .488.217.488.486v9.747a.487.487 0 0 1-.488.486h-9.782a.486.486 0 0 1-.487-.486v-9.748Zm.975.485v8.776h8.807v-8.776h-8.807Z" fill="#002270"/>
    <path d="M253.775 150.847H-39.128a73.128 73.128 0 0 1-.633-9.622c0-40.02 32.443-72.463 72.463-72.463 29.63 0 55.106 17.783 66.337 43.258 7.896-4.892 17.208-7.715 27.179-7.715 19.491 0 36.462 10.789 45.266 26.72a32.339 32.339 0 0 1 17.689-5.233c11.341 0 21.325 5.811 27.136 14.618a23.882 23.882 0 0 1 14.96-5.236c10.324 0 19.125 6.523 22.506 15.673Z" fill="#F0F4FF"/>
    <path fill-rule="evenodd" clip-rule="evenodd" d="M98.626 111.1C87.191 86.118 61.974 68.762 32.702 68.762c-40.02 0-72.463 32.443-72.463 72.463 0 3.262.216 6.474.634 9.622h292.902c-.125-.337-.257-.67-.396-1-3.635-8.621-12.166-14.673-22.11-14.673a23.877 23.877 0 0 0-14.96 5.236 36.55 36.55 0 0 0-.565-.828c-5.88-8.342-15.589-13.79-26.571-13.79a32.335 32.335 0 0 0-17.689 5.233 49.927 49.927 0 0 0-.493-.872c-8.935-15.452-25.64-25.848-44.773-25.848-9.61 0-18.608 2.623-26.316 7.192-.29.172-.577.346-.863.523a68.234 68.234 0 0 0-.413-.92Zm153.664 38.747c-3.574-8.056-11.643-13.673-21.021-13.673a22.883 22.883 0 0 0-14.336 5.018 1.001 1.001 0 0 1-1.459-.231c-5.634-8.539-15.31-14.169-26.301-14.169a31.323 31.323 0 0 0-17.143 5.072 1.004 1.004 0 0 1-1.421-.355c-8.635-15.626-25.278-26.204-44.391-26.204-9.779 0-18.91 2.769-26.652 7.565a1 1 0 0 1-1.442-.447C87.047 87.297 61.921 69.762 32.702 69.762c-39.468 0-71.463 31.995-71.463 71.463 0 2.918.175 5.796.515 8.622H252.29Z" fill="#0C296E"/>
    <path d="M303.508 150.847H596.41c.418-3.148.634-6.36.634-9.622 0-40.02-32.443-72.463-72.463-72.463-29.63 0-55.106 17.783-66.338 43.258-7.896-4.892-17.207-7.715-27.179-7.715-19.49 0-36.461 10.789-45.265 26.72a32.339 32.339 0 0 0-17.689-5.233c-11.341 0-21.325 5.811-27.136 14.618a23.882 23.882 0 0 0-14.96-5.236c-10.324 0-19.125 6.523-22.506 15.673Z" fill="#F0F4FF"/>
    <path fill-rule="evenodd" clip-rule="evenodd" d="M340.178 139.801a23.877 23.877 0 0 0-14.164-4.627c-9.944 0-18.475 6.052-22.11 14.673-.139.33-.271.663-.396 1H596.41c.418-3.148.634-6.36.634-9.622 0-40.02-32.443-72.463-72.463-72.463-29.272 0-54.489 17.356-65.924 42.338-.14.305-.278.612-.414.92a53.368 53.368 0 0 0-.862-.523c-7.708-4.569-16.706-7.192-26.317-7.192-19.132 0-35.837 10.396-44.772 25.848-.167.289-.332.58-.493.872a32.335 32.335 0 0 0-17.689-5.233c-10.982 0-20.691 5.448-26.571 13.79-.192.273-.381.549-.565.828a24.97 24.97 0 0 0-.796-.609Zm255.351 10.046c.34-2.826.515-5.704.515-8.622 0-39.468-31.996-71.463-71.463-71.463-29.219 0-54.345 17.535-65.423 42.661a.998.998 0 0 1-1.441.447c-7.743-4.796-16.873-7.565-26.653-7.565-19.112 0-35.755 10.578-44.39 26.204a1.004 1.004 0 0 1-1.421.355 31.325 31.325 0 0 0-17.143-5.072c-10.991 0-20.668 5.63-26.301 14.169a1 1 0 0 1-1.459.231 22.883 22.883 0 0 0-14.336-5.018c-9.378 0-17.447 5.617-21.021 13.673h290.536Z" fill="#0C296E"/>
    <path d="M269.35 120.505c.248 0 .448.2.448.447v10.463a.448.448 0 0 1-.897 0v-10.463c0-.247.201-.447.449-.447Zm6.654 0c.248 0 .448.2.448.448V134.9a.447.447 0 0 1-.896 0v-13.947c0-.248.2-.448.448-.448Zm6.646 0c.248 0 .449.2.449.447v10.463a.449.449 0 0 1-.897 0v-10.463c0-.247.2-.447.448-.447Z" fill="#002270"/>
    <path d="M276.009 10.207c-9.365 0-22.602 14.098-22.602 47.394 0 11.92 3.33 38.963 4.356 47.028.168 1.33 1.175 2.304 2.369 2.304h31.736c1.194 0 2.201-.974 2.369-2.304 1.026-8.055 4.356-35.109 4.356-47.028.01-33.296-13.218-47.394-22.584-47.394Z" fill="#3EC3F7"/>
    <path d="M265.13 106.931h21.732l2.898 6.195c.849 1.801-.308 3.948-2.108 3.948h-23.293c-1.8 0-2.966-2.147-2.127-3.948l2.898-6.195Z" fill="#336DF4"/>
    <path d="M276 60.258c4.637 0 8.396-3.75 8.396-8.376 0-4.626-3.759-8.376-8.396-8.376-4.636 0-8.395 3.75-8.395 8.376 0 4.626 3.759 8.376 8.395 8.376Zm0 27.024c4.636 0 8.395-3.75 8.395-8.376 0-4.625-3.759-8.375-8.395-8.375-4.637 0-8.396 3.75-8.396 8.375 0 4.626 3.759 8.376 8.396 8.376Zm-16.623-58.803c0-.276.2-.498.448-.498h32.351c.248 0 .448.222.448.498 0 .275-.2.498-.448.498h-32.351c-.248 0-.448-.223-.448-.498Z" fill="#fff"/>
    <path d="M295.134 97.424h17.183c1.738 0 2.815-1.887 1.928-3.378l-16.052-26.983c-.036.514-.074 1.035-.113 1.563l15.394 25.876a1.343 1.343 0 0 1-1.157 2.028h-17.076l-.107.894ZM253.94 68.719l-15.067 25.327c-.887 1.49.19 3.378 1.928 3.378h16.078l-.107-.895h-15.971a1.342 1.342 0 0 1-1.157-2.027L254.06 70.27c-.041-.523-.082-1.04-.12-1.551Z" fill="#002270"/>
    <path d="M326.473 100.322a2 2 0 0 0 2 2h43.749a2 2 0 0 0 2-2V71.785a2 2 0 0 0-2-2h-43.749a2 2 0 0 0-2 2v28.537Z" fill="#336DF4"/>
    <path d="M326.473 100.322a2 2 0 0 0 2 2h43.749a2 2 0 0 0 2-2V71.785a2 2 0 0 0-2-2h-43.749a2 2 0 0 0-2 2v28.537Z" fill="#DADCDF"/>
    <path d="M365.462 80.668h-31.404a.36.36 0 0 1-.281-.146.566.566 0 0 1-.116-.352c0-.132.041-.259.116-.352a.36.36 0 0 1 .281-.146h31.404c.105 0 .206.052.281.146a.57.57 0 0 1 .116.352.572.572 0 0 1-.116.352.363.363 0 0 1-.281.146Zm-9.348 9.125h-22.056a.36.36 0 0 1-.281-.146.565.565 0 0 1-.116-.352c0-.132.041-.259.116-.352a.36.36 0 0 1 .281-.146h22.056a.36.36 0 0 1 .28.146c.075.093.117.22.117.352a.566.566 0 0 1-.117.352.36.36 0 0 1-.28.146Z" fill="#fff"/>
    <rect x="362.158" y="87.336" width="47.508" height="18.379" rx="9.19" fill="#F0F4FF"/>
    <path d="M398.794 90.823c-3.186.594-5.285 3.648-4.689 6.82.596 3.173 3.662 5.263 6.848 4.669 3.186-.594 5.285-3.647 4.688-6.82-.596-3.172-3.662-5.262-6.847-4.669Z" fill="#33D6C0"/>
    <g filter="url(#illustration_specialized_CTA-banner-Desktop__b)">
      <path d="M374.222 87.336h-2.842c-5.094 0-9.222 4.114-9.222 9.19a9.13 9.13 0 0 0 2.066 5.797h9.998V87.336Z" fill="#DADCDF"/>
    </g>
    <path fill-rule="evenodd" clip-rule="evenodd" d="M400.167 88.336h-28.805a8.499 8.499 0 1 0 0 16.998h28.805a8.499 8.499 0 1 0 0-16.998Zm-28.805-1a9.5 9.5 0 0 0 0 18.998h28.805a9.5 9.5 0 0 0 0-18.998h-28.805Z" fill="#0C296E"/>
    <rect x="186.302" y="85.602" width="45.108" height="29.239" rx="2" fill="#FFC60A" stroke="#FFC60A"/>
    <path fill-rule="evenodd" clip-rule="evenodd" d="M201.802 97.902a.4.4 0 0 1 .024.566l-14.494 15.771a.4.4 0 1 1-.589-.541l14.493-15.772a.401.401 0 0 1 .566-.024Zm14.109 0a.4.4 0 0 0-.024.566l14.494 15.771a.4.4 0 1 0 .589-.541l-14.494-15.772a.4.4 0 0 0-.565-.024Z" fill="#0C296E"/>
    <path d="m187.037 86.422 20.245 16.414a2.5 2.5 0 0 0 3.149 0l20.245-16.414" fill="#FFC60A"/>
    <path fill-rule="evenodd" clip-rule="evenodd" d="M186.726 86.171a.4.4 0 0 1 .563-.058l20.245 16.414a2.1 2.1 0 0 0 2.645 0l20.245-16.414a.4.4 0 1 1 .503.621l-20.245 16.415a2.9 2.9 0 0 1-3.652 0l-20.245-16.415a.4.4 0 0 1-.059-.563Z" fill="#0C296E"/>
    <path d="M415.938 43.657c0-.003-.002-.005-.006-.005a8.54 8.54 0 0 1-8.855-8.514 8.54 8.54 0 0 1-8.856 8.514.006.006 0 0 0-.006.005c0 .004.003.006.006.006a8.54 8.54 0 0 1 8.856 8.488 8.54 8.54 0 0 1 8.855-8.488c.004 0 .006-.002.006-.006Z" fill="#FFE284"/>
    <path d="M415.938 43.657c0-.003-.002-.005-.006-.005a8.54 8.54 0 0 1-8.855-8.514 8.54 8.54 0 0 1-8.856 8.514.006.006 0 0 0-.006.005c0 .004.003.006.006.006a8.54 8.54 0 0 1 8.856 8.488 8.54 8.54 0 0 1 8.855-8.488c.004 0 .006-.002.006-.006Z" fill="#FFC60A"/>
    <path d="M407.077 52.513c.003 0 .006-.003.005-.006a7.668 7.668 0 0 1-.005-.263c0 .088-.002.176-.005.263 0 .003.002.006.005.006Z" fill="#FFE284"/>
    <path d="M407.077 52.513c.003 0 .006-.003.005-.006a7.668 7.668 0 0 1-.005-.263c0 .088-.002.176-.005.263 0 .003.002.006.005.006Z" fill="#FFC60A"/>
    <path d="M407.083 34.795a.006.006 0 0 0-.006-.006.006.006 0 0 0-.006.006c.004.1.006.201.006.303 0-.102.002-.202.006-.303Z" fill="#FFE284"/>
    <path d="M407.083 34.795a.006.006 0 0 0-.006-.006.006.006 0 0 0-.006.006c.004.1.006.201.006.303 0-.102.002-.202.006-.303Z" fill="#FFC60A"/>
    <path d="M394.005 51.67a6.85 6.85 0 0 1-7.103 6.844c-.003 0-.005.002-.005.005s.002.005.005.005a6.845 6.845 0 0 1 7.103 6.822 6.849 6.849 0 0 1 7.102-6.822c.002 0 .005-.002.005-.005s-.003-.005-.005-.005a6.849 6.849 0 0 1-7.098-7.103c0-.003-.002-.005-.004-.005a.005.005 0 0 0-.005.005c.003.086.005.172.005.259Z" fill="#FFE284"/>
    <path d="M394.005 51.67a6.85 6.85 0 0 1-7.103 6.844c-.003 0-.005.002-.005.005s.002.005.005.005a6.845 6.845 0 0 1 7.103 6.822 6.849 6.849 0 0 1 7.102-6.822c.002 0 .005-.002.005-.005s-.003-.005-.005-.005a6.849 6.849 0 0 1-7.098-7.103c0-.003-.002-.005-.004-.005a.005.005 0 0 0-.005.005c.003.086.005.172.005.259Z" fill="#FFC60A"/>
    <path d="M394.005 65.62c.002 0 .004-.001.004-.004a5.643 5.643 0 0 1-.004-.225 8.44 8.44 0 0 1-.005.225c0 .003.002.005.005.005Z" fill="#FFE284"/>
    <path d="M394.005 65.62c.002 0 .004-.001.004-.004a5.643 5.643 0 0 1-.004-.225 8.44 8.44 0 0 1-.005.225c0 .003.002.005.005.005Z" fill="#FFC60A"/>
    <path d="M139.822 19.551c0 5.444-4.413 9.857-9.857 9.857-.123 0-.244-.002-.365-.006a.007.007 0 0 0-.007.006c0 .004.003.007.007.007.121-.004.242-.007.365-.007 5.433 0 9.84 4.396 9.857 9.826.017-5.43 4.424-9.826 9.857-9.826.122 0 .243.003.364.007a.007.007 0 0 0 .007-.007.007.007 0 0 0-.007-.006c-.121.004-.242.006-.364.006-5.444 0-9.857-4.413-9.857-9.857 0-.125.002-.248.007-.372a.007.007 0 0 0-.007-.007.007.007 0 0 0-.007.007c.005.123.007.248.007.372Z" fill="#FFE284"/>
    <path d="M139.822 19.551c0 5.444-4.413 9.857-9.857 9.857-.123 0-.244-.002-.365-.006a.007.007 0 0 0-.007.006c0 .004.003.007.007.007.121-.004.242-.007.365-.007 5.433 0 9.84 4.396 9.857 9.826.017-5.43 4.424-9.826 9.857-9.826.122 0 .243.003.364.007a.007.007 0 0 0 .007-.007.007.007 0 0 0-.007-.006c-.121.004-.242.006-.364.006-5.444 0-9.857-4.413-9.857-9.857 0-.125.002-.248.007-.372a.007.007 0 0 0-.007-.007.007.007 0 0 0-.007.007c.005.123.007.248.007.372Z" fill="#FFC60A"/>
    <path d="M139.822 39.63c.003 0 .006-.004.006-.007a8.77 8.77 0 0 1-.006-.325c0 .109-.003.217-.006.325 0 .003.002.006.006.006Z" fill="#FFE284"/>
    <path d="M139.822 39.63c.003 0 .006-.004.006-.007a8.77 8.77 0 0 1-.006-.325c0 .109-.003.217-.006.325 0 .003.002.006.006.006Z" fill="#FFC60A"/>
  </g>
  <defs>
    <clipPath id="illustration_specialized_CTA-banner-Desktop__a">
      <rect width="552" height="143" rx="6" fill="#fff"/>
    </clipPath>
    <filter id="illustration_specialized_CTA-banner-Desktop__b" x="359.158" y="84.336" width="18.064" height="20.988" filterUnits="userSpaceOnUse" color-interpolation-filters="sRGB">
      <feFlood flood-opacity="0" result="BackgroundImageFix"/>
      <feBlend in="SourceGraphic" in2="BackgroundImageFix" result="shape"/>
      <feGaussianBlur stdDeviation="1.5" result="effect1_foregroundBlur_24831_268"/>
    </filter>
  </defs>
</svg>
