<svg width="120" height="120" viewBox="0 0 120 120" fill="none" xmlns="http://www.w3.org/2000/svg"><g clip-path="url(#ud9ubsxa68ma)"><path d="m34.995 61.673-1.5-10C11.851 60.62 5.171 69.49 5.171 73.303a2.94 2.94 0 0 0-.158 1.204l.678 6.412c-.004-.036 1.163 2.603 3.587.73.61-2.01 6.073-12.03 25.717-19.976Z" fill="#0C296E"/><path d="M4.98 74.219c.799 8.386 25.224 14.905 45.074 13.899l.797 9.053C29.93 98.435 6.658 91.484 5.979 83.772l-1-9.553Z" fill="#00D6B9"/><path d="m62.75 113.392-.464-9.077c-14.55.21-32.68-.724-44.227-4.79l.482 9.441c11.299 3.818 28.94 4.792 44.208 4.426Z" fill="#3370FF"/><path d="M114.563 65.044c-.855.103-1.981.438-3.297 1.06h-.002c-2.127.995-5.351 3.174-9.063 5.898-3.385 2.483-7.143 5.395-10.795 8.225l-1.022.792c-3.279 2.529-6.37 4.894-8.858 6.656-1.244.88-2.345 1.617-3.25 2.15-.451.266-.86.485-1.219.647-.35.159-.681.276-.968.315-2.104.292-3.802-.509-5.645-1.724-.62-.41-1.254-.862-1.93-1.345-1.362-.973-2.893-2.068-4.832-3.173-2.593-1.469-4.126-2.076-5.129-2.25-.49-.084-.84-.062-1.122.006-.284.07-.528.195-.807.362l-.007.004a.476.476 0 0 0-.211.205.458.458 0 0 0-.027.253c.032.25.184.567.406.901l.006.008c.08.128.36.436.83.904.451.45 1.034 1.004 1.672 1.605l.92.864c1.026.963 2.094 1.964 2.913 2.777a.478.478 0 0 1 .018.02c5.996 6.608 7.586 11.63 7.617 15.062.015 1.713-.358 3.009-.744 3.885a6.589 6.589 0 0 1-.538.994c-.075.113-.14.2-.186.26-.023.03-.043.053-.057.07l-.017.021-.006.007-.002.002v.001c-.001 0-.001.001-.377-.333l.376.334a.501.501 0 0 1-.707.038.498.498 0 0 1-.046-.703l.001-.001.007-.008a3.508 3.508 0 0 0 .179-.244c.121-.183.288-.465.456-.846.334-.759.674-1.916.66-3.475-.029-3.111-1.467-7.903-7.347-14.388-.807-.8-1.855-1.783-2.875-2.74l-.93-.873a90.356 90.356 0 0 1-1.692-1.625c-.44-.439-.811-.83-.967-1.073-.241-.365-.502-.84-.563-1.327a1.443 1.443 0 0 1 .11-.793c.122-.266.33-.482.61-.644.307-.185.651-.37 1.08-.474.435-.106.927-.124 1.53-.02 1.186.206 2.848.89 5.456 2.367h.001c1.98 1.13 3.6 2.286 4.985 3.274.66.472 1.267.905 1.834 1.279 1.787 1.178 3.221 1.808 4.952 1.567.145-.02.373-.09.694-.236.314-.142.69-.343 1.125-.599.869-.511 1.944-1.23 3.18-2.104 2.468-1.748 5.543-4.1 8.823-6.631l1.024-.793c3.649-2.827 7.418-5.748 10.813-8.24 3.703-2.716 7.001-4.952 9.23-5.995 1.379-.651 2.61-1.028 3.602-1.148.496-.06.949-.057 1.339.017.386.075.745.228 1.005.5.574.602.409 1.446-.068 2.22-.492.801-1.422 1.74-2.832 2.787-4.34 3.223-9.087 7.588-12.757 11.155a227.43 227.43 0 0 0-5.783 5.832l-.341.36-.088.093-.028.03-.368-.34-.367-.343.03-.033.09-.094.344-.363c.3-.316.739-.774 1.293-1.344a229.058 229.058 0 0 1 4.516-4.516c3.679-3.576 8.464-7.977 12.857-11.24 1.368-1.015 2.183-1.865 2.58-2.51.412-.67.278-.927.199-1.008-.066-.07-.204-.155-.465-.205-.257-.05-.6-.058-1.028-.006Zm-20.05 21.661-.366-.342a.502.502 0 0 0 .735.684l-.368-.342Z" fill="#0C296E"/><path d="M106.521 74.987a.501.501 0 0 1 .221.673c-1.611 3.157-3.436 6.25-4.856 8.55a152.106 152.106 0 0 1-2.261 3.543l-.136.204-.035.053-.012.018-.416-.28.396.307-.108.14-.31.401a496.05 496.05 0 0 0-4.68 6.164c-2.665 3.57-5.565 7.579-6.666 9.531l-1.09 5.681a.497.497 0 0 1-.586.393.504.504 0 0 1-.398-.588l1.106-5.759a.497.497 0 0 1 .053-.148c1.11-1.997 4.095-6.119 6.776-9.71a497.17 497.17 0 0 1 4.69-6.177l.31-.402.1-.128.002-.003.034-.051.133-.2a144.18 144.18 0 0 0 2.244-3.518c1.413-2.288 3.223-5.355 4.816-8.48a.499.499 0 0 1 .673-.214Zm-7.496 12.76.397.308a.531.531 0 0 0 .02-.027l-.416-.28Zm11.727-26.313c-.13-.063-.232-.064-.298-.04a.56.56 0 0 1-.027.008c-.136.04-.252.172-.448.445-1.326 1.85-2.253 3.129-3.179 4.408-.926 1.279-1.851 2.557-3.176 4.404a.5.5 0 0 1-.698.113.5.5 0 0 1-.118-.697c1.326-1.85 2.253-3.13 3.179-4.409.926-1.278 1.851-2.557 3.176-4.404l.022-.031c.158-.222.452-.635.941-.784.377-.128.756-.057 1.057.088a1.8 1.8 0 0 1 .74.666.54.54 0 0 1 .041.086c.147.392.122.867.046 1.305a8.405 8.405 0 0 1-.4 1.422c-.346.943-.814 1.866-1.107 2.33a.5.5 0 0 1-.69.153.5.5 0 0 1-.158-.69c.251-.398.689-1.256 1.014-2.142a7.49 7.49 0 0 0 .355-1.25c.061-.352.055-.596.017-.74a.799.799 0 0 0-.289-.241Zm-8.234 2.989c.301.071.567.252.745.55l.005.01c.212.371.19.767.105 1.086a3.164 3.164 0 0 1-.392.846.502.502 0 0 1-.849-.536 2.2 2.2 0 0 0 .273-.573c.046-.171.029-.27-.005-.332a.154.154 0 0 0-.107-.08.68.68 0 0 0-.323.028c-.31.087-.666.308-.917.547-2.009 2.047-4.055 5.254-5.269 7.866a.494.494 0 0 1-.058.095l-.043.055-.123.157c-.108.137-.265.337-.465.588a198.79 198.79 0 0 1-1.636 2.031c-1.341 1.644-3.104 3.753-4.785 5.603a.501.501 0 0 1-.707.032.499.499 0 0 1-.037-.706c1.663-1.83 3.414-3.924 4.75-5.563a202.224 202.224 0 0 0 2.09-2.605l.122-.155.007-.01c1.253-2.679 3.346-5.962 5.441-8.095l.011-.01c.342-.328.839-.65 1.341-.792.252-.07.542-.105.826-.037Z" fill="#0C296E"/><path d="M108.47 60.531c-.641.135-1.238.538-1.604.887l-.012.01c-.372.333-.839.894-1.337 1.563a46.178 46.178 0 0 0-1.44 2.073h-.001c-3.922 5.909-4.325 6.41-8.221 11.243l-.888 1.102a.5.5 0 0 1-.704.074.5.5 0 0 1-.079-.703l.899-1.114c3.87-4.804 4.26-5.286 8.157-11.156a48.36 48.36 0 0 1 1.471-2.119c.502-.673 1.016-1.3 1.466-1.704.451-.427 1.204-.949 2.079-1.133.915-.193 1.949-.009 2.826.966a.498.498 0 1 1-.743.664c-.61-.678-1.264-.78-1.869-.653ZM86.737 44.438c9.468-2.905 17.68-8.096 17.342-11.94l-.939-10.667c.578 6.568-10.656 10.654-18.876 13.405l2.473 9.202Z" fill="#0C296E"/><path d="m77.765 11.06 14.587 54.264a4 4 0 0 1-2.852 4.91l-4.351 1.135 1.84-2.872-9.224-57.437Z" fill="#0C296E"/><path d="m78.358 11.446 9.445 55.568a4.5 4.5 0 0 1-3.264 5.098l-46.661 12.59a4.5 4.5 0 0 1-5.608-3.591l-9.446-55.568a4.5 4.5 0 0 1 3.265-5.098l46.66-12.59a4.5 4.5 0 0 1 5.61 3.591ZM73.01 8.821l-46.66 12.59a3.5 3.5 0 0 0-2.54 3.965l9.445 55.567a3.5 3.5 0 0 0 4.362 2.793l46.662-12.59a3.5 3.5 0 0 0 2.538-3.965l-9.445-55.567a3.5 3.5 0 0 0-4.362-2.793Z" fill="#0C296E"/><path d="M77.753 11.55a4 4 0 0 0-5.037-3.68L23.229 21.222a4 4 0 0 0-2.954 4.044l2.39 52.365a4 4 0 0 0 5.038 3.68L77.189 67.96a4 4 0 0 0 2.954-4.044l-2.39-52.366Z" fill="#FFC60A"/><path d="M26.917 33.637a.5.5 0 0 1 .352-.613L74.615 20.25a.5.5 0 1 1 .26.966L27.53 33.989a.5.5 0 0 1-.613-.352Z" fill="#fff"/><path d="M31.373 14.77a4.604 4.604 0 1 0 2.398 8.889.5.5 0 0 1 .26.966 5.604 5.604 0 1 1 3.951-6.87.5.5 0 0 1-.965.26 4.604 4.604 0 0 0-5.644-3.245Zm31.839-8.59a4.604 4.604 0 0 0 2.399 8.89.5.5 0 1 1 .26.965 5.604 5.604 0 1 1 3.95-6.87.5.5 0 1 1-.965.26 4.604 4.604 0 0 0-5.644-3.245Zm-15.92 4.295a4.604 4.604 0 1 0 2.399 8.89.5.5 0 0 1 .26.965 5.604 5.604 0 1 1 3.95-6.87.5.5 0 0 1-.965.26 4.604 4.604 0 0 0-5.644-3.245Z" fill="#0C296E"/><path d="m52.016 62.213-1.155.312c-4.424 1.194-7.899-1.712-8.033-5.095l1.65-.446c.111 2.509 2.902 4.717 6.303 3.8l1.155-.312c3.697-.997 6.521-4.967 6.362-8.838-.159-3.87-3.309-6.228-7.006-5.231l-2.971.802c-.33.089-.648-.037-.802-.348-.155-.311-.078-.684.157-.994l6.873-9.047-10.2 2.752-.08-1.74 12.279-3.314c.33-.089.647.037.802.348.155.31.078.684-.157.994l-6.881 9.013.89-.24c4.59-1.238 8.496 1.692 8.738 6.527.242 4.835-3.335 9.82-7.924 11.057Z" fill="#fff"/><path d="m55.126 16.176-.775-8.815c8.988 0 13.603.846 20.137 2.106l.797 9.057c-5.938-1.056-10.436-2.033-20.159-2.348Zm48.98 16.614a5.476 5.476 0 0 0-.025-.224c-.878-6.696-15.902-12.347-21.063-12.864l-.78-8.874c4.431.444 20.44 5.734 21.001 12.112l.867 9.85Z" fill="#00D6B9"/></g><defs><clipPath id="ud9ubsxa68ma"><path fill="#fff" d="M0 0h120v120H0z"/></clipPath></defs></svg>