<svg width="120" height="120" viewBox="0 0 120 120" fill="none" xmlns="http://www.w3.org/2000/svg"><g clip-path="url(#udz1fkh35fka)"><rect x="4.227" y="72.375" width="24" height="26" rx="2" fill="#00D6B9"/><path d="M10.757 27.703a4.5 4.5 0 0 1 4.5-4.5h70.277a.5.5 0 1 1 0 1H15.257a3.5 3.5 0 0 0-3.5 3.5v54.28a3.5 3.5 0 0 0 3.5 3.5h61.257a.5.5 0 1 1 0 1H15.257a4.5 4.5 0 0 1-4.5-4.5v-54.28Z" fill="#0C296E"/><path d="M59.137 60.85a4.5 4.5 0 0 1-5.865 0L13.385 26.575a.5.5 0 1 1 .652-.758l39.886 34.275a3.5 3.5 0 0 0 4.563 0l13.193-11.337a.5.5 0 0 1 .652.758L59.137 60.85Z" fill="#0C296E"/><path d="M47.228 54.575a.5.5 0 0 0-.705-.054L13.384 82.998a.5.5 0 0 0 .652.759L47.175 55.28a.5.5 0 0 0 .053-.706Zm17.951 0a.5.5 0 0 1 .705-.054l9.33 8.018a.5.5 0 1 1-.651.758l-9.33-8.017a.5.5 0 0 1-.054-.706Z" fill="#0C296E"/><path d="M115.628 98.715c0 .322-.126.645-.376.958-2.276 2.85-11.527 3.494-16.976 3.494v7.442c5.528 0 14.695-.638 16.976-3.494.25-.314.376-.982.376-1.305v-7.095Z" fill="#3370FF"/><path d="M115.693 83.157c0-3.377-9.274-4.96-10.792-5.557l-1.435 3.635 1.435 3.828c1.385.544 10.792 1.793 10.792 4.73v-6.636Z" fill="#0C296E"/><path d="M115.714 83.217v7.906c0 11.544-30.393 5.959-35.606 4.628v-7.754c5.335 1.372 35.606 5.654 35.606-4.78Z" fill="#00D6B9"/><path d="m90.338 110.75.14-8.279c-13.987-.964-29.037-7.134-41.41-5.232l-.33 7.969c12.837-1.73 26.14 4.835 41.6 5.542Z" fill="#3370FF"/><path d="M84.815 40c9.942 0 18-8.059 18-18s-8.058-18-18-18c-9.94 0-18 8.059-18 18s8.06 18 18 18ZM83.18 14.636c0-.451.366-.818.818-.818h1.637c.451 0 .818.367.818.818v5.728h5.727c.452 0 .818.366.818.818v1.636a.818.818 0 0 1-.818.818h-5.727v5.728a.818.818 0 0 1-.818.818h-1.637a.818.818 0 0 1-.818-.818v-5.728h-5.727a.818.818 0 0 1-.818-.818v-1.636c0-.452.366-.818.818-.818h5.727v-5.728Z" fill="#FFC60A"/><path d="M83.179 14.636c0-.451.366-.818.818-.818h1.636a.82.82 0 0 1 .819.819v5.727h5.727c.452 0 .818.366.818.818v1.636a.818.818 0 0 1-.818.819H86.45v5.727a.818.818 0 0 1-.818.818h-1.636a.818.818 0 0 1-.818-.818v-5.727H77.45a.818.818 0 0 1-.818-.819v-1.636c0-.452.367-.818.819-.818h5.727v-5.728Z" fill="#fff"/><path d="M108.922 29.992c.003.054.002.075.002.075-.046.509-.346 1.628-.828 3.151a175.8 175.8 0 0 1-1.769 5.227 775.992 775.992 0 0 1-1.595 4.479c-.791 2.206-1.504 4.194-1.927 5.475a.52.52 0 0 0 .303.65.483.483 0 0 0 .623-.312c.42-1.271 1.124-3.235 1.911-5.428.518-1.446 1.073-2.993 1.605-4.507a181.93 181.93 0 0 0 1.78-5.259c.471-1.492.814-2.729.872-3.376a2.588 2.588 0 0 0-.022-.484 15.238 15.238 0 0 0-.1-.684 55.633 55.633 0 0 0-.382-2.012c-.326-1.58-.776-3.57-1.254-5.525-.478-1.953-.984-3.877-1.42-5.319a22.497 22.497 0 0 0-.598-1.769 4.126 4.126 0 0 0-.265-.557 1.205 1.205 0 0 0-.166-.223.615.615 0 0 0-.398-.194c-.69-.04-1.236.284-1.636.806-.386.503-.646 1.197-.827 1.969-.362 1.548-.446 3.6-.405 5.616.041 2.025.209 4.053.366 5.572.078.76.155 1.394.211 1.84.028.221.052.396.068.516l.007.05c-2.615 6.915-6.144 13.46-9.673 20.007l-.504.934c-.83 1.543-1.906 2.798-2.937 3.52-1.057.739-1.902.82-2.444.426-.985-.765-1.864-2.172-2.73-3.953-.542-1.11-1.057-2.318-1.584-3.555-.319-.748-.642-1.507-.98-2.262-.881-1.977-1.844-3.904-3.004-5.353-1.163-1.454-2.572-2.485-4.342-2.542a.477.477 0 0 0-.376.165.521.521 0 0 0-.122.406 3150.11 3150.11 0 0 1 1.445 11.972c1.043 8.732 1.647 13.797 2.413 17.8 1.053 5.499 2.415 9.02 5.592 17.232l.149.386a262.687 262.687 0 0 1 4.643 18.182c.11.51.194.907.25 1.176l.063.306.016.077.005.026.48-.101.478-.101v-.002l-.001-.005-.004-.021-.016-.079a112.445 112.445 0 0 0-.316-1.493 263.67 263.67 0 0 0-4.683-18.32l-.132-.343c-3.2-8.272-4.529-11.709-5.563-17.113-.76-3.964-1.357-8.974-2.396-17.678-.386-3.24-.834-6.99-1.374-11.389 1.135.217 2.126.965 3.04 2.109 1.071 1.338 1.99 3.159 2.868 5.127.32.72.638 1.463.954 2.206.537 1.259 1.073 2.514 1.623 3.644.874 1.794 1.84 3.398 3.029 4.317l.01.007c1.06.781 2.402.403 3.559-.406 1.185-.83 2.355-2.217 3.242-3.864l.514-.953c3.542-6.57 7.123-13.211 9.767-20.24a.517.517 0 0 0 .028-.261l-.484.072.484-.072v-.003l-.001-.008-.005-.034a74.047 74.047 0 0 1-.293-2.455 68.055 68.055 0 0 1-.361-5.484c-.04-1.995.046-3.938.378-5.353.166-.71.384-1.24.642-1.577.195-.255.403-.389.643-.421.041.08.092.191.152.34.159.393.352.968.567 1.679.428 1.415.929 3.319 1.405 5.264a161.52 161.52 0 0 1 1.245 5.486c.161.783.29 1.458.375 1.971.043.258.074.47.092.632.009.08.015.146.018.195Zm-19.485 74.626.48-.101a.506.506 0 0 1-.38.601.494.494 0 0 1-.58-.399l.48-.101Z" fill="#0C296E"/><path d="m105.817 40.972.003.004.01.014.041.055.159.22a47.631 47.631 0 0 1 2.336 3.617c1.314 2.26 2.614 4.986 2.787 7.09a.5.5 0 0 0 .529.468.5.5 0 0 0 .447-.548c-.194-2.366-1.613-5.275-2.926-7.534a48.894 48.894 0 0 0-2.389-3.7l-.165-.227-.044-.06-.011-.016-.004-.005-.387.31.387-.31a.479.479 0 0 0-.688-.093.524.524 0 0 0-.085.715Z" fill="#0C296E"/><path d="M109.605 45.332a.483.483 0 0 0-.615.328l-.203.663a171.55 171.55 0 0 1-2.252 6.989.52.52 0 0 0 .298.653.481.481 0 0 0 .625-.305 171.688 171.688 0 0 0 2.263-7.024l.202-.661a.517.517 0 0 0-.318-.643Zm1.995 6.224a.489.489 0 0 0-.437.359l-1.192 4.124-.295 1.024.358.115-.358-.115c-.077.27.07.556.329.638a.484.484 0 0 0 .61-.338l.295-1.024c.166-.578.416-1.445.783-2.713.742 2.299 1.066 5.096.102 7.304-2.026 4.64-3.42 7.846-4.543 10.43-1.609 3.699-2.662 6.12-4.221 9.65a.533.533 0 0 0-.022.365l5.998 19.985a.49.49 0 0 0 .613.339.511.511 0 0 0 .321-.637L104 81.264c1.517-3.436 2.563-5.842 4.146-9.482a6486.12 6486.12 0 0 1 4.541-10.424c1.339-3.067.491-6.939-.609-9.499a.49.49 0 0 0-.478-.303Z" fill="#0C296E"/></g><defs><clipPath id="udz1fkh35fka"><path fill="#fff" d="M0 0h120v120H0z"/></clipPath></defs></svg>