<svg width="120" height="120" viewBox="0 0 120 120" fill="none" xmlns="http://www.w3.org/2000/svg"><g clip-path="url(#udv74a9bt43a)"><path d="M6.482 91.135v-8.297c0-4.767 6.62-9.026 10.496-10.556l.962 4.59v3.815c-4.259 1.648-11.458 5.759-11.458 10.448Z" fill="#fff" fill-opacity=".4"/><path d="M108.193 85.847c-4.897 1.59-10.607 2.229-16.793 2.229-13.461 0-34.696-3.822-50.597-6.583l-.656-5.686v-2.574c15.797 2.712 37.26 6.546 51.253 6.546 6.186 0 11.896-.64 16.793-2.229v8.297Z" fill="#4C88FF"/><path d="M21.983 101.722h-.336c-5.185 0-9.598-.341-12.722-1.41-.291-.097-.56-.214-.83-.321v8.576c.27.117.539.224.83.321 3.124 1.069 7.537 1.41 12.722 1.41h.336v-8.576Zm9.09-87.999a4 4 0 0 1 4-4h74.543a4 4 0 0 1 4 4v52.819a4 4 0 0 1-4 4H35.073a4 4 0 0 1-4-4v-52.82Z" fill="#FAC823"/><path d="m29.94 11.839-.001-.002-.002-.005-.006-.019a14.286 14.286 0 0 0-.446-1.173c-.3-.695-.758-1.61-1.383-2.461-.622-.848-1.434-1.668-2.457-2.127-1.046-.47-2.279-.547-3.663.048-.972.417-1.767.918-2.396 1.566-.631.649-1.074 1.421-1.374 2.35a9.29 9.29 0 0 0-.294 1.18 3.039 3.039 0 0 0-.37-.46c-.555-.557-1.275-.766-2-.495-.676.252-1.226.876-1.611 1.694-.392.83-.647 1.926-.695 3.245-.283 7.754-.33 14.613.093 22.906L8.903 25.685a.497.497 0 0 0-.013-.033c-.473-1.069-.969-1.841-1.567-2.222a1.626 1.626 0 0 0-1.05-.26c-.369.036-.713.193-1.03.41a.59.59 0 0 0-.036.027c-.759.617-.923 1.58-.914 2.404.01.842.202 1.706.332 2.288.605 3.171 3.82 13.771 7.077 24.303.936 3.024 1.54 6.122 2.424 8.965 1.396 4.486 2.711 10.492 3.332 15.124.351 2.624.525 5.004.748 5.814l2.047 25.129a.493.493 0 0 0 .518.492.54.54 0 0 0 .533-.517l-2.064-25.33c.012.044.001-.044 0 0-.211-.773-.376-3.061-.715-5.588-.627-4.668-1.966-10.864-3.4-15.476-.883-2.837-1.484-5.925-2.415-8.934C9.44 41.704 6.246 31.17 5.657 28.074l-.003-.015c-.133-.595-.302-1.367-.31-2.097-.008-.74.152-1.281.508-1.583.21-.14.369-.195.488-.206a.575.575 0 0 1 .38.104c.33.21.73.74 1.194 1.783l5.41 15.14a.479.479 0 0 0 .203.249c.05.78.103 1.574.16 2.384.02.277.27.477.56.448a.534.534 0 0 0 .488-.555c-.78-11.004-.788-19.106-.443-28.549.044-1.222.28-2.179.6-2.857.325-.69.706-1.03 1.004-1.142.25-.093.547-.065.877.268.339.342.676.983.888 2.009a4.7 4.7 0 0 0-.053.62c-.01.31-.01.7 0 1.154.018.91.073 2.097.154 3.461.161 2.73.425 6.185.704 9.577A1123.492 1123.492 0 0 0 19.621 41.3l.028.294.523-.064-.523.065c.027.274.28.469.568.435a.534.534 0 0 0 .48-.558l-.001-.007L18.77 17.67c-.153-3.453-.085-5.76.443-7.39.26-.803.627-1.429 1.128-1.943.377-.388.844-.727 1.424-1.03.963 6.006 1.943 10.852 2.925 15.572l.36 1.727c.897 4.298 1.794 8.594 2.682 13.688a.502.502 0 0 0 .604.392.528.528 0 0 0 .432-.595c-.89-5.11-1.79-9.422-2.688-13.72l-.36-1.726c-.994-4.779-1.983-9.676-2.956-15.775.928-.304 1.719-.212 2.405.096.802.36 1.494 1.033 2.065 1.812.568.775.994 1.62 1.278 2.277a13.374 13.374 0 0 1 .403 1.056l.008.026.005.014v.003l.001.001c3.096 10.115 5.206 18.585 7.6 28.196.528 2.117 1.069 4.289 1.637 6.545a.494.494 0 0 0 .452.367.552.552 0 0 0 .53-.296l2.251-4.436c.898-1.77 1.842-3.633 2.697-5.313a876.04 876.04 0 0 1 2.156-4.216c.583-1.13.961-1.845 1.048-1.98.058-.09.261-.313.544-.512.29-.204.554-.302.734-.295a.339.339 0 0 1 .21.079c.073.059.17.176.257.403.181.466.29 1.298.185 2.697-.102 1.376-.778 4.602-1.754 8.72-.97 4.097-2.226 9.031-3.468 13.79-1.13 4.756-1.967 9.37-2.886 12.762-.46 1.695-.841 3.094-1.108 4.068-.134.487-.227 1.237-.298 1.496l-.017.063a.491.491 0 0 0-.018.13l2.107 15.149c0 .278.234.495.525.485a.538.538 0 0 0 .526-.522l-2.108-15.083c.072-.26.165-1.01.298-1.497.267-.975.65-2.374 1.109-4.07.92-3.394 1.87-7.96 2.888-12.772 1.244-4.761 2.501-9.703 3.474-13.812.97-4.09 1.669-7.403 1.778-8.873.107-1.447.011-2.45-.246-3.114-.131-.337-.312-.61-.552-.803a1.376 1.376 0 0 0-.816-.303c-.545-.022-1.06.245-1.418.496-.365.256-.682.576-.834.812-.122.19-.533.971-1.098 2.067a869.816 869.816 0 0 0-2.159 4.221c-.869 1.709-1.804 3.554-2.695 5.31l-1.609 3.171c-.446-1.776-.876-3.504-1.297-5.196-2.395-9.613-4.512-18.111-7.616-28.251Z" fill="#E0E0E0"/><path d="M31.073 15.615v3.811c2.018 7.12 3.658 13.7 5.457 20.925l.002.006c.527 2.114 1.067 4.285 1.635 6.54.051.204.232.35.452.367a.553.553 0 0 0 .53-.296l2.251-4.436.006-.011c.896-1.768 1.838-3.626 2.691-5.303a880.783 880.783 0 0 1 2.156-4.215c.583-1.131.961-1.846 1.048-1.98.058-.09.261-.314.544-.512.29-.204.554-.303.734-.295a.339.339 0 0 1 .21.078c.073.06.17.176.257.404.181.466.29 1.298.185 2.697-.102 1.375-.778 4.601-1.754 8.719-.97 4.098-2.226 9.032-3.468 13.79a266.25 266.25 0 0 0-1.332 6.005c-.538 2.515-1.033 4.833-1.554 6.757l-.51 1.875h1.076l.45-1.656c.854-3.15 1.734-7.313 2.67-11.743l.218-1.028c1.244-4.762 2.501-9.704 3.474-13.813.97-4.09 1.669-7.402 1.778-8.873.107-1.446.011-2.449-.246-3.113-.131-.338-.312-.61-.552-.803a1.375 1.375 0 0 0-.816-.303c-.545-.023-1.06.244-1.418.496-.365.256-.682.576-.834.812-.122.19-.533.97-1.098 2.067a865.787 865.787 0 0 0-2.159 4.22l-2.695 5.31-.002.004-1.607 3.168c-.446-1.777-.876-3.504-1.297-5.197-2.092-8.396-3.971-15.942-6.482-24.474Z" fill="#5F5F5F"/><path d="M88.103 38.533c2.665 1.54 2.665 5.389-.002 6.928l-20.31 11.727c-2.667 1.539-6-.385-6-3.463l-.008-23.467c-.001-3.08 3.334-5.005 6-3.464l20.32 11.74Z" fill="#fff"/><path d="M100.87 19.092a3.5 3.5 0 1 1 7 0 3.5 3.5 0 0 1-7 0Zm3.5-2.5a2.5 2.5 0 1 0 0 5 2.5 2.5 0 0 0 0-5Zm-13.5 2.5a3.5 3.5 0 1 1 7 0 3.5 3.5 0 0 1-7 0Zm3.5-2.5a2.5 2.5 0 1 0 0 5 2.5 2.5 0 0 0 0-5Z" fill="#5F5F5F"/><path d="M57.585 88.96c-2.329-.16-4.723-.235-7.16-.235-9.806 0-20.12 1.054-28.3 1.054-4.593 0-8.505-.33-11.267-1.355C8.084 87.38 6.47 85.64 6.47 82.837v8.296c0 2.803 1.614 4.553 4.388 5.578 2.773 1.035 6.674 1.355 11.267 1.355 8.18 0 18.494-1.054 28.3-1.054 2.437 0 4.831.066 7.16.235V88.96Z" fill="#41CCB9"/><path d="M31.195 102.091v6.576c4.553-.215 9.226-.409 13.816-.409 6.176 0 12.235.336 17.602 1.401v-6.535c-5.28-1.089-11.324-1.442-17.602-1.442-4.573 0-9.239.186-13.816.409Zm32.418.225v8.576a47.56 47.56 0 0 0-1-.213c-5.32-1.077-11.376-1.421-17.602-1.421-4.58 0-9.25.195-13.816.41l-1 .047v-8.576c4.883-.243 9.9-.457 14.816-.457 6.62 0 13.036.389 18.602 1.634Z" fill="#E0E0E0"/></g><defs><clipPath id="udv74a9bt43a"><path fill="#fff" d="M0 0h120v120H0z"/></clipPath></defs></svg>