<svg width="350" height="350" viewBox="0 0 350 350" fill="none" xmlns="http://www.w3.org/2000/svg"><g filter="url(#udjae9e5oqua)"><path d="M288.705 309.706c9.572 0 17.331-7.76 17.331-17.332 0-9.572-7.759-17.331-17.331-17.331s-17.332 7.759-17.332 17.331 7.76 17.332 17.332 17.332Z" fill="#FFC60A"/></g><path d="M115.571 56.19a8 8 0 0 1 8-8h178.842a8 8 0 0 1 8 8v88.654H250.69a4 4 0 0 0-4 4v23.318H123.571a8 8 0 0 1-8-8V56.189Z" fill="#14C0FF"/><path d="M119.7 51.434a.5.5 0 0 1 .703-.072l87.855 71.481a7.5 7.5 0 0 0 9.467 0l87.855-71.48a.5.5 0 1 1 .631.775l-87.855 71.481a8.5 8.5 0 0 1-10.729 0l-87.855-71.481a.5.5 0 0 1-.072-.703Z" fill="#0C296E"/><path d="M181.247 100.748a.5.5 0 0 1 .031.707l-61.712 67.389a.5.5 0 0 1-.738-.676l61.713-67.388a.5.5 0 0 1 .706-.032Zm64.539 0a.5.5 0 0 1 .707.032l61.712 67.388a.5.5 0 1 1-.737.676l-61.713-67.389a.5.5 0 0 1 .031-.707Z" fill="#0C296E"/><g opacity=".8" filter="url(#udamwj4am8db)"><path d="M246.628 148.969a4 4 0 0 1 4-4h59.785v19.194a8 8 0 0 1-8 8h-55.785v-23.194Z" fill="#14C0FF"/></g><path d="M99.514 195.693a4 4 0 0 1 4-4h57.046a4 4 0 0 1 4 4v32.894a4 4 0 0 1-4 4h-57.046a4 4 0 0 1-4-4v-32.894Z" fill="#fff"/><path d="M99.014 195.693a4.5 4.5 0 0 1 4.5-4.5h57.046a4.5 4.5 0 0 1 4.5 4.5v32.894a4.5 4.5 0 0 1-4.5 4.5h-57.046a4.5 4.5 0 0 1-4.5-4.5v-32.894Zm4.5-3.5a3.5 3.5 0 0 0-3.5 3.5v32.894a3.5 3.5 0 0 0 3.5 3.5h57.046a3.5 3.5 0 0 0 3.5-3.5v-32.894a3.5 3.5 0 0 0-3.5-3.5h-57.046Z" fill="#0C296E"/><path d="m100.569 193.119 28.98 23.023a3.998 3.998 0 0 0 4.976 0l28.979-23.023" fill="#fff"/><path d="M100.178 192.808a.5.5 0 0 1 .702-.08l28.98 23.023a3.499 3.499 0 0 0 4.354 0l28.979-23.023a.5.5 0 1 1 .622.783l-28.979 23.023a4.5 4.5 0 0 1-5.598 0l-28.98-23.023a.5.5 0 0 1-.08-.703Z" fill="#0C296E"/><path d="M121.912 210.075a.5.5 0 0 1 .026.707l-21.784 23.432a.5.5 0 0 1-.733-.681l21.785-23.432a.5.5 0 0 1 .706-.026Zm20.523 0a.5.5 0 0 0-.026.707l19.907 21.412a.5.5 0 1 0 .732-.681l-19.907-21.412a.5.5 0 0 0-.706-.026Z" fill="#0C296E"/><path d="M155.39 267.074a4 4 0 0 1 4-4h42.736a4 4 0 0 1 4 4v23.898a4 4 0 0 1-4 4H159.39a4 4 0 0 1-4-4v-23.898Z" fill="#BBBFC4" fill-opacity=".45"/><path d="M158.049 265.246a.498.498 0 0 1 .702-.081l19.83 15.754a3.499 3.499 0 0 0 4.354 0l19.83-15.754a.5.5 0 0 1 .622.783l-19.83 15.754a4.5 4.5 0 0 1-5.598 0l-19.83-15.754a.5.5 0 0 1-.08-.702Z" fill="#fff"/><path d="M173.677 277.476a.5.5 0 0 1 .026.706l-14.119 15.187a.5.5 0 0 1-.732-.681l14.118-15.187a.5.5 0 0 1 .707-.025Zm14.357 0a.5.5 0 0 0-.026.706l14.119 15.187a.5.5 0 0 0 .732-.681l-14.118-15.187a.5.5 0 0 0-.707-.025Z" fill="#fff"/><path d="M15.81 329.371a.5.5 0 0 1 .5-.5h306.202a.5.5 0 0 1 0 1H16.31a.5.5 0 0 1-.5-.5Zm217.692-72.707a2 2 0 1 0 .001-3.999 2 2 0 0 0-.001 3.999Zm3-2a3 3 0 1 1-6 0 3 3 0 0 1 6 0Zm7 2a2 2 0 1 0 .001-3.999 2 2 0 0 0-.001 3.999Zm3-2a3 3 0 1 1-6 0 3 3 0 0 1 6 0Zm7 3a3 3 0 1 0 0-6 3 3 0 0 0 0 6Z" fill="#0C296E"/><path d="M288.7 252.282a.5.5 0 0 1-.494-.5c0-3.187.656-5.826 2.017-7.682a6.881 6.881 0 0 1 2.085-1.897h-57.28c-6.54 0-11.841 5.302-11.841 11.841v62.301a.5.5 0 0 1-1 0v-62.301c0-7.092 5.749-12.841 12.841-12.841h11.1v-92.236a4.5 4.5 0 0 1 4.5-4.5h64.508a4.5 4.5 0 0 1 4.5 4.5v106.749a8.086 8.086 0 0 1-8.086 8.086h-22.845a.5.5 0 0 1-.005-1v-10.52Zm-41.572-11.079h48.864a7.79 7.79 0 0 1 8.287 7.774v6.538a7.795 7.795 0 0 0 5.032 7.287h2.239a7.086 7.086 0 0 0 7.086-7.086V148.967a3.5 3.5 0 0 0-3.5-3.5h-64.508a3.5 3.5 0 0 0-3.5 3.5v92.236Z" fill="#0C296E"/><path d="M289.2 251.781a.5.5 0 1 0-1 0v63.241c0 .026.002.051.006.076v6.637a7.11 7.11 0 0 1-7.109 7.109 7.11 7.11 0 0 1-7.108-7.109v-.709a4.5 4.5 0 0 0-4.5-4.5h-59.021a3.938 3.938 0 0 0-3.938 3.938c0 5.183 4.2 9.383 9.383 9.383h10.812a.5.5 0 1 0 0-1h-10.812a8.383 8.383 0 0 1-8.383-8.383 2.938 2.938 0 0 1 2.938-2.938h59.021a3.5 3.5 0 0 1 3.5 3.5v.709a8.11 8.11 0 0 0 8.108 8.109 8.11 8.11 0 0 0 8.109-8.109v-38.768a.456.456 0 0 0-.006-.075v-31.111Zm-32.408-66.767a.5.5 0 0 0 .5.5h39.376a.5.5 0 0 0 0-1h-39.376a.5.5 0 0 0-.5.5Zm0 11.91a.5.5 0 0 1 .5-.5h32.511a.5.5 0 0 1 0 1h-32.511a.5.5 0 0 1-.5-.5Z" fill="#0C296E"/><path d="M229.655 268.008a.5.5 0 0 1 .5-.5h39.375a.5.5 0 0 1 0 1h-39.375a.5.5 0 0 1-.5-.5Zm0 10.262c0-.277.223-.5.5-.5h32.51a.5.5 0 1 1 0 1h-32.51a.5.5 0 0 1-.5-.5Z" fill="#0C296E"/><path d="m26.01 139.652.045-.023 18.79 25.947 2.176 2.606-3.297 20.46c-1.294-1.786-1.92-3.994-2.073-6.194-.155-2.199.139-4.407.553-6.577.218-1.154.474-2.32.395-3.493-.079-1.173-.55-2.38-1.51-3.061l-.733-.677s-23.013-20.697-25.282-23.709c-5.114-6.712-.354-12.217 1.072-13.676 2.868-2.937 10.974-8.07 17.462-13.222l9.672 12.755c-5.743 2.949-11.527 5.919-17.27 8.864Z" fill="#fff"/><path d="M33.67 117.537a.502.502 0 0 1 .337.194l9.672 12.755a.5.5 0 0 1-.17.747l-3.54 1.817c-4.387 2.253-8.788 4.512-13.167 6.758l18.438 25.46 2.165 2.593a.5.5 0 0 1 .11.4l-3.297 20.46a.5.5 0 0 1-.899.214c-1.364-1.882-2.008-4.186-2.167-6.452-.159-2.264.144-4.521.56-6.705l.063-.325c.202-1.057.392-2.048.325-3.041-.073-1.084-.505-2.123-1.3-2.687a.518.518 0 0 1-.05-.04l-.729-.673v-.001l-.004-.003-.012-.011-.243-.218-.734-.663a1587.185 1587.185 0 0 1-10.8-9.833 667.302 667.302 0 0 1-8.592-8.015c-2.46-2.349-4.362-4.24-4.96-5.035-2.66-3.49-2.77-6.712-1.997-9.256.764-2.512 2.377-4.322 3.11-5.072 1.471-1.507 4.257-3.553 7.44-5.837.44-.317.891-.639 1.347-.965 2.85-2.04 5.935-4.249 8.721-6.461a.498.498 0 0 1 .374-.105Zm-7.897 22.555a.5.5 0 0 1 .009-.885c4.565-2.341 9.156-4.698 13.732-7.047l3.008-1.544-9.004-11.874c-2.7 2.122-5.65 4.234-8.363 6.176l-1.344.963c-3.21 2.304-5.91 4.293-7.307 5.723-.693.709-2.174 2.381-2.868 4.664-.685 2.252-.62 5.138 1.836 8.36l.001.002c.537.712 2.362 2.537 4.854 4.915a667.69 667.69 0 0 0 8.577 8.002 1592.637 1592.637 0 0 0 10.794 9.827l.734.662.258.232-.334.372.334-.372.005.005.711.656c1.106.8 1.607 2.163 1.692 3.415.076 1.13-.14 2.25-.34 3.287-.02.112-.042.223-.063.333-.411 2.155-.696 4.314-.546 6.449.119 1.691.523 3.366 1.294 4.829l3.048-18.915-2.03-2.431a.832.832 0 0 1-.02-.027l-18.668-25.777Z" fill="#0C296E"/><path d="M53.008 303.678c-.832 22.374-3.602 18.328-2.82 25.585l23.123-.003c1.705.007 3.022.003 3.022.003s-.132-2.918-4.426-4.354c-4.294-1.44-10.281-5.257-10.868-6.904l1.174-14.049" fill="#fff"/><path d="M53.026 303.178a.5.5 0 0 1 .481.518c-.416 11.209-1.32 15.83-2.03 18.569-.12.463-.232.862-.333 1.224-.203.725-.363 1.301-.468 1.942-.14.852-.177 1.81-.035 3.332l8.827-.002 13.843-.001h.002c.852.003 1.606.004 2.148.004h.257a3.92 3.92 0 0 0-.412-.874c-.504-.805-1.514-1.823-3.557-2.507-2.197-.737-4.804-2.072-6.935-3.427-1.066-.678-2.025-1.369-2.76-2.001a9.05 9.05 0 0 1-.935-.913c-.244-.283-.448-.578-.551-.869a.503.503 0 0 1-.028-.21l.499.042-.499-.042.425-5.077.75-8.972a.5.5 0 1 1 .996.084c-.216 2.596-.51 6.108-.75 8.971l-.414 4.955c.058.116.163.271.33.465.207.24.486.512.83.808.687.591 1.604 1.254 2.644 1.915 2.084 1.326 4.617 2.619 6.715 3.323 2.25.752 3.453 1.911 4.088 2.924.315.502.484.959.574 1.296a3.587 3.587 0 0 1 .1.529l.003.037v.012l.001.004v.002c0 .001 0 .002-.5.024l.5-.022a.498.498 0 0 1-.498.522l-.233.001h-.64c-.543 0-1.298-.001-2.151-.004l-13.842.001-9.278.002-.001-.5v.5a.5.5 0 0 1-.497-.446c-.199-1.842-.175-2.998-.003-4.048.114-.696.297-1.352.509-2.112.099-.354.204-.73.31-1.143.687-2.646 1.585-7.189 2-18.355a.5.5 0 0 1 .518-.481Z" fill="#0C296E"/><path d="M101.668 304.453c3.23 10.094 3.242 13.445 2.242 17.945s.359 6.862.359 6.862 25.112.113 31.57.113c.269-2.741-3.652-3.643-5.536-4.407-3.966-1.609-14.187-4.073-15.629-7.649-1.437-3.564-2.764-12.863-2.764-12.863" fill="#fff"/><path d="M135.58 329.519c-6.38 0-31.32-.11-31.57-.11a.502.502 0 0 1-.48-.37 11.729 11.729 0 0 1-.09-5.45c.5-3.3 1.19-7.81-2.5-19.34a.5.5 0 0 1 .32-.63.507.507 0 0 1 .63.33c3.76 11.75 3.06 16.4 2.54 19.79a11.008 11.008 0 0 0 0 4.67c3.1 0 24.09.1 30.68.11-.21-1.64-2.51-2.46-4.23-3.08-.36-.13-.7-.25-1-.37-.91-.36-2.15-.78-3.58-1.25-5-1.66-11.13-3.71-12.33-6.67-1.44-3.58-3-14.71-3.07-15.18a.492.492 0 0 1 .092-.372.504.504 0 0 1 .328-.198.511.511 0 0 1 .57.43c0 .11 1.61 11.48 3 14.95 1 2.52 7.46 4.67 11.71 6.09 1.45.48 2.7.9 3.64 1.28l1 .35c2.05.74 5.16 1.85 4.89 4.57a.499.499 0 0 1-.354.432c-.064.018-.13.025-.196.018Z" fill="#0C296E"/><path d="M112.868 309.429a.377.377 0 0 1-.373.418h-9.434a.372.372 0 0 1-.369-.301l-.418-2.087a.375.375 0 0 1 .079-.312.367.367 0 0 1 .29-.139h9.615c.192 0 .35.143.373.334l.237 2.087Zm-.094 2.012c.188 0 .346.136.372.324l.29 2.091a.372.372 0 0 1-.373.424h-8.874a.378.378 0 0 1-.365-.289l-.496-2.087a.375.375 0 0 1 .365-.463h9.081ZM45.81 168.646c2.26-5.853 5.17-11.352 8.41-16.642a.5.5 0 0 1 .426-.238h27.152a.5.5 0 0 1 .479.354l.237.782.673 2.22a11350.25 11350.25 0 0 1 10.004 33.18c5.65 18.85 11.695 39.253 13.256 45.395l.008.035c.775 4.304 2.75 22.071 4.527 38.727a6998.436 6998.436 0 0 1 3.294 31.57l.072.7v.002a.501.501 0 0 1-.511.551l-12.276-.334a.501.501 0 0 1-.448-.308c-8.415-20.157-10.254-33.712-11.124-44.851-.132-1.683-.241-3.308-.348-4.89-.598-8.889-1.105-16.413-4.922-25.234-1.307-3.022-2.68-5.999-4.289-8.83-.784-1.38-2.375-3.504-4.387-6.19l-.376-.502a289.601 289.601 0 0 1-4.177-5.689l-4.89 96.354a.5.5 0 0 1-.499.474h-13.34a.5.5 0 0 1-.5-.474l-.02-.404-.062-1.17c-.055-1.02-.135-2.508-.239-4.374-.208-3.733-.511-8.984-.893-15.052-.764-12.139-1.841-27.547-3.093-40.637a1863.556 1863.556 0 0 0-1.519-15.011c-1.054-10.144-2.069-19.912-2.623-28.688-.412-6.528-.57-12.523-.299-17.734.272-5.206.972-9.661 2.297-13.092Zm-22.334-32.25a.5.5 0 0 1 .7.081l2.27 2.839a.5.5 0 0 1-.167.759l-.046.023a.5.5 0 0 1-.618-.14l-2.224-2.862a.5.5 0 0 1 .085-.7Z" fill="#0C296E"/><path d="M65.036 111.18c6.119 1.61 12.234-.549 16.329-5.125-.124-.034-.241-.094-.369-.109-5.649-.643-6.721-4.832-7.511-8.641H63.18c-.353 5.516-1.28 8.558-5.573 9.254 2.074 2.185 4.467 3.963 7.429 4.621Z" fill="#fff"/><path d="M62.681 97.273a.5.5 0 0 1 .5-.468h10.303a.5.5 0 0 1 .49.398c.397 1.913.848 3.82 1.86 5.332.988 1.476 2.534 2.609 5.219 2.914h.002a1.413 1.413 0 0 1 .36.097c.035.012.055.02.081.027a.498.498 0 0 1 .242.815c-4.207 4.701-10.506 6.935-16.82 5.278-3.093-.689-5.567-2.543-7.674-4.763a.5.5 0 0 1 .283-.838c2.014-.326 3.173-1.179 3.902-2.559.758-1.433 1.075-3.474 1.252-6.233Zm.967.532c-.184 2.543-.517 4.621-1.335 6.168-.769 1.456-1.949 2.41-3.71 2.885 1.882 1.84 4.003 3.27 6.541 3.834l.019.005c5.627 1.48 11.26-.328 15.222-4.33-2.639-.428-4.298-1.656-5.382-3.276-1.056-1.578-1.545-3.5-1.924-5.286h-9.431Z" fill="#0C296E"/><path d="M136.233 112.446a.502.502 0 0 0-.73-.012l-21.901 22.67c-1.898-2.412-4.292-5.695-6.698-8.994a845.685 845.685 0 0 0-3.524-4.808.5.5 0 0 0-.856.506L88.5 128.257l-.13-.13a.5.5 0 1 0-.709.705l.355-.353c-.355.353-.354.354-.354.354l.187.187.537.537a719.993 719.993 0 0 0 8.345 8.185c4.918 4.741 10.65 10.102 13.819 12.49 1.209.909 2.391 1.375 3.567 1.408 1.177.032 2.288-.371 3.352-1.088 2.1-1.415 4.117-4.127 6.274-7.493 1.035-1.615 2.109-3.393 3.248-5.277 3.652-6.041 7.971-13.186 13.796-19.626a.5.5 0 0 0 0-.671l-4.554-5.039Z" fill="#fff"/><path d="M81.503 105.578a.5.5 0 0 0-.51.147c-3.982 4.45-9.909 6.533-15.83 4.975l-.019-.004c-2.826-.628-5.136-2.334-7.179-4.478a.498.498 0 0 0-.536-.124c-.213.079-.423.151-.633.224l-.253.088c-.435.15-1.12.296-1.999.46-.313.059-.65.12-1.005.184-.618.112-1.288.233-1.975.368-2.161.425-4.6 1.005-6.505 1.953-3.557 1.77-7.09 4.56-11.762 8.273a.5.5 0 0 0-.087.693l9.671 12.756a.5.5 0 0 0 .627.142 2567.2 2567.2 0 0 1 2.557-1.312l2.004-1.028 6.104 23.119a.5.5 0 0 0 .476.372l27.138.38a.5.5 0 0 0 .49-.373l6.15-23.356a.498.498 0 0 0-.033-.346l14.13-6.868.055.075a.501.501 0 0 0 .804-.595c-1.348-1.821-2.613-3.501-3.7-4.862l-.005-.007c-1.843-2.306-3.756-4.7-6.175-6.535a18.444 18.444 0 0 0-6.662-3.197c-.81-.203-1.632-.352-2.435-.497l-.283-.052c-.898-.163-1.772-.331-2.62-.575Z" fill="#3370FF"/><path d="M59.607 178.399a.5.5 0 0 1 .444.55c-.625 5.872.89 11.119 3.475 16.263 2.044 4.069 4.74 8.041 7.565 12.202.759 1.118 1.527 2.25 2.294 3.401a.5.5 0 1 1-.832.554 498.76 498.76 0 0 0-2.27-3.363c-2.829-4.168-5.574-8.212-7.65-12.344-2.64-5.252-4.228-10.695-3.576-16.818a.5.5 0 0 1 .55-.445Z" fill="#fff"/><path d="M102.681 121.196a.498.498 0 0 1 .699.105c1.732 2.342 3.925 5.335 6.063 8.254 2.541 3.468 5.006 6.832 6.528 8.876a.5.5 0 1 1-.802.598 1826.213 1826.213 0 0 1-6.538-8.89c-2.139-2.919-4.33-5.91-6.055-8.244a.5.5 0 0 1 .105-.699Zm-55.873.883a.5.5 0 0 1 .61.358l1.185 4.565 1.186 4.565a.5.5 0 0 1-.968.252l-1.185-4.565v-.001l-1.186-4.565a.5.5 0 0 1 .358-.609Z" fill="#0C296E"/><path d="M80.41 78.397c.347 1.515 1.38 5.98 1.38 5.98l2.521 3.008-1.174 1.026s.286 2.76.128 4.283c-.188 1.839-.967 2.866-2.442 3.347-.587.192-15.791-1.045-16.702-1.076" fill="#fff"/><path d="M80.22 96.59c-1.26 0-4.74-.24-12.7-.83-1.88-.14-3.36-.26-3.61-.26a.5.5 0 0 1 0-1c.27 0 1.69.11 3.65.26 4 .3 12.26.92 12.93.83 1.26-.42 1.88-1.29 2.05-2.91a26.861 26.861 0 0 0-.13-4.19.51.51 0 0 1 .17-.42l.81-.71-2.21-2.63a.41.41 0 0 1-.1-.21s-1-4.47-1.38-6a.512.512 0 1 1 1-.22c.31 1.37 1.19 5.15 1.35 5.86l2.45 2.91a.5.5 0 0 1-.06.7l-1 .86c.146 1.372.182 2.753.11 4.13a3.93 3.93 0 0 1-2.79 3.77 2.63 2.63 0 0 1-.54.06Z" fill="#0C296E"/><path d="M80.345 96.39c-1.232 0-4.634-.227-12.416-.819l-3.53-.256a.487.487 0 0 1-.489-.493.495.495 0 0 1 .49-.492l3.568.256c3.91.296 11.986.907 12.64.818.59-.2 1.1-.588 1.453-1.105s.53-1.136.503-1.763a26.463 26.463 0 0 0-.127-4.12.534.534 0 0 1 .166-.423l.792-.69-2.073-2.602a.406.406 0 0 1-.097-.207l-.978-4.485a.505.505 0 0 1 .576-.605.498.498 0 0 1 .402.389l.977 4.366 2.395 2.877a.495.495 0 0 1-.058.69l-.978.838c.142 1.352.178 2.713.108 4.07a3.894 3.894 0 0 1-.754 2.313 3.843 3.843 0 0 1-1.974 1.403 2.008 2.008 0 0 1-.596.04Z" fill="#0C296E"/><path d="M81.471 79.015c-.57-1.894-1.982-3.567-3.83-4.868-1.853-1.303-4.176-2.257-6.636-2.702-4.91-.888-10.472.243-13.903 4.849-2.542 3.352-3.402 7.652-3.604 11.745-.092 1.877-.06 3.758-.028 5.618l.009.504c.034 2.031.054 4.04-.096 6.037a.5.5 0 0 0 .498.538h25.463a.5.5 0 0 0 .495-.574l-2.592-17.495 4.05-3.112a.5.5 0 0 0 .174-.54Z" fill="#0C296E"/><path d="m140.504 117.846 1.622-.992c3.876-1.674 9.019-5.872 9.019-5.872.804-.269 8.367-2.604 8.07-3.221-.098-.203-.38-.214-.606-.196-1.441.132-2.888.861-4.31 1.116l-2.352.583c2.435-1.421 4.818-3.481 7.117-5.109 0 0 1.316-1.557.975-2.177-.341-.62-2.619.052-2.95.244-6.065 3.512-1.679.676 1.855-1.869.293-.244.555-.955.359-1.286-5.544 2.068-10.991 4.561-16.455 6.825-.171-2.13.062-4.255.087-6.392.004-.403-.546-.97-.761-.433-1.836 4.573-3.966 7.318-5.43 12.022l-1.099 1.598" fill="#fff"/><path d="M143.289 98.949c.081.152.148.346.146.554-.009.766-.043 1.513-.076 2.248-.052 1.149-.103 2.272-.055 3.408 1.614-.673 3.231-1.367 4.852-2.062 3.631-1.558 7.285-3.125 10.972-4.5a.5.5 0 0 1 .605.214c.112.189.14.396.138.567a1.834 1.834 0 0 1-.087.511c-.093.302-.272.64-.52.847l-.028.021-.761.544c.344-.06.718-.1 1.045-.074.285.023.738.11.957.508.19.345.114.733.029.996-.093.288-.248.58-.4.827a8.312 8.312 0 0 1-.597.841l-.045.055-.012.015-.004.005-.001.001s-.001.001-.383-.322l.382.323a.47.47 0 0 1-.093.085 84.85 84.85 0 0 0-2.431 1.814c-.352.268-.706.539-1.064.809-.411.31-.825.618-1.242.918.457-.109.922-.259 1.411-.417l.267-.086c.719-.23 1.488-.462 2.27-.533l.003-.001c.13-.01.319-.017.506.026a.85.85 0 0 1 .592.451c.143.297-.007.554-.087.657a1.333 1.333 0 0 1-.309.277 6.085 6.085 0 0 1-.869.464c-.701.319-1.66.683-2.64 1.031-1.522.541-3.14 1.06-3.964 1.324l-.408.131a78.316 78.316 0 0 1-.801.632 70.133 70.133 0 0 1-2.208 1.638c-1.766 1.256-4.041 2.74-6.023 3.601l-1.591.973a.5.5 0 1 1-.522-.853l1.622-.992a.52.52 0 0 1 .062-.032c1.888-.815 4.107-2.257 5.872-3.512a69.687 69.687 0 0 0 2.176-1.614c.269-.208.483-.378.63-.494l.167-.134.043-.035.013-.011a.51.51 0 0 1 .158-.087l.532-.172c.836-.268 2.406-.772 3.907-1.305a46.86 46.86 0 0 0 1.757-.658c-.191.056-.385.117-.583.18l-.261.085c-.622.201-1.28.414-1.934.533l-2.337.579a.5.5 0 0 1-.372-.917c1.19-.696 2.376-1.551 3.56-2.445.347-.262.695-.528 1.043-.794.813-.62 1.624-1.241 2.423-1.808a3.04 3.04 0 0 0 .834-1.36.727.727 0 0 0 .039-.176.77.77 0 0 0-.153-.024 3.403 3.403 0 0 0-.794.062 7.466 7.466 0 0 0-1.175.311 2.76 2.76 0 0 0-.099.04l-.034.016c-1.511.875-2.391 1.366-2.797 1.564a2.03 2.03 0 0 1-.277.117.555.555 0 0 1-.099.022.523.523 0 0 1-.468-.17.502.502 0 0 1-.122-.298c-.01-.157.056-.27.071-.296a.698.698 0 0 1 .117-.146c.03-.03.064-.06.097-.088.068-.057.155-.125.255-.2a88.37 88.37 0 0 1 2.007-1.426c.789-.552 1.679-1.175 2.509-1.772a.603.603 0 0 0 .104-.147c-3.412 1.298-6.782 2.743-10.155 4.19-1.844.79-3.688 1.582-5.542 2.349a.499.499 0 0 1-.689-.421c-.116-1.433-.05-2.891.013-4.315.028-.628.056-1.248.068-1.857-.729 1.742-1.497 3.229-2.238 4.664-.144.278-.287.555-.428.832-.942 1.838-1.824 3.67-2.544 5.981a.525.525 0 0 1-.065.135l-1.1 1.597a.5.5 0 1 1-.823-.567l1.056-1.535c.741-2.359 1.646-4.232 2.585-6.067l.434-.842c.812-1.572 1.633-3.161 2.403-5.078.09-.226.27-.46.577-.52.28-.055.514.068.652.173.147.112.266.263.349.417Zm11.175 5.211c-.006.005-.005.005 0 0Z" fill="#fff"/><path d="M87.54 128.143a.5.5 0 0 1 .706-.012c1.178 1.137 2.736 2.748 4.514 4.585l.996 1.03c2.196 2.266 4.666 4.796 7.16 7.199 2.495 2.405 5.006 4.674 7.282 6.424 2.296 1.765 4.288 2.947 5.757 3.258a.5.5 0 0 1-.208.979c-1.709-.363-3.858-1.676-6.158-3.444-2.32-1.783-4.861-4.082-7.367-6.497-2.507-2.416-4.987-4.956-7.184-7.223l-1-1.033c-1.779-1.839-3.322-3.435-4.486-4.559a.5.5 0 0 1-.013-.707Z" fill="#0C296E"/><path d="M160.038 99.914a.5.5 0 0 1-.056.705c-.308.262-.983.704-1.794 1.213-.826.517-1.833 1.128-2.836 1.736l-.003.001c-1.006.61-2.007 1.217-2.826 1.73-.832.521-1.436.922-1.676 1.126a.5.5 0 0 1-.649-.761c.308-.262.983-.704 1.794-1.213.826-.517 1.833-1.128 2.836-1.736l.003-.001c1.006-.61 2.007-1.217 2.826-1.73.832-.521 1.436-.922 1.676-1.126a.5.5 0 0 1 .705.056Zm.691 1.442a.5.5 0 0 1 .074.703c-.274.34-.876.818-1.585 1.333a70.81 70.81 0 0 1-2.571 1.758 276.559 276.559 0 0 1-3.302 2.129c-.643.41-1.197.763-1.58 1.014a.5.5 0 1 1-.548-.837c.42-.275.984-.634 1.63-1.046a268.85 268.85 0 0 0 3.251-2.095 70.412 70.412 0 0 0 2.532-1.732c.733-.532 1.219-.934 1.395-1.152a.501.501 0 0 1 .704-.075Zm-13.56 1.943a.5.5 0 0 1-.238.666l-.078-.166.078.166-.011.006-.035.016-.135.065a80.53 80.53 0 0 0-2.057 1.025c-.594.308-1.218.642-1.76.955-.55.32-.985.6-1.221.802a.5.5 0 1 1-.648-.761c.311-.266.816-.586 1.368-.906a43.98 43.98 0 0 1 1.802-.978 86.455 86.455 0 0 1 2.083-1.038l.137-.066.036-.017.012-.006.193.404-.192-.404a.5.5 0 0 1 .666.237Z" fill="#14C0FF"/><path d="M55.245 276.553h-8v8h8v-8Zm-14.666 0H9v8h31.579v-8Z" fill="#00D6B9"/><path d="M331.08 222.113h-24.608a7.755 7.755 0 1 1 0-15.509h24.608a7.753 7.753 0 0 1 7.754 7.754 7.754 7.754 0 0 1-7.754 7.755Z" fill="#fff"/><path d="M306.472 207.104a7.255 7.255 0 1 0 0 14.509h24.608a7.255 7.255 0 0 0 0-14.509h-24.608Zm-8.255 7.254a8.254 8.254 0 0 1 8.255-8.254h24.608a8.253 8.253 0 0 1 8.254 8.254 8.254 8.254 0 0 1-8.254 8.255h-24.608a8.255 8.255 0 0 1-8.255-8.255Z" fill="#0C296E"/><path d="M330.896 219.521a5.163 5.163 0 1 0 0-10.326 5.163 5.163 0 0 0 0 10.326ZM27.104 34v32.211h10.032V34H27.104Z" fill="#00D6B9"/><path d="M21.592 61.633a.5.5 0 0 1 .5-.5h10.031a.5.5 0 0 1 .5.5v10.031a.5.5 0 0 1-.5.5H22.092a.5.5 0 0 1-.5-.5V61.633Zm1 .5v9.031h9.031v-9.031h-9.031Z" fill="#0C296E"/><defs><filter id="udjae9e5oqua" x="257.068" y="260.737" width="63.274" height="63.273" filterUnits="userSpaceOnUse" color-interpolation-filters="sRGB"><feFlood flood-opacity="0" result="BackgroundImageFix"/><feBlend in="SourceGraphic" in2="BackgroundImageFix" result="shape"/><feGaussianBlur stdDeviation="7.153" result="effect1_foregroundBlur"/></filter><filter id="udamwj4am8db" x="240.191" y="138.531" width="76.66" height="40.069" filterUnits="userSpaceOnUse" color-interpolation-filters="sRGB"><feFlood flood-opacity="0" result="BackgroundImageFix"/><feBlend in="SourceGraphic" in2="BackgroundImageFix" result="shape"/><feGaussianBlur stdDeviation="3.219" result="effect1_foregroundBlur"/></filter></defs></svg>