<svg width="350" height="350" viewBox="0 0 350 350" fill="none" xmlns="http://www.w3.org/2000/svg"><path d="m120.871 307.539 3.192 9.83c.759 3.843 7.994 6.372 12.416 8.173 1.727.705 2.323.697 3.134 1.581 1.126 1.232-1.401.632-1.401.632l-18.582 1.078-5.056-2.878c-1.705-.074-2.937-1.959-2.221-3.507.874-1.937.958-4.032.516-6.022l-1.959-6.528" fill="#fff"/><path d="M120.734 307.117a.443.443 0 0 1 .557.284l3.193 9.831c.006.016.01.033.013.051.166.837.691 1.638 1.508 2.409.815.769 1.892 1.48 3.104 2.14 1.979 1.078 4.259 1.988 6.242 2.779.449.179.883.352 1.295.52.423.173.777.302 1.087.414l.087.031c.272.098.518.187.741.281.517.218.924.471 1.378.967.157.171.283.345.35.522a.688.688 0 0 1-.052.641.781.781 0 0 1-.457.304c-.145.039-.3.05-.441.052a5.048 5.048 0 0 1-.823-.078 8.465 8.465 0 0 1-.288-.055l-.052-.011-18.521 1.074a.443.443 0 0 1-.244-.057l-4.967-2.827c-1.938-.161-3.334-2.305-2.494-4.125.825-1.829.912-3.818.49-5.728l-1.953-6.512a.442.442 0 1 1 .847-.254l1.958 6.528a.28.28 0 0 1 .008.031c.459 2.065.376 4.26-.544 6.3l-.002.004c-.574 1.241.424 2.818 1.839 2.879a.449.449 0 0 1 .2.057l4.942 2.814 18.452-1.07a.415.415 0 0 1 .127.011h.001l.004.001.018.004.072.016c.063.013.151.03.254.048.207.035.452.066.657.065a2.757 2.757 0 0 0-1.102-.786c-.2-.085-.424-.165-.702-.265a27.344 27.344 0 0 1-1.204-.457l.167-.409-.167.409c-.4-.163-.826-.333-1.269-.509-1.984-.792-4.326-1.726-6.357-2.832-1.245-.678-2.395-1.432-3.288-2.274-.884-.834-1.544-1.781-1.763-2.855l.008.025.42-.137-.433.086.005.026-3.185-9.805a.444.444 0 0 1 .284-.558Zm18.838 20.312-.005.002.005-.002Z" fill="#0C296E"/><path d="M145.533 329.513c.068-.669-.212-1.288-.666-1.771-.453-.48-1.095-.849-1.823-1.046l-7.246-2.206a.443.443 0 0 0-.424.093c-2.411 2.159-5.423 2.418-9.208 1.435-3.802-.986-8.281-3.2-13.53-5.859a.442.442 0 0 0-.64.347l-.078.714c-.311 2.821-.561 5.088.088 7.742a.444.444 0 0 0 .422.338l32.657.61a.44.44 0 0 0 .448-.397Z" fill="#0C296E"/><path d="m142.365 291.396 6.585 6.009c2.751 2.789 11.679 1.343 16.362.408 1.829-.364 2.322-.699 3.486-.408 1.619.407-.82 1.299-.82 1.299l-14.91 11.143-5.805.385c-1.464.879-3.53-.015-3.786-1.701-.339-2.098-1.424-3.893-2.89-5.309l-5.232-4.367" fill="#fff"/><path d="M142.039 291.1a.443.443 0 0 1 .625-.028l6.584 6.008.017.017c.595.603 1.565 1.012 2.825 1.247 1.252.234 2.735.286 4.299.222 3.126-.129 6.501-.718 8.837-1.185.448-.089.815-.176 1.135-.254l.09-.022c.28-.068.535-.13.773-.174a3.628 3.628 0 0 1 1.682.047h.001c.224.057.425.132.579.242.164.118.312.307.31.565a.778.778 0 0 1-.214.505 1.75 1.75 0 0 1-.339.286 4.99 4.99 0 0 1-.729.389 7.111 7.111 0 0 1-.271.113l-.049.02-14.861 11.105a.444.444 0 0 1-.235.087l-5.703.379c-1.706.934-4.052-.085-4.354-2.067-.321-1.981-1.345-3.688-2.749-5.049l-5.22-4.357a.442.442 0 1 1 .567-.679l5.232 4.367a.17.17 0 0 1 .024.022c1.522 1.47 2.662 3.348 3.019 5.557l.001.004c.205 1.352 1.907 2.117 3.121 1.388a.447.447 0 0 1 .199-.062l5.674-.377 14.805-11.064a.425.425 0 0 1 .113-.061l.004-.002.018-.006.068-.027c.06-.024.143-.058.239-.1.191-.085.413-.194.584-.307l-.049-.013a2.752 2.752 0 0 0-1.305-.036 14.468 14.468 0 0 0-.817.187c-.323.078-.704.169-1.171.262-2.346.468-5.776 1.069-8.973 1.2-1.598.066-3.155.015-4.497-.235-1.329-.248-2.504-.702-3.284-1.488l-6.576-6.001a.443.443 0 0 1-.029-.625Zm26.895 6.586-.003.004a.03.03 0 0 1 .003-.004Z" fill="#0C296E"/><path d="M175.055 296.137c-.312-.596-.886-.958-1.532-1.11-.642-.152-1.381-.105-2.098.132l-7.261 2.153a.442.442 0 0 0-.302.312c-.823 3.13-3.193 5.006-6.892 6.273-3.716 1.273-8.673 1.895-14.519 2.57a.44.44 0 0 0-.342.642l.328.638c1.296 2.526 2.337 4.555 4.342 6.412a.443.443 0 0 0 .537.049l27.584-17.492a.442.442 0 0 0 .155-.579ZM99.57 249.975c-3.546-.689-7.417.093-11.41 1.742-3.996 1.65-8.154 4.186-12.293 7.059-3.637 2.525-7.275 5.32-10.784 8.018l-.001.001-1.446 1.11c-3.774 2.895-7.374 5.612-10.658 7.7l-2.17-6.52a.443.443 0 0 0-.32-.291l-21.995-5.096a.442.442 0 0 0-.524.303c-3.245 10.74-3.579 18.757-2.206 24.744 1.375 5.997 4.456 9.927 7.975 12.491 3.51 2.557 7.438 3.743 10.51 4.293a30.63 30.63 0 0 0 3.826.442 25.446 25.446 0 0 0 1.479.033h.095l.03-.001h-.002c11.107.445 20.43-6.371 27.763-14.264 3.674-3.954 6.867-8.199 9.553-11.98 1.026-1.443 1.974-2.814 2.846-4.075 1.173-1.696 2.21-3.194 3.112-4.403l.028.114c.167.659.418 1.622.752 2.842a218.917 218.917 0 0 0 3.013 10.015c2.682 8.217 6.721 19.016 12.144 29.328a.44.44 0 0 0 .505.221l13.004-3.474a.443.443 0 0 0 .311-.549v-.001l-.125-.438-.357-1.257c-.309-1.089-.757-2.659-1.306-4.583-1.1-3.848-2.609-9.111-4.251-14.775-3.282-11.323-7.093-24.255-9.202-30.661-1.245-3.791-3.881-7.307-7.896-8.088Z" fill="#0C296E"/><path d="m145.692 293.454.21.204a.441.441 0 0 1-.015.648l-10.855 9.655a.442.442 0 0 1-.573.013l-21.199-17.241-32.264-23.884a.443.443 0 0 1 .009-.718c1.32-.929 5.288-3.675 9.432-6.083 2.071-1.203 4.197-2.328 6.065-3.099.933-.386 1.812-.687 2.594-.865.76-.172 1.467-.236 2.053-.117 4.077.327 8.113 2.347 15.426 10.956 5.427 6.389 12.757 14.071 18.735 20.161a770.665 770.665 0 0 0 9.778 9.779l.604.591Zm-99.094-90.229c.253-.6.537-1.095 1.074-1.632 1.169-1.242 1.959-2.937 1.927-4.685-.042-.674.221-1.274.432-2.011.884-1.853 2.916-2.917 4.896-2.601.832.063 1.653-.421 1.716-1.242.032-.421.095-.695.285-1.022 1.01-2.432 3.674-3.653 6.233-2.664.126-.021.158.095.284.064 1.4.726 2.906.21 4.296-.685 1.18-.705 2.169-1.095 3.98-.326.6.253 1.242.632 1.632 1.074 1.116 1.211 2.748 1.748 4.338 1.6.8-.063 1.527.158 2.296.495 1.716.916 2.748 2.822 2.6 4.896-.094.695.485 1.369 1.18 1.453.673-.042 1.273.221 2.01.432 2.138.948 3.17 3.401 2.538 5.728-.063.284-.158.442-.221.737-.832 1.558-.748 3.443.179 4.959.547 1.074 1 2.327.59 3.38-.316.895-.916 1.716-1.748 2.211-1.053.674-1.548 1.895-1.232 3.148.263 1.022.126 2.127-.274 3.191-.884 1.853-2.885 3.032-4.864 2.727-.832-.063-1.632.547-1.843 1.284a2.56 2.56 0 0 1-.38 1.18c-.989 2.011-3.295 3.011-5.464 2.464-2.169-.537-3.453-2.38-3.674-4.349-2.485.358-5.118.074-7.687-.895-.6-.253-1.21-.495-1.695-.79-1.295 1.274-3.2 1.759-5.033 1.011-1.337-.474-2.295-1.59-2.748-2.822-.442-1.232-1.348-2.106-2.559-2.6-.158-.095-.316-.179-.442-.158-2.137-.948-3.17-3.401-2.643-5.57.063-.285.158-.443.221-.737.495-1.211.569-2.591.01-3.665-.641-1.021-.715-2.358-.21-3.58Z" fill="#0C296E"/><path d="m63.224 235.783.126-7.35 4.202-4.727c.79.652 1.316 1.053 2.105 1.316 3.938 1.316 5.78-1.58 8.013-5.644l1.58.653c.126 0 .263 0 .263-.263l-.264-4.602s1.58-4.464 1.706-7.486c.264-7.097-12.74-16.025-20.753-7.486-6.697 6.96-.653 16.552-.653 16.552s-3.759 5.57-7.17 8.328" fill="#fff"/><path d="M79.301 202.045c1.347 1.753 2.167 3.741 2.096 5.65v.002c-.065 1.564-.503 3.475-.916 4.975a46.054 46.054 0 0 1-.745 2.437l-.04.118.258 4.514v.025c0 .196-.051.448-.282.6a.743.743 0 0 1-.415.106h-.008a.445.445 0 0 1-.168-.034l-1.215-.502c-1.039 1.878-2.046 3.551-3.273 4.614-.662.573-1.4.981-2.25 1.149-.852.168-1.784.089-2.826-.259-.748-.25-1.282-.614-1.917-1.125l-3.81 4.288-.124 7.186a.442.442 0 1 1-.884-.016l.126-7.349a.441.441 0 0 1 .112-.286l4.2-4.728a.442.442 0 0 1 .613-.047c.787.651 1.259 1.003 1.964 1.238.928.31 1.703.362 2.374.23.671-.132 1.272-.455 1.843-.949 1.161-1.007 2.144-2.672 3.268-4.718a.442.442 0 0 1 .557-.196l1.214.501-.245-4.279a.443.443 0 0 1 .024-.173l.005-.011.012-.037.05-.144a45.044 45.044 0 0 0 .73-2.387c.408-1.488.823-3.319.884-4.777.06-1.639-.646-3.428-1.913-5.078-1.264-1.645-3.06-3.116-5.111-4.113-4.097-1.993-9.126-2.066-12.965 2.025l-.003.004c-3.212 3.338-3.38 7.305-2.724 10.49a18.73 18.73 0 0 0 2.066 5.42l.046.077.011.018.003.004a.444.444 0 0 1-.007.484l-.367-.248.367.248-.003.004-.009.013-.033.048-.127.184a62.961 62.961 0 0 1-2.153 2.906c-1.37 1.743-3.188 3.858-4.934 5.27a.443.443 0 0 1-.556-.688c1.665-1.347 3.433-3.396 4.795-5.128a64.479 64.479 0 0 0 2.129-2.874 18.41 18.41 0 0 1-.717-1.406 19.616 19.616 0 0 1-1.377-4.154c-.69-3.35-.533-7.658 2.95-11.279 4.175-4.447 9.653-4.325 13.995-2.214 2.169 1.055 4.074 2.613 5.425 4.371Z" fill="#0C296E"/><path d="M65.087 219.337a.443.443 0 0 1 .536.324c.367 1.487.983 2.466 2.132 3.748a.443.443 0 0 1-.659.591c-1.21-1.351-1.92-2.456-2.332-4.128a.442.442 0 0 1 .323-.535Zm8.037-26.273a.44.44 0 0 0-.37-.133l-14.71 1.695a.445.445 0 0 0-.198.074c-2.512 1.717-5.15 4.179-5.569 7.525-.272 1.648.134 3.15.512 4.548l.026.095.001.006c.141.493.286.986.43 1.478.947 3.229 1.893 6.453 1.786 9.684v.021c0 .067 0 .197.02.331a.92.92 0 0 0 .235.502 1.5 1.5 0 0 0 .385.267c.1.049.247.11.397.123 3.378.692 6.677-1.284 8.447-4.145a.46.46 0 0 0 .026-.05l1.734-3.824L82.69 210.1a.444.444 0 0 0 .409-.492l-.79-6.834a.445.445 0 0 0-.12-.255l-9.066-9.455Z" fill="#0C296E"/><path d="m66.634 213.459-1.053-.653a5.284 5.284 0 0 1-1.706-1.706c-.526-.789-.79-1.969-.39-2.758.127-.527 1.317-2.369 3.286-1.18.79.39 2.232 2.496 2.495 2.885" fill="#fff"/><path d="M64.138 208.023a1.5 1.5 0 0 0-.221.423.434.434 0 0 1-.036.096c-.144.284-.183.673-.11 1.108a3.175 3.175 0 0 0 .485 1.225c.352.589.963 1.2 1.553 1.552l.006.004 1.053.653a.442.442 0 0 1-.466.752l-1.05-.651a5.726 5.726 0 0 1-1.85-1.848 4.055 4.055 0 0 1-.604-1.543c-.089-.534-.064-1.112.173-1.608.057-.195.18-.437.343-.671a3.04 3.04 0 0 1 .777-.772 2.344 2.344 0 0 1 1.24-.413c.483-.017 1.005.117 1.554.446.265.135.54.382.79.64.265.273.538.598.79.916a25.87 25.87 0 0 1 1.069 1.469.442.442 0 1 1-.733.495c-.13-.192-.55-.805-1.031-1.416a11.544 11.544 0 0 0-.73-.849c-.245-.253-.44-.41-.564-.471a1.98 1.98 0 0 1-.033-.018c-.43-.26-.79-.339-1.082-.329a1.47 1.47 0 0 0-.775.263 2.154 2.154 0 0 0-.548.547Z" fill="#0C296E"/><path d="M78.932 198.751c-1.876-1.007-4.338-.594-5.663 1.018-1.009 1.135-1.355 2.695-1.054 4.127-1.53-.032-3.074.673-3.964 1.952l-.004.007c-1.439 2.151-1.017 5.066 1.176 6.521 1.63 1.086 3.17.439 4.36-.061.133-.056.262-.111.387-.16l.008-.004c.806-.343 1.85-.336 2.632.105l.005.002c.764.419 1.81.789 2.9.678 1.12-.115 2.223-.729 3.073-2.155l.01-.019c1.122-2.107.862-4.844-1.295-6.443a1.454 1.454 0 0 0-.275-.197c.487-2.052-.38-4.276-2.286-5.365l-.01-.006Z" fill="#0C296E"/><path d="M52.378 224.621c-1.026 0-2.122.352-3.212.917-1.093.567-2.206 1.363-3.273 2.285-2.133 1.842-4.119 4.22-5.433 6.382l-.337.555c-3.333 5.486-5.534 9.109-7.368 13.114-1.898 4.144-3.398 8.686-5.37 16.118a.443.443 0 0 0 .33.545l22.418 5.065a.442.442 0 0 0 .414-.123l6.149-6.307a.662.662 0 0 0 .032-.037l.004-.005.006-.008.006-.009.014-.02.05-.072.19-.276a146.034 146.034 0 0 0 2.84-4.33 80.227 80.227 0 0 0 2.347-3.949c.697-1.27 1.273-2.459 1.535-3.331.24-.799.377-1.975.448-3.306a58.77 58.77 0 0 0 .04-4.405c-.074-3.059-.317-6.14-.547-7.706-.672-4.606-2.882-7.393-5.242-9.02-2.342-1.614-4.816-2.077-6.04-2.077Z" fill="#00D6B9"/><path d="M148.426 217.159a.441.441 0 0 1 .142.609l-18.784 30.208a.44.44 0 0 1-.375.209h-24.691a.443.443 0 1 1 0-.885h24.445l18.654-29.999a.442.442 0 0 1 .609-.142Z" fill="#0C296E"/><path d="M107.836 241.087s13.004-4.022 15.552-3.169c2.548.852-7.56 2.474-7.56 2.474" fill="#fff"/><path d="m107.967 241.51-.131-.422-.131-.423.038-.012.11-.033.419-.127a147.395 147.395 0 0 1 6.276-1.739c1.79-.45 3.668-.877 5.264-1.137.797-.13 1.532-.22 2.155-.249.609-.029 1.16-.003 1.561.131.178.06.356.139.489.258.15.134.275.355.206.623-.055.212-.21.353-.32.436a2.383 2.383 0 0 1-.436.25c-.636.294-1.703.585-2.804.84a70.795 70.795 0 0 1-3.217.655 88.409 88.409 0 0 1-1.434.25l-.085.014-.029.004-.07-.436.07.436a.442.442 0 1 1-.14-.873l.069.436-.069-.436.028-.004.083-.014a91.475 91.475 0 0 0 1.419-.247 71.926 71.926 0 0 0 3.175-.646c1.071-.249 2.026-.513 2.579-.757-.244-.043-.588-.058-1.033-.036-.576.027-1.275.111-2.055.238-1.559.255-3.41.674-5.19 1.122a148.273 148.273 0 0 0-6.237 1.728l-.415.126-.109.033-.036.011Zm-.554-.292a.443.443 0 0 1 .292-.553l.131.423.131.422a.443.443 0 0 1-.554-.292Z" fill="#0C296E"/><path d="M120.924 240.214c-5.612-.548-16.826.653-19.816 1.253-2.485.495-6.37 2.464-9.024 4.706-5.57 4.717-24.438 18.511-24.438 18.511l-4.349-13.257-12.14 3.654s5.36 11.445 7.35 15.162c1.884 3.506 6.938 15.141 17.552 1.548 6.065-6.655 18.058-18.721 21.322-22.806l10.813-1.98s12.73-1.864 14.699-2.548c1.706-.611 3.622-3.685-1.969-4.243Z" fill="#fff"/><path d="M109.998 239.97c3.881-.307 8.121-.473 10.969-.196h.001c1.43.143 2.438.451 3.103.882.682.443 1.011 1.026 1.016 1.657.004.602-.288 1.161-.662 1.592a3.426 3.426 0 0 1-1.383.969l-.004.002c-.531.184-1.734.435-3.193.704-1.475.271-3.254.569-4.97.845a500.196 500.196 0 0 1-6.065.937l-.408.06-.136.02-10.644 1.949c-1.7 2.099-5.46 6.077-9.532 10.34l-2.35 2.457c-3.44 3.592-6.88 7.187-9.343 9.889-2.672 3.419-5.035 5.307-7.135 6.113-2.129.817-3.954.509-5.476-.378-1.499-.874-2.684-2.298-3.604-3.692-.723-1.097-1.302-2.208-1.74-3.049a58.219 58.219 0 0 0-.325-.618c-1-1.869-2.843-5.67-4.43-8.993a932.91 932.91 0 0 1-2.061-4.343l-.635-1.348-.234-.499.4-.188-.4.188a.445.445 0 0 1 .273-.612l12.14-3.653a.44.44 0 0 1 .547.285l4.16 12.678.329-.242a1454.229 1454.229 0 0 0 9.306-6.882c5.417-4.041 11.514-8.66 14.286-11.007 2.697-2.28 6.649-4.29 9.223-4.803 1.521-.306 5.093-.757 8.977-1.064Zm-42.352 24.714.26.357a.44.44 0 0 1-.681-.219l-4.214-12.846-11.236 3.382.016.035.634 1.347c.534 1.13 1.266 2.676 2.06 4.338 1.59 3.329 3.422 7.109 4.41 8.957m0 0c.106.196.22.414.342.649.438.839.988 1.895 1.684 2.949.89 1.349 1.985 2.642 3.311 3.415 1.305.761 2.85 1.032 4.713.317 1.889-.725 4.135-2.476 6.765-5.845a.347.347 0 0 1 .022-.026c2.472-2.713 5.928-6.323 9.372-9.922l2.346-2.452c4.171-4.367 7.968-8.387 9.585-10.411a.448.448 0 0 1 .266-.159l10.813-1.979.016-.003.064.438-.064-.438.143-.021.407-.06 1.467-.22c1.224-.186 2.875-.44 4.588-.715 1.713-.276 3.485-.572 4.95-.842 1.48-.273 2.606-.512 3.061-.669a2.564 2.564 0 0 0 1.011-.715c.29-.334.447-.693.445-1.006-.002-.284-.135-.612-.613-.922-.495-.321-1.344-.607-2.709-.743-2.764-.27-6.937-.11-10.813.196-3.873.307-7.404.755-8.873 1.05-2.395.477-6.214 2.405-8.824 4.611-2.798 2.369-8.92 7.005-14.33 11.041a1582.934 1582.934 0 0 1-9.311 6.886l-.609.446-.212.156h-.001l-.261-.357" fill="#0C296E"/><path d="M109.352 244.223a.442.442 0 0 1 .445-.44c.881.006 3.467.221 5.803.432 1.174.106 2.295.212 3.121.291l.991.096.37.036-.043.44.043-.44a.443.443 0 0 1-.087.88l.044-.44-.044.44-.369-.036-.989-.095c-.826-.079-1.945-.185-3.117-.291-2.357-.213-4.894-.423-5.729-.428a.442.442 0 0 1-.439-.445Zm14.616-2.124-.022.442-.021.442-.468-.022a715.136 715.136 0 0 0-5.155-.227c-2.937-.117-6.039-.218-6.866-.162a.442.442 0 0 1-.06-.883c.889-.06 4.058.045 6.962.162a638.548 638.548 0 0 1 5.161.226l.469.022Zm.42.464a.442.442 0 0 1-.463.42l.021-.442.022-.442c.244.012.432.22.42.464Z" fill="#0C296E"/><path d="M51.157 255.082c-3.707-11.245-13.383-11.667-3.464-24.428 1.431-1.843 5.906.347 8.212.642 2.327.306 5.95 1.443 7.17 3.433 1.864 8.339 1.096 17.068 1.096 17.068l-13.014 3.285Z" fill="#00D6B9"/><path d="M49.288 230.377c.592-.044 1.307.055 2.087.229.66.148 1.34.342 2.005.533l.35.1c.76.216 1.504.418 2.118.497 1.13.148 2.577.499 3.885 1.053 1.292.547 2.377 1.262 2.928 2.112.909 4.105 1.178 8.307 1.219 11.495a67.704 67.704 0 0 1-.06 3.887 48.15 48.15 0 0 1-.061 1.093l-.005.071-12.31 3.107c-.934-2.676-2.197-4.736-3.425-6.491a84.298 84.298 0 0 0-1.184-1.641c-.834-1.135-1.576-2.146-2.129-3.191-.784-1.482-1.15-2.977-.745-4.864.409-1.915 1.617-4.271 4.08-7.441.254-.325.66-.505 1.248-.549Zm14.883 21.421.44.038v-.007l.002-.02.007-.077.021-.296c.018-.258.04-.635.062-1.113a68.68 68.68 0 0 0 .061-3.938c-.04-3.241-.316-7.541-1.257-11.752a.451.451 0 0 0-.054-.135c-.684-1.114-2-1.941-3.376-2.524a16.583 16.583 0 0 0-4.114-1.115l-.002-.001c-.538-.068-1.218-.251-1.99-.47l-.342-.098a36.742 36.742 0 0 0-2.062-.547c-.806-.18-1.622-.302-2.345-.248-.726.055-1.416.293-1.879.888-2.495 3.211-3.797 5.693-4.247 7.799-.456 2.131-.03 3.838.828 5.462.585 1.105 1.388 2.2 2.243 3.364.37.506.751 1.024 1.127 1.562 1.26 1.801 2.535 3.896 3.443 6.651a.441.441 0 0 0 .528.29l13.014-3.285a.442.442 0 0 0 .332-.39l-.44-.038Z" fill="#00D6B9"/><path d="M45.389 240.671c.23-.08.483.042.563.272l4.846 13.923 13.27-3.497a.443.443 0 0 1 .226.856l-13.667 3.601a.442.442 0 0 1-.53-.283l-4.98-14.309a.442.442 0 0 1 .272-.563Z" fill="#0C296E"/><path d="M101.984 250.495a.442.442 0 0 1 .615-.115c2.251 1.545 3.814 4.062 4.697 6.744 2.109 6.411 5.912 19.339 9.197 30.666a.442.442 0 1 1-.85.246c-3.285-11.331-7.084-24.242-9.187-30.635-.843-2.561-2.313-4.888-4.358-6.291a.443.443 0 0 1-.114-.615Z" fill="#fff"/><path d="M16 306.754a.5.5 0 0 1 .5-.5h75.505a.5.5 0 0 1 .5.5V330a.5.5 0 0 1-1 0v-22.746H16.5a.5.5 0 0 1-.5-.5Z" fill="#0C296E"/><path d="M190 284h-8v8h8v-8Zm38.579 0H197v8h31.579v-8Z" fill="#14C0FF"/><path d="M152 205a4 4 0 0 1 4-4h49.262a4 4 0 0 1 4 4v28a4 4 0 0 1-4 4H156a4 4 0 0 1-4-4v-28Z" fill="#BBBFC4" fill-opacity=".45"/><path d="M155.051 203.492a.5.5 0 0 0 .08.702l22.38 17.781a5.015 5.015 0 0 0 6.239 0l22.38-17.781a.5.5 0 0 0-.622-.783l-22.38 17.781a4.017 4.017 0 0 1-4.995 0l-22.38-17.781a.5.5 0 0 0-.702.081Z" fill="#fff"/><path d="M172.595 217.302a.5.5 0 0 0-.707.026l-15.934 17.139a.5.5 0 0 0 .733.681l15.934-17.14a.5.5 0 0 0-.026-.706Zm16.292 0a.5.5 0 0 0-.025.706l15.934 17.14a.5.5 0 0 0 .732-.681l-15.934-17.139a.5.5 0 0 0-.707-.026Z" fill="#fff"/><g filter="url(#ud1tnd7q6j0a)"><path d="M72.962 105.434c11.775 0 21.32-9.545 21.32-21.32 0-11.776-9.545-21.321-21.32-21.321s-21.32 9.545-21.32 21.32c0 11.776 9.545 21.321 21.32 21.321Z" fill="#FFC60A"/></g><path d="M82.325 77.512c0-25.462 23.114-46.012 51.501-46.012a.5.5 0 0 1 0 1c-27.945 0-50.501 20.206-50.501 45.012v11.976a.5.5 0 0 1-.5.5H68c-27.757 0-50.197 19.935-50.498 44.512h41.341a.5.5 0 0 1 0 1H17a.5.5 0 0 1-.5-.5c0-25.462 23.114-46.012 51.501-46.012h14.323V77.512ZM150 206a9 9 0 0 0 9-9 9 9 0 0 0-9-9 9 9 0 0 0-9 9 9 9 0 0 0 9 9Zm10-9c0 5.523-4.477 10-10 10s-10-4.477-10-10 4.477-10 10-10 10 4.477 10 10Z" fill="#0C296E"/><path d="M155.8 192.336a.5.5 0 0 0-.702.079l-5.676 7.113-4.614-3.389a.5.5 0 1 0-.592.806l5.001 3.674a.5.5 0 0 0 .687-.092l5.975-7.489a.498.498 0 0 0-.079-.702Zm156.357 71.571a7.79 7.79 0 0 1-7.789-7.789v-6.538a7.79 7.79 0 0 0-7.789-7.789 7.791 7.791 0 0 0-7.789 7.789v14.324h23.367v.003Z" fill="#0C296E"/><path d="M115.66 56.793a8 8 0 0 1 8-8h178.842a8 8 0 0 1 8 8v88.654h-59.723a4 4 0 0 0-4 4v23.319H123.66a8 8 0 0 1-8-8V56.793Z" fill="#14C0FF"/><path d="M119.789 52.038a.5.5 0 0 0 .072.703l87.855 71.481a8.498 8.498 0 0 0 10.729 0l87.855-71.48a.5.5 0 0 0-.631-.776l-87.855 71.481a7.5 7.5 0 0 1-9.467 0l-87.855-71.481a.5.5 0 0 0-.703.072Z" fill="#0C296E"/><path d="M181.337 101.352a.5.5 0 0 1 .031.706l-61.713 67.389a.5.5 0 1 1-.738-.675l61.713-67.389a.5.5 0 0 1 .707-.031Zm64.538 0a.5.5 0 0 1 .707.031l61.713 67.389a.5.5 0 0 1-.738.675l-61.713-67.389a.5.5 0 0 1 .031-.706Z" fill="#0C296E"/><g opacity=".8" filter="url(#udawwbvsjktb)"><path d="M246.718 149.57a4 4 0 0 1 4-4h59.785v19.194a8 8 0 0 1-8 8h-55.785V149.57Z" fill="#14C0FF"/></g><path d="M246.218 149.57a4.5 4.5 0 0 1 4.5-4.5h64.508a4.5 4.5 0 0 1 4.5 4.5v106.749a8.086 8.086 0 0 1-8.086 8.086h-22.845a.5.5 0 0 1 0-1h22.845a7.086 7.086 0 0 0 7.086-7.086V149.57a3.5 3.5 0 0 0-3.5-3.5h-64.508a3.5 3.5 0 0 0-3.5 3.5v92.735a.5.5 0 0 1-1 0V149.57ZM91.5 330a.5.5 0 0 1 .5-.5h231a.5.5 0 0 1 0 1H92a.5.5 0 0 1-.5-.5Zm142.092-72.733a2 2 0 1 0 0-4 2 2 0 0 0 0 4Zm3-1.999a3 3 0 1 1-6-.001 3 3 0 0 1 6 .001Zm7 1.999a2 2 0 1 0 0-4 2 2 0 0 0 0 4Zm3-1.999a3 3 0 1 1-6-.001 3 3 0 0 1 6 .001Zm7 2.999a3 3 0 1 0 0-6 3 3 0 0 0 0 6Z" fill="#0C296E"/><path d="M288.79 251.885a.5.5 0 0 0-.5.5v63.241a.5.5 0 0 0 1 0v-63.241a.5.5 0 0 0-.5-.5Z" fill="#0C296E"/><path d="M222.276 254.646v62.301a.5.5 0 0 0 1 0v-62.301c0-6.54 5.302-11.841 11.841-11.841h57.28a6.892 6.892 0 0 0-2.085 1.897c-1.36 1.855-2.017 4.495-2.017 7.682a.5.5 0 0 0 1 0c0-3.071.636-5.471 1.824-7.091 1.171-1.596 2.916-2.488 5.285-2.488a.5.5 0 0 0 0-1h-61.287c-7.091 0-12.841 5.749-12.841 12.841Z" fill="#0C296E"/><path d="M288.796 283.07a.5.5 0 0 0-.5.5v38.768a7.11 7.11 0 0 1-7.109 7.109 7.11 7.11 0 0 1-7.109-7.109v-.709a4.5 4.5 0 0 0-4.5-4.5h-59.021a3.938 3.938 0 0 0-3.938 3.938 9.384 9.384 0 0 0 9.384 9.384h10.811a.5.5 0 1 0 0-1h-10.811a8.383 8.383 0 0 1-8.384-8.384 2.939 2.939 0 0 1 2.938-2.938h59.021a3.5 3.5 0 0 1 3.5 3.5v.709a8.11 8.11 0 0 0 8.109 8.109 8.11 8.11 0 0 0 8.109-8.109V283.57a.5.5 0 0 0-.5-.5Zm-31.914-97.453a.5.5 0 0 0 .5.5h39.375a.5.5 0 0 0 0-1h-39.375a.5.5 0 0 0-.5.5Zm0 11.91a.5.5 0 0 0 .5.5h32.51a.5.5 0 0 0 0-1h-32.51a.5.5 0 0 0-.5.5ZM229.5 269a.5.5 0 0 1 .5-.5h33a.5.5 0 0 1 0 1h-33a.5.5 0 0 1-.5-.5Zm0 10a.5.5 0 0 1 .5-.5h27a.5.5 0 0 1 0 1h-27a.5.5 0 0 1-.5-.5Z" fill="#0C296E"/><path d="M331.169 222.716h-24.608a7.754 7.754 0 0 1-7.754-7.754 7.754 7.754 0 0 1 7.754-7.755h24.608a7.755 7.755 0 1 1 0 15.509Z" fill="#fff"/><path d="M306.561 207.707a7.254 7.254 0 0 0-7.254 7.255 7.254 7.254 0 0 0 7.254 7.254h24.608a7.255 7.255 0 1 0 0-14.509h-24.608Zm-8.254 7.255a8.254 8.254 0 0 1 8.254-8.255h24.608a8.255 8.255 0 0 1 0 16.509h-24.608a8.253 8.253 0 0 1-8.254-8.254Z" fill="#0C296E"/><path d="M330.985 220.125a5.163 5.163 0 1 0 0-10.326 5.163 5.163 0 0 0 0 10.326Z" fill="#FFC60A"/><path d="M87.013 117v32.211h10.031V117H87.013Z" fill="#00D6B9"/><path d="M81.5 144.633a.5.5 0 0 1 .5-.5h10.032a.5.5 0 0 1 .5.5v10.031a.5.5 0 0 1-.5.5H82a.5.5 0 0 1-.5-.5v-10.031Zm1 .5v9.031h9.032v-9.031H82.5Z" fill="#0C296E"/><defs><filter id="ud1tnd7q6j0a" x="37.336" y="48.487" width="71.253" height="71.252" filterUnits="userSpaceOnUse" color-interpolation-filters="sRGB"><feFlood flood-opacity="0" result="BackgroundImageFix"/><feBlend in="SourceGraphic" in2="BackgroundImageFix" result="shape"/><feGaussianBlur stdDeviation="7.153" result="effect1_foregroundBlur_1094:2642"/></filter><filter id="udawwbvsjktb" x="240.28" y="139.133" width="76.66" height="40.069" filterUnits="userSpaceOnUse" color-interpolation-filters="sRGB"><feFlood flood-opacity="0" result="BackgroundImageFix"/><feBlend in="SourceGraphic" in2="BackgroundImageFix" result="shape"/><feGaussianBlur stdDeviation="3.219" result="effect1_foregroundBlur_1094:2642"/></filter></defs></svg>