<svg width="350" height="350" viewBox="0 0 350 350" fill="none" xmlns="http://www.w3.org/2000/svg"><g filter="url(#ud0lgkex92za)"><path d="M74.773 145.983c10.813 0 19.579-8.766 19.579-19.58 0-10.813-8.766-19.579-19.58-19.579-10.813 0-19.579 8.766-19.579 19.579 0 10.814 8.766 19.58 19.58 19.58Z" fill="#FAC823"/></g><path d="M223.979 145.385H112.661v14.497h111.318v-14.497Z" fill="#fff" fill-opacity=".3"/><path d="M223.979 125.307h93.113v174.724a28.324 28.324 0 0 0-4.426-.347c-5.146 0-9.96 1.397-14.11 3.818-4.939-16.49-20.225-28.511-38.319-28.511-16.042 0-29.881 9.446-36.258 23.078V125.307Z" fill="#14C0FF"/><path d="M302.719 125.305h14.428v14.041l-14.428-14.041Z" fill="#E0E0E0"/><path d="M254.136 259.013h34.846c12.077 0 12.077-8.923 12.077-19.934V64.602a8 8 0 0 0-8-8H168.746a8 8 0 0 0-8 8v159.606" fill="#373737"/><path d="M160.246 64.602v159.606a.5.5 0 0 0 1 0V64.602a7.5 7.5 0 0 1 7.5-7.5h124.313a7.5 7.5 0 0 1 7.5 7.5v174.477c0 2.758 0 5.359-.187 7.721s-.559 4.45-1.284 6.182c-.721 1.723-1.789 3.09-3.379 4.035-1.598.949-3.766 1.496-6.727 1.496h-34.846a.5.5 0 0 0 0 1h34.846c3.078 0 5.439-.568 7.238-1.636 1.806-1.073 3.002-2.624 3.791-4.509.784-1.874 1.167-4.082 1.358-6.489.19-2.405.19-5.044.19-7.787V64.602a8.5 8.5 0 0 0-8.5-8.5H168.746a8.5 8.5 0 0 0-8.5 8.5Z" fill="#E0E0E0"/><path d="M282.562 85.361H179.244a4 4 0 0 0-4 4V141.8a4 4 0 0 0 4 4h103.318a4 4 0 0 0 4-4V89.361a4 4 0 0 0-4-4Z" fill="#fff" fill-opacity=".3"/><path d="M89.052 74.119v11.683H76.095c-25.846 0-46.8 20.955-46.8 46.801a.5.5 0 0 0 .5.5h78.851a.5.5 0 0 0 0-1H30.298c.268-25.063 20.67-45.3 45.797-45.3h13.457a.5.5 0 0 0 .5-.5V74.118c0-25.294 20.507-45.8 45.801-45.8a.5.5 0 0 0 0-1c-25.846 0-46.8 20.954-46.8 46.8ZM8.521 300.307a.5.5 0 0 1 .5-.5h123.115l.001.5v-.5a.5.5 0 0 1 .5.5v28.661h216.095a.5.5 0 1 1 0 1H132.137a.5.5 0 0 1-.5-.5v-28.661H9.021a.5.5 0 0 1-.5-.5Z" fill="#E0E0E0"/><mask id="udfw2h86stob" style="mask-type:alpha" maskUnits="userSpaceOnUse" x="220" y="274" width="98" height="42"><path opacity=".8" fill-rule="evenodd" clip-rule="evenodd" d="M317.063 299.631a28.24 28.24 0 0 0-4.331-.333c-5.146 0-9.96 1.397-14.11 3.818-4.938-16.489-20.224-28.511-38.318-28.511-22.011 0-39.874 17.783-40.006 39.762v.951h96.765v-15.687Z" fill="#14C0FF"/></mask><g mask="url(#udfw2h86stob)"><path d="M312.731 299.298c-5.146 0-9.96 1.397-14.11 3.818-4.938-16.489-20.224-28.511-38.319-28.511-22.092 0-40.006 17.915-40.006 40.007v14.65h120.407v-1.965c.027-15.466-12.506-27.999-27.972-27.999Z" fill="#42BDEB"/></g><path d="M266.505 224.109c-6.971 0-12.618 5.647-12.618 12.618v22.272a.5.5 0 0 0 .5.5h35.758c.198.01.397.014.597.014a.5.5 0 0 0 .5-.5v-.014a.5.5 0 0 0-.5-.5h-.573c-6.153-.298-11.046-5.376-11.046-11.604v-10.168c0-6.971-5.646-12.618-12.618-12.618Z" fill="#E0E0E0"/><path d="M131.087 244.267v85.2h89.143v-14.636c0-20.017 14.709-36.605 33.906-39.544V240.67c0-9.96 4.122-16.047 12.118-16.047H150.73c-10.845 0-19.643 8.798-19.643 19.644Z" fill="#373737"/><path d="M130.587 244.267c0-11.122 9.022-20.144 20.143-20.144h115.524a.5.5 0 0 1 0 1c-3.855 0-6.728 1.458-8.654 4.084-1.944 2.649-2.964 6.541-2.964 11.463v34.617a.5.5 0 0 1-.425.494c-18.956 2.902-33.481 19.283-33.481 39.05v14.636a.5.5 0 0 1-.5.5h-89.143a.5.5 0 0 1-.5-.5v-85.2Zm130.523-19.144H150.73c-10.569 0-19.143 8.574-19.143 19.144v84.7h88.143v-14.136c0-20.12 14.676-36.818 33.906-39.971v-34.19c0-5.038 1.041-9.17 3.157-12.054 1.143-1.557 2.587-2.735 4.317-3.493Z" fill="#E0E0E0"/><path d="M235.292 249.965h-86.635a4 4 0 0 0-4 4v21.245a4 4 0 0 0 4 4h86.635a4 4 0 0 0 4-4v-21.245a4 4 0 0 0-4-4Z" fill="#fff" fill-opacity=".3"/><path d="M219.729 314.831v14.649a.5.5 0 0 0 .5.5h120.407a.5.5 0 0 0 .5-.5v-1.963c.028-15.743-12.729-28.5-28.471-28.5a28.396 28.396 0 0 0-13.816 3.575c-5.187-16.386-20.512-28.268-38.613-28.268-22.368 0-40.507 18.138-40.507 40.507Zm40.507-39.507c17.867 0 32.963 11.871 37.84 28.154a.5.5 0 0 0 .731.289 27.403 27.403 0 0 1 13.858-3.75c15.19 0 27.498 12.31 27.471 27.499v1.464H220.729v-14.149c0-21.816 17.691-39.507 39.507-39.507Z" fill="#E0E0E0"/><path d="M154.818 308.814c1.619 8.301 7.125 8.328 11.302 7.789 4.178-.54 8.743-3.403 12.423.401l.318.415-29.133 11.233c-1.536.595-3.196-.568-3.168-2.2.027-1.867.055-4.274.069-6.654.014-3.057-1.176-6.889-1.176-6.889l9.365-4.095Z" fill="#EBEBEB"/><path d="M178.557 316.99c-3.68-3.804-8.245-.941-12.423-.401-2.503.332-5.478.429-7.816-1.314a37.13 37.13 0 0 0-.511.345c.345 5.091-10.873 3.141-10.873 3.141l-.305.29c.014.249.014.484.014.719-.014 2.38-.042 4.787-.069 6.654-.028 1.646 1.632 2.795 3.168 2.2l29.133-11.233-.318-.401Z" fill="#EBEBEB"/><path d="M172.461 314.665c2.219-.321 4.466-.08 6.455 1.977l.033.037.318.401a.499.499 0 0 1-.212.777l-29.133 11.233c-1.863.722-3.881-.67-3.848-2.674a760.5 760.5 0 0 0 .069-6.647v.001h.5l-.5-.003v.002c0-.237 0-.458-.013-.691a.499.499 0 0 1 .154-.389l.304-.29a.497.497 0 0 1 .431-.131l-.085.492-.049.276-.256.015.345.361.125-.119.04.006c.004.162.004.317.004.466v.008c-.014 2.381-.042 4.79-.069 6.658-.022 1.288 1.28 2.194 2.487 1.726l28.477-10.98.143.143.302.381.392-.31-.18-.467-.657.253c-1.648-1.601-3.47-1.807-5.434-1.522-1.004.145-2.028.417-3.082.697l-.073.02c-1.068.283-2.168.572-3.25.712-2.417.321-5.426.452-7.885-1.2v-.005l.282-.189-.278-.416-.244.328-.267.018-.285-.411.009-.006.026-.018.1-.068.384-.259a.5.5 0 0 1 .576.015c2.166 1.615 4.958 1.55 7.452 1.22l.001-.001c1.007-.13 2.044-.401 3.122-.687a3.48 3.48 0 0 0 .097-.026c1.036-.275 2.109-.56 3.172-.714Zm-25.442 3.603-.085.492.345.362-.141.134.001.043a30.568 30.568 0 0 0 1.493.184c1.06.105 2.479.192 3.895.115 1.403-.075 2.861-.313 3.961-.898.557-.296 1.042-.691 1.374-1.217.289-.458.446-.992.452-1.599l-.003-.003-.092.063-.096.065-.024.017-.007.005-.285-.411m0 0-.285-.411a.499.499 0 0 0-.214.445c.036.54-.08.96-.292 1.296-.216.341-.55.629-.997.867-.906.481-2.188.71-3.546.783-1.346.072-2.71-.01-3.743-.112a29.282 29.282 0 0 1-1.682-.216l-.022-.003-.006-.001h-.001" fill="#2851A3"/><path d="M155.051 308.372c.134.07.229.198.258.347.787 4.036 2.491 5.958 4.411 6.851 1.962.912 4.257.805 6.336.537 1.007-.13 2.044-.401 3.122-.687l.097-.026c1.036-.275 2.109-.56 3.172-.714 2.219-.322 4.466-.081 6.455 1.976a.546.546 0 0 1 .038.044l.318.415a.497.497 0 0 1-.217.77l-29.133 11.233c-1.865.722-3.881-.686-3.848-2.674.028-1.866.055-4.271.069-6.648.007-1.474-.278-3.153-.571-4.481a35.114 35.114 0 0 0-.534-2.094l-.036-.123-.01-.031-.002-.008v-.001a.5.5 0 0 1 .277-.607l9.365-4.095a.502.502 0 0 1 .433.016Zm-8.995 4.819.065.233c.113.413.264.996.413 1.676.299 1.352.602 3.117.595 4.7a804.72 804.72 0 0 1-.069 6.66v.001c-.022 1.276 1.282 2.191 2.487 1.724l28.487-10.983c-1.651-1.611-3.476-1.818-5.444-1.533-1.004.146-2.028.418-3.082.698l-.073.019c-1.068.284-2.168.573-3.251.713-2.098.271-4.645.419-6.885-.622-2.171-1.01-3.958-3.087-4.843-6.959l-8.4 3.673Z" fill="#2851A3"/><path d="M161.339 316.944a.5.5 0 0 1 .317.632l-.761 2.297a.5.5 0 0 1-.949-.315l.761-2.296a.501.501 0 0 1 .632-.318Zm2.739-.083a.5.5 0 0 1 .317.632l-.761 2.297a.5.5 0 0 1-.949-.315l.761-2.296a.501.501 0 0 1 .632-.318Z" fill="#2851A3"/><path d="M133.874 247.252a.5.5 0 1 1 .97-.242c2.4 9.641 7.897 25.64 12.802 39.249a1433.736 1433.736 0 0 0 8.454 22.824l.554 1.453.194.506a.504.504 0 0 1-.011.387.505.505 0 0 1-.285.263l-22.673 8.217a.5.5 0 0 1-.653-.341l-12.035-44.737a.5.5 0 0 1 .691-.584l12.144-26.392a89.36 89.36 0 0 1-.152-.603Z" fill="#4C88FF"/><path d="M111.713 283.389c-1.48 8.328 3.652 10.334 7.747 11.33 4.094.996 9.379-.028 11.454 4.842l.152.498H99.844c-1.646 0-2.78-1.674-2.158-3.196.691-1.729 1.59-3.97 2.448-6.184 1.121-2.849 2.186-5.657 2.753-7.276h8.826v-.014Z" fill="#EBEBEB"/><path d="M102.415 283.237c.071-.2.26-.334.472-.334h8.826v.486h.5v.014a.513.513 0 0 1-.019.136c-.699 4.011.198 6.401 1.661 7.917 1.504 1.556 3.685 2.281 5.723 2.777.987.24 2.052.36 3.161.481l.093.01c1.068.116 2.174.236 3.223.475 2.187.499 4.197 1.533 5.319 4.165a.5.5 0 0 1 .018.05l.152.498a.501.501 0 0 1-.478.646H99.844c-1.997 0-3.379-2.029-2.622-3.883l.173-.43a571.357 571.357 0 0 0 2.273-5.746l.001-.003c1.12-2.848 2.182-5.649 2.746-7.259Zm8.708.666h-7.882c-.592 1.661-1.593 4.294-2.641 6.958a574.261 574.261 0 0 1-2.277 5.755l-.173.433-.001.003c-.487 1.189.4 2.506 1.695 2.506h30.522c-.966-2.092-2.595-2.942-4.533-3.384-.992-.226-2.047-.341-3.134-.459l-.068-.007c-1.099-.12-2.229-.246-3.289-.504-2.058-.5-4.489-1.276-6.206-3.053-1.665-1.725-2.586-4.31-2.013-8.248Z" fill="#2851A3"/><path d="M130.914 299.56c-2.075-4.87-7.359-3.846-11.454-4.842-2.559-.622-5.533-1.646-7.027-4.358l-.388.471c-1.508 4.869-11.274-.982-11.274-.982l-.36.166c-.083.221-.18.442-.263.677-.871 2.214-1.756 4.441-2.448 6.184-.623 1.522.512 3.196 2.158 3.196h31.222l-.166-.512Z" fill="#EBEBEB"/><path d="M101.028 289.42a.499.499 0 0 0-.467-.025l-.359.166a.498.498 0 0 0-.259.278c-.025.067-.059.151-.095.243-.056.141-.12.299-.168.435-.74 1.879-1.489 3.766-2.121 5.359l-.323.813c-.756 1.854.625 3.883 2.622 3.883h31.222a.503.503 0 0 0 .476-.655l-.166-.512-.016-.041c-1.122-2.632-3.132-3.666-5.318-4.165-1.05-.239-2.156-.36-3.224-.476l-.093-.01c-1.108-.121-2.174-.241-3.161-.481-2.555-.621-5.327-1.607-6.707-4.113a.5.5 0 0 0-.824-.076l-.388.47a.5.5 0 0 0-.091.17c-.16.517-.42.865-.739 1.102-.323.241-.739.39-1.241.45-1.019.123-2.297-.125-3.591-.545-1.282-.416-2.525-.983-3.452-1.45a30.37 30.37 0 0 1-1.413-.759l-.079-.046-.019-.012-.005-.003h-.001Zm-.244 1.014.166.093c.275.154.669.367 1.146.607.951.478 2.244 1.069 3.592 1.507 1.336.434 2.782.736 4.019.587.626-.076 1.221-.269 1.719-.64.43-.32.767-.755.991-1.311 1.698 2.411 4.571 3.354 6.925 3.927 1.06.258 2.191.383 3.289.503l.068.007c1.087.119 2.142.234 3.134.46 1.942.443 3.574 1.295 4.54 3.398H99.858c-1.295 0-2.182-1.318-1.695-2.507l.002-.005.323-.814c.633-1.596 1.385-3.488 2.126-5.37l.006-.017c.048-.137.092-.245.139-.362l.025-.063Z" fill="#2851A3"/><path d="M32.834 292.642s2.255 5.506 3.486 6.156c1.854.982-.594 1.121-.594 1.121-4.233-.153-4.8-1.91-6.336-3.902-2.919 2.2-9.863 3.224-13.502 3.639l-1.065.027c-.595.056-9.116.457-9.85.125-.815-.36-.65-1.55.222-1.688 4.911-.788 17.292-5.395 21.885-11.675.65-.886 30.696-56.621 32.758-67.176 1.078-5.547 11.703 10.306 11.703 10.306l-38.112 58.239c-1.632 2.961-1.093 1.148-.595 4.828Z" fill="#EBEBEB"/><path d="M4.848 300.215c.843.163 1.703.22 2.56.17 2.99 0 7.51-.28 7.51-.28h1.11c4.5-.51 10.33-1.52 13.33-3.45l.119.165a7.2 7.2 0 0 0 .201.275c1.16 1.68 2.23 3.14 6.16 3.28.74-.04 1.6-.19 1.74-.84.137-.637-.618-1.053-.922-1.22l-.018-.01c-.74-.38-2.32-3.62-3.24-5.84a16.483 16.483 0 0 0-.39-2.07c-.13-.53-.13-.53.29-1.26.17-.27.38-.63.63-1.09l38.11-58.26a.503.503 0 0 0 0-.55c-1.37-2.06-8.37-12.28-11.37-11.68-.44.09-1.02.43-1.24 1.55-2.1 10.79-32.4 66.6-32.67 67-4.36 5.96-16.36 10.64-21.56 11.48a1.383 1.383 0 0 0-1.166 1.183 1.38 1.38 0 0 0 .816 1.447Zm56.01-81.71h.14v.04c1.8 0 6.86 6.3 10.09 10.98l-38 58c-.26.48-.47.84-.63 1.11-.57 1-.62 1.11-.4 2 .165.658.292 1.326.38 2v.12c.39.95 2.4 5.71 3.72 6.41l.18.1a3.15 3.15 0 0 1-.52.08c-3.39-.12-4.21-1.27-5.34-2.86-.084-.113-.167-.23-.252-.348-.119-.165-.24-.334-.368-.502a.508.508 0 0 0-.7-.09c-2.76 2.08-9.49 3.11-13.21 3.54h-1.1c-.22.021-.832.056-1.648.093a20.655 20.655 0 0 0 3.6-1.428 17.47 17.47 0 0 1 1.79-.72c3.03.76 4.97-.55 7.64-2.36l1-.66a.502.502 0 1 0-.55-.84l-1 .67c-2.66 1.82-4.27 2.9-6.95 2.19a.387.387 0 0 0-.26 0c-.702.22-1.387.49-2.05.81-2 .89-5 2.19-8 2.13.265-.135.543-.242.83-.32 1.972-.598 7.037-3.616 7.886-4.122a7.04 7.04 0 0 1 .114-.068.504.504 0 0 0 .175-.177c3.995-1.982 7.888-4.575 10.133-7.638.26-.38 30.68-56.38 32.84-67.38.09-.46.25-.76.46-.76ZM9.715 297.4c-1.776.567-3.302.945-4.367 1.115a.39.39 0 0 0-.33.34.37.37 0 0 0 .23.4c.196.064.867.09 1.772.091a.88.88 0 0 1 .05-.426c.19-.51.8-.91 1.87-1.23.218-.065.48-.165.775-.29Z" fill="#2851A3"/><path d="M77.973 195.975s-11.26-1.453-12.229-11.565c-1.41-12.312 14.594-16.6 20.114-11.593 2.338 2.117 4.856 6.419 4.856 6.419l3.915 2.919a.223.223 0 0 1-.042.387l-1.605.803c1.73 4.509 2.808 7.995-.954 10.223-.678.345-2.214.843-3.306 1.037 0 0-2.421.775-3.417 3.362-1.425 3.444-2.034 5.92-2.034 5.92" fill="#EBEBEB"/><path d="M73.403 172.576c-4.372 1.923-7.836 5.896-7.162 11.777l.001.009c.464 4.841 3.379 7.609 6.222 9.185a17.83 17.83 0 0 0 5.118 1.854c.149.029.265.049.343.061l.087.013.02.003.005.001a.5.5 0 0 1-.128.991l.06-.465-.06.465h-.004l-.008-.001-.027-.004a11.984 11.984 0 0 1-.477-.082 18.814 18.814 0 0 1-5.414-1.961c-3.028-1.678-6.226-4.692-6.732-9.96-.735-6.428 3.097-10.754 7.754-12.801 2.326-1.023 4.877-1.489 7.212-1.376 2.328.114 4.488.808 5.98 2.162m-12.79.129c2.19-.962 4.586-1.398 6.761-1.292l-6.76 1.292Zm6.761-1.292c2.181.106 4.09.754 5.358 1.904l-5.358-1.904Zm5.358 1.904c1.124 1.017 2.31 2.581 3.229 3.916l-3.229-3.916Zm3.229 3.916a45.6 45.6 0 0 1 1.109 1.692l-1.11-1.692Zm1.109 1.692c.134.215.24.389.313.509l-.313-.509Zm.313.509.082.137-.082-.137Zm.082.137.02.036-.02-.036Zm.02.036.006.008-.005-.008Zm.006.008v.002-.002Zm0 .002Zm0 0c.035.058.08.109.134.149l3.558 2.653-1.214.607a.5.5 0 0 0-.243.627c.87 2.271 1.534 4.185 1.549 5.793.007.788-.144 1.483-.493 2.102-.348.616-.912 1.191-1.785 1.71-.632.319-2.105.798-3.153.984a.488.488 0 0 0-.065.016l.153.476-.153-.476-.002.001h-.003l-.008.003-.027.01-.093.034c-.078.03-.187.075-.32.136a6.656 6.656 0 0 0-1.018.595 6.29 6.29 0 0 0-2.258 2.873 52.895 52.895 0 0 0-1.563 4.288 37.627 37.627 0 0 0-.46 1.579l-.012.044-.011.044-.006.023-.002.006v.002l.485.12-.485-.12a.501.501 0 0 0 .97.24l.002-.006.005-.02.021-.081c.019-.072.047-.179.086-.32.078-.281.197-.692.36-1.211.327-1.038.83-2.505 1.537-4.211l.004-.012a5.284 5.284 0 0 1 1.905-2.422 5.556 5.556 0 0 1 1.12-.614l.052-.02c1.127-.205 2.684-.708 3.407-1.077l.028-.015c1-.592 1.708-1.286 2.16-2.087.453-.802.63-1.678.621-2.603-.015-1.705-.666-3.641-1.453-5.719l1.188-.594c.53-.237.552-.936.124-1.244l-3.83-2.856-.064-.106a47.875 47.875 0 0 0-1.455-2.252c-.925-1.346-2.166-2.991-3.38-4.09m8.148 10.118a.029.029 0 0 0-.007-.005l.007.005Z" fill="#2851A3"/><path d="m78.712 185.294-.003-.001-.015-.006-.066-.022a5.66 5.66 0 0 0-1.067-.239 2.917 2.917 0 0 0-.898.015c-.266.054-.46.157-.586.309-.232.286-.312.547-.314.77a1.13 1.13 0 0 0 .245.682c.34.459 1.014.836 1.806.915h.004c.588.062 1.244-.134 1.79-.379a6.569 6.569 0 0 0 .83-.45l.026-.017.018-.013.01-.007.002-.001a.5.5 0 0 1 .786.382l.913 16.642a.5.5 0 0 1-.5.527H61.028a.5.5 0 0 1-.46-.696v-.001l.003-.006.013-.033.055-.142c.048-.129.118-.328.205-.599.172-.541.407-1.369.653-2.502.392-1.811.811-4.402 1.04-7.848-.19.962-.417 1.941-.695 2.977-.833 3.109-2.504 6.221-5.34 7.96a.5.5 0 1 1-.522-.852c2.532-1.553 4.098-4.389 4.897-7.367.806-3.008 1.176-5.524 1.479-8.634v-.001c.374-3.74 1.208-7.372 2.345-10.114.159-.389.33-.769.515-1.137.193-.391.394-.756.6-1.093a.46.46 0 0 1 .055-.073 11.719 11.719 0 0 1 3.052-3.293l.002-.002c4.73-3.407 9.095-4.056 12.667-3.346 3.552.707 6.276 2.751 7.76 4.663 1.289 1.662 2.078 3.767 2.399 4.624v.001l.093.244a.5.5 0 0 1-.286.649l-5.768 2.227a.5.5 0 0 1-.623-.234l-1.09-2.081.474 2.359a.5.5 0 0 1-.31.565l-5.563 2.148.68 1.892a.5.5 0 0 1-.645.638Z" fill="#2851A3"/><path d="m80.242 188.173-1.01.291a4.262 4.262 0 0 1-2.13.11c-.872-.166-1.73-.76-2.172-1.535-.277-.484-.955-2.462.94-3.196.761-.29 2.186.443 2.601.581" fill="#EBEBEB"/><path d="M76.05 184.31c.082-.031.222-.047.43-.022.202.025.43.083.665.16a10.14 10.14 0 0 1 .784.299c.145.061.286.119.384.152a.5.5 0 0 0 .316-.949 5.35 5.35 0 0 1-.285-.113l-.157-.065a10.625 10.625 0 0 0-.731-.274 4.523 4.523 0 0 0-.856-.202c-.286-.035-.61-.033-.908.08l-.002.001c-.558.216-.958.537-1.22.928-.26.388-.364.812-.383 1.204a3.538 3.538 0 0 0 .409 1.778c.517.906 1.502 1.586 2.512 1.778.79.152 1.606.125 2.37-.123l1.002-.288a.5.5 0 0 0-.276-.961l-1.01.29-.017.005a3.759 3.759 0 0 1-1.88.095h-.002c-.733-.139-1.463-.649-1.83-1.292a2.557 2.557 0 0 1-.28-1.231 1.36 1.36 0 0 1 .215-.698c.135-.2.36-.401.75-.552Z" fill="#2851A3"/><path d="M82.067 180.452a.5.5 0 0 0-.554-.439l-3.1.36a.498.498 0 0 0-.438.554l2.684 23.088a.5.5 0 0 0 .554.439l3.099-.359a.5.5 0 0 0 .439-.554l-2.684-23.089Z" fill="#2851A3"/><path d="M70.542 258.168h.019a.5.5 0 1 1-.005 1c-4.346-.019-8.93-1.187-13.457-2.34-.595-.152-1.19-.303-1.782-.452-5.14-1.288-10.166-2.364-14.842-1.668a.5.5 0 0 1-.442-.832c8.727-9.537 11.957-19.478 14.834-28.336.982-3.022 1.923-5.919 3.027-8.63 3.995-9.811 11.086-14.566 13.952-15.569 4.762-1.666 8.14-1.263 10.451.651 2.274 1.882 3.373 5.115 3.87 8.768.499 3.671.404 7.882.19 11.842a331.62 331.62 0 0 1-.242 3.896c-.163 2.47-.311 4.714-.311 6.536a.5.5 0 0 1-.245.43c-2.44 1.448-6.698 3.246-10.316 4.673-1.816.716-3.48 1.343-4.691 1.79l-.6.221.59 18.02Z" fill="#42BDEB"/><path d="M50.735 254.643c-1.452 4.288-1.494 4.758-2.988 9.517l24.278-5.935-21.29-3.582Z" fill="#EBEBEB"/><path d="M50.261 254.482a.5.5 0 0 1 .557-.332l21.29 3.582a.5.5 0 0 1 .036.979l-24.278 5.935a.499.499 0 0 1-.596-.636c.567-1.805.925-2.994 1.231-4.013.498-1.654.86-2.858 1.76-5.515Zm.811.724a135.95 135.95 0 0 0-1.608 5.062c-.256.851-.55 1.827-.975 3.196l21.06-5.148-18.477-3.11Z" fill="#2851A3"/><path d="M129.86 285.379a.5.5 0 0 1-.495.432h-27.708a.5.5 0 0 1-.459-.7 780.198 780.198 0 0 1 2.558-5.771c-12.662 16.706-26.824 20.631-36.025 20.526-6.543-.078-13.137-2.801-17.355-8.665-4.22-5.867-6-14.791-3.101-27.155a.498.498 0 0 1 .374-.373c3.802-.875 7.45-1.773 11.099-2.671l.293-.072c3.745-.921 7.494-1.842 11.407-2.736a.499.499 0 0 1 .385.07l8 5.236c4.03-4.755 8.926-10.953 13.955-17.318l.001-.002c1.226-1.552 2.46-3.113 3.691-4.667 6.393-8.066 12.716-15.907 17.444-20.886 3.455-3.633 8.836-5.331 13.383-4.402 2.284.466 4.37 1.598 5.882 3.493 1.513 1.897 2.42 4.518 2.417 7.908-.007 8.189-1.446 22.639-2.879 35.016a1181.86 1181.86 0 0 1-2.62 20.926l-.182 1.342-.065.469Z" fill="#4C88FF"/><path d="M49.324 259.014c-1.784.124-11.578-3.915-8.922-4.593 2.587-.664 10.333.222 10.333.222l-1.41 4.371Z" fill="#2851A3"/><path d="M40.565 254.896c.046.047.105.101.178.161.519.428 1.499.97 2.664 1.507a34.964 34.964 0 0 0 3.554 1.405c.554.183 1.057.329 1.471.424.214.049.392.082.535.102l1.104-3.42a91.56 91.56 0 0 0-3.563-.293 49.082 49.082 0 0 0-3.395-.106c-1.062.01-1.963.077-2.548.22Zm10.17-.253.057-.497a.5.5 0 0 1 .42.65l-1.412 4.372a.5.5 0 0 1-.44.345c-.304.021-.715-.045-1.152-.146a17.984 17.984 0 0 1-1.56-.448 36.283 36.283 0 0 1-3.66-1.446c-1.173-.542-2.255-1.129-2.882-1.645a2.663 2.663 0 0 1-.416-.415 1.077 1.077 0 0 1-.238-.546.767.767 0 0 1 .257-.652c.16-.145.368-.227.57-.278.709-.182 1.73-.251 2.824-.261a50.1 50.1 0 0 1 3.466.108 89.128 89.128 0 0 1 4.134.352l.066.007.023.003-.057.497Z" fill="#2851A3"/><path d="M69.84 239.992s.096 8.798.843 16.213c1.148 7.028 6.183 10.251 12.492 6.032 4.869-3.445 9.282-10.03 12.63-14.968 5.644-8.314 6.612-11.025 12.09-18.994 0 0 2.407-1.853 6.031-3.209 3.625-1.356 5.561-5.187 5.561-5.187s6.295-3.321 12.132-1.066c.319.125-.415-1.438-2.766-1.95-4.289-.913-6.654-.415-10.804.276-5.921.996-12.008 5.921-12.008 5.921-11.51 12.852-13.515 15.259-24.374 26.353l1.466-1.494.318-13.82" fill="#EBEBEB"/><path d="M69.84 239.992s.096 8.798.843 16.213c1.148 7.028 6.183 10.251 12.492 6.032 4.869-3.445 9.282-10.03 12.63-14.968 5.644-8.314 6.612-11.025 12.09-18.994 0 0 2.407-1.853 6.031-3.209 3.625-1.356 5.561-5.187 5.561-5.187s6.295-3.321 12.132-1.066c.319.125-.415-1.438-2.766-1.95-4.289-.913-6.654-.415-10.804.276-5.921.996-12.008 5.921-12.008 5.921-11.51 12.852-13.515 15.259-24.374 26.353l1.466-1.494.318-13.82" fill="#EBEBEB"/><path d="M118.678 216.527c3.728-.627 6.144-1.033 10.279-.153l.002.001c1.271.276 2.128.842 2.633 1.349.247.248.424.497.517.707.024.054.047.115.062.179.013.057.03.155.009.266a.536.536 0 0 1-.323.404.562.562 0 0 1-.418 0c-2.788-1.077-5.707-.829-7.959-.293a19.114 19.114 0 0 0-2.73.872 15.211 15.211 0 0 0-.897.396l-.019.035a11.54 11.54 0 0 1-.282.474c-.248.395-.616.936-1.101 1.52-.967 1.162-2.424 2.531-4.349 3.251a26.384 26.384 0 0 0-4.293 2.073c-.517.311-.923.579-1.197.768-.137.095-.242.17-.311.221l-.04.029c-2.703 3.935-4.299 6.58-5.921 9.275l-.078.129c-1.608 2.674-3.259 5.417-6.044 9.52l-.219.323c-3.305 4.877-7.684 11.34-12.536 14.772l-.01.008c-3.253 2.175-6.289 2.497-8.693 1.228-2.38-1.257-3.982-3.994-4.57-7.595a.44.44 0 0 1-.004-.03c-.376-3.723-.587-7.788-.705-10.919a248.95 248.95 0 0 1-.14-5.237l-.002-.101.5-.006.5-.006.001.1.005.29a249.765 249.765 0 0 0 .136 4.923c.117 3.117.327 7.152.698 10.84.562 3.418 2.05 5.801 4.048 6.857 1.977 1.043 4.61.868 7.664-1.172 4.699-3.326 8.992-9.661 12.334-14.592l.166-.244c2.77-4.08 4.409-6.805 6.015-9.475l.078-.129c1.634-2.716 3.251-5.396 5.999-9.392a.5.5 0 0 1 .107-.113l.305.396-.305-.396.003-.003.006-.005.024-.017.087-.065a22.778 22.778 0 0 1 1.584-1.039 27.473 27.473 0 0 1 4.457-2.153c1.699-.635 3.023-1.861 3.931-2.953a13.106 13.106 0 0 0 1.279-1.843l.062-.114.015-.028.003-.006a.496.496 0 0 1 .213-.217l.233.442-.233-.442.003-.002.004-.002.016-.008.059-.03a16.496 16.496 0 0 1 1.038-.463c.7-.283 1.693-.637 2.875-.918 1.906-.454 4.333-.727 6.807-.188a4.967 4.967 0 0 0-1.309-.474c-3.945-.84-6.196-.462-9.923.165l-.693.116c-2.868.483-5.807 1.925-8.049 3.27a38.808 38.808 0 0 0-2.705 1.778 31.128 31.128 0 0 0-.956.717l-.035.027a7717.127 7717.127 0 0 0-4.125 4.612c-7.605 8.508-10.498 11.745-18.726 20.18a.49.49 0 0 1-.045.053l-1.466 1.493a.5.5 0 0 1-.715-.699c0-.001 0 0 0 0l1.329-1.36.313-13.616a.5.5 0 1 1 1 .023l-.289 12.542c7.576-7.785 10.517-11.075 17.852-19.281 1.244-1.392 2.614-2.925 4.155-4.645a.503.503 0 0 1 .058-.055l.314.389-.314-.389.005-.005.015-.011.054-.044.209-.162a39.6 39.6 0 0 1 3.558-2.405c2.281-1.367 5.346-2.885 8.398-3.398l.712-.12Zm-48.839 23.466.5-.006a.5.5 0 1 0-1 .012l.5-.006Zm46.35 9.179a.5.5 0 0 1 .275.652L104.443 279.4a.5.5 0 0 1-.926-.377l12.021-29.576a.5.5 0 0 1 .651-.275Zm18.199-3.432a.5.5 0 0 1 .433.559l-4.96 39.076a.501.501 0 0 1-.496.437h-6.599a.5.5 0 0 1 0-1h6.158l4.905-38.639a.5.5 0 0 1 .559-.433Z" fill="#2851A3"/><path d="M68.858 227.127a.5.5 0 0 1 .455.542l-1.05 12.152 16.945-7.096a.501.501 0 0 1 .386.923l-17.706 7.415a.502.502 0 0 1-.692-.505l1.12-12.975a.5.5 0 0 1 .542-.456Zm47.312 66.309a.5.5 0 0 1 .063.704l-1.55 1.854a.5.5 0 1 1-.767-.642l1.549-1.853a.5.5 0 0 1 .705-.063Zm2.573.912a.5.5 0 0 1 .063.704l-1.55 1.854a.5.5 0 1 1-.767-.642l1.55-1.853a.5.5 0 0 1 .704-.063Z" fill="#2851A3"/><path d="M175.2 159.812a.5.5 0 0 1 .5-.5h79.275a.5.5 0 0 1 0 1H175.7a.5.5 0 0 1-.5-.5Zm0 11.592a.5.5 0 0 1 .5-.5h55.672a.5.5 0 0 1 0 1H175.7a.5.5 0 0 1-.5-.5Zm85.337-98.371a2 2 0 1 0 0-4 2 2 0 0 0 0 4Zm3-2a3 3 0 1 1-6 0 3 3 0 0 1 6 0Zm6.999 2a2 2 0 1 0 0-4 2 2 0 0 0 0 4Zm3-2a3 3 0 1 1-6 0 3 3 0 0 1 6 0Zm9.999 0a3 3 0 1 1-6 0 3 3 0 0 1 6 0Z" fill="#E0E0E0"/><path d="M178.876 103.389h-53.925v30.814h53.925v-30.814Z" fill="#41CCB9"/><g clip-path="url(#udt9xq3jeytc)"><path d="M169.493 134.625c-.124-.737-.124-1.502-.234-2.74-.29-3.38-2.496-5.314-4.275-8.012-1.669-2.504-2.358-5.758-2.717-8.721a11.45 11.45 0 0 0-.551-2.448c-.635-1.808-1.724-3.505-3.545-4.771-3.682-2.462-8.398-1.961-11.68.195-2.799 1.836-4.013 4.228-4.551 7.469-.565 3.408-3.406 5.383-4.357 8.596-.607 2.059-.083 4.312-.662 6.384-.428 1.53-1.393 2.796-2.386 4.048h34.958Z" fill="#2851A3"/><path d="M146.217 107.71c3.417-2.245 8.353-2.786 12.232-.192l.008.005c1.922 1.336 3.068 3.128 3.73 5.016l.001.001c.288.83.475 1.686.575 2.553.357 2.946 1.036 6.101 2.637 8.503l.001.002c.435.66.897 1.274 1.36 1.89l.006.008a33.75 33.75 0 0 1 1.332 1.854c.837 1.285 1.503 2.692 1.658 4.491.043.488.07.906.093 1.271l.02.297c.029.437.059.791.116 1.133a.498.498 0 0 1-.493.583h-34.958a.502.502 0 0 1-.451-.282.503.503 0 0 1 .059-.529c.999-1.259 1.899-2.451 2.296-3.871.268-.961.285-1.973.302-3.063v-.008c.017-1.069.036-2.215.362-3.32v-.001c.458-1.547 1.331-2.82 2.151-4.016l.239-.348c.898-1.32 1.691-2.586 1.954-4.172.554-3.342 1.826-5.874 4.77-7.805Zm23.54 24.131v.001l-.498.043.498-.044Zm-11.867-23.495c-3.485-2.327-7.979-1.866-11.125.2-2.655 1.741-3.811 3.993-4.332 7.133l-.493-.082.493.082c-.302 1.822-1.213 3.248-2.114 4.571l-.23.336c-.832 1.216-1.616 2.361-2.027 3.748m19.828-15.988c1.715 1.195 2.747 2.796 3.353 4.523.263.755.435 1.539.527 2.341l.001.002c.36 2.979 1.06 6.332 2.796 8.937.453.688.933 1.326 1.392 1.936l.003.004c.463.616.904 1.202 1.299 1.807.783 1.202 1.364 2.451 1.499 4.032l.001.001c.042.475.068.876.091 1.24l.02.307c.015.226.031.44.052.649h-33.366c.769-1.018 1.483-2.122 1.844-3.413.304-1.086.321-2.21.338-3.257l.001-.067c.017-1.09.04-2.1.321-3.053" fill="#2851A3"/><path d="M158.171 134.625c-.234-1.099-.4-2.643-.4-4.868l-10.674-7.038c.125 5.633.442 9.5.138 11.906" fill="#EBEBEB"/><path d="M146.856 122.281a.5.5 0 0 1 .517.02l10.673 7.038a.5.5 0 0 1 .225.418c0 2.203.164 3.709.389 4.764a.5.5 0 1 1-.978.208c-.234-1.097-.397-2.597-.41-4.702l-9.652-6.364c.037 1.376.083 2.636.125 3.792.031.86.06 1.662.081 2.413.057 1.969.063 3.573-.095 4.82a.5.5 0 0 1-.992-.126c.146-1.159.145-2.692.088-4.666-.021-.734-.05-1.531-.081-2.388a313.38 313.38 0 0 1-.148-4.778.498.498 0 0 1 .258-.449Zm1.483-14.682c1.6 0 2.896-1.307 2.896-2.921 0-1.613-1.296-2.921-2.896-2.921-1.6 0-2.896 1.308-2.896 2.921 0 1.614 1.296 2.921 2.896 2.921Z" fill="#2851A3"/><path d="M144.943 104.678c0-1.885 1.516-3.421 3.396-3.421s3.396 1.536 3.396 3.421c0 1.886-1.516 3.421-3.396 3.421s-3.396-1.535-3.396-3.421Zm3.396-2.421c-1.319 0-2.396 1.08-2.396 2.421a2.408 2.408 0 0 0 2.396 2.421 2.408 2.408 0 0 0 2.396-2.421c0-1.341-1.076-2.421-2.396-2.421Z" fill="#2851A3"/><path d="M152.931 108.489s-.014 0 0 0c-.014 0-.014 0 0 0-4.854 0-8.771 3.811-8.771 8.512 0 4.701 1.131 5.717 3.407 5.717l5.364 2.796h.014c8.757 0 8.715-3.408 8.715-8.096-.013-4.715-3.902-8.929-8.729-8.929Z" fill="#EBEBEB"/><path d="M152.893 125.789a.514.514 0 0 1-.24-.06l-5.25-2.74c-2.75-.05-3.78-1.75-3.78-6.22a9.16 9.16 0 0 1 9.26-9 9.48 9.48 0 0 1 9.23 9.43c0 2.48 0 4.57-1.19 6.13-1.19 1.56-3.84 2.46-8.03 2.46Zm0-17a8.158 8.158 0 0 0-8.27 8c0 4.85 1.2 5.22 2.91 5.22.08 0 .159.021.23.06l5.25 2.74c3.79 0 6-.68 7.12-2.08s1-3.22 1-5.45a8.467 8.467 0 0 0-8.25-8.52l.01.03Z" fill="#2851A3"/><path d="M161.578 116.237c.4 2.851.524 6.189-.111 8.777-.744 3.046-2.882 5.062-6.095 5.396-1.889.195-3.848-.528-5.254-1.78-1.421-1.266-2.8-2.963-3.006-5.898" fill="#EBEBEB"/><path d="M161.578 116.237c.4 2.851.524 6.189-.111 8.777-.744 3.046-2.882 5.062-6.095 5.396-1.889.195-3.848-.528-5.254-1.78-1.421-1.266-2.8-2.963-3.006-5.898" stroke="#2851A3" stroke-linecap="round" stroke-linejoin="round"/><path d="M154.713 130.709a7.66 7.66 0 0 1-5-1.93 8.746 8.746 0 0 1-2.235-2.79 8.745 8.745 0 0 1-.935-3.45.49.49 0 0 1 .122-.364.517.517 0 0 1 .154-.12.516.516 0 0 1 .383-.026.514.514 0 0 1 .289.251c.03.059.047.123.052.189a7.69 7.69 0 0 0 .829 3.082 7.7 7.7 0 0 0 2.011 2.478 6.456 6.456 0 0 0 4.87 1.65 6.187 6.187 0 0 0 5.66-5c.526-2.836.56-5.742.1-8.59a.501.501 0 0 1 .43-.57.501.501 0 0 1 .57.43c.482 2.984.441 6.03-.12 9a7.218 7.218 0 0 1-6.53 5.78l-.65-.02Z" fill="#2851A3"/><path d="M158.475 118.25a.5.5 0 0 1 .587.394l.797 4.058a.5.5 0 1 1-.981.193l-.797-4.058a.5.5 0 0 1 .394-.587Zm-10.191 1.255c.11-2.225 12.369 0 12.369-8.317 0 0-3.392-6.093-11.914-2.407-4.055 1.753-4.91 7.567-4.482 10.724.179 1.308.979 1.391 2.454 1.35.497 0 .938-1.35 1.573-1.35Z" fill="#2851A3"/><path d="m161.09 110.944-.437.244.437-.243a.492.492 0 0 1 .063.243c0 2.223-.827 3.782-2.09 4.874-1.24 1.073-2.867 1.668-4.433 2.055-.998.247-2.031.421-2.935.573-.492.083-.945.159-1.334.237-.578.117-1.012.235-1.295.373a.791.791 0 0 0-.251.169c-.03.033-.031.049-.032.062a.5.5 0 0 1-.493.475.362.362 0 0 0-.112.08c-.099.09-.203.222-.331.393l-.044.06a5.06 5.06 0 0 1-.364.451c-.132.138-.377.361-.719.365-.711.02-1.397.021-1.923-.211a1.583 1.583 0 0 1-.709-.599c-.175-.272-.276-.599-.327-.971v-.001c-.223-1.648-.111-3.967.58-6.11.691-2.14 1.989-4.185 4.199-5.14m11.612 3.004a6.284 6.284 0 0 0-.537-.703 7.434 7.434 0 0 0-1.966-1.584c-1.768-.982-4.583-1.585-8.712.201-1.844.797-3.001 2.535-3.644 4.53-.643 1.991-.745 4.158-.541 5.667.039.281.105.455.177.565a.586.586 0 0 0 .27.226c.281.123.719.147 1.455.127a.456.456 0 0 0 .062-.058c.083-.086.169-.202.283-.355l.046-.062a3.84 3.84 0 0 1 .458-.533 1.4 1.4 0 0 1 .373-.253c.149-.331.455-.55.752-.694.408-.198.95-.336 1.536-.454.451-.091.933-.172 1.439-.256.872-.146 1.814-.304 2.787-.545 1.512-.374 2.957-.921 4.019-1.84 1.015-.878 1.71-2.12 1.743-3.979Zm.938-.383v-.001.001Zm0-.001-.002-.002.002.002Zm-.002-.002-.003-.005.003.005Zm-.003-.005-.01-.018.01.018Zm-.01-.018a2.322 2.322 0 0 0-.036-.06l.036.06Zm-.036-.06a4.487 4.487 0 0 0-.136-.207l.136.207Zm-.136-.207a7.255 7.255 0 0 0-.537-.687l.537.687Zm-.537-.687a8.43 8.43 0 0 0-2.231-1.798l2.231 1.798Zm-2.231-1.798c-2.059-1.143-5.201-1.743-9.595.157l9.595-.157Z" fill="#2851A3"/><path d="M148.021 123.197c-.62-.042-1.585-.237-2.109-.585-.649-.417-1.159-1.168-1.269-1.947-.069-.487 0-2.323 1.751-2.323.704 0 1.655.918 1.945 1.155" fill="#EBEBEB"/><path d="M145.294 119.522a2.263 2.263 0 0 0-.156 1.073c.088.626.51 1.253 1.044 1.597l.006.004c.193.128.502.247.865.339.355.09.722.144 1.002.163a.5.5 0 1 1-.067.997 6.782 6.782 0 0 1-1.181-.191c-.404-.102-.838-.254-1.169-.473-.761-.491-1.358-1.365-1.49-2.296a3.244 3.244 0 0 1 .23-1.614c.141-.322.362-.647.703-.891.346-.247.783-.388 1.313-.388.278 0 .545.089.771.194.231.108.452.249.647.388.288.206.566.447.728.588l.115.097a.5.5 0 1 1-.633.775 11.195 11.195 0 0 1-.182-.155 8.143 8.143 0 0 0-.609-.492 3.224 3.224 0 0 0-.488-.294.882.882 0 0 0-.349-.101c-.346 0-.574.089-.731.202a1.118 1.118 0 0 0-.369.478Z" fill="#2851A3"/></g><path d="M124.951 134.203h1.284v25.678h-1.284v-25.678Z" fill="#41CCB9"/><path d="M124.451 134.203a.5.5 0 0 1 .5-.5h1.284a.5.5 0 0 1 .5.5v25.678a.5.5 0 0 1-.5.5h-1.284a.5.5 0 0 1-.5-.5v-25.678Zm1 .5v24.678h.284v-24.678h-.284Z" fill="#41CCB9"/><path d="M313.299 165.27h-53.925v30.814h53.925V165.27Z" fill="#FAC823"/><g clip-path="url(#udy7kyawfgld)"><path d="M278.943 197.722c2.047-.653 1.656-5.445 1.747-10.877h11.682c-.143 9.332-.273 9.692 1.617 10.69" fill="#EBEBEB"/><path d="M280.19 186.837a.5.5 0 0 1 .5-.492h11.682a.501.501 0 0 1 .5.508l-.025 1.602c-.059 3.653-.091 5.622.067 6.794.087.649.225.978.398 1.198.179.228.438.396.911.646a.5.5 0 0 1-.467.884c-.473-.249-.907-.5-1.23-.912-.33-.42-.505-.951-.604-1.683-.168-1.252-.134-3.31-.076-6.914l.018-1.123h-10.681c-.009.705-.01 1.402-.012 2.081-.004 1.736-.008 3.357-.123 4.693-.086.994-.237 1.883-.518 2.579-.283.7-.728 1.274-1.436 1.5a.5.5 0 1 1-.303-.953c.315-.1.589-.37.812-.921.224-.557.365-1.327.448-2.291.112-1.295.116-2.844.12-4.551.001-.846.003-1.732.019-2.645Z" fill="#2851A3"/><path d="M287.065 168.434s.013 0 0 0h.013c4.994 0 9.036 4.1 9.036 9.159 0 5.058.261 6.736-8.775 6.736 0 0-.261 2.423-.274 2.423h-.013c-9.035 0-8.996-3.661-8.996-8.72.026-5.059 4.029-9.598 9.009-9.598Z" fill="#EBEBEB"/><path d="M294.68 178.751c.417-.626 1.174-.533 1.539-.173.639.612.56 1.611.456 2.223-.248 1.598-1.369 3.768-2.882 3.768" fill="#EBEBEB"/><path d="M295.486 178.795a.472.472 0 0 0-.39.233.5.5 0 1 1-.832-.554 1.471 1.471 0 0 1 1.188-.679 1.54 1.54 0 0 1 1.115.424c.429.412.6.939.655 1.412.055.47.002.926-.053 1.25a6.935 6.935 0 0 1-1.046 2.682c-.533.79-1.322 1.506-2.33 1.506a.5.5 0 0 1 0-1c.505 0 1.033-.37 1.501-1.065a5.947 5.947 0 0 0 .887-2.279l.001-.008c.049-.287.086-.636.047-.969-.039-.332-.148-.609-.356-.809l-.005-.005a.539.539 0 0 0-.382-.139Z" fill="#2851A3"/><path d="M294.367 181.507c0 2.636-.587 3.701-1.095 5.471-.809 2.836-2.647 3.675-4.147 4.46-2.477 1.318-5.789.959-7.718-.839-2.778-2.609-3.338-7.708-3.338-11.968" fill="#EBEBEB"/><path d="M278.069 178.131a.5.5 0 0 1 .5.5c0 2.113.139 4.411.615 6.492.476 2.087 1.279 3.903 2.564 5.111 1.761 1.639 4.837 1.989 7.143.763l.002-.002.208-.108c.699-.364 1.395-.726 2.025-1.284.678-.6 1.287-1.437 1.665-2.762v-.001c.118-.409.236-.774.35-1.124.394-1.213.726-2.235.726-4.209a.5.5 0 0 1 1 0c0 2.144-.384 3.323-.788 4.562-.11.338-.221.68-.327 1.047l-.48-.138.481.137c-.431 1.511-1.145 2.512-1.964 3.236-.727.644-1.532 1.062-2.22 1.42l-.21.109c-2.649 1.409-6.195 1.04-8.293-.915l-.002-.001c-1.492-1.402-2.358-3.439-2.855-5.618-.5-2.186-.64-4.567-.64-6.715a.5.5 0 0 1 .5-.5Z" fill="#2851A3"/><path d="m285.827 179.217-.469 4.726.469-4.726Z" fill="#EBEBEB"/><path d="M285.876 178.719a.5.5 0 0 1 .448.547l-.469 4.726a.499.499 0 1 1-.995-.099l.469-4.726a.501.501 0 0 1 .547-.448Z" fill="#2851A3"/><path d="M294.245 182.341h.119a.487.487 0 0 0 .461-.25c1.88-3.71 3.14-9.23.52-12.57-1.85-2.85-5.53-3.31-6.43-3.37a8.762 8.762 0 0 0-3.741-1.73 4.49 4.49 0 0 0-1.797-.148 4.494 4.494 0 0 0-1.712.568 2.53 2.53 0 0 0-1.19 1.85c-.031.363.031.727.18 1.06a6.108 6.108 0 0 0-3.231 1.78 5.361 5.361 0 0 0-1.689 4.4.484.484 0 0 0 .139.356.5.5 0 0 0 .351.154h.75a15.46 15.46 0 0 0 .78 5.33.511.511 0 0 0 .5.33.487.487 0 0 0 .46-.39l1.179-5.37 12.291-.05c.15 1.15.619 3.67 1.679 4.67v2.89a.501.501 0 0 0 .381.49Z" fill="#2851A3"/></g><path d="M259.374 196.085h1.284v25.678h-1.284v-25.678Z" fill="#FAC823"/><path d="M187.367 198.92h-8.481v8.481h8.481v-8.481Zm-15.548 0H127.87v8.481h43.949v-8.481Z" fill="#42BDEB"/><defs><clipPath id="udt9xq3jeytc"><path fill="#fff" transform="translate(133.296 100.821)" d="M0 0h37.234v33.382H0z"/></clipPath><clipPath id="udy7kyawfgld"><path fill="#fff" transform="translate(264.613 163.101)" d="M0 0h42v33H0z"/></clipPath><filter id="ud0lgkex92za" x="40.193" y="91.824" width="69.158" height="69.159" filterUnits="userSpaceOnUse" color-interpolation-filters="sRGB"><feFlood flood-opacity="0" result="BackgroundImageFix"/><feBlend in="SourceGraphic" in2="BackgroundImageFix" result="shape"/><feGaussianBlur stdDeviation="7.5" result="effect1_foregroundBlur"/></filter></defs></svg>