<svg width="120" height="120" viewBox="0 0 120 120" fill="none" xmlns="http://www.w3.org/2000/svg"><g clip-path="url(#udoygegybwsa)"><path d="M4.02 18.751c0-4.9 6.467-9.7 18.655-11.97v9.92c-12.198 2.28-18.655 7.08-18.655 11.98v-9.93Z" fill="#0C296E"/><path d="M87.244 38.576a32.9 32.9 0 0 0-.051-4.637 32.86 32.86 0 0 0-.837-5.165c9.84-1.309 19.504-2.402 27.213-2.402.529 0 1.043.01 1.547.018l.701.012v9.92a162.08 162.08 0 0 1-.703-.012 86.629 86.629 0 0 0-1.545-.018c-7.477 0-16.793 1.028-26.325 2.284Zm-64.919 2.231C9.887 38.095 4.007 33.343 4 28.672v-9.93c.007 4.697 5.955 9.482 18.539 12.188a32.676 32.676 0 0 0-.214 9.877ZM47.032 86.79C18.998 86.75 5.37 80.16 4.103 73.4v9.92c1.267 6.76 14.895 13.35 42.929 13.39 3.315 0 6.352-.147 10.674-.616l-3.522-9.575c-3.077.29-4.664.271-7.152.271Z" fill="#3370FF"/><path d="M69.299 65.772c11.54-5.789 19.007-18.166 17.894-31.824-1.464-17.959-17.21-31.33-35.168-29.866-17.958 1.464-31.33 17.21-29.865 35.168 1.464 17.958 17.209 31.33 35.167 29.865a32.812 32.812 0 0 0 5.86-1.016l15.987 37.123a3.286 3.286 0 0 0 4.299 1.723 3.248 3.248 0 0 0 1.714-4.278L69.3 65.772Z" fill="#BBBFC4" fill-opacity=".45"/><path d="M79.825 57.381a32.675 32.675 0 0 1-10.526 8.391l1.211 2.814c2.25-.304 4.543-.623 6.857-.944 12.762-1.773 26.147-3.632 36.203-3.632.766 0 1.522.01 2.247.03v-9.92c-.725-.02-1.471-.03-2.247-.03-9.412 0-21.741 1.629-33.745 3.291ZM63.773 69.462l-.586-1.363a32.81 32.81 0 0 1-5.86 1.016c-9.689.79-18.734-2.739-25.239-8.976C14.096 58.23 5.12 52.916 4.103 47.5v9.93C5.37 64.17 18.998 70.77 47.03 70.8c4.542 0 10.335-.55 16.742-1.338Z" fill="#00D6B9"/><path d="M55.636 43.362a.5.5 0 0 1 .539.457l.503 6.171a.5.5 0 0 1-.997.081l-.503-6.17a.5.5 0 0 1 .458-.54Zm-13.308-4.05a.5.5 0 0 1 .04.706l-4.226 4.742a.5.5 0 0 1-.746-.666l4.226-4.741a.5.5 0 0 1 .706-.04Zm25.787-2.092a.5.5 0 0 1 .703-.075l4.928 3.985a.5.5 0 1 1-.63.778l-4.927-3.985a.5.5 0 0 1-.074-.704Z" fill="#0C296E"/><path d="M71.267 31.64a.5.5 0 0 1 .269.654C68.763 38.922 62.84 43.76 55.603 44.35c-7.237.59-13.856-3.227-17.674-9.317a.5.5 0 1 1 .847-.531c3.646 5.815 9.927 9.407 16.745 8.851 6.819-.556 12.445-5.119 15.09-11.446a.5.5 0 0 1 .655-.268Zm3.603 36.445a.5.5 0 0 1 .48-.158l-.106.489-.374-.331Zm27.791 6.508c-6.196-1.718-13.015-3.382-18.288-4.618a680.197 680.197 0 0 0-8.852-2.01l-.171-.038-.106.489-.374-.331-.105.117-.3.34-1.12 1.256c-.862.963-2.032 2.268-3.368 3.744a.502.502 0 0 0-.14-.008c-5.087.415-10.584 1.483-14.57 4.442-1.407 1.044-1.874 2.973-1.83 5.172.046 2.226.618 4.886 1.472 7.598 1.708 5.425 4.588 11.191 6.869 14.36 1.794 2.492 3.88 4.152 6.417 5.037 2.529.882 5.459.977 8.919.422 6.884-1.106 16.03-4.82 28.602-10.349l8.026-.654a.5.5 0 1 0-.081-.997l-8.11.661a.507.507 0 0 0-.161.041c-12.644 5.561-21.688 9.227-28.435 10.31l-.098.016c.834-.234 1.588-.513 2.05-.859.23-.172.47-.421.528-.765.063-.376-.114-.694-.354-.928-.254-.249-.647-.435-1.072-.587a12.807 12.807 0 0 0-1.591-.428c-1.218-.257-2.746-.472-4.359-.651a138.556 138.556 0 0 0-5.826-.503c.453-.036.934-.079 1.433-.132 2.792-.293 6.219-.874 8.535-2.043 2.296-1.16 3.57-2.463 4.236-3.774.665-1.309.691-2.562.61-3.554a.47.47 0 0 0-.004-.035c-.454-2.947-1.998-8.182-8.229-10.868 1.708-1.054 3.07-2.31 4.383-3.994-.11 6.803 5.28 12.89 11.453 15.362a.5.5 0 1 0 .372-.928c-6.46-2.588-11.806-9.21-10.673-16.116a.5.5 0 0 0-.907-.361c-2.226 3.289-4.3 5.052-7.905 6.585-1.179.502-2.72 1.103-4.316 1.504-1.605.403-3.212.59-4.541.31-.362-.076-.534-.307-.573-.601-.042-.323.08-.737.401-1.064 2.962-3.018 6.741-7.123 9.776-10.47a794.503 794.503 0 0 0 4.928-5.487l.212-.24.379.084c.431.095 1.063.234 1.859.413 1.592.356 3.844.867 6.483 1.486 5.28 1.237 12.104 2.903 18.294 4.62.029.008.06.014.091.016l13.059 1.102a.5.5 0 1 0 .085-.997l-13.013-1.097ZM71.811 85.04a.495.495 0 0 0 .23.186c2.515 1.008 4.245 2.447 5.44 3.99l-22.287-1.13c-.452-1.801-.727-3.495-.757-4.96-.02-.963.067-1.796.26-2.487a.51.51 0 0 0 .241.162c1.65.506 2.637.747 3.617.986.864.211 1.722.42 3.04.814-.624.652-1.228 1.277-1.8 1.86-.516.526-.766 1.24-.68 1.896.091.682.55 1.278 1.358 1.448 1.55.327 3.332.099 4.992-.318 1.669-.42 3.266-1.044 4.464-1.553a23.768 23.768 0 0 0 1.882-.894Zm6.388 5.213c1.016 1.647 1.506 3.328 1.76 4.668L59.067 97.54a.498.498 0 0 0-.33.187c-1.087-2.306-2.103-4.828-2.875-7.28a43.66 43.66 0 0 1-.4-1.344l22.736 1.152Zm1.878 5.661c.022.788-.077 1.66-.532 2.555-.546 1.074-1.636 2.244-3.795 3.334-2.139 1.08-5.404 1.649-8.189 1.942a58.714 58.714 0 0 1-4.588.296l-.286.005-.074.001h-.023a.497.497 0 0 0-.275.084c-1.006-1.46-2.121-3.411-3.19-5.597a.506.506 0 0 0 .067-.004l20.885-2.616Zm-16.553 9.792c2.254.127 5.503.337 8.425.661 1.6.178 3.091.389 4.262.637.586.124 1.08.255 1.463.391.398.142.617.27.708.359a.52.52 0 0 1 .053.06.624.624 0 0 1-.128.119c-.3.225-.896.466-1.728.698-1.632.456-3.9.811-5.733 1.052a.518.518 0 0 0-.158.049 12.33 12.33 0 0 1-2.163-.534c-1.897-.661-3.536-1.801-5-3.492Zm14.927 2.136-.002-.007.002.007ZM55.006 79.83c.22-.439.506-.79.856-1.05 3.526-2.617 8.381-3.705 13.145-4.168a487.536 487.536 0 0 1-6.64 7.179 56.134 56.134 0 0 0-3.576-.974 55.114 55.114 0 0 1-3.559-.971.5.5 0 0 0-.226-.016Z" fill="#0C296E"/></g><defs><clipPath id="udoygegybwsa"><path fill="#fff" d="M0 0h120v120H0z"/></clipPath></defs></svg>