<svg width="120" height="120" viewBox="0 0 120 120" fill="none" xmlns="http://www.w3.org/2000/svg"><path d="M10.814 87.3V74.615c-6.79 6.537-10.333 12.563-8.2 17.22 2.525 3.44 1.958 6.033 4.005 8.35-1.376-3.746.355-8.15 4.195-12.887Zm94.681-54.111v-9.014c3.296 0 8.493 2.705 9.174 5.96 0 6.13.134 8.794 0 10.975-1.013-3.654-5.05-8.282-9.174-7.921Z" fill="#fff" fill-opacity=".4"/><path d="M38.99 89.997c-21.475 5.673-34.285 5.514-36.854.715l3.161 8.184c2.524 4.437 14.186 5.009 33.694 0v-8.899Z" fill="#4C88FF"/><path d="M99.097 48.74c15.611-8.138 15.649-14.29 15.649-19.589v10.673c0 3.936-1.06 10.218-15.649 18.433V48.74Z" fill="#41CCB9"/><path d="M74.603 87.401c-8.845 4.18-16.308 8.24-26.648 11.086v7.408c13.03-3.53 17.682-5.713 26.648-10.255v-8.239Z" fill="#FAC823"/><path d="M9.95 36.438a4.5 4.5 0 0 1 4.5-4.5h44a4.5 4.5 0 0 1 4.5 4.5v70a4.5 4.5 0 0 1-4.5 4.5h-44a4.5 4.5 0 0 1-4.5-4.5v-70Zm4.5-3.5a3.5 3.5 0 0 0-3.5 3.5v70a3.5 3.5 0 0 0 3.5 3.5h44a3.5 3.5 0 0 0 3.5-3.5v-70a3.5 3.5 0 0 0-3.5-3.5h-44Z" fill="#E0E0E0"/><path d="M57.323 5.025h44a3.5 3.5 0 0 1 3.5 3.5v70a3.5 3.5 0 0 1-3.5 3.5H65.177a.5.5 0 1 0 0 1h36.146a4.5 4.5 0 0 0 4.5-4.5v-70a4.5 4.5 0 0 0-4.5-4.5h-44a4.5 4.5 0 0 0-4.5 4.5v20.718a.5.5 0 1 0 1 0V8.525a3.5 3.5 0 0 1 3.5-3.5Z" fill="#E0E0E0"/><path d="M60.823 14.108a.5.5 0 0 1 .5-.5h36a.5.5 0 1 1 0 1h-36a.5.5 0 0 1-.5-.5ZM17.95 41.111a.5.5 0 0 1 .5-.5h36a.5.5 0 0 1 0 1h-36a.5.5 0 0 1-.5-.5Z" fill="#E0E0E0"/><g clip-path="url(#udvldlwgfnxa)"><path d="M97.942 99.027c-9.928 0-17.973-8.046-17.973-17.972.001-9.927 8.046-17.973 17.973-17.973 9.926 0 17.972 8.046 17.972 17.973 0 9.926-8.046 17.972-17.972 17.972Z" fill="#41CCB9"/><path d="M104.784 75.11c.209 0 .409.083.556.23l1.819 1.82a.797.797 0 0 1 .231.557.78.78 0 0 1-.231.557L96.542 88.892a.786.786 0 0 1-1.113 0l-6.707-6.708a.787.787 0 0 1 0-1.113l1.818-1.818a.786.786 0 0 1 1.115 0l4.33 4.328 8.243-8.24a.785.785 0 0 1 .556-.23Z" fill="#fff"/></g><path d="M92.449 44.384c0-.921-.083-1.808-.237-2.659H79.97v5.029h6.996a5.98 5.98 0 0 1-2.594 3.924v3.261h4.201c2.459-2.263 3.877-5.596 3.877-9.555Z" fill="#4285F4"/><path d="M79.97 57.09c3.51 0 6.452-1.164 8.603-3.15l-4.201-3.262c-1.165.78-2.654 1.241-4.403 1.241-3.386 0-6.251-2.286-7.274-5.36h-4.343v3.369A12.995 12.995 0 0 0 79.97 57.09Z" fill="#34A853"/><path d="M72.695 46.558a7.815 7.815 0 0 1-.408-2.47c0-.857.148-1.69.408-2.47V38.25h-4.343a12.994 12.994 0 0 0-1.383 5.838c0 2.098.502 4.083 1.383 5.838l4.343-3.368Z" fill="#FBBC05"/><path d="M79.97 36.259c1.908 0 3.622.656 4.969 1.944l3.729-3.729c-2.252-2.097-5.195-3.386-8.699-3.386a12.995 12.995 0 0 0-11.617 7.162l4.343 3.368c1.023-3.072 3.888-5.36 7.274-5.36Z" fill="#EA4335"/><path d="m37.043 71.654.075-.074.15-.15.096-.098.306-.311.416-.423.357-.363.335-.34.35-.356.322-.33.447-.455c.085-.082.17-.165.258-.248.161-.152.328-.3.501-.441.16-.13.321-.255.482-.375a10.1 10.1 0 0 1 2.171-1.204 10.066 10.066 0 0 1 .627-.226 18.332 18.332 0 0 0-3.33-6.88 1.617 1.617 0 0 0-.559-.454 1.57 1.57 0 0 0-.694-.162H26.487c-.05 0-.1.017-.14.047a.256.256 0 0 0-.002.4 38.31 38.31 0 0 1 10.666 12.472l.032-.029Z" fill="#00D6B9"/><path d="M31.938 83.308a17.293 17.293 0 0 0 8.963-2.509 17.952 17.952 0 0 0 6.795-7.434 7.762 7.762 0 0 1-.707 1.144 7.287 7.287 0 0 1-.975 1.056 5.963 5.963 0 0 1-.286.238 6.135 6.135 0 0 1-.576.407 6.642 6.642 0 0 1-1.211.604 5.823 5.823 0 0 1-.513.165 6.578 6.578 0 0 1-1.372.243 7.358 7.358 0 0 1-1.323-.028 7.981 7.981 0 0 1-1.21-.236 36.106 36.106 0 0 1-.663-.19l-.328-.1-.489-.153c-.133-.043-.266-.083-.401-.13l-.377-.128-.257-.09-.312-.111-.221-.083a32.833 32.833 0 0 1-.438-.165l-.253-.094-.337-.135-.356-.145-.23-.097-.286-.119-.22-.096-.23-.101-.198-.09-.18-.083-.184-.083-.189-.09-.24-.113-.25-.123-.265-.132-.225-.115a37.2 37.2 0 0 1-10.527-8.075.235.235 0 0 0-.262-.061.242.242 0 0 0-.111.088.253.253 0 0 0-.044.138l.009 11.679v.947c0 .272.064.539.187.778.124.24.304.444.523.595a17.249 17.249 0 0 0 9.768 3.027Z" fill="#3370FF"/><path d="M51.45 66.84a9.906 9.906 0 0 0-8.14-.358 9.937 9.937 0 0 0-2.654 1.578 10.856 10.856 0 0 0-.759.69l-.444.458-.32.33-.351.356-.335.34-.36.36-.415.422-.308.315-.101.104c-.05.05-.099.1-.149.148l-.075.075-.114.11-.123.117a17.761 17.761 0 0 1-3.666 2.67l.241.115.19.09.182.082.181.083.199.09.229.101.22.096.286.123.23.097.356.146.337.135.254.098.438.165.221.083.312.11.257.09.376.13c.133.043.265.087.402.129.16.052.322.103.489.154l.328.099c.22.065.44.129.662.19a8.643 8.643 0 0 0 .694.16 7.674 7.674 0 0 0 1.214.121c.21 0 .42 0 .626-.017a6.6 6.6 0 0 0 1.373-.242 6.477 6.477 0 0 0 1.951-.92 6.558 6.558 0 0 0 1.116-.967 7.234 7.234 0 0 0 .695-.867 7.85 7.85 0 0 0 .502-.851l.172-.353 1.55-3.198v.007a10.144 10.144 0 0 1 2.031-2.993Z" fill="#133C9A"/><defs><clipPath id="udvldlwgfnxa"><path fill="#fff" transform="translate(79.969 63.082)" d="M0 0h35.945v35.945H0z"/></clipPath></defs></svg>