<svg width="120" height="120" viewBox="0 0 120 120" fill="none" xmlns="http://www.w3.org/2000/svg"><g clip-path="url(#udpakatjeo2a)"><path d="M89.857 20.908c2.872 5.973.358 13.143-5.615 16.014L58.102 49.49c-5.972 2.872-13.142.358-16.014-5.615l-1.945-4.045 7.21-3.467 1.945 4.046a4 4 0 0 0 5.338 1.872l26.14-12.568a4 4 0 0 0 1.871-5.339l-3.89-8.09a4 4 0 0 0-5.338-1.873l-13.07 6.284-3.466-7.21 13.07-6.284c5.972-2.871 13.142-.357 16.014 5.615l3.89 8.092Z" fill="#fff" fill-opacity=".3"/><path d="M88.662 8.35c-.327-.512-.634-.92-.922-1.216-.28-.287-.589-.521-.929-.597-.395-.09-.743.053-.993.331-.222.248-.364.598-.465.976-.204.766-.294 1.888-.305 3.273-.021 2.852.712 4.992 1.481 7.129l.093.256c.74 2.052 1.49 4.131 1.7 6.947.044.572-.028 1.846-.194 3.577a162.085 162.085 0 0 1-.718 6.061c-.495 3.654-1.125 7.594-1.726 10.54-.9-2.539-2.416-6.033-4.011-8.98-1.007-1.86-2.064-3.537-3.036-4.621-.48-.538-.978-.972-1.474-1.19a1.63 1.63 0 0 0-.81-.15c-.29.027-.552.147-.774.346-.272.244-.412.597-.489.948-.079.36-.105.784-.098 1.243.013.919.162 2.06.366 3.274.193 1.146.44 2.378.68 3.577l.044.226c.255 1.275.498 2.502.662 3.56.541 3.51 1.649 10.052 2.784 13.404.777 2.293 6.039 14.07 7.515 17.142l-3.64 28.428a.5.5 0 1 0 .991.127l3.66-28.576a.5.5 0 0 0-.046-.281c-1.381-2.848-6.766-14.9-7.533-17.161-1.102-3.254-2.198-9.703-2.743-13.235-.168-1.084-.415-2.333-.669-3.604l-.044-.221c-.241-1.204-.485-2.422-.675-3.552-.202-1.203-.34-2.283-.352-3.123a4.6 4.6 0 0 1 .075-1.014c.058-.264.135-.377.18-.418a.334.334 0 0 1 .199-.095.646.646 0 0 1 .314.07c.3.131.682.439 1.133.942.891.995 1.903 2.588 2.9 4.43 1.991 3.678 3.849 8.208 4.501 10.556a.5.5 0 0 0 .968-.018c.722-3.035 1.532-7.965 2.139-12.44.303-2.239.556-4.37.722-6.1.164-1.712.247-3.074.197-3.747-.222-2.954-1.012-5.146-1.75-7.192l-.1-.275c-.765-2.125-1.442-4.12-1.422-6.782.01-1.371.102-2.387.271-3.024.087-.324.179-.493.244-.566.033-.036.03-.026.029-.023.055.013.198.08.43.319.224.23.49.576.799 1.058.617.963 1.37 2.411 2.277 4.415 3.64 8.044 4.018 9.489 4.226 12.252.21 2.813-.15 9.357-.645 14.364a.5.5 0 0 0 .995.099c.494-5.008.856-11.555.637-14.462-.221-2.957-.66-4.618-4.302-12.666-.914-2.02-1.69-3.519-2.347-4.542Z" fill="#E0E0E0"/><path d="M89.505 9.058c.254-.612.624-1.5 1.114-2.182.314-.437.614-.693.876-.77.202-.06.487-.047.902.37l.001.001c.46.46 1.154 1.564 1.967 3.087.801 1.5 1.687 3.345 2.535 5.225 1.703 3.775 3.229 7.638 3.627 9.131 1.283 4.824 1.851 14.129 2.011 23.746.159 9.596-.088 19.433-.412 25.279l-.841 14.975a.5.5 0 1 0 .998.056L103.124 73c.326-5.87.583-15.715.423-25.334-.159-9.597-.734-19.041-2.054-24.003-.421-1.583-1.98-5.514-3.681-9.285-.854-1.892-1.75-3.758-2.564-5.285-.803-1.503-1.56-2.742-2.143-3.323-.595-.598-1.246-.816-1.895-.623-.588.175-1.052.657-1.403 1.145-.569.791-1.008 1.852-1.256 2.451a9.764 9.764 0 0 1-.143.337.5.5 0 1 0 .911.413c.053-.117.115-.265.186-.435Z" fill="#E0E0E0"/><path d="M91.078 5.492a.5.5 0 0 1 .654.269c.683 1.638 1.492 3.504 2.32 5.417 1.45 3.344 2.96 6.83 3.968 9.487.822 2.165 1.196 5.317 1.335 8.568.14 3.266.043 6.69-.104 9.426a.5.5 0 1 1-.998-.054c.145-2.72.24-6.107.103-9.33-.139-3.236-.51-6.25-1.27-8.256-1.002-2.639-2.492-6.078-3.934-9.404a445.6 445.6 0 0 1-2.343-5.47.5.5 0 0 1 .269-.653Z" fill="#E0E0E0"/><path d="M112.46 75.089c.19.37.287.749.287 1.123v8.733c0-.375-.097-.338-.287-.708-.187-.365-.471-.732-.84-1.09-.73-.707-1.819-1.401-3.236-2.063-1.392-.65-3.93-1.61-5.935-2.197l.814-8.816c2.006.587 3.729 1.215 5.121 1.865 1.417.663 2.506 1.357 3.236 2.062.369.359.652.726.84 1.09Z" fill="#fff" fill-opacity=".4"/><path d="M87.655 87.735c-7.41 1.168-20.557 1.247-35.537 1.247v8.064h.378c14.871 0 23.796 0 35.159-1.443 7.492-.952 18.168-3.138 23.042-7.868.747-.725 2.048-1.713 2.048-3.045v-8.04c0 2.381-2.66 4.016-4.364 5.104-3.211 2.05-13.317 4.815-20.726 5.982Z" fill="#41CCB9"/><path d="M11.922 105.536v-7.952c11.476 5.314 24.856 5.134 37.176 5.152v7.896c-12.73-.019-25.515.113-37.176-5.096Zm103.286-3.552c-.729.703-1.814 1.395-3.229 2.057-2.761 1.29-6.833 2.485-11.871 3.481-5.038.998-11.073 1.802-17.608 2.349-7.17.599-14.368.861-21.562.861v-7.985c7.15 0 14.392-.118 21.562-.717 6.537-.547 12.571-1.351 17.608-2.35 5.034-.995 9.109-2.19 11.871-3.48 1.635-.765 3.816-1.868 4.355-3.745v7.32c0 .743-.381 1.489-1.126 2.209Z" fill="#4C88FF"/><path d="M23.561 61.21c-5.331-3.938-6.461-11.452-2.524-16.783L36.413 23.61c3.937-5.33 11.45-6.46 16.782-2.523l3.984 2.942-4.753 6.436-3.984-2.943a4 4 0 0 0-5.594.841L27.473 49.18a4 4 0 0 0 .84 5.594l7.857 5.802a4 4 0 0 0 5.634-.898l5.368-7.539 6.517 4.64-5.368 7.54c-3.89 5.465-11.507 6.678-16.904 2.692L23.56 61.21Z" fill="#fff" fill-opacity=".3"/><path d="M24.307 57.69c-1.127.5-1.946.938-2.308 1.223-.157.124-.238.2-.289.265a.518.518 0 0 0-.097.206c-.029.11-.05.266-.07.523-.014.192-.025.42-.04.704l-.015.306a.519.519 0 0 1-.328.461c-1.151.432-3.061 1.327-4.937 2.427-1.86 1.091-3.624 2.348-4.594 3.515-.125.296-.196.778-.204 1.423l.426 4.145.06.348c.347 1.658.433 2.105.715 3.666a.52.52 0 0 1-.388.604.482.482 0 0 1-.57-.397c-.04-.212-.102-.517-.179-.891a96.561 96.561 0 0 1-.535-2.76l-.05-.24a.531.531 0 0 1-.009-.056l-.012-.118c-.047-.28-.092-.563-.134-.846a29.3 29.3 0 0 1-.264-2.316c-.408.274-1.01.622-1.908 1.061-.343.168-.571.66-.513 1.701.055.987.361 2.225.762 3.462a39.495 39.495 0 0 0 1.26 3.31 43.902 43.902 0 0 0 .61 1.36l.036.075 12.396 19.505a.528.528 0 0 1 .067.401l-2.028 8.82a.495.495 0 0 1-.59.385.505.505 0 0 1-.36-.612l1.979-8.603L9.9 81.401a.505.505 0 0 1-.028-.05l.435-.237-.435.236-.004-.007-.01-.021-.039-.081-.142-.304c-.12-.262-.29-.637-.484-1.09a40.538 40.538 0 0 1-1.293-3.4c-.409-1.262-.75-2.603-.812-3.73-.06-1.072.123-2.228 1.085-2.7 1.292-.632 1.89-1.038 2.157-1.265.056-.048.095-.085.12-.111.015-.701.103-1.351.332-1.824a.521.521 0 0 1 .065-.103c1.082-1.332 3.005-2.685 4.908-3.8 1.758-1.032 3.555-1.892 4.775-2.378.013-.269.025-.499.039-.693.02-.27.047-.509.102-.719.06-.223.15-.413.288-.59.13-.164.29-.301.46-.435.47-.371 1.395-.852 2.517-1.35a50.383 50.383 0 0 1 3.97-1.545c1.439-.494 2.934-.94 4.282-1.245 1.336-.303 2.57-.477 3.465-.4.533.045.923.378 1.092.833.162.437.109.95-.133 1.388-1.083 1.956-3.244 3.356-5.188 4.419-.58.318-1.172.62-1.715.898-.359.184-.698.357-.998.517-.628.334-1.094.611-1.386.847 1.71 6.088 3.97 11.92 7.164 17.701.185-.39.366-.86.544-1.398.301-.916.581-2.004.848-3.201.44-1.985.837-4.238 1.229-6.463.08-.463.162-.924.243-1.381.47-2.643.946-5.167 1.495-6.986.272-.903.575-1.679.93-2.214.346-.522.861-.977 1.534-.807.566.143.947.6 1.205 1.161.259.563.43 1.304.545 2.171.232 1.74.257 4.132.198 6.964-.04 1.85-.115 3.894-.195 6.084-.168 4.554-.359 9.743-.296 15.145a.54.54 0 0 1-.013.123c-1.646 7.362-3.372 13.332-4.272 16.445l-.123.425a.492.492 0 0 1-.61.35.508.508 0 0 1-.324-.633l.122-.424c.897-3.102 2.609-9.02 4.243-16.322-.061-5.403.13-10.623.298-15.174.08-2.18.155-4.207.193-6.027.06-2.833.032-5.151-.188-6.8-.11-.827-.264-1.449-.458-1.873-.195-.423-.395-.576-.566-.62-.064-.016-.22-.026-.494.388-.266.401-.534 1.055-.799 1.934-.527 1.748-.993 4.208-1.465 6.863l-.242 1.371c-.391 2.226-.793 4.508-1.24 6.518-.27 1.215-.559 2.34-.875 3.304-.315.956-.668 1.784-1.076 2.38a.488.488 0 0 1-.419.217.477.477 0 0 1-.397-.245c-3.518-6.205-5.952-12.457-7.763-18.987a.534.534 0 0 1 .116-.498c.388-.43 1.093-.84 1.862-1.249.333-.177.68-.355 1.042-.54a62.38 62.38 0 0 0 1.661-.87c1.948-1.065 3.863-2.348 4.787-4.017.108-.196.11-.384.065-.502-.038-.102-.115-.182-.274-.196-.745-.064-1.86.082-3.178.38-1.306.296-2.767.731-4.184 1.218a49.432 49.432 0 0 0-3.892 1.514Z" fill="#E0E0E0"/><path d="M21.038 59.125c.27.005.482.239.474.521-.066 2.633.322 5.695.803 8.538.24 1.419.5 2.776.737 3.991l.062.32c.21 1.082.398 2.046.525 2.818a.515.515 0 0 1-.398.595.486.486 0 0 1-.564-.413 102.97 102.97 0 0 0-.52-2.79l-.061-.317c-.237-1.216-.5-2.584-.742-4.017-.483-2.859-.886-6.003-.817-8.743a.504.504 0 0 1 .5-.503Zm-5.45 4.008a.488.488 0 0 1 .522.465c.23 3.324.701 7.871 1.252 12.835a.515.515 0 0 1-.428.573.485.485 0 0 1-.542-.44c-.55-4.964-1.023-9.531-1.256-12.88a.513.513 0 0 1 .452-.553Zm14.125-57.23a.5.5 0 0 1 .703-.082l9.1 7.205a.5.5 0 1 1-.62.784l-9.101-7.205a.5.5 0 0 1-.082-.702Zm14.351-1.072a.5.5 0 0 0-.397.585l1.062 5.538a.5.5 0 1 0 .982-.188L44.65 5.228a.5.5 0 0 0-.586-.397Zm9.849-.449a.5.5 0 0 1 .464.533l-.365 5.309a.5.5 0 1 1-.998-.069l.365-5.309a.5.5 0 0 1 .534-.464Z" fill="#E0E0E0"/></g><defs><clipPath id="udpakatjeo2a"><path fill="#fff" d="M0 0h120v120H0z"/></clipPath></defs></svg>