<svg width="120" height="120" viewBox="0 0 120 120" fill="none" xmlns="http://www.w3.org/2000/svg"><g clip-path="url(#udollohp9vfa)"><path d="M6.482 91.134v-8.297c0-4.767 6.62-9.026 10.496-10.556l.962 4.59v3.815c-4.259 1.648-11.458 5.759-11.458 10.448Z" fill="#0C296E"/><path d="M108.193 85.846c-4.897 1.59-10.607 2.229-16.793 2.229-13.461 0-34.696-3.822-50.597-6.583l-.656-5.686v-2.574c15.797 2.712 37.26 6.547 51.253 6.547 6.186 0 11.896-.64 16.793-2.23v8.297Z" fill="#3370FF"/><path d="M21.983 101.721h-.336c-5.185 0-9.598-.34-12.722-1.41-.291-.097-.56-.214-.83-.32v8.575c.27.117.539.224.83.321 3.124 1.07 7.537 1.41 12.722 1.41h.336v-8.576Zm9.09-87.998a4 4 0 0 1 4-4h74.543a4 4 0 0 1 4 4V66.54a4 4 0 0 1-4 4H35.073a4 4 0 0 1-4-4V13.723Z" fill="#FFC60A"/><path d="m29.94 11.838-.001-.001-.002-.006-.006-.018a6.027 6.027 0 0 0-.107-.317 14.233 14.233 0 0 0-.339-.857c-.3-.695-.758-1.61-1.383-2.461-.622-.847-1.434-1.668-2.457-2.127-1.046-.47-2.279-.547-3.663.048-.972.417-1.767.919-2.396 1.566-.631.65-1.074 1.421-1.374 2.35-.119.366-.216.76-.294 1.181a3.035 3.035 0 0 0-.37-.46c-.555-.558-1.275-.766-2-.496-.676.253-1.226.876-1.611 1.694-.392.83-.647 1.926-.695 3.246-.283 7.753-.33 14.613.093 22.906L8.903 25.684a.455.455 0 0 0-.013-.032c-.473-1.07-.969-1.842-1.567-2.222a1.626 1.626 0 0 0-1.05-.26c-.369.036-.713.192-1.03.409a.52.52 0 0 0-.036.027c-.759.617-.923 1.58-.914 2.404.01.842.202 1.706.332 2.288.605 3.171 3.82 13.771 7.077 24.303.936 3.024 1.54 6.122 2.424 8.966 1.396 4.485 2.711 10.491 3.332 15.123.351 2.625.525 5.005.748 5.814l2.047 25.13a.492.492 0 0 0 .518.491.539.539 0 0 0 .533-.516l-2.064-25.33c.012.043.001-.045 0 0-.211-.774-.376-3.062-.715-5.588-.627-4.669-1.966-10.864-3.4-15.476-.883-2.838-1.484-5.925-2.415-8.934-3.27-10.578-6.464-21.113-7.053-24.208l-.003-.015c-.133-.594-.302-1.367-.31-2.097-.008-.74.152-1.281.508-1.583.21-.14.369-.194.488-.206a.573.573 0 0 1 .38.104c.33.21.73.74 1.194 1.784l5.41 15.14a.48.48 0 0 0 .203.248c.05.78.103 1.574.16 2.384.02.277.27.477.56.448a.534.534 0 0 0 .488-.554c-.78-11.005-.788-19.107-.443-28.55.044-1.222.28-2.179.6-2.856.325-.69.706-1.03 1.004-1.142.25-.094.547-.066.877.267.339.342.676.983.888 2.01a4.7 4.7 0 0 0-.053.62c-.01.31-.01.7 0 1.154.018.909.073 2.096.154 3.46.161 2.73.425 6.186.704 9.577A1123.88 1123.88 0 0 0 19.621 41.3l.028.294.523-.064-.523.065c.027.275.28.469.568.435a.534.534 0 0 0 .48-.558l-.001-.007L18.77 17.67c-.153-3.453-.085-5.759.443-7.39.26-.803.627-1.428 1.128-1.943.377-.388.844-.726 1.424-1.03.963 6.007 1.943 10.852 2.925 15.572l.36 1.727c.897 4.298 1.794 8.594 2.682 13.688a.502.502 0 0 0 .604.392.528.528 0 0 0 .432-.595c-.89-5.11-1.79-9.421-2.688-13.72l-.36-1.725c-.994-4.78-1.983-9.677-2.956-15.776.928-.304 1.719-.212 2.405.097.802.36 1.494 1.033 2.065 1.812.568.774.994 1.619 1.278 2.276a13.374 13.374 0 0 1 .411 1.082l.005.014v.003l.001.001c3.096 10.115 5.206 18.585 7.6 28.196.528 2.117 1.069 4.289 1.637 6.546.051.204.232.35.452.366a.553.553 0 0 0 .53-.295l2.251-4.436c.898-1.771 1.842-3.633 2.697-5.314a880.174 880.174 0 0 1 2.156-4.215c.583-1.131.961-1.846 1.048-1.981.058-.09.261-.313.544-.512.29-.203.554-.302.734-.294a.339.339 0 0 1 .21.078c.073.06.17.176.257.403.181.467.29 1.298.185 2.698-.102 1.375-.778 4.601-1.754 8.718-.97 4.099-2.226 9.032-3.468 13.791-1.13 4.756-1.967 9.37-2.886 12.762-.46 1.696-.841 3.094-1.108 4.068-.134.487-.227 1.237-.298 1.497l-.017.063a.491.491 0 0 0-.018.13l2.107 15.148c0 .278.234.495.525.485a.538.538 0 0 0 .526-.522l-2.108-15.082c.072-.26.165-1.01.298-1.498.267-.975.65-2.374 1.109-4.07.92-3.394 1.87-7.96 2.888-12.771 1.244-4.762 2.501-9.704 3.474-13.813.97-4.09 1.669-7.403 1.778-8.873.107-1.446.011-2.449-.246-3.113-.131-.338-.312-.61-.552-.804a1.375 1.375 0 0 0-.816-.302c-.545-.023-1.06.244-1.418.495-.365.257-.682.576-.834.812-.122.19-.533.971-1.098 2.067a870.406 870.406 0 0 0-2.159 4.221c-.869 1.709-1.804 3.554-2.695 5.31l-1.609 3.172c-.446-1.777-.876-3.504-1.297-5.197-2.395-9.613-4.512-18.11-7.616-28.251Z" fill="#0C296E"/><path d="M31.073 15.615v3.811c2.018 7.12 3.658 13.7 5.457 20.925l.002.006c.527 2.114 1.067 4.285 1.635 6.54.051.204.232.35.452.367a.553.553 0 0 0 .53-.296l2.251-4.436.006-.011c.896-1.768 1.838-3.626 2.691-5.303a880.783 880.783 0 0 1 2.156-4.215c.583-1.131.961-1.846 1.048-1.98.058-.09.261-.314.544-.512.29-.204.554-.303.734-.295a.339.339 0 0 1 .21.078c.073.06.17.176.257.404.181.466.29 1.298.185 2.697-.102 1.375-.778 4.601-1.754 8.719-.97 4.098-2.226 9.032-3.468 13.79a266.25 266.25 0 0 0-1.332 6.005c-.538 2.515-1.033 4.833-1.554 6.757l-.51 1.875h1.076l.45-1.656c.854-3.15 1.734-7.313 2.67-11.743l.218-1.028c1.244-4.762 2.501-9.704 3.474-13.813.97-4.09 1.669-7.402 1.778-8.873.107-1.446.011-2.449-.246-3.113-.131-.338-.312-.61-.552-.803a1.375 1.375 0 0 0-.816-.303c-.545-.023-1.06.244-1.418.496-.365.256-.682.576-.834.812-.122.19-.533.97-1.098 2.067a865.787 865.787 0 0 0-2.159 4.22l-2.695 5.31-.002.004-1.607 3.168c-.446-1.777-.876-3.504-1.297-5.197-2.092-8.396-3.971-15.942-6.482-24.474Z" fill="#0C296E"/><path d="M88.103 38.532c2.665 1.54 2.665 5.389-.002 6.928l-20.31 11.727c-2.667 1.54-6-.384-6-3.463l-.008-23.466c-.001-3.08 3.334-5.006 6-3.465l20.32 11.74Z" fill="#fff"/><path d="M100.87 19.092a3.5 3.5 0 1 1 7 0 3.5 3.5 0 0 1-7 0Zm3.5-2.5a2.5 2.5 0 1 0 0 5 2.5 2.5 0 0 0 0-5Zm-13.5 2.5a3.5 3.5 0 1 1 7 0 3.5 3.5 0 0 1-7 0Zm3.5-2.5a2.5 2.5 0 1 0 0 5 2.5 2.5 0 0 0 0-5Z" fill="#0C296E"/><path d="M57.585 88.96c-2.329-.16-4.723-.236-7.16-.236-9.806 0-20.12 1.054-28.3 1.054-4.593 0-8.505-.33-11.267-1.355C8.084 87.38 6.47 85.64 6.47 82.836v8.296c0 2.803 1.614 4.553 4.388 5.578 2.773 1.035 6.674 1.355 11.267 1.355 8.18 0 18.494-1.054 28.3-1.054 2.437 0 4.831.066 7.16.236V88.96Z" fill="#00D6B9"/><path d="M31.195 102.091v6.575c4.553-.215 9.226-.408 13.816-.408 6.176 0 12.235.336 17.602 1.4v-6.535c-5.28-1.089-11.324-1.441-17.602-1.441-4.573 0-9.239.186-13.816.409Zm32.418.224v8.576a47.56 47.56 0 0 0-1-.213c-5.32-1.076-11.376-1.42-17.602-1.42-4.58 0-9.25.194-13.816.409l-1 .048v-8.576c4.883-.243 9.9-.457 14.816-.457 6.62 0 13.036.389 18.602 1.633Z" fill="#0C296E"/></g><defs><clipPath id="udollohp9vfa"><path fill="#fff" d="M0 0h120v120H0z"/></clipPath></defs></svg>