<svg width="120" height="120" viewBox="0 0 120 120" fill="none" xmlns="http://www.w3.org/2000/svg"><g clip-path="url(#udud3elzvjsa)"><path d="M64.127 105.567c-11.43 0-41.774-3.023-48.032-5.836.184 1.946-.238 4.7 0 7.222 11.252 4.81 48.032 5.83 48.032 5.83v-7.216Z" fill="#3370FF"/><path d="M29.552 56.436c-6.362 3.748-11.147 7.02-13.225 8.824-1.771 1.538-3.26 3.085-4.306 4.565a14.338 14.338 0 0 0-1.3 2.216 9.495 9.495 0 0 0-.719 2.155c-.095.477-.142.95-.142 1.413v6.988c0-.462.047-.936.141-1.413.139-.7.719-.155.719-.155s.772-1.468 1.3-2.216c1.046-1.48 4.432-4.456 6.203-5.995 1.446-1.255 9.844-7.084 13.253-8.592l-1.924-7.79Zm54.62-14.551c4.636-2.153 11.112-5.289 15.274-8.128 2.275-1.683 3.545-2.976 3.545-4.89V20.2c0 1.27-.413 1.39-1.056 1.575-.492.143-1.118.325-1.797 1.092-3.548 3.998-11.306 7.726-17.972 10.889l2.006 8.129Z" fill="#0C296E"/><path d="M22.021 25.915a4 4 0 0 1 2.926-4.842L72.049 9.45a4 4 0 0 1 4.842 2.925L91.544 71.76a4 4 0 0 1-2.925 4.842L41.515 88.225a4 4 0 0 1-4.842-2.925L22.022 25.914Z" fill="#BBBFC4" fill-opacity=".45"/><path d="M29.024 36.913a.5.5 0 0 0-.84.542c2.252 3.49 6.729 5.838 11.784 7.023 2.363.554 4.875.86 7.381.904a8.351 8.351 0 0 1-.106-1.002 34.322 34.322 0 0 1-7.047-.875c-4.945-1.16-9.123-3.418-11.172-6.592Zm34.13 3.541c.142.301.266.614.372.937a35.366 35.366 0 0 0 6.114-4.234c3.924-3.4 6.794-7.562 7.164-11.698a.5.5 0 1 0-.996-.09c-.337 3.763-2.985 7.706-6.823 11.032a34.329 34.329 0 0 1-5.83 4.053Z" fill="#8F959E"/><path d="M63.704 42.01a8.356 8.356 0 1 1-16.225 4.002 8.356 8.356 0 0 1 16.225-4.003Z" fill="#8F959E"/><path d="M81.738 70.829a.315.315 0 0 1 .131.005.05.05 0 0 1 .026.017c.022.026.08.128.08.388 0 .25-.055.589-.183 1.011-.246.809-.8 1.817-1.523 2.898-.718 1.072-1.58 2.182-2.415 3.19a68.231 68.231 0 0 1-3.135 3.517l-.05.053-.013.013-.004.004a.5.5 0 1 0 .716.698l-.3-.292.3.292.005-.005.014-.014.053-.055.2-.21a69.316 69.316 0 0 0 2.983-3.363c.848-1.022 1.734-2.161 2.477-3.272.739-1.102 1.36-2.21 1.649-3.164.145-.479.226-.92.226-1.3 0-.372-.077-.754-.32-1.04-.267-.31-.647-.41-1.033-.365-.366.043-.766.215-1.185.475-2.346 1.46-8.254 5.437-13.564 9.042a2842.222 2842.222 0 0 0-9.222 6.289l-.823.563.283.412-.418-.274-.387.588-1.063 1.614-3.565 5.407c-2.82 4.27-6.263 9.473-8.757 13.2a.5.5 0 0 0 .83.556c2.497-3.73 5.941-8.934 8.761-13.205a6212.217 6212.217 0 0 0 4.63-7.022l.333-.507.74-.507a3014.195 3014.195 0 0 1 9.22-6.287c5.318-3.61 11.205-7.573 13.53-9.02.36-.223.614-.312.773-.33ZM57.111 86.616l-.283-.412a.504.504 0 0 0-.135.138l.418.274Zm55.055-16.818c1.75-.923 2.734-.852 3.293-.313.136.131.38.45.363 1.02-.019.584-.314 1.507-1.437 2.824-2.017 2.365-5.751 7.142-7.946 9.95l-.878 1.124a.5.5 0 1 0 .787.616l.883-1.129c2.198-2.812 5.914-7.566 7.914-9.912 1.207-1.414 1.648-2.548 1.676-3.441.028-.908-.372-1.487-.668-1.772-1.074-1.035-2.653-.801-4.453.149-1.838.97-4.146 2.8-6.941 5.441-2.194 2.074-5.868 3.984-9.636 5.517-3.755 1.528-7.54 2.657-9.906 3.19a.5.5 0 1 0 .22.976c2.421-.546 6.259-1.692 10.063-3.24 3.79-1.542 7.611-3.508 9.946-5.716 2.78-2.627 5.008-4.38 6.72-5.284Z" fill="#0C296E"/><path d="M109.51 84.505c-.603.005-1.302.213-1.803.366-.88.27-2.213.94-3.75 1.826-1.524.878-3.21 1.944-4.784 2.977a190.037 190.037 0 0 0-5.704 3.902l-.09.065-.03.021-.291-.406.292.406a.5.5 0 0 1-.254.093c-2.131.164-4.596.091-7.115.016-1.328-.039-2.67-.079-3.986-.085-3.868-.016-7.548.257-10.315 1.593a.5.5 0 0 1-.435-.9c2.993-1.446 6.88-1.71 10.754-1.693 1.38.006 2.752.047 4.092.087 2.425.073 4.742.142 6.79-.005l.008-.006.349-.248c.302-.213.737-.52 1.271-.891a190.813 190.813 0 0 1 4.115-2.785c1.582-1.038 3.286-2.116 4.834-3.008 1.536-.884 2.956-1.609 3.957-1.915l.003-.001c.479-.147 1.314-.403 2.084-.409.389-.003.813.056 1.179.267.387.224.661.59.772 1.1a.818.818 0 0 1-.037.443 1.631 1.631 0 0 1-.17.336c-.135.21-.331.444-.564.692-.469.498-1.147 1.112-1.952 1.792-1.615 1.363-3.792 3.033-5.972 4.649a346.644 346.644 0 0 1-6.017 4.352 388.357 388.357 0 0 1-2.549 1.789l-.197.137-.285-.41.14.48-.056.015-.164.048c-.144.041-.356.103-.629.18a415.916 415.916 0 0 1-10.029 2.725c-6.053 1.563-13.38 3.292-18.398 3.931-.455.058-1.006.344-1.608.814-.591.461-1.181 1.058-1.71 1.659a24.397 24.397 0 0 0-1.686 2.163l-.1.147-.026.037-.006.01-.001.002a.5.5 0 0 1-.835-.551l.335.222-.335-.222.003-.004.007-.011.029-.042a28.005 28.005 0 0 1 .502-.711 25.48 25.48 0 0 1 1.363-1.701c.55-.625 1.186-1.272 1.845-1.786.648-.506 1.373-.926 2.097-1.018 4.948-.63 12.22-2.343 18.275-3.906a415.624 415.624 0 0 0 10.63-2.899l.139-.04.13-.09.556-.388a348.113 348.113 0 0 0 7.985-5.735c2.175-1.613 4.332-3.268 5.922-4.61.796-.673 1.439-1.257 1.868-1.714.217-.23.365-.412.451-.547a.927.927 0 0 0 .055-.094.593.593 0 0 0-.278-.378c-.15-.087-.373-.135-.671-.133Zm.964.474-.001.003.001-.003ZM93.71 98.65l.14.48a.5.5 0 0 0 .144-.069l-.284-.41Zm17.204-28.55a.5.5 0 0 1-.282.648l-21.375 8.381a.512.512 0 0 1-.038.013l-.005.002c-5.864 1.772-11.74 3.548-17.088 4.95a.5.5 0 1 1-.254-.967c5.324-1.396 11.175-3.164 17.039-4.936l21.355-8.374a.5.5 0 0 1 .648.283Zm3.983-1.479a.5.5 0 0 1 .67.743l-.335-.371-.335-.372ZM88.156 88.048a.5.5 0 0 0 .303.953l-.151-.476.151.476.006-.002.015-.005.058-.019a35.934 35.934 0 0 0 1.032-.352c.687-.243 1.64-.595 2.711-1.032 2.132-.871 4.765-2.096 6.668-3.487 1.14-.835 5.368-3.978 7.67-6.364 1.121-1.162 3.352-3.252 5.315-5.06a508.375 508.375 0 0 1 3.341-3.052l.292-.264-.335-.371-.335-.372-.293.266-.792.718a506.43 506.43 0 0 0-2.556 2.339c-1.957 1.804-4.212 3.914-5.357 5.102-2.231 2.313-6.388 5.407-7.54 6.25-1.8 1.317-4.34 2.504-6.456 3.369a60.463 60.463 0 0 1-3.675 1.36l-.055.017-.013.005-.004.001Z" fill="#0C296E"/><path d="M9.86 75.24a9.116 9.116 0 0 0 .603 3.292c.254.67.586 1.315.982 1.918 2.363 3.595 6.676 5.384 10.687 6.407 4.877 1.245 19.89 3.177 24.906 3.177v8.187c-5.017 0-20.027-1.934-24.906-3.177-4.011-1.023-8.324-2.812-10.687-6.406a9.95 9.95 0 0 1-.983-1.918 9.218 9.218 0 0 1-.603-3.292V75.24Z" fill="#00D6B9"/><path d="M4.167 19.21a.5.5 0 0 1 .545-.45l9.868.92a.5.5 0 1 1-.093.997l-9.868-.922a.5.5 0 0 1-.452-.544Zm9.797-7.492a.5.5 0 0 1 .707.014l3.338 3.47a.5.5 0 0 1-.72.693l-3.338-3.47a.5.5 0 0 1 .013-.707Zm6.856-4.917a.5.5 0 0 1 .68.194l2.21 3.97a.5.5 0 0 1-.874.486l-2.21-3.97a.5.5 0 0 1 .194-.68Z" fill="#0C296E"/><path d="M102.986 29.557a11.682 11.682 0 0 0-.451-2.933c-1.73-5.999-7.898-9.236-13.465-10.947V6.724c4.804 1.476 9.914 3.536 12.457 8.1.428.77.767 1.583 1.008 2.415.302 1.043.455 2.143.455 3.252v9.385c0-.107-.001-.214-.004-.32Z" fill="#00D6B9"/></g><defs><clipPath id="udud3elzvjsa"><path fill="#fff" d="M0 0h120v120H0z"/></clipPath></defs></svg>