<svg width="350" height="350" viewBox="0 0 350 350" fill="none" xmlns="http://www.w3.org/2000/svg"><path d="M21 26a8 8 0 0 1 8-8h292a8 8 0 0 1 8 8v25H21V26Z" fill="#fff" fill-opacity=".3"/><path d="M175.499 58.667a.502.502 0 0 0-.501.501v114a.502.502 0 0 0 1.003 0v-114a.502.502 0 0 0-.502-.501ZM183 35c0 3.866-3.358 7-7.5 7-4.142 0-7.5-3.134-7.5-7s3.358-7 7.5-7c4.142 0 7.5 3.134 7.5 7Z" fill="#E0E0E0"/><path d="M163 59H33a4 4 0 0 0-4 4v106c0 2.209 1.771 4 3.98 4h130.026a3.995 3.995 0 0 0 3.994-4V63a4 4 0 0 0-4-4Z" fill="#fff" fill-opacity=".3"/><path d="M329.941 295.843v35.1H193.553c19.466 0 26.534-7.522 36.205-11.248 8.059-3.117 16.118-2.304 20.086-1.83 7.687.813 14.755.881 21.326-1.152 5.704-1.762 8.432-4.811 11.655-7.521 3.224-2.711 7.936-5.557 14.631-6.031 6.695-.474 14.135 1.491 19.838-.068 6.572-1.762 12.647-7.25 12.647-7.25ZM183 63a4 4 0 0 1 4-4h130a4 4 0 0 1 4 4v68a4 4 0 0 1-4 4H187a4 4 0 0 1-4-4V63Z" fill="#42BDEB"/><path d="M235.421 87.3c0-1.505 1.269-2.726 2.834-2.726h19.844c1.565 0 2.835 1.22 2.835 2.726v3.237l5.27-2.688c1.889-1.023 3.234-.295 3.234 1.79v14.276c0 2.085-1.345 3.036-3.234 2.014l-5.27-2.783v3.237c0 1.505-1.27 2.726-2.835 2.726h-19.844c-1.565 0-2.834-1.221-2.834-2.726V87.3Zm8.504 8.178c1.566 0 2.835-1.22 2.835-2.726 0-1.505-1.269-2.726-2.835-2.726s-2.835 1.22-2.835 2.726 1.269 2.727 2.835 2.727Z" fill="#fff"/><path d="M269.098 143h-32.196c-2.155 0-3.902 1.791-3.902 4v22c0 2.209 1.747 4 3.902 4h32.196c2.155 0 3.902-1.791 3.902-4v-22c0-2.209-1.747-4-3.902-4Z" fill="#FAC823"/><path d="M220.098 143h-32.196c-2.155 0-3.902 1.791-3.902 4v22c0 2.209 1.747 4 3.902 4h32.196c2.155 0 3.902-1.791 3.902-4v-22c0-2.209-1.747-4-3.902-4Z" fill="#41CCB9"/><path d="M21 58.5a.5.5 0 0 0-.5.5v106.75a.5.5 0 0 0 1 0V59a.5.5 0 0 0-.5-.5Zm308 0a.5.5 0 0 0-.5.5v114a7.5 7.5 0 0 1-7.5 7.5H95a.5.5 0 0 0 0 1h226a8.5 8.5 0 0 0 8.5-8.5V59a.5.5 0 0 0-.5-.5Z" fill="#E0E0E0"/><path d="M316.898 143h-32.195c-2.155 0-3.902 1.791-3.902 4v22c0 2.209 1.747 4 3.902 4h32.195c2.156 0 3.903-1.791 3.903-4v-22c0-2.209-1.747-4-3.903-4Z" fill="#4C88FF"/><path d="M47 90h105v7H47v-7Zm0 19h105v7H47v-7Zm0 19h80v7H47v-7Z" fill="#373737"/><path d="M100.04 98.28H86v8.023h14.04V98.28Z" fill="#41CCB9"/><path d="M86 106h1v10h-1v-10Z" fill="#41CCB9"/><path fill-rule="evenodd" clip-rule="evenodd" d="M127 79.226h14.04v8.022H128V97h-1V79.226Z" fill="#4C88FF"/><path d="M272.273 205.586a4.513 4.513 0 0 1 4.513-4.513h48.688a4.513 4.513 0 0 1 4.513 4.513v66.787a4.514 4.514 0 0 1-4.513 4.513h-48.688a4.514 4.514 0 0 1-4.513-4.513v-66.787Zm4.513-3.51a3.51 3.51 0 0 0-3.51 3.51v66.787a3.51 3.51 0 0 0 3.51 3.51h48.688a3.51 3.51 0 0 0 3.51-3.51v-66.787a3.51 3.51 0 0 0-3.51-3.51h-48.688Z" fill="#E0E0E0"/><path d="m298.172 225.045 13.911 8.326c2.598 1.555 2.602 5.317.008 6.879l-13.91 8.373c-2.674 1.609-6.08-.317-6.08-3.437v-16.699c0-3.116 3.398-5.043 6.071-3.442Z" fill="#41CCB9"/><path d="M274.383 266.289a.5.5 0 0 1 .5-.5h50.78a.5.5 0 0 1 0 1h-50.78a.5.5 0 0 1-.5-.5Z" fill="#E0E0E0"/><g filter="url(#uduj2kqs7dda)"><path d="M231.992 297.511c9.599 0 17.381-7.782 17.381-17.381s-7.782-17.381-17.381-17.381-17.381 7.782-17.381 17.381 7.782 17.381 17.381 17.381Z" fill="#FAC823"/></g><path d="M237.5 233.345a4.5 4.5 0 0 1 4.5-4.5h18a4.5 4.5 0 0 1 4.5 4.5v37.76a4.5 4.5 0 0 1-4.5 4.5h-18a4.5 4.5 0 0 1-4.5-4.5v-37.76Zm4.5-3.5a3.5 3.5 0 0 0-3.5 3.5v37.76a3.5 3.5 0 0 0 3.5 3.5h18a3.5 3.5 0 0 0 3.5-3.5v-37.76a3.5 3.5 0 0 0-3.5-3.5h-18Z" fill="#E0E0E0"/><path d="M237.5 271.067a.5.5 0 0 1 .5-.5h26a.5.5 0 0 1 0 1h-26a.5.5 0 0 1-.5-.5Zm0-37.685a.5.5 0 0 1 .5-.5h26a.5.5 0 0 1 0 1h-26a.5.5 0 0 1-.5-.5Z" fill="#E0E0E0"/><path d="M179.511 217.62h-10.029v8.023h10.029v-8.023Zm-17.049 0h-25.071v8.023h25.071v-8.023Z" fill="#42BDEB"/><path d="M21 265a.5.5 0 0 1 .5-.5h48a.5.5 0 0 1 0 1h-48a.5.5 0 0 1-.5-.5Z" fill="#E0E0E0"/><path d="M49.577 131.971A6.971 6.971 0 0 1 56.56 125c3.858 0 6.982 3.103 6.982 6.959 0 1.109-.26 2.158-.722 3.088 2.716.122 5.109 1.013 7.12 2.285 3.989 2.522 6.48 6.542 7.056 8.965.38 1.573.979 3.275 1.606 5.055.27.768.546 1.55.812 2.344.87 2.598 1.62 5.289 1.593 7.769-.02 2.373.141 3.818.802 5.203.67 1.405 1.874 2.793 4.071 4.993 1.198 1.2 1.778 2.774 1.992 4.414.215 1.638.07 3.374-.209 4.946a28.712 28.712 0 0 1-1.046 4.042 27.429 27.429 0 0 1-.58 1.571l-.016.038-.021.052-.01.024-.003.006-.001.002-.46-.197.46.198a.5.5 0 0 1-.46.302H29.417a.5.5 0 0 1-.496-.433l-.017-.124c-.498-3.67-1.01-7.443-.658-11.214.341-3.802 1.685-7.73 4.301-9.945a13.886 13.886 0 0 1 1.531-1.103l.435-.277a26.53 26.53 0 0 0 1.074-.703c.953-.666 1.75-1.406 2.216-2.531.372-.92.474-1.985.584-3.131l.04-.425c.04-.393.084-.796.147-1.196-.063.345-.112.708-.157 1.086l-.05.429c-.127 1.13-.267 2.372-.789 3.452l-.002.004c-.693 1.398-1.862 2.273-3.08 2.985-.444.26-.908.505-1.362.745l-.002.001c-.165.087-.33.174-.49.261-.613.328-1.199.659-1.732 1.038-2.803 1.992-4.355 5.643-4.773 9.336-.412 3.635.182 7.291.783 10.993l.028.174a.5.5 0 0 1-.987.16l-.038-.233c-.594-3.658-1.207-7.433-.78-11.206.435-3.85 2.066-7.821 5.188-10.039.585-.416 1.216-.771 1.837-1.104l.515-.274c.447-.236.883-.467 1.307-.715 1.162-.679 2.126-1.43 2.688-2.563.442-.916.563-1.975.695-3.128l.05-.433c.152-1.274.366-2.651 1.225-3.748.77-.981 1.85-1.47 2.868-1.867.175-.068.348-.133.518-.198.855-.323 1.642-.62 2.312-1.116.154-.115.3-.239.442-.372.298-.39.564-.842.815-1.337.27-.533.508-1.086.752-1.651.132-.306.266-.616.407-.928l.002-.004c1.452-3.149 3.48-6.065 6.13-7.829a6.944 6.944 0 0 1-3.317-5.925Z" fill="#2851A3"/><path d="m80.287 195.741 10.334-3.396 3.48 11.4h-8.24l-1.864 4.653-3.71-12.657Z" fill="#EBEBEB"/><path d="M90.938 190.863a.5.5 0 0 1 .238.311l2.99 11.621a.5.5 0 1 1-.969.249l-2.86-11.118-9.848 2.942c.466 1.258.954 2.957 1.48 4.846l.28 1.013c.528 1.904 1.098 3.965 1.734 5.986a.5.5 0 1 1-.955.3c-.64-2.039-1.217-4.119-1.744-6.022l-.28-1.009c-.605-2.175-1.14-4.027-1.64-5.249a.5.5 0 0 1 .32-.668l10.865-3.246a.5.5 0 0 1 .389.044Z" fill="#2851A3"/><path d="M85.861 203.746h44.34l-14.119 34.188H72.176l13.685-34.188Z" fill="#fff" fill-opacity=".3"/><path d="M71.579 173.773c-2.277-.607-3.092-3.423-3.092-10.256l-12.549-8.203c.22 10.283.919 15.333-1.32 17.077-.504.401-.452.413-2.315 1.111l-1.967 2.428 5.123 5.981 12.342-1.033 3.08-5.18 1.539-1.615-.841-.31Z" fill="#EBEBEB"/><path d="M55.696 154.877a.5.5 0 0 1 .516.019l12.55 8.202c.14.093.226.25.226.419 0 3.412.205 5.761.67 7.32.46 1.534 1.138 2.21 2.05 2.453l.044.014.841.31a.5.5 0 0 1 .19.814l-1.501 1.574-3.05 5.131a.502.502 0 0 1-.389.243l-12.342 1.033a.499.499 0 0 1-.421-.173l-5.123-5.981a.499.499 0 0 1-.01-.639l1.967-2.429a.5.5 0 0 1 .213-.153c.94-.352 1.366-.52 1.62-.647a2.12 2.12 0 0 0 .466-.312 8.84 8.84 0 0 1 .095-.075l.003-.003c.45-.35.78-.885 1.007-1.698.23-.821.344-1.889.382-3.258.048-1.714-.022-3.833-.11-6.437-.052-1.576-.11-3.329-.152-5.279a.5.5 0 0 1 .258-.448Zm.764 1.376c.039 1.54.086 2.961.13 4.268.087 2.635.16 4.806.11 6.548-.039 1.396-.156 2.56-.418 3.499-.264.944-.685 1.694-1.354 2.216l-.085.068a3.16 3.16 0 0 1-.65.431c-.297.147-.747.324-1.587.639l-1.619 1.999 4.686 5.471 11.83-.991 2.948-4.958a.474.474 0 0 1 .068-.09l1.014-1.064-.106-.039c-1.35-.369-2.212-1.403-2.727-3.127-.497-1.664-.702-4.054-.713-7.336l-11.527-7.534Z" fill="#2851A3"/><path d="M62.807 138.754c-.013 0-.013 0 0 0h-.026c-5.692 0-10.298 4.431-10.298 9.907 0 5.464 1.32 6.653 3.998 6.653l6.3 3.255h.013c10.298 0 10.246-3.966 10.246-9.43.013-5.477-4.554-10.385-10.233-10.385Z" fill="#EBEBEB" stroke="#2851A3" stroke-linecap="round" stroke-linejoin="round"/><path d="M72.976 147.77c.465 3.319.608 7.194-.143 10.217-.88 3.552-3.39 5.89-7.167 6.278-2.225.232-4.515-.607-6.184-2.08-1.669-1.472-3.299-3.449-3.544-6.872" fill="#EBEBEB"/><path d="M72.906 147.274a.5.5 0 0 1 .565.426c.47 3.344.621 7.293-.152 10.407-.928 3.747-3.604 6.245-7.601 6.655-2.38.249-4.806-.648-6.567-2.202-1.726-1.524-3.454-3.612-3.713-7.211a.5.5 0 0 1 .998-.072c.234 3.247 1.766 5.112 3.377 6.533 1.577 1.392 3.731 2.174 5.801 1.958 3.558-.365 5.902-2.543 6.734-5.901.727-2.931.595-6.732.132-10.028a.5.5 0 0 1 .426-.565Z" fill="#2851A3"/><path d="M69.3 150.211a.5.5 0 0 1 .623.335l1.267 4.236c.174.569-.334.996-.813.923l-.029-.006-.906-.193a.5.5 0 0 1 .21-.978l.447.096-1.135-3.791a.5.5 0 0 1 .337-.622Z" fill="#2851A3"/><path d="M54.203 171.813a.499.499 0 0 1 .565.184l.005.007.022.03.096.124c.088.11.22.271.4.469.357.397.898.942 1.621 1.529a15.705 15.705 0 0 0 6.521 3.146c2.409.525 4.17.286 5.388-.389 1.21-.67 1.958-1.81 2.27-3.246a.503.503 0 0 1 .62-.377l4.818 1.303.005.001.018.005.072.018.272.071a61.542 61.542 0 0 1 4.147 1.268c1.208.42 2.505.92 3.667 1.477 1.153.552 2.212 1.178 2.912 1.859.274.268.521.65.747 1.083.23.439.452.961.667 1.534.43 1.145.841 2.525 1.22 3.911.325 1.196.63 2.406.9 3.484l.127.507c.304 1.208.556 2.183.745 2.737a.5.5 0 0 1-.284.624l-.57.233-.013.005-9.706 3.646c.03 2.37-.526 4.992-1.964 7.994l-5.84 15.057a.5.5 0 0 1-.467.319H45.253a.5.5 0 0 1-.5-.481l-.981-25.643-1.341 6.504a.501.501 0 0 1-.673.364l-10.57-4.146a.5.5 0 0 1-.312-.536c.268-1.887.364-3.599.454-5.234.035-.628.07-1.245.113-1.856.155-2.188.424-4.275 1.275-6.395 1.477-3.692 4.035-7.246 9.74-8.783 1.392-.377 3.012-.632 4.69-.897l.96-.152c2.034-.328 4.13-.707 6.095-1.358Z" fill="#42BDEB"/><path d="m42.61 199.996-1.602 8.986s18.514-13.238 19.38-15.137c1.346-3.307 1.58-10.024 1.58-10.024.93-2.273 1.875-4.547 2.806-6.82.415-1.008.841-2.028 1.553-2.842.194-.22.737-.465.737-.168.026.607-.569 2.519-1.125 3.824 0 0 3.105-5.296 4.179-6.769 1.022-1.292.789 1.485.297 2.351 0 0 .932-1.757 1.475-1.408.466.31-.298 1.783-.298 1.783-1.733 4.288-3.79 6.239-4.165 11.896 0 0 3.195-5.942 3.764-5.322.453.44-1.229 4.767-1.746 5.929-1.604 3.566-3.157 7.053-5.887 10.657 0 0-14.153 17.064-16.947 19.854-3.74 3.746-7.75 6.859-11.63 4.973-3.649-1.769-5.822-5.205-5.033-12.517.4-3.448 1.035-9.274 1.449-12.723l11.213 3.477Z" fill="#EBEBEB"/><path d="M67.742 173.827c.756-1.238 1.527-2.466 1.971-3.075a.175.175 0 0 1 .012-.016c.143-.18.305-.346.492-.441a.742.742 0 0 1 .37-.085.661.661 0 0 1 .392.148c.189.152.263.374.298.519.04.164.055.348.058.529l-.001.135c.22-.106.524-.167.827.027l.007.005c.342.228.38.615.372.842a2.764 2.764 0 0 1-.148.736 5.913 5.913 0 0 1-.318.776l-.026.052a37.137 37.137 0 0 1-1.338 2.891l-.256.502a46.562 46.562 0 0 0-.997 2.039 16.62 16.62 0 0 0-1.224 3.824c.141-.238.288-.481.437-.723.437-.707.904-1.414 1.304-1.91.195-.242.4-.466.598-.609a.97.97 0 0 1 .398-.182.643.643 0 0 1 .58.187c.12.121.169.266.19.367.025.109.03.222.028.326a4.021 4.021 0 0 1-.096.706 17.33 17.33 0 0 1-.515 1.801 43.138 43.138 0 0 1-1.255 3.281v.001l-.078.173c-1.576 3.503-3.142 6.985-5.866 10.581l-.014.017-.385-.319c.385.319.384.32.384.32l-.613.738-1.642 1.972c-1.37 1.644-3.228 3.865-5.172 6.173-3.879 4.603-8.134 9.589-9.55 11.004-1.876 1.879-3.859 3.641-5.887 4.69-2.042 1.056-4.188 1.414-6.317.38-1.911-.927-3.461-2.307-4.418-4.425-.95-2.103-1.293-4.889-.893-8.595v-.004c.168-1.443.377-3.306.594-5.239.3-2.676.615-5.485.855-7.487a.501.501 0 0 1 .645-.418l11.213 3.477a.5.5 0 0 1 .345.565l-1.386 7.774c.49-.354 1.14-.823 1.904-1.378a564.468 564.468 0 0 0 6.453-4.754c2.367-1.772 4.756-3.6 6.606-5.102a49.996 49.996 0 0 0 2.288-1.95c.29-.267.521-.495.69-.682.172-.188.25-.3.273-.347.64-1.583 1.029-4.018 1.255-6.105a60.122 60.122 0 0 0 .279-3.662l.002-.055v-.018a.495.495 0 0 1 .038-.172c.465-1.137.934-2.274 1.403-3.409v-.003c.47-1.136.939-2.273 1.404-3.409.41-.996.864-2.095 1.639-2.981l.001-.002c.165-.186.43-.347.663-.422a.872.872 0 0 1 .499-.026.62.62 0 0 1 .3.19c.143.034.262.13.328.257Zm3.406-.285-.1-.238-.05.081c-.045.075-.08.138-.105.181l-.014.025-.029.053a.502.502 0 0 1-.44.253c-.405 1.028-.888 1.893-1.375 2.728l-.208.356c-.632 1.079-1.246 2.127-1.73 3.483a.5.5 0 0 1-.943-.337c.518-1.448 1.178-2.575 1.808-3.649l.002-.002.207-.354c.678-1.164 1.308-2.319 1.736-3.872-.536.828-1.222 1.946-1.853 2.991a307.88 307.88 0 0 0-1.183 1.978l-.057.098-.252.576c-.096.218-.183.415-.253.58-.42 1.013-.689 2.092-.738 3.175v.002c-.024.482 0 .974.038 1.483l.033.422c.03.371.06.751.075 1.122.04 1.037-.038 2.124-.643 3.134a.5.5 0 0 1-.859-.514c.456-.759.54-1.61.502-2.581-.013-.349-.041-.698-.07-1.061l-.036-.449a12.93 12.93 0 0 1-.04-1.604c.056-1.216.356-2.41.815-3.514v-.003l.067-.154a.496.496 0 0 1 .026-.312c.27-.634.552-1.421.762-2.121.07-.233.131-.454.181-.655-.49.677-.83 1.484-1.184 2.347-.466 1.138-.935 2.275-1.404 3.411-.458 1.11-.916 2.219-1.37 3.328l-.01.211a61.169 61.169 0 0 1-.274 3.507c-.226 2.093-.626 4.662-1.327 6.386a.245.245 0 0 1-.009.019c-.089.196-.26.408-.445.612-.197.216-.452.467-.752.744-.6.554-1.404 1.234-2.336 1.991-1.865 1.514-4.267 3.352-6.637 5.126a567.674 567.674 0 0 1-8.576 6.29l-.59.424-.207.149-.292-.406.29.406a.499.499 0 0 1-.784-.494l1.525-8.552-10.217-3.168c-.23 1.94-.512 4.458-.783 6.873-.217 1.933-.426 3.799-.595 5.251-.389 3.604-.04 6.191.811 8.075.845 1.871 2.206 3.094 3.943 3.936 1.752.852 3.553.597 5.42-.368 1.882-.973 3.774-2.641 5.638-4.508 1.378-1.376 5.597-6.317 9.493-10.942a1694.537 1694.537 0 0 0 6.81-8.14l.606-.729c2.651-3.502 4.177-6.893 5.758-10.408l.064-.142c.252-.566.796-1.924 1.22-3.191.188-.564.349-1.098.45-1.531-.34.439-.741 1.047-1.136 1.687a59.106 59.106 0 0 0-1.62 2.803l-.026.049-.006.012-.002.003a.5.5 0 0 1-.94-.269c.192-2.895.817-4.855 1.616-6.633.32-.712.67-1.398 1.023-2.092l.25-.492a35.853 35.853 0 0 0 1.331-2.876Zm-.83-1.745a.492.492 0 0 0-.15.055l.162-.24c-.002.06-.007.122-.013.185Zm1.458.639-.007.003a.193.193 0 0 0 .007-.003Zm-.238-.119-.002-.007v.001l.002.006Z" fill="#2851A3"/><path d="M41.413 208.682a.5.5 0 0 1-.024.707l-3.406 3.184a.5.5 0 0 1-.683-.731l3.406-3.184a.5.5 0 0 1 .707.024Z" fill="#2851A3"/><path d="M136.731 298.825c18.216 13.163 21.838 16.354 21.838 16.354 4.515 3.681 5.55 5.283 5.848 6.11.307.873-.062 2.215-.432 3.555-.624 2.267-1.248 4.531 1.402 4.531 4.217 0 20.674.284 31.114.271.737 0 1.177-.839.75-1.434l-5.019-2.273c-9.134-3.656-14.193-6.536-18.138-9.094-2.609-1.689-4.868-3.709-7.284-5.632-10.336-9.224-17.929-17.093-25.912-25.367l-4.167 12.979Z" fill="#EBEBEB"/><path d="M196.157 330.257c-6.444 0-15.068-.1-21.422-.18-4.092-.05-7.424-.09-9.005-.09a2.438 2.438 0 0 1-2.001-.79c-.77-1-.33-2.649.15-4.369.34-1.25.701-2.529.44-3.259-.42-1.17-2.341-3.15-5.693-5.889-.05 0-3.862-3.359-21.812-16.336a.485.485 0 0 1-.18-.56l4.162-12.997a.48.48 0 0 1 .361-.33.502.502 0 0 1 .48.14c8.004 8.288 15.558 16.126 25.884 25.334.631.51 1.271 1 1.901 1.56a61.308 61.308 0 0 0 5.313 3.999 97.803 97.803 0 0 0 18.06 8.998l5.003 2.289c.081.033.15.089.2.16.151.208.242.453.262.709a1.412 1.412 0 0 1-1.413 1.511l-.69.1Zm-58.502-31.513c17.77 12.857 21.432 16.046 21.582 16.176 4.712 3.839 5.673 5.439 6.003 6.319.33.88 0 2.399-.42 3.849-.421 1.45-.791 2.869-.311 3.499a1.48 1.48 0 0 0 1.231.4c1.591 0 4.933 0 9.005.09 6.584.08 15.599.18 22.092.18a.425.425 0 0 0 .37-.22.452.452 0 0 0 0-.32l-4.872-2.209a98.327 98.327 0 0 1-18.2-9.128 60.932 60.932 0 0 1-5.403-4.099c-.631-.52-1.271-1-1.921-1.56-10.116-8.998-17.57-16.726-25.374-24.815l-3.782 11.838Z" fill="#2851A3"/><path d="M202.292 330.459c.081-.792-.251-1.526-.792-2.1-.538-.572-1.304-1.012-2.175-1.247l-8.7-2.647a.5.5 0 0 0-.479.105c-2.907 2.6-6.536 2.909-11.085 1.729-4.569-1.185-9.95-3.842-16.252-7.032a.503.503 0 0 0-.724.392l-.093.855c-.374 3.387-.673 6.101.105 9.28a.5.5 0 0 0 .477.381l39.211.733a.5.5 0 0 0 .507-.449Z" fill="#2851A3"/><path d="M115.772 245.631c-73.186-18.696-108.307 24.055-14.179 17.529h3.157c-10.812 10.06-15.17 16.933-22.535 30.068-4.044 7.212-12.508 20.785-14.878 24.48-2.37 3.695-7.083 11.285.464 11.139l31.393.819c1.307-.013.075-1.784-1.076-2.391-1.413-.736-3.504-1.504-6.686-2.215-2.996-.669-15.12-4.686-12.613-7.352 0 0 17.845-21.351 34.534-39.539 5.835-6.368 13.105-15.19 13.105-22.992 0-4.948-5.563-8.242-10.686-9.546Z" fill="#EBEBEB"/><path d="M53.959 260.069c8.71 2.769 24.088 4.222 47.6 2.592l.019-.001h3.172a.5.5 0 0 1 .341.865c-10.757 10.011-15.087 16.833-22.44 29.948-4.05 7.224-12.521 20.808-14.892 24.505-1.197 1.867-2.912 4.611-3.42 6.85-.255 1.12-.176 1.982.268 2.553.438.563 1.359 1.001 3.185.966h.023l31.382.818.043-.002a1.119 1.119 0 0 0-.1-.227c-.24-.435-.765-.96-1.254-1.218-1.362-.71-3.408-1.465-6.563-2.17-1.532-.342-5.346-1.525-8.47-2.961-1.554-.714-2.989-1.514-3.88-2.331-.443-.406-.804-.863-.938-1.365-.144-.543-.004-1.068.409-1.514l.196-.234.595-.709a1496.697 1496.697 0 0 1 10.213-12.001c6.55-7.613 15.187-17.502 23.537-26.601 2.912-3.179 6.165-6.951 8.688-10.891 2.529-3.949 4.285-8.007 4.285-11.764 0-2.267-1.27-4.198-3.232-5.747-1.961-1.55-4.563-2.675-7.077-3.315-18.245-4.661-34.103-5.488-46.152-4.218-6.025.635-11.088 1.794-15.017 3.253-3.942 1.465-6.694 3.214-8.153 4.998-.725.886-1.115 1.762-1.197 2.602-.082.834.134 1.679.703 2.523 1.155 1.714 3.757 3.407 8.126 4.796Zm24.86 57.639.384.321a.927.927 0 0 1-.02.021c-.205.219-.23.399-.181.584.061.23.259.529.647.885.77.707 2.085 1.453 3.622 2.16 3.06 1.406 6.807 2.566 8.27 2.893 3.209.717 5.345 1.497 6.809 2.26l.002.001c.661.349 1.328 1.013 1.664 1.618.156.282.312.678.205 1.057a.846.846 0 0 1-.403.51 1.259 1.259 0 0 1-.619.147h-.018l-31.381-.819c-1.942.036-3.258-.42-3.983-1.352-.721-.927-.731-2.166-.454-3.387.554-2.443 2.381-5.34 3.553-7.169 2.369-3.692 10.826-17.256 14.862-24.454 7.164-12.777 11.51-19.675 21.708-29.325h-1.875c-23.543 1.632-39.067.188-47.956-2.638-4.432-1.409-7.304-3.189-8.652-5.19-.683-1.014-.976-2.087-.87-3.178.107-1.085.604-2.141 1.42-3.138 1.622-1.983 4.566-3.811 8.578-5.302 4.024-1.495 9.173-2.668 15.261-3.31 12.179-1.284 28.156-.444 46.505 4.243 2.609.665 5.35 1.84 7.45 3.5 2.101 1.66 3.612 3.85 3.612 6.531 0 4.044-1.879 8.299-4.444 12.303-2.57 4.014-5.871 7.838-8.793 11.027-8.339 9.088-16.969 18.969-23.515 26.578a1484.473 1484.473 0 0 0-10.8 12.7l-.203.243s-.001.001-.385-.32Z" fill="#2851A3"/><path d="M83.391 251.112a.5.5 0 0 0-.508.797l24.028 30.096 15.236 25.779a.5.5 0 0 0 .493.241c7.198-.909 14.145-5.312 19.258-9.436a75.133 75.133 0 0 0 6.161-5.574 65.232 65.232 0 0 0 1.715-1.799c.198-.217.349-.387.452-.503l.085-.096.032-.037.03-.035.01-.012.001-.001a.499.499 0 0 0-.015-.666l-27.297-29.142a.504.504 0 0 0-.248-.144l-39.433-9.468Z" fill="#2851A3"/><path d="M44.763 219.4a.5.5 0 0 0-.38.175l.38.325c-.38-.325-.381-.324-.381-.324l-.002.002-.007.009-.026.031a21.952 21.952 0 0 0-.474.579c-.32.4-.775.985-1.318 1.725a61.387 61.387 0 0 0-3.926 6.076c-2.8 4.968-5.522 11.567-5.01 17.902.257 3.181 1.33 6.294 3.61 9.087 2.28 2.79 5.74 5.233 10.73 7.114 9.819 3.7 25.636 5.256 50.304 2.95-.463.659-1.214 1.768-2.405 3.62-2.535 3.942-7.069 11.257-15.072 24.758a.5.5 0 0 0 .041.568v.001l.003.003.009.011.032.039c.029.035.07.086.126.151.11.132.275.323.49.567a48.341 48.341 0 0 0 1.909 2.024 62.8 62.8 0 0 0 7.27 6.244c6.283 4.617 15.338 9.47 26.38 10.345a.5.5 0 0 0 .528-.388l12.398-54.846.001-.003c.741-3.117.373-5.828-.762-8.166-1.13-2.33-3.006-4.259-5.233-5.851-4.447-3.181-10.394-5.089-14.991-6.183a.503.503 0 0 0-.116-.013H72.184l6.142-15.344a.498.498 0 0 0-.201-.61l-4.05-2.503a.5.5 0 0 0-.264-.075H44.762Z" fill="#2851A3"/><path d="M64.331 232.65a.5.5 0 0 1 .572-.417l7.384 1.145a.5.5 0 0 1-.154.988l-7.384-1.145a.5.5 0 0 1-.418-.571Zm35.186 31.868a.5.5 0 0 1-.053.552l-3.038 3.716a.5.5 0 0 1-.775-.632l2.28-2.788c-1.697.159-3.356.302-4.98.43a.5.5 0 1 1-.078-.997c1.996-.157 4.047-.338 6.155-.543a.502.502 0 0 1 .49.262Zm28.332.495a.5.5 0 0 1 .377.598l-8.512 37.465a.5.5 0 0 1-.976-.222l8.512-37.465a.5.5 0 0 1 .599-.376Z" fill="#EBEBEB"/><path fill-rule="evenodd" clip-rule="evenodd" d="M56.338 138.1a.499.499 0 0 0-.474.306l-4.32 10.256a.498.498 0 0 0 .005.401l3.713 8.125a.5.5 0 0 0 .955-.229l-.252-5.835a38.006 38.006 0 0 0 2.393-.419 21.567 21.567 0 0 0 2.317-.609c.722-.241 1.413-.541 1.877-.916l.002-.001c.282-.23.693-.667 1.132-1.161a67.5 67.5 0 0 0 1.415-1.663c.468-.566.904-1.107 1.224-1.506l.074-.092c.14.226.313.497.502.784.487.735 1.133 1.639 1.672 2.104l.003.002c.426.364 1.038.637 1.665.849.638.215 1.342.381 1.99.507a26.782 26.782 0 0 0 2.221.331l.146.015.04.003.01.001.004.001a.501.501 0 0 0 .544-.498v-2.844c-.007-1.638-.75-3.514-1.87-4.976-1.111-1.452-2.684-2.61-4.42-2.613l-12.568-.323Z" fill="#2851A3"/><path d="M57.077 155.78c-.725-.039-1.863-.285-2.484-.672-.763-.478-1.359-1.356-1.5-2.261-.091-.568 0-2.712 2.056-2.712.828 0 1.566.723 1.915.994" fill="#EBEBEB"/><path d="M53.773 151.48a2.632 2.632 0 0 0-.187 1.289v.001c.12.757.629 1.511 1.272 1.914.247.154.63.297 1.06.406.426.108.86.173 1.185.19a.5.5 0 0 1-.053.999 7.544 7.544 0 0 1-1.377-.22c-.474-.12-.971-.294-1.345-.527v-.001c-.884-.552-1.565-1.555-1.73-2.606l.494-.078-.494.079a3.61 3.61 0 0 1 .26-1.85c.161-.366.414-.732.8-1.005.39-.277.885-.436 1.491-.436.555 0 1.045.24 1.409.476.266.172.52.382.683.518l.13.106a.5.5 0 1 1-.614.789c-.069-.053-.137-.11-.208-.169-.155-.128-.322-.267-.535-.405-.299-.194-.592-.315-.865-.315-.422 0-.71.108-.913.251a1.407 1.407 0 0 0-.463.594Z" fill="#2851A3"/><path d="M103.619 223.785a2.428 2.428 0 1 0 0-4.855 2.429 2.429 0 0 0-2.43 2.428 2.429 2.429 0 0 0 2.43 2.427Z" fill="#fff"/><path d="M43.081 174.625a.5.5 0 0 0-.624-.405c-5.704 1.538-8.263 5.091-9.74 8.784-.85 2.12-1.12 4.206-1.275 6.394a124.56 124.56 0 0 0-.112 1.856c-.091 1.636-.186 3.347-.455 5.235a.499.499 0 0 0 .332.542l11.934 4.133a.5.5 0 0 0 .652-.362l1.997-8.854a.505.505 0 0 0 .007-.189l-2.716-17.134Z" fill="#42BDEB"/><path d="M45.344 192.675a.5.5 0 0 1 .383.595l-1.626 7.527a.5.5 0 0 1-.978-.211l1.627-7.527a.501.501 0 0 1 .594-.384Zm35.264-2.844a.5.5 0 0 1 .591.388c.66 3.172 1.156 6.659.509 10.086a.5.5 0 1 1-.983-.186c.609-3.226.149-6.553-.505-9.697a.5.5 0 0 1 .388-.591Zm23.128 140.626c.081-.791-.251-1.525-.792-2.1-.539-.572-1.304-1.011-2.175-1.247l-8.7-2.647a.5.5 0 0 0-.48.106c-2.928 2.619-6.22 3.099-10.383 2.123-4.205-.986-9.224-3.441-15.528-6.632a.5.5 0 0 0-.669.213c-.934 1.777-1.63 3.281-1.981 4.779-.355 1.513-.352 3 .075 4.741a.5.5 0 0 0 .476.381l39.65.733a.501.501 0 0 0 .507-.45Z" fill="#2851A3"/><g clip-path="url(#ud5oxots9hub)"><path d="M295.755 160.27a.386.386 0 0 1 .393-.163c2.659.501 4.857 2.171 6.71 4.4 1.852 2.229 3.386 5.049 4.713 7.91a.38.38 0 0 1-.026.366.387.387 0 0 1-.325.176l-16.509-.026a.384.384 0 0 1-.377-.305c-.116-.554-.021-1.117.169-1.642.189-.526.482-1.037.789-1.498.301-.453.626-.872.895-1.22l.017-.021c.285-.369.48-.624.56-.782.291-.57.399-.91.455-1.253.036-.227.05-.446.068-.736.012-.192.026-.416.05-.694.085-.998.461-1.778.928-2.483.232-.349.489-.684.742-1.014l.007-.009c.254-.33.505-.657.741-1.006Z" fill="#2851A3"/><path d="M297.348 153.396c-.647 1.275-1.016 3.495-1.016 3.495l-1.188 1.866a.104.104 0 0 0 .078.159l.811.076c0 2.184.108 3.828 2.074 4.162.344.04.682-.001 1.173-.098l.664 2.911-.989 1.832c-.123.266.906.726 2.083.771 2.8.109 5.041-1.601 5.041-1.601l-.922-2.32-.914-2.613s4.791-2.583 3.554-7.008c-1.41-5.422-8.922-4.64-10.449-1.632Z" fill="#EBEBEB"/><path d="M307.812 149.239a1.972 1.972 0 0 0-1.981-1.964c-1.094 0-1.981.88-1.981 1.964 0 .177.024.349.068.512a7.863 7.863 0 0 0-4.065.407 4.857 4.857 0 0 0-1.861 1.16 4.806 4.806 0 0 0-1.157 1.861.62.62 0 0 0-.021.204c-.03.566.324.952.734 1.217.412.265.97.471 1.511.666l.004.001c.499.174 1.016.358 1.423.575a2.2 2.2 0 0 1 .473.323.521.521 0 0 1 .166.255.785.785 0 0 0 .092.253l.622 1.01.001.001a.786.786 0 0 0 .34.296c.009.041.019.095.027.163a3.85 3.85 0 0 1-.011.832c-1.376 2.433-.929 5.157-.522 7.636l.006.033c.186 1.154.359 2.243.361 3.246.002.997-.167 1.872-.637 2.605a.76.76 0 0 0 .649 1.177h6.548c1.9 0 3.495 0 4.618-.002.561-.001 1.005-.002 1.309-.004l.353-.004a6.649 6.649 0 0 0 .139-.005l.012-.001a.767.767 0 0 0 .608-.35.755.755 0 0 0 .058-.72l-.003-.006a4.943 4.943 0 0 1-.452-2.233 4.39 4.39 0 0 0-.774-3.113 11.269 11.269 0 0 0-.684-.917l-.105-.132a.737.737 0 0 0-.038-.041 4.173 4.173 0 0 1-1.323-3.406l.001-.012v-.011a7.258 7.258 0 0 0-.229-1.983 8.108 8.108 0 0 0-1.254-2.319l-.008-.009a5.503 5.503 0 0 1-1.108-2.227c-.418-2.459-1.288-4.191-2.714-5.206l-.01-.006a6.02 6.02 0 0 0-.102-.068 1.96 1.96 0 0 0 .917-1.658Z" fill="#2851A3"/><path d="m301.821 159.476.475-.042c.326-.017.642-.123.922-.298.342-.214.613-.601.674-.999.039-.251.001-1.196-.925-1.196-.373 0-.856.539-1.01.663" fill="#EBEBEB"/><path d="M302.573 156.427c-.039.357-.672 1.2-.672 1.2-.323-1.642-2.644-.493-3.794-1.798-.521-.544-.838-1.65-.752-2.734.353-1.154 1.465-1.812 2.654-2.233.001 0 2.737 4.002 2.564 5.565Z" fill="#2851A3"/><path d="M300.318 150.635a.797.797 0 0 0-.309-.154.386.386 0 0 0-.13.022c-1.21.429-2.483 1.142-2.893 2.482a.447.447 0 0 0-.016.081 4.968 4.968 0 0 0 .162 1.701c.143.515.375.989.689 1.321.638.718 1.572.809 2.267.877l.185.018c.389.041.676.088.884.195.175.089.307.226.365.523a.387.387 0 0 0 .688.155l-.309-.228.309.228.001-.001.001-.002.006-.008.022-.03.076-.105c.062-.088.146-.21.232-.344.085-.133.175-.284.249-.43.067-.134.142-.305.16-.466.054-.49-.117-1.108-.352-1.709a16.114 16.114 0 0 0-.911-1.885 31.332 31.332 0 0 0-1.245-2.048l-.089-.132-.024-.035-.007-.011-.003-.004-.002-.004-.006-.007Zm1.643 6.218a1.421 1.421 0 0 0-.451-.355c-.353-.181-.779-.235-1.155-.275l-.144-.015c-.757-.079-1.386-.144-1.814-.629l-.006-.008a.008.008 0 0 1-.004-.004c-.203-.212-.388-.561-.512-1.003a4.232 4.232 0 0 1-.139-1.396c.285-.867 1.1-1.437 2.121-1.839a29.537 29.537 0 0 1 1.161 1.915c.328.591.644 1.221.868 1.793.23.59.336 1.057.304 1.349a1.698 1.698 0 0 1-.084.209c-.041.081-.091.17-.145.258Zm.229-.467Z" fill="#2851A3"/><path d="M302.309 152.008a6.485 6.485 0 0 0-2.905.526c-.856.381-1.491.926-1.798 1.543-.291.583-.529 1.41-.698 2.117-.083.349-.146.659-.189.882-.022.111-.038.2-.049.261l-.012.069-.003.017v.005a.507.507 0 0 1-.07.185l-.827 1.323.157.015a.501.501 0 0 1 .452.498c0 1.11.032 1.975.264 2.602.11.299.26.525.461.693.199.166.477.3.883.372.253.028.52 0 .982-.093a.5.5 0 0 1 .587.381l.652 2.911a.496.496 0 0 1-.046.344l-.818 1.541c.039.019.084.039.136.06.326.132.811.247 1.335.268 1.269.05 2.425-.32 3.276-.714.424-.196.765-.395.999-.544l.046-.03-.762-1.952-.007-.02-.898-2.613a.501.501 0 0 1 .233-.601l.007-.004.033-.019.134-.082a8.544 8.544 0 0 0 1.887-1.625c.961-1.125 1.735-2.709 1.187-4.706l-.002-.009c-.625-2.445-2.581-3.503-4.627-3.601Zm-6.624 5.158.001-.003a21.938 21.938 0 0 1 .249-1.2c.172-.721.432-1.642.776-2.333.443-.887 1.293-1.568 2.286-2.01a7.5 7.5 0 0 1 3.36-.611c2.362.114 4.785 1.374 5.546 4.348.665 2.427-.305 4.344-1.392 5.616a9.484 9.484 0 0 1-1.978 1.735l.765 2.226.901 2.311a.498.498 0 0 1-.159.576l-.307-.395.307.395-.001.001-.003.002-.006.005-.024.018-.083.06a7.409 7.409 0 0 1-.308.207 9.736 9.736 0 0 1-1.116.607c-.937.434-2.255.864-3.736.806a5.185 5.185 0 0 1-1.669-.339 2.106 2.106 0 0 1-.574-.325.874.874 0 0 1-.228-.283.618.618 0 0 1-.01-.531l.013-.028.885-1.668-.507-2.265c-.289.04-.552.052-.827.02l-.027-.004c-.551-.095-1.006-.291-1.368-.593a2.574 2.574 0 0 1-.758-1.114c-.261-.707-.314-1.581-.324-2.493l-.345-.034a.603.603 0 0 1-.453-.921l1.114-1.783Z" fill="#2851A3"/><path d="M301.165 162.143a.501.501 0 0 0-.707.006c-.489.498-.911.751-1.639.997a.5.5 0 0 0 .32.948c.857-.29 1.419-.62 2.032-1.243a.5.5 0 0 0-.006-.708Z" fill="#2851A3"/></g><g clip-path="url(#ud4sa7zwrtbc)"><path d="M216.012 171.13c-4.769-.077-9.46-.154-14.229-.23-2.188-.077-7.661-.154-10.71-.154-.312-.999 2.189-2.996 2.58-3.841.625-1.23.547-1.537.625-2.92.157-1.844 1.408-2.919 2.424-4.456.938-1.383 1.329-3.15 1.564-4.84.078-.461.156-.922.312-1.383.391-.999.938-1.921 2.033-2.612 2.111-1.383 4.769-1.076 6.645.076 1.563.999 2.267 2.305 2.58 4.149.312 1.921 1.954 2.997 2.501 4.764.313 1.152.079 2.381.391 3.534.391 1.306 1.407 2.228 2.189 3.303.469.769.86 1.767.704 2.613-.313 1.152-1.017 1.536.391 1.997Z" fill="#2851A3"/><path d="M200.34 150.273c-1.214.769-1.815 1.796-2.227 2.851l-.008.021c-.169.499-.253.993-.33 1.445l-.002.015-.003.015c-.232 1.677-.612 3.346-1.482 4.628l-.003.005c-.244.369-.503.712-.767 1.059l-.029.039c-.251.33-.507.667-.738 1.014-.485.731-.883 1.542-.971 2.578l-.001.014c-.012.215-.02.398-.028.559-.017.386-.029.644-.073.903-.057.334-.17.668-.471 1.259l-.008.017c-.061.133-.238.362-.532.695-.109.123-.24.266-.377.417-.188.206-.39.428-.568.633-.321.369-.644.769-.866 1.154-.206.357-.406.836-.26 1.302a.5.5 0 0 0 .477.35c3.046 0 8.512.077 10.693.154h.009l7.114.115 7.115.115a.5.5 0 0 0 .163-.975c-.304-.099-.44-.177-.496-.221.013-.065.053-.165.141-.371l.001-.004a5.674 5.674 0 0 0 .299-.835c.192-1.033-.282-2.168-.768-2.964-.007-.011-.014-.023-.022-.033a17.349 17.349 0 0 0-.704-.893 23.417 23.417 0 0 1-.543-.681c-.384-.506-.695-1.006-.866-1.573-.137-.509-.157-1.044-.176-1.647l-.001-.024c-.019-.58-.04-1.224-.212-1.857l-.005-.017c-.272-.879-.791-1.603-1.255-2.251l-.154-.215c-.515-.726-.941-1.393-1.077-2.23v-.003c-.331-1.951-1.096-3.396-2.804-4.487l-.007-.004c-2.001-1.23-4.87-1.581-7.178-.072Zm6.65.921c1.417.906 2.058 2.072 2.352 3.807.177 1.084.729 1.914 1.249 2.647l.149.21c.475.664.895 1.253 1.117 1.964.137.508.156 1.042.176 1.644l.001.025c.019.579.04 1.224.212 1.857l.003.012c.22.736.613 1.349 1.029 1.897.184.244.379.481.567.71l.068.084c.207.253.405.497.588.747.442.73.743 1.575.632 2.224a5.04 5.04 0 0 1-.255.681c-.076.177-.174.404-.202.623a.994.994 0 0 0 .001.283l-5.757-.094h-.043l-7.081-.115c-2.069-.072-7.034-.145-10.155-.153.022-.046.049-.097.082-.154.171-.297.44-.637.754-.997.183-.211.358-.403.532-.593.135-.149.27-.296.407-.451.272-.307.551-.641.687-.928.322-.634.481-1.067.561-1.538.055-.323.071-.668.09-1.087.006-.149.014-.308.023-.478.07-.805.376-1.452.807-2.102.213-.321.452-.635.708-.973l.023-.029c.261-.344.539-.711.802-1.11 1.004-1.481 1.406-3.342 1.643-5.042.078-.459.15-.876.288-1.288.368-.937.861-1.749 1.83-2.36l.007-.005c1.912-1.253 4.355-.991 6.105.082Z" fill="#2851A3"/><path d="M203.659 172.896h-13.602c0-4.102 8.13-4.609 9.694-5.762h7.817c1.642 1.153 9.694 1.854 9.694 5.762h-13.603Z" fill="#2851A3"/><path d="M207.856 166.725a.505.505 0 0 0-.288-.091h-7.817a.497.497 0 0 0-.297.098c-.133.098-.373.212-.736.341-.354.126-.786.253-1.276.389-.176.049-.359.1-.548.151-.85.234-1.814.498-2.743.824-1.131.399-2.262.906-3.116 1.603-.866.707-1.478 1.639-1.478 2.856a.5.5 0 0 0 .5.5h27.205a.5.5 0 0 0 .5-.5c0-1.175-.614-2.081-1.469-2.775-.845-.686-1.965-1.199-3.091-1.609-.932-.339-1.9-.619-2.758-.867l-.528-.154a21.527 21.527 0 0 1-1.289-.409c-.369-.134-.623-.253-.771-.357Zm-.434.909c.242.145.543.272.863.388.394.143.856.284 1.35.429l.542.157c.857.248 1.786.517 2.683.844 1.092.397 2.088.865 2.803 1.445.55.446.909.937 1.042 1.499h-26.097c.13-.608.5-1.124 1.06-1.581.719-.588 1.719-1.049 2.815-1.434.892-.314 1.814-.567 2.663-.8l.565-.155c.491-.138.952-.272 1.342-.41.313-.112.61-.235.849-.382h7.52Z" fill="#2851A3"/><path d="M199.829 167.057c.391-.307 1.016-.998 1.016-4.225l6.02-3.918c-.078 4.84-.469 7.375.625 8.067-2.423 2.304-5.472 2.228-7.661.076Z" fill="#EBEBEB"/><path d="M207.107 158.476a.501.501 0 0 0-.515.019l-6.02 3.918a.501.501 0 0 0-.227.419c0 1.588-.155 2.507-.336 3.049-.172.516-.366.686-.489.783a.5.5 0 0 0-.042.75c1.178 1.157 2.609 1.776 4.094 1.776 1.484 0 2.971-.619 4.263-1.847a.5.5 0 0 0-.078-.785c-.132-.084-.26-.243-.356-.585-.098-.348-.149-.83-.163-1.481-.017-.747.013-1.645.05-2.732.028-.831.06-1.772.077-2.838a.501.501 0 0 0-.258-.446Zm-.762 1.372c-.016.653-.036 1.264-.055 1.832-.037 1.12-.069 2.069-.052 2.834.015.674.067 1.258.201 1.731.073.261.177.504.322.713-1.026.842-2.13 1.232-3.189 1.232-1.053 0-2.1-.385-3.027-1.158.147-.2.29-.466.413-.834.216-.649.369-1.611.386-3.094l5.001-3.256Z" fill="#2851A3"/><path d="M203.931 150.891c2.879 0 5.264 2.182 5.264 4.931 0 2.748-.658 3.314-2.056 3.314l-3.208 1.617c-5.182 0-5.182-1.94-5.182-4.689 0-2.748 2.303-5.173 5.182-5.173Z" fill="#EBEBEB"/><path d="M209.695 155.822c0-3.058-2.644-5.431-5.764-5.431-3.162 0-5.682 2.656-5.682 5.673v.023c0 .67 0 1.336.086 1.94.087.618.27 1.212.667 1.72.802 1.026 2.316 1.506 4.929 1.506a.503.503 0 0 0 .225-.053l3.105-1.565c.713-.017 1.386-.189 1.84-.839.437-.623.594-1.594.594-2.974Zm-5.764-4.431c2.638 0 4.764 1.992 4.764 4.431 0 1.369-.171 2.055-.413 2.401-.199.284-.503.413-1.143.413a.504.504 0 0 0-.225.054l-3.101 1.563c-2.485-.015-3.536-.499-4.023-1.121-.25-.321-.391-.727-.465-1.246-.075-.526-.076-1.125-.076-1.822 0-2.479 2.086-4.673 4.682-4.673Z" fill="#2851A3"/><path d="M198.787 155.458c-.245 1.602-.326 3.525.081 5.048.408 1.762 1.712 2.884 3.588 3.124a4.283 4.283 0 0 0 3.098-1.041c.815-.721 1.63-1.683 1.793-3.365" fill="#EBEBEB"/><path d="M198.862 154.964a.499.499 0 0 0-.569.419c-.249 1.626-.341 3.625.09 5.244.461 1.977 1.946 3.235 4.009 3.499a4.783 4.783 0 0 0 3.493-1.163c.868-.768 1.78-1.837 1.96-3.691a.501.501 0 0 0-.996-.096c-.146 1.51-.865 2.364-1.627 3.038a3.786 3.786 0 0 1-2.717.919c-1.677-.22-2.794-1.201-3.15-2.74l-.004-.017c-.381-1.424-.311-3.266-.07-4.842a.5.5 0 0 0-.419-.57Zm7.612 1.952c-.078-1.229-7.036 0-7.036-4.609 0 0 1.955-3.381 6.724-1.306 2.267.998 2.814 4.148 2.58 5.915-.079.692-.548.769-1.408.769-.234 0-.469-.769-.86-.769Z" fill="#2851A3"/><path d="m199.006 152.056.432.251-.432-.251a.503.503 0 0 0-.068.251c0 1.299.5 2.227 1.266 2.874.743.627 1.705.967 2.606 1.184.575.139 1.184.239 1.704.325.274.045.524.086.732.126.328.065.553.126.691.191.022.01.039.019.051.027a.5.5 0 0 0 .423.378c.035.033.08.088.145.179l.037.053c.052.074.119.17.182.244.042.05.103.116.182.171a.648.648 0 0 0 .377.126c.414 0 .855-.013 1.202-.169.193-.087.365-.22.492-.414a1.43 1.43 0 0 0 .21-.624c.126-.958.041-2.263-.376-3.471-.417-1.209-1.192-2.388-2.499-2.964l-.002-.001c-2.516-1.095-4.359-.77-5.587-.106a4.988 4.988 0 0 0-1.326 1.039 4.354 4.354 0 0 0-.408.525l-.023.038-.007.011-.003.004-.001.002v.001Zm7.386 5.341.002.001-.002-.001Zm-.374-.343-.005-.005a.017.017 0 0 0 .005.005Zm-6.077-4.602c.053-.074.135-.181.248-.306.229-.252.578-.57 1.06-.83.941-.509 2.46-.837 4.712.143.96.423 1.591 1.317 1.956 2.374.365 1.057.436 2.208.329 3.018l-.001.009a.44.44 0 0 1-.054.194c-.009.015-.023.031-.065.05-.106.048-.29.074-.634.079l-.055-.077-.067-.096a2.108 2.108 0 0 0-.296-.346 1.068 1.068 0 0 0-.218-.153 1.14 1.14 0 0 0-.494-.409c-.258-.122-.589-.202-.924-.267a25.096 25.096 0 0 0-.833-.144 20.407 20.407 0 0 1-1.56-.298c-.849-.205-1.631-.499-2.195-.976-.515-.435-.875-1.042-.909-1.965Z" fill="#2851A3"/><path d="M206.614 159.079c.313 0 .86-.154 1.173-.308.391-.23.625-.614.703-1.075.078-.308 0-1.306-1.016-1.306-.391 0-.938.537-1.095.614" fill="#EBEBEB"/><path d="m208.008 157.559-.002.014v-.001l-.009.04c-.056.332-.213.574-.448.719a3.05 3.05 0 0 1-.478.169 2.043 2.043 0 0 1-.457.079.5.5 0 0 0 0 1c.221 0 .485-.051.716-.113.236-.064.484-.151.677-.246.012-.005.023-.012.034-.018.532-.314.837-.83.939-1.405a1.771 1.771 0 0 0-.136-1.084c-.1-.21-.257-.422-.496-.58a1.56 1.56 0 0 0-.874-.243c-.204 0-.389.067-.528.133a2.718 2.718 0 0 0-.394.236 6.207 6.207 0 0 0-.271.202l-.025.019-.103.078.006-.002a.499.499 0 1 0 .441.897c.089-.044.192-.124.254-.171l.013-.01.025-.02c.075-.058.152-.117.234-.175.092-.064.176-.116.248-.15a.35.35 0 0 1 .101-.037h-.001c.169 0 .266.04.323.078a.413.413 0 0 1 .144.174.791.791 0 0 1 .071.38l-.004.037Z" fill="#2851A3"/></g><g clip-path="url(#udtpuhlfff2d)"><path d="M248.644 169.351c1.288-.427 1.042-3.539 1.1-7.079h7.352c-.09 6.075-.172 6.309 1.018 6.954" fill="#EBEBEB"/><path d="M249.244 162.264a.5.5 0 0 1 .5-.492h7.352a.5.5 0 0 1 .5.508c-.005.367-.01.713-.016 1.037-.037 2.387-.057 3.654.041 4.404.053.41.135.59.217.697.087.115.217.207.514.368a.5.5 0 0 1-.476.879c-.298-.161-.604-.339-.833-.64-.235-.307-.35-.687-.414-1.175-.107-.827-.086-2.181-.049-4.52l.009-.558h-6.352c-.003.396-.004.788-.005 1.172-.003 1.135-.005 2.201-.078 3.077-.055.651-.151 1.248-.337 1.724-.186.477-.495.908-1.016 1.081a.5.5 0 0 1-.314-.95c.123-.04.267-.158.398-.495.133-.339.22-.821.272-1.444.07-.835.072-1.831.075-2.938.001-.553.002-1.133.012-1.735Z" fill="#2851A3"/><path d="M252.944 172.893h13.783c0-3.392-7.916-4.168-9.501-5.38a6.224 6.224 0 0 1-7.511.257l-.364-.257c-1.664 1.212-10.189 2.069-10.189 5.38h13.782Z" fill="#2851A3"/><path d="M249.056 167.109a.502.502 0 0 1 .583-.004l.364.256a5.725 5.725 0 0 0 6.908-.236l.315.388.304-.397c.14.108.383.232.741.372.35.136.775.275 1.255.422.256.079.527.16.809.244.762.227 1.598.476 2.403.76 1.1.389 2.197.862 3.025 1.477.831.616 1.464 1.431 1.464 2.503a.5.5 0 0 1-.5.5h-27.565a.5.5 0 0 1-.5-.5c0-1.072.696-1.878 1.575-2.48.885-.606 2.057-1.079 3.237-1.472.85-.283 1.733-.534 2.539-.763.315-.09.618-.176.903-.259.515-.151.97-.292 1.345-.432.384-.142.645-.269.795-.379Zm8.198 1.013a6.724 6.724 0 0 1-7.827.057l-.096-.068a6.07 6.07 0 0 1-.721.315c-.41.152-.894.302-1.413.454-.3.088-.613.176-.933.267-.799.227-1.647.468-2.474.744-1.159.386-2.222.824-2.988 1.348-.546.374-.891.756-1.046 1.155h26.391c-.142-.427-.47-.822-.979-1.2-.706-.523-1.687-.956-2.764-1.337-.778-.275-1.577-.513-2.332-.738-.287-.086-.568-.17-.839-.253a19.39 19.39 0 0 1-1.325-.447 5.59 5.59 0 0 1-.654-.297Z" fill="#2851A3"/><path d="M258.328 157.185a.63.63 0 0 1 .968-.109c.402.385.353 1.013.287 1.397-.156 1.005-.862 2.368-1.813 2.368" fill="#EBEBEB"/><path d="M258.796 157.41a.145.145 0 0 0-.053.053.5.5 0 0 1-.831-.556c.225-.337.561-.497.895-.508.313-.011.622.108.837.318.31.299.429.676.468.999.037.321.001.627-.035.838a4.54 4.54 0 0 1-.688 1.76c-.347.514-.892 1.027-1.619 1.027a.499.499 0 1 1 0-1c.224 0 .508-.168.79-.587.271-.401.461-.922.529-1.357l.001-.008c.03-.173.05-.372.028-.556-.021-.181-.078-.31-.168-.396l-.005-.004a.106.106 0 0 0-.04-.024.163.163 0 0 0-.064-.011.1.1 0 0 0-.045.012Z" fill="#2851A3"/><path fill-rule="evenodd" clip-rule="evenodd" d="M253.765 150.7h-.008c-3.135 0-5.654 2.853-5.671 6.033v.041c0 .64 0 1.243.047 1.799.131 2.302.624 4.71 2.062 6.059 1.215 1.129 3.299 1.355 4.858.527l.133-.069c.917-.476 1.992-1.034 2.477-2.734.07-.244.142-.466.213-.682.157-.484.305-.937.393-1.527 1.188-.574 1.186-1.646 1.184-3.43l-.001-.26c0-3.18-2.544-5.757-5.687-5.757Z" fill="#EBEBEB"/><path d="M248.094 156.609a.5.5 0 0 1 .5.5c0 1.322.088 2.75.383 4.039.296 1.295.789 2.395 1.559 3.118 1.046.972 2.896 1.188 4.283.451l.003-.001.129-.068c.442-.23.86-.447 1.239-.782.4-.354.764-.849.992-1.648.076-.265.153-.5.225-.722.246-.756.445-1.37.445-2.579a.5.5 0 0 1 1 0c0 1.379-.252 2.15-.507 2.933-.069.21-.137.42-.201.643-.281.984-.75 1.643-1.292 2.122-.476.421-1.002.694-1.434.917a8.74 8.74 0 0 1-.132.069c-1.73.919-4.048.683-5.431-.603l-.002-.002c-.977-.917-1.534-2.239-1.851-3.625-.319-1.393-.408-2.905-.408-4.262a.5.5 0 0 1 .5-.5Z" fill="#2851A3"/><path d="M252.286 148.113c-.747-.192-1.626-.165-2.342.282l-.006.003c-.328.213-.643.528-.785.961-.133.359-.06.697.048.949-.748.148-1.463.571-2.063 1.166-.444.442-.735.858-.909 1.342-.172.477-.22.988-.229 1.595a.405.405 0 0 0 .111.283.39.39 0 0 0 .277.121l.425.004c-.022.878.089 1.679.213 2.284a10.167 10.167 0 0 0 .28 1.075l.022.064.006.018.002.005v.001l.001.001a.39.39 0 0 0 .75-.051l.763-3.464 7.982-.032.014.093c.043.268.109.633.203 1.017.094.381.218.794.379 1.153.123.272.285.554.503.757l.008 1.863a.398.398 0 0 0 .3.386.39.39 0 0 0 .44-.204c.658-1.292 1.156-2.821 1.287-4.296.13-1.464-.099-2.924-.958-4.026-.715-1.085-1.833-1.636-2.734-1.917a7.391 7.391 0 0 0-1.517-.302c-.342-.309-.775-.54-1.188-.713a9.14 9.14 0 0 0-1.283-.418Z" fill="#2851A3"/></g><defs><clipPath id="ud5oxots9hub"><path fill="#fff" transform="matrix(-1 0 0 1 316.479 147)" d="M0 0h27v26H0z"/></clipPath><clipPath id="ud4sa7zwrtbc"><path fill="#fff" transform="translate(189.479 149)" d="M0 0h29v24H0z"/></clipPath><clipPath id="udtpuhlfff2d"><path fill="#fff" transform="translate(238 147)" d="M0 0h30v26H0z"/></clipPath><filter id="uduj2kqs7dda" x="200.301" y="248.439" width="63.382" height="63.382" filterUnits="userSpaceOnUse" color-interpolation-filters="sRGB"><feFlood flood-opacity="0" result="BackgroundImageFix"/><feBlend in="SourceGraphic" in2="BackgroundImageFix" result="shape"/><feGaussianBlur stdDeviation="7.155" result="effect1_foregroundBlur_15877_3465"/></filter></defs></svg>