<svg width="120" height="120" viewBox="0 0 120 120" fill="none" xmlns="http://www.w3.org/2000/svg"><path d="M13.548 18.983a4.5 4.5 0 0 1 4.5-4.5h76.75a.5.5 0 0 1 .5.5v13.372a.5.5 0 0 1-1 0V15.483h-76.25a3.5 3.5 0 0 0-3.5 3.5v14.988a.5.5 0 0 1-1 0V18.983ZM7.674 83.984A3.374 3.374 0 0 0 4.3 87.36c0 4.45 4.205 7.927 9.218 7.927h69.816c.02 0 .04-.001.059-.003a9.077 9.077 0 0 0 2.907-.49.5.5 0 1 0-.327-.946 8.082 8.082 0 0 1-2.639.436c-3.924 0-6.967-2.697-6.967-5.861a4.437 4.437 0 0 0-4.437-4.438H7.674ZM79.2 94.286H13.518c-4.617 0-8.218-3.173-8.218-6.927a2.374 2.374 0 0 1 2.374-2.374H71.93a3.437 3.437 0 0 1 3.437 3.437c0 2.519 1.553 4.672 3.833 5.864Z" fill="#E0E0E0"/><path d="M14.254 79.116a.5.5 0 0 1 .5.5v4.032a.5.5 0 0 1-1 0v-4.032a.5.5 0 0 1 .5-.5Z" fill="#E0E0E0"/><path d="M4 40.534a4 4 0 0 1 4-4h57a4 4 0 0 1 4 4v32a4 4 0 0 1-4 4H8a4 4 0 0 1-4-4v-32Z" fill="#41CCB9"/><path d="M108.999 71.732c4.827 1.78 6.317 5.109 6.348 6.466v7.927c-.316-3.549-4.438-8.468-9.055-8.858l2.707-5.535Z" fill="#fff" fill-opacity=".4"/><path d="M115.368 87.549c-.621 5.217-13.217 7.992-25.442 7.992V87.55c10.467 0 24.595-2.084 25.442-9.2v9.2Z" fill="#41CCB9"/><path d="M42.635 102.34v7.62c29.615-4.976 65.37 3.638 73.12-6.559v-8.056c-10.197 10.605-44.324 1.654-73.12 6.995Z" fill="#4C88FF"/><path d="M86.136 37.76c9.941 0 18-8.06 18-18 0-9.941-8.059-18-18-18-9.94 0-18 8.059-18 18 0 9.94 8.06 18 18 18ZM84.5 12.396c0-.452.366-.818.818-.818h1.636c.452 0 .819.366.819.818v5.727H93.5c.452 0 .818.367.818.819v1.636a.818.818 0 0 1-.818.818h-5.727v5.727a.818.818 0 0 1-.819.819h-1.636a.818.818 0 0 1-.818-.819v-5.727h-5.727a.818.818 0 0 1-.819-.818v-1.636a.82.82 0 0 1 .819-.819H84.5v-5.727Z" fill="#FAC823"/><path d="M84.5 12.396c0-.452.366-.818.818-.818h1.636c.452 0 .818.366.818.818v5.727H93.5a.82.82 0 0 1 .818.819v1.636a.818.818 0 0 1-.818.818h-5.728v5.727a.818.818 0 0 1-.818.819h-1.636a.818.818 0 0 1-.818-.819v-5.727h-5.728a.818.818 0 0 1-.818-.818v-1.636a.82.82 0 0 1 .818-.819H84.5v-5.727Z" fill="#fff"/><path d="M110.738 29.705c.002.053 0 .074 0 .074-.053.508-.373 1.622-.88 3.137a180.794 180.794 0 0 1-1.857 5.197c-.551 1.486-1.129 3.015-1.671 4.45-.828 2.194-1.574 4.168-2.019 5.442a.52.52 0 0 0 .293.656.481.481 0 0 0 .627-.302c.442-1.264 1.179-3.215 2.002-5.395.543-1.437 1.124-2.974 1.682-4.479.7-1.887 1.364-3.72 1.868-5.228.496-1.484.861-2.715.929-3.36a2.624 2.624 0 0 0-.014-.485c-.018-.188-.048-.42-.088-.686a53.103 53.103 0 0 0-.349-2.018 160.364 160.364 0 0 0-1.16-5.545c-.445-1.961-.918-3.893-1.33-5.343a22.407 22.407 0 0 0-.568-1.778 4.143 4.143 0 0 0-.255-.562 1.219 1.219 0 0 0-.163-.226.616.616 0 0 0-.395-.2c-.689-.052-1.24.263-1.649.778-.394.496-.666 1.186-.86 1.954-.388 1.543-.507 3.593-.5 5.609.007 2.025.141 4.056.272 5.577a81.59 81.59 0 0 0 .24 2.361l.005.05c-2.73 6.87-6.37 13.355-10.008 19.84l-.52.927c-.857 1.528-1.953 2.765-2.996 3.469-1.07.721-1.915.788-2.45.384-.973-.78-1.828-2.202-2.665-3.997-.522-1.12-1.016-2.336-1.523-3.582a148.92 148.92 0 0 0-.94-2.278c-.85-1.992-1.78-3.935-2.914-5.403-1.139-1.474-2.53-2.528-4.3-2.615a.477.477 0 0 0-.378.159.52.52 0 0 0-.129.403c.493 4.654.897 8.601 1.244 11.995.894 8.749 1.413 13.822 2.112 17.838.96 5.516 2.262 9.06 5.3 17.325l.142.388a262.666 262.666 0 0 1 4.336 18.258 157.785 157.785 0 0 1 .288 1.486l.014.078.005.026.481-.093.48-.093v-.007l-.004-.021-.015-.079-.059-.311a240.326 240.326 0 0 0-1.136-5.52 263.67 263.67 0 0 0-3.468-14.064l-.127-.345c-3.06-8.324-4.33-11.783-5.274-17.204-.692-3.977-1.205-8.996-2.097-17.716a3305.9 3305.9 0 0 0-1.181-11.41c1.131.236 2.109 1 3.004 2.159 1.048 1.356 1.936 3.192 2.78 5.175.309.725.613 1.474.918 2.221.515 1.268 1.03 2.533 1.56 3.671.844 1.809 1.783 3.429 2.956 4.368l.01.007c1.047.8 2.395.444 3.565-.346 1.2-.81 2.393-2.177 3.308-3.809l.53-.944c3.652-6.509 7.344-13.09 10.107-20.072a.54.54 0 0 0 .032-.261l-.485.064.485-.064v-.003l-.001-.008-.004-.033-.017-.134-.058-.508a81.366 81.366 0 0 1-.177-1.818 68.082 68.082 0 0 1-.269-5.49c-.006-1.995.113-3.936.469-5.346.178-.707.405-1.233.668-1.565.2-.252.41-.382.65-.411.04.08.089.193.147.342.152.397.335.975.538 1.689.404 1.423.873 3.334 1.316 5.287.442 1.952.857 3.937 1.152 5.507.148.785.266 1.462.342 1.977.039.258.066.47.082.633.007.081.012.146.014.196ZM89.997 103.99l.48-.093a.507.507 0 0 1-.388.595.495.495 0 0 1-.573-.409l.481-.093Z" fill="#E0E0E0"/><path d="m107.448 40.63.003.004.01.014.04.056.155.222a47.71 47.71 0 0 1 2.275 3.656c1.275 2.281 2.53 5.03 2.667 7.136a.5.5 0 0 0 .521.477.5.5 0 0 0 .456-.54c-.154-2.37-1.523-5.302-2.798-7.583a48.482 48.482 0 0 0-2.488-3.97l-.043-.06-.011-.016-.004-.005-.391.304.391-.304a.478.478 0 0 0-.686-.105.524.524 0 0 0-.097.714Z" fill="#E0E0E0"/><path d="M111.162 45.053a.482.482 0 0 0-.62.317l-.214.66a172.648 172.648 0 0 1-2.37 6.95.519.519 0 0 0 .287.659c.253.1.535-.032.63-.296a173.509 173.509 0 0 0 2.382-6.984l.213-.658a.519.519 0 0 0-.308-.648Zm1.889 6.257a.49.49 0 0 0-.443.35 5162.47 5162.47 0 0 0-1.26 4.104l-.313 1.02.356.12-.356-.12a.52.52 0 0 0 .319.643.484.484 0 0 0 .615-.328l.312-1.02.829-2.698c.703 2.31.979 5.113-.022 7.305a6376.122 6376.122 0 0 0-4.718 10.35 1671.774 1671.774 0 0 1-4.383 9.579.532.532 0 0 0-.028.364l5.66 20.084c.076.27.348.426.607.348a.51.51 0 0 0 .332-.631l-5.606-19.895c1.574-3.41 2.661-5.798 4.305-9.41 1.167-2.565 2.614-5.746 4.716-10.347 1.391-3.044.609-6.93-.448-9.507a.492.492 0 0 0-.474-.312Z" fill="#E0E0E0"/><path d="M49.338 59.665a3.5 3.5 0 0 0-5.055.11l-2.83 3.088a4.5 4.5 0 0 1-6.465.175l-8.128-7.955a3.5 3.5 0 0 0-4.95.054L11.064 66.219a.5.5 0 1 1-.714-.7l10.846-11.082a4.5 4.5 0 0 1 6.363-.068l8.129 7.955a3.5 3.5 0 0 0 5.028-.137l2.83-3.087a4.5 4.5 0 0 1 6.499-.142l6.557 6.558a.5.5 0 1 1-.707.707l-6.557-6.558ZM63.707 47.5a4.5 4.5 0 1 1-9 0 4.5 4.5 0 0 1 9 0Z" fill="#5F5F5F"/><path d="M21.5 25a.5.5 0 0 1 .5-.5h41a.5.5 0 0 1 0 1H22a.5.5 0 0 1-.5-.5Zm0 6a.5.5 0 0 1 .5-.5h33a.5.5 0 0 1 0 1H22a.5.5 0 0 1-.5-.5Z" fill="#E0E0E0"/></svg>