<svg width="120" height="120" viewBox="0 0 120 120" fill="none" xmlns="http://www.w3.org/2000/svg"><g clip-path="url(#udkopzfcw0na)"><path d="M18.776 49.327C6.95 55.754 2.888 62.595 4.128 68.142l2.15 10.092c-1.095-5.26 3.868-12.398 15.103-19.182l-2.605-9.725Zm64.829-12.621.152-.016c5.381-1.826 18.095-8.748 22.582-11.807l-2.592-8.582c-8.521 5.986-15.67 9.75-22.246 12.427l2.104 7.978ZM96.594 13.44s-.002.196-.032.352c-.027.136-.073.24-.157.156a4.984 4.984 0 0 0-.705-.589 5.861 5.861 0 0 0-.205-.136c-2.709-1.72-7.42-1.617-11.824-.553-.324.078-.647.162-.968.25l-.243-.97a145.587 145.587 0 0 0-1.444-5.29c-.093-.318-.169-.58-.228-.793 3.108-1.091 11.836-1.788 13.624.662 1.002 2.957 1.423 4.244 1.945 6.07a109.362 109.362 0 0 1 .237.84Zm-3.071-6.418c-.27-.284-.832-.586-1.785-.81-1.016-.238-2.287-.344-3.642-.342-2.228.003-4.533.298-6.071.677.303 1.042.77 2.666 1.403 5.153 2.386-.577 4.882-.887 7.144-.785 1.623.072 3.198.36 4.533.965-.396-1.325-.812-2.583-1.582-4.858Z" fill="#0C296E"/><path d="M80.194 23.79c9.078-2.763 17.119-6.36 16.451-10.33a179.43 179.43 0 0 1-.697-2.209c-.43-1.378-.903-2.9-1.535-4.745.705 3.896-7.137 7.417-16.105 10.133l1.885 7.15Z" fill="#00D6B9"/><path d="M12.903 27.403a4 4 0 0 1 2.829-4.9l56.02-15.01a4 4 0 0 1 4.903 2.844l7.13 27.041-16.635 4.293a2 2 0 0 0-1.433 2.45l5.651 21.251a2 2 0 0 0 2.42 1.426l16.531-4.15 2.03 6.708a4 4 0 0 1-2.793 5.022l-27.892 7.474-8.79 2.243-5.888-20.694a2 2 0 0 0-2.452-1.381l-20.76 5.693-.71-2.39-2.239-8.356-7.922-29.564Z" fill="#BBBFC4" fill-opacity=".45"/><path d="M50.114 32.34a.5.5 0 0 1-.354.612L24.534 39.71a.5.5 0 1 1-.258-.966L49.5 31.986a.5.5 0 0 1 .613.353Zm-6.226 11.057a.5.5 0 0 1-.354.613l-15.916 4.265a.5.5 0 1 1-.259-.966l15.916-4.265a.5.5 0 0 1 .613.353Z" fill="#8F959E"/><path d="M96.304 34.258a1 1 0 0 1 1.225.708l6.046 22.565a1 1 0 0 1-.707 1.225l-29.85 7.998a1 1 0 0 1-1.225-.707l-6.046-22.565a1 1 0 0 1 .707-1.225l29.85-7.998Zm-30.109 7.033a2 2 0 0 0-1.414 2.45l6.046 22.565a2 2 0 0 0 2.45 1.414l29.85-7.998a2 2 0 0 0 1.414-2.45l-6.046-22.565a2 2 0 0 0-2.45-1.414l-29.85 7.998ZM45.193 62.108a1 1 0 0 1 1.225.707l7.998 29.85a1 1 0 0 1-.707 1.225l-29.85 7.999a1 1 0 0 1-1.225-.707l-7.998-29.85a1 1 0 0 1 .707-1.225l29.85-7.999Zm-30.109 7.033a2 2 0 0 0-1.414 2.45l7.998 29.849a2 2 0 0 0 2.45 1.415l29.85-7.999a2 2 0 0 0 1.414-2.45l-7.998-29.85a2 2 0 0 0-2.45-1.414l-29.85 7.999Z" fill="#0C296E"/><path d="M19.5 75.35a2 2 0 0 1 1.415-2.414l21.165-5.77a2 2 0 0 1 2.459 1.415l3.407 12.786-5.268-2.741a2 2 0 0 0-2.693.843L35 88.948l-5.67-2.983a2 2 0 0 0-2.7.836l-2.9 5.494-4.228-16.945Zm13.176 2.37a2.77 2.77 0 1 0-5.54 0 2.77 2.77 0 0 0 5.54 0Z" fill="#BBBFC4" fill-opacity=".45"/><path d="M20.796 76.872c-5.129.45-15.54-3.117-16.785-9.34L6.098 77.96c2.178 7.062 13.128 7.444 16.53 7.062l-1.832-8.15Z" fill="#3370FF"/><path d="M113.537 67.695c-.859.053-2.004.323-3.357.869h-.001c-2.187.871-5.544 2.862-9.424 5.369-3.537 2.286-7.475 4.978-11.302 7.595l-1.07.732c-3.435 2.337-6.673 4.522-9.269 6.139-1.298.808-2.444 1.48-3.38 1.96-.468.24-.891.435-1.259.577-.36.138-.697.236-.986.259-2.117.17-3.757-.729-5.515-2.05-.592-.445-1.194-.934-1.836-1.455-1.294-1.05-2.75-2.233-4.61-3.449-2.49-1.617-3.978-2.313-4.967-2.544-.483-.113-.834-.112-1.119-.06-.288.053-.54.164-.828.316l-.008.003a.48.48 0 0 0-.224.193.46.46 0 0 0-.043.251c.015.252.147.577.346.924l.005.008c.073.133.331.457.769.951.42.475.964 1.063 1.561 1.7.278.298.568.605.86.917a154.741 154.741 0 0 1 2.74 2.963c5.546 6.95 6.802 12.06 6.608 15.491-.097 1.712-.554 2.985-.996 3.838a6.69 6.69 0 0 1-.602.963 4.365 4.365 0 0 1-.202.248l-.061.068-.02.019-.005.006-.002.003-.001.001-.354-.354.353.354a.5.5 0 0 1-.706-.708l.007-.008.039-.042c.035-.04.089-.104.156-.192.133-.176.318-.447.51-.818.383-.739.797-1.876.886-3.435.175-3.109-.945-7.981-6.383-14.8a152.083 152.083 0 0 0-2.687-2.904l-.87-.926a88.42 88.42 0 0 1-1.58-1.721c-.41-.464-.755-.876-.894-1.128-.217-.379-.446-.869-.475-1.358-.015-.256.023-.53.162-.787a1.47 1.47 0 0 1 .65-.608c.319-.167.674-.331 1.109-.411.44-.08.931-.07 1.527.07 1.169.272 2.78 1.052 5.284 2.679 1.901 1.242 3.44 2.491 4.757 3.56.627.509 1.204.976 1.745 1.383 1.704 1.28 3.093 1.992 4.834 1.852h.001c.146-.012.377-.07.707-.196.322-.124.71-.302 1.16-.533.9-.461 2.02-1.116 3.308-1.919 2.577-1.604 5.796-3.777 9.233-6.116l1.073-.733c3.823-2.614 7.772-5.315 11.321-7.608 3.87-2.5 7.305-4.545 9.595-5.457 1.418-.572 2.671-.877 3.668-.94.498-.03.95-.002 1.333.095.38.097.729.27.97.557.533.635.313 1.469-.213 2.216-.544.77-1.533 1.655-3.007 2.62-4.538 2.97-9.558 7.056-13.45 10.409a230.166 230.166 0 0 0-6.148 5.493c-.16.148-.282.263-.364.34l-.094.088-.03.029-.344-.363-.344-.363.032-.03.095-.09.367-.343a230.952 230.952 0 0 1 6.177-5.519c3.902-3.36 8.961-7.482 13.555-10.488 1.43-.936 2.3-1.738 2.737-2.36.455-.645.338-.909.265-.995-.062-.074-.194-.166-.45-.231-.254-.065-.595-.093-1.025-.066ZM92.127 88.18l-.343-.363a.5.5 0 1 0 .688.726l-.344-.363Z" fill="#0C296E"/><path d="M104.888 77.157a.5.5 0 0 1 .175.685c-1.812 3.062-3.834 6.045-5.401 8.261a147.816 147.816 0 0 1-2.636 3.607l-.038.05-.013.018-.397-.305.375.33-.117.135-.335.382c-.29.332-.708.81-1.216 1.396a503.316 503.316 0 0 0-3.855 4.493c-2.89 3.412-6.044 7.251-7.27 9.138l-1.46 5.613a.5.5 0 1 1-.967-.251l1.48-5.691a.495.495 0 0 1 .062-.144c1.238-1.932 4.484-5.878 7.392-9.311a503.668 503.668 0 0 1 5.417-6.285l.107-.122.003-.003.037-.05.146-.192c.128-.17.315-.418.55-.736a146.34 146.34 0 0 0 1.918-2.649c1.559-2.204 3.564-5.164 5.358-8.194a.5.5 0 0 1 .685-.175Zm-8.31 12.316.375.33a.492.492 0 0 0 .022-.025l-.397-.305Zm13.437-25.606c-.126-.07-.227-.077-.295-.057a.668.668 0 0 1-.027.006c-.138.032-.263.157-.476.419-1.443 1.771-2.451 2.996-3.458 4.22a1068.508 1068.508 0 0 0-3.455 4.218.5.5 0 0 1-.775-.631c1.443-1.772 2.451-2.997 3.458-4.221a1061.187 1061.187 0 0 0 3.479-4.248c.172-.212.492-.607.989-.728a1.391 1.391 0 0 1 1.048.149c.293.164.542.418.694.708a.468.468 0 0 1 .036.089c.121.4.065.873-.039 1.306-.108.45-.289.935-.493 1.398-.407.922-.933 1.817-1.256 2.264a.5.5 0 1 1-.811-.585c.277-.384.77-1.216 1.152-2.083a7.66 7.66 0 0 0 .436-1.228c.084-.349.094-.593.065-.739a.783.783 0 0 0-.272-.257Zm-8.42 2.51c.295.089.549.284.707.592l.005.01c.186.384.138.778.033 1.092a3.18 3.18 0 0 1-.447.823.5.5 0 1 1-.811-.585c.138-.19.251-.383.31-.557.057-.168.046-.268.017-.332a.156.156 0 0 0-.102-.086.675.675 0 0 0-.324.01c-.314.068-.684.27-.95.494-2.137 1.929-4.387 5.014-5.769 7.554a.496.496 0 0 1-.064.092l-.375-.33.375.33-.046.052-.134.15-.501.56c-.43.479-1.042 1.153-1.765 1.936-1.445 1.565-3.34 3.57-5.137 5.322a.5.5 0 0 1-.698-.717c1.778-1.733 3.66-3.724 5.1-5.283a207.214 207.214 0 0 0 2.255-2.483l.132-.148.007-.009c1.425-2.605 3.727-5.764 5.956-7.774l.01-.01c.363-.308.88-.602 1.39-.713.256-.056.547-.074.826.01Z" fill="#0C296E"/><path d="M107.791 62.836c-.648.098-1.269.466-1.658.794l-.012.01c-.393.31-.896.844-1.436 1.483a48.589 48.589 0 0 0-1.572 1.989c-4.298 5.677-4.733 6.154-8.934 10.759l-.957 1.05a.5.5 0 1 1-.74-.674l.969-1.062c4.175-4.576 4.594-5.035 8.864-10.676a48.408 48.408 0 0 1 1.606-2.031c.544-.644 1.098-1.241 1.574-1.618.477-.401 1.262-.879 2.146-1.013.926-.14 1.944.104 2.755 1.129a.5.5 0 0 1-.784.62c-.564-.712-1.21-.852-1.821-.76Z" fill="#0C296E"/><path d="M78.387 46.672c-.397-1.488.965-2.847 2.451-2.447l10.25 2.756c1.488.4 1.984 2.259.894 3.346l-7.512 7.5c-1.09 1.087-2.948.587-3.345-.9l-2.738-10.255Z" fill="#BBBFC4" fill-opacity=".45"/></g><defs><clipPath id="udkopzfcw0na"><path fill="#fff" d="M0 0h120v120H0z"/></clipPath></defs></svg>