<svg width="120" height="120" viewBox="0 0 120 120" fill="none" xmlns="http://www.w3.org/2000/svg">
  <path d="m117.604 90.295-.021 7.107c-.381-1.454-2.322-3.58-4.526-3.576l1.062-7.173c1.798.238 2.717.968 3.485 3.642Z" fill="#2851A3"/>
  <path d="M69.116 108.675v-7.797c14.233-4.51 30.991.027 39.196-1.253 7.248-1.13 9.329-4.512 9.329-9.501v9.647c0 2.996-.994 6.153-8.56 7.622-7.566 1.47-25.99-3.54-39.965 1.282Z" fill="#4C88FF"/>
  <path d="M32.688 90.608v-8.472C19.94 81.73 14.858 78.172 7.546 70.86v9.866c3.803 3.857 10.794 9.285 25.14 9.883Z" fill="#FAC823"/>
  <path d="M16.997 25.355v54a4.5 4.5 0 0 0 4.5 4.5h57.4a.5.5 0 1 0 0-1h-57.4a3.5 3.5 0 0 1-3.5-3.5v-54a3.5 3.5 0 0 1 3.5-3.5l72.546.001a3.5 3.5 0 0 1 3.5 3.5v22.402a.5.5 0 1 0 1 0V25.356a4.5 4.5 0 0 0-4.5-4.5H21.497a4.5 4.5 0 0 0-4.5 4.5Z" fill="#EBEBEB"/>
  <path d="M97.86 40c9.941 0 18-8.059 18-18s-8.059-18-18-18c-9.94 0-18 8.059-18 18s8.06 18 18 18Zm-1.636-25.364c0-.451.366-.818.818-.818h1.636a.82.82 0 0 1 .819.818v5.728h5.727c.452 0 .818.366.818.818v1.636a.818.818 0 0 1-.818.818h-5.727v5.728a.818.818 0 0 1-.819.818h-1.636a.818.818 0 0 1-.818-.818v-5.728h-5.727a.818.818 0 0 1-.819-.818v-1.636c0-.452.367-.818.819-.818h5.727v-5.728Z" fill="#FAC823"/>
  <path d="M96.224 14.636c0-.452.366-.818.818-.818h1.636c.452 0 .818.366.818.818v5.728h5.728c.452 0 .818.366.818.818v1.636a.818.818 0 0 1-.818.818h-5.728v5.728a.818.818 0 0 1-.818.818h-1.636a.818.818 0 0 1-.818-.818v-5.728h-5.728a.818.818 0 0 1-.818-.818v-1.636c0-.452.367-.818.818-.818h5.728v-5.728Z" fill="#fff"/>
  <path d="M72.301 64.635a2.674 2.674 0 0 1 1.708-.449h.004c.98.095 2.24.476 3.127 1.111.96.684 1.786 1.267 2.53 1.792 2.89 2.041 4.55 3.214 8.157 6.082a.5.5 0 1 1-.622.783c-3.585-2.85-5.223-4.007-8.107-6.045-.745-.526-1.573-1.11-2.538-1.798h-.001c-.712-.51-1.79-.847-2.64-.929a1.675 1.675 0 0 0-1.056.28c-.246.168-.411.382-.478.617l19.992 28.258a.5.5 0 0 1 .092.289v15.946a.5.5 0 0 1-1 0V94.785l-20.02-28.298a.5.5 0 0 1-.09-.333c.058-.663.452-1.186.942-1.519Z" fill="#EBEBEB"/>
  <path d="M84.834 32.925v-.185c0-.126.006-.308.02-.527.028-.44.094-1.017.241-1.583.149-.572.37-1.092.681-1.453.296-.343.675-.55 1.21-.529.544.028.953.432 1.316 1.382.278.728.474 1.631.688 2.62.063.291.128.59.197.895.292 1.305 1.47 8.147 2.579 14.691a4874.141 4874.141 0 0 1 1.962 11.665l.18 1.071.492-.082c.494-.082.493-.083.493-.083l-.178-1.07a5392.058 5392.058 0 0 0-1.963-11.668c-1.106-6.523-2.29-13.407-2.59-14.744v-.001a75.016 75.016 0 0 1-.183-.834c-.217-1.003-.435-2.01-.743-2.817-.39-1.021-1.018-1.965-2.202-2.024h-.004a2.426 2.426 0 0 0-2.01.874c-.455.527-.727 1.215-.893 1.856a9.694 9.694 0 0 0-.271 1.77 10.642 10.642 0 0 0-.022.748v.063l.001.002.5-.016-.5.016v.015c.368 6.052 1.02 13.83 1.67 21.6l.001.005c.652 7.776 1.302 15.543 1.669 21.582a.5.5 0 1 0 .998-.06c-.367-6.053-1.019-13.83-1.67-21.6v-.006c-.651-7.771-1.302-15.535-1.669-21.573Zm9.649 28.458a.5.5 0 0 1-.576-.411l.493-.082.494-.082a.5.5 0 0 1-.411.575Z" fill="#EBEBEB"/>
  <path d="m94.815 55.942-.682.084a.5.5 0 1 1-.122-.992l.72-.09c3.67-.454 7.612-.943 11.155-.398 3.82.588 7.213 2.382 9.366 6.668.722 1.437 1.067 3.547 1.171 6.006.106 2.475-.03 5.364-.312 8.399-.56 6.047-1.704 12.72-2.701 17.938l.999 16.834a.5.5 0 0 1-.999.06l-1.002-16.897a.568.568 0 0 1 .008-.124c.998-5.216 2.141-11.881 2.7-17.904.279-3.012.411-5.852.308-8.263-.103-2.428-.443-4.36-1.066-5.6-1.979-3.94-5.057-5.58-8.624-6.128-3.4-.524-7.21-.052-10.92.407Z" fill="#EBEBEB"/>
  <path d="M100.842 54.646a.5.5 0 0 1 .565.425l.674 4.751a.5.5 0 1 1-.99.14l-.674-4.75a.5.5 0 0 1 .425-.566Zm6.86.434a.501.501 0 0 1 .518.482c.033.95.009 1.677-.021 2.395l-.009.214a37.273 37.273 0 0 0-.047 2.118.501.501 0 0 1-1 .01 38.475 38.475 0 0 1 .057-2.384 28.44 28.44 0 0 0 .02-2.318.5.5 0 0 1 .482-.517Z" fill="#EBEBEB"/>
  <path d="M11.924 99.535v-8.253c8.764 8.254 30.515 12.847 46.462 10.71v7.585c-17.745 2.118-38.441-2.17-46.462-10.041Z" fill="#41CCB9"/>
  <path d="M3.9 49.81v9.781c0-2.6 2.436-9.78 5.317-9.78V42.13c-2.526 0-5.317 4.014-5.317 7.68Z" fill="#EBEBEB"/>
  <path d="M3.89 50.132c0 1.298.338 2.5.998 3.644 1.537 2.663 4.82 5 9.638 7.463l-.203 9.273a32.71 32.71 0 0 0-.986-.69c-.718-.486-1.445-.942-2.16-1.392-3.812-2.397-7.287-4.581-7.287-9.65v-8.648Zm.998 5.3v3.483c0 1.464.317 2.607.824 3.554.51.956 1.247 1.777 2.174 2.555.934.786 2.026 1.5 3.23 2.26l.499.313c.568.358 1.156.727 1.746 1.116l.152-6.935c-3.168-1.66-5.73-3.322-7.54-5.13a13.34 13.34 0 0 1-1.085-1.217Zm29.97-26.622a3.5 3.5 0 1 1 7 0 3.5 3.5 0 0 1-7 0Zm3.5-2.5a2.5 2.5 0 1 0 0 5 2.5 2.5 0 0 0 0-5Zm-13.5 2.5a3.5 3.5 0 1 1 7 0 3.5 3.5 0 0 1-7 0Zm3.5-2.5a2.5 2.5 0 1 0 0 5 2.5 2.5 0 0 0 0-5Z" fill="#EBEBEB"/>
  <path d="M56.084 55c4.312 0 8.026 3.622 8.026 8.089v3.244C64.11 67.8 62.917 69 61.46 69H49.51c-1.456 0-2.62-1.2-2.62-2.667V63.09c0-4.468 3.726-8.09 8.038-8.09h1.156Zm-8.367 1.333c.167 0 .333.008.498.022-3.517 2.419-3.741 4.67-3.741 10.25V67H41.83c-.663 0-1.331-.537-1.331-1.333V62.4c0-3.35 2.785-6.067 6.019-6.067h1.199Zm16.764 0c3.234 0 6.019 2.717 6.019 6.067v3.267c0 .777-.59 1.333-1.384 1.333h-2.59v-.395c0-5.58-.224-7.831-3.741-10.25a5.85 5.85 0 0 1 .498-.022h1.198ZM64.11 49a2.964 2.964 0 0 1 2.107.879A3 3 0 0 1 67.09 52a3.019 3.019 0 0 1-.873 2.121 2.98 2.98 0 0 1-2.107.88 2.97 2.97 0 0 1-2.108-.88 3.01 3.01 0 0 1 0-4.242A2.97 2.97 0 0 1 64.11 49Zm-17.22 0a2.965 2.965 0 0 1 2.108.879A3 3 0 0 1 49.87 52a3.017 3.017 0 0 1-.873 2.121 2.98 2.98 0 0 1-2.108.88 2.97 2.97 0 0 1-2.107-.88 3.01 3.01 0 0 1 0-4.242A2.97 2.97 0 0 1 46.89 49Zm8.61-6a4.62 4.62 0 0 1 3.278 1.367 4.683 4.683 0 0 1 1.358 3.3 4.682 4.682 0 0 1-1.358 3.3 4.62 4.62 0 0 1-3.278 1.367 4.62 4.62 0 0 1-3.278-1.367 4.682 4.682 0 0 1-1.358-3.3 4.68 4.68 0 0 1 1.358-3.3A4.62 4.62 0 0 1 55.5 43Z" fill="#41CCB9"/>
</svg>
