<svg width="350" height="350" viewBox="0 0 350 350" fill="none" xmlns="http://www.w3.org/2000/svg"><path d="M24.736 125.795a4.495 4.495 0 0 0-4.492 4.499v34.131a4.495 4.495 0 0 0 4.492 4.499h31.183a4.495 4.495 0 0 0 4.492-4.499v-34.131a4.495 4.495 0 0 0-4.492-4.499H24.736Z" fill="#00D6B9"/><path d="M250.553 275.561h-77.339l-13.755 51.628h77.339l13.755-51.628Z" fill="#14C0FF"/><path d="M236.799 327.189H135.792v2.311h101.007v-2.311Z" fill="#0C296E"/><g filter="url(#ud3uv5tvzi4a)"><path d="M95.887 90.517c9.553 0 17.298-7.759 17.298-17.329s-7.745-17.329-17.298-17.329c-9.554 0-17.3 7.759-17.3 17.329s7.746 17.329 17.3 17.329Z" fill="#FFC60A"/></g><path d="M14 329.5a.5.5 0 0 1 .5-.5h320.393a.5.5 0 0 1 0 1H14.499a.5.5 0 0 1-.499-.5Z" fill="#0C296E"/><path d="M269.619 230.195a3.997 3.997 0 0 0-3.993 4v9.045h23.048c1.102 0 1.996.896 1.996 2v9.039h19.047a3.997 3.997 0 0 0 3.993-4v-16.084c0-2.209-1.788-4-3.993-4h-40.098Z" fill="#FFC60A"/><g filter="url(#ud8hwftiw14b)"><path d="M265.626 243.24h25.044v11.038h-21.051a3.996 3.996 0 0 1-3.993-3.999v-7.039Z" fill="#FFC60A"/></g><path d="M77.05 121.984v14.962a.5.5 0 1 0 .998 0v-14.962C78.048 65.107 124.076 19 180.854 19s102.805 46.107 102.805 102.984h.998C284.657 64.555 238.183 18 180.854 18S77.05 64.555 77.05 121.984Z" fill="#0C296E"/><path d="M31.325 152.528v103.443c0 4.418 3.575 7.999 7.985 7.999h95.322l26.106 23.537V263.97h31.425c4.41 0 7.985-3.581 7.985-7.999V152.528c0-4.418-3.575-7.999-7.985-7.999H39.31c-4.41 0-7.985 3.581-7.985 7.999Z" fill="#fff"/><path d="M39.31 145.029c-4.135 0-7.486 3.357-7.486 7.499v103.443c0 4.142 3.351 7.499 7.486 7.499h95.322c.124 0 .242.046.334.128l25.273 22.786V263.97a.5.5 0 0 1 .499-.5h31.425c4.134 0 7.486-3.357 7.486-7.499V152.528c0-4.142-3.352-7.499-7.486-7.499H39.31Zm-8.484 7.499c0-4.694 3.798-8.499 8.484-8.499h152.853c4.686 0 8.484 3.805 8.484 8.499v103.443c0 4.694-3.798 8.499-8.484 8.499h-30.926v23.037a.5.5 0 0 1-.833.371l-25.963-23.408H39.31c-4.686 0-8.484-3.805-8.484-8.499V152.528Z" fill="#0C296E"/><path d="M76.88 267.178a.5.5 0 0 0-.498.5V329a.5.5 0 1 0 .998 0v-61.322a.5.5 0 0 0-.5-.5Z" fill="#0C296E"/><path d="M187.172 194.971c-4.41 0-7.984-3.581-7.984-7.999v-74.438c0-4.418 3.555-7.999 7.964-7.999h126.8c4.41 0 7.965 3.581 7.965 7.999v13.761h-22.548c-8.402 0-15.211 6.824-15.211 15.243v11.243c0 2.209 1.787 4 3.992 4h33.767v30.191c0 4.418-3.574 7.999-7.984 7.999h-5.192l-25.863 24.546v-24.546h-95.706Z" fill="#fff"/><path d="M187.153 105.035c-4.133 0-7.466 3.356-7.466 7.499v74.438c0 4.142 3.351 7.499 7.485 7.499h95.706a.5.5 0 0 1 .499.5v23.384l25.021-23.747a.498.498 0 0 1 .343-.137h5.192c4.134 0 7.485-3.357 7.485-7.499v-29.51a.5.5 0 0 1 .999 0v29.51c0 4.694-3.799 8.499-8.484 8.499h-4.993l-25.719 24.409a.5.5 0 0 1-.842-.363v-24.046h-95.207c-4.685 0-8.484-3.805-8.484-8.499v-74.438c0-4.692 3.777-8.499 8.465-8.499h126.8c4.687 0 8.464 3.807 8.464 8.499v12.907a.5.5 0 1 1-.999 0v-12.907c0-4.143-3.333-7.499-7.465-7.499h-126.8Zm99.716 138.203a3.497 3.497 0 0 1 3.493 3.5v28.927l-8.243-8.056a.498.498 0 0 0-.348-.142H248.28a3.496 3.496 0 0 1-3.493-3.499v-17.23c0-1.933 1.564-3.5 3.493-3.5h38.589Zm4.491 3.5c0-2.485-2.011-4.5-4.491-4.5H248.28a4.495 4.495 0 0 0-4.491 4.5v17.23a4.494 4.494 0 0 0 4.491 4.499h33.287l8.946 8.742a.499.499 0 0 0 .847-.358v-30.113Zm-3.21-159.935a3.496 3.496 0 0 0-3.494 3.499c0 1.933 1.564 3.5 3.494 3.5a3.496 3.496 0 0 0 3.493-3.5c0-1.933-1.564-3.5-3.493-3.5Zm-4.492 3.499c0-2.485 2.011-4.5 4.492-4.5a4.495 4.495 0 0 1 4.491 4.5c0 2.485-2.011 4.5-4.491 4.5a4.496 4.496 0 0 1-4.492-4.5Z" fill="#0C296E"/><path d="M208.215 305.492a4.211 4.211 0 0 0 4.208-4.215 4.212 4.212 0 0 0-4.208-4.215 4.212 4.212 0 0 0-4.207 4.215 4.211 4.211 0 0 0 4.207 4.215Z" fill="#fff"/><path d="M302.877 86.803a3.496 3.496 0 0 0-3.493 3.499c0 1.933 1.564 3.5 3.493 3.5a3.497 3.497 0 0 0 3.494-3.5c0-1.933-1.564-3.5-3.494-3.5Zm-4.491 3.499c0-2.485 2.011-4.5 4.491-4.5a4.496 4.496 0 0 1 4.492 4.5c0 2.485-2.011 4.5-4.492 4.5a4.495 4.495 0 0 1-4.491-4.5Zm14.728 0c0-2.485 2.011-4.5 4.491-4.5a4.496 4.496 0 0 1 4.492 4.5c0 2.485-2.011 4.5-4.492 4.5a4.495 4.495 0 0 1-4.491-4.5Z" fill="#0C296E"/><path d="m88.476 207.6-15.878-7.258c1.662-4.281 3.16-9.302 3.16-9.302s-3.435-11.045-2.653-12.053c.783-1.004 12.213-11.496 12.213-11.496l10.673-.539 3.01 1.137s3.281 7.652 1.989 11.309l3.651 6.452-3.405.605s.921 9.732-4.236 11.243c-5.152 1.51-10.329-2.83-10.329-2.83" fill="#fff"/><path d="M88.375 208.107a.51.51 0 0 1-.2-.05l-15.88-7.259a.49.49 0 0 1-.26-.63c1.478-3.81 2.846-8.269 3.105-9.119-1.317-4.239-3.334-11.318-2.525-12.368.808-1.05 11.099-10.478 12.267-11.558a.53.53 0 0 1 .309-.13l10.68-.54a.668.668 0 0 1 .2 0l2.994 1.14a.53.53 0 0 1 .28.27c.129.32 3.223 7.589 2.075 11.458l3.534 6.259a.51.51 0 0 1 0 .46.514.514 0 0 1-.36.28l-2.994.52c.12 2 .25 9.878-4.621 11.308-5.35 1.57-10.57-2.739-10.79-2.919a.504.504 0 0 1-.065-.705.493.493 0 0 1 .704-.065c.05 0 4.99 4.149 9.861 2.729 4.871-1.419 3.893-10.618 3.883-10.708a.511.511 0 0 1 .409-.54l2.715-.49-3.304-5.829a.524.524 0 0 1 0-.42c1.108-3.119-1.407-9.548-1.896-10.748l-2.715-1-10.38.52c-3.274 2.999-11.419 10.528-11.978 11.318-.3.75 1.148 6.489 2.735 11.598a.48.48 0 0 1 0 .29c0 .05-1.417 4.75-2.994 8.899l15.45 7.059a.508.508 0 0 1 .25.66.503.503 0 0 1-.489.31Z" fill="#0C296E"/><path d="M89.525 196.452a.5.5 0 0 1 .444.55l-.998 9.498a.5.5 0 1 1-.993-.105l.999-9.498a.499.499 0 0 1 .548-.445Zm-14.77-35.539s-14.092 2.138-7.686 18.982c3.693 9.709 8.22 12.57 8.22 12.57l4.483-6.472s-5.053-6.155-.78-8.542c4.271-2.382 5.857 5.553 5.178 8.035l3.36-7.081s6.296-1.74 5.273-8.663c0 0 11.302.509 11.28.074-.017-.436-1.511-13.219-11.655-11.1 0 0-.602-4.667-8.376-3.311-7.774 1.361-9.297 5.508-9.297 5.508Z" fill="#0C296E"/><path d="M76.82 159.045c1.277-1.14 3.514-2.479 7.318-3.145 3.788-.661 5.711.162 6.686 1.029.496.44.775.916.93 1.278a3.035 3.035 0 0 1 .175.551l.004.025v.002-.002.002a.501.501 0 0 0 .597.423c2.426-.507 4.295-.118 5.747.723 1.463.847 2.545 2.178 3.34 3.621.794 1.442 1.286 2.969 1.58 4.17a18.767 18.767 0 0 1 .34 1.723c-.286.024-.702.039-1.213.046a108.2 108.2 0 0 1-3.86-.046 302.972 302.972 0 0 1-5.154-.179l-.358-.016-.126-.005-.023.499.023-.499a.498.498 0 0 0-.516.572c.484 3.275-.754 5.28-2.092 6.483a8.095 8.095 0 0 1-2.587 1.548c-.078.028-.14.048-.18.061l-.043.013-.01.003a.502.502 0 0 0-.318.267l-2.308 4.865a12.349 12.349 0 0 0-.027-.263c-.124-1.094-.403-2.292-.847-3.343-.44-1.039-1.071-1.997-1.94-2.524-.912-.553-2.005-.582-3.207.089-1.206.673-1.784 1.642-1.933 2.71-.144 1.035.12 2.123.499 3.078.382.962.9 1.838 1.317 2.469.204.308.386.56.52.739l-3.981 5.747a9.979 9.979 0 0 1-.32-.268 16.919 16.919 0 0 1-1.904-1.987c-1.557-1.885-3.585-4.98-5.413-9.786-1.58-4.152-1.878-7.353-1.476-9.812.401-2.453 1.505-4.205 2.797-5.457 1.298-1.259 2.794-2.021 3.974-2.469a12.574 12.574 0 0 1 1.45-.455 9.09 9.09 0 0 1 .413-.091l.106-.02.025-.004.005-.001a.499.499 0 0 0 .393-.319v-.001l.001-.002.01-.023c.01-.023.026-.06.05-.11.049-.099.13-.249.25-.437a7.29 7.29 0 0 1 1.286-1.472Zm-1.53 33.422-.266.423a.498.498 0 0 0 .676-.138l4.483-6.472a.5.5 0 0 0-.025-.602l-.385.317.385-.317-.002-.003-.009-.011-.016-.02-.022-.028a14.918 14.918 0 0 1-.643-.896c-.396-.598-.875-1.41-1.222-2.285-.35-.882-.548-1.781-.438-2.571.106-.758.5-1.454 1.43-1.975.933-.52 1.64-.449 2.205-.107.608.369 1.132 1.103 1.538 2.06.4.945.658 2.047.774 3.065.117 1.029.082 1.917-.063 2.449a.5.5 0 0 0 .932.347l3.267-6.886.079-.028a9.053 9.053 0 0 0 2.917-1.745c1.467-1.32 2.795-3.468 2.484-6.775l1.18.048c1.061.041 2.475.091 3.89.128 1.413.036 2.831.059 3.898.046.531-.007.986-.023 1.313-.052.16-.015.311-.034.43-.064a.842.842 0 0 0 .22-.083.546.546 0 0 0 .282-.498l-.498.025.498-.02c-.006-.154-.11-1.07-.416-2.316-.307-1.253-.826-2.87-1.675-4.414-.85-1.542-2.044-3.037-3.715-4.004-1.581-.916-3.552-1.337-5.98-.925a4.61 4.61 0 0 0-1.309-1.959c-1.27-1.129-3.535-1.961-7.521-1.266-3.97.695-6.382 2.109-7.81 3.383a8.308 8.308 0 0 0-1.46 1.677 5.43 5.43 0 0 0-.287.496 13.688 13.688 0 0 0-1.933.574c-1.261.479-2.888 1.304-4.313 2.685-1.43 1.387-2.649 3.329-3.088 6.014-.438 2.678-.096 6.061 1.528 10.33 1.866 4.904 3.948 8.095 5.577 10.067a17.905 17.905 0 0 0 2.017 2.104c.251.219.453.377.594.482a6.363 6.363 0 0 0 .212.149l.013.009.005.003.001.001s.002.001.268-.422Zm28.563-23.066-.003.001.003-.001Z" fill="#0C296E"/><path d="M146.035 206.854c1.205-4.148 1.977-8.704 3.226-11.981a160.037 160.037 0 0 1 3.285-8.014c2.564-5.841 8.743-11.493 9.437-11.63.915.416-.624 3.233-1.887 4.795-1.859 2.304-3.418 5.989-3.418 5.989 3.597 1.227 5.911 2.765 7.218 5.086 1.303 2.323-3.124 9.906-4.137 11.228-1.522 1.984-7.621 9.286-7.621 9.286" fill="#fff"/><path d="M162.19 174.775a.502.502 0 0 0-.303-.036 1.156 1.156 0 0 0-.352.151 4.494 4.494 0 0 0-.349.238c-.256.191-.577.456-.942.782a36.275 36.275 0 0 0-2.648 2.66c-1.969 2.179-4.194 5.098-5.507 8.088a161.38 161.38 0 0 0-3.295 8.037c-.637 1.672-1.148 3.659-1.648 5.725l-.288 1.204c-.406 1.698-.819 3.427-1.302 5.091a.499.499 0 0 0 .172.534l6.103 4.759a.5.5 0 0 0 .69-.074l-.383-.32.383.32.001-.001.264-.317.712-.854c.596-.716 1.406-1.691 2.264-2.728 1.713-2.071 3.625-4.4 4.393-5.401.536-.7 1.914-2.963 2.995-5.336.542-1.19 1.019-2.431 1.278-3.535.129-.552.207-1.085.205-1.569-.002-.481-.083-.947-.302-1.338-1.327-2.358-3.612-3.916-6.978-5.134l.051-.11c.173-.376.422-.902.729-1.499.617-1.2 1.453-2.661 2.351-3.773.654-.809 1.379-1.94 1.827-2.936.222-.492.394-.99.437-1.417.041-.4-.02-.966-.558-1.211Zm-5.512 11.239-.46-.195a.503.503 0 0 0 .299.668c3.546 1.209 5.724 2.691 6.944 4.858.106.19.172.468.174.852.001.38-.061.831-.179 1.337-.237 1.013-.685 2.186-1.214 3.348-1.06 2.329-2.402 4.52-2.879 5.142-.754.983-2.652 3.295-4.369 5.372a1178.56 1178.56 0 0 1-2.263 2.725l-.667.801-5.456-4.254c.451-1.589.843-3.231 1.223-4.821.095-.401.19-.799.285-1.192.5-2.068.999-3.998 1.611-5.604a160.41 160.41 0 0 1 3.275-7.99c1.252-2.851 3.399-5.678 5.334-7.82a35.209 35.209 0 0 1 2.573-2.585c.333-.298.617-.533.837-.699-.039.262-.156.616-.345 1.035-.408.907-1.084 1.966-1.693 2.718-.962 1.192-1.835 2.725-2.462 3.944a39.677 39.677 0 0 0-.954 1.995 5.48 5.48 0 0 0-.054.125l-.014.032-.004.009-.001.003-.001.001.46.195Zm5.064-10.36c-.001.001.001.006.008.013-.004-.01-.007-.014-.008-.013Z" fill="#0C296E"/><path d="M86.25 214.627a.499.499 0 0 1 .841-.451c12.488 12.401 18.667 17.803 29.115 26.937l.006.004c2.076 1.815 4.321 3.778 6.818 5.972l22.084-41.197a.498.498 0 0 1 .742-.161l6.956 5.312a.5.5 0 0 1 .167.568 1903.56 1903.56 0 0 0-1.59 4.401v.001c-4.377 12.142-14.118 39.16-18.064 47.792a.501.501 0 0 1-.454.291h-17.884a.497.497 0 0 1-.249-.067c-4.331-2.499-9.671-5.927-13.924-8.727a564.673 564.673 0 0 1-6.867-4.594l-.317-.216a35.486 35.486 0 0 0-.102-.069l-.145-.1a.498.498 0 0 1-.208-.316l-6.925-35.38Z" fill="#3370FF"/><path d="m72.074 198.803.102-.163a.498.498 0 0 1 .637-.187l16.728 7.951a.5.5 0 0 1 .285.452v3.828c.98 3.583 2.432 8.08 3.874 12.545.252.78.504 1.559.752 2.332 1.676 5.207 3.226 10.159 3.829 13.235.42 2.145.303 6.324-.069 10.939a194.06 194.06 0 0 1-1.667 13.943.5.5 0 0 1-.493.422H63.441a.499.499 0 0 1-.493-.421c-1.038-6.489-2.352-15.244-2.875-23.887-.52-8.626-.258-17.212 1.902-23.332.306-.866 1.107-2.42 2.109-4.227a234.226 234.226 0 0 1 3.444-5.952 497.122 497.122 0 0 1 4.258-7.013l.288-.465Z" fill="#3370FF"/><path d="M157.349 187.309a25.57 25.57 0 0 1-3.293 6.086l-.05.069c-.333.45-.768 1.036-.869 1.756l-.001.001a3.25 3.25 0 0 0 .041 1.005c.022.127.047.254.071.372l.014.068a7.3 7.3 0 0 1 .072.4c.182 1.263-.312 2.609-1.227 3.392a.501.501 0 0 0-.055.705c.179.21.494.235.704.055 1.188-1.017 1.795-2.709 1.566-4.295a9.602 9.602 0 0 0-.096-.527 11.103 11.103 0 0 1-.065-.34 2.26 2.26 0 0 1-.036-.697c.065-.458.356-.858.734-1.37l.001-.001a26.608 26.608 0 0 0 3.631-6.9.499.499 0 0 0-.263-.62c-.64-.294-1.276-.159-1.801.098-.518.254-.989.656-1.365 1.009h-.001c-1.743 1.641-3.492 3.289-5.171 5.023a.5.5 0 0 0 .716.697c1.661-1.715 3.393-3.348 5.139-4.991.36-.338.743-.654 1.121-.84a1.54 1.54 0 0 1 .483-.155Z" fill="#0C296E"/><path d="M161.211 187.716a.499.499 0 0 0-.688.158l.157.099-.157-.099-.012.02-.038.059-.143.225c-.124.193-.302.468-.518.795a56.473 56.473 0 0 1-1.616 2.326c-.606.821-1.215 1.577-1.703 2.046-.198.19-.349.306-.451.366a.499.499 0 0 0-.745.633.758.758 0 0 0 .497.39.92.92 0 0 0 .549-.059c.283-.115.573-.351.841-.608.553-.532 1.204-1.346 1.815-2.174a57.442 57.442 0 0 0 1.645-2.368c.219-.331.4-.61.526-.807.063-.099.113-.176.146-.23l.039-.061.013-.021s.001-.001-.422-.266l.422.266a.5.5 0 0 0-.157-.69Zm1.8 2.499a.498.498 0 0 0-.699.093c-.129.168-.332.451-.576.791-.11.154-.229.32-.354.492a54.426 54.426 0 0 1-1.345 1.799c-.469.596-.914 1.115-1.26 1.433-.112.103-.199.17-.261.212a.5.5 0 0 0-.617.731c.104.16.267.274.467.305a.832.832 0 0 0 .446-.063c.22-.092.441-.266.639-.448.41-.376.896-.949 1.37-1.551.479-.608.963-1.268 1.37-1.832l.37-.514c.237-.33.424-.591.543-.747a.5.5 0 0 0-.093-.701Zm-4.588 4.871.003-.001-.003.001Z" fill="#0C296E"/><path d="M46.61 263.598s7.757-27.519 16.275-46.908l12.828 29.762-10.168 17.146H46.61Z" fill="#3370FF"/><path d="M62.886 216.189a.498.498 0 0 0-.458.298c-4.27 9.718-8.344 21.464-11.35 30.773a550.518 550.518 0 0 0-3.601 11.591 428.047 428.047 0 0 0-1.258 4.295l-.067.235-.023.08.48.136-.48-.136a.502.502 0 0 0 .48.636h18.936a.5.5 0 0 0 .43-.245l10.167-17.146a.501.501 0 0 0 .029-.454L63.343 216.49a.498.498 0 0 0-.457-.301Zm-15.615 46.908.168-.581c.228-.789.564-1.939.994-3.379.86-2.88 2.094-6.922 3.595-11.569 2.894-8.963 6.773-20.165 10.855-29.624l12.27 28.471-9.892 16.682h-17.99Z" fill="#3370FF"/><path d="M92.282 219.188a.5.5 0 0 0-.297.642l.469-.173.468-.172a.5.5 0 0 0-.64-.297Zm5.1 20.166c-.037-1.269-.383-3.118-.898-5.207-.512-2.08-1.182-4.363-1.85-6.487a197.845 197.845 0 0 0-2.59-7.669L92 219.87l-.015-.04.469-.173.468-.172.016.042.044.122a187.034 187.034 0 0 1 .77 2.174 198.835 198.835 0 0 1 1.834 5.537c.671 2.134 1.348 4.439 1.867 6.547.517 2.098.887 4.035.926 5.418.076 2.673-.083 6.239-.259 9.125a231.463 231.463 0 0 1-.363 5.018l-.009.102-.497-.044.497.044a.5.5 0 1 1-.994-.088l.464.041-.464-.041.009-.1.024-.29.086-1.076c.07-.914.163-2.188.251-3.627.176-2.883.332-6.41.258-9.035Zm26.521 6.979a.498.498 0 0 0-.685.168l-3.256 5.372a.5.5 0 1 0 .853.519l3.256-5.372a.5.5 0 0 0-.168-.687ZM77.127 241a.5.5 0 0 0-.643.292l-8.498 22.676a.5.5 0 0 0 .934.352l8.499-22.677a.5.5 0 0 0-.292-.643Z" fill="#0C296E"/><path d="M36.992 263.982a.5.5 0 0 1 .5-.5h96.888a.5.5 0 0 1 0 1H37.491a.499.499 0 0 1-.499-.5Z" fill="#0C296E"/><g clip-path="url(#ududljqrc5bc)"><path d="M158.681 119.312c3.623 7.126 2.138 10.704 9.073 16.765 0 0 19.578 24.937 29.712 39.15 4.046 5.674 11.074 5.475 16.93.774l19.075-15.221-13.606-10.396-13.981 15.129c-6.2-6.291-27.716-27.63-32.45-33.23-.676-2.401-.596-4.936-.893-7.409-.727-6-3.835-9.99-7.054-15.122l-.06 1.211c-.501-.792-1.001-1.585-1.606-2.3-.834-.994-1.891-1.852-3.266-1.965-1.759-.157-1.614.402-1.322 1.435 2.32 4.821 3.411 7.898 4.588 11.984l.417 5.299c-2.062-3.542-3.979-6.033-5.557-6.104Z" fill="#fff"/><path d="M205.174 180.298a11.641 11.641 0 0 1-1.457-.1 10.247 10.247 0 0 1-6.987-4.389c-9.981-14.048-29.494-38.884-29.694-39.134-4.601-3.999-5.569-7.069-6.687-10.598a38.986 38.986 0 0 0-2.436-6.249.508.508 0 0 1 .023-.501.5.5 0 0 1 .446-.229c1.368.06 2.895 1.49 4.871 4.559l-.249-3.159a68.053 68.053 0 0 0-4.562-11.858c-.209-.71-.379-1.31 0-1.76.38-.45.829-.48 1.817-.39a5.283 5.283 0 0 1 3.613 2.14c.309.37.589.75.858 1.139a.482.482 0 0 1 .29-.209.481.481 0 0 1 .309.013.497.497 0 0 1 .24.196c.469.75.938 1.47 1.387 2.17 2.745 4.249 5.11 7.919 5.749 13.158.09.84.15 1.67.21 2.51a24.41 24.41 0 0 0 .639 4.729c3.753 4.409 17.267 17.997 26.23 26.996 2.356 2.359 4.362 4.379 5.749 5.789l13.624-14.748a.51.51 0 0 1 .679-.06l13.604 10.399a.489.489 0 0 1 .19.389.484.484 0 0 1-.18.4l-19.113 15.178a14.956 14.956 0 0 1-9.163 3.619Zm-45.833-59.78a42.351 42.351 0 0 1 1.996 5.249c1.128 3.539 1.996 6.329 6.458 10.218.259.32 19.762 25.176 29.793 39.234a9.24 9.24 0 0 0 6.308 4c3.184.44 6.698-.74 9.902-3.31l18.505-14.828-12.736-9.738-13.675 14.798a.474.474 0 0 1-.359.16.53.53 0 0 1-.359-.15c-1.388-1.41-3.553-3.58-6.119-6.149-8.983-9.059-22.677-22.747-26.36-27.106a.72.72 0 0 1-.1-.19 25.55 25.55 0 0 1-.698-4.999c-.05-.82-.11-1.64-.21-2.46-.549-4.569-2.525-7.949-4.891-11.658.779 1.48 1.837 3.409 2.835 5.219a.493.493 0 0 1 .041.382.494.494 0 0 1-.241.298.51.51 0 0 1-.678-.19c-1.148-2.09-3.763-6.869-4.132-7.789a18.825 18.825 0 0 0-1.538-2.209 4.362 4.362 0 0 0-2.924-1.79c-.808-.07-.998.05-.998.05.037.255.097.506.18.75a68.13 68.13 0 0 1 4.581 11.998.335.335 0 0 1 0 .1l.419 5.299a.497.497 0 0 1-.678.503.496.496 0 0 1-.25-.213c-1.597-2.89-2.975-4.709-4.072-5.479Zm7.495-1.15a.502.502 0 0 1-.449-.28c-3.164-6.389-4.322-8.189-6.218-10.338a.49.49 0 0 1 0-.7.479.479 0 0 1 .699 0c1.996 2.219 3.154 4.059 6.368 10.558a.514.514 0 0 1-.23.67.603.603 0 0 1-.17.09Z" fill="#0C296E"/><path d="M229.646 136.048a.499.499 0 0 1 .812.124l9.304 19.177a.498.498 0 0 1-.097.573l-13.117 13.039a.5.5 0 0 1-.718-.016l-13.112-14.223a.5.5 0 0 1 .004-.682l16.924-17.992Z" fill="#14C0FF"/><path d="m244.092 126.833-5.073-12.885s11.624-7.661 7.172-19.312c-5.148-14.299-25.149-10.4-28.495-1.913-1.418 3.588-1.85 9.675-1.85 9.675l-2.716 5.318c-.1.18.039.4.249.41l2.194.019c.545 5.896 1.261 10.303 6.627 10.74.928.019 2.913-.262 4.209-.642 0 0 .36-.48 2.882 1.827a266.062 266.062 0 0 0 2.22 8.224" fill="#fff"/><path d="M246.658 94.459c2.301 6.025.436 11.026-1.975 14.485a22.759 22.759 0 0 1-4.874 5.049l-.182.135 4.929 12.519a.5.5 0 0 1-.928.368l-5.073-12.885a.502.502 0 0 1 .19-.602l.006-.003.021-.015.091-.062a20.27 20.27 0 0 0 1.573-1.256c1-.882 2.284-2.175 3.43-3.819 2.288-3.284 4.008-7.938 1.859-13.56l-.003-.01c-2.481-6.89-8.526-9.414-14.435-9.172-2.957.121-5.855.938-8.211 2.235-2.362 1.3-4.136 3.058-4.916 5.037-.687 1.737-1.143 4.108-1.428 6.072a57.392 57.392 0 0 0-.384 3.389l-.004.05-.001.012v.003a.497.497 0 0 1-.054.193l-2.555 5.005 1.844.015a.498.498 0 0 1 .491.453c.275 2.966.587 5.448 1.458 7.246.429.885.987 1.586 1.731 2.095.742.506 1.701.842 2.967.947.858.014 2.722-.245 3.974-.602a.701.701 0 0 1 .246-.076c.19-.023.405.02.651.122.487.203 1.26.708 2.531 1.871a.502.502 0 0 1 .147.247 263.721 263.721 0 0 0 2.025 7.541l.14.493.038.129.012.043-.479.14-.479.14-.012-.044-.038-.13-.142-.496a262.843 262.843 0 0 1-1.995-7.425c-1.18-1.068-1.819-1.456-2.131-1.586a.81.81 0 0 0-.126-.043l-.038.013c-1.335.391-3.372.682-4.36.662l-.03-.002c-1.409-.115-2.548-.493-3.463-1.118-.916-.625-1.577-1.476-2.066-2.484-.915-1.887-1.248-4.386-1.512-7.14l-1.744-.015-.019-.001c-.517-.024-.964-.59-.666-1.142l2.667-5.222.014-.173a57.49 57.49 0 0 1 .375-3.253c.287-1.977.756-4.444 1.487-6.296.893-2.264 2.874-4.175 5.364-5.546 2.496-1.374 5.547-2.23 8.652-2.357 6.214-.255 12.742 2.42 15.41 9.826Zm-19.857 24.089s0 .001 0 0Zm4.709 9.743-.479.14a.5.5 0 1 0 .958-.28l-.479.14Zm-17.945-20.335.004-.007-.004.007Z" fill="#0C296E"/><path d="m232.311 102.448-.003.003a.501.501 0 0 1-.862-.289l-.29-2.563-7.428.649a.503.503 0 0 1-.529-.37l-.973-3.615-.085 3.681a.496.496 0 0 1-.454.483l-7.57.66a.502.502 0 0 1-.544-.451 22.65 22.65 0 0 1-.08-2.285c.014-.957.096-2.049.345-2.876.822-2.723 2.519-6.668 5.891-9.632 3.394-2.983 8.435-4.927 15.834-3.713l.004.001c7.708 1.34 12.817 7.545 14.576 15.356l.006.029 3.335 20.267a.496.496 0 0 1-.271.534l-.221-.447a.433.433 0 0 1 .058.228l.065.255-17.468 4.355a.504.504 0 0 1-.608-.358l-4.343-16.416a.495.495 0 0 1 .539-.62l.011.001a.542.542 0 0 0 .029.003l.024.001c.049.004.121.008.214.01.186.003.45-.002.755-.038.617-.072 1.363-.265 1.98-.725a12.344 12.344 0 0 1 .503-.355c.089-.061.116-.086.123-.092a.63.63 0 0 0 .027-.1c.017-.079.033-.174.057-.313l.042-.249c.031-.178.13-.333.193-.425.071-.103.159-.216.241-.319l.009-.012c.181-.229.352-.449.461-.669.109-.219.118-.36.083-.46-.034-.1-.155-.289-.612-.501-.255-.114-.553-.121-.893-.034-.344.089-.7.267-1.032.481a7.09 7.09 0 0 0-1.063.853l-.061.062-.015.015Zm2.563 1.671-.001.002.003-.004c0-.001 0-.001 0 0l-.002.002Z" fill="#0C296E"/><path d="m232.29 106.532 1.269-.226a5.212 5.212 0 0 0 2.406-1.025c.868-.657 1.5-1.768 1.562-2.856.042-.69-.296-3.23-2.794-3.01-1.004.092-2.167 1.658-2.552 2.032" fill="#fff"/><path d="M227.037 95.253a.497.497 0 0 1 .431-.557l3.794-.475a.5.5 0 0 1 .559.433l3.663 28.281a.499.499 0 0 1-.43.558l-3.795.475a.502.502 0 0 1-.559-.433l-3.663-28.282Z" fill="#0C296E"/><path d="M244.757 170.194a382.148 382.148 0 0 1-6.726-2.697c-4.703-1.942-10.182-4.334-13.172-6.099a.497.497 0 0 1-.245-.451c.129-3.057.129-5.892.129-8.689v-.004c0-.771 0-1.54.003-2.31.012-3.557.083-7.125.483-11.05.505-4.962 1.98-8.399 3.949-10.745 1.97-2.348 4.403-3.564 6.756-4.143 2.346-.577 4.619-.521 6.296-.324.84.099 1.536.233 2.024.343.244.055.436.105.568.14l.153.043.035.01c.993.218 2.242.797 3.6 1.666 1.374.879 2.888 2.072 4.399 3.539 3.023 2.933 6.06 6.982 7.962 11.848 3.618 9.254 7.677 20.925 10.831 30.276a1312.049 1312.049 0 0 1 5.004 15.15l.298.925.103.322a.5.5 0 0 1-.548.647c-5.786-.852-10.992.358-16.297 1.818-.565.156-1.132.315-1.7.474h-.002c-4.746 1.328-9.631 2.695-15.03 2.721a.5.5 0 0 1-.005-1h.027l1.105-22.41Z" fill="#14C0FF"/><path d="M268.694 188.23c1.791 5.244 1.121 3.546 2.96 9.37l-30.577-.171-1.7-4.821 29.317-4.378Z" fill="#fff"/><path d="M269.166 188.069a.497.497 0 0 0-.545-.333l-29.318 4.378a.5.5 0 0 0-.397.661l1.7 4.82c.07.199.258.332.468.334l30.577.171a.5.5 0 0 0 .479-.651 210.942 210.942 0 0 1-1.336-4.356c-.366-1.237-.571-1.93-1.628-5.024Zm-.81.717c.936 2.748 1.132 3.41 1.475 4.573.229.772.522 1.766 1.141 3.737l-29.541-.165-1.382-3.918 28.307-4.227Z" fill="#0C296E"/><path d="M269.929 192.442c1.272.159 9.101-3.586 7.189-4.495-1.854-.882-8.484-.001-8.484-.001l1.295 4.496Z" fill="#0C296E"/><path d="M230.26 183.526c-11.977 6.632-16.424 10.195-24.698 14.303 8.274 0 6.391.047 23.717 0 10.479-.029 14.039 0 14.82-7.671.924-9.079 1.049-20.286 1.049-20.286l-16.79-7.466" fill="#fff"/><path d="M227.995 162.747a.499.499 0 0 1 .566-.8l16.789 7.467a.501.501 0 0 1 .297.463l-.002.128-.005.373c-.006.325-.014.799-.027 1.396a323.17 323.17 0 0 1-.144 4.853c-.147 3.941-.41 9.025-.873 13.58-.199 1.948-.578 3.463-1.234 4.626-.666 1.18-1.601 1.969-2.845 2.486-1.225.509-2.742.752-4.578.874-1.799.12-3.95.126-6.49.133l-.169.001c-11.463.031-14.521.021-17.672.01-1.612-.005-3.248-.01-6.045-.01a.5.5 0 0 1-.222-.948c4.115-2.043 7.28-3.951 10.921-6.183l.825-.507.004-.002c3.385-2.077 7.249-4.448 12.655-7.449a193.84 193.84 0 0 0-.282-3.278c-.179-1.96-.418-4.481-.656-6.972-.239-2.491-.478-4.951-.657-6.788l-.217-2.215-.082-.837a.497.497 0 0 1 .143-.401Zm.862.426.07.715.217 2.215c.179 1.837.418 4.298.657 6.789.239 2.491.478 5.014.657 6.977.175 1.909.297 3.33.301 3.641a.483.483 0 0 1-.059.25.494.494 0 0 1-.174.187l-.03.018c-5.527 3.06-9.445 5.465-12.885 7.576l-.828.508c-3.083 1.889-5.845 3.56-9.139 5.279 1.624.002 2.803.006 3.968.01h.002c3.149.01 6.202.02 17.664-.011l.143-.001c2.562-.007 4.685-.013 6.452-.13 1.803-.12 3.189-.355 4.262-.801 1.053-.438 1.81-1.082 2.358-2.054.559-.99.917-2.348 1.11-4.235.46-4.525.722-9.584.868-13.516.074-1.965.118-3.647.144-4.838.013-.595.021-1.067.027-1.39l.002-.168-15.787-7.021Zm-.508-.074.28-.027-.28.027Zm-.497.049.497-.049-.497.049Z" fill="#0C296E"/><path d="M225.928 137.289a.5.5 0 0 0-.559.432c-.4 3.078-.588 8.902-.677 13.929a547.883 547.883 0 0 0-.079 8.567l-.001.554.001.193h.499-.499a.5.5 0 0 0 .296.457l22.675 10.083a.498.498 0 0 0 .7-.5l-1.374-15.898a.5.5 0 1 0-.995.086l1.302 15.055-21.607-9.608.001-.421a545.627 545.627 0 0 1 .079-8.55c.09-5.04.278-10.806.668-13.818a.5.5 0 0 0-.43-.561Z" fill="#0C296E"/></g><path d="M323.789 126.295h-24.42c-8.402 0-15.211 6.823-15.211 15.243v11.243a3.995 3.995 0 0 0 3.992 3.999h35.639c8.402 0 15.211-6.823 15.211-15.242 0-8.42-6.809-15.243-15.211-15.243Z" fill="#BBBFC4" fill-opacity=".45"/><path d="M295.141 138.203a.5.5 0 0 1 .499-.5h28.107a.5.5 0 0 1 0 1H295.64a.5.5 0 0 1-.499-.5Zm0 8.061a.5.5 0 0 1 .499-.5h17.052a.5.5 0 0 1 0 1H295.64a.5.5 0 0 1-.499-.5Z" fill="#0C296E"/><path d="M254.687 314.491h7.985v-7.999h-7.985v7.999Zm14.638 0h41.376v-7.999h-41.376v7.999Z" fill="#3370FF"/><defs><filter id="ud3uv5tvzi4a" x="64.282" y="41.554" width="63.209" height="63.27" filterUnits="userSpaceOnUse" color-interpolation-filters="sRGB"><feFlood flood-opacity="0" result="BackgroundImageFix"/><feBlend in="SourceGraphic" in2="BackgroundImageFix" result="shape"/><feGaussianBlur stdDeviation="7.153" result="effect1_foregroundBlur"/></filter><filter id="ud8hwftiw14b" x="260.626" y="238.24" width="35.044" height="21.039" filterUnits="userSpaceOnUse" color-interpolation-filters="sRGB"><feFlood flood-opacity="0" result="BackgroundImageFix"/><feBlend in="SourceGraphic" in2="BackgroundImageFix" result="shape"/><feGaussianBlur stdDeviation="2.5" result="effect1_foregroundBlur"/></filter><clipPath id="ududljqrc5bc"><path fill="#fff" transform="matrix(-1 0 0 1 277.171 76.45)" d="M0 0h132.749v117.982H0z"/></clipPath></defs></svg>