<svg width="120" height="120" viewBox="0 0 120 120" fill="none" xmlns="http://www.w3.org/2000/svg">
  <path d="M10.814 87.299V74.615c-6.79 6.537-10.333 12.563-8.2 17.22 2.525 3.44 1.958 6.034 4.005 8.35-1.376-3.746.355-8.15 4.195-12.886Zm94.681-54.109v-9.014c3.296 0 8.493 2.705 9.174 5.96 0 6.13.134 8.794 0 10.975-1.013-3.654-5.05-8.282-9.174-7.921Z" fill="#0C296E"/>
  <path d="M38.99 89.996c-21.475 5.673-34.285 5.514-36.854.715l3.161 8.184c2.524 4.437 14.186 5.009 33.694 0v-8.899Z" fill="#3370FF"/>
  <path d="M99.097 48.742c15.611-8.139 15.649-14.291 15.649-19.59v10.673c0 3.936-1.06 10.218-15.649 18.433V48.74Z" fill="#00D6B9"/>
  <path d="M74.603 87.4c-8.845 4.18-16.308 8.24-26.648 11.086v7.409c13.03-3.531 17.682-5.714 26.648-10.255V87.4Z" fill="#FFC60A"/>
  <path d="M9.95 36.438a4.5 4.5 0 0 1 4.5-4.5h44a4.5 4.5 0 0 1 4.5 4.5v70a4.5 4.5 0 0 1-4.5 4.5h-44a4.5 4.5 0 0 1-4.5-4.5v-70Zm4.5-3.5a3.5 3.5 0 0 0-3.5 3.5v70a3.5 3.5 0 0 0 3.5 3.5h44a3.5 3.5 0 0 0 3.5-3.5v-70a3.5 3.5 0 0 0-3.5-3.5h-44Z" fill="#0C296E"/>
  <path d="M57.323 5.025h44a3.5 3.5 0 0 1 3.5 3.5v70a3.5 3.5 0 0 1-3.5 3.5H65.177a.5.5 0 1 0 0 1h36.146a4.5 4.5 0 0 0 4.5-4.5v-70a4.5 4.5 0 0 0-4.5-4.5h-44a4.5 4.5 0 0 0-4.5 4.5v20.718a.5.5 0 1 0 1 0V8.525a3.5 3.5 0 0 1 3.5-3.5Z" fill="#0C296E"/>
  <path d="M60.823 14.11a.5.5 0 0 1 .5-.5h36a.5.5 0 1 1 0 1h-36a.5.5 0 0 1-.5-.5ZM17.95 41.111a.5.5 0 0 1 .5-.5h36a.5.5 0 0 1 0 1h-36a.5.5 0 0 1-.5-.5Z" fill="#0C296E"/>
  <g clip-path="url(#udhDYYAP6rJvrFTsJvu1sPs8__a)">
    <path d="M97.942 99.027c-9.928 0-17.973-8.046-17.973-17.972.001-9.927 8.046-17.973 17.973-17.973 9.926 0 17.972 8.046 17.972 17.973 0 9.926-8.046 17.972-17.972 17.972Z" fill="#00D6B9"/>
    <path d="M104.784 75.111c.209 0 .409.083.556.23l1.819 1.82a.797.797 0 0 1 .231.557.78.78 0 0 1-.231.557L96.542 88.892a.788.788 0 0 1-1.113 0l-6.707-6.707a.786.786 0 0 1 0-1.114l1.818-1.818a.786.786 0 0 1 1.115 0l4.33 4.329 8.243-8.24a.785.785 0 0 1 .556-.23Z" fill="#fff"/>
  </g>
  <path d="m37.043 71.654.075-.075.15-.148.096-.1.306-.31.416-.423.357-.363.335-.34.35-.356.322-.33.447-.455c.085-.083.17-.165.258-.248.161-.153.328-.3.501-.441.16-.13.321-.255.482-.375a10.14 10.14 0 0 1 2.171-1.204 10.211 10.211 0 0 1 .627-.226 18.33 18.33 0 0 0-3.33-6.88 1.617 1.617 0 0 0-.559-.455 1.57 1.57 0 0 0-.694-.161H26.487c-.05 0-.1.017-.14.047a.256.256 0 0 0-.002.4 38.31 38.31 0 0 1 10.666 12.472l.032-.03Z" fill="#00D6B9"/>
  <path d="M31.938 83.308A17.292 17.292 0 0 0 40.9 80.8a17.95 17.95 0 0 0 6.795-7.434 7.754 7.754 0 0 1-.707 1.144 7.29 7.29 0 0 1-.493.585 7.536 7.536 0 0 1-.482.47 5.847 5.847 0 0 1-.286.239 6.185 6.185 0 0 1-.576.408 6.679 6.679 0 0 1-1.211.604 5.79 5.79 0 0 1-.513.165 6.598 6.598 0 0 1-1.372.242 7.4 7.4 0 0 1-1.323-.027 8.051 8.051 0 0 1-1.21-.237 36.106 36.106 0 0 1-.663-.19l-.328-.1-.489-.153c-.133-.042-.266-.083-.401-.13l-.377-.128-.257-.09-.312-.111-.221-.083a28.16 28.16 0 0 1-.438-.165l-.253-.093-.337-.135-.356-.146-.23-.096-.286-.12-.22-.096-.23-.101-.198-.09-.18-.083-.184-.083-.189-.089-.24-.114-.25-.122-.265-.133-.225-.115a37.204 37.204 0 0 1-10.527-8.075.235.235 0 0 0-.373.028.253.253 0 0 0-.044.137l.009 11.679v.948c0 .27.064.538.187.777.124.24.304.444.523.595a17.248 17.248 0 0 0 9.768 3.027Z" fill="#3370FF"/>
  <path d="M51.45 66.841a9.906 9.906 0 0 0-8.14-.359 9.937 9.937 0 0 0-2.654 1.579 10.856 10.856 0 0 0-.759.69l-.444.457-.32.331-.351.356-.335.34-.36.36-.415.422-.308.315-.101.103-.149.149-.075.074-.114.111-.123.117a17.761 17.761 0 0 1-3.666 2.67l.241.114.19.09.182.082.181.083.199.09.229.102.22.096.286.123.23.097.356.145.337.135.254.098.438.166.221.082.312.111.257.09.376.129c.133.043.265.087.402.13.16.051.322.103.489.153l.328.1c.22.065.44.128.662.19a8.646 8.646 0 0 0 .694.16 7.739 7.739 0 0 0 1.214.12c.21 0 .42 0 .626-.017a6.581 6.581 0 0 0 1.373-.242 8.73 8.73 0 0 0 .512-.165 6.524 6.524 0 0 0 1.438-.754 6.49 6.49 0 0 0 1.116-.966 7.287 7.287 0 0 0 .695-.867 7.86 7.86 0 0 0 .503-.853l.172-.353 1.55-3.197v.006a10.142 10.142 0 0 1 2.031-2.993Z" fill="#133C9A"/>
  <path d="M81.53 32v26L67 55.364V34.81L81.53 32Zm10.45 5.445c.563 0 1.02.472 1.02 1.055v13.175c0 .582-.457 1.054-1.02 1.054h-8.92v-1.823h.522l3.044-4.225v-.584l-3.057 3.229h-.51v-3.7l.766.515h.761v-.26L83.06 44.56v-3.688h.765l.503.549.784-.81-1.287-1.32h-.765v-1.844h8.922v-.002Zm-5.098 6.325-.387.466 3.24 3.486v1.582h-2.04l-.813-.6-.764.9 1.322 1.317 3.824-.036v-3.69l-4.382-3.425ZM76.84 38.626l-5.612.264v10.94l5.603.528v-2.082l-3.438-.263v-2.67h2.795v-1.811h-2.795v-2.56l3.447-.264v-2.082Zm14.375.665h-3.824l-3.065 4.475h.779l2.923-2.896h1.638v2.222l-.734.949 1.01.57 1.273-1.368V39.29Z" fill="#245BDB"/>
  <defs>
    <clipPath id="udhDYYAP6rJvrFTsJvu1sPs8__a">
      <path fill="#fff" transform="translate(79.969 63.082)" d="M0 0h35.945v35.945H0z"/>
    </clipPath>
  </defs>
</svg>
