<svg width="350" height="350" viewBox="0 0 350 350" fill="none" xmlns="http://www.w3.org/2000/svg"><path d="M20.516 297.808c11.35-4.809 29.004-2.732 40.933 3.411 25.386 13.061 38.21 19.465 69.468 19.465 16 0 33.993-3.85 49.258 0 9.046 2.292 16.06 4.69 25.163 6.661 7.915 1.696 16.17 1.925 24.368 2.154H20.516v-31.691Z" fill="#14C0FF"/><path d="M67.184 35a8 8 0 0 1 8-8h250a8 8 0 0 1 8 8v25.944h-266V35Zm154 107.809c-2.21 0-4 1.788-4 3.993v31.2a3.996 3.996 0 0 0 4 3.994h13v-21.179a3.996 3.996 0 0 1 4-3.993h29v-10.022a3.997 3.997 0 0 0-4-3.993h-42Z" fill="#BBBFC4" fill-opacity=".45"/><g filter="url(#udfagh8zx8ja)"><path d="M234.184 161.179a3.995 3.995 0 0 1 4-3.993h29v20.817a3.997 3.997 0 0 1-4 3.993h-29v-20.817Z" fill="#BBBFC4" fill-opacity=".45"/></g><path d="M121.184 73.923a3.996 3.996 0 0 1 4-3.993h40c2.209 0 4 1.788 4 3.993v38.936a3.997 3.997 0 0 1-4 3.993h-40c-2.21 0-4-1.788-4-3.993V73.923Zm51.245 0a3.997 3.997 0 0 1 4-3.993h40c2.209 0 4 1.788 4 3.993v38.936a3.997 3.997 0 0 1-4 3.993h-40c-2.209 0-4-1.788-4-3.993V73.923Zm94.575 33.943a3.997 3.997 0 0 1 4-3.993h41.775c2.209 0 4 1.788 4 3.993v31.2a3.996 3.996 0 0 1-4 3.993h-41.775c-2.209 0-4-1.787-4-3.993v-31.2Z" fill="#BBBFC4" fill-opacity=".45"/><path d="M68.377 65.555a.5.5 0 0 1 .5.499v159.509c0 4.135 3.358 7.487 7.5 7.487h153.328a.5.5 0 1 1 0 .999H76.377c-4.694 0-8.5-3.8-8.5-8.486V66.053a.5.5 0 0 1 .5-.498Z" fill="#0C296E"/><path d="M97.572 39.363c-.384.416-.864.783-1.44 1.134-.576.32-1.104.544-1.616.671v1.726c1.056-.304 1.936-.783 2.624-1.438v9.313h1.744V39.363h-1.312Zm47.544-.224c-1.216 0-2.208.399-2.944 1.23-.72.766-1.088 1.789-1.104 3.067h1.744c.032-.927.224-1.614.608-2.093.368-.495.912-.735 1.632-.735.672 0 1.2.16 1.552.48.352.319.528.798.528 1.437 0 .671-.272 1.294-.784 1.869-.32.335-.864.767-1.632 1.31-1.296.894-2.16 1.581-2.576 2.076a4.333 4.333 0 0 0-1.136 2.987h7.872v-1.533h-5.712c.24-.623.976-1.342 2.208-2.156 1.136-.767 1.92-1.374 2.368-1.837.736-.815 1.12-1.71 1.12-2.7 0-1.006-.352-1.82-1.04-2.46-.704-.639-1.616-.942-2.704-.942Zm50.738 0c-1.12 0-2.032.303-2.736.942-.752.64-1.168 1.518-1.264 2.652h1.712c.064-.703.304-1.23.688-1.582.384-.351.928-.527 1.616-.527.672 0 1.2.144 1.552.463.32.304.496.735.496 1.31 0 .575-.192 1.023-.544 1.326-.352.304-.88.463-1.584.463h-.816v1.31h.832c.752 0 1.328.16 1.712.48.416.319.624.814.624 1.485 0 .575-.208 1.038-.592 1.422-.448.415-1.04.639-1.776.639-.672 0-1.216-.192-1.632-.575-.48-.416-.72-1.007-.752-1.774h-1.76c.096 1.278.544 2.253 1.344 2.924.704.59 1.648.894 2.816.894 1.216 0 2.224-.351 2.992-1.022.72-.671 1.088-1.534 1.088-2.588 0-.67-.192-1.23-.576-1.661-.352-.416-.864-.735-1.536-.943 1.248-.415 1.888-1.262 1.888-2.508 0-.974-.352-1.74-1.024-2.3-.704-.559-1.616-.83-2.768-.83Zm51.838.224-5.632 7.284v1.645h5.568v2.477h1.664v-2.477h1.728v-1.39h-1.728v-7.539h-1.6Zm-.112 2.205h.048v5.335h-4.144l4.096-5.335Zm46.481-2.205-.624 6.39h1.632c.224-.416.528-.72.944-.91.384-.192.816-.272 1.328-.272.768 0 1.344.223 1.76.67.416.448.624 1.07.624 1.87 0 .734-.24 1.31-.72 1.757-.48.43-1.072.654-1.776.654-.64 0-1.152-.143-1.536-.43-.432-.32-.688-.815-.752-1.454h-1.712c.08 1.054.528 1.9 1.344 2.508.736.559 1.616.846 2.64.846 1.136 0 2.112-.335 2.928-1.006.864-.751 1.312-1.71 1.312-2.892 0-1.23-.352-2.188-1.024-2.89-.672-.703-1.552-1.055-2.624-1.055-.512 0-.992.08-1.408.256-.464.16-.864.415-1.216.782h-.048l.336-3.29h5.472v-1.534h-6.88Z" fill="#fff"/><path d="M27.631 94.357a3.997 3.997 0 0 1 4-3.994h66.432c2.209 0 4 1.788 4 3.994v66.322a3.997 3.997 0 0 1-4 3.993H31.63c-2.209 0-4-1.788-4-3.993V94.357Z" fill="#14C0FF"/><path d="M65.336 109.604c-3.984 0-7.152 1.725-9.456 5.175-2.352 3.45-3.504 7.955-3.504 13.562 0 5.223 1.056 9.296 3.264 12.267 2.208 3.019 5.424 4.553 9.648 4.553 3.408 0 6.288-1.15 8.592-3.355 2.304-2.204 3.504-5.031 3.504-8.482 0-3.354-1.008-6.134-3.024-8.29-2.016-2.156-4.704-3.211-8.064-3.211-1.728 0-3.264.288-4.608.959-1.44.671-2.64 1.677-3.6 3.115h-.24v-.432c0-3.162.624-5.798 1.968-7.907 1.344-2.252 3.168-3.354 5.472-3.354 3.264 0 5.28 1.581 5.952 4.744h5.472c-.864-6.23-4.656-9.344-11.376-9.344Zm-.24 16.772c2.064 0 3.696.623 4.944 1.917 1.152 1.246 1.776 2.923 1.776 5.031 0 2.109-.624 3.834-1.872 5.176-1.248 1.342-2.832 2.013-4.848 2.013-1.968 0-3.552-.623-4.8-1.869-1.248-1.246-1.872-2.971-1.872-5.128 0-2.204.576-3.977 1.776-5.223 1.152-1.294 2.784-1.917 4.896-1.917Z" fill="#fff"/><path d="M264.113 92.225c9.164 0 16.585-7.409 16.585-16.558 0-9.149-7.43-16.558-16.585-16.558-9.156 0-16.585 7.409-16.585 16.558 0 9.15 7.42 16.558 16.585 16.558Z" fill="#FFC60A"/><path d="M264.611 66.054a.5.5 0 0 0-1 0v9.114h-9.128a.5.5 0 1 0 0 .998h9.128v8.956a.5.5 0 0 0 1 0v-8.956h8.972a.5.5 0 1 0 0-.998h-8.972v-9.114Z" fill="#000"/><path d="M263.684 132.665a3.335 3.335 0 0 1 3.338-3.333 3.337 3.337 0 0 1 3.3 2.833h46.245a.5.5 0 1 1 0 .999h-46.245a3.337 3.337 0 0 1-3.3 2.833 3.335 3.335 0 0 1-3.338-3.332Z" fill="#00D6B9"/><path d="M242.806 106.175c.607-.917 6.307-4.343 7.252-5.233 4.903-4.071 1.621-8.061-.689-9.315l-.815.873s3.678-5.215 5.394-9.151c-.379-.446-1.121.026-1.486.485a141.528 141.528 0 0 0-7.833 10.854c.662-1.2 1.31-2.387 1.972-3.587.175-.31.351-.66.297-1.011-.054-.35-.446-.674-.797-.54-2.661 4.531-5.159 9.21-7.712 13.794l4.417 2.831Z" fill="#fff"/><path d="M253.002 82.792c.361-.155.926-.24 1.327.232a.5.5 0 0 1 .077.522c-.873 2.005-2.238 4.318-3.375 6.119a87.408 87.408 0 0 1-1.106 1.706c1.165.725 2.474 2.042 2.972 3.713a4.773 4.773 0 0 1-.083 3.028c-.381 1.066-1.155 2.146-2.425 3.203-.276.256-.84.656-1.496 1.102-.452.308-.97.653-1.504 1.008-.266.177-.537.357-.805.537a67.74 67.74 0 0 0-2.226 1.535c-.313.229-.578.433-.781.605-.215.183-.321.297-.354.347a.5.5 0 0 1-.687.145l-4.417-2.832a.498.498 0 0 1-.167-.662c.771-1.384 1.538-2.779 2.307-4.177 1.771-3.223 3.553-6.463 5.411-9.626a.498.498 0 0 1 .252-.214c.374-.144.737-.029.983.15.191.139.352.342.436.58a139.527 139.527 0 0 1 4.73-6.292c.223-.28.562-.57.931-.729Zm-3.541 9.468-.541.578a.5.5 0 0 1-.774-.627l.002-.004.008-.01.03-.044.118-.17c.103-.15.253-.367.437-.64.37-.547.88-1.318 1.444-2.21.998-1.581 2.153-3.53 2.989-5.294a1.66 1.66 0 0 0-.32.304 140.993 140.993 0 0 0-7.806 10.816.5.5 0 0 1-.857-.514c.331-.6.658-1.195.985-1.792l.001-.001.986-1.793.002-.005c.185-.326.263-.532.239-.69a.166.166 0 0 0-.025-.057.186.186 0 0 0-.014-.02c-1.79 3.06-3.507 6.182-5.222 9.302-.695 1.264-1.389 2.527-2.089 3.786l3.667 2.351c.066-.062.137-.123.208-.184.229-.194.516-.415.838-.65a69.925 69.925 0 0 1 2.26-1.56l.814-.542c.531-.353 1.041-.692 1.489-.997.688-.469 1.184-.826 1.385-1.015l.023-.021c1.175-.975 1.826-1.918 2.135-2.781a3.783 3.783 0 0 0 .066-2.407c-.403-1.35-1.483-2.473-2.478-3.11Z" fill="#0C296E"/><path d="M112.304 150.721c-1.013-1.24-2.944-3.384-4.538-3.829-.959-.269-1.985-.377-2.836-.849-1.377-.755-2.039-2.292-3.255-3.263l-1.35-.459c.378.445.702.944.945 1.47a3.61 3.61 0 0 1-1.404-.364c-.69-.324-1.662-1.24-1.432-1.928.122-.378.81-.512.81-.512-.486-.027-1.614.048-1.614-.748 0-.62 1.425-.763 2.209-.87 0 0-2.364.161-2.485-.284-.338-1.2 1.85-1.024 2.35-1.307l-1.932.121c-2.039.135-4.457.499-6.131-.593 2.62-.445 3.336-.445 5.334-.782 1.54-.256 6.402-.445 6.888-.351.851.189 1.486.85 2.053 1.47 2.661 2.926 7.306 8.427 9.967 11.353l-3.579 1.725Z" fill="#fff"/><path d="M112.368 151.31a.473.473 0 0 1-.38-.18c-1.66-1.997-3.22-3.364-4.29-3.664-.28-.08-.57-.15-.86-.209a7.526 7.526 0 0 1-2.08-.689 7.004 7.004 0 0 1-2.05-1.927 11.032 11.032 0 0 0-1-1.138l.08.169a.481.481 0 0 1 0 .49.497.497 0 0 1-.44.219 4.002 4.002 0 0 1-1.6-.419c-.75-.349-2-1.468-1.68-2.526a1.085 1.085 0 0 1-.83-1.088.905.905 0 0 1 .18-.549.641.641 0 0 1-.44-.469 1.167 1.167 0 0 1 0-.749c-1.87.14-4 .279-5.52-.749a.5.5 0 0 1 .19-.908c1.42-.24 2.28-.35 3.09-.45.81-.1 1.33-.179 2.24-.329a51.072 51.072 0 0 1 7.07-.35c.93.282 1.746.852 2.33 1.628 1.33 1.467 3.19 3.614 5 5.69 1.81 2.077 3.65 4.203 5 5.661a.49.49 0 0 1 .12.429.51.51 0 0 1-.27.36l-3.58 1.717a.423.423 0 0 1-.28.03Zm-12-9.395a.539.539 0 0 1 .17 0l1.36.48a.368.368 0 0 1 .15.079 9.76 9.76 0 0 1 1.43 1.528 6.387 6.387 0 0 0 1.75 1.687 7.06 7.06 0 0 0 1.82.579c.3.07.61.14.91.23 1.53.419 3.27 2.176 4.54 3.684l2.63-1.268c-1.29-1.428-2.94-3.335-4.54-5.182-1.8-2.066-3.66-4.213-5-5.67a3.789 3.789 0 0 0-1.8-1.318 54.376 54.376 0 0 0-6.69.359c-.93.15-1.59.24-2.28.33l-1.11.149c1.09.115 2.19.115 3.28 0l2.72-.179a.499.499 0 0 1 .28.928 2.705 2.705 0 0 1-.93.24c-.37.06-1.07.16-1.19.359a8.366 8.366 0 0 0 2 .05.503.503 0 0 1 .11.999h-.18a4.419 4.419 0 0 0-1.62.409c0 .14.49.17 1 .19h.21a.51.51 0 0 1 .373.807.48.48 0 0 1-.303.181c-.16.032-.31.1-.44.2-.09.279.55.998 1.18 1.297a.65.65 0 0 0 .19.09c-.1-.139-.21-.279-.33-.419a.499.499 0 0 1 0-.599.503.503 0 0 1 .33-.22h-.02Z" fill="#0C296E"/><path d="M177.426 131.738c-1.026-.404-3.889-.243-4.619-1.968l-10.547 2.561c.635 2.077-4.092 4.194-5.916 5.407" fill="#fff"/><path d="M172.689 129.286a.5.5 0 0 1 .579.291c.264.625.94.967 1.855 1.188.394.095.795.16 1.183.222l.148.024c.41.066.839.139 1.156.264a.498.498 0 1 1-.367.929c-.197-.078-.51-.136-.949-.208l-.146-.023c-.384-.062-.825-.132-1.26-.237-.836-.202-1.799-.564-2.338-1.389l-9.731 2.364c.002.536-.233 1.037-.559 1.471-.429.572-1.068 1.105-1.747 1.585-.685.484-1.443.936-2.134 1.339l-.394.229c-.538.311-1.008.583-1.363.82a.5.5 0 0 1-.555-.831c.384-.255.89-.549 1.43-.861l.378-.22c.689-.401 1.414-.834 2.06-1.291.651-.46 1.189-.922 1.525-1.369.334-.445.415-.801.322-1.105a.496.496 0 0 1 .36-.631l10.547-2.561Z" fill="#0C296E"/><path d="M160.235 173.292a152.244 152.244 0 0 0 2.62 5.919c8.522-.809 22.945-5.164 22.945-5.164a24.551 24.551 0 0 1-.162-6.149" fill="#fff"/><path d="M185.69 167.401a.5.5 0 0 1 .446.548 23.986 23.986 0 0 0 .159 6.023.5.5 0 0 1-.35.552l-.145-.478.145.478-.042.013-.124.036-.474.141a230.451 230.451 0 0 1-7.658 2.094c-4.673 1.191-10.442 2.49-14.745 2.899a.501.501 0 0 1-.5-.284l-.016-.036-.048-.101a138.598 138.598 0 0 1-.798-1.738 137.033 137.033 0 0 1-1.768-4.067.5.5 0 1 1 .925-.38 137.48 137.48 0 0 0 1.754 4.036c.252.556.466 1.022.617 1.348l.09.193c4.181-.436 9.7-1.68 14.242-2.837a232.958 232.958 0 0 0 7.623-2.085l.222-.066a24.912 24.912 0 0 1-.104-5.844.5.5 0 0 1 .549-.445Zm-3.877-39.267-.497.058.497-.058a.5.5 0 0 1-.391.545l-38.868 8.441a.5.5 0 0 1-.574-.312c-.375-.995-.454-1.868-.31-2.655.144-.784.503-1.442.942-2.02.435-.571.964-1.082 1.459-1.557l.027-.026c.495-.475.953-.914 1.318-1.384v-.001c.314-.401.469-.733.538-1.026.068-.293.06-.582-.002-.915a9.589 9.589 0 0 0-.248-.944l-.064-.217c-.13-.446-.271-.958-.364-1.557-.241-1.552.397-3.928 2.404-5.264 1.674-1.123 2.58-2.312 3.148-3.491.467-.969.707-1.931.951-2.905.058-.234.117-.469.179-.705l.001-.002c.505-1.89 1.746-4.146 4.096-5.858 2.356-1.715 5.787-2.856 10.623-2.574 3.179.185 5.714 1.869 7.71 4.219 1.991 2.345 3.474 5.382 4.567 8.364 1.094 2.986 1.808 5.945 2.248 8.155.22 1.106.373 2.026.47 2.67.048.323.083.576.106.75l.025.199.007.052.001.014.001.003v.001Z" fill="#0C296E"/><path d="M238.661 102.915a.502.502 0 0 0-.675.152l-8.587 12.947c-4.527 6.824-9.685 14.601-12.378 18.657a634.307 634.307 0 0 1-11.654-1.735l-.949-.148c-3.659-.572-6.914-1.081-9.899-1.464-6.484-.832-11.733-1.075-17.182-.077l-.047.011-21.081 5.96a.487.487 0 0 0-.139.063c-1.331.877-2.659 1.757-3.986 2.637-1.327.88-2.653 1.759-3.983 2.635l-.002.001c-2.656 1.768-5.49 3.655-7.271 6.371-1.123 1.697-1.749 3.623-2.34 5.446l-2.766 8.493-.013.039-2.005 6.156c-2.548-3.091-6.681-7.933-10.284-12.124-1.947-2.265-3.74-4.341-5.046-5.851l-1.553-1.794-.574-.661a.5.5 0 0 0-.595-.122l-4.66 2.252a.495.495 0 0 0-.198.726l.022.033.064.095a124.74 124.74 0 0 0 1.023 1.498c.608.873 1.359 1.923 1.923 2.616l.452.914 1.273 2.567c1.061 2.137 2.494 5.014 3.979 7.977 2.961 5.908 6.156 12.204 7.015 13.597.968 1.568 2.283 3.532 4.037 4.921 1.774 1.404 4.017 2.232 6.782 1.475.979-.256 1.945-.917 2.874-1.813.936-.902 1.871-2.077 2.783-3.416 1.825-2.678 3.596-6.066 5.144-9.38a151.78 151.78 0 0 0 3.825-9.005 147.159 147.159 0 0 0 1.163-3.083l.036-.098.416.994c1.957 4.671 3.919 9.353 6.083 13.936a.5.5 0 0 0 .575.271l25.795-6.553a.5.5 0 0 0 .377-.488c-.021-2.54.577-5.367 1.205-8.336.177-.837.356-1.686.525-2.542.707-3.593 1.216-7.306.399-10.694 6.541.607 13.516 1.233 19.449 1.299 3.076.035 5.889-.08 8.227-.431 2.321-.347 4.246-.937 5.484-1.902 3.85-3.003 7.571-8.567 10.684-14.685 3.11-6.11 5.647-12.838 7.123-18.278l3.83-6.673a.498.498 0 0 0-.176-.676l-4.524-2.71Z" fill="#14C0FF"/><path d="M122.379 304.564c-5.767.633-10.98-3.196-14.694-7.362-3.7-4.166-6.86-9.56-11.952-12.148-3.646-1.847-7.252-.351-7.252-.351s-4.403 4.018 5.348 11.232c6.05 4.719 19.826 11.42 24.647 12.498" fill="#0C296E"/><path d="M90.687 283.688c1.422-.15 3.339-.06 5.272.92 2.632 1.338 4.746 3.391 6.651 5.602.888 1.03 1.737 2.103 2.572 3.158l.183.232c.897 1.132 1.78 2.24 2.694 3.27 3.689 4.138 8.753 7.802 14.265 7.197l.11.992c-6.021.662-11.383-3.332-15.122-7.526l-.001-.001c-.936-1.053-1.835-2.182-2.731-3.313l-.18-.228c-.838-1.059-1.675-2.116-2.548-3.13-1.874-2.174-3.886-4.112-6.346-5.363-1.712-.868-3.421-.953-4.714-.817a9.32 9.32 0 0 0-1.555.297c-.186.052-.331.1-.428.134l-.046.017a2.866 2.866 0 0 0-.376.548c-.224.421-.442 1.058-.39 1.905.105 1.691 1.304 4.381 6.13 7.951l.01.007c2.985 2.329 7.906 5.167 12.7 7.562 4.803 2.4 9.404 4.319 11.748 4.843l-.218.975c-2.477-.554-7.175-2.525-11.978-4.925-4.809-2.404-9.798-5.274-12.863-7.664-4.92-3.642-6.395-6.567-6.527-8.687-.066-1.059.208-1.878.505-2.435.147-.278.3-.49.42-.636a3.212 3.212 0 0 1 .195-.216l.015-.015.006-.005.002-.002c0-.001.001-.001.339.367l-.192-.461h.002l.003-.002.011-.004a7.787 7.787 0 0 1 .66-.218c.417-.118 1.01-.253 1.722-.329Zm-2.206 1.014-.192-.461a.518.518 0 0 0-.146.093l.338.368Z" fill="#0C296E"/><path d="M114.965 312.451s.027 7.268 1.823 10.585c.149.269 1.702 1.618 4.133 2.413 1.634.553 2.539 1.726 2.174 2.306-5.389.094-10.359-1.82-12.465-6.513-.743-1.658-1.702-5.164-2.35-6.862-.635-1.699-3.755-3.385-3.755-3.385l4.133-2.346c2.822-1.402 5.631-4.692 6.158-5.663 2.31 1.457 4.795 2.104 7.563 1.578l-7.414 7.887Z" fill="#fff"/><path d="M114.69 302.503a.502.502 0 0 1 .393.06c2.222 1.401 4.579 2.008 7.203 1.51a.498.498 0 0 1 .458.832l-7.277 7.741.002.113c.005.202.012.496.028.858.03.726.089 1.728.203 2.831.231 2.224.679 4.77 1.519 6.334a2.933 2.933 0 0 0 .263.254c.187.162.453.368.793.592.678.449 1.634.964 2.801 1.346l.005.002c.887.3 1.6.775 2.051 1.284.224.254.401.535.486.826.087.293.089.633-.1.933a.498.498 0 0 1-.414.234c-5.489.096-10.708-1.856-12.931-6.807-.385-.86-.819-2.18-1.23-3.469l-.211-.664c-.339-1.067-.656-2.066-.92-2.757l-.001-.003c-.124-.333-.386-.7-.746-1.074a9.577 9.577 0 0 0-1.198-1.028 15.58 15.58 0 0 0-1.455-.947l-.094-.054-.024-.013-.006-.003-.001-.001a.498.498 0 0 1-.009-.872l4.133-2.347.024-.013c1.342-.666 2.706-1.797 3.809-2.899 1.111-1.109 1.904-2.133 2.133-2.554a.492.492 0 0 1 .313-.245Zm-9.171 8.502c.274.173.602.392.942.643.444.327.917.715 1.325 1.139.403.419.769.9.961 1.416.275.72.603 1.753.941 2.819l.208.652c.415 1.303.832 2.565 1.19 3.364 1.931 4.301 6.434 6.196 11.53 6.22a1.534 1.534 0 0 0-.233-.336c-.319-.36-.875-.747-1.621-1a12.804 12.804 0 0 1-3.04-1.462 8.934 8.934 0 0 1-.895-.669 4.245 4.245 0 0 1-.28-.263 1.273 1.273 0 0 1-.197-.253l-.002-.003c-.95-1.754-1.411-4.491-1.643-6.722a47.848 47.848 0 0 1-.239-4.011l-.001-.064v-.022l.5-.002-.5.002a.5.5 0 0 1 .135-.344l6.469-6.882c-2.191.124-4.209-.462-6.094-1.561-.419.599-1.144 1.464-2.023 2.342-1.136 1.133-2.583 2.345-4.059 3.081l-3.374 1.916Zm89.059 1.811s14.384 2.184 22.905.714c6.402-1.105 7.82-5.164 7.239-7.739-.378-1.699-6.941-.957-10.628 1.24-3.768 2.239-11.385 5.623-19.516 5.785Z" fill="#0C296E"/><path d="M224.572 304.843c.3.187.554.461.638.841l-.488.108.488-.109c.321 1.421.086 3.228-1.085 4.825-1.176 1.602-3.259 2.946-6.556 3.515-4.327.746-10.107.563-14.773.2-2.339-.182-4.411-.41-5.898-.592a125.493 125.493 0 0 1-2.228-.296l-.124-.018-.032-.005-.01-.002.074-.493-.074.493a.5.5 0 0 1 .064-.992c8.014-.16 15.545-3.502 19.27-5.714 1.918-1.144 4.553-1.895 6.753-2.149 1.1-.127 2.126-.133 2.921.014.396.074.765.192 1.06.374Zm-25.328 8.051c1.087.115 2.316.231 3.63.334 4.656.362 10.329.535 14.524-.188 3.104-.537 4.931-1.775 5.92-3.122.993-1.353 1.177-2.863.916-4.016v-.002c-.01-.044-.044-.118-.189-.208-.151-.093-.386-.18-.716-.241-.658-.122-1.574-.125-2.623-.004-2.098.242-4.588.96-6.356 2.014-3.081 1.83-8.707 4.421-15.106 5.433Zm-89.734-4.756a.502.502 0 0 0-.451-.187c-2.176.25-3.519.846-4.469 1.64-.757.632-1.246 1.383-1.69 2.065-.1.154-.198.304-.296.449a.497.497 0 0 0-.036.498l1.444 2.976c.86 1.797 3.541 6.623 5.049 8.73.734 1.029 1.586 2.203 2.61 3.171 1.028.971 2.258 1.765 3.757 1.994.825.129 2.04.141 3.538.124.493-.005 1.018-.014 1.576-.023 1.16-.019 2.46-.041 3.89-.041.556 0 .946-.118 1.177-.371a.749.749 0 0 0 .162-.273.495.495 0 0 0 .024-.31l-.001-.008a.473.473 0 0 0-.006-.022s-.003-.014-.01-.031c-.2-.688-.699-1.266-1.265-1.734-.586-.485-1.292-.893-1.96-1.219a17.864 17.864 0 0 0-2.541-.997l-.044-.013-.012-.004-.003-.001h-.002a.495.495 0 0 0-.138-.02c-.73 0-1.446-.038-2.136-.157a6.849 6.849 0 0 1-1.781-.549c-.676-.323-1.218-.851-1.66-1.481a8.194 8.194 0 0 1-.772-1.398c-.683-1.545-1.018-3.377-1.368-5.286-.071-.391-.144-.786-.22-1.181-.437-2.281-.998-4.606-2.366-6.341Z" fill="#0C296E"/><path d="M240.308 318.572c-2.485.836-13.857-.485-14.856-2.926-.999-2.44-1.189-7.429-1.972-13.671l-9.251 1.901c2.728 7.51 5.186 10.341 4.16 19.065 14.18-.755 25.727-1.78 21.919-4.369Z" fill="#fff"/><path d="M223.771 301.568a.496.496 0 0 1 .205.344c.237 1.888.422 3.679.59 5.31.109 1.058.211 2.049.316 2.956.271 2.343.563 4.132 1.033 5.279.068.167.256.385.634.631.367.24.865.473 1.468.693 1.204.439 2.763.801 4.386 1.063 1.619.263 3.283.423 4.691.467 1.434.045 2.528-.036 3.054-.213a.5.5 0 0 1 .441.061c.493.335.911.751.951 1.275.043.571-.371.971-.794 1.231-.446.274-1.076.505-1.83.709-.763.206-1.687.392-2.742.562-4.214.679-10.672 1.125-17.759 1.502a.5.5 0 0 1-.523-.556c.786-6.679-.488-9.776-2.393-14.41-.54-1.313-1.131-2.75-1.74-4.427a.497.497 0 0 1 .369-.659l9.251-1.901a.5.5 0 0 1 .392.083Zm-8.872 2.679a114.691 114.691 0 0 0 1.497 3.769c1.876 4.555 3.228 7.839 2.554 14.394 6.86-.371 13.027-.809 17.064-1.459a26.6 26.6 0 0 0 2.641-.541c.725-.195 1.244-.397 1.567-.595.16-.099.247-.181.289-.239a.166.166 0 0 0 .029-.052c.003-.007.003-.011.002-.015-.001-.026-.041-.16-.332-.391-.74.181-1.877.231-3.147.191a38.586 38.586 0 0 1-4.82-.479c-1.656-.268-3.283-.642-4.569-1.111-.643-.234-1.217-.498-1.672-.795-.446-.29-.832-.647-1.013-1.089-.53-1.294-.832-3.219-1.101-5.542a246.42 246.42 0 0 1-.32-2.997c-.15-1.462-.313-3.039-.518-4.724l-8.151 1.675Z" fill="#0C296E"/><path d="M185.642 312.481c3.018.595 6.085.906 9.16.929a33.76 33.76 0 0 0 18.27-5.192 16.105 16.105 0 0 1 11.58-2.086.505.505 0 0 0 .567-.325.503.503 0 0 0 .023-.234c-.07-.489-7.38-48.8-11.18-62.247-6.45-22.933-14.55-43.738-27.08-69.586a.486.486 0 0 0-.56-.269l-24.21 5.481a.594.594 0 0 0-.27.169c-8.63 10.473-11.25 24.28-13.18 37.529a123.65 123.65 0 0 0-.63 5.121c-.78 6.999-1.67 14.925-6.72 25.837-7.617 6.998-16.963 12.636-26.008 18.091l-.172.104c-7.152 4.316-14.537 8.772-21.02 13.873-2.84 2.196-6 4.732-6 4.732a.5.5 0 0 0 .5.848 9.013 9.013 0 0 1 6.84.34c3.63 1.837 6.3 5.211 8.88 8.476a66.396 66.396 0 0 0 2.92 3.554c3.39 3.824 8.78 8.226 15.12 7.528a.486.486 0 0 0 .183-.051.485.485 0 0 0 .147-.119c.27-.32 27-32.087 35-47.652a132.256 132.256 0 0 0 6.09-15.055c.283-.752.552-1.504.821-2.255.234-.654.467-1.307.709-1.958 2.39-6.319 4.8-11.92 7.39-17.84.68-1.498 1.33-2.965 2-4.493 1.24 1.557 4.45 5.451 9.6 11.641a59.218 59.218 0 0 1 12.73 25.558l-.016.277c-.162 2.809-1.282 22.162-3.664 32.668-1.62 7.092-7.186 23.148-8.048 25.633l-.112.325a.497.497 0 0 0 0 .409.523.523 0 0 0 .34.239Z" fill="#3370FF"/><path d="M219.545 328.3a.488.488 0 0 0 .275.08h.06a206.154 206.154 0 0 1 4.72-.729 93.034 93.034 0 0 0 13.13-2.586 43.572 43.572 0 0 0 9.82-4.662.993.993 0 0 0 .5-1.188c-.29-.998-2.1-1.767-3.53-1.767a29.762 29.762 0 0 0-3.63.199l-.267.025c-.884.081-1.694.155-2.603.155a.51.51 0 0 0-.477.285.503.503 0 0 0 .427.714 3.35 3.35 0 0 1 1.06.269 2.74 2.74 0 0 1-.69.449c-3.27 1.678-10.63 1.188-16 .819-.413-.026-.821-.056-1.218-.085-.964-.069-1.863-.135-2.622-.135a.504.504 0 0 0-.49.34 6.884 6.884 0 0 0 .28 5.191c.48 1.029 1.07 2.406 1.07 2.406a.49.49 0 0 0 .185.22ZM166.25 196.348a.498.498 0 0 1 .494.504c-.039 3.677 1.333 7.306 3.317 10.562 1.999 3.259 4.588 6.179 7.199 9.11a.499.499 0 1 1-.747.663c-2.602-2.92-5.253-5.905-7.305-9.253l-.001-.001c-2.041-3.35-3.505-7.164-3.463-11.091a.5.5 0 0 1 .506-.494Zm20.468-53.825a.502.502 0 0 1 .636.311c.662 1.931 1.355 4.189 1.564 6.26a.5.5 0 0 1-.995.1c-.197-1.948-.855-4.112-1.515-6.037a.498.498 0 0 1 .31-.634Zm7.254 99.101a.5.5 0 0 1 .634.312 167.92 167.92 0 0 1 4.606 16.052.5.5 0 0 1-.974.226 167.124 167.124 0 0 0-4.579-15.956.5.5 0 0 1 .313-.634Zm-51.996 5.76a.5.5 0 0 1 .214.673l-4.525 8.71a.5.5 0 0 1-.887-.459l4.524-8.71a.5.5 0 0 1 .674-.214Zm191.357-86.604a4.497 4.497 0 0 0-4.5-4.493h-90.649a4.496 4.496 0 0 0-4.5 4.493v106.595a4.496 4.496 0 0 0 4.5 4.493h90.649c2.485 0 4.5-2.012 4.5-4.493V160.78Zm-4.5-3.495c1.933 0 3.5 1.565 3.5 3.495v106.595a3.498 3.498 0 0 1-3.5 3.495h-90.649a3.498 3.498 0 0 1-3.5-3.495V160.78a3.498 3.498 0 0 1 3.5-3.495h90.649Z" fill="#0C296E"/><path d="M249.477 197.489a.5.5 0 0 0 .5.5h38a.5.5 0 0 0 0-.999h-38a.5.5 0 0 0-.5.499Zm0 13.813c0-.276.223-.499.5-.499h21a.5.5 0 1 1 0 .998h-21a.499.499 0 0 1-.5-.499Zm54.17-47.13a2.498 2.498 0 0 0-2.5 2.496 2.497 2.497 0 0 0 2.5 2.495c1.38 0 2.5-1.117 2.5-2.495a2.499 2.499 0 0 0-2.5-2.496Zm-3.5 2.496a3.497 3.497 0 0 1 3.5-3.494c1.933 0 3.5 1.564 3.5 3.494a3.497 3.497 0 0 1-3.5 3.494 3.497 3.497 0 0 1-3.5-3.494Zm13.5-2.496a2.498 2.498 0 0 0-2.5 2.496 2.497 2.497 0 0 0 2.5 2.495c1.38 0 2.5-1.117 2.5-2.495a2.499 2.499 0 0 0-2.5-2.496Zm-3.5 2.496a3.497 3.497 0 0 1 3.5-3.494c1.933 0 3.5 1.564 3.5 3.494a3.497 3.497 0 0 1-3.5 3.494 3.497 3.497 0 0 1-3.5-3.494Zm13.5-3.494a3.497 3.497 0 0 0-3.5 3.494 3.497 3.497 0 0 0 3.5 3.494c1.933 0 3.5-1.564 3.5-3.494a3.497 3.497 0 0 0-3.5-3.494Z" fill="#0C296E"/><path d="M248.977 244.636c0-3.983 3.235-7.212 7.224-7.212h54.597c3.989 0 7.224 3.229 7.224 7.212 0 3.984-3.235 7.213-7.224 7.213h-54.597c-3.989 0-7.224-3.229-7.224-7.213Z" fill="#00D6B9"/><path d="M18 329.501a.5.5 0 0 1 .5-.499h321a.5.5 0 1 1 0 .998h-321a.5.5 0 0 1-.5-.499Z" fill="#0C296E"/><defs><filter id="udfagh8zx8ja" x="227.184" y="150.186" width="47" height="38.81" filterUnits="userSpaceOnUse" color-interpolation-filters="sRGB"><feFlood flood-opacity="0" result="BackgroundImageFix"/><feBlend in="SourceGraphic" in2="BackgroundImageFix" result="shape"/><feGaussianBlur stdDeviation="3.5" result="effect1_foregroundBlur"/></filter></defs></svg>