<svg width="120" height="120" viewBox="0 0 120 120" fill="none" xmlns="http://www.w3.org/2000/svg"><g clip-path="url(#ud43nhuijhza)"><path d="m34.757 61.603-1.5-10C11.612 60.549 4.932 69.419 4.932 73.233c-.14.414-.191.817-.157 1.204l.677 6.412c-.003-.037 1.163 2.603 3.588.73.609-2.01 6.072-12.03 25.717-19.976Zm46.86-25.635 1.213 9.392c10.904-2.551 21.392-8.599 21.011-12.934l-.939-10.666c.637 7.239-13.075 11.464-21.285 14.208Z" fill="#0C296E"/><path d="M14.2 34.057a4 4 0 0 1 2.762-4.937l54.856-15.485a4 4 0 0 1 4.937 2.763L92.24 71.254a4 4 0 0 1-2.763 4.936L34.621 91.676a4 4 0 0 1-4.936-2.763L14.2 34.057Z" fill="#FFC60A"/><path d="M61.098 38.443a1.4 1.4 0 0 0-1.896.53L46.868 60.696a1.374 1.374 0 0 0 .526 1.882l4.846 2.701a1.4 1.4 0 0 0 1.896-.53L66.47 43.026a1.374 1.374 0 0 0-.526-1.882l-4.846-2.701ZM41.812 49.938a1.4 1.4 0 0 0-1.896.53l-2.74 4.825a1.374 1.374 0 0 0 .527 1.881l4.846 2.702a1.4 1.4 0 0 0 1.896-.53l2.74-4.825a1.374 1.374 0 0 0-.527-1.882l-4.846-2.701Z" fill="#fff"/><path d="M103.868 32.72a5.476 5.476 0 0 0-.025-.225C102.964 25.8 87.941 20.15 82.78 19.632l-.781-8.874c4.432.444 20.441 5.733 21.002 12.111l.867 9.851ZM4.741 74.148c.8 8.387 25.224 14.905 45.075 13.9l.796 9.053C29.693 98.365 6.42 91.414 5.742 83.702l-1-9.554Z" fill="#00D6B9"/><path d="m62.51 113.322-.463-9.077c-14.55.21-32.68-.724-44.226-4.79l.482 9.441c11.299 3.817 28.94 4.792 44.208 4.426Z" fill="#3370FF"/><path d="m54.888 16.106-.776-8.815c8.989 0 13.603.846 20.138 2.105l.797 9.057c-5.939-1.055-10.436-2.032-20.159-2.347Z" fill="#00D6B9"/><path d="M114.325 64.973c.427-.051.771-.043 1.028.007.26.05.398.134.465.204.078.082.213.338-.2 1.008-.396.645-1.212 1.496-2.579 2.51-4.393 3.264-9.178 7.665-12.857 11.24a228.287 228.287 0 0 0-5.81 5.86c-.15.158-.266.28-.344.364l-.09.094-.03.033.368.342.367.342.03-.031.087-.093.34-.36a226.475 226.475 0 0 1 5.783-5.832c3.671-3.568 8.418-7.932 12.758-11.156 1.409-1.046 2.34-1.985 2.832-2.786.477-.775.642-1.619.068-2.22-.26-.272-.619-.425-1.006-.5-.389-.075-.842-.077-1.338-.017-.992.12-2.223.496-3.603 1.148-2.228 1.042-5.526 3.278-9.229 5.995-3.396 2.492-7.164 5.412-10.814 8.24l-1.023.793c-3.28 2.53-6.355 4.882-8.824 6.631-1.235.874-2.31 1.592-3.18 2.104-.434.256-.81.457-1.124.599-.321.145-.549.216-.693.236h-.002c-1.73.24-3.164-.389-4.951-1.567-.567-.374-1.174-.808-1.835-1.279-1.385-.989-3.004-2.145-4.984-3.273l-.001-.001c-2.608-1.478-4.27-2.162-5.455-2.367-.605-.104-1.096-.086-1.53.02-.43.104-.774.289-1.082.473a1.453 1.453 0 0 0-.61.645 1.46 1.46 0 0 0-.11.793c.062.486.322.962.564 1.327.156.243.527.634.967 1.073a89.74 89.74 0 0 0 1.692 1.624l.93.874c1.02.957 2.068 1.94 2.875 2.74 5.88 6.484 7.318 11.277 7.346 14.387.014 1.559-.325 2.717-.66 3.476-.167.38-.334.662-.456.845a2.82 2.82 0 0 1-.143.201l-.036.044-.006.008a.5.5 0 0 0 .045.704.5.5 0 0 0 .706-.039l-.375-.333.376.333v-.001l.003-.003.006-.006.017-.021.057-.07c.046-.061.11-.147.186-.26a6.64 6.64 0 0 0 .538-.994c.385-.876.759-2.172.743-3.885-.03-3.432-1.62-8.455-7.616-15.063a.478.478 0 0 0-.018-.02c-.82-.812-1.887-1.814-2.914-2.776l-.92-.864a89.172 89.172 0 0 1-1.671-1.605c-.47-.468-.75-.776-.83-.904l-.006-.008c-.222-.335-.375-.651-.406-.901a.457.457 0 0 1 .027-.253.475.475 0 0 1 .21-.205l.008-.004c.279-.168.522-.293.807-.362.281-.069.632-.09 1.122-.006 1.003.174 2.536.781 5.128 2.25 1.94 1.105 3.471 2.2 4.833 3.173.675.482 1.31.935 1.93 1.345 1.843 1.215 3.54 2.016 5.644 1.724.288-.04.618-.157.97-.315a13.16 13.16 0 0 0 1.219-.648c.904-.532 2.005-1.269 3.249-2.15 2.488-1.761 5.58-4.126 8.858-6.655l1.022-.792c3.651-2.83 7.41-5.742 10.794-8.226 3.713-2.724 6.937-4.902 9.064-5.897h.002c1.315-.622 2.442-.958 3.297-1.06Zm-20.05 21.662-.367-.342a.502.502 0 0 0 .735.684l-.367-.342Z" fill="#0C296E"/><path d="M106.283 74.917a.499.499 0 0 0-.673.214c-1.593 3.125-3.403 6.192-4.816 8.48a143.68 143.68 0 0 1-2.378 3.718l-.034.05-.002.004-.099.128-.31.402a495.881 495.881 0 0 0-4.69 6.177c-2.681 3.591-5.666 7.713-6.776 9.71a.501.501 0 0 0-.054.147l-1.105 5.76a.504.504 0 0 0 .398.587.496.496 0 0 0 .585-.392l1.09-5.681c1.102-1.953 4.002-5.962 6.666-9.531a496.717 496.717 0 0 1 4.99-6.565l.109-.14-.397-.308.417.28.012-.018.035-.052.135-.204a143.477 143.477 0 0 0 2.26-3.544c1.422-2.3 3.247-5.392 4.857-8.55a.501.501 0 0 0-.22-.672Zm-7.496 12.76.397.308a.533.533 0 0 0 .02-.028l-.417-.28Zm11.728-26.314c-.131-.063-.233-.063-.299-.04l-.026.009c-.137.04-.253.171-.449.444a970.309 970.309 0 0 1-3.178 4.408h-.001c-.925 1.28-1.851 2.557-3.175 4.405a.5.5 0 0 1-.698.112.499.499 0 0 1-.118-.697c1.326-1.85 2.252-3.13 3.178-4.408.926-1.279 1.852-2.557 3.176-4.405l.022-.03c.158-.222.452-.635.941-.784.377-.128.756-.057 1.057.088.303.146.569.385.74.666.016.027.03.056.042.086.146.392.121.867.046 1.305a8.505 8.505 0 0 1-.401 1.422c-.346.943-.814 1.865-1.106 2.33a.5.5 0 0 1-.69.153.5.5 0 0 1-.159-.69c.251-.398.689-1.256 1.014-2.142a7.49 7.49 0 0 0 .355-1.25c.061-.353.055-.597.017-.741a.796.796 0 0 0-.288-.24Zm-8.235 2.989c.301.072.567.252.744.55l.006.01c.211.372.19.767.105 1.087a3.166 3.166 0 0 1-.392.846.5.5 0 0 1-.69.153.5.5 0 0 1-.159-.69 2.2 2.2 0 0 0 .273-.573c.045-.17.028-.27-.005-.331a.155.155 0 0 0-.108-.08.677.677 0 0 0-.323.028c-.309.086-.665.308-.917.547-2.008 2.047-4.054 5.253-5.268 7.865a.494.494 0 0 1-.058.096l-.043.055-.123.157-.465.587c-.399.502-.965 1.21-1.636 2.032-1.341 1.644-3.104 3.753-4.785 5.603a.501.501 0 0 1-.707.031.499.499 0 0 1-.037-.705c1.663-1.83 3.414-3.925 4.75-5.563a201.246 201.246 0 0 0 2.09-2.605l.122-.156.007-.009c1.252-2.679 3.346-5.962 5.441-8.095l.011-.01c.342-.328.839-.651 1.34-.792.253-.07.542-.105.827-.038Z" fill="#0C296E"/><path d="M108.232 60.46c-.641.136-1.238.539-1.605.888l-.011.01c-.373.333-.84.894-1.337 1.562a47.045 47.045 0 0 0-1.441 2.074c-3.922 5.909-4.326 6.409-8.221 11.243l-.888 1.102a.5.5 0 0 1-.704.073.5.5 0 0 1-.079-.702l.898-1.115c3.872-4.803 4.26-5.285 8.157-11.156.449-.677.963-1.435 1.472-2.118.501-.673 1.016-1.3 1.466-1.704.451-.427 1.204-.949 2.079-1.133.915-.194 1.948-.01 2.826.966a.498.498 0 1 1-.743.664c-.61-.678-1.264-.78-1.869-.653Z" fill="#0C296E"/></g><defs><clipPath id="ud43nhuijhza"><path fill="#fff" d="M0 0h120v120H0z"/></clipPath></defs></svg>