<svg width="120" height="120" viewBox="0 0 120 120" fill="none" xmlns="http://www.w3.org/2000/svg"><g clip-path="url(#udmozyzy9ixa)"><path d="m105.056 32.978-2.677-8.556C79.456 40.871 67.451 40.902 48.651 47.29 13.639 56.14 2.214 68.418 4.283 77.258l2.25 10.07c-1.882-8.615 12.492-22.443 44.174-31.644 4.93-1.655 9.38-2.93 13.579-4.113 0 0-1.9-2.06 2.763-3.682 4.132-1.437 16.544-3.879 16.544-3.879 5.364-1.88 17.007-7.928 21.463-11.032ZM103.4 13.523a196.65 196.65 0 0 0-.621-1.904c-.601-1.802-1.078-3.069-2.208-5.98-1.892-2.37-10.582-1.295-13.64-.07l.263.783c.346 1.021.896 2.643 1.672 5.222.092.306.187.625.285.958.317-.102.636-.2.957-.292 4.353-1.254 9.056-1.562 11.837.04a4.95 4.95 0 0 1 1.455 1.243Zm-1.903-2.568c-1.217-.49-2.612-.715-4.039-.76-2.407-.075-5.093.354-7.636 1.087a146.44 146.44 0 0 0-1.625-5.088c1.52-.445 3.81-.84 6.036-.94 1.353-.06 2.628-.01 3.653.184.962.182 1.537.46 1.819.732.867 2.236 1.337 3.476 1.792 4.785Z" fill="#0C296E"/><path d="M103.425 13.095c1.872 8.783-39.654 17.603-39.654 17.603l-2.683-7.006s41.697-8.713 39.722-17.448a427.9 427.9 0 0 1 2.615 6.851Z" fill="#00D6B9"/><path d="M11.347 32.792a4 4 0 0 0-2.829 4.9l10.132 37.81 29.809-7.987a2 2 0 0 1 2.449 1.414l3.12 11.641 41.089-11.01a4 4 0 0 0 2.828-4.898l-12.733-47.52a4 4 0 0 0-4.9-2.829l-68.965 18.48Z" fill="#FFC60A"/><path d="M46.346 51.794a.5.5 0 0 0-.705.051L27.62 72.673a.5.5 0 1 0 .757.654L46.398 52.5a.5.5 0 0 0-.052-.706Zm12.488-3.366a.5.5 0 0 1 .65-.278l30.702 12.886a.5.5 0 1 1-.372.928L59.113 49.078a.5.5 0 0 1-.279-.65Z" fill="#0C296E"/><path d="M14.732 78.626a2.5 2.5 0 0 1 1.768-3.062l31.83-8.529a2.5 2.5 0 0 1 3.061 1.768l6.228 23.243a2.5 2.5 0 0 1-1.768 3.061l-31.83 8.529a2.5 2.5 0 0 1-3.061-1.768l-6.228-23.242Zm2.027-2.096a1.5 1.5 0 0 0-1.061 1.837l6.228 23.243a1.5 1.5 0 0 0 1.837 1.06l31.83-8.528a1.5 1.5 0 0 0 1.06-1.837l-6.228-23.243a1.5 1.5 0 0 0-1.837-1.06l-31.83 8.528Zm-6.717-40.536a.5.5 0 0 1 .662-.25L51.659 54.2a3.083 3.083 0 0 0 3.77-1.01l26.24-36.462a.5.5 0 1 1 .811.584L56.24 53.775a4.083 4.083 0 0 1-4.992 1.338L10.293 36.655a.5.5 0 0 1-.25-.661Z" fill="#0C296E"/><path d="M43.457 78.353a1.247 1.247 0 0 0-.625-1.681 1.32 1.32 0 0 0-1.72.64l-5.276 11.169-5.802-2.74a1.321 1.321 0 0 0-1.736.598 1.246 1.246 0 0 0 .584 1.695l7.185 3.393a1.068 1.068 0 0 0 1.403-.484l.485-.965.01.005.19-.403.002-.004 5.3-11.223Z" fill="#00D6B9"/><path d="M26.034 88.822c-5.125.501-20.57-5.96-21.879-12.172l2.192 10.408c2.248 7.04 18.202 10.312 21.6 9.896l-1.913-8.132Z" fill="#3370FF"/><path d="M113.551 56.916c-.812.084-1.892.404-3.163 1.026h-.002c-2.056.996-5.252 3.262-8.926 6.08-2.98 2.288-6.247 4.915-9.431 7.476l-2.164 1.74h-.001c-3.174 2.537-6.166 4.908-8.575 6.676-1.204.883-2.271 1.621-3.148 2.156a12.42 12.42 0 0 1-1.183.65c-.34.16-.664.28-.947.32-2.051.293-3.707-.516-5.496-1.735-.604-.41-1.22-.865-1.877-1.35-1.324-.976-2.812-2.074-4.695-3.182-2.52-1.475-4.006-2.083-4.975-2.256-.473-.085-.808-.063-1.076.005-.272.068-.505.191-.775.36l-.007.004a.455.455 0 0 0-.199.2.486.486 0 0 0-.025.26c.032.255.182.575.398.911l.006.008c.08.13.352.439.809.908.438.45 1.005 1.007 1.626 1.61.288.282.59.573.894.867a154.663 154.663 0 0 1 2.852 2.806c5.88 6.683 7.119 13.502 6.877 18.653a25.734 25.734 0 0 1-1.069 6.235c-.23.756-.452 1.353-.619 1.763a12.978 12.978 0 0 1-.258.597l-.017.033-.004.009-.001.003v.001c-.001.001-.001.001-.45-.221l.45.221a.5.5 0 1 1-.898-.442v-.001l.003-.006.013-.025.05-.109c.044-.097.108-.243.186-.436.156-.385.369-.953.589-1.678.44-1.449.91-3.518 1.026-5.99.232-4.933-.946-11.481-6.62-17.937-.785-.803-1.805-1.789-2.797-2.749l-.904-.876a89.157 89.157 0 0 1-1.646-1.63c-.429-.441-.79-.833-.94-1.076-.236-.366-.488-.84-.548-1.325a1.478 1.478 0 0 1 .103-.79c.119-.266.321-.485.596-.65.298-.185.634-.372 1.054-.478.427-.108.908-.125 1.497-.02 1.155.207 2.771.895 5.304 2.378h.002c1.924 1.133 3.499 2.294 4.845 3.286.642.473 1.232.908 1.782 1.283 1.738 1.183 3.125 1.81 4.792 1.57h.001c.136-.019.353-.089.664-.234.303-.142.666-.342 1.087-.599.84-.512 1.881-1.232 3.077-2.109 2.39-1.753 5.365-4.111 8.541-6.65.712-.57 1.433-1.15 2.16-1.735 3.183-2.561 6.461-5.198 9.452-7.492 3.661-2.809 6.935-5.14 9.099-6.187 1.339-.655 2.534-1.022 3.498-1.122.927-.095 1.794.045 2.27.617.516.62.365 1.464-.106 2.266-.483.824-1.389 1.781-2.757 2.833-4.201 3.232-8.851 7.64-12.459 11.25a235.208 235.208 0 0 0-5.7 5.909l-.337.365-.087.094-.028.031-.277-.252.277.252a.5.5 0 0 1-.74-.673l.313.285-.312-.285.03-.034.088-.095.34-.369a237.686 237.686 0 0 1 5.725-5.934c3.617-3.618 8.304-8.064 12.557-11.337 1.321-1.015 2.114-1.88 2.504-2.546.403-.687.3-1 .2-1.12-.139-.168-.548-.35-1.398-.262Z" fill="#0C296E"/><path d="M105.512 67.183a.5.5 0 0 0-.669.23c-1.538 3.133-3.285 6.21-4.65 8.504a144.067 144.067 0 0 1-2.296 3.73l-.033.05-.002.004-.095.128a390.882 390.882 0 0 0-1.389 1.872 497.375 497.375 0 0 0-3.444 4.726c-2.591 3.603-5.475 7.737-6.547 9.74a.501.501 0 0 0-.051.148L84.25 107.89a.5.5 0 0 0 .984.177l2.072-11.496c1.063-1.959 3.865-5.98 6.44-9.56a497.718 497.718 0 0 1 4.822-6.584l.105-.14-.4-.3.42.271.011-.018.034-.052.131-.205a150.072 150.072 0 0 0 2.184-3.555c1.372-2.307 3.134-5.408 4.687-8.575a.5.5 0 0 0-.228-.67Zm-7.24 12.803.401.3a.553.553 0 0 0 .02-.028l-.42-.272Zm11.31-26.39c-.125-.062-.215-.06-.269-.04a.369.369 0 0 1-.028.009c-.122.037-.231.162-.422.438a913.429 913.429 0 0 1-3.072 4.422c-.894 1.283-1.789 2.565-3.068 4.418a.5.5 0 0 1-.823-.568 997.094 997.094 0 0 1 3.071-4.422c.895-1.283 1.789-2.565 3.069-4.418l.022-.032c.151-.22.439-.64.92-.791.376-.133.752-.058 1.046.089.297.148.555.389.72.668a.514.514 0 0 1 .04.084c.133.365.145.792.107 1.202-.04.418-.137.864-.26 1.29-.244.849-.609 1.682-.899 2.16a.5.5 0 0 1-.855-.52c.235-.387.568-1.135.794-1.917.111-.388.192-.77.224-1.107.03-.315.013-.556-.036-.72a.767.767 0 0 0-.281-.245Zm-7.966 3a1.585 1.585 0 0 0-.816.038c-.493.142-.977.47-1.31.8l-.01.01c-2.028 2.14-4.05 5.434-5.257 8.12l-.007.01-.118.156-.446.585c-.383.5-.928 1.206-1.573 2.028-1.293 1.643-2.985 3.742-4.593 5.578a.5.5 0 1 0 .752.66c1.625-1.856 3.33-3.971 4.627-5.62a202.823 202.823 0 0 0 2.03-2.627l.12-.158.04-.055a.502.502 0 0 0 .058-.096c1.17-2.62 3.146-5.836 5.088-7.888.242-.239.583-.458.877-.543a.61.61 0 0 1 .299-.027c.036.009.067.024.099.078.016.031.034.108-.036.294-.069.185-.185.376-.316.592l-.023.038a.5.5 0 0 0 .855.518l.032-.052c.12-.197.285-.467.389-.745.113-.303.197-.725-.027-1.132l-.005-.01a1.15 1.15 0 0 0-.729-.553Z" fill="#0C296E"/><path d="M107.375 52.692c-.614.134-1.188.534-1.542.883l-.011.011c-.36.332-.811.894-1.292 1.565a46.641 46.641 0 0 0-1.391 2.08c-3.79 5.926-4.18 6.428-7.946 11.277l-.858 1.105a.5.5 0 0 1-.79-.613l.868-1.118c3.743-4.818 4.118-5.3 7.883-11.19.433-.678.93-1.438 1.422-2.124.484-.675.982-1.305 1.419-1.71.437-.43 1.169-.957 2.025-1.143.9-.196 1.909-.006 2.763.972a.5.5 0 0 1-.754.658c-.594-.68-1.222-.778-1.796-.653Z" fill="#0C296E"/></g><defs><clipPath id="udmozyzy9ixa"><path fill="#fff" d="M0 0h120v120H0z"/></clipPath></defs></svg>