<svg width="120" height="120" viewBox="0 0 120 120" fill="none" xmlns="http://www.w3.org/2000/svg"><g clip-path="url(#uds2e8cmmwma)"><path d="M13.548 18.984a4.5 4.5 0 0 1 4.5-4.5h76.75a.5.5 0 0 1 .5.5v13.372a.5.5 0 1 1-1 0V15.484h-76.25a3.5 3.5 0 0 0-3.5 3.5v14.987a.5.5 0 0 1-1 0V18.984ZM7.674 83.986A3.374 3.374 0 0 0 4.3 87.361c0 4.45 4.205 7.927 9.218 7.927h69.816c.02 0 .04-.001.059-.003a9.077 9.077 0 0 0 2.907-.49.5.5 0 1 0-.327-.946 8.084 8.084 0 0 1-2.639.436c-3.924 0-6.967-2.697-6.967-5.861a4.437 4.437 0 0 0-4.437-4.438H7.674ZM79.2 94.288H13.518c-4.617 0-8.218-3.173-8.218-6.927a2.374 2.374 0 0 1 2.374-2.375H71.93a3.437 3.437 0 0 1 3.437 3.438c0 2.519 1.553 4.672 3.833 5.864Z" fill="#0C296E"/><path d="M14.254 79.117a.5.5 0 0 1 .5.5v4.032a.5.5 0 1 1-1 0v-4.032a.5.5 0 0 1 .5-.5Z" fill="#0C296E"/><path d="M3.99 40.535a4 4 0 0 1 4-4h57a4 4 0 0 1 4 4v32a4 4 0 0 1-4 4h-57a4 4 0 0 1-4-4v-32Z" fill="#00D6B9"/><path d="M22.983 49.088a.5.5 0 0 1 .5-.5h27.146a.5.5 0 1 1 0 1H23.483a.5.5 0 0 1-.5-.5ZM21.852 63.98a.5.5 0 0 1 .5-.5h27.146a.5.5 0 1 1 0 1H22.352a.5.5 0 0 1-.5-.5Z" fill="#0C296E"/><path d="M46.03 41.996a.5.5 0 0 1 .405.58l-5.01 28.092a.5.5 0 1 1-.984-.176l5.01-28.091a.5.5 0 0 1 .58-.405Zm-14.06 0a.5.5 0 0 1 .408.577l-4.847 28.092a.5.5 0 1 1-.986-.17l4.848-28.092a.5.5 0 0 1 .577-.407Zm77.029 29.736c4.827 1.781 6.317 5.11 6.348 6.466l-.001 7.928c-.316-3.55-4.437-8.468-9.054-8.858l2.707-5.536Z" fill="#0C296E"/><path d="M115.368 87.549c-.621 5.217-13.217 7.992-25.442 7.992V87.55c10.467 0 24.595-2.084 25.442-9.2v9.2Z" fill="#00D6B9"/><path d="M42.635 102.339v7.62c29.615-4.976 65.37 3.638 73.12-6.559v-8.056c-10.197 10.605-44.324 1.654-73.12 6.995Z" fill="#3370FF"/><path d="M86.136 37.76c9.941 0 18-8.06 18-18 0-9.941-8.059-18-18-18-9.94 0-18 8.059-18 18 0 9.94 8.06 18 18 18ZM84.5 12.396c0-.452.366-.818.818-.818h1.636c.452 0 .819.366.819.818v5.727H93.5c.452 0 .818.367.818.819v1.636a.818.818 0 0 1-.818.818h-5.727v5.727a.818.818 0 0 1-.819.819h-1.636a.818.818 0 0 1-.818-.819v-5.727h-5.727a.818.818 0 0 1-.819-.818v-1.636a.82.82 0 0 1 .819-.819H84.5v-5.727Z" fill="#FFC60A"/><path d="M84.5 12.396c0-.452.366-.818.818-.818h1.636c.452 0 .818.366.818.818v5.728H93.5c.451 0 .818.366.818.818v1.636a.818.818 0 0 1-.818.818h-5.728v5.728a.818.818 0 0 1-.818.818h-1.636a.818.818 0 0 1-.818-.818v-5.728h-5.728a.818.818 0 0 1-.818-.818v-1.636c0-.452.366-.818.818-.818H84.5v-5.728Z" fill="#fff"/><path d="M33.044 22.598a2 2 0 1 0 0 4 2 2 0 0 0 0-4Zm-3 2a3 3 0 1 1 6 0 3 3 0 0 1-6 0Zm-7-2a2 2 0 1 0 0 4 2 2 0 0 0 0-4Zm-3 2a3 3 0 1 1 6 0 3 3 0 0 1-6 0Zm90.694 5.106c.002.054.001.075.001.075-.054.508-.374 1.622-.881 3.137a180.686 180.686 0 0 1-1.857 5.196c-.551 1.487-1.129 3.016-1.671 4.451-.828 2.193-1.573 4.168-2.019 5.442a.52.52 0 0 0 .293.655.481.481 0 0 0 .627-.301c.442-1.264 1.179-3.215 2.003-5.395.542-1.438 1.123-2.975 1.681-4.48.7-1.887 1.364-3.72 1.868-5.228.496-1.483.861-2.714.929-3.36a2.626 2.626 0 0 0-.014-.485c-.018-.187-.048-.42-.088-.686a54.9 54.9 0 0 0-.348-2.018 162.943 162.943 0 0 0-1.161-5.545c-.444-1.96-.918-3.893-1.33-5.342a22.398 22.398 0 0 0-.568-1.779 4.143 4.143 0 0 0-.255-.561 1.215 1.215 0 0 0-.163-.227.61.61 0 0 0-.395-.2c-.688-.052-1.24.263-1.649.779-.394.496-.666 1.185-.86 1.954-.388 1.542-.507 3.592-.5 5.608.007 2.026.141 4.056.272 5.578a81.53 81.53 0 0 0 .246 2.41c-2.731 6.87-6.37 13.356-10.01 19.841-.172.309-.346.617-.519.926-.856 1.528-1.953 2.765-2.996 3.47-1.07.72-1.915.788-2.45.384-.973-.781-1.828-2.203-2.665-3.998-.522-1.12-1.016-2.335-1.523-3.582a148.92 148.92 0 0 0-.94-2.278c-.85-1.992-1.78-3.935-2.914-5.403-1.139-1.473-2.53-2.528-4.3-2.615a.477.477 0 0 0-.378.16.52.52 0 0 0-.129.403c.493 4.653.897 8.6 1.244 11.995.894 8.748 1.413 13.822 2.112 17.838.96 5.516 2.262 9.06 5.3 17.324l.142.388a262.69 262.69 0 0 1 4.336 18.258 157.044 157.044 0 0 1 .288 1.487l.014.078.005.025.481-.093.481-.093v-.001l-.001-.006-.004-.02-.015-.08-.058-.31a241.096 241.096 0 0 0-1.136-5.52 263.768 263.768 0 0 0-3.469-14.065l-.127-.345c-3.059-8.324-4.33-11.783-5.274-17.204-.692-3.976-1.205-8.996-2.096-17.716a3305.9 3305.9 0 0 0-1.182-11.41c1.131.236 2.109 1 3.004 2.16 1.048 1.355 1.936 3.192 2.78 5.175.31.724.614 1.473.918 2.22.516 1.269 1.03 2.533 1.56 3.672.844 1.808 1.783 3.428 2.956 4.367l.01.008c1.047.799 2.395.443 3.566-.347 1.198-.809 2.392-2.176 3.307-3.808l.53-.944c3.652-6.51 7.344-13.09 10.107-20.072a.529.529 0 0 0 .032-.261l-.485.064.485-.064v-.003l-.001-.008-.004-.034-.016-.133-.059-.509a81.445 81.445 0 0 1-.177-1.817c-.13-1.506-.262-3.505-.268-5.49-.007-1.995.112-3.937.468-5.346.178-.708.405-1.234.668-1.566.2-.252.41-.382.65-.41.04.08.089.193.147.342.152.396.335.975.538 1.689.404 1.422.873 3.334 1.316 5.287.442 1.951.857 3.937 1.153 5.506.147.786.265 1.463.341 1.977.039.258.066.47.082.633a3.4 3.4 0 0 1 .014.196Zm-20.74 74.286.48-.093a.506.506 0 0 1-.389.595.495.495 0 0 1-.573-.409l.481-.093Z" fill="#0C296E"/><path d="m107.448 40.63.003.004.01.014.04.056.155.222a47.71 47.71 0 0 1 2.275 3.656c1.275 2.281 2.53 5.03 2.667 7.136a.5.5 0 0 0 .521.477.5.5 0 0 0 .456-.54c-.154-2.37-1.523-5.302-2.798-7.583a49.02 49.02 0 0 0-2.488-3.97l-.043-.06-.011-.016-.004-.005-.391.304.391-.304a.478.478 0 0 0-.686-.105.524.524 0 0 0-.097.714Z" fill="#0C296E"/><path d="M111.162 45.054a.482.482 0 0 0-.62.317l-.214.66a172.648 172.648 0 0 1-2.37 6.95.519.519 0 0 0 .287.658c.253.1.535-.032.63-.295 1.182-3.279 1.527-4.345 2.382-6.984l.213-.658a.519.519 0 0 0-.308-.648Zm1.89 6.256a.49.49 0 0 0-.444.352 5162.47 5162.47 0 0 0-1.26 4.103l-.313 1.02.357.12-.357-.12a.52.52 0 0 0 .319.643.484.484 0 0 0 .615-.328l.312-1.02.829-2.698c.703 2.31.98 5.113-.022 7.305-2.104 4.605-3.551 7.787-4.718 10.35a1671.774 1671.774 0 0 1-4.383 9.579.532.532 0 0 0-.028.364l5.66 20.084a.49.49 0 0 0 .608.348.51.51 0 0 0 .331-.631l-5.606-19.895c1.574-3.41 2.661-5.798 4.305-9.41 1.167-2.565 2.614-5.746 4.716-10.347 1.391-3.044.609-6.93-.448-9.507a.491.491 0 0 0-.473-.312Z" fill="#0C296E"/></g><defs><clipPath id="uds2e8cmmwma"><path fill="#fff" d="M0 0h120v120H0z"/></clipPath></defs></svg>