<svg width="350" height="350" viewBox="0 0 350 350" fill="none" xmlns="http://www.w3.org/2000/svg"><g filter="url(#ud7ahvehl7ma)"><path d="M74.773 145.983c10.813 0 19.579-8.766 19.579-19.58 0-10.813-8.766-19.579-19.58-19.579-10.813 0-19.579 8.766-19.579 19.579 0 10.814 8.766 19.58 19.58 19.58Z" fill="#FFC60A"/></g><path d="M223.979 145.385H112.661v14.497h111.318v-14.497Z" fill="#BBBFC4" fill-opacity=".45"/><path d="M223.979 125.307h93.113v174.724a28.324 28.324 0 0 0-4.426-.347c-5.146 0-9.96 1.397-14.11 3.818-4.939-16.49-20.225-28.511-38.319-28.511-16.042 0-29.881 9.446-36.258 23.078V125.307Z" fill="#14C0FF"/><path d="M302.719 125.305h14.428v14.041l-14.428-14.041Z" fill="#0C296E"/><path d="M254.136 259.013h34.846c12.077 0 12.077-8.923 12.077-19.934V64.602a8 8 0 0 0-8-8H168.746a8 8 0 0 0-8 8v159.606" fill="#fff"/><path d="M160.246 64.602v159.606a.5.5 0 0 0 1 0V64.602a7.5 7.5 0 0 1 7.5-7.5h124.313a7.5 7.5 0 0 1 7.5 7.5v174.477c0 2.758 0 5.359-.187 7.721s-.559 4.45-1.284 6.182c-.721 1.723-1.789 3.09-3.379 4.035-1.598.949-3.766 1.496-6.727 1.496h-34.846a.5.5 0 0 0 0 1h34.846c3.078 0 5.439-.568 7.238-1.636 1.806-1.073 3.002-2.624 3.791-4.509.784-1.874 1.167-4.082 1.358-6.489.19-2.405.19-5.044.19-7.787V64.602a8.5 8.5 0 0 0-8.5-8.5H168.746a8.5 8.5 0 0 0-8.5 8.5Z" fill="#0C296E"/><path d="M282.562 85.361H179.244a4 4 0 0 0-4 4V141.8a4 4 0 0 0 4 4h103.318a4 4 0 0 0 4-4V89.361a4 4 0 0 0-4-4Z" fill="#BBBFC4" fill-opacity=".45"/><path d="M89.052 74.119v11.683H76.095c-25.846 0-46.8 20.955-46.8 46.801a.5.5 0 0 0 .5.5h78.851a.5.5 0 0 0 0-1H30.298c.268-25.063 20.67-45.3 45.797-45.3h13.457a.5.5 0 0 0 .5-.5V74.118c0-25.294 20.507-45.8 45.801-45.8a.5.5 0 0 0 0-1c-25.846 0-46.8 20.954-46.8 46.8ZM8.521 300.307a.5.5 0 0 1 .5-.5h123.115l.001.5v-.5a.5.5 0 0 1 .5.5v28.661h216.095a.5.5 0 1 1 0 1H132.137a.5.5 0 0 1-.5-.5v-28.661H9.021a.5.5 0 0 1-.5-.5Z" fill="#0C296E"/><mask id="udw592udg87b" style="mask-type:alpha" maskUnits="userSpaceOnUse" x="220" y="274" width="98" height="42"><path opacity=".8" fill-rule="evenodd" clip-rule="evenodd" d="M317.063 299.631a28.24 28.24 0 0 0-4.331-.333c-5.146 0-9.96 1.397-14.11 3.818-4.938-16.489-20.224-28.511-38.318-28.511-22.011 0-39.874 17.783-40.006 39.762v.951h96.765v-15.687Z" fill="#14C0FF"/></mask><g mask="url(#udw592udg87b)"><path d="M312.731 299.298c-5.146 0-9.96 1.397-14.11 3.818-4.938-16.489-20.224-28.511-38.319-28.511-22.092 0-40.006 17.915-40.006 40.007v14.65h120.407v-1.965c.027-15.466-12.506-27.999-27.972-27.999Z" fill="#14C0FF"/></g><path d="M266.505 224.109c-6.971 0-12.618 5.647-12.618 12.618v22.272a.5.5 0 0 0 .5.5h35.758c.198.01.397.014.597.014a.5.5 0 0 0 .5-.5v-.014a.5.5 0 0 0-.5-.5h-.573c-6.153-.298-11.046-5.376-11.046-11.604v-10.168c0-6.971-5.646-12.618-12.618-12.618Z" fill="#0C296E"/><path d="M131.087 244.267v85.2h89.143v-14.636c0-20.017 14.709-36.605 33.906-39.544V240.67c0-9.96 4.122-16.047 12.118-16.047H150.73c-10.845 0-19.643 8.798-19.643 19.644Z" fill="#fff"/><path d="M130.587 244.267c0-11.122 9.022-20.144 20.143-20.144h115.524a.5.5 0 0 1 0 1c-3.855 0-6.728 1.458-8.654 4.084-1.944 2.649-2.964 6.541-2.964 11.463v34.617a.5.5 0 0 1-.425.494c-18.956 2.902-33.481 19.283-33.481 39.05v14.636a.5.5 0 0 1-.5.5h-89.143a.5.5 0 0 1-.5-.5v-85.2Zm130.523-19.144H150.73c-10.569 0-19.143 8.574-19.143 19.144v84.7h88.143v-14.136c0-20.12 14.676-36.818 33.906-39.971v-34.19c0-5.038 1.041-9.17 3.157-12.054 1.143-1.557 2.587-2.735 4.317-3.493Z" fill="#0C296E"/><path d="M235.292 249.965h-86.635a4 4 0 0 0-4 4v21.245a4 4 0 0 0 4 4h86.635a4 4 0 0 0 4-4v-21.245a4 4 0 0 0-4-4Z" fill="#BBBFC4" fill-opacity=".45"/><path d="M219.729 314.831v14.649a.5.5 0 0 0 .5.5h120.407a.5.5 0 0 0 .5-.5v-1.963c.028-15.743-12.729-28.5-28.471-28.5a28.396 28.396 0 0 0-13.816 3.575c-5.187-16.386-20.512-28.268-38.613-28.268-22.368 0-40.507 18.138-40.507 40.507Zm40.507-39.507c17.867 0 32.963 11.871 37.84 28.154a.5.5 0 0 0 .731.289 27.403 27.403 0 0 1 13.858-3.75c15.19 0 27.498 12.31 27.471 27.499v1.464H220.729v-14.149c0-21.816 17.691-39.507 39.507-39.507Z" fill="#0C296E"/><path d="M154.818 308.814c1.619 8.301 7.125 8.328 11.302 7.789 4.178-.54 8.743-3.403 12.423.401l.318.415-29.133 11.233c-1.536.595-3.196-.568-3.168-2.2.027-1.867.055-4.274.069-6.654.014-3.057-1.176-6.889-1.176-6.889l9.365-4.095Z" fill="#fff"/><path d="M178.557 316.989c-3.68-3.804-8.245-.941-12.423-.401-2.503.332-5.478.429-7.816-1.314a37.13 37.13 0 0 0-.511.345c.345 5.091-10.873 3.141-10.873 3.141l-.305.29c.014.249.014.484.014.719-.014 2.38-.042 4.787-.069 6.654-.028 1.647 1.632 2.795 3.168 2.2l29.133-11.233-.318-.401Z" fill="#fff"/><path d="M172.461 314.666c2.219-.322 4.466-.08 6.455 1.977l.033.037.318.401a.499.499 0 0 1-.212.777l-29.133 11.233c-1.863.722-3.881-.67-3.848-2.674a760.5 760.5 0 0 0 .069-6.647v.001h.5l-.5-.003v.002c0-.237 0-.458-.013-.691a.499.499 0 0 1 .154-.389l.304-.29a.497.497 0 0 1 .431-.131l-.085.492-.049.276-.256.015.345.361.125-.119.04.006c.004.162.004.317.004.466v.008c-.014 2.381-.042 4.79-.069 6.658-.022 1.288 1.28 2.194 2.487 1.726l28.477-10.98.143.143.302.381.392-.31-.18-.467-.657.253c-1.648-1.601-3.47-1.807-5.434-1.522-1.004.145-2.028.417-3.082.697l-.073.02c-1.068.283-2.168.572-3.25.712-2.417.32-5.426.452-7.885-1.2v-.005l.282-.189-.278-.416-.244.328-.267.018-.285-.411.009-.006.026-.018.1-.068.384-.259a.5.5 0 0 1 .576.015c2.166 1.615 4.958 1.55 7.452 1.22l.001-.001c1.007-.13 2.044-.401 3.122-.687a3.48 3.48 0 0 0 .097-.026c1.036-.275 2.109-.56 3.172-.714Zm-25.442 3.603-.085.492.345.362-.141.134.001.043a30.568 30.568 0 0 0 1.493.184c1.06.105 2.479.192 3.895.115 1.403-.075 2.861-.313 3.961-.898.557-.296 1.042-.691 1.374-1.217.289-.458.446-.992.452-1.599l-.003-.003-.092.063-.096.065-.024.017-.007.005-.285-.411m0 0-.285-.411a.499.499 0 0 0-.214.445c.036.54-.08.96-.292 1.296-.216.341-.55.629-.997.867-.906.481-2.188.71-3.546.783-1.346.072-2.71-.01-3.743-.112a29.282 29.282 0 0 1-1.682-.216l-.022-.003-.006-.001h-.001" fill="#0C296E"/><path d="M155.051 308.372c.134.07.229.198.258.347.787 4.036 2.491 5.958 4.411 6.851 1.962.912 4.257.805 6.336.537 1.007-.13 2.044-.401 3.122-.687l.097-.026c1.036-.275 2.109-.56 3.172-.714 2.219-.322 4.466-.081 6.455 1.976a.546.546 0 0 1 .038.044l.318.415a.497.497 0 0 1-.217.77l-29.133 11.233c-1.865.722-3.881-.686-3.848-2.674.028-1.866.055-4.271.069-6.648.007-1.474-.278-3.153-.571-4.481a35.114 35.114 0 0 0-.534-2.094l-.036-.123-.01-.031-.002-.008v-.001a.5.5 0 0 1 .277-.607l9.365-4.095a.502.502 0 0 1 .433.016Zm-8.995 4.819.065.233c.113.413.264.996.413 1.676.299 1.352.602 3.117.595 4.7a804.72 804.72 0 0 1-.069 6.66v.001c-.022 1.276 1.282 2.191 2.487 1.724l28.487-10.983c-1.651-1.611-3.476-1.818-5.444-1.533-1.004.146-2.028.418-3.082.698l-.073.019c-1.068.284-2.168.573-3.251.713-2.098.271-4.645.419-6.885-.622-2.171-1.01-3.958-3.087-4.843-6.959l-8.4 3.673Z" fill="#0C296E"/><path d="M161.339 316.945a.5.5 0 0 1 .317.632l-.761 2.297a.5.5 0 0 1-.949-.315l.761-2.296a.501.501 0 0 1 .632-.318Zm2.739-.084a.5.5 0 0 1 .317.632l-.761 2.297a.5.5 0 0 1-.949-.315l.761-2.296a.501.501 0 0 1 .632-.318Z" fill="#0C296E"/><path d="M133.874 247.252a.5.5 0 1 1 .97-.242c2.4 9.641 7.897 25.64 12.802 39.249a1433.736 1433.736 0 0 0 8.454 22.824l.554 1.453.194.506a.504.504 0 0 1-.011.387.505.505 0 0 1-.285.263l-22.673 8.217a.5.5 0 0 1-.653-.341l-12.035-44.737a.5.5 0 0 1 .691-.584l12.144-26.392a89.36 89.36 0 0 1-.152-.603Z" fill="#3370FF"/><path d="M111.713 283.389c-1.48 8.327 3.652 10.333 7.747 11.329 4.094.996 9.379-.027 11.454 4.842l.152.498H99.844c-1.646 0-2.78-1.674-2.158-3.196.691-1.729 1.59-3.97 2.448-6.183 1.121-2.85 2.186-5.658 2.753-7.276h8.826v-.014Z" fill="#fff"/><path d="M102.415 283.237c.071-.2.26-.335.472-.335h8.826v.487h.5v.013a.508.508 0 0 1-.019.136c-.699 4.012.198 6.402 1.661 7.917 1.504 1.557 3.685 2.282 5.723 2.777.987.24 2.052.36 3.161.481l.093.01c1.068.116 2.174.237 3.223.476 2.187.499 4.197 1.533 5.319 4.165a.424.424 0 0 1 .018.05l.152.498a.5.5 0 0 1-.478.646H99.844c-1.997 0-3.379-2.029-2.622-3.883l.173-.431a571.357 571.357 0 0 0 2.273-5.746l.001-.002c1.12-2.848 2.182-5.65 2.746-7.259Zm8.708.665h-7.882c-.592 1.662-1.593 4.295-2.641 6.959a570.66 570.66 0 0 1-2.277 5.754l-.173.433-.001.004c-.487 1.189.4 2.506 1.695 2.506h30.522c-.966-2.092-2.595-2.942-4.533-3.384-.992-.226-2.047-.341-3.134-.459l-.068-.008c-1.099-.119-2.229-.245-3.289-.503-2.058-.5-4.489-1.277-6.206-3.054-1.665-1.724-2.586-4.31-2.013-8.248Z" fill="#0C296E"/><path d="M130.914 299.559c-2.075-4.87-7.359-3.846-11.454-4.842-2.559-.622-5.533-1.646-7.027-4.358l-.388.471c-1.508 4.869-11.274-.982-11.274-.982l-.36.166c-.083.221-.18.442-.263.677-.871 2.214-1.756 4.441-2.448 6.184-.623 1.522.512 3.196 2.158 3.196h31.222l-.166-.512Z" fill="#fff"/><path d="M101.028 289.419a.499.499 0 0 0-.467-.025l-.359.166a.498.498 0 0 0-.259.278c-.025.067-.059.151-.095.243-.056.141-.12.299-.168.435-.74 1.879-1.489 3.766-2.121 5.359l-.323.813c-.756 1.854.625 3.883 2.622 3.883h31.222a.503.503 0 0 0 .476-.655l-.166-.511a.409.409 0 0 0-.016-.042c-1.122-2.632-3.132-3.666-5.318-4.165-1.05-.239-2.156-.36-3.224-.476l-.093-.01c-1.108-.121-2.174-.241-3.161-.481-2.555-.621-5.327-1.607-6.707-4.113a.5.5 0 0 0-.824-.076l-.388.47a.5.5 0 0 0-.091.17c-.16.517-.42.865-.739 1.103-.323.241-.739.389-1.241.449-1.019.123-2.297-.125-3.591-.545-1.282-.416-2.525-.983-3.452-1.45a30.37 30.37 0 0 1-1.413-.759l-.079-.046-.019-.012-.005-.003h-.001Zm-.244 1.014.166.093c.275.154.669.367 1.146.607.951.478 2.244 1.069 3.592 1.507 1.336.434 2.782.736 4.019.587.626-.076 1.221-.269 1.719-.64.43-.32.767-.755.991-1.311 1.698 2.411 4.571 3.354 6.925 3.927 1.06.258 2.191.383 3.289.503l.068.007c1.087.119 2.142.234 3.134.46 1.942.443 3.574 1.295 4.54 3.398H99.858c-1.295 0-2.182-1.318-1.695-2.507l.002-.005.323-.814c.633-1.596 1.385-3.488 2.126-5.37l.006-.017c.048-.137.092-.245.139-.362l.025-.063Z" fill="#0C296E"/><path d="M32.834 292.642s2.255 5.506 3.486 6.156c1.854.982-.594 1.121-.594 1.121-4.233-.153-4.8-1.91-6.336-3.902-2.919 2.2-9.863 3.224-13.502 3.639l-1.065.027c-.595.056-9.116.457-9.85.125-.815-.36-.65-1.55.222-1.688 4.911-.788 17.292-5.395 21.885-11.675.65-.886 30.696-56.621 32.758-67.176 1.078-5.547 11.703 10.306 11.703 10.306l-38.112 58.239c-1.632 2.961-1.093 1.148-.595 4.828Z" fill="#fff"/><path d="M4.848 300.215c.843.163 1.703.22 2.56.17 2.99 0 7.51-.28 7.51-.28h1.11c4.5-.51 10.33-1.52 13.33-3.45l.119.165a7.2 7.2 0 0 0 .201.275c1.16 1.68 2.23 3.14 6.16 3.28.74-.04 1.6-.19 1.74-.84.137-.637-.618-1.053-.922-1.22l-.018-.01c-.74-.38-2.32-3.62-3.24-5.84a16.483 16.483 0 0 0-.39-2.07c-.13-.53-.13-.53.29-1.26.17-.27.38-.63.63-1.09l38.11-58.26a.503.503 0 0 0 0-.55c-1.37-2.06-8.37-12.28-11.37-11.68-.44.09-1.02.43-1.24 1.55-2.1 10.79-32.4 66.6-32.67 67-4.36 5.96-16.36 10.64-21.56 11.48a1.383 1.383 0 0 0-1.166 1.183 1.38 1.38 0 0 0 .816 1.447Zm56.01-81.71h.14v.04c1.8 0 6.86 6.3 10.09 10.98l-38 58c-.26.48-.47.84-.63 1.11-.57 1-.62 1.11-.4 2 .165.658.292 1.326.38 2v.12c.39.95 2.4 5.71 3.72 6.41l.18.1a3.15 3.15 0 0 1-.52.08c-3.39-.12-4.21-1.27-5.34-2.86-.084-.113-.167-.23-.252-.348-.119-.165-.24-.334-.368-.502a.508.508 0 0 0-.7-.09c-2.76 2.08-9.49 3.11-13.21 3.54h-1.1c-.22.021-.832.056-1.648.093a20.655 20.655 0 0 0 3.6-1.428 17.47 17.47 0 0 1 1.79-.72c3.03.76 4.97-.55 7.64-2.36l1-.66a.502.502 0 1 0-.55-.84l-1 .67c-2.66 1.82-4.27 2.9-6.95 2.19a.387.387 0 0 0-.26 0c-.702.22-1.387.49-2.05.81-2 .89-5 2.19-8 2.13.265-.135.543-.242.83-.32 1.972-.598 7.037-3.616 7.886-4.122a7.04 7.04 0 0 1 .114-.068.504.504 0 0 0 .175-.177c3.995-1.982 7.888-4.575 10.133-7.638.26-.38 30.68-56.38 32.84-67.38.09-.46.25-.76.46-.76ZM9.715 297.4c-1.776.567-3.302.945-4.367 1.115a.39.39 0 0 0-.33.34.37.37 0 0 0 .23.4c.196.064.867.09 1.772.091a.88.88 0 0 1 .05-.426c.19-.51.8-.91 1.87-1.23.218-.065.48-.165.775-.29Z" fill="#0C296E"/><path d="M77.973 195.976s-11.26-1.453-12.229-11.565c-1.41-12.312 14.594-16.6 20.114-11.593 2.338 2.117 4.856 6.419 4.856 6.419l3.915 2.919a.223.223 0 0 1-.042.387l-1.605.803c1.73 4.509 2.808 7.995-.954 10.223-.678.345-2.214.843-3.306 1.037 0 0-2.421.775-3.417 3.362-1.425 3.444-2.034 5.92-2.034 5.92" fill="#fff"/><path d="M73.403 172.577c-4.372 1.923-7.836 5.896-7.162 11.777l.001.009c.464 4.841 3.379 7.609 6.222 9.185a17.77 17.77 0 0 0 5.46 1.915l.088.013.02.003.005.001a.5.5 0 0 1-.128.991l.06-.465-.06.465h-.004l-.008-.001-.027-.004a11.984 11.984 0 0 1-.477-.082 18.865 18.865 0 0 1-5.414-1.961c-3.028-1.679-6.226-4.692-6.732-9.96-.735-6.428 3.097-10.754 7.754-12.801 2.326-1.023 4.877-1.489 7.212-1.376 2.328.114 4.488.808 5.98 2.162m-12.79.129c2.19-.962 4.586-1.398 6.761-1.292l-6.76 1.292Zm6.761-1.292c2.181.106 4.09.754 5.358 1.904l-5.358-1.904Zm5.358 1.904c1.124 1.017 2.31 2.581 3.229 3.916l-3.229-3.916Zm3.229 3.916a45.6 45.6 0 0 1 1.109 1.692l-1.11-1.692Zm1.109 1.692c.134.215.24.389.313.509l-.313-.509Zm.313.509.082.137-.082-.137Zm.082.137.02.036-.02-.036Zm.02.036.006.008-.005-.008Zm.006.008v.002-.002Zm0 .002Zm0 0c.035.058.08.109.134.149l3.558 2.653-1.214.607a.5.5 0 0 0-.243.627c.87 2.271 1.534 4.185 1.549 5.793.007.788-.144 1.483-.493 2.102-.348.616-.912 1.191-1.785 1.71-.632.319-2.105.798-3.153.984a.488.488 0 0 0-.065.016l.153.476-.153-.476-.002.001h-.003l-.008.003-.027.01c-.023.007-.054.019-.093.034-.078.03-.187.075-.32.136a6.656 6.656 0 0 0-1.018.595 6.29 6.29 0 0 0-2.258 2.873 52.895 52.895 0 0 0-1.563 4.288 37.627 37.627 0 0 0-.46 1.579l-.012.044-.011.044-.006.023-.002.006v.002l.485.12-.485-.12a.501.501 0 0 0 .97.24l.002-.006.005-.02.021-.081c.019-.072.047-.179.086-.32.078-.281.197-.692.36-1.211.327-1.038.83-2.505 1.537-4.211l.004-.012a5.284 5.284 0 0 1 1.905-2.422 5.556 5.556 0 0 1 1.12-.614l.052-.02c1.127-.205 2.684-.708 3.407-1.077l.028-.015c1-.592 1.708-1.286 2.16-2.087.453-.802.63-1.678.621-2.604-.015-1.704-.666-3.64-1.453-5.718l1.188-.594c.53-.237.552-.936.124-1.244l-3.83-2.856-.064-.106a47.875 47.875 0 0 0-1.455-2.252c-.925-1.346-2.166-2.991-3.38-4.09m8.148 10.118a.029.029 0 0 0-.007-.005l.007.005Z" fill="#0C296E"/><path d="m78.712 185.294-.003-.001-.015-.006-.066-.022a5.66 5.66 0 0 0-1.067-.239 2.917 2.917 0 0 0-.898.015c-.266.054-.46.157-.586.309-.232.286-.312.547-.314.77a1.13 1.13 0 0 0 .245.682c.34.459 1.014.836 1.806.915h.004c.588.062 1.244-.134 1.79-.379a6.569 6.569 0 0 0 .83-.45l.026-.017.018-.013.01-.007.002-.001a.5.5 0 0 1 .786.382l.913 16.642a.5.5 0 0 1-.5.527H61.028a.5.5 0 0 1-.46-.696v-.001l.003-.006.013-.033.055-.142c.048-.129.118-.328.205-.599.172-.541.407-1.369.653-2.502.392-1.811.811-4.402 1.04-7.848-.19.962-.417 1.941-.695 2.977-.833 3.109-2.504 6.221-5.34 7.96a.5.5 0 1 1-.522-.852c2.532-1.553 4.098-4.389 4.897-7.367.806-3.008 1.176-5.524 1.479-8.634v-.001c.374-3.74 1.208-7.372 2.345-10.114.159-.389.33-.769.515-1.137.193-.391.394-.756.6-1.093a.46.46 0 0 1 .055-.073 11.719 11.719 0 0 1 3.052-3.293l.002-.002c4.73-3.407 9.095-4.056 12.667-3.346 3.552.707 6.276 2.751 7.76 4.663 1.289 1.662 2.078 3.767 2.399 4.624v.001l.093.244a.5.5 0 0 1-.286.649l-5.768 2.227a.5.5 0 0 1-.623-.234l-1.09-2.081.474 2.359a.5.5 0 0 1-.31.565l-5.563 2.148.68 1.892a.5.5 0 0 1-.645.638Z" fill="#0C296E"/><path d="m80.242 188.173-1.01.29a4.262 4.262 0 0 1-2.13.111c-.872-.166-1.73-.761-2.172-1.536-.277-.484-.955-2.462.94-3.195.761-.291 2.186.443 2.601.581" fill="#fff"/><path d="M76.05 184.31c.082-.032.222-.047.43-.022.202.025.43.083.665.16.234.076.462.166.662.248l.122.051c.145.06.286.119.384.151a.5.5 0 1 0 .316-.948 6.776 6.776 0 0 1-.285-.114l-.157-.065a10.625 10.625 0 0 0-.731-.274 4.681 4.681 0 0 0-.856-.202c-.286-.034-.61-.033-.908.081l-.002.001c-.558.215-.958.537-1.22.928a2.35 2.35 0 0 0-.383 1.204 3.536 3.536 0 0 0 .409 1.777c.517.906 1.502 1.587 2.512 1.779a4.76 4.76 0 0 0 2.37-.124l1.002-.288a.5.5 0 1 0-.276-.961l-1.01.291a3.77 3.77 0 0 1-1.898.1c-.734-.14-1.464-.649-1.832-1.293a2.554 2.554 0 0 1-.279-1.231c.013-.254.078-.492.215-.697.135-.201.36-.402.75-.552Z" fill="#0C296E"/><path d="M82.067 180.452a.5.5 0 0 0-.554-.439l-3.1.36a.498.498 0 0 0-.438.554l2.684 23.088a.5.5 0 0 0 .554.439l3.099-.359a.5.5 0 0 0 .439-.554l-2.684-23.089Z" fill="#0C296E"/><path d="M70.542 258.168h.019a.5.5 0 1 1-.005 1c-4.346-.019-8.93-1.187-13.457-2.34-.595-.152-1.19-.303-1.782-.452-5.14-1.288-10.166-2.364-14.842-1.668a.5.5 0 0 1-.442-.832c8.727-9.537 11.957-19.478 14.834-28.336.982-3.022 1.923-5.919 3.027-8.63 3.995-9.811 11.086-14.566 13.952-15.569 4.762-1.666 8.14-1.263 10.451.651 2.274 1.882 3.373 5.115 3.87 8.768.499 3.671.404 7.882.19 11.842a331.62 331.62 0 0 1-.242 3.896c-.163 2.47-.311 4.714-.311 6.536a.5.5 0 0 1-.245.43c-2.44 1.448-6.698 3.246-10.316 4.673-1.816.716-3.48 1.343-4.691 1.79l-.6.221.59 18.02Z" fill="#14C0FF"/><path d="M50.735 254.643c-1.452 4.288-1.494 4.758-2.988 9.517l24.278-5.935-21.29-3.582Z" fill="#fff"/><path d="M50.261 254.482a.5.5 0 0 1 .557-.332l21.29 3.582a.5.5 0 0 1 .036.979l-24.278 5.935a.499.499 0 0 1-.596-.636c.567-1.805.925-2.994 1.231-4.013.498-1.654.86-2.858 1.76-5.515Zm.811.724a135.95 135.95 0 0 0-1.608 5.062c-.256.851-.55 1.827-.975 3.196l21.06-5.148-18.477-3.11Z" fill="#0C296E"/><path d="M129.86 285.379a.5.5 0 0 1-.495.432h-27.708a.5.5 0 0 1-.459-.7 780.198 780.198 0 0 1 2.558-5.771c-12.662 16.706-26.824 20.631-36.025 20.526-6.543-.078-13.137-2.801-17.355-8.665-4.22-5.867-6-14.791-3.101-27.155a.498.498 0 0 1 .374-.373c3.802-.875 7.45-1.773 11.099-2.671l.293-.072c3.745-.921 7.494-1.842 11.407-2.736a.499.499 0 0 1 .385.07l8 5.236c4.03-4.755 8.926-10.953 13.955-17.318l.001-.002c1.226-1.552 2.46-3.113 3.691-4.667 6.393-8.066 12.716-15.907 17.444-20.886 3.455-3.633 8.836-5.331 13.383-4.402 2.284.466 4.37 1.598 5.882 3.493 1.513 1.897 2.42 4.518 2.417 7.908-.007 8.189-1.446 22.639-2.879 35.016a1181.86 1181.86 0 0 1-2.62 20.926l-.182 1.342-.065.469Z" fill="#3370FF"/><path d="M49.324 259.013c-1.784.125-11.578-3.914-8.922-4.592 2.587-.664 10.333.221 10.333.221l-1.41 4.371Z" fill="#0C296E"/><path d="M40.565 254.895c.046.047.105.101.178.161.519.428 1.499.97 2.664 1.508a35.2 35.2 0 0 0 3.554 1.405c.554.183 1.057.328 1.471.423.214.05.392.083.535.102l1.104-3.42-.634-.062a88.724 88.724 0 0 0-2.929-.23 49.726 49.726 0 0 0-3.396-.107c-1.061.01-1.962.077-2.547.22Zm10.17-.253.057-.497a.5.5 0 0 1 .42.651l-1.412 4.371a.5.5 0 0 1-.44.345c-.304.021-.715-.044-1.152-.145-.454-.104-.988-.26-1.56-.448a36.296 36.296 0 0 1-3.66-1.447c-1.173-.541-2.255-1.128-2.882-1.644a2.752 2.752 0 0 1-.416-.415 1.085 1.085 0 0 1-.238-.547.764.764 0 0 1 .257-.651c.16-.145.368-.227.57-.279.709-.182 1.73-.25 2.824-.261 1.106-.01 2.33.039 3.466.108a91.926 91.926 0 0 1 4.134.352l.066.008.023.002-.057.497Z" fill="#0C296E"/><path d="M69.84 239.993s.096 8.798.843 16.213c1.148 7.028 6.183 10.251 12.492 6.032 4.869-3.445 9.282-10.03 12.63-14.968 5.644-8.314 6.612-11.026 12.09-18.994 0 0 2.407-1.853 6.031-3.209 3.625-1.356 5.561-5.188 5.561-5.188s6.295-3.32 12.132-1.065c.319.125-.415-1.438-2.766-1.95-4.289-.913-6.654-.415-10.804.276-5.921.996-12.008 5.921-12.008 5.921-11.51 12.851-13.515 15.259-24.374 26.353l1.466-1.494.318-13.82" fill="#fff"/><path d="M69.84 239.993s.096 8.798.843 16.213c1.148 7.028 6.183 10.251 12.492 6.032 4.869-3.445 9.282-10.03 12.63-14.968 5.644-8.314 6.612-11.026 12.09-18.994 0 0 2.407-1.853 6.031-3.209 3.625-1.356 5.561-5.188 5.561-5.188s6.295-3.32 12.132-1.065c.319.125-.415-1.438-2.766-1.95-4.289-.913-6.654-.415-10.804.276-5.921.996-12.008 5.921-12.008 5.921-11.51 12.851-13.515 15.259-24.374 26.353l1.466-1.494.318-13.82" fill="#fff"/><path d="M118.678 216.528c3.728-.627 6.144-1.034 10.279-.153h.002c1.271.277 2.128.843 2.633 1.35.247.248.424.497.517.706a1 1 0 0 1 .062.18.65.65 0 0 1 .009.266.537.537 0 0 1-.741.403c-2.788-1.076-5.707-.828-7.959-.292a19.258 19.258 0 0 0-2.73.871c-.331.134-.592.252-.768.334l-.129.062-.019.036a11.54 11.54 0 0 1-.282.474c-.248.395-.616.935-1.101 1.519-.967 1.163-2.424 2.531-4.349 3.251a26.377 26.377 0 0 0-4.293 2.074 21.863 21.863 0 0 0-1.508.988l-.04.03c-2.703 3.934-4.299 6.579-5.921 9.274l-.078.13c-1.608 2.673-3.259 5.417-6.044 9.519l-.219.324c-3.305 4.877-7.684 11.34-12.536 14.772l-.01.007c-3.253 2.176-6.289 2.498-8.693 1.228-2.38-1.256-3.982-3.993-4.57-7.594a.47.47 0 0 1-.004-.031c-.376-3.722-.587-7.787-.705-10.918a248.95 248.95 0 0 1-.14-5.237l-.002-.102.5-.006.5-.005.001.099.005.291a250.072 250.072 0 0 0 .136 4.922c.117 3.118.327 7.152.698 10.841.562 3.418 2.05 5.801 4.048 6.856 1.977 1.044 4.61.869 7.664-1.172 4.699-3.326 8.992-9.661 12.334-14.591l.166-.245c2.77-4.08 4.409-6.805 6.015-9.475l.078-.129c1.634-2.715 3.251-5.395 5.999-9.392a.522.522 0 0 1 .107-.113l.305.396-.305-.396.003-.002.006-.005.024-.018.087-.065c.077-.055.189-.136.334-.236.29-.2.713-.48 1.25-.803a27.48 27.48 0 0 1 4.457-2.152c1.699-.636 3.023-1.862 3.931-2.954a13.109 13.109 0 0 0 1.279-1.842l.062-.115.015-.028.003-.006a.501.501 0 0 1 .213-.217l.233.442-.233-.442.003-.001.004-.003.016-.008.059-.03.22-.106c.191-.09.468-.215.818-.357.7-.283 1.693-.636 2.875-.917 1.906-.454 4.333-.727 6.807-.189a4.967 4.967 0 0 0-1.309-.474c-3.945-.839-6.196-.461-9.923.165l-.693.116c-2.868.483-5.807 1.926-8.049 3.27a38.765 38.765 0 0 0-3.463 2.341l-.198.154-.035.028c-1.528 1.706-2.889 3.229-4.125 4.612-7.605 8.508-10.498 11.745-18.726 20.18a.48.48 0 0 1-.045.052l-1.466 1.494a.5.5 0 0 1-.715-.7l1.329-1.359.313-13.616a.5.5 0 0 1 1 .023l-.289 12.542c7.576-7.786 10.517-11.076 17.852-19.282 1.244-1.391 2.614-2.924 4.155-4.645a.606.606 0 0 1 .058-.055l.314.389-.314-.389.005-.004.015-.012.054-.043.209-.162c.182-.14.447-.339.783-.581a40.332 40.332 0 0 1 2.775-1.825c2.281-1.367 5.346-2.884 8.398-3.398l.712-.119Zm-48.839 23.465.5-.005a.5.5 0 0 0-1 .011l.5-.006Zm46.35 9.179a.5.5 0 0 1 .275.651l-12.021 29.576a.5.5 0 1 1-.926-.376l12.021-29.576a.5.5 0 0 1 .651-.275Zm18.199-3.432a.5.5 0 0 1 .433.559l-4.96 39.076a.5.5 0 0 1-.496.437h-6.599a.5.5 0 0 1 0-1h6.158l4.905-38.639a.5.5 0 0 1 .559-.433Z" fill="#0C296E"/><path d="M68.858 227.127a.5.5 0 0 1 .455.541l-1.05 12.152 16.945-7.095a.5.5 0 1 1 .386.922l-17.706 7.415a.5.5 0 0 1-.692-.504l1.12-12.976a.5.5 0 0 1 .542-.455Zm47.312 66.308a.5.5 0 0 1 .063.704l-1.55 1.854a.5.5 0 1 1-.767-.642l1.549-1.853a.5.5 0 0 1 .705-.063Zm2.573.914a.5.5 0 0 1 .063.704l-1.55 1.854a.5.5 0 1 1-.767-.642l1.55-1.853a.5.5 0 0 1 .704-.063ZM175.2 159.812a.5.5 0 0 1 .5-.5h79.275a.5.5 0 0 1 0 1H175.7a.5.5 0 0 1-.5-.5Zm0 11.592a.5.5 0 0 1 .5-.5h55.672a.5.5 0 0 1 0 1H175.7a.5.5 0 0 1-.5-.5Zm85.337-98.371a2 2 0 1 0 0-4 2 2 0 0 0 0 4Zm3-2a3 3 0 1 1-6 0 3 3 0 0 1 6 0Zm6.999 2a2 2 0 1 0 0-4 2 2 0 0 0 0 4Zm3-2a3 3 0 1 1-6 0 3 3 0 0 1 6 0Zm9.999 0a3 3 0 1 1-6 0 3 3 0 0 1 6 0Z" fill="#0C296E"/><path d="M178.876 103.389h-53.925v30.814h53.925v-30.814Z" fill="#00D6B9"/><g clip-path="url(#ud82o49lhnpc)"><path d="M169.493 134.625c-.124-.737-.124-1.502-.234-2.74-.29-3.38-2.496-5.314-4.275-8.012-1.669-2.504-2.358-5.758-2.717-8.721a11.45 11.45 0 0 0-.551-2.448c-.635-1.808-1.724-3.505-3.545-4.771-3.682-2.462-8.398-1.961-11.68.195-2.799 1.836-4.013 4.228-4.551 7.469-.565 3.408-3.406 5.383-4.357 8.596-.607 2.059-.083 4.312-.662 6.384-.428 1.53-1.393 2.796-2.386 4.048h34.958Z" fill="#0C296E"/><path d="M146.217 107.71c3.417-2.245 8.353-2.786 12.232-.192l.008.005c1.922 1.336 3.068 3.128 3.73 5.016l.001.001c.288.83.475 1.686.575 2.553.357 2.946 1.036 6.101 2.637 8.503l.001.002c.435.66.897 1.274 1.36 1.89l.006.008a33.75 33.75 0 0 1 1.332 1.854c.837 1.285 1.503 2.692 1.658 4.491.043.488.07.906.093 1.271l.02.297c.029.437.059.791.116 1.133a.498.498 0 0 1-.493.583h-34.958a.502.502 0 0 1-.451-.282.503.503 0 0 1 .059-.529c.999-1.259 1.899-2.451 2.296-3.871.268-.961.285-1.973.302-3.063v-.008c.017-1.069.036-2.215.362-3.32v-.001c.458-1.547 1.331-2.82 2.151-4.016l.239-.348c.898-1.32 1.691-2.586 1.954-4.172.554-3.342 1.826-5.874 4.77-7.805Zm23.54 24.131v.001l-.498.043.498-.044Zm-11.867-23.495c-3.485-2.327-7.979-1.866-11.125.2-2.655 1.741-3.811 3.993-4.332 7.133l-.493-.082.493.082c-.302 1.822-1.213 3.248-2.114 4.571l-.23.336c-.832 1.216-1.616 2.361-2.027 3.748m19.828-15.988c1.715 1.195 2.747 2.796 3.353 4.523.263.755.435 1.539.527 2.341l.001.002c.36 2.979 1.06 6.332 2.796 8.937.453.688.933 1.326 1.392 1.936l.003.004c.463.616.904 1.202 1.299 1.807.783 1.202 1.364 2.451 1.499 4.032l.001.001c.042.475.068.876.091 1.24l.02.307c.015.226.031.44.052.649h-33.366c.769-1.018 1.483-2.122 1.844-3.413.304-1.086.321-2.21.338-3.257l.001-.067c.017-1.09.04-2.1.321-3.053" fill="#0C296E"/><path d="M158.171 134.625c-.234-1.099-.4-2.643-.4-4.868l-10.674-7.038c.125 5.633.442 9.5.138 11.906" fill="#fff"/><path d="M146.856 122.281a.5.5 0 0 1 .517.02l10.673 7.038a.5.5 0 0 1 .225.418c0 2.203.164 3.709.389 4.764a.5.5 0 1 1-.978.208c-.234-1.097-.397-2.597-.41-4.702l-9.652-6.364c.037 1.376.083 2.636.125 3.792.031.86.06 1.662.081 2.413.057 1.969.063 3.573-.095 4.82a.5.5 0 0 1-.992-.126c.146-1.159.145-2.692.088-4.666-.021-.734-.05-1.531-.081-2.388a313.38 313.38 0 0 1-.148-4.778.498.498 0 0 1 .258-.449Zm1.483-14.681c1.6 0 2.896-1.308 2.896-2.921 0-1.614-1.296-2.921-2.896-2.921-1.6 0-2.896 1.307-2.896 2.921 0 1.613 1.296 2.921 2.896 2.921Z" fill="#0C296E"/><path d="M144.943 104.679c0-1.886 1.516-3.421 3.396-3.421s3.396 1.535 3.396 3.421c0 1.885-1.516 3.421-3.396 3.421s-3.396-1.536-3.396-3.421Zm3.396-2.421a2.408 2.408 0 0 0-2.396 2.421c0 1.341 1.077 2.421 2.396 2.421 1.32 0 2.396-1.08 2.396-2.421a2.408 2.408 0 0 0-2.396-2.421Z" fill="#0C296E"/><path d="M152.931 108.488s-.014 0 0 0c-.014 0-.014 0 0 0-4.854 0-8.771 3.811-8.771 8.513 0 4.701 1.131 5.716 3.407 5.716l5.364 2.796h.014c8.757 0 8.715-3.408 8.715-8.095-.013-4.715-3.902-8.93-8.729-8.93Z" fill="#fff"/><path d="M152.893 125.788a.491.491 0 0 1-.24-.06l-5.25-2.74c-2.75-.05-3.78-1.75-3.78-6.22a9.162 9.162 0 0 1 9.26-9 9.482 9.482 0 0 1 9.23 9.43c0 2.48 0 4.57-1.19 6.13-1.19 1.56-3.84 2.46-8.03 2.46Zm0-17a8.162 8.162 0 0 0-8.27 8c0 4.85 1.2 5.22 2.91 5.22.08.001.159.022.23.06l5.25 2.74c3.79 0 6-.68 7.12-2.08s1-3.22 1-5.45a8.468 8.468 0 0 0-8.25-8.52l.01.03Z" fill="#0C296E"/><path d="M161.578 116.236c.4 2.852.524 6.19-.111 8.777-.744 3.046-2.882 5.063-6.095 5.397-1.889.195-3.848-.529-5.254-1.781-1.421-1.265-2.8-2.962-3.006-5.897" fill="#fff"/><path d="M161.578 116.236c.4 2.852.524 6.19-.111 8.777-.744 3.046-2.882 5.063-6.095 5.397-1.889.195-3.848-.529-5.254-1.781-1.421-1.265-2.8-2.962-3.006-5.897" stroke="#0C296E" stroke-linecap="round" stroke-linejoin="round"/><path d="M154.713 130.709a7.666 7.666 0 0 1-5-1.93 8.757 8.757 0 0 1-3.17-6.24.49.49 0 0 1 .122-.364.486.486 0 0 1 .343-.171.49.49 0 0 1 .364.121.502.502 0 0 1 .171.344 7.69 7.69 0 0 0 2.84 5.56 6.476 6.476 0 0 0 4.87 1.65 6.193 6.193 0 0 0 5.66-5c.526-2.837.56-5.743.1-8.59a.502.502 0 0 1 .804-.473c.107.08.177.2.196.333a26.085 26.085 0 0 1-.12 9 7.22 7.22 0 0 1-6.53 5.78l-.65-.02Z" fill="#0C296E"/><path d="M158.475 118.25a.5.5 0 0 1 .587.394l.797 4.058a.5.5 0 1 1-.981.192l-.797-4.057a.5.5 0 0 1 .394-.587Zm-10.191 1.254c.11-2.225 12.369 0 12.369-8.317 0 0-3.392-6.093-11.914-2.407-4.055 1.753-4.91 7.567-4.482 10.724.179 1.308.979 1.391 2.454 1.35.497 0 .938-1.35 1.573-1.35Z" fill="#0C296E"/><path d="m161.09 110.943-.437.244.437-.244a.498.498 0 0 1 .063.244c0 2.222-.827 3.781-2.09 4.874-1.24 1.072-2.867 1.667-4.433 2.054-.998.247-2.031.421-2.935.573-.492.083-.945.16-1.334.238-.578.116-1.012.235-1.295.373a.791.791 0 0 0-.251.169c-.03.033-.031.049-.032.061a.5.5 0 0 1-.493.475.362.362 0 0 0-.112.08c-.099.09-.203.222-.331.394l-.044.059a5.072 5.072 0 0 1-.364.452c-.132.137-.377.361-.719.364-.711.021-1.397.021-1.923-.21a1.59 1.59 0 0 1-.709-.599c-.175-.272-.276-.599-.327-.972v-.001c-.223-1.648-.111-3.966.58-6.109.691-2.14 1.989-4.185 4.199-5.141m11.612 3.004a6.417 6.417 0 0 0-.537-.703 7.474 7.474 0 0 0-1.966-1.584c-1.768-.981-4.583-1.584-8.712.201-1.844.797-3.001 2.536-3.644 4.53-.643 1.992-.745 4.158-.541 5.668.039.281.105.454.177.565a.579.579 0 0 0 .27.225c.281.124.719.147 1.455.128a.645.645 0 0 0 .062-.058c.083-.087.169-.203.283-.355l.046-.062c.124-.166.28-.371.458-.534.097-.089.222-.185.373-.252.149-.331.455-.55.752-.694.408-.199.95-.337 1.536-.455.451-.09.933-.171 1.439-.256.872-.146 1.814-.304 2.787-.544 1.512-.374 2.957-.922 4.019-1.841 1.015-.878 1.71-2.119 1.743-3.979Zm.938-.382v-.001.001Zm0-.001-.002-.002.002.002Zm-.002-.002-.003-.006.003.006Zm-.003-.006-.01-.017.01.017Zm-.01-.017a.934.934 0 0 0-.036-.06l.036.06Zm-.036-.06a5.015 5.015 0 0 0-.136-.208l.136.208Zm-.136-.208a7.386 7.386 0 0 0-.537-.687l.537.687Zm-.537-.687a8.449 8.449 0 0 0-2.231-1.798l2.231 1.798Zm-2.231-1.798c-2.059-1.143-5.201-1.743-9.595.157l9.595-.157Z" fill="#0C296E"/><path d="M148.021 123.196c-.62-.042-1.585-.236-2.109-.584-.649-.417-1.159-1.168-1.269-1.947-.069-.487 0-2.323 1.751-2.323.704 0 1.655.918 1.945 1.154" fill="#fff"/><path d="M145.294 119.521a2.268 2.268 0 0 0-.156 1.074c.088.625.51 1.253 1.044 1.597l.006.003c.193.128.502.247.865.339.355.09.722.144 1.002.163a.5.5 0 0 1-.067.998 6.887 6.887 0 0 1-1.181-.192c-.404-.102-.838-.254-1.169-.473-.761-.49-1.358-1.364-1.49-2.295a3.248 3.248 0 0 1 .23-1.615c.141-.321.362-.647.703-.891.346-.247.783-.387 1.313-.387.278 0 .545.088.771.194.231.107.452.248.647.388.288.206.566.446.728.587l.115.098a.501.501 0 0 1-.633.775l-.182-.155c-.162-.141-.364-.317-.609-.492a3.235 3.235 0 0 0-.488-.295.894.894 0 0 0-.349-.1c-.346 0-.574.089-.731.201a1.13 1.13 0 0 0-.369.478Z" fill="#0C296E"/></g><path d="M124.951 134.201h1.284v25.679h-1.284v-25.679Z" fill="#00D6B9"/><path d="M124.451 134.201a.5.5 0 0 1 .5-.5h1.284a.5.5 0 0 1 .5.5v25.679a.5.5 0 0 1-.5.5h-1.284a.5.5 0 0 1-.5-.5v-25.679Zm1 .5v24.679h.284v-24.679h-.284Z" fill="#00D6B9"/><path d="M313.299 165.271h-53.925v30.815h53.925v-30.815Z" fill="#FFC60A"/><g clip-path="url(#ud7lyjmzvyxd)"><path d="M278.943 197.722c2.047-.652 1.656-5.445 1.747-10.876h11.682c-.143 9.332-.273 9.691 1.617 10.69" fill="#fff"/><path d="M280.19 186.837a.499.499 0 0 1 .5-.491h11.682a.5.5 0 0 1 .5.507l-.025 1.603c-.059 3.652-.091 5.621.067 6.793.087.65.225.979.398 1.199.179.228.438.396.911.646a.5.5 0 0 1-.467.884c-.473-.25-.907-.501-1.23-.913-.33-.419-.505-.951-.604-1.683-.168-1.251-.134-3.31-.076-6.913l.018-1.123h-10.681c-.009.704-.01 1.401-.012 2.081-.004 1.735-.008 3.356-.123 4.692-.086.995-.237 1.884-.518 2.579-.283.701-.728 1.275-1.436 1.5a.5.5 0 1 1-.303-.952c.315-.101.589-.37.812-.922.224-.556.365-1.327.448-2.291.112-1.294.116-2.843.12-4.55.001-.847.003-1.733.019-2.646Z" fill="#0C296E"/><path d="M287.065 168.436s.013 0 0 0h.013c4.994 0 9.036 4.1 9.036 9.159 0 5.058.261 6.736-8.775 6.736 0 0-.261 2.423-.274 2.423h-.013c-9.035 0-8.996-3.661-8.996-8.72.026-5.059 4.029-9.598 9.009-9.598Z" fill="#fff"/><path d="M294.68 178.751c.417-.625 1.174-.532 1.539-.173.639.613.56 1.611.456 2.224-.248 1.597-1.369 3.767-2.882 3.767" fill="#fff"/><path d="M295.486 178.795a.473.473 0 0 0-.39.234.5.5 0 0 1-.832-.555 1.47 1.47 0 0 1 1.188-.678c.419-.015.832.147 1.115.424.429.412.6.939.655 1.412.055.47.002.925-.053 1.25a6.94 6.94 0 0 1-1.046 2.682c-.533.79-1.322 1.505-2.33 1.505a.5.5 0 0 1 0-1c.505 0 1.033-.37 1.501-1.064a5.951 5.951 0 0 0 .887-2.28l.001-.007c.049-.288.086-.636.047-.97-.039-.331-.148-.609-.356-.809l-.005-.004a.544.544 0 0 0-.382-.14Z" fill="#0C296E"/><path d="M294.367 181.508c0 2.636-.587 3.701-1.095 5.472-.809 2.835-2.647 3.674-4.147 4.46-2.477 1.317-5.789.958-7.718-.839-2.778-2.609-3.338-7.708-3.338-11.968" fill="#fff"/><path d="M278.069 178.133a.5.5 0 0 1 .5.5c0 2.112.139 4.41.615 6.492.476 2.087 1.279 3.903 2.564 5.111 1.761 1.639 4.837 1.988 7.143.762l.002-.001a43.6 43.6 0 0 1 .208-.109c.699-.364 1.395-.726 2.025-1.284.678-.6 1.287-1.436 1.665-2.761v-.001c.118-.409.236-.775.35-1.125.394-1.212.726-2.234.726-4.209a.5.5 0 0 1 1 0c0 2.144-.384 3.324-.788 4.563-.11.338-.221.68-.327 1.047l-.48-.138.481.137c-.431 1.511-1.145 2.511-1.964 3.236-.727.644-1.532 1.062-2.22 1.419l-.21.11c-2.649 1.408-6.195 1.039-8.293-.915l-.002-.002c-1.492-1.401-2.358-3.439-2.855-5.618-.5-2.185-.64-4.567-.64-6.714a.5.5 0 0 1 .5-.5Z" fill="#0C296E"/><path d="m285.827 179.219-.469 4.726.469-4.726Z" fill="#fff"/><path d="M285.876 178.721a.5.5 0 0 1 .448.547l-.469 4.726a.499.499 0 1 1-.995-.099l.469-4.726a.501.501 0 0 1 .547-.448Z" fill="#0C296E"/><path d="M294.245 182.342h.119a.496.496 0 0 0 .461-.25c1.88-3.71 3.14-9.23.52-12.57-1.85-2.85-5.53-3.31-6.43-3.37a8.762 8.762 0 0 0-3.741-1.73 4.508 4.508 0 0 0-3.509.42 2.544 2.544 0 0 0-1.19 1.85c-.031.363.031.728.18 1.06a6.108 6.108 0 0 0-3.231 1.78 5.35 5.35 0 0 0-1.689 4.4.484.484 0 0 0 .034.192.514.514 0 0 0 .265.277.5.5 0 0 0 .191.041h.75c-.054 1.809.21 3.613.78 5.33a.507.507 0 0 0 .797.215.5.5 0 0 0 .163-.275l1.179-5.37 12.291-.05c.15 1.15.619 3.67 1.679 4.67v2.89a.5.5 0 0 0 .381.49Z" fill="#0C296E"/></g><path d="M259.374 196.086h1.284v25.678h-1.284v-25.678Z" fill="#FFC60A"/><path d="M187.367 198.92h-8.481v8.481h8.481v-8.481Zm-15.548 0H127.87v8.481h43.949v-8.481Z" fill="#14C0FF"/><defs><clipPath id="ud82o49lhnpc"><path fill="#fff" transform="translate(133.296 100.82)" d="M0 0h37.234v33.382H0z"/></clipPath><clipPath id="ud7lyjmzvyxd"><path fill="#fff" transform="translate(264.613 163.102)" d="M0 0h42v33H0z"/></clipPath><filter id="ud7ahvehl7ma" x="40.193" y="91.824" width="69.158" height="69.158" filterUnits="userSpaceOnUse" color-interpolation-filters="sRGB"><feFlood flood-opacity="0" result="BackgroundImageFix"/><feBlend in="SourceGraphic" in2="BackgroundImageFix" result="shape"/><feGaussianBlur stdDeviation="7.5" result="effect1_foregroundBlur"/></filter></defs></svg>