<svg width="350" height="350" viewBox="0 0 350 350" fill="none" xmlns="http://www.w3.org/2000/svg"><path d="M118.515 60.969v16.54c-44.6 6.92-85.24 21.49-85.52 43.51v-16.54c.28-22.01 40.92-36.58 85.52-43.51Z" fill="#14C0FF"/><path d="M324.985 293.26c-9.042-39.273-311.826-94.276-311.826-147.064v-28.753c0 59.432 311.571 109.462 312.283 149.078l-.457 26.739Z" fill="#0C296E"/><path d="M43.515 74.342a.5.5 0 0 1 .205.404v21.616a.5.5 0 0 1-.304.46c-6.56 2.793-13.985 6.805-19.776 14.262-5.786 7.45-9.981 18.391-9.981 35.114a.5.5 0 0 1-1 0v-24.879C10.628 96.13 26.285 79.672 43.067 74.27a.5.5 0 0 1 .448.072Zm-29.856 58.599c1.592-9.799 4.96-17.023 9.191-22.47 5.853-7.536 13.318-11.623 19.87-14.44V75.439c-16.158 5.494-31.035 21.474-29.063 45.82a.51.51 0 0 1 .002.041v11.642Zm126.366-2.288c-.751-.793-1.437-1.517-2.307-1.992-.967-.527-2.117-.73-3.778-.546-1.074.099-1.941.491-2.762.947l-.014.008c-1.646.987-3.717 1.242-5.633.745-1.925-.575-4.02-.273-6.073 1.034l-.015.01a6.247 6.247 0 0 0-2.697 4.576v.24c-.073.663-.746 1.14-1.406.96-1.064-.29-2.125-.287-3.263-.003-3.139.762-5.434 3.616-5.342 6.872v.015c0 .337 0 .738.1 1.148.407 2.136-.25 4.365-1.741 6.023-1.153 1.241-2.282 2.81-2.077 4.559l.001.008a7.301 7.301 0 0 0 1.615 3.706l.007.008c.943 1.1 1.159 2.646.476 3.86l-.001.002c-.96 1.726-1.147 3.833-.293 5.921.866 2.21 2.878 3.736 5.166 4.117a.447.447 0 0 0 .082.007h.225c.9.155 1.558.912 1.491 1.856l-.001.036v.027c0 .601 0 1.278.194 1.963.764 3.039 3.52 5.332 6.684 5.332 1.422 0 2.667-.381 3.723-1.052 2.546-1.613 5.532-2.132 8.549-1.874l.01.001c1.349.09 2.798.091 4.253-.091.787-.079 1.505-.225 2.193-.376 1.38 2.018 3.839 3.307 6.481 3.035a6.651 6.651 0 0 0 4.882-2.872c.888-1.291 2.249-2.092 3.855-2.176.176-.001.323-.03.428-.052l.01-.002a1.29 1.29 0 0 1 .256-.034c.03 0 .059-.003.087-.008 3.259-.575 5.64-3.535 5.64-6.782v-.023c0-.334.001-.732-.097-1.139-.242-1.561.095-3.167 1.127-4.358a.46.46 0 0 0 .059-.085c.908-1.633 1.581-3.423 1.39-5.428v-.003a5.994 5.994 0 0 0-.865-2.597c-1.097-1.945-1.5-4.108-.923-6.166l.008-.037c.183-.914.287-1.97-.003-3.048-.582-2.871-3.062-5.05-5.914-5.43a.477.477 0 0 0-.066-.005h-.068c-.847-.075-1.423-.86-1.3-1.625.1-.508.097-1.094.003-1.667-.48-3.795-3.804-6.469-7.614-6.01h-.146a.466.466 0 0 0-.098.01c-1.609.322-3.203-.16-4.32-1.357l-.178-.188Z" fill="#0C296E"/><path d="M123.271 185.933c2.835-2.215 1.683-10.365 1.417-19.402l16.39 10.72c0 5.581.266 7.265 2.923 8.859 2.658 1.595 12.935 4.962 12.935 4.962l-23.566 23.92-22.325-23.655c.088 0 9.391-3.189 12.226-5.404Z" fill="#fff"/><path d="M124.444 166.095a.5.5 0 0 1 .518.018l16.39 10.72a.499.499 0 0 1 .226.418c0 2.808.07 4.546.444 5.78.354 1.172.987 1.901 2.237 2.651 1.277.766 4.457 1.989 7.375 3.036a225.663 225.663 0 0 0 5.343 1.841l.114.037-.155.476.155-.476a.5.5 0 0 1 .201.827l-23.566 23.92a.503.503 0 0 1-.719-.008l-22.326-23.654a.501.501 0 0 1 .254-.831s-.001 0 0 0l.076-.025c.071-.022.174-.057.307-.102a109.404 109.404 0 0 0 4.624-1.722 66.018 66.018 0 0 0 4.018-1.74c1.267-.608 2.339-1.203 3.003-1.722.578-.452 1-1.246 1.276-2.416.274-1.163.387-2.628.403-4.337.02-2.047-.097-4.378-.224-6.892-.085-1.709-.175-3.502-.23-5.348a.5.5 0 0 1 .256-.451Zm31.572 25.198a236.661 236.661 0 0 1-4.719-1.633c-2.885-1.035-6.172-2.293-7.553-3.121-1.408-.845-2.237-1.755-2.68-3.218-.41-1.356-.482-3.173-.486-5.799l-15.359-10.046c.053 1.467.126 2.914.196 4.314.127 2.547.247 4.938.227 7.005-.017 1.735-.131 3.287-.43 4.558-.297 1.263-.794 2.319-1.634 2.974-.753.589-1.907 1.223-3.185 1.836a67.666 67.666 0 0 1-4.08 1.767 110.14 110.14 0 0 1-4.367 1.634l21.432 22.708 22.638-22.979Z" fill="#0C296E"/><path d="M133.725 144.912s-.088 0 0 0c-7.442 0-13.466 5.759-13.466 12.935s1.683 8.682 5.227 8.682l8.239 4.252c13.466 0 13.378-5.227 13.378-12.314 0-7.176-5.936-13.555-13.378-13.555Z" fill="#fff" stroke="#0C296E" stroke-miterlimit="10" stroke-linecap="round" stroke-linejoin="round"/><path d="M147.015 156.697c.62 4.341.797 9.391-.177 13.378-1.152 4.607-4.43 7.707-9.391 8.239-2.924.266-5.936-.797-8.062-2.746-2.127-1.949-4.341-4.519-4.607-8.948" fill="#fff"/><path d="M146.944 156.202a.5.5 0 0 1 .566.425c.624 4.367.81 9.49-.187 13.567v.002c-1.2 4.799-4.642 8.06-9.823 8.615l-.008.001c-3.068.279-6.218-.834-8.445-2.876-2.169-1.988-4.491-4.67-4.768-9.286a.499.499 0 1 1 .998-.06c.255 4.242 2.362 6.699 4.446 8.609 2.024 1.856 4.896 2.869 7.674 2.618 4.739-.51 7.852-3.45 8.955-7.862.952-3.897.784-8.873.168-13.187a.5.5 0 0 1 .424-.566Z" fill="#0C296E"/><path d="M142.262 160.025a.5.5 0 0 1 .623.335l1.674 5.551a.762.762 0 0 1-.134.777.778.778 0 0 1-.821.235l-1.133-.262a.5.5 0 1 1 .225-.974l.807.186-1.575-5.225a.5.5 0 0 1 .334-.623Zm-6.274 8.238a.5.5 0 0 1 .702-.087c.705.548 1.669.877 2.658.959a.5.5 0 0 1-.083.997c-1.138-.095-2.299-.475-3.189-1.167a.501.501 0 0 1-.088-.702Z" fill="#0C296E"/><path d="M125.574 166.533c-.975-.089-2.393-.354-3.278-.886-.975-.62-1.772-1.772-1.95-2.924-.088-.708 0-3.543 2.658-3.543 1.063 0 2.038.974 2.481 1.329" fill="#fff"/><path d="M120.842 162.655c-.036-.3-.033-1.084.263-1.771.146-.339.354-.634.645-.846.286-.208.684-.358 1.254-.358.386 0 .795.18 1.196.447.287.192.52.39.724.564.088.075.17.145.249.208a.5.5 0 1 0 .624-.781l-.174-.146c-.212-.18-.528-.45-.868-.677-.463-.308-1.073-.615-1.751-.615-.758 0-1.368.204-1.843.549-.47.342-.777.8-.975 1.259-.388.902-.387 1.884-.335 2.297l.001.014c.201 1.305 1.088 2.578 2.175 3.27l.011.007c.988.592 2.5.865 3.49.955a.501.501 0 0 0 .091-.996c-.957-.087-2.275-.345-3.06-.813-.858-.549-1.561-1.573-1.717-2.567Z" fill="#0C296E"/><path d="M148.874 152.798h-.089a3.816 3.816 0 0 0-.088-2.215c-.532-1.417-1.861-2.48-3.456-2.48-1.417 0-1.594-5.936-2.303-4.784-.886-1.064-2.658-1.507-4.164-1.507-1.772 0-3.898 0-4.784 1.418-.974-.975-3.278-1.24-4.873-1.063-1.771.266-4.075.266-4.518 1.949-.266.886-6.024-1.595-5.758-.797-.089 0-6.733 21.173-2.304 16.124 1.418-1.595 2.215-.798 2.392 1.417.089 1.949 4.784-.531 6.733-.443.975 0 2.481 2.126 3.898 0 1.684-2.658 6.202-3.455 7.531-3.101.443.089.797.178 1.24.178a4.56 4.56 0 0 0 2.658-.886c.354-.266.797-.443 1.329-.532 1.24-.354 2.569.354 2.923 1.595.532 1.594 1.949 2.658 3.633 2.569 2.037 0 3.721-1.683 3.721-3.81.088-1.86-1.595-3.632-3.721-3.632Z" fill="#0C296E"/><path d="M138.749 141.313h.025a8.07 8.07 0 0 1 2.471.379c.651.214 1.278.533 1.771.986a.617.617 0 0 1 .45.104.876.876 0 0 1 .265.311c.054.099.099.21.138.322.123.35.24.866.36 1.393l.082.358c.156.673.325 1.339.533 1.833.104.248.205.418.295.519a.36.36 0 0 0 .09.079l.012.006c1.828 0 3.328 1.217 3.924 2.805a4.303 4.303 0 0 1 .214 1.92c2.146.255 3.804 2.106 3.716 4.114-.007 2.385-1.896 4.291-4.208 4.298-1.923.095-3.525-1.128-4.12-2.911l-.004-.015a.014.014 0 0 1-.002-.006c-.276-.965-1.321-1.532-2.306-1.251a.488.488 0 0 1-.055.012c-.469.078-.833.23-1.111.439a5.057 5.057 0 0 1-2.958.986c-.433 0-.801-.077-1.159-.151l-.179-.036-.031-.008c-.245-.065-.704-.088-1.32-.024-.602.063-1.309.205-2.03.438-1.457.471-2.878 1.285-3.629 2.472l-.006.01c-.398.596-.846.959-1.352 1.101-.502.14-.972.037-1.363-.116a6.91 6.91 0 0 1-.848-.429 7.236 7.236 0 0 0-.173-.097c-.317-.176-.484-.237-.579-.237h-.022c-.401-.019-.991.098-1.711.289a55.76 55.76 0 0 0-.998.28l-.094.027c-.372.106-.75.214-1.115.308-.711.182-1.444.329-2.022.278-.294-.026-.608-.109-.859-.32-.264-.224-.393-.536-.411-.887-.042-.527-.12-.945-.224-1.252-.107-.32-.222-.458-.293-.507-.034-.024-.088-.054-.237.009-.176.072-.431.257-.764.632-.289.329-.56.583-.814.743-.242.152-.577.284-.921.148-.34-.135-.49-.452-.56-.697-.075-.261-.101-.577-.101-.915.001-1.342.435-3.571.992-5.895a138.016 138.016 0 0 1 1.833-6.752c.284-.956.535-1.767.717-2.339.091-.286.166-.515.22-.673l.054-.155c.002-.022.004-.045.008-.068a.576.576 0 0 1 .177-.33.723.723 0 0 1 .445-.179c.212-.017.479.027.732.08.453.095 1.052.267 1.658.44l.305.088c.725.206 1.434.4 1.975.49.243.04.421.054.538.049.336-.973 1.187-1.433 2.053-1.68.641-.183 1.391-.275 2.067-.358.266-.033.521-.064.753-.099l.019-.002c.844-.094 1.868-.07 2.815.105.727.134 1.461.368 2.031.748.545-.575 1.288-.869 2.041-1.023.914-.188 1.931-.188 2.8-.187Zm-14.474 2.482c.001 0-.003.002-.013.004a.093.093 0 0 1 .013-.004Zm11.875-1.316c-.801.165-1.397.474-1.736 1.016a.5.5 0 0 1-.777.089c-.38-.38-1.077-.666-1.942-.826a9.034 9.034 0 0 0-2.513-.095c-.289.043-.577.078-.861.113-.642.078-1.262.154-1.824.315-.788.225-1.26.566-1.414 1.152l-.005.017c-.129.431-.556.52-.763.541-.25.025-.549-.005-.847-.055-.606-.101-1.369-.311-2.084-.515l-.313-.089a25.561 25.561 0 0 0-1.583-.421 4.387 4.387 0 0 0-.249-.046l-.014.041c-.051.15-.124.371-.214.654-.18.566-.429 1.37-.711 2.32a136.044 136.044 0 0 0-1.819 6.701c-.561 2.338-.964 4.456-.965 5.663 0 .282.022.483.055.613.135-.086.329-.257.59-.554l.002-.003c.376-.422.751-.735 1.129-.892.404-.168.827-.159 1.192.094.328.228.534.605.67 1.008.139.414.227.924.274 1.5l.001.017c.006.133.043.166.058.178.031.026.113.071.302.088.388.034.968-.068 1.685-.251a38.64 38.64 0 0 0 1.183-.328c.339-.097.683-.196 1.015-.284.707-.188 1.431-.347 2.003-.323.388.004.77.206 1.05.362l.216.121c.239.135.457.258.687.349.285.112.518.142.727.084.206-.058.476-.225.786-.689.933-1.468 2.611-2.38 4.164-2.883a11.175 11.175 0 0 1 2.233-.481c.65-.068 1.246-.059 1.665.049l.184.037c.36.074.62.128.944.128.861 0 1.732-.317 2.358-.786.424-.319.937-.52 1.519-.621 1.485-.408 3.076.436 3.511 1.935.47 1.396 1.694 2.294 3.128 2.219l.027-.001c1.754 0 3.221-1.452 3.221-3.31v-.023c.074-1.553-1.357-3.109-3.221-3.109h-.089a.5.5 0 0 1-.485-.621 3.307 3.307 0 0 0-.075-1.927c-.469-1.242-1.625-2.147-2.984-2.147-.371 0-.654-.199-.851-.421-.194-.22-.345-.504-.468-.795-.246-.583-.431-1.329-.585-1.996l-.09-.391c-.11-.482-.203-.893-.297-1.182a.5.5 0 0 1-.396-.179c-.363-.435-.932-.771-1.621-.997a7.08 7.08 0 0 0-2.159-.329c-.897 0-1.819.001-2.624.166Zm-17.111 1.18s.001 0 0 0Z" fill="#0C296E"/><path d="M113.262 250.457a.5.5 0 0 0-.458.3c-5.372 12.343-9.809 26.076-14.04 39.653-.555 1.783-1.107 3.563-1.657 5.338-3.641 11.743-7.198 23.215-11.155 33.434a.5.5 0 0 0 .466.68h31.432a.5.5 0 0 0 .741-.207l.269-.597.72-1.597c.602-1.331 1.418-3.13 2.276-5 1.214-2.647 2.501-5.416 3.383-7.215l.547 14.224a.5.5 0 0 0 .499.481h36.944a.5.5 0 0 0 .499-.467c.973-14.694 1.684-28.534 1.595-33.26-.001-10.802-4.767-22.209-9.496-30.877a123.291 123.291 0 0 0-6.513-10.602 102.776 102.776 0 0 0-2.149-3.016 56.05 56.05 0 0 0-.603-.802l-.16-.208-.042-.053-.013-.017-.001-.002a.502.502 0 0 0-.393-.19h-32.691Z" fill="#14C0FF"/><path d="M142.709 258.313a.5.5 0 0 1 .675.211c2.957 5.653 9.249 11.604 15.981 14.751a.5.5 0 0 1-.423.906c-6.912-3.231-13.377-9.329-16.444-15.193a.5.5 0 0 1 .211-.675Zm-18.222 32.635a.5.5 0 0 1 .526.473l1.595 30.388a.5.5 0 0 1-.999.052l-1.595-30.388a.5.5 0 0 1 .473-.525Z" fill="#0C296E"/><path d="M167.746 325.29c-.266 1.594.177 4.466.177 4.466h2.747s0-3.58.354-5.441l.532 5.441h8.327s-2.569-11.465-3.189-16.249l1.24-52.802-3.543-40.398-16.745 2.48 7.177 38.273 4.961 52.713c-.089 4.695-1.329 6.733-2.038 11.517Z" fill="#fff"/><path d="M174.7 219.914a.5.5 0 0 1 .189.349l3.543 40.399a.333.333 0 0 1 .002.055l-1.239 52.763c.311 2.375 1.099 6.395 1.816 9.844.359 1.73.7 3.311.95 4.46l.299 1.362.082.372.029.128-.488.11.488-.11a.502.502 0 0 1-.488.61h-8.327a.499.499 0 0 1-.443-.268.497.497 0 0 1-.443.268h-2.747a.5.5 0 0 1-.494-.424l.494-.076-.494.076v-.002l-.001-.007-.004-.026-.014-.097a28.186 28.186 0 0 1-.173-1.537c-.078-.918-.128-2.087.015-2.951.289-1.945.666-3.45 1.013-4.836.085-.337.167-.668.247-.996.403-1.667.726-3.305.771-5.589l-4.956-52.662-7.172-38.25a.5.5 0 0 1 .418-.586l16.744-2.481a.501.501 0 0 1 .383.102Zm-6.341 109.342h1.815l.001-.096c.006-.368.017-.877.039-1.446.045-1.128.134-2.522.319-3.492a.499.499 0 0 1 .989.045l.487 4.989h7.251l-.276-1.259a464.976 464.976 0 0 1-.952-4.47c-.719-3.461-1.521-7.542-1.834-9.956a.634.634 0 0 1-.004-.076l1.24-52.774-3.495-39.842-15.705 2.327 7.08 37.761a.362.362 0 0 1 .006.046l4.962 52.713.002.056c-.046 2.397-.386 4.119-.8 5.834-.083.339-.167.677-.253 1.019-.346 1.383-.71 2.834-.99 4.728l-.002.009c-.121.73-.083 1.792-.006 2.707.038.45.085.852.121 1.141l.005.036Z" fill="#0C296E"/><path d="m168.102 264.16 1.506-3.189" stroke="#0C296E" stroke-miterlimit="10" stroke-linecap="round" stroke-linejoin="round"/><path d="M30.337 195.855c-1.595-.886-6.113-2.038-6.556-.62 3.278 1.772 8.86 5.493 13.555 6.467l3.19.177c4.695.178 10.187-.088 12.49 1.595 3.545 2.481 26.224 43.588 26.224 43.588 6.468 12.049 17.896 9.568 21.351 2.038 3.456-7.531 6.113-22.946 6.113-22.946l1.329-4.518-14.175-2.747-4.96 18.694s-24.896-31.717-28.794-37.564c-3.898-5.847-7.53-7.176-10.188-7.53-2.746-.355-9.657-1.507-10.365-.532-.886 1.329 4.163 2.126 5.847 2.303-1.24.886-4.253 1.595-6.822 1.595" fill="#fff"/><path d="M48.573 191.8c-1.329-.187-3.011-.423-4.555-.573-1.086-.106-2.127-.172-2.95-.148-.41.013-.786.048-1.094.12-.28.065-.626.186-.828.464a.174.174 0 0 0-.011.017c-.188.281-.245.607-.124.927.108.285.332.497.555.654.448.316 1.118.564 1.808.761.742.211 1.572.379 2.315.505-.395.137-.839.264-1.318.376-1.195.28-2.552.452-3.795.452a.5.5 0 0 0 0 1c1.327 0 2.76-.182 4.023-.478 1.249-.293 2.389-.709 3.09-1.21a.499.499 0 0 0-.239-.904c-.828-.087-2.48-.327-3.802-.703-.673-.192-1.204-.403-1.506-.616a.62.62 0 0 1-.192-.182l.002-.003c.016-.009.081-.048.248-.087.216-.05.517-.082.898-.093.758-.023 1.749.038 2.823.143 1.522.148 3.162.379 4.485.564.546.077 1.038.146 1.445.198 1.271.17 2.77.571 4.424 1.631 1.658 1.063 3.494 2.803 5.413 5.681 1.962 2.943 9.175 12.353 15.88 21.004a3806.126 3806.126 0 0 0 11.858 15.217l.797 1.017.28.356v.001l.394-.308-.393.308a.499.499 0 0 0 .876-.18l4.842-18.242 13.177 2.553-1.174 3.991a.12.12 0 0 0-.005.018l-.008.039h.003-.003l-.002.01-.006.032-.023.13-.089.5c-.08.434-.196 1.064-.348 1.843a188.821 188.821 0 0 1-1.288 6.107c-1.096 4.794-2.615 10.485-4.319 14.199-1.65 3.597-5.201 5.979-9.098 6.032-3.873.052-8.193-2.201-11.358-8.097l-.003-.006-.438.242.438-.242-.256-.462a1184.174 1184.174 0 0 0-3.344-6.002 1324.5 1324.5 0 0 0-8.187-14.408c-3.058-5.295-6.228-10.672-8.858-14.882-1.314-2.104-2.496-3.922-3.463-5.295a29.291 29.291 0 0 0-1.289-1.717c-.361-.438-.692-.789-.973-.986-.652-.475-1.498-.793-2.44-1.015-.948-.223-2.026-.356-3.163-.44-1.424-.105-2.984-.136-4.521-.166a143.24 143.24 0 0 1-2.636-.067l-3.147-.175c-2.266-.477-4.769-1.617-7.14-2.879a106.278 106.278 0 0 1-3.389-1.903l-.436-.253c-.635-.369-1.236-.718-1.788-1.028.056-.014.121-.027.195-.038.437-.067 1.034-.036 1.705.071 1.343.215 2.812.709 3.546 1.117a.5.5 0 0 0 .486-.874c-.86-.478-2.448-1.002-3.874-1.23-.713-.115-1.428-.162-2.013-.073-.556.084-1.188.327-1.39.971a.5.5 0 0 0 .24.589c.698.377 1.502.844 2.389 1.359l.439.254c1.058.614 2.216 1.28 3.42 1.921 2.402 1.278 5.023 2.481 7.443 2.983a.46.46 0 0 0 .074.009l3.19.178h.008c.893.034 1.8.051 2.705.069 1.514.03 3.017.059 4.42.163 1.112.082 2.132.209 3.008.415.88.208 1.583.487 2.083.852l.008.006c.162.113.421.372.78.807.35.423.766.981 1.242 1.656.952 1.351 2.123 3.151 3.433 5.249 2.62 4.195 5.784 9.56 8.84 14.852 3.055 5.291 6 10.505 8.18 14.397a1301.278 1301.278 0 0 1 3.343 5.997l.25.454.002.003.001.002c3.302 6.15 7.93 8.68 12.251 8.622 4.299-.058 8.19-2.681 9.994-6.615 1.751-3.816 3.289-9.598 4.385-14.394a191.649 191.649 0 0 0 1.735-8.498l.023-.131.003-.017 1.321-4.491a.5.5 0 0 0-.385-.632l-14.174-2.746a.499.499 0 0 0-.579.362l-4.704 17.723-.458-.584-2.872-3.672a3695.24 3695.24 0 0 1-8.983-11.541c-6.718-8.669-13.901-18.041-15.838-20.945-1.979-2.969-3.908-4.817-5.705-5.969a11.554 11.554 0 0 0-4.833-1.78h-.002c-.39-.051-.87-.118-1.407-.193Z" fill="#0C296E"/><path d="M31.756 193.905c-2.215-4.341-5.493-6.025-4.785-3.898.532 1.683 6.025 10.276 8.417 11.162" fill="#fff"/><path d="M28.552 189.119a3.587 3.587 0 0 0-.792-.428c-.236-.086-.523-.144-.797-.061a.819.819 0 0 0-.573.669c-.047.268.008.566.106.862.154.486.628 1.385 1.248 2.431a57.037 57.037 0 0 0 2.33 3.583c.875 1.244 1.815 2.471 2.692 3.447.44.489.868.921 1.271 1.263.397.337.797.612 1.177.753a.5.5 0 1 0 .347-.937c-.217-.081-.512-.268-.876-.578a12.657 12.657 0 0 1-1.175-1.169c-.841-.936-1.756-2.129-2.62-3.355a55.618 55.618 0 0 1-2.286-3.518c-.631-1.064-1.043-1.868-1.156-2.225l-.002-.007a1.658 1.658 0 0 1-.061-.23l.034.012c.144.052.334.152.564.311.924.64 2.248 2.075 3.327 4.19a.5.5 0 1 0 .89-.454c-1.135-2.227-2.558-3.804-3.648-4.559Z" fill="#0C296E"/><path d="M38.487 201.791c-2.57-.532-5.227-3.632-6.202-6.379-.62-1.772-1.328-3.544-1.86-6.29 0 0-.443-2.215.797-1.329.443.355.798.798 1.063 1.329l1.33 3.101" fill="#fff"/><path d="M30.915 189.024v-.003l-.003-.014-.01-.06a4.215 4.215 0 0 1-.03-.214 2.795 2.795 0 0 1-.016-.558l.003-.025.062.042c.375.303.679.681.91 1.141l1.324 3.086a.5.5 0 1 0 .919-.393l-1.329-3.101a4.426 4.426 0 0 0-1.21-1.523l-.022-.016c-.332-.237-.788-.443-1.204-.183a.893.893 0 0 0-.348.435 1.62 1.62 0 0 0-.1.437c-.027.274-.006.564.017.771a5.488 5.488 0 0 0 .05.341l.005.023.001.006v.002c.463 2.389 1.06 4.061 1.609 5.595l.27.764.001.002c.513 1.444 1.46 2.964 2.609 4.194 1.143 1.223 2.536 2.212 3.963 2.507a.5.5 0 0 0 .202-.979c-1.142-.236-2.363-1.064-3.434-2.211-1.066-1.139-1.935-2.543-2.397-3.844-.09-.259-.182-.516-.275-.776-.547-1.532-1.119-3.133-1.566-5.443v-.003Zm-.194-.941.01.002c-.007 0-.01-.001-.01-.002Zm.173-.084v.002-.002Z" fill="#0C296E"/><path d="M48.764 198.513c-1.418-1.151-3.367-.797-5.05-.531-1.772.266-3.721.531-5.05-.709-.974-.886-1.329-2.303-1.949-3.544-.62-1.24-1.683-2.392-2.924-2.126l-.088.443c1.152 3.632 2.303 8.151 5.227 9.568" fill="#fff"/><path d="M35.803 191.715c.57.469 1.03 1.131 1.36 1.791a17.257 17.257 0 0 1 .503 1.128c.115.273.226.535.344.79.279.6.577 1.104.99 1.479l.005.005c.553.516 1.247.735 2.05.785.812.052 1.69-.071 2.583-.205l.167-.027c.787-.125 1.679-.267 2.546-.245.941.024 1.905.241 2.728.91a.5.5 0 1 1-.63.776c-.595-.483-1.315-.665-2.123-.686-.772-.019-1.578.108-2.385.236l-.15.024h-.003c-.878.132-1.86.275-2.797.215-.946-.059-1.89-.327-2.666-1.05-.56-.51-.925-1.157-1.222-1.796a25.059 25.059 0 0 1-.36-.827l-.06-.142c-.135-.32-.268-.628-.415-.923-.29-.581-.672-1.114-1.1-1.465-.31-.255-.622-.398-.934-.42.09.283.178.569.267.856.477 1.536.969 3.123 1.606 4.531.784 1.73 1.74 3.079 3.041 3.709a.5.5 0 0 1-.436.9c-1.624-.787-2.705-2.406-3.516-4.197-.665-1.47-1.18-3.132-1.657-4.67-.106-.34-.21-.675-.313-1a.498.498 0 0 1-.013-.249l.088-.443a.501.501 0 0 1 .386-.391c.815-.174 1.542.129 2.116.601Z" fill="#0C296E"/><path d="m90.935 239.619-2.126-2.746" stroke="#0C296E" stroke-miterlimit="10" stroke-linecap="round" stroke-linejoin="round"/><path d="M119.182 187.628a.498.498 0 0 0-.62-.207l-11.599 4.781c-6.011 2.28-10.29 7.74-11.118 14.111l-.056.255-.175.789a1114.906 1114.906 0 0 1-2.73 11.962c-1.475 6.29-3.161 13.178-4.246 16.646-3.33-4.589-8.203-11.077-12.333-16.535a3028.187 3028.187 0 0 0-7.297-9.597l-.623-.814a.497.497 0 0 0-.723-.075 312.52 312.52 0 0 1-3.936 3.317l-.002.001a308.006 308.006 0 0 0-3.947 3.326.501.501 0 0 0-.027.733c3.475 3.474 4.483 8.585 5.512 13.804l.143.723c1.067 5.379 2.283 10.819 6.722 13.964 1.019.733 2.18 1.268 3.29 1.78.15.068.298.137.445.205 1.262.587 2.439 1.18 3.395 2.053l.007.006c1.038.914 1.78 2.089 2.47 3.382.207.388.411.792.62 1.201.468.925.953 1.879 1.515 2.754l.003.004c2.092 3.185 4.915 5.31 8.818 4.739l.002-.001c3.09-.468 6.031-2.692 7.769-5.07 5.066-6.77 6.045-11.576 6.441-15.305.055-.521.099-1.015.141-1.485.233-2.602.402-4.482 2.015-6.252l3.623 17.443a.5.5 0 0 0 .49.398h32.691a.5.5 0 0 0 .478-.354l8.617-28.237c-.07 1.283-.131 2.769-.16 4.361-.088 4.896.129 10.86 1.396 14.931v.001c.572 1.822 1.804 4.316 3.09 6.921l.001.001c.341.69.686 1.388 1.023 2.083.812 1.675 1.589 3.346 2.189 4.892.602 1.552 1.014 2.945 1.118 4.071.346 3.887-.34 6.115-1.138 8.477l-.109.322c-.783 2.308-1.635 4.819-1.678 9.047v.005c0 .98.337 2.213.821 3.522.488 1.322 1.147 2.775 1.829 4.212.305.642.613 1.276.913 1.895l.001.002c.377.779.743 1.534 1.08 2.254.602 1.29 1.078 2.402 1.31 3.222.561 2.028.957 5.722 1.212 8.952a182.916 182.916 0 0 1 .343 5.437l.016.348.004.091.001.03a.5.5 0 0 0 .5.48h8.239a.5.5 0 0 0 .5-.48l2.037-48.726a.492.492 0 0 0-.002-.077l-5.936-52.093-.002-.013c-.496-3.566-1.675-6.667-3.623-9.154-1.951-2.49-4.653-4.339-8.152-5.429l-12.491-3.898a.5.5 0 0 0-.548.175l-16.472 21.733-13.087-22.04Z" fill="#3370FF"/><path d="M156.759 215.611c-.975 2.747-3.101 10.277-4.075 13.024l4.075-13.024Z" fill="#3370FF"/><path d="M108.486 211.826a.499.499 0 0 1 .144.692c-2.956 4.521-3.913 10.035-.903 14.135a15.506 15.506 0 0 0 .449.565c.12.148.245.301.365.457.274.353.544.742.744 1.191.071.146.144.401.217.678.081.308.176.707.281 1.171.211.929.463 2.132.724 3.412a588.418 588.418 0 0 1 1.386 7.083.5.5 0 0 1-.983.186c-.31-1.638-.863-4.515-1.383-7.07-.26-1.278-.511-2.472-.719-3.39-.104-.46-.196-.846-.273-1.138a8.357 8.357 0 0 0-.135-.46l-.015-.037-.01-.021c-.153-.345-.369-.663-.625-.993a22.98 22.98 0 0 0-.402-.502c-.139-.17-.283-.349-.422-.534l-.003-.004c-3.366-4.582-2.197-10.585.87-15.276a.5.5 0 0 1 .693-.145Z" fill="#0C296E"/><path d="M237.998 252.644c0 .177-1.949-3.278-3.012-5.227-.708-1.24-1.417-2.569-1.506-4.075l-37.475 18.25.532 7.53c16.832-2.746 31.716-7.264 41.461-16.478Z" fill="#fff" stroke="#0C296E" stroke-miterlimit="10" stroke-linecap="round" stroke-linejoin="round"/><path d="m248.276 238.57.011-.057-.011.057Zm53.317-128.805a.5.5 0 0 1 .765.026l5.493 6.999a.5.5 0 0 1 .049.542l-13.023 24.717-.002.003c-7.49 13.954-23.302 29.466-37.19 41.46a403.41 403.41 0 0 1-18.187 14.776 357.05 357.05 0 0 1-5.662 4.25c-.673.494-1.198.875-1.555 1.132l-.012.008c4.381 3.623 5.874 6.925 6.031 10.307.081 1.731-.19 3.456-.561 5.209-.145.686-.303 1.368-.463 2.057a76.053 76.053 0 0 0-.691 3.178l.218.274.986 1.229a533.084 533.084 0 0 0 3.255 4.005c2.535 3.085 5.538 6.658 7.473 8.686l.001.001.001.001h.001l.002.002h.001l.001.001.001.001h.001l.001.001.001.001.001.001.001.001h.001l.001.001.001.001.002.001.001.001.001.001h.001l.001.001.001.001h.001l.002.002.001.001.003.001.001.001.002.002h.001l.001.001.002.002h.001l.001.001.001.001.001.001.002.001h.001l.001.001.001.001.001.001.003.002.003.002.002.001.001.001.001.001.002.001.001.001.001.001h.001l.001.001.001.001.002.001.001.001.001.001h.001l.001.001.002.001.001.001.002.002.001.001.004.002.001.001.001.001h.001l.002.002h.001l.001.001.001.001.001.001.002.001.001.001.001.001h.001l.002.001.001.001.001.001.001.001.003.002.001.001.002.001.001.001.002.001.001.001.001.001.001.001h.001l.004.003.001.001.002.001.001.001h.001l.004.003.001.001.001.001.002.001.001.001.002.001.001.001.001.001.001.001h.001l.003.002.001.001.001.001.002.001.001.001.002.001.001.001.001.001.001.001.002.001.003.002.001.001h.001l.002.002.001.001.001.001h.001l.001.001.003.002h.001l.001.001.002.002.001.001h.001l.001.001.002.002h.001l.001.001.002.001.001.001.001.001.002.001.002.002h.001l.001.001.001.001.001.001h.001l.001.001.001.001h.001l.001.001.001.001h.001l.001.001h.001v.001l.001.001h.001l.001.001.001.001h.001l.001.001.001.001.001.001h.001l.003.002.001.001.001.001h.001v.001l.001.001h.001l.001.001h.001l.001.001.002.001.001.001.001.001.001.001h.001l.001.001.001.001.001.001h.001l.001.001.001.001h.001l.002.002h.001l.001.001.001.001h.001l.001.002c.063.054-.581.814-.581.814v-.001l-.001-.001h-.001l-.001-.001-.001-.001h-.001l-.001-.001-.001-.001h-.001l-.002-.002-.002-.001-.001-.001-.001-.001h-.001l-.001-.001-.002-.001-.001-.001-.001-.001-.001-.001-.002-.001-.001-.001h-.001l-.001-.001-.001-.001h-.001l-.002-.002-.001-.001h-.001l-.001-.001-.001-.001-.003-.002-.001-.001-.001-.001h-.001l-.001-.001h-.001l-.001-.001v-.001h-.001l-.002-.002h-.001l-.001-.001-.001-.001h-.001l-.002-.002-.001-.001h-.001l-.001-.001-.001-.001-.002-.001-.001-.001-.001-.001h-.001l-.001-.001-.001-.001h-.001l-.001-.001-.001-.001-.002-.001-.001-.001-.001-.001-.001-.001-.002-.001h-.001l-.001-.001-.001-.001-.001-.001h-.001l-.002-.002-.001-.001-.002-.001h-.001l-.001-.001-.001-.001-.001-.001-.001-.001h-.001l-.001-.001-.002-.001-.003-.003h-.001l-.001-.001-.002-.001-.001-.001-.001-.001-.001-.001-.002-.001-.003-.002-.001-.001-.001-.001-.001-.001h-.001l-.002-.001-.001-.001-.001-.001-.004-.003h-.001l-.002-.002-.002-.001-.001-.001-.001-.001-.001-.001h-.001l-.001-.001-.002-.001-.001-.001-.001-.001-.001-.001-.002-.001h-.001l-.001-.001-.001-.001-.001-.001-.001-.001-.002-.001-.001-.001-.001-.001h-.001l-.002-.001-.001-.001-.001-.001-.001-.001-.002-.001-.001-.001-.002-.001-.001-.001-.002-.001-.002-.002h-.001l-.001-.001-.002-.001-.001-.001-.001-.001-.001-.001-.001-.001h-.001l-.002-.001-.002-.002-.001-.001-.003-.002-.002-.001-.001-.001a4.98 4.98 0 0 0-.29-.035c-.27-.027-.677-.052-1.21-.044-1.066.016-2.639.165-4.628.707-3.975 1.084-9.637 3.739-16.269 10.061-10.895 11.293-19.286 15.217-25.011 16.283a18.91 18.91 0 0 1-3.553.336l-.435 32.822a.5.5 0 0 1-.975.151l-3.717-11.241c-.763-1.997-1.537-4.725-2.396-7.891-.201-.743-.407-1.511-.619-2.301l-.001-.002c-.696-2.589-1.453-5.411-2.309-8.35-2.234-7.675-5.122-16.11-9.254-23.188-1.288-2.214-2.608-4.345-3.887-6.411-2.298-3.711-4.467-7.214-6.088-10.613-2.54-5.326-3.809-10.53-2.212-16.143 1.335-4.741 5.585-8.814 10.681-12.399 4.002-2.817 8.602-5.383 12.867-7.762a429.322 429.322 0 0 0 3.441-1.932.517.517 0 0 1 .114-.047l21.705-6.024.005-.001a100.203 100.203 0 0 0 20.715-8.11c10.145-5.358 22.98-17.916 35.258-31.346 6.129-6.705 12.105-13.61 17.52-19.916l2.706-3.156c4.327-5.046 8.221-9.588 11.443-13.16Zm-53.881 128.733.564.072-.087.433.087-.433.203.026a.5.5 0 0 0-.192-.083h-.001l-.002-.001-.009-.002-.027-.005a6.246 6.246 0 0 0-.448-.058l-.147-.014.059.065Z" fill="#00D6B9"/><path d="M300.105 112.046s3.19-4.518 4.076-6.201c.177-.443-.709-10.189-.709-10.189s2.569-8.15 3.632-11.605c2.038 1.683.886 9.213 1.418 10.72 0 0 6.29-6.645 10.365-10.898 2.924-3.012 5.05-5.227 7.088-5.138 1.86.089 3.809 1.152 4.252 3.012.266 1.152-.088 2.304-.354 3.367-.886 3.1-3.101 8.15-4.43 10.985 2.392-1.949 4.253-3.455 4.873-3.19-2.747 3.367-21.085 21.706-22.149 24.364" fill="#fff"/><path d="m319.323 84.142-.075.077-.001.002a2194.648 2194.648 0 0 0-6.708 7.04l-2.608 2.749-1.046 1.104-.363-.344.363.344a.5.5 0 0 1-.835-.177c-.09-.257-.133-.599-.157-.958-.024-.37-.031-.808-.03-1.283 0-.353.005-.725.009-1.11.008-.67.016-1.38.006-2.102-.017-1.132-.08-2.243-.258-3.165a5.652 5.652 0 0 0-.336-1.155c-.536 1.728-1.273 4.082-1.917 6.135l-1 3.18-.388 1.232.029.32.098 1.111c.08.922.185 2.155.285 3.402.1 1.247.194 2.511.253 3.492.029.49.05.914.057 1.232.004.158.004.296.001.406a1.897 1.897 0 0 1-.011.158.782.782 0 0 1-.068.245c-.458.872-1.494 2.446-2.398 3.78-.456.672-.883 1.291-1.197 1.742l-.374.537-.104.147-.035.051h-.001l-.409-.288-.408-.288.036-.051.102-.145.372-.534c.312-.448.737-1.064 1.19-1.732.886-1.308 1.857-2.785 2.303-3.613a5.837 5.837 0 0 0 .001-.392 35.162 35.162 0 0 0-.055-1.195c-.058-.971-.152-2.227-.252-3.472a475.874 475.874 0 0 0-.284-3.395l-.098-1.109-.038-.418.498-.046-.477-.15.418-1.327.999-3.18c.776-2.47 1.683-5.37 2.214-7.095a.502.502 0 0 1 .797-.239c.652.539.988 1.478 1.179 2.464.195 1.01.259 2.192.276 3.34.011.733.002 1.472-.006 2.152-.005.382-.009.745-.009 1.077-.001.36.003.686.015.97l.327-.346 2.609-2.75a2307.49 2307.49 0 0 1 6.712-7.044l.003-.003.111-.114c1.407-1.45 2.659-2.741 3.811-3.66 1.175-.938 2.338-1.568 3.545-1.516h.003c1.983.095 4.2 1.236 4.715 3.396v.004c.27 1.167-.03 2.33-.277 3.29l-.079.31-.004.016c-.719 2.515-2.291 6.272-3.571 9.124a31.775 31.775 0 0 1 1.475-1.111c.429-.3.825-.544 1.166-.698a2.18 2.18 0 0 1 .519-.168c.169-.029.372-.032.57.052a.499.499 0 0 1 .19.776c-1.002 1.23-4.043 4.414-7.554 8.091-1.352 1.417-2.774 2.906-4.176 4.384-2.53 2.669-5.003 5.311-6.909 7.45a69.806 69.806 0 0 0-2.361 2.762 17.08 17.08 0 0 0-.73.969 3.449 3.449 0 0 0-.341.577.5.5 0 0 1-.929-.372c.088-.22.249-.485.446-.772.203-.294.464-.639.772-1.026a72.118 72.118 0 0 1 2.396-2.803c1.917-2.152 4.4-4.803 6.931-7.473 1.426-1.504 2.865-3.011 4.227-4.438 2.235-2.341 4.264-4.466 5.69-6.006a90.478 90.478 0 0 0-2.406 1.918.5.5 0 0 1-.769-.6c1.329-2.834 3.525-7.844 4.4-10.903l.074-.292c.253-.996.487-1.916.276-2.83-.372-1.56-2.052-2.544-3.788-2.627-.83-.036-1.748.396-2.877 1.297-1.101.88-2.315 2.13-3.752 3.61Zm-15.851 11.514-.477-.15a.5.5 0 0 0-.021.196l.498-.046Zm-3.367 16.39-.408-.288a.5.5 0 1 0 .817.576l-.409-.288Z" fill="#0C296E"/><path d="M326.827 78.618a.5.5 0 0 1 .059.705c-.975 1.152-2.482 2.924-3.987 4.696h-.001a3436.683 3436.683 0 0 0-3.986 4.695.5.5 0 1 1-.763-.646c.975-1.152 2.481-2.924 3.987-4.696 1.507-1.772 3.012-3.544 3.986-4.695a.5.5 0 0 1 .705-.059Zm2.427 2.62a.5.5 0 0 1 .153.69c-.942 1.483-2.262 3.248-3.578 4.984-.186.246-.372.492-.558.735-1.129 1.488-2.219 2.923-3.049 4.13a.5.5 0 0 1-.824-.566c.844-1.229 1.951-2.686 3.079-4.171l.555-.732c1.32-1.74 2.614-3.475 3.532-4.916a.5.5 0 0 1 .69-.154Z" fill="#0C296E"/><path d="M316.378 88.33a.5.5 0 0 1 .705-.057c1.766 1.502 3.622 3.004 5.483 4.51a.5.5 0 1 1-.629.778l-.003-.003c-1.859-1.504-3.723-3.013-5.499-4.523a.5.5 0 0 1-.057-.704Zm-7.995 5.428a.5.5 0 0 1 .618.343c.532 1.861.99 3.68 1.082 5.337a.5.5 0 0 1-.999.055c-.085-1.533-.513-3.258-1.044-5.117a.5.5 0 0 1 .343-.618Zm17.446 1.849a.5.5 0 0 1-.07.704l-1.945 1.59c-.654.56-1.409 1.035-2.18 1.325a75.167 75.167 0 0 1-6.329 2.139.5.5 0 0 1-.28-.96 74.477 74.477 0 0 0 6.248-2.112l.007-.002c.644-.242 1.303-.651 1.888-1.152l.008-.008 1.949-1.594a.5.5 0 0 1 .704.07ZM184.407 225.375a.498.498 0 0 1 .687.165c7.767 12.677 11.499 30.754 12.21 43.999a.5.5 0 1 1-.998.054c-.706-13.156-4.417-31.048-12.065-43.531a.5.5 0 0 1 .166-.687Zm41.601-25.317a.498.498 0 0 1 .703-.069c.854.7 1.945 1.406 3.111 2.16.495.32 1.003.648 1.512.989 1.67 1.117 3.339 2.358 4.329 3.772 1.908 2.726 2.837 5.128 2.837 8.526 0 2.486-.495 4.565-.882 6.188l-.007.03c-.196.823-.356 1.503-.423 2.075-.066.57-.027.953.103 1.22.048.084.213.314.509.693.293.375.687.864 1.157 1.435a250.35 250.35 0 0 0 3.486 4.123c2.627 3.049 5.536 6.309 6.979 7.709a.5.5 0 0 1-.696.717c-1.481-1.435-4.419-4.73-7.041-7.773a248.74 248.74 0 0 1-3.499-4.141 75.576 75.576 0 0 1-1.174-1.454c-.288-.369-.513-.672-.603-.837a.016.016 0 0 0-.004-.007l-.004-.009c-.265-.53-.28-1.153-.206-1.792.074-.641.251-1.382.442-2.184l.003-.012c.387-1.628.86-3.612.86-5.981 0-3.158-.844-5.363-2.656-7.953-.871-1.243-2.391-2.394-4.066-3.514-.473-.317-.96-.631-1.443-.944-1.189-.769-2.359-1.525-3.258-2.264a.498.498 0 0 1-.069-.703Z" fill="#0C296E"/><path d="M233.481 243.96s10.543-7.796 15.061-5.138c4.607 2.746-10.543 13.732-10.543 13.732l-4.518-8.594Z" fill="#0C296E" stroke="#0C296E" stroke-miterlimit="10" stroke-linecap="round" stroke-linejoin="round"/><path d="M228.053 230.208a.499.499 0 0 1 .047.705c-1.237 1.414-2.452 2.851-3.671 4.291l-.001.001c-1.218 1.439-2.438 2.881-3.681 4.302a.5.5 0 1 1-.753-.659 347.574 347.574 0 0 0 3.672-4.29l.001-.002c1.217-1.438 2.438-2.881 3.681-4.301a.499.499 0 0 1 .705-.047Zm51.57-78.2a.5.5 0 0 1-.168.687c-1.829 1.111-3.709 2.175-5.558 3.221-.667.378-1.329.753-1.984 1.127a.5.5 0 1 1-.496-.868c.663-.379 1.33-.757 1.999-1.135 1.845-1.045 3.705-2.098 5.52-3.2a.5.5 0 0 1 .687.168Zm-95.004 2.906c2.092-10.725 12.541-17.721 23.175-15.722l.004.001c10.625 2.089 17.581 10.728 18.121 23.06l.001.007c.005.172.011.342.018.511.482 2.747.983 5.447 1.902 8.021l.002.006c.521 1.519 1.217 2.977 1.928 4.465l.006.013c.704 1.475 1.424 2.981 1.964 4.559 1.08 3.147 1.571 6.855-.028 9.959a.5.5 0 0 1-.889-.458c1.413-2.742 1.019-6.123-.029-9.177-.52-1.518-1.216-2.976-1.927-4.465l-.006-.013c-.704-1.474-1.423-2.979-1.964-4.555l-.124-.357c.226 1.362.469 2.617.697 3.79.249 1.284.48 2.472.648 3.6.297 1.989.398 3.794.021 5.562-.379 1.776-1.231 3.479-2.783 5.281a.5.5 0 0 1-.456.168l-36.412-5.67a.501.501 0 0 1-.332-.207c-2.155-3.071-3.474-7.956-4.041-13.134-.57-5.192-.393-10.758.504-15.245Z" fill="#0C296E"/><path d="M190.158 176.807c-1.152 6.113-2.038 12.226-2.923 18.338h-.178c2.481 2.304 5.848 3.81 9.214 3.456 6.999-.798 10.631-5.405 11.783-8.328l1.24-11.163" fill="#fff"/><path d="M190.251 176.315c.271.052.45.313.399.584-1.142 6.06-2.022 12.121-2.903 18.194 2.363 2.051 5.436 3.329 8.47 3.011 6.732-.768 10.224-5.166 11.348-7.953l1.232-11.096a.5.5 0 0 1 .994.11l-1.24 11.163a.511.511 0 0 1-.032.128c-1.206 3.063-4.976 7.82-12.191 8.641l-.005.001c-3.547.373-7.05-1.213-9.606-3.586a.501.501 0 0 1 .074-.789c.869-5.995 1.744-12.001 2.876-18.009a.5.5 0 0 1 .584-.399Z" fill="#0C296E"/><path d="M189.629 159.62c-.532-.974-1.772-1.152-2.481-.709-1.152.709-1.329 2.127-1.329 3.013 0 2.303 1.329 5.138 3.632 6.201" fill="#fff"/><path d="M186.885 158.488c.934-.583 2.503-.352 3.183.894a.5.5 0 0 1-.878.479c-.384-.703-1.293-.827-1.777-.524l-.003.001c-.905.558-1.091 1.714-1.091 2.587 0 1.062.308 2.264.891 3.325.582 1.061 1.419 1.946 2.451 2.422a.5.5 0 0 1-.419.908c-1.272-.587-2.251-1.65-2.909-2.849-.658-1.198-1.014-2.565-1.014-3.806 0-.899.169-2.577 1.566-3.437Z" fill="#0C296E"/><path d="M206.904 144.913c8.239 1.595 13.555 9.48 12.049 17.542-1.595 8.15-2.835 14.706-17.63 11.871-14.796-2.835-13.644-8.682-12.049-16.832 1.506-8.151 9.479-14.175 17.63-12.581Z" fill="#fff" stroke="#0C296E" stroke-miterlimit="10" stroke-linecap="round" stroke-linejoin="round"/><path d="M218.066 164.759c.886-.709 2.037-.355 2.569.265.886 1.064.443 2.481.177 3.278-.797 2.215-3.189 4.253-5.67 4.43" fill="#fff"/><path d="M220.253 165.347c-.402-.466-1.251-.698-1.875-.198a.501.501 0 0 1-.625-.781c1.146-.917 2.599-.442 3.261.331l.005.005c.548.658.673 1.418.635 2.087-.037.66-.235 1.27-.368 1.669l-.004.011c-.434 1.206-1.292 2.342-2.361 3.2-1.07.858-2.382 1.462-3.744 1.559a.5.5 0 1 1-.071-.997c1.119-.08 2.243-.583 3.189-1.342.945-.758 1.68-1.746 2.044-2.753.133-.398.288-.892.317-1.404.028-.503-.068-.983-.403-1.387Z" fill="#0C296E"/><path d="M217.8 164.934c-1.772 5.847-2.924 7.708-4.784 10.543-2.746 4.429-6.024 5.758-8.948 6.644-4.873 1.506-10.277-.177-13.112-4.075-4.075-5.67-3.632-13.201-1.86-20.554" fill="#fff"/><path d="M189.213 157.006a.501.501 0 0 1 .369.603c-1.766 7.329-2.159 14.664 1.779 20.144 2.7 3.712 7.876 5.338 12.559 3.891l.003-.001c2.865-.868 6.012-2.145 8.668-6.43l.007-.011c1.837-2.8 2.967-4.617 4.723-10.413a.501.501 0 0 1 .957.29c-1.786 5.895-2.959 7.8-4.841 10.667-2.835 4.57-6.242 5.95-9.223 6.853-5.061 1.564-10.692-.175-13.662-4.259l-.002-.002c-4.212-5.86-3.718-13.586-1.94-20.963a.5.5 0 0 1 .603-.369Z" fill="#0C296E"/><path d="M201.457 161.26a.5.5 0 0 1 .352.613l-1.949 7.176a.5.5 0 0 1-.965-.262l1.949-7.176a.5.5 0 0 1 .613-.351Zm1.201 10.444a.5.5 0 0 1-.224.671c-1.162.581-2.507.77-3.838.579a.5.5 0 1 1 .142-.99c1.149.165 2.285-.002 3.249-.483a.5.5 0 0 1 .671.223Zm-15.38-15.988c1.645-8.686 10.145-14.537 18.925-12.801 8.78 1.648 14.532 10.24 12.888 19.01l-.002.01-.002.011-.798 3.455a.5.5 0 0 1-.982-.042l-.392-2.746-7.179-1.352a.499.499 0 0 1-.407-.491v-5.373l-2.05 4.944a.502.502 0 0 1-.558.3l-19.136-3.721a.502.502 0 0 1-.4-.562l.089-.62.004-.022Zm-1.615-2.258a.5.5 0 0 1 .377.598c-.755 3.334-.92 6.739-1.086 10.154-.065 1.345-.13 2.692-.232 4.037v.008c-.224 2.414-.694 5.55-1.637 8.659-.941 3.105-2.365 6.219-4.518 8.555a.5.5 0 1 1-.735-.678c2.011-2.181 3.377-5.136 4.296-8.167.917-3.023 1.378-6.087 1.598-8.457.096-1.285.16-2.595.224-3.92.168-3.447.339-6.986 1.115-10.412a.5.5 0 0 1 .598-.377Z" fill="#0C296E"/><g filter="url(#ud08mu5n61oa)"><mask id="ud3ug2pvbbzb" style="mask-type:alpha" maskUnits="userSpaceOnUse" x="194" y="308" width="93" height="24"><path d="M233.482 330.713c0-.319.05-5.576.04-9.818-11.78 2.439-24.49 4.63-38.01 6.621-.05 1.424-.09 2.42-.11 2.908l38.08.289Zm48.031.04c1.53-.518 3.02-1.055 4.48-1.583-1.31-3.246-4.51-11.163-8.13-20.244-12.35 4.431-26.83 8.305-43.11 11.71a803.823 803.823 0 0 1 3.87 10.117h42.89Z" fill="#0C296E" stroke="#0C296E" stroke-linejoin="round"/></mask><g mask="url(#ud3ug2pvbbzb)"><path d="M288.16 303.322a.5.5 0 0 0-.619-.485l-92.893 22.768a.499.499 0 0 0-.358.334l-1.086 3.416a.501.501 0 0 0 .477.651h93.979a.5.5 0 0 0 .5-.5v-26.184Z" fill="#0C296E"/></g></g><path d="M12.337 289.221s0 11.727 30.862 19.604v16.437s-30.862-7.924-30.862-20.437v-15.604Z" fill="#0C296E"/><path d="M80.466 260.971c-40.987 5.346-68.076 18.492-68.076 28.366v15.705c0-9.596 24.983-25.358 68.076-29.813v-14.258Zm201.8-58.606s35.155 8.586 43.174 19.927v14.58s-26.488-16.605-43.174-19.035v-15.472Z" fill="#FFC60A"/><path d="M237.393 251.932a.5.5 0 0 0-.486.017l-6.29 3.81c-8.45 5.11-17.792 8.717-27.56 10.476l-.023.005-6.56 1.5a.499.499 0 0 0-.388.495c.204 12.672-.866 41.332-1.376 55.008-.065 1.749-.121 3.253-.164 4.447a.498.498 0 0 0 .573.513 660.812 660.812 0 0 0 37.679-6.705.5.5 0 0 0 .398-.49c0-.6.139-1.491.286-2.394l.047-.289c.305.765.629 1.584.872 2.205a.5.5 0 0 0 .568.307c16.294-3.423 30.718-7.26 43.097-11.72a.503.503 0 0 0 .295-.655c-3.449-8.677-7.538-19.283-10.518-27.033-2.299-6.128-7.056-12.038-12.644-17.135-5.593-5.103-12.053-9.423-17.806-12.362Z" fill="#0C296E"/><path d="M225.063 297.359a.5.5 0 0 1 .645.29c1.545 4.059 4.063 9.737 6.612 15.433l.742 1.656c2.294 5.124 4.537 10.131 6.021 13.821a.5.5 0 0 1-.928.373c-1.476-3.67-3.71-8.659-6.008-13.788l-.74-1.654c-2.545-5.688-5.077-11.395-6.633-15.486a.5.5 0 0 1 .289-.645Zm8.283-43.494a.499.499 0 0 1 .661-.25c17.254 7.776 26.956 24.999 33.342 42.084 2.743 7.338 7.241 17.494 10.985 25.948 1.085 2.448 2.106 4.754 3.002 6.807a.5.5 0 1 1-.916.4c-.892-2.041-1.909-4.338-2.99-6.78-3.746-8.456-8.263-18.656-11.018-26.025-6.364-17.029-15.945-33.919-32.816-41.523a.499.499 0 0 1-.25-.661Z" fill="#fff"/><path d="M229.847 309.111a.5.5 0 0 1 .5.5c0 2.135-.133 5.95-.266 9.751v.012c-.133 3.814-.266 7.613-.266 9.728a.5.5 0 1 1-1 0c0-2.135.134-5.95.266-9.75l.001-.013c.133-3.814.265-7.612.265-9.728a.5.5 0 0 1 .5-.5Z" fill="#fff"/><path opacity=".5" d="M300.817 330c12.516-10.711 24.256-21.814 24.256-32.189l.164-26.311v-1.653s.078-.541-.359 1.172c-7.801 30.576-65.731 48.407-149.3 58.981h125.239Z" fill="#fff"/><path d="M320.235 309.468c-3.342 5.159-9.273 10.945-19.712 19.531H190.168c37.643-5.369 69.407-12.408 92.746-21.698 21.589-8.592 36.262-19.233 41.437-32.503v18.709c0 6.277-.792 10.832-4.116 15.961Zm-19.354 20.531c21.222-17.423 24.47-23.711 24.47-36.492v-27.749a28.888 28.888 0 0 1-1 5.879c-8.159 29.26-62.591 46.75-141.47 57.362-2.53.341-5.085.674-7.664 1h125.664Z" fill="#0C296E"/><path d="M252.703 31.702c-26.71-5.4-56.31-8.13-81.58-8.13v18.02c25.26 0 54.87 2.73 81.58 8.13v-18.02Zm13.349 3.001v18.02c14.56 3.6 27.78 8.08 38.29 13.41v-18.02c-10.51-5.34-23.73-9.81-38.29-13.41Z" fill="#FFC60A"/><path d="M33.973 329.758a.5.5 0 0 1 .5-.5h282.21a.5.5 0 0 1 0 1H34.473a.5.5 0 0 1-.5-.5Z" fill="#0C296E"/><defs><filter id="ud08mu5n61oa" x="190.902" y="304.426" width="99.591" height="29.58" filterUnits="userSpaceOnUse" color-interpolation-filters="sRGB"><feFlood flood-opacity="0" result="BackgroundImageFix"/><feBlend in="SourceGraphic" in2="BackgroundImageFix" result="shape"/><feGaussianBlur stdDeviation="2" result="effect1_foregroundBlur"/></filter></defs></svg>