<svg width="350" height="350" viewBox="0 0 350 350" fill="none" xmlns="http://www.w3.org/2000/svg"><path d="M327.5 292.902V328.4H190.988c19.484 0 26.558-7.607 36.238-11.376 8.066-3.152 16.133-2.33 20.104-1.85 7.695.822 14.768.891 21.346-1.165 5.708-1.782 8.439-4.866 11.665-7.607 3.227-2.741 7.943-5.619 14.644-6.099 6.702-.479 14.148 1.508 19.857-.068 6.577-1.782 12.658-7.333 12.658-7.333Z" fill="#14C0FF"/><path d="M108.488 45.498c0-4.693 3.808-8.498 8.505-8.498h202.502c4.697 0 8.505 3.805 8.505 8.498v134.514a.5.5 0 0 1-1.001 0V45.498A7.5 7.5 0 0 0 319.495 38H116.993a7.502 7.502 0 0 0-7.505 7.498v79.652c0 .115-.04.227-.113.317l-20.499 24.979a.5.5 0 1 1-.773-.634l20.385-24.841V45.498Zm-13.05 122.375a.5.5 0 0 1 .5-.5h13.05a.5.5 0 0 1 .5.5v32.635a.5.5 0 1 1-1 0v-32.135h-12.55a.5.5 0 0 1-.5-.5Zm28.784 57.064a.5.5 0 0 1 .5-.5h125.819a.5.5 0 1 1 0 1H124.722a.5.5 0 0 1-.5-.5Z" fill="#0C296E"/><path d="M129.8 59.45a4 4 0 0 1 4.002-3.999h46.025a4 4 0 0 1 4.002 4v31.992a4 4 0 0 1-4.002 4h-46.025a4 4 0 0 1-4.002-4V59.45Z" fill="#00D6B9"/><path d="M241.615 55.451H195.59a4 4 0 0 0-4.003 4v31.992a4 4 0 0 0 4.003 4h46.025a4 4 0 0 0 4.002-4V59.45a4 4 0 0 0-4.002-3.999Z" fill="#FFC60A"/><g clip-path="url(#udr2xx1glnea)"><path d="M212.865 90.67c1.719-.557 1.39-4.627 1.467-9.254h9.809c-.12 7.942-.23 8.248 1.357 9.09" fill="#fff"/><path d="M213.831 81.408a.501.501 0 0 1 .501-.492h9.809a.5.5 0 0 1 .5.508l-.021 1.36c-.05 3.113-.076 4.783.055 5.774.073.547.186.812.32.983.139.178.341.314.738.524a.5.5 0 1 1-.469.883c-.397-.21-.776-.43-1.059-.794-.289-.37-.438-.837-.522-1.465-.142-1.07-.114-2.828-.064-5.891l.014-.882h-8.808c-.006.573-.007 1.14-.009 1.694-.003 1.479-.006 2.863-.104 4.002-.072.847-.199 1.612-.439 2.213-.241.605-.627 1.118-1.254 1.321a.5.5 0 1 1-.309-.95c.233-.076.45-.281.633-.741.185-.463.303-1.11.373-1.928.093-1.098.096-2.41.099-3.862.002-.721.004-1.477.016-2.257Z" fill="#0C296E"/><path d="M214.092 87.858a.502.502 0 0 0-.576.005c-.219.156-.587.329-1.101.516-.507.185-1.119.371-1.806.568-.383.11-.789.223-1.21.34-1.075.3-2.247.626-3.376.995-1.57.513-3.116 1.125-4.276 1.903-1.153.774-2.033 1.787-2.033 3.118a.5.5 0 0 0 .5.5h36.775a.5.5 0 0 0 .5-.5c0-1.336-.803-2.362-1.889-3.151-1.085-.789-2.528-1.4-3.992-1.907a68.145 68.145 0 0 0-3.193-.991c-.377-.11-.741-.217-1.085-.32a25.117 25.117 0 0 1-1.686-.557c-.481-.184-.824-.353-1.03-.508l-.3.4-.312-.39a7.909 7.909 0 0 1-9.419.319l-.491-.34Z" fill="#0C296E"/><path d="M219.685 66.287s.011 0 0 0h.011c4.193 0 7.587 3.37 7.587 7.526 0 4.157.219 5.536-7.368 5.536 0 0-.219 1.99-.23 1.99h-.011c-7.587 0-7.554-3.008-7.554-7.165.022-4.157 3.383-7.887 7.565-7.887Z" fill="#fff"/><path d="M225.783 74.766c.351-.514.986-.438 1.292-.142.537.503.471 1.323.383 1.827-.208 1.312-1.149 3.095-2.419 3.095" fill="#fff"/><path d="M226.463 74.89a.323.323 0 0 0-.266.157.5.5 0 0 1-.827-.563c.27-.397.669-.58 1.059-.593.37-.012.737.127.991.37.379.357.529.813.577 1.216.048.4.002.785-.045 1.055a5.713 5.713 0 0 1-.893 2.242c-.455.66-1.139 1.272-2.02 1.272a.5.5 0 0 1 0-1c.388 0 .81-.279 1.196-.839a4.718 4.718 0 0 0 .729-1.835l.001-.007c.041-.233.07-.508.039-.769-.031-.257-.116-.462-.271-.608l-.005-.005a.385.385 0 0 0-.265-.092Z" fill="#0C296E"/><path d="M225.816 77.029c0 2.166-.493 3.041-.92 4.496-.679 2.33-2.222 3.02-3.481 3.665-2.08 1.083-4.861.787-6.481-.69-2.332-2.144-2.803-6.333-2.803-9.834" fill="#fff"/><path d="M212.131 74.166a.5.5 0 0 1 .501.5c0 1.732.117 3.612.513 5.312.399 1.706 1.066 3.178 2.127 4.154 1.451 1.322 4.001 1.61 5.912.614l.003-.001.167-.086c1.215-.619 2.476-1.262 3.062-3.274.1-.341.201-.644.297-.933.329-.993.603-1.817.603-3.423a.5.5 0 0 1 1 0c0 1.778-.328 2.764-.667 3.784-.092.276-.185.555-.272.852-.709 2.432-2.315 3.248-3.549 3.875l-.183.094c-2.249 1.17-5.259.866-7.048-.764l-.002-.002c-1.27-1.168-2.004-2.862-2.424-4.663-.421-1.805-.54-3.77-.54-5.54a.5.5 0 0 1 .5-.499Z" fill="#0C296E"/><path d="M218.099 62.925c-.953-.241-2.076-.207-2.99.354l-.006.004c-.419.267-.822.662-1.003 1.207-.169.45-.077.874.062 1.19-.955.186-1.868.717-2.633 1.464-.567.555-.938 1.078-1.161 1.685-.22.598-.281 1.24-.292 2.001a.499.499 0 0 0 .495.507l.542.006a12.718 12.718 0 0 0 .272 2.867 12.364 12.364 0 0 0 .358 1.35l.027.08.008.022.003.006v.002l.001.001a.5.5 0 0 0 .957-.064l.975-4.348 10.188-.04.018.116c.055.337.139.795.259 1.277.119.479.278.997.484 1.447.157.342.364.695.642.951l.01 2.339a.5.5 0 0 0 .945.227c.839-1.621 1.475-3.54 1.642-5.392.166-1.838-.127-3.67-1.222-5.054-.913-1.361-2.34-2.053-3.49-2.407a9.607 9.607 0 0 0-1.936-.378c-.438-.388-.99-.678-1.517-.895a11.928 11.928 0 0 0-1.638-.525Zm-7.506 7.413h-.012l-.005.5c.003-.176.008-.342.017-.5Zm.011.5.472.007v-.002l-.472-.005Z" fill="#0C296E"/></g><g clip-path="url(#ud35n3ib9btb)"><path d="M150.095 69.01c.533-1.385 1.303-2.72 2.857-3.72 2.967-1.974 6.666-1.519 9.252.096l.007.005c2.194 1.425 3.176 3.306 3.603 5.867l.001.004c.185 1.158.764 2.075 1.441 3.044l.2.286h.001c.611.868 1.274 1.81 1.622 2.953a.103.103 0 0 1 .005.017c.22.823.247 1.666.272 2.442l.001.026c.026.801.052 1.535.238 2.237.232.786.653 1.471 1.162 2.153.228.306.469.605.717.912l.09.112a23.354 23.354 0 0 1 .848 1.104c.632 1.052 1.224 2.518.986 3.83l-.006.027-.003.011c-.112.42-.259.768-.374 1.04l-.001.004c-.125.297-.187.453-.202.569a.192.192 0 0 0-.002.045l.002.012.005.009a.177.177 0 0 0 .03.034c.082.079.281.198.729.347a.5.5 0 0 1-.166.974c-3.126-.05-6.227-.102-9.327-.153l-9.327-.154h-.01c-2.862-.102-10.03-.205-14.024-.205a.5.5 0 0 1-.478-.353c-.168-.545.059-1.125.326-1.596.283-.499.697-1.022 1.117-1.513.235-.274.494-.564.739-.837.18-.2.351-.392.498-.561.383-.44.632-.763.725-.967a.121.121 0 0 1 .008-.017c.398-.795.555-1.258.633-1.728.059-.356.075-.715.099-1.237.01-.213.02-.453.036-.73l.001-.015c.112-1.34.617-2.394 1.245-3.355.3-.459.632-.904.962-1.344l.038-.052c.345-.462.688-.923 1.011-1.42l.003-.005c1.164-1.743 1.665-4.001 1.971-6.242l.002-.015.003-.016c.101-.604.209-1.251.426-1.903l.008-.022Z" fill="#0C296E"/><path d="M163.686 87.712c-.486-.18-.834-.344-1.046-.496a.502.502 0 0 0-.291-.093h-10.25a.501.501 0 0 0-.3.1c-.194.145-.526.304-1.004.477-.47.17-1.04.34-1.683.521l-.72.202c-1.116.311-2.373.662-3.585 1.095-1.478.53-2.94 1.198-4.039 2.11-1.111.923-1.878 2.12-1.878 3.676a.5.5 0 0 0 .5.5h35.668a.5.5 0 0 0 .5-.5c0-1.497-.766-2.662-1.864-3.568-1.089-.898-2.538-1.574-4.01-2.12-1.216-.45-2.48-.821-3.604-1.151l-.694-.206a29.023 29.023 0 0 1-1.7-.547Z" fill="#3370FF"/><path d="M152.202 87.52c.513-.41 1.333-1.331 1.333-5.633l7.892-5.223c-.103 6.452-.615 9.832.82 10.754-3.178 3.072-7.175 2.97-10.045.102Z" fill="#fff"/><path d="M161.667 76.225a.501.501 0 0 0-.517.022l-7.892 5.223a.5.5 0 0 0-.224.417c0 2.126-.203 3.372-.449 4.12-.237.722-.511.975-.695 1.123a.5.5 0 0 0-.042.744c1.517 1.515 3.357 2.322 5.261 2.322s3.818-.806 5.485-2.42a.5.5 0 0 0-.077-.779c-.218-.14-.403-.395-.536-.875-.135-.486-.202-1.146-.221-2.018-.022-.998.018-2.205.066-3.66.037-1.108.078-2.36.101-3.772a.5.5 0 0 0-.26-.447Zm-.759 1.382c-.022.993-.053 1.913-.08 2.758-.049 1.488-.09 2.744-.068 3.76.019.895.087 1.656.257 2.265.108.39.264.74.492 1.025-1.405 1.214-2.93 1.781-4.4 1.781-1.464 0-2.917-.563-4.188-1.686.216-.264.432-.635.615-1.191.28-.854.481-2.143.498-4.163l6.874-4.55Z" fill="#0C296E"/><path d="M157.58 65.969c3.775 0 6.902 2.91 6.902 6.573 0 3.664-.863 4.419-2.696 4.419l-4.206 2.155c-6.794 0-6.794-2.586-6.794-6.25s3.019-6.897 6.794-6.897Z" fill="#fff" stroke="#0C296E" stroke-miterlimit="10" stroke-linecap="round" stroke-linejoin="round"/><path d="M150.836 72.059c-.321 2.136-.428 4.699.107 6.728.534 2.35 2.244 3.845 4.703 4.166a5.562 5.562 0 0 0 4.062-1.389c1.068-.961 2.137-2.243 2.351-4.486" fill="#fff"/><path d="M150.91 71.564a.5.5 0 0 0-.569.42c-.324 2.16-.442 4.798.116 6.922.586 2.561 2.473 4.197 5.124 4.542a6.06 6.06 0 0 0 4.461-1.513c1.123-1.009 2.285-2.397 2.515-4.81a.5.5 0 0 0-.996-.094c-.198 2.074-1.173 3.249-2.188 4.162a5.062 5.062 0 0 1-3.677 1.262c-2.255-.299-3.781-1.65-4.265-3.778l-.004-.017c-.509-1.933-.413-4.417-.096-6.527a.5.5 0 0 0-.421-.569Zm.78-3.707a20.4 20.4 0 0 1-.434-.247l.001-.003.003-.004.008-.015.029-.046a5.595 5.595 0 0 1 .518-.678 6.416 6.416 0 0 1 1.697-1.352c1.567-.86 3.935-1.295 7.195.147l.002.001c1.66.744 2.653 2.27 3.191 3.855.537 1.584.646 3.297.484 4.547-.032.28-.107.538-.249.76a1.335 1.335 0 0 1-.578.492c-.422.194-.968.212-1.515.212a.695.695 0 0 1-.408-.138 1.165 1.165 0 0 1-.21-.202 4.416 4.416 0 0 1-.225-.307l-.053-.078a1.722 1.722 0 0 0-.219-.269.292.292 0 0 0-.038-.03.5.5 0 0 1-.471-.442.548.548 0 0 0-.145-.09c-.198-.094-.509-.179-.94-.265a33.849 33.849 0 0 0-.975-.171c-.679-.114-1.463-.245-2.213-.429-1.174-.288-2.408-.734-3.354-1.547-.969-.832-1.601-2.02-1.601-3.7a.5.5 0 0 1 .066-.248l.434.247Z" fill="#0C296E"/><path d="M161.098 76.886c.41 0 1.127-.205 1.537-.41.513-.307.82-.82.923-1.434.102-.41 0-1.741-1.333-1.741-.512 0-1.23.717-1.435.82" fill="#fff"/><path d="M162.976 74.229a1.236 1.236 0 0 1 .088.73c-.081.49-.313.858-.67 1.078-.167.081-.408.17-.659.238-.266.072-.498.11-.637.11a.5.5 0 0 0 0 1c.27 0 .602-.064.9-.145a4.92 4.92 0 0 0 .861-.317l.034-.019c.653-.392 1.03-1.036 1.155-1.763.072-.313.06-.853-.165-1.335a1.709 1.709 0 0 0-.594-.706c-.287-.193-.644-.3-1.064-.3-.236 0-.456.08-.629.164a3.422 3.422 0 0 0-.494.301 8.758 8.758 0 0 0-.382.29 5.21 5.21 0 0 1-.145.111l-.008.007a.499.499 0 1 0 .447.894c.102-.05.225-.148.309-.213a.53.53 0 0 1 .902-.553c.246 0 .403.06.506.129a.71.71 0 0 1 .245.299Z" fill="#0C296E"/></g><path d="M303.403 55.451h-46.026a4 4 0 0 0-4.002 4v31.992a4 4 0 0 0 4.002 4h46.026a4 4 0 0 0 4.002-4V59.45a4 4 0 0 0-4.002-3.999Z" fill="#3370FF"/><path d="M129.571 106.007a4 4 0 0 1 4.002-3.999h170.059a4 4 0 0 1 4.002 3.999v85.553h-39.823a2 2 0 0 0-2.001 2v13.613H133.573a4 4 0 0 1-4.002-3.999v-97.167Z" fill="#14C0FF"/><g filter="url(#ud0scl05wtvc)"><path d="M264.676 191.93h42.958v16.667h-42.958V191.93Z" fill="#14C0FF"/></g><path d="M12 262.357a.5.5 0 0 1 .5-.5h56.923a.5.5 0 0 1 0 1H12.5a.5.5 0 0 1-.5-.5Zm39.687-132.294a6.972 6.972 0 0 1 6.981-6.971c3.859 0 6.982 3.103 6.982 6.958a6.93 6.93 0 0 1-.721 3.089c2.716.122 5.108 1.012 7.12 2.285 3.988 2.522 6.48 6.542 7.055 8.965.38 1.573.98 3.275 1.607 5.055.27.768.546 1.55.811 2.343.87 2.599 1.62 5.29 1.593 7.77-.019 2.373.142 3.818.802 5.203.67 1.404 1.875 2.793 4.072 4.993 1.198 1.2 1.777 2.774 1.992 4.414.215 1.638.07 3.374-.21 4.946a28.684 28.684 0 0 1-1.045 4.042 27.577 27.577 0 0 1-.58 1.571l-.016.038-.022.052-.01.024-.003.006v.002s-.001.001-.46-.197l.459.198a.5.5 0 0 1-.46.302H31.527a.5.5 0 0 1-.495-.433l-.017-.124c-.498-3.67-1.01-7.444-.659-11.214.342-3.802 1.686-7.73 4.302-9.946a13.993 13.993 0 0 1 1.53-1.102l.435-.277c.37-.233.726-.459 1.075-.703.953-.666 1.75-1.406 2.215-2.531.373-.92.475-1.986.584-3.131l.041-.425c.04-.393.083-.796.147-1.196-.064.345-.113.708-.157 1.086l-.05.428c-.127 1.131-.267 2.372-.79 3.453l-.001.004c-.693 1.398-1.863 2.273-3.081 2.985a37.09 37.09 0 0 1-1.362.745v.001l-.492.26c-.613.329-1.198.66-1.731 1.038-2.804 1.993-4.356 5.644-4.774 9.337-.411 3.634.183 7.291.784 10.993l.028.174a.5.5 0 0 1-.988.16l-.037-.233c-.595-3.658-1.208-7.434-.78-11.206.435-3.85 2.065-7.821 5.187-10.039.586-.416 1.217-.772 1.838-1.105l.514-.273c.448-.237.884-.467 1.308-.715 1.161-.679 2.126-1.431 2.688-2.564.442-.915.563-1.974.695-3.128l.05-.433c.151-1.273.366-2.65 1.225-3.748.77-.98 1.849-1.469 2.868-1.866.175-.068.348-.133.518-.198.855-.323 1.641-.621 2.312-1.116.154-.115.3-.239.441-.372.299-.391.564-.842.815-1.337.27-.534.509-1.086.753-1.651.132-.306.265-.616.407-.929l.002-.003c1.452-3.15 3.48-6.065 6.13-7.829a6.946 6.946 0 0 1-3.317-5.925Z" fill="#0C296E"/><path d="m82.397 193.832 10.333-3.395 3.48 11.4h-8.24l-1.863 4.653-3.71-12.658Z" fill="#fff"/><path d="M93.047 188.955a.5.5 0 0 1 .239.31l2.99 11.621a.5.5 0 1 1-.97.249l-2.86-11.117-9.847 2.942c.466 1.257.953 2.957 1.479 4.846l.28 1.013c.528 1.904 1.099 3.965 1.734 5.986a.5.5 0 1 1-.954.3c-.641-2.039-1.217-4.119-1.744-6.023l-.28-1.009c-.606-2.175-1.14-4.026-1.64-5.248a.5.5 0 0 1 .319-.668l10.865-3.246a.5.5 0 0 1 .39.044Z" fill="#0C296E"/><path d="M87.97 201.838h44.341l-14.119 34.187H74.285l13.686-34.187Z" fill="#BBBFC4" fill-opacity=".45"/><path d="M73.689 171.865c-2.277-.607-3.092-3.423-3.092-10.256l-12.55-8.203c.22 10.282.92 15.333-1.319 17.077-.505.4-.453.413-2.316 1.111l-1.966 2.428 5.123 5.981 12.342-1.033 3.079-5.18 1.54-1.615-.841-.31Z" fill="#fff"/><path d="M57.805 152.969a.5.5 0 0 1 .517.019l12.549 8.202c.141.093.226.25.226.419 0 3.412.205 5.761.671 7.32.459 1.534 1.137 2.21 2.05 2.453a.65.65 0 0 1 .044.014l.84.31a.5.5 0 0 1 .19.814l-1.5 1.574-3.05 5.131a.501.501 0 0 1-.389.243l-12.342 1.033a.502.502 0 0 1-.422-.173l-5.123-5.981a.499.499 0 0 1-.009-.639l1.967-2.429a.499.499 0 0 1 .213-.153c.94-.352 1.365-.52 1.62-.647.197-.098.276-.161.466-.313a4.47 4.47 0 0 0 .094-.075l.004-.002c.449-.35.78-.885 1.007-1.699.229-.82.343-1.888.382-3.258.048-1.714-.023-3.832-.11-6.436-.052-1.576-.11-3.33-.152-5.279a.5.5 0 0 1 .257-.448Zm.765 1.376c.038 1.54.085 2.961.129 4.268.088 2.635.16 4.805.11 6.547-.038 1.396-.155 2.561-.418 3.499-.264.944-.684 1.695-1.353 2.217l-.086.068c-.196.157-.353.283-.65.431-.296.147-.746.324-1.586.639l-1.62 1.999 4.687 5.47 11.83-.99 2.947-4.959a.497.497 0 0 1 .068-.089l1.015-1.064-.106-.039c-1.351-.37-2.212-1.403-2.727-3.127-.498-1.664-.702-4.054-.713-7.336l-11.527-7.534Z" fill="#0C296E"/><path d="M64.917 136.846c-.013 0-.013 0 0 0h-.026c-5.693 0-10.298 4.43-10.298 9.907 0 5.464 1.32 6.653 3.997 6.653l6.3 3.255h.014c10.298 0 10.246-3.966 10.246-9.43.013-5.477-4.554-10.385-10.233-10.385Z" fill="#fff" stroke="#0C296E" stroke-linecap="round" stroke-linejoin="round"/><path d="M75.085 145.861c.466 3.32.608 7.195-.142 10.218-.88 3.552-3.39 5.89-7.167 6.278-2.225.232-4.515-.607-6.184-2.08-1.669-1.473-3.3-3.449-3.545-6.872" fill="#fff"/><path d="M75.016 145.366a.5.5 0 0 1 .565.426c.469 3.343.62 7.293-.152 10.407-.928 3.747-3.604 6.245-7.602 6.655-2.38.248-4.805-.648-6.566-2.202-1.727-1.524-3.454-3.612-3.713-7.211a.5.5 0 0 1 .998-.072c.233 3.247 1.766 5.112 3.377 6.533 1.577 1.391 3.73 2.174 5.8 1.957 3.558-.364 5.903-2.543 6.734-5.9.728-2.931.595-6.732.133-10.028a.5.5 0 0 1 .426-.565Z" fill="#0C296E"/><path d="M71.41 148.302a.501.501 0 0 1 .623.336l1.267 4.235c.174.57-.334.997-.813.923l-.03-.005-.905-.194a.499.499 0 1 1 .21-.977l.447.095-1.135-3.791a.5.5 0 0 1 .336-.622Z" fill="#0C296E"/><path d="M56.312 169.904a.5.5 0 0 1 .566.185l.005.007.022.03c.02.028.053.069.096.124.087.11.22.27.399.469.358.396.898.942 1.622 1.529a15.692 15.692 0 0 0 6.52 3.145c2.41.526 4.17.287 5.388-.388 1.21-.67 1.958-1.81 2.27-3.247a.501.501 0 0 1 .62-.376l4.818 1.303.005.001.019.005.072.018.271.071a60.445 60.445 0 0 1 4.147 1.268c1.208.419 2.505.92 3.668 1.477 1.152.552 2.212 1.178 2.912 1.859.273.268.52.65.747 1.082.229.44.451.962.666 1.535.43 1.145.842 2.525 1.22 3.911.326 1.196.63 2.406.9 3.484l.128.507c.304 1.208.555 2.183.745 2.737a.5.5 0 0 1-.285.624l-.569.232-.013.005-9.706 3.647c.03 2.37-.527 4.992-1.965 7.994l-5.84 15.056a.5.5 0 0 1-.467.32h-27.93a.5.5 0 0 1-.5-.481l-.982-25.643-1.34 6.504a.5.5 0 0 1-.674.364l-10.57-4.146a.5.5 0 0 1-.312-.536c.269-1.887.364-3.599.455-5.234.035-.628.07-1.245.112-1.856.155-2.188.425-4.275 1.275-6.395 1.477-3.693 4.036-7.246 9.74-8.783 1.392-.377 3.012-.632 4.691-.897l.96-.152c2.033-.328 4.13-.707 6.094-1.359Z" fill="#14C0FF"/><path d="m44.72 198.088-1.602 8.986s18.514-13.238 19.38-15.137c1.346-3.307 1.579-10.024 1.579-10.024.931-2.273 1.876-4.547 2.807-6.82.414-1.008.841-2.028 1.553-2.842.194-.22.737-.465.737-.168.026.607-.57 2.519-1.126 3.823 0 0 3.105-5.296 4.18-6.768 1.021-1.292.788 1.485.297 2.351 0 0 .931-1.757 1.475-1.408.465.31-.298 1.782-.298 1.782-1.734 4.289-3.79 6.239-4.166 11.897 0 0 3.196-5.942 3.765-5.322.453.439-1.23 4.767-1.746 5.929-1.605 3.565-3.157 7.053-5.887 10.657 0 0-14.153 17.064-16.948 19.854-3.738 3.746-7.749 6.859-11.63 4.973-3.648-1.77-5.822-5.206-5.033-12.517.401-3.449 1.035-9.274 1.45-12.723l11.212 3.477Z" fill="#fff"/><path d="M69.851 171.919c.757-1.238 1.528-2.466 1.972-3.076a.78.78 0 0 1 .012-.015c.142-.18.305-.346.492-.441a.742.742 0 0 1 .37-.086.668.668 0 0 1 .392.149c.189.152.263.374.298.519.04.164.055.348.057.529v.134c.22-.105.523-.166.826.028l.007.005c.342.227.38.615.373.842a2.776 2.776 0 0 1-.149.736 6.011 6.011 0 0 1-.317.776l-.026.052a37.142 37.142 0 0 1-1.339 2.89l-.255.503c-.353.693-.689 1.351-.998 2.039a16.62 16.62 0 0 0-1.224 3.824c.142-.238.289-.482.438-.723.437-.707.903-1.414 1.304-1.91.195-.242.4-.466.598-.609a.97.97 0 0 1 .398-.182.643.643 0 0 1 .58.187.75.75 0 0 1 .19.366c.025.11.03.223.028.327a4.021 4.021 0 0 1-.096.706c-.108.514-.3 1.154-.516 1.801a42.914 42.914 0 0 1-1.254 3.28l-.001.002-.078.173c-1.575 3.502-3.142 6.985-5.866 10.581l-.013.017-.386-.319.385.32-.614.738-1.641 1.972a1675.208 1675.208 0 0 1-5.173 6.173c-3.878 4.603-8.133 9.589-9.55 11.004-1.875 1.879-3.858 3.641-5.886 4.689-2.043 1.056-4.189 1.415-6.317.381-1.912-.927-3.462-2.307-4.418-4.425-.95-2.104-1.294-4.889-.894-8.595v-.005c.168-1.442.378-3.306.594-5.238.3-2.677.616-5.485.856-7.487a.501.501 0 0 1 .645-.418l11.213 3.477a.5.5 0 0 1 .344.565l-1.385 7.774a564.468 564.468 0 0 0 8.356-6.132c2.367-1.772 4.757-3.6 6.606-5.102a50.64 50.64 0 0 0 2.289-1.95c.289-.267.52-.495.69-.682a2.01 2.01 0 0 0 .272-.347c.641-1.583 1.03-4.019 1.255-6.105a59.947 59.947 0 0 0 .28-3.662l.001-.055.001-.018a.49.49 0 0 1 .037-.172c.466-1.137.935-2.274 1.403-3.41l.001-.002c.47-1.137.938-2.273 1.404-3.409.409-.996.863-2.095 1.638-2.981l.002-.002a1.61 1.61 0 0 1 .663-.423.873.873 0 0 1 .498-.025.62.62 0 0 1 .3.189.506.506 0 0 1 .328.258Zm3.407-.285-.1-.238a6.054 6.054 0 0 0-.155.262l-.014.025-.029.052a.5.5 0 0 1-.44.254c-.405 1.028-.889 1.893-1.375 2.728l-.208.355c-.632 1.079-1.247 2.128-1.731 3.483a.5.5 0 0 1-.942-.336c.517-1.448 1.178-2.575 1.808-3.649l.001-.003.207-.353c.678-1.164 1.309-2.319 1.737-3.873a123.51 123.51 0 0 0-1.853 2.991c-.454.753-.876 1.46-1.183 1.979l-.058.097c-.087.202-.173.397-.252.577-.096.217-.183.414-.252.58-.421 1.013-.69 2.092-.738 3.175v.002c-.025.482 0 .974.038 1.482l.033.423c.03.37.06.751.075 1.122.04 1.037-.038 2.124-.644 3.134a.5.5 0 0 1-.858-.514c.455-.759.54-1.61.502-2.581-.014-.349-.042-.698-.07-1.061a63.356 63.356 0 0 1-.036-.449 12.985 12.985 0 0 1-.04-1.605c.055-1.216.356-2.409.814-3.513l.001-.003.066-.154a.5.5 0 0 1 .026-.313c.27-.633.552-1.42.763-2.121.07-.233.13-.454.18-.654-.489.677-.83 1.484-1.184 2.347-.466 1.137-.935 2.275-1.404 3.411-.457 1.11-.915 2.219-1.37 3.328l-.009.211a60.914 60.914 0 0 1-.274 3.506c-.227 2.094-.626 4.662-1.328 6.387l-.008.019c-.09.195-.26.408-.446.612-.197.216-.452.467-.752.744a51.56 51.56 0 0 1-2.336 1.991c-1.865 1.514-4.267 3.352-6.637 5.126a566.86 566.86 0 0 1-9.165 6.713l-.208.149-.292-.405.291.406a.5.5 0 0 1-.783-.494l1.524-8.552-10.218-3.168c-.229 1.94-.511 4.458-.782 6.873-.217 1.933-.426 3.799-.595 5.251-.389 3.603-.04 6.191.81 8.075.846 1.87 2.207 3.094 3.944 3.936 1.752.852 3.552.597 5.42-.369 1.882-.973 3.774-2.64 5.637-4.507 1.378-1.376 5.597-6.317 9.494-10.942a1694.537 1694.537 0 0 0 6.81-8.14l.606-.73c2.65-3.502 4.177-6.892 5.758-10.408l.064-.141c.252-.566.796-1.924 1.22-3.191.188-.564.348-1.098.45-1.531-.34.439-.741 1.047-1.137 1.687-.43.696-.844 1.413-1.15 1.958a57.966 57.966 0 0 0-.469.845l-.026.049-.007.012-.001.003a.5.5 0 0 1-.94-.269c.191-2.895.817-4.855 1.616-6.634.32-.712.669-1.397 1.023-2.092l.25-.491a35.852 35.852 0 0 0 1.33-2.876Zm-.83-1.746a.522.522 0 0 0-.15.056c.057-.085.11-.165.162-.24-.003.06-.007.121-.013.184Zm1.457.64-.007.003.007-.003Zm-.237-.119-.002-.007v.001l.002.006Z" fill="#0C296E"/><path d="M43.522 206.774a.499.499 0 0 1-.023.706l-3.406 3.185a.5.5 0 0 1-.684-.731l3.406-3.184a.5.5 0 0 1 .707.024Z" fill="#0C296E"/><path d="M138.841 296.917c18.215 13.163 21.838 16.354 21.838 16.354 4.515 3.681 5.55 5.283 5.847 6.109.308.874-.062 2.216-.431 3.556-.625 2.266-1.249 4.531 1.401 4.531 4.218 0 20.674.284 31.114.271.738 0 1.178-.84.751-1.434l-5.02-2.273c-9.134-3.656-14.192-6.537-18.138-9.094-2.608-1.689-4.867-3.709-7.283-5.632-10.337-9.224-17.929-17.093-25.913-25.367l-4.166 12.979Z" fill="#fff"/><path d="M198.266 328.349c-6.443 0-15.068-.1-21.421-.18-4.093-.05-7.424-.09-9.005-.09a2.446 2.446 0 0 1-2.001-.79c-.771-1-.331-2.65.15-4.369.34-1.25.7-2.53.44-3.26-.42-1.169-2.341-3.149-5.693-5.888-.05 0-3.862-3.359-21.812-16.337a.474.474 0 0 1-.18-.56l4.162-12.997a.483.483 0 0 1 .36-.33.516.516 0 0 1 .48.14c8.005 8.289 15.559 16.127 25.885 25.335.63.51 1.27 1 1.901 1.559a60.965 60.965 0 0 0 5.313 4 97.835 97.835 0 0 0 18.06 8.998l5.002 2.289a.45.45 0 0 1 .2.16 1.373 1.373 0 0 1 .11 1.45 1.405 1.405 0 0 1-1.26.77l-.691.1Zm-58.502-31.514c17.77 12.858 21.432 16.047 21.582 16.177 4.713 3.839 5.673 5.439 6.003 6.319.331.879 0 2.399-.42 3.849-.42 1.449-.79 2.869-.31 3.499a1.486 1.486 0 0 0 1.231.4c1.591 0 4.932 0 9.005.09 6.583.08 15.598.18 22.092.18a.428.428 0 0 0 .37-.22.463.463 0 0 0 0-.32l-4.873-2.21a98.234 98.234 0 0 1-18.2-9.128 60.694 60.694 0 0 1-5.403-4.099c-.63-.52-1.27-.999-1.921-1.559-10.115-8.998-17.569-16.727-25.374-24.815l-3.782 11.837Z" fill="#0C296E"/><path d="M204.402 328.551c.081-.792-.251-1.526-.792-2.1-.539-.573-1.304-1.012-2.175-1.247l-8.7-2.648a.501.501 0 0 0-.479.106c-2.907 2.6-6.536 2.909-11.086 1.729-4.568-1.185-9.95-3.842-16.251-7.032a.5.5 0 0 0-.724.392l-.094.855c-.373 3.387-.672 6.101.106 9.28a.5.5 0 0 0 .476.381l39.212.733a.5.5 0 0 0 .507-.449Z" fill="#0C296E"/><path d="M117.882 243.723c-73.187-18.697-108.307 24.055-14.179 17.528h3.156c-10.811 10.061-15.17 16.934-22.535 30.069-4.043 7.212-12.507 20.785-14.877 24.48-2.37 3.695-7.084 11.285.464 11.138l31.393.819c1.306-.013.075-1.783-1.076-2.39-1.413-.736-3.505-1.504-6.686-2.215-2.996-.669-15.12-4.686-12.614-7.352 0 0 17.846-21.351 34.535-39.539 5.834-6.368 13.105-15.19 13.105-22.993 0-4.947-5.563-8.241-10.686-9.545Z" fill="#fff"/><path d="M56.068 258.16c8.71 2.77 24.089 4.223 47.6 2.593l.02-.001.015-.001h3.157a.5.5 0 0 1 .341.866c-10.758 10.011-15.087 16.833-22.44 29.947-4.051 7.225-12.521 20.809-14.892 24.506-1.198 1.867-2.913 4.611-3.42 6.85-.255 1.12-.176 1.982.267 2.552.439.564 1.36 1.002 3.185.966l.023.001 31.383.818.043-.002a1.15 1.15 0 0 0-.1-.228c-.241-.434-.765-.959-1.255-1.217-1.362-.71-3.408-1.465-6.562-2.17-1.533-.342-5.346-1.525-8.47-2.961-1.555-.714-2.989-1.514-3.88-2.331-.443-.406-.805-.863-.938-1.366-.145-.542-.005-1.067.409-1.513l.195-.234.596-.709a1496.697 1496.697 0 0 1 10.213-12.001c6.55-7.613 15.187-17.502 23.536-26.602 2.913-3.178 6.165-6.95 8.688-10.89 2.53-3.95 4.286-8.007 4.286-11.765 0-2.266-1.271-4.197-3.232-5.746-1.961-1.55-4.563-2.675-7.077-3.315-18.245-4.661-34.103-5.488-46.152-4.218-6.025.635-11.089 1.793-15.018 3.253-3.942 1.464-6.693 3.214-8.152 4.998-.725.886-1.115 1.762-1.198 2.602-.082.834.135 1.678.703 2.522 1.156 1.715 3.758 3.407 8.126 4.796Zm24.86 57.64.385.32a.277.277 0 0 1-.02.022c-.205.219-.23.398-.181.583.06.231.259.53.647.886.77.706 2.084 1.453 3.622 2.16 3.06 1.406 6.806 2.566 8.27 2.893 3.208.717 5.344 1.497 6.808 2.26l.002.001c.662.349 1.329 1.013 1.664 1.618.157.282.313.678.205 1.057a.847.847 0 0 1-.402.51 1.268 1.268 0 0 1-.619.147h-.018l-31.382-.819c-1.941.036-3.258-.42-3.983-1.352-.72-.927-.73-2.166-.454-3.387.555-2.443 2.382-5.341 3.554-7.169 2.368-3.692 10.826-17.256 14.862-24.454 7.164-12.778 11.51-19.676 21.708-29.325h-1.876c-23.542 1.631-39.066.188-47.955-2.638-4.432-1.409-7.304-3.19-8.653-5.19-.683-1.014-.976-2.088-.869-3.179.107-1.084.604-2.14 1.42-3.137 1.622-1.984 4.566-3.812 8.578-5.302 4.024-1.495 9.172-2.669 15.26-3.31 12.18-1.284 28.157-.444 46.505 4.243 2.609.665 5.35 1.839 7.451 3.499 2.101 1.661 3.612 3.851 3.612 6.531 0 4.045-1.879 8.3-4.444 12.304-2.571 4.014-5.871 7.837-8.793 11.027-8.339 9.088-16.97 18.968-23.515 26.578a1489.09 1489.09 0 0 0-10.206 11.992l-.594.708-.204.242-.384-.319Z" fill="#0C296E"/><path d="M85.5 249.203a.5.5 0 0 0-.507.798l24.028 30.096 15.235 25.778a.501.501 0 0 0 .494.242c7.198-.909 14.145-5.312 19.257-9.436a75.324 75.324 0 0 0 6.162-5.575 62.16 62.16 0 0 0 2.251-2.397l.033-.037.03-.035.01-.012.001-.001a.5.5 0 0 0-.015-.666l-27.298-29.142a.5.5 0 0 0-.248-.144l-39.432-9.469Z" fill="#0C296E"/><path d="M46.872 217.492a.5.5 0 0 0-.38.175l.38.325-.38-.324-.003.002-.007.008-.026.031-.1.12a52.877 52.877 0 0 0-1.692 2.185 61.355 61.355 0 0 0-3.925 6.075c-2.8 4.969-5.523 11.568-5.01 17.903.256 3.18 1.33 6.294 3.61 9.087 2.279 2.79 5.74 5.233 10.73 7.113 9.819 3.701 25.636 5.257 50.304 2.951-.464.658-1.215 1.768-2.405 3.62-2.535 3.942-7.07 11.257-15.072 24.758a.5.5 0 0 0 .04.568l.001.001.003.003.008.01.033.04.126.151c.11.132.274.323.49.567a48.409 48.409 0 0 0 1.908 2.024 62.892 62.892 0 0 0 7.27 6.244c6.283 4.617 15.338 9.47 26.381 10.345a.499.499 0 0 0 .527-.388l12.399-54.846v-.003c.741-3.117.373-5.828-.761-8.167-1.131-2.329-3.006-4.258-5.234-5.851-4.447-3.18-10.393-5.088-14.99-6.182a.504.504 0 0 0-.116-.014H74.294l6.142-15.343a.5.5 0 0 0-.202-.611l-4.05-2.502a.499.499 0 0 0-.263-.075H46.872Z" fill="#0C296E"/><path d="M66.441 230.742a.5.5 0 0 1 .571-.418l7.385 1.146a.5.5 0 1 1-.154.988l-7.384-1.145a.5.5 0 0 1-.418-.571Zm35.186 31.868a.5.5 0 0 1-.053.552l-3.038 3.716a.501.501 0 0 1-.775-.633l2.279-2.788c-1.696.16-3.356.303-4.979.431a.5.5 0 1 1-.078-.997c1.995-.157 4.046-.338 6.155-.543a.499.499 0 0 1 .489.262Zm28.331.494c.27.061.439.329.377.598l-8.512 37.466a.5.5 0 0 1-.975-.222l8.512-37.465a.5.5 0 0 1 .598-.377Z" fill="#fff"/><path fill-rule="evenodd" clip-rule="evenodd" d="M58.448 136.192a.5.5 0 0 0-.474.305l-4.321 10.257a.498.498 0 0 0 .006.401l3.713 8.125a.5.5 0 0 0 .955-.229l-.252-5.835a37.118 37.118 0 0 0 2.393-.42 21.33 21.33 0 0 0 2.316-.608c.723-.242 1.414-.541 1.878-.916l.001-.001c.282-.23.694-.667 1.133-1.161.447-.504.947-1.098 1.414-1.663.468-.566.905-1.107 1.225-1.506l.074-.093c.14.226.312.498.502.784.487.736 1.133 1.64 1.672 2.105l.002.002c.427.363 1.038.637 1.666.849.638.215 1.342.381 1.99.506.65.127 1.254.214 1.694.27.22.028.401.048.527.062l.146.015.04.003.01.001.004.001a.501.501 0 0 0 .544-.498v-2.844c-.007-1.638-.751-3.514-1.87-4.976-1.112-1.452-2.685-2.611-4.42-2.614l-12.568-.322Z" fill="#0C296E"/><path d="M59.186 153.871c-.724-.038-1.863-.284-2.484-.671-.763-.478-1.358-1.357-1.5-2.261-.09-.568 0-2.712 2.057-2.712.828 0 1.565.723 1.914.994" fill="#fff"/><path d="M55.882 149.572c-.221.5-.22 1.078-.186 1.288v.001c.12.758.628 1.512 1.272 1.915.246.154.629.296 1.06.406.426.107.86.173 1.185.19a.5.5 0 1 1-.053.998 7.534 7.534 0 0 1-1.377-.219c-.474-.12-.971-.294-1.346-.527v-.001c-.883-.553-1.564-1.556-1.73-2.606l.495-.078-.494.079a3.61 3.61 0 0 1 .26-1.85c.16-.366.413-.732.8-1.005.39-.277.885-.436 1.49-.436.556 0 1.045.239 1.41.476.266.172.519.382.683.518.053.044.098.081.13.105a.5.5 0 0 1-.615.79 8.92 8.92 0 0 1-.207-.169 5.26 5.26 0 0 0-.536-.405c-.298-.194-.592-.316-.864-.316-.423 0-.71.109-.913.252a1.401 1.401 0 0 0-.464.594Z" fill="#0C296E"/><path d="M105.728 221.877a2.429 2.429 0 1 0-2.43-2.428 2.429 2.429 0 0 0 2.43 2.428Z" fill="#fff"/><path d="M45.19 172.717a.501.501 0 0 0-.624-.405c-5.704 1.538-8.262 5.091-9.74 8.784-.85 2.12-1.12 4.206-1.274 6.394-.043.611-.078 1.228-.112 1.856-.091 1.636-.186 3.347-.455 5.234a.5.5 0 0 0 .331.543l11.934 4.133a.504.504 0 0 0 .652-.363l1.998-8.854a.497.497 0 0 0 .006-.188l-2.715-17.134Z" fill="#14C0FF"/><path d="M47.454 190.767a.5.5 0 0 1 .383.594l-1.627 7.528a.5.5 0 0 1-.978-.211l1.627-7.528a.5.5 0 0 1 .595-.383Zm35.264-2.844a.5.5 0 0 1 .591.387c.66 3.173 1.155 6.659.508 10.087a.5.5 0 0 1-.982-.186c.609-3.226.148-6.553-.505-9.697a.5.5 0 0 1 .388-.591Zm23.128 140.626c.081-.792-.251-1.525-.792-2.1-.539-.572-1.305-1.011-2.175-1.247l-8.7-2.647a.5.5 0 0 0-.48.106c-2.928 2.619-6.22 3.099-10.384 2.123-4.204-.986-9.224-3.441-15.527-6.632a.5.5 0 0 0-.67.213c-.934 1.777-1.63 3.281-1.98 4.779-.355 1.513-.352 2.999.074 4.74.054.221.25.377.477.382l39.65.732a.5.5 0 0 0 .507-.449Zm158.758-132.62a4.5 4.5 0 0 1 4.502-4.499h54.392a4.5 4.5 0 0 1 4.502 4.499v74.248a4.5 4.5 0 0 1-4.502 4.499h-54.392a4.5 4.5 0 0 1-4.502-4.499v-74.248Zm4.502-3.5a3.501 3.501 0 0 0-3.502 3.5v74.248a3.5 3.5 0 0 0 3.502 3.499h54.392a3.5 3.5 0 0 0 3.502-3.499v-74.248c0-1.933-1.568-3.5-3.502-3.5h-54.392Z" fill="#0C296E"/><path d="m291.139 217.361 16.516 9.878c2.592 1.55 2.596 5.301.008 6.857l-16.515 9.934c-2.668 1.604-6.066-.315-6.066-3.427v-19.811c0-3.106 3.39-5.026 6.057-3.431Z" fill="#00D6B9"/><path d="m290.625 218.219 16.516 9.877c1.944 1.163 1.947 3.976.006 5.144l-16.515 9.933c-2.001 1.204-4.55-.236-4.55-2.57v-19.811c0-2.33 2.543-3.77 4.543-2.573Zm17.03 9.02-16.516-9.878c-2.667-1.595-6.057.325-6.057 3.431v19.811c0 3.112 3.398 5.031 6.066 3.427l16.515-9.934c2.588-1.556 2.584-5.307-.008-6.857Z" fill="#00D6B9"/><path d="M194.239 140.084c0-1.918 1.628-3.473 3.637-3.473h25.459c2.008 0 3.637 1.555 3.637 3.473v4.124l6.761-3.425c2.424-1.303 4.149-.376 4.149 2.28v18.188c0 2.656-1.725 3.867-4.149 2.565l-6.761-3.546v4.124c0 1.918-1.629 3.473-3.637 3.473h-25.459c-2.009 0-3.637-1.555-3.637-3.473v-24.31Zm10.911 10.419c2.008 0 3.637-1.555 3.637-3.473s-1.629-3.473-3.637-3.473c-2.009 0-3.637 1.555-3.637 3.473s1.628 3.473 3.637 3.473Z" fill="#fff"/><g clip-path="url(#udh0q0imr9ud)"><path d="M271.88 78.954a.5.5 0 0 1 .509-.213c3.449.655 6.3 2.838 8.703 5.753 2.403 2.915 4.392 6.6 6.113 10.341a.5.5 0 0 1-.455.71l-21.412-.035a.5.5 0 0 1-.489-.398c-.151-.725-.027-1.461.219-2.148s.625-1.355 1.023-1.958c.391-.593.812-1.14 1.162-1.595l.021-.027c.371-.482.623-.816.727-1.022.377-.746.518-1.19.589-1.64.048-.296.065-.582.089-.961.015-.252.033-.544.064-.907.111-1.305.599-2.325 1.205-3.246.3-.457.634-.895.963-1.326l.009-.012c.328-.432.654-.859.96-1.316Z" fill="#0C296E"/><path d="M273.946 69.968c-.839 1.665-1.318 4.568-1.318 4.568l-1.54 2.44a.135.135 0 0 0 .101.207l1.051.1c0 2.856.141 5.006 2.69 5.442.447.052.885-.001 1.522-.128l.862 3.806-1.284 2.394c-.16.348 1.175.95 2.702 1.009 3.632.142 6.539-2.093 6.539-2.093l-1.196-3.034-1.186-3.417s6.215-3.376 4.609-9.16c-1.828-7.09-11.571-6.067-13.552-2.134Z" fill="#fff"/><path d="M280.755 67.4c2.756.132 5.413 1.55 6.258 4.826l.003.009c.742 2.674-.31 4.796-1.6 6.29a11.308 11.308 0 0 1-2.709 2.265l-.046.026-.01.006-.001.001c-.001 0 0 0 0 0l.238.44.24.438h.002l.005-.004.016-.009.058-.032a8.743 8.743 0 0 0 .285-.174 12.361 12.361 0 0 0 2.68-2.304c1.416-1.64 2.668-4.098 1.807-7.206-.984-3.81-4.112-5.424-7.178-5.57-1.531-.073-3.069.215-4.363.785-1.288.568-2.378 1.437-2.941 2.556-.447.887-.787 2.076-1.013 3.017a27.37 27.37 0 0 0-.334 1.593l-1.487 2.356a.635.635 0 0 0 .476.972c.001 0 0 0 0 0l.6.057c.009 1.242.071 2.413.419 3.348.201.538.502 1.017.955 1.391.452.374 1.025.62 1.731.74a4.314 4.314 0 0 0 1.223-.044l.715 3.158-1.195 2.23a.66.66 0 0 0-.002.595c.067.138.17.244.261.32.185.155.44.288.715.398.56.223 1.332.4 2.15.431 1.92.075 3.635-.478 4.859-1.038.613-.281 1.11-.567 1.454-.784a9.95 9.95 0 0 0 .508-.343l.029-.022.008-.006.003-.002h.001l-.305-.397.305.397a.503.503 0 0 0 .161-.58l-1.192-3.025-1.05-3.023m1.166 6.047-1.051-2.667-.007-.02-1.186-3.416a.5.5 0 0 1 .234-.603m2.01 6.706c-.05.033-.106.07-.167.108a11.68 11.68 0 0 1-1.338.721c-1.138.521-2.692 1.015-4.403.948a5.732 5.732 0 0 1-1.818-.36 2.396 2.396 0 0 1-.331-.16l1.151-2.147a.496.496 0 0 0 .047-.347l-.861-3.805a.5.5 0 0 0-.586-.38c-.618.123-.992.163-1.353.123-.562-.098-.959-.284-1.248-.523-.291-.24-.502-.56-.655-.97-.317-.85-.358-2.008-.358-3.454a.5.5 0 0 0-.453-.497l-.46-.044 1.224-1.94a.497.497 0 0 0 .071-.185v-.001l.001-.006.004-.023.016-.091.064-.344c.057-.293.142-.7.252-1.159.223-.927.541-2.022.933-2.8.427-.848 1.299-1.582 2.452-2.09 1.147-.507 2.53-.768 3.911-.703m-9.244 9.843Zm-.275-.557c.001 0 0 0 0 0Z" fill="#0C296E"/><path d="M279.227 80.778a.5.5 0 0 0-.707.003c-.666.67-1.245 1.013-2.228 1.342a.5.5 0 1 0 .318.948c1.111-.371 1.83-.79 2.62-1.586a.5.5 0 0 0-.003-.707Z" fill="#0C296E"/><path d="M287.519 64.533a2.57 2.57 0 1 0-5.052.669 10.122 10.122 0 0 0-5.271.532 6.305 6.305 0 0 0-3.915 3.95.548.548 0 0 0-.022.09.874.874 0 0 0-.006.176c-.039.74.421 1.245.953 1.591.534.348 1.257.616 1.959.871l.005.002c.648.227 1.318.468 1.846.752.263.142.469.283.613.422.14.136.198.247.217.333a.98.98 0 0 0 .119.331l.806 1.32.002.002a.999.999 0 0 0 .44.387c.012.053.025.124.035.213.031.276.035.66-.014 1.087-1.784 3.182-1.204 6.742-.677 9.984l.007.043c.242 1.509.467 2.933.469 4.243.003 1.305-.217 2.448-.827 3.407a1.003 1.003 0 0 0 .842 1.539h8.493c2.464 0 4.534 0 5.99-.003a341.05 341.05 0 0 0 2.156-.01 6.85 6.85 0 0 0 .18-.007l.016-.001a1.001 1.001 0 0 0 .863-1.399l-.003-.008a6.486 6.486 0 0 1-.586-2.92 5.778 5.778 0 0 0-1.005-4.069c-.275-.429-.594-.83-.887-1.2l-.137-.172a.467.467 0 0 0-.049-.053 5.504 5.504 0 0 1-1.715-4.454l.001-.016v-.013a9.505 9.505 0 0 0-.296-2.593 10.641 10.641 0 0 0-1.628-3.032l-.009-.012a7.211 7.211 0 0 1-1.438-2.912c-.542-3.215-1.671-5.48-3.521-6.806l-.012-.008a7.462 7.462 0 0 0-.133-.088 2.566 2.566 0 0 0 1.191-2.168Z" fill="#0C296E"/><path d="m279.748 77.917.615-.054a2.493 2.493 0 0 0 1.196-.39c.444-.28.795-.786.875-1.306.05-.329.002-1.564-1.2-1.564-.484 0-1.11.705-1.31.867" fill="#fff"/><path d="m279.748 77.917.615-.054a2.493 2.493 0 0 0 1.196-.39c.444-.28.795-.786.875-1.306.05-.329.002-1.564-1.2-1.564-.484 0-1.11.705-1.31.867" stroke="#0C296E" stroke-linecap="round" stroke-linejoin="round"/><path d="M280.723 73.93c-.051.466-.872 1.568-.872 1.568-.418-2.146-3.429-.644-4.921-2.35-.674-.711-1.086-2.158-.975-3.575.459-1.508 1.901-2.368 3.442-2.919.002 0 3.551 5.233 3.326 7.276Z" fill="#0C296E"/><path d="M277.799 66.358a1.038 1.038 0 0 0-.402-.202.5.5 0 0 0-.168.03c-1.57.56-3.22 1.492-3.753 3.244a.546.546 0 0 0-.02.106c-.06.767.021 1.541.21 2.224.186.673.486 1.293.894 1.726.827.94 2.039 1.058 2.941 1.147l.239.024c.504.054.876.116 1.146.255.227.116.398.295.474.683a.5.5 0 0 0 .892.203l-.401-.298.401.298.001-.001.002-.003.008-.01.028-.039.098-.137c.081-.115.19-.274.301-.45a6.4 6.4 0 0 0 .323-.562c.087-.175.184-.4.208-.61.07-.64-.152-1.449-.456-2.234-.312-.807-.747-1.674-1.181-2.465a40.435 40.435 0 0 0-1.731-2.85l-.031-.046-.009-.013-.004-.006-.004-.005-.006-.009Zm2.13 8.13a1.835 1.835 0 0 0-.584-.465c-.459-.236-1.011-.308-1.498-.36l-.188-.02c-.981-.102-1.797-.188-2.352-.822l-.009-.01-.005-.005c-.263-.277-.503-.733-.663-1.312a5.57 5.57 0 0 1-.18-1.825c.369-1.134 1.426-1.878 2.75-2.405a39.793 39.793 0 0 1 1.507 2.504c.424.773.835 1.597 1.125 2.345.298.77.436 1.382.394 1.764l-.005.022a1.833 1.833 0 0 1-.104.251 4.512 4.512 0 0 1-.188.337Zm.297-.611Z" fill="#0C296E"/></g><path d="M288.254 184.89a2 2 0 1 1 0-4.002 2 2 0 0 1 0 4.002Zm-3.002-2a3 3 0 0 0 3.002 2.999 3 3 0 1 0 0-5.998 3 3 0 0 0-3.002 2.999Zm-7.004 2a2 2 0 1 1 0-4.002 2 2 0 0 1 0 4.002Zm-3.001-2a3 3 0 0 0 3.001 2.999 3 3 0 1 0 0-5.998 3 3 0 0 0-3.001 2.999Zm-7.004 2.999a3 3 0 1 1 0-5.998 3 3 0 1 1 0 5.998Z" fill="#0C296E"/><path d="M225.156 279.068h-8.004v7.999h8.004v-7.999Zm-15.008 0h-25.014v7.999h25.014v-7.999Z" fill="#14C0FF"/><path d="M267.787 259.461a.5.5 0 0 1 .5-.5h56.031a.5.5 0 0 1 0 1h-56.031a.5.5 0 0 1-.5-.5Z" fill="#0C296E"/><defs><clipPath id="udr2xx1glnea"><path fill="#fff" transform="translate(198.665 61.45)" d="M0 0h40.022v33.992H0z"/></clipPath><clipPath id="ud35n3ib9btb"><path fill="#fff" transform="translate(138.632 63.45)" d="M0 0h38.021v31.993H0z"/></clipPath><clipPath id="udh0q0imr9ud"><path fill="#fff" transform="matrix(-1 0 0 1 298.759 61.605)" d="M0 0h35.019v33.992H0z"/></clipPath><filter id="ud0scl05wtvc" x="258.676" y="185.93" width="54.958" height="28.668" filterUnits="userSpaceOnUse" color-interpolation-filters="sRGB"><feFlood flood-opacity="0" result="BackgroundImageFix"/><feBlend in="SourceGraphic" in2="BackgroundImageFix" result="shape"/><feGaussianBlur stdDeviation="3" result="effect1_foregroundBlur"/></filter></defs></svg>