<svg width="120" height="120" viewBox="0 0 120 120" fill="none" xmlns="http://www.w3.org/2000/svg"><path d="M58.451 32.435h-44a4 4 0 0 0-4 4v70.001a4 4 0 0 0 4 4h44a4 4 0 0 0 4-4v-70a4 4 0 0 0-4-4Z" fill="#BBBFC4" fill-opacity=".45"/><path d="M58 4.436h44a4 4 0 0 1 4 4v70a4 4 0 0 1-4 4H65.89V32.999a4 4 0 0 0-4-4H54V8.436a4 4 0 0 1 4-4Z" fill="#BBBFC4" fill-opacity=".45"/><path d="M94.48 44.296c0-.922-.083-1.808-.236-2.66H82v5.03h6.996a5.98 5.98 0 0 1-2.594 3.923v3.262h4.202c2.458-2.263 3.876-5.596 3.876-9.555Z" fill="#4285F4"/><path d="M82 57c3.51 0 6.453-1.163 8.604-3.149l-4.202-3.262c-1.164.78-2.653 1.241-4.402 1.241-3.386 0-6.252-2.287-7.274-5.36h-4.343v3.369A12.995 12.995 0 0 0 82 57Z" fill="#34A853"/><path d="M74.726 46.47a7.815 7.815 0 0 1-.408-2.47c0-.856.148-1.69.408-2.47v-3.368h-4.343A12.996 12.996 0 0 0 69 44c0 2.098.502 4.084 1.383 5.839l4.343-3.369Z" fill="#FBBC05"/><path d="M82 36.17c1.909 0 3.622.656 4.97 1.944l3.728-3.728C88.447 32.288 85.504 31 82 31a12.995 12.995 0 0 0-11.617 7.162l4.343 3.368c1.022-3.073 3.888-5.36 7.274-5.36Z" fill="#EA4335"/><path d="M106 33.002v-9.514c3 .015 8.069 3.56 8.75 6.815-.251 7.864 0 8.527-.082 10.81-1.012-3.654-4.544-8.472-8.668-8.111ZM10.45 87.185V74.502C3.66 81.039 1 87.002 3.614 91.838c2.525 3.44 1.958 6.033 4.005 8.35-1.377-3.746-1.009-8.266 2.83-13.003Z" fill="#0C296E"/><path d="m3.136 90.713 3.161 8.184c2.524 4.437 14.186 5.009 33.694 0v-8.899c-.336.089-.669.176-1 .261C21.2 94.867 9.528 95.383 4.9 92.51c-.8-.5-1.39-1.1-1.764-1.798Zm2.311 3.209c.381.17.785.32 1.21.455 2.037.645 4.667.94 7.828.905 6.078-.068 14.313-1.364 24.506-3.99v6.828c-9.358 2.358-16.801 3.387-22.204 3.319-2.774-.035-4.963-.359-6.58-.912-1.583-.541-2.527-1.268-3.006-2.065l-1.754-4.54Z" fill="#0C296E"/><path d="M99.098 48.742c12.402-6.74 15.648-13.242 15.648-18.54v9.623c0 3.936-1.059 10.218-15.648 18.433V48.74Z" fill="#00D6B9"/><path d="M44.955 100.246c8.283-2.356 14.772-5.493 21.593-8.79 1.009-.487 2.025-.978 3.056-1.471v6.041c-8.275 4.184-12.907 6.321-24.649 9.56v-5.34Zm24.649-11.37c-1.19.568-2.358 1.132-3.513 1.69-7.016 3.391-13.594 6.57-22.136 8.922v7.408l1-.273c12.275-3.373 16.916-5.559 25.649-9.982v-8.239c-.335.158-.669.317-1 .475Z" fill="#0C296E"/><path d="m37.043 71.654.076-.075c.05-.048.1-.099.149-.148l.097-.1.306-.31.416-.423.356-.363.335-.34.35-.356.322-.33.447-.455c.085-.083.171-.165.259-.248.16-.153.327-.3.5-.441.161-.13.322-.255.483-.375a10.119 10.119 0 0 1 2.171-1.204 10.156 10.156 0 0 1 .626-.226 18.328 18.328 0 0 0-3.33-6.88 1.616 1.616 0 0 0-.558-.455 1.57 1.57 0 0 0-.694-.161H26.488c-.05 0-.1.017-.14.047a.256.256 0 0 0-.002.4A38.31 38.31 0 0 1 37.01 71.683l.032-.03Z" fill="#00D6B9"/><path d="M31.938 83.308a17.292 17.292 0 0 0 8.964-2.509 17.95 17.95 0 0 0 6.795-7.434 7.754 7.754 0 0 1-.708 1.144 7.29 7.29 0 0 1-.492.585 7.562 7.562 0 0 1-.482.47 5.847 5.847 0 0 1-.286.239 6.151 6.151 0 0 1-.576.408 6.679 6.679 0 0 1-1.211.604 5.782 5.782 0 0 1-.513.165 6.6 6.6 0 0 1-1.372.242 7.401 7.401 0 0 1-1.323-.027 8.051 8.051 0 0 1-1.211-.237 36.106 36.106 0 0 1-.662-.19l-.328-.1-.489-.153c-.133-.042-.266-.083-.401-.13l-.377-.128-.257-.09-.312-.111-.221-.083a27.78 27.78 0 0 1-.438-.165l-.253-.093-.337-.135-.356-.146-.23-.096-.286-.12-.22-.096-.23-.101-.198-.09-.18-.083-.184-.083-.189-.089-.24-.114-.25-.122-.265-.133-.225-.115a37.206 37.206 0 0 1-10.528-8.075.24.24 0 0 0-.262-.061.241.241 0 0 0-.11.089.252.252 0 0 0-.044.137l.009 11.679v.948c0 .27.064.538.187.777.124.24.304.444.523.595a17.248 17.248 0 0 0 9.768 3.027Z" fill="#3370FF"/><path d="M51.45 66.841a9.906 9.906 0 0 0-8.14-.359 9.937 9.937 0 0 0-2.653 1.579 10.856 10.856 0 0 0-.76.69l-.443.457-.322.331-.35.356-.335.34-.36.36-.415.422-.307.315-.102.103-.148.149-.076.074-.113.111-.124.117a17.758 17.758 0 0 1-3.665 2.67l.24.114.19.09.183.082.18.083.2.09.228.102.22.096.286.123.23.097.356.145.338.135.254.098.437.166.222.082.312.111.256.09.377.129c.132.043.265.087.402.13.16.051.321.103.488.153l.328.1c.22.065.44.128.662.19a8.556 8.556 0 0 0 .695.16 7.751 7.751 0 0 0 1.214.12c.21 0 .419 0 .625-.017a6.581 6.581 0 0 0 1.373-.242 8.73 8.73 0 0 0 .512-.165 6.527 6.527 0 0 0 1.439-.754 6.49 6.49 0 0 0 1.116-.966 7.287 7.287 0 0 0 .695-.867c.185-.274.353-.558.503-.853l.172-.353 1.549-3.197v.006a10.142 10.142 0 0 1 2.032-2.993Z" fill="#133C9A"/><path d="M17.5 41a.5.5 0 0 0 .5.5h36a.5.5 0 0 0 0-1H18a.5.5 0 0 0-.5.5Zm44-28a.5.5 0 0 0 .5.5h36a.5.5 0 0 0 0-1H62a.5.5 0 0 0-.5.5Z" fill="#8F959E"/><path d="M98 99c9.941 0 18-8.059 18-18s-8.059-18-18-18-18 8.059-18 18 8.059 18 18 18Z" fill="#F80"/><path d="M97.181 72.818a.818.818 0 0 0-.818.819v9.818c0 .452.367.818.819.818h1.636a.818.818 0 0 0 .818-.818v-9.819a.818.818 0 0 0-.818-.818h-1.636Zm0 13.092a.818.818 0 0 0-.818.818v1.636c0 .452.367.818.819.818h1.636a.818.818 0 0 0 .818-.818v-1.636a.818.818 0 0 0-.818-.819h-1.636Z" fill="#fff"/></svg>