<svg width="120" height="120" viewBox="0 0 120 120" fill="none" xmlns="http://www.w3.org/2000/svg"><path d="M30.033 9.57a4 4 0 0 0-4 4v68.428l10.165-11.064h46.9v-23.48a4 4 0 0 1 4-4h10.501V13.57a4 4 0 0 0-4-4H30.033Z" fill="#FAC823"/><path d="M4.217 81.301v7.508c0-1.658 3.964-3.228 6.92-4.114V83.31l-.907-6.168c-2.847.588-6.013 2.051-6.013 4.16Z" fill="#fff" fill-opacity=".4"/><path d="M4.222 80.985v8.403c-1.29 11.894 32.009 8.007 37.46 6.904 5.442-1.102 13.395-2.415 21.331-.729.07.001-.07.003 0 .004v-8.51c-10.212-1.412-13.315-.59-21.331.87-8.017 1.461-38.465 5.75-37.46-6.942Zm0-.221v.22c.005-.072-.009-.146 0-.22Z" fill="#4C88FF"/><path d="M18.295 110.759v-8.158c-3.553-.392-9.318-.628-11.763-3.752v8.158c2.45 3.131 8.027 3.339 11.763 3.752Z" fill="#41CCB9"/><path d="M43.401 24.984a.5.5 0 0 1 .5-.5h38.696a.5.5 0 1 1 0 1H43.9a.5.5 0 0 1-.5-.5Zm16.295 11a.5.5 0 0 1 .5-.5h22.4a.5.5 0 1 1 0 1h-22.4a.5.5 0 0 1-.5-.5Z" fill="#5F5F5F"/><path d="M31.311 109.716v-6.093c6.558.704 13.796.031 20.847-.624l1.215-.113c7.584-.7 14.886-1.285 21.133-.174v5.641c-6.695-1.016-14.011-.3-21.294.469l-.84.089c-7.18.76-14.326 1.516-21.061.805Zm0-7.099a40.268 40.268 0 0 1-1-.122v8.112c7.107.893 14.666.092 22.12-.697 7.67-.812 15.23-1.613 22.075-.546.335.052.669.109 1 .171v-7.65c-6.918-1.416-15.119-.655-23.4.114-7.128.662-14.316 1.33-20.795.618Z" fill="#E0E0E0"/><path d="M112 43.453a4 4 0 0 1 4 4V87.15a4 4 0 0 1-4 4H87.097a4 4 0 0 1-4-4V47.453v23.549H93.6a4 4 0 0 0 4-4V43.453H112Z" fill="#41CCB9"/><path d="M30.313 20.998v-.001l-.001-.006-.003-.02-.01-.07-.045-.259c-.04-.22-.103-.531-.194-.9-.182-.736-.48-1.713-.944-2.659-.46-.94-1.104-1.886-1.996-2.515-.913-.643-2.057-.932-3.439-.587-.97.241-1.786.597-2.468 1.123-.684.529-1.21 1.211-1.623 2.07a9.45 9.45 0 0 0-.445 1.111 3.17 3.17 0 0 0-.281-.516c-.439-.644-1.084-.974-1.802-.833-.67.13-1.274.648-1.752 1.385-.485.748-.881 1.78-1.115 3.069-1.375 7.569-2.401 14.3-3.193 22.522L8.627 30.96a.493.493 0 0 0-.008-.034c-.29-1.132-.644-1.977-1.15-2.454a1.541 1.541 0 0 0-.946-.438c-.35-.028-.695.066-1.022.224a.505.505 0 0 0-.039.02c-.799.476-1.09 1.393-1.2 2.204-.112.83-.055 1.712-.017 2.306.113 3.22 1.606 14.193 3.15 25.105.443 3.133.89 6.264 1.312 9.212 1.04 7.282 1.922 13.443 2.178 15.75l-3.71 23.259a.5.5 0 0 0 .988.158l3.72-23.326a.494.494 0 0 0 .003-.134c-.248-2.27-1.14-8.513-2.194-15.88-.42-2.941-.867-6.061-1.307-9.179-1.55-10.96-3.032-21.865-3.14-25.007l-.002-.015c-.039-.608-.087-1.396.01-2.115.099-.728.327-1.232.703-1.467.216-.102.373-.128.487-.118.106.008.216.05.34.168.28.264.578.853.863 1.959l2.9 15.814c.02.112.077.208.155.279-.066.775-.13 1.564-.192 2.37a.5.5 0 0 0 .997.077c.845-10.948 1.998-18.91 3.673-28.129.217-1.193.574-2.092.97-2.703.404-.622.81-.89 1.105-.948.247-.048.521.03.783.415.268.394.493 1.083.545 2.127a4.828 4.828 0 0 0-.139.6c-.054.304-.11.687-.166 1.135-.113.896-.23 2.073-.35 3.427-.24 2.71-.489 6.15-.712 9.532a1162.99 1162.99 0 0 0-.785 13.006l-.016.293s0 .002.5.028l-.5-.026a.5.5 0 0 0 .998.06v-.007l1.605-23.713c.351-3.419.745-5.673 1.474-7.185.357-.743.791-1.294 1.334-1.713.409-.316.894-.568 1.481-.766.042 6.07.266 11 .51 15.808l.09 1.759c.225 4.379.45 8.755.552 13.914a.5.5 0 1 0 1-.02c-.103-5.175-.328-9.567-.553-13.946l-.09-1.758c-.247-4.869-.473-9.851-.51-16.013.912-.138 1.64.09 2.239.511.7.494 1.25 1.274 1.674 2.139.422.859.699 1.763.87 2.458a13.986 13.986 0 0 1 .223 1.075l.005.032.004.027.002.015v.004c1.452 10.475 2.216 19.163 3.082 29.021.19 2.171.386 4.399.595 6.715a.5.5 0 0 0 .91.24l2.744-3.969c1.095-1.585 2.245-3.25 3.287-4.754a847.538 847.538 0 0 1 2.623-3.769c.708-1.01 1.164-1.646 1.265-1.764a2.16 2.16 0 0 1 .583-.409c.301-.15.562-.2.73-.162a.322.322 0 0 1 .184.114c.06.07.134.201.184.44.103.49.085 1.326-.213 2.683-.293 1.333-1.388 4.386-2.891 8.263-1.496 3.858-3.378 8.489-5.224 12.95a1473.723 1473.723 0 0 1-7.071 16.78l-.159.37.46.198-.46-.198a.505.505 0 0 0-.035.125l-1.782 12.115a.5.5 0 1 0 .989.145l1.772-12.05.134-.311a1056.083 1056.083 0 0 0 2.073-4.863c1.347-3.175 3.156-7.466 5.003-11.93 1.847-4.462 3.732-9.1 5.232-12.97 1.493-3.85 2.623-6.984 2.936-8.41.308-1.403.361-2.404.215-3.102-.074-.354-.205-.654-.402-.885a1.327 1.327 0 0 0-.721-.438c-.507-.117-1.028.056-1.4.241-.378.188-.72.448-.896.653-.142.166-.638.862-1.325 1.841-.699.996-1.619 2.32-2.626 3.774-1.059 1.528-2.2 3.179-3.285 4.75l-1.961 2.838c-.163-1.823-.319-3.595-.471-5.331-.867-9.86-1.633-18.577-3.088-29.078Z" fill="#E0E0E0"/><path d="M36.517 70.934c.52-1.243 1.052-2.523 1.588-3.819 1.847-4.463 3.732-9.1 5.232-12.97 1.493-3.85 2.623-6.984 2.936-8.41.308-1.403.361-2.404.215-3.102-.074-.355-.205-.654-.402-.885a1.327 1.327 0 0 0-.721-.439c-.507-.116-1.028.057-1.4.242-.378.188-.72.448-.896.653-.142.166-.638.862-1.325 1.841-.699.996-1.619 2.32-2.626 3.774a4752.576 4752.576 0 0 0-3.28 4.742l-.008.012-1.958 2.834c-.163-1.823-.319-3.595-.471-5.331-.867-9.86-1.633-18.577-3.088-29.078l-.001-.007-.003-.02-.01-.07-.045-.259c-.04-.22-.103-.532-.194-.9-.182-.736-.48-1.714-.944-2.659-.46-.94-1.104-1.886-1.996-2.515a4.03 4.03 0 0 0-1.087-.547v1.07c.18.082.35.181.51.294.7.494 1.252 1.274 1.675 2.138.422.86.699 1.764.87 2.459a13.97 13.97 0 0 1 .223 1.075l.005.032.004.027.002.014v.005c1.452 10.474 2.216 19.163 3.082 29.021v.005c.19 2.17.386 4.396.595 6.71a.5.5 0 0 0 .91.24l2.744-3.97.007-.01c1.092-1.58 2.24-3.243 3.28-4.743a842.422 842.422 0 0 1 2.623-3.769c.708-1.01 1.164-1.647 1.265-1.764a2.16 2.16 0 0 1 .583-.409c.301-.15.562-.2.73-.162a.325.325 0 0 1 .184.113c.06.071.134.202.184.441.103.49.085 1.326-.213 2.682-.293 1.334-1.388 4.387-2.891 8.264-1.496 3.858-3.378 8.489-5.224 12.95a1302.16 1302.16 0 0 1-2.387 5.728l1.404-1.528h.32Z" fill="#5F5F5F"/></svg>