<svg width="120" height="120" viewBox="0 0 120 120" fill="none" xmlns="http://www.w3.org/2000/svg">
  <path d="M52.935 54.842c3.241 0 5.87-2.65 5.87-5.92 0-3.271-2.629-5.922-5.87-5.922-3.242 0-5.87 2.65-5.87 5.921 0 3.27 2.628 5.921 5.87 5.921ZM45.109 68c-1.435 0-2.609-1.184-2.609-2.632V64.14c0-4.408 3.669-7.982 7.915-7.982h5.052c4.246 0 7.903 3.574 7.903 7.982v1.228c0 1.448-1.174 2.632-2.61 2.632H45.11Zm20.869-1.316v-.389c0-3.042 0-6.19-2.608-8.163.109-.01.292-.007.468-.003l.241.003h2.551c3.185 0 5.87 2.022 5.87 5.329v1.907c0 .724-.587 1.316-1.304 1.316h-5.218Zm-1.304-10.526c2.161 0 3.913-1.767 3.913-3.947s-1.752-3.948-3.913-3.948c-2.161 0-3.913 1.768-3.913 3.948 0 2.18 1.752 3.947 3.913 3.947Z" fill="#41CCB9"/>
  <path d="m117.604 90.295-.021 7.107c-.381-1.454-2.322-3.58-4.526-3.576l1.062-7.173c1.798.238 2.717.968 3.485 3.642Z" fill="#2851A3"/>
  <path d="M69.116 108.675v-7.797c14.233-4.51 30.991.027 39.196-1.253 7.248-1.13 9.329-4.512 9.329-9.501v9.647c0 2.996-.994 6.153-8.56 7.622-7.565 1.47-25.99-3.54-39.965 1.282Z" fill="#4C88FF"/>
  <path d="M32.688 90.608v-8.472C19.94 81.73 14.858 78.172 7.546 70.86v9.866c3.803 3.857 10.794 9.285 25.14 9.883Z" fill="#FAC823"/>
  <path d="M16.997 25.355a4.5 4.5 0 0 1 4.5-4.5l72.546.001a4.5 4.5 0 0 1 4.5 4.5v22.402a.5.5 0 0 1-1 0V25.356a3.5 3.5 0 0 0-3.5-3.5H21.497a3.5 3.5 0 0 0-3.5 3.5v54a3.5 3.5 0 0 0 3.5 3.5h57.4a.5.5 0 0 1 0 1h-57.4a4.5 4.5 0 0 1-4.5-4.5v-54Z" fill="#EBEBEB"/>
  <path d="M97.86 40c9.941 0 18-8.059 18-18s-8.059-18-18-18c-9.94 0-18 8.059-18 18s8.06 18 18 18Zm-1.636-25.364c0-.451.366-.818.818-.818h1.636a.82.82 0 0 1 .819.818v5.728h5.727c.452 0 .818.366.818.818v1.636a.818.818 0 0 1-.818.818h-5.727v5.728a.818.818 0 0 1-.819.818h-1.636a.818.818 0 0 1-.818-.818v-5.728h-5.727a.818.818 0 0 1-.819-.818v-1.636c0-.452.367-.818.819-.818h5.727v-5.728Z" fill="#FAC823"/>
  <path d="M96.224 14.636c0-.452.366-.818.818-.818h1.636c.452 0 .818.366.818.818v5.728h5.728c.452 0 .818.366.818.818v1.636a.818.818 0 0 1-.818.818h-5.728v5.728a.818.818 0 0 1-.818.818h-1.636a.818.818 0 0 1-.818-.818v-5.728h-5.728a.818.818 0 0 1-.818-.818v-1.636c0-.452.367-.818.818-.818h5.728v-5.728Z" fill="#fff"/>
  <path d="M72.301 64.635a2.673 2.673 0 0 1 1.708-.449h.004c.98.095 2.239.476 3.127 1.111.96.684 1.785 1.267 2.529 1.792 2.89 2.041 4.55 3.214 8.158 6.082a.5.5 0 1 1-.622.783c-3.585-2.85-5.223-4.007-8.108-6.045-.744-.526-1.572-1.11-2.537-1.798h-.002c-.711-.51-1.79-.847-2.639-.929a1.675 1.675 0 0 0-1.056.28c-.247.168-.411.382-.478.617l19.992 28.258a.5.5 0 0 1 .092.289v15.946a.5.5 0 0 1-1 0V94.785l-20.02-28.298a.5.5 0 0 1-.09-.333c.058-.663.452-1.186.942-1.519Z" fill="#EBEBEB"/>
  <path d="M84.835 32.925c.366 6.038 1.017 13.802 1.668 21.573v.005c.651 7.77 1.303 15.548 1.67 21.6a.5.5 0 0 1-.998.061c-.366-6.04-1.017-13.806-1.669-21.582v-.005c-.651-7.77-1.303-15.548-1.67-21.6v-.015l.499-.016-.5.016v-.019l-.001-.046v-.166c.001-.142.007-.343.022-.583a9.729 9.729 0 0 1 .271-1.77c.167-.64.438-1.328.893-1.855a2.426 2.426 0 0 1 2.01-.874h.005c1.183.06 1.811 1.003 2.202 2.024.307.806.525 1.814.742 2.817.06.28.121.56.183.834v.001c.3 1.337 1.484 8.221 2.59 14.744a4936.16 4936.16 0 0 1 1.963 11.667l.179 1.07s0 .002-.493.084l-.494.082-.178-1.07a5360.166 5360.166 0 0 0-1.963-11.666c-1.109-6.544-2.287-13.386-2.579-14.691a92.707 92.707 0 0 1-.197-.896c-.214-.988-.41-1.891-.688-2.619-.362-.95-.772-1.354-1.315-1.382a1.432 1.432 0 0 0-1.21.529c-.312.361-.533.88-.682 1.453a8.695 8.695 0 0 0-.241 1.583 9.64 9.64 0 0 0-.02.672v.04Zm9.648 28.458a.5.5 0 0 1-.576-.411l.494-.082.493-.082a.5.5 0 0 1-.411.575Z" fill="#EBEBEB"/>
  <path d="m94.815 55.942-.682.084a.5.5 0 1 1-.122-.992l.72-.09c3.67-.454 7.611-.943 11.155-.398 3.82.588 7.213 2.382 9.366 6.668.722 1.437 1.066 3.547 1.171 6.006.106 2.475-.03 5.364-.312 8.399-.561 6.047-1.704 12.72-2.701 17.938l.998 16.834a.499.499 0 1 1-.998.06l-1.002-16.897a.512.512 0 0 1 .008-.124c.998-5.216 2.141-11.881 2.7-17.904.279-3.012.411-5.852.308-8.263-.103-2.428-.443-4.36-1.066-5.6-1.98-3.94-5.058-5.58-8.624-6.128-3.4-.524-7.21-.052-10.92.407Z" fill="#EBEBEB"/>
  <path d="M100.842 54.646a.5.5 0 0 1 .565.425l.674 4.751a.5.5 0 1 1-.99.14l-.674-4.75a.5.5 0 0 1 .425-.566Zm6.861.434a.5.5 0 0 1 .517.482c.033.95.009 1.677-.021 2.395l-.009.214c-.027.644-.055 1.294-.047 2.118a.5.5 0 0 1-1 .01c-.008-.852.021-1.526.048-2.17l.009-.214a28.86 28.86 0 0 0 .021-2.318.5.5 0 0 1 .482-.517Z" fill="#EBEBEB"/>
  <path d="M11.924 99.535v-8.253c8.764 8.254 30.515 12.847 46.462 10.71v7.585c-17.745 2.118-38.441-2.17-46.462-10.041Z" fill="#41CCB9"/>
  <path d="M3.9 49.81v9.781c0-2.6 2.435-9.78 5.317-9.78V42.13c-2.526 0-5.318 4.014-5.318 7.68Z" fill="#EBEBEB"/>
  <path d="M3.89 50.132c0 1.298.338 2.5.998 3.644 1.537 2.663 4.82 5 9.638 7.463l-.203 9.273a32.71 32.71 0 0 0-.986-.69c-.718-.486-1.445-.942-2.16-1.392-3.812-2.397-7.287-4.581-7.287-9.65v-8.648Zm.998 5.3v3.483c0 1.464.317 2.607.824 3.554.51.956 1.247 1.777 2.174 2.555.934.786 2.026 1.5 3.23 2.26l.499.313c.568.358 1.156.727 1.746 1.116l.152-6.935c-3.168-1.66-5.73-3.322-7.54-5.13a13.34 13.34 0 0 1-1.085-1.217Zm29.97-26.622a3.5 3.5 0 1 1 7 0 3.5 3.5 0 0 1-7 0Zm3.5-2.5a2.5 2.5 0 1 0 0 5 2.5 2.5 0 0 0 0-5Zm-13.5 2.5a3.5 3.5 0 1 1 7 0 3.5 3.5 0 0 1-7 0Zm3.5-2.5a2.5 2.5 0 1 0 0 5 2.5 2.5 0 0 0 0-5Z" fill="#EBEBEB"/>
</svg>
