<svg width="120" height="120" viewBox="0 0 120 120" fill="none" xmlns="http://www.w3.org/2000/svg">
  <path d="M24.889 12.665a6.887 6.887 0 1 0 0 13.774.5.5 0 0 1 0 1 7.887 7.887 0 1 1 7.887-7.887.5.5 0 1 1-1 0 6.887 6.887 0 0 0-6.887-6.887Zm37.998 0a6.887 6.887 0 1 0 0 13.774.5.5 0 0 1 0 1 7.887 7.887 0 1 1 7.887-7.887.5.5 0 1 1-1 0 6.887 6.887 0 0 0-6.887-6.887Zm-19 0a6.887 6.887 0 1 0 0 13.774.5.5 0 0 1 0 1 7.887 7.887 0 1 1 7.887-7.887.5.5 0 1 1-1 0 6.887 6.887 0 0 0-6.887-6.887Z" fill="#E0E0E0"/>
  <path d="m114.142 88.77-.02 7.108c.007-2.427-5.595-5.24-7.798-5.235l-2.265-7.883c1.798.238 10.083 2.447 10.083 6.01Z" fill="#0C296E"/>
  <path d="M65.655 107.151v-7.797c14.233-4.51 30.99.027 39.196-1.253 7.248-1.13 9.329-4.512 9.329-9.501v9.647c0 2.997-.995 6.153-8.56 7.623-7.566 1.469-25.99-3.541-39.965 1.281Z" fill="#4C88FF"/>
  <path d="M33.554 92.08v-8.472c-12.747-.407-24.138-7.392-31.45-14.705v9.866c3.803 3.857 17.104 12.713 31.45 13.31Z" fill="#FAC823"/>
  <path d="M8.56 24.26a4.5 4.5 0 0 1 4.5-4.5h72.547a4.5 4.5 0 0 1 4.5 4.5v22.402a.5.5 0 1 1-1 0V24.261a3.5 3.5 0 0 0-3.5-3.5l-72.546-.001a3.5 3.5 0 0 0-3.5 3.5v54a3.5 3.5 0 0 0 3.5 3.5h57.4a.5.5 0 1 1 0 1h-57.4a4.5 4.5 0 0 1-4.5-4.5v-54Z" fill="#E0E0E0"/>
  <path d="M16 33.5a.5.5 0 0 1 .5-.5h53.996a.5.5 0 1 1 0 1H16.5a.5.5 0 0 1-.5-.5Z" fill="#fff" fill-opacity=".4"/>
  <path d="M87.478 37.76c9.941 0 18-8.06 18-18 0-9.941-8.059-18-18-18s-18 8.059-18 18c0 9.94 8.059 18 18 18Zm-1.636-25.364c0-.452.366-.818.818-.818h1.636c.452 0 .818.366.818.818v5.727h5.727a.82.82 0 0 1 .819.819v1.636a.818.818 0 0 1-.819.818h-5.727v5.727a.818.818 0 0 1-.818.819H86.66a.818.818 0 0 1-.819-.819v-5.727h-5.727a.818.818 0 0 1-.818-.818v-1.636c0-.452.366-.819.818-.819h5.727v-5.727Z" fill="#FAC823"/>
  <path d="M85.841 12.396c0-.452.367-.818.819-.818h1.636c.452 0 .818.366.818.818v5.727h5.727a.82.82 0 0 1 .819.819v1.636a.818.818 0 0 1-.819.818h-5.727v5.727a.818.818 0 0 1-.818.819h-1.637a.818.818 0 0 1-.818-.819v-5.727h-5.727a.818.818 0 0 1-.818-.818v-1.636c0-.452.366-.819.818-.819h5.727v-5.727Z" fill="#fff"/>
  <path d="M10.463 98.013V89.76c8.763 8.253 30.514 12.847 46.461 10.709v7.586c-17.745 2.118-38.44-2.17-46.461-10.042Z" fill="#41CCB9"/>
  <path d="M111.678 30.131c0 .054-.002.075-.002.075-.071.506-.43 1.608-.989 3.105a179.108 179.108 0 0 1-2.036 5.128 806.466 806.466 0 0 1-1.825 4.39c-.904 2.163-1.718 4.111-2.207 5.368a.518.518 0 0 0 .27.666.481.481 0 0 0 .637-.28c.486-1.248 1.29-3.172 2.189-5.322.592-1.418 1.226-2.934 1.836-4.418.765-1.862 1.492-3.67 2.049-5.16.547-1.466.954-2.683 1.045-3.326a2.67 2.67 0 0 0 .003-.485 15.025 15.025 0 0 0-.064-.689 55.342 55.342 0 0 0-.279-2.029 160.46 160.46 0 0 0-.967-5.582c-.376-1.975-.782-3.922-1.143-5.385-.18-.73-.352-1.35-.506-1.797a4.196 4.196 0 0 0-.235-.57 1.264 1.264 0 0 0-.155-.232.615.615 0 0 0-.388-.214c-.686-.076-1.249.22-1.675.72-.411.483-.707 1.163-.927 1.924-.442 1.528-.632 3.573-.695 5.587a69.032 69.032 0 0 0 .078 5.584 75.82 75.82 0 0 0 .157 2.368l.004.05c-2.968 6.77-6.83 13.126-10.692 19.48l-.551.908c-.91 1.497-2.048 2.695-3.116 3.363-1.093.684-1.941.722-2.462.299-.945-.814-1.75-2.265-2.523-4.088-.484-1.137-.935-2.37-1.398-3.633-.28-.763-.564-1.537-.861-2.309-.779-2.02-1.641-3.994-2.724-5.5-1.087-1.513-2.44-2.616-4.206-2.764a.477.477 0 0 0-.384.146.52.52 0 0 0-.142.399c.33 4.667.596 8.627.825 12.03.59 8.775.932 13.864 1.49 17.902.768 5.545 1.947 9.133 4.695 17.497l.13.394a262.659 262.659 0 0 1 3.698 18.397 150.18 150.18 0 0 1 .236 1.496l.012.078.003.026.484-.076.484-.077v-.007l-.004-.02-.012-.08a156.44 156.44 0 0 0-.238-1.508 263.758 263.758 0 0 0-3.73-18.537l-.115-.35c-2.768-8.425-3.919-11.926-4.673-17.376-.553-3.999-.892-9.033-1.48-17.779-.219-3.255-.472-7.023-.784-11.444 1.122.275 2.073 1.073 2.928 2.262 1 1.392 1.823 3.258 2.598 5.27.283.734.562 1.493.84 2.25.471 1.286.941 2.568 1.432 3.724.78 1.837 1.662 3.488 2.802 4.468l.009.007c1.02.835 2.379.527 3.576-.222 1.226-.767 2.466-2.092 3.438-3.691l.562-.925c3.876-6.378 7.795-12.826 10.799-19.709a.536.536 0 0 0 .041-.26l-.487.048.487-.048v-.002l-.001-.009-.003-.033-.011-.134a68.328 68.328 0 0 1-.155-2.333 67.94 67.94 0 0 1-.077-5.496c.062-1.994.249-3.93.653-5.326.203-.701.448-1.22.723-1.542.208-.245.423-.367.664-.388.037.082.082.197.134.348.139.401.302.986.48 1.706.354 1.436.756 3.362 1.131 5.33.374 1.965.719 3.964.96 5.543.121.79.215 1.47.273 1.988.03.259.049.472.06.635.005.082.007.147.007.197Zm-23.31 73.521.483-.077a.506.506 0 0 1-.41.581.495.495 0 0 1-.558-.428l.484-.076Z" fill="#E0E0E0"/>
  <path d="m108.011 40.935.003.004.009.015.038.058a39.952 39.952 0 0 1 .676 1.077 47.43 47.43 0 0 1 1.618 2.883c1.195 2.324 2.353 5.114 2.417 7.224a.5.5 0 0 0 .504.495.5.5 0 0 0 .474-.525c-.071-2.372-1.338-5.35-2.533-7.674a48.613 48.613 0 0 0-2.195-3.818l-.152-.236-.041-.062-.011-.016-.004-.006-.402.29.402-.29a.478.478 0 0 0-.682-.129.524.524 0 0 0-.121.71Z" fill="#E0E0E0"/>
  <path d="M111.568 45.485a.483.483 0 0 0-.631.296l-.236.651a172.082 172.082 0 0 1-2.61 6.864.52.52 0 0 0 .263.668.482.482 0 0 0 .641-.273c1.295-3.235 1.677-4.29 2.623-6.897l.235-.65a.518.518 0 0 0-.285-.659Zm1.671 6.318a.49.49 0 0 0-.455.336l-1.402 4.057-.348 1.008.352.133-.352-.133a.518.518 0 0 0 .296.654.483.483 0 0 0 .626-.307l.347-1.007.922-2.668c.623 2.333.802 5.144-.275 7.3-2.263 4.529-3.82 7.659-5.075 10.18-1.798 3.611-2.974 5.976-4.713 9.42a.53.53 0 0 0-.041.363l4.958 20.268a.49.49 0 0 0 .595.37.51.51 0 0 0 .354-.619l-4.912-20.078c1.693-3.354 2.862-5.703 4.63-9.256 1.255-2.522 2.812-5.65 5.073-10.176 1.496-2.994.849-6.904-.117-9.517a.493.493 0 0 0-.463-.328Z" fill="#E0E0E0"/>
  <rect x="41" y="40" width="12" height="12" rx="2" fill="#4C88FF"/>
  <path fill-rule="evenodd" clip-rule="evenodd" d="M61 40a2 2 0 0 0-2 2v8a2 2 0 0 0 2 2h8a2 2 0 0 0 2-2v-8a2 2 0 0 0-2-2h-8ZM25 58a2 2 0 0 0-2 2v8a2 2 0 0 0 2 2h8a2 2 0 0 0 2-2v-8a2 2 0 0 0-2-2h-8Zm16 2a2 2 0 0 1 2-2h8a2 2 0 0 1 2 2v8a2 2 0 0 1-2 2h-8a2 2 0 0 1-2-2v-8Zm20-2a2 2 0 0 0-2 2v8a2 2 0 0 0 2 2h8a2 2 0 0 0 2-2v-8a2 2 0 0 0-2-2h-8Z" fill="#BBBFC4"/>
</svg>
