<svg width="120" height="120" viewBox="0 0 120 120" fill="none" xmlns="http://www.w3.org/2000/svg">
    <g clip-path="url(#ud3nwy6klnpa)">
        <path d="M51.418 11.114 37.68 7.432a4 4 0 0 0-4.899 2.829L13.627 81.739a4 4 0 0 0 2.829 4.9l59.887 16.046a4 4 0 0 0 4.9-2.829l19.152-71.478a4 4 0 0 0-2.828-4.899L84.26 19.913l-1.013 3.779a2 2 0 0 1-2.45 1.414L51.82 17.34a2 2 0 0 1-1.414-2.45l1.012-3.777Z"
              fill="#BBBFC4" fill-opacity=".45"/>
        <path d="M51.959 9.095a2 2 0 0 1 2.449-1.414l28.978 7.764a2 2 0 0 1 1.414 2.45l-1.553 5.796a2 2 0 0 1-2.45 1.414L51.82 17.34a2 2 0 0 1-1.414-2.45l1.553-5.795Zm-9.509 16.5a2.5 2.5 0 0 1 3.061-1.768l6.533 1.75a2.5 2.5 0 0 1 1.768 3.062l-1.75 6.533A2.5 2.5 0 0 1 49 36.94l-6.533-1.75a2.5 2.5 0 0 1-1.768-3.063l1.75-6.533Zm2.803-.802a1.5 1.5 0 0 0-1.837 1.06l-1.75 6.533a1.5 1.5 0 0 0 1.06 1.837l6.533 1.75a1.5 1.5 0 0 0 1.837-1.06l1.75-6.533a1.5 1.5 0 0 0-1.06-1.837l-6.533-1.75Z"
              fill="#8F959E"/>
        <path d="M51.633 29.357a.5.5 0 0 1-.226.67l-5.14 2.541a1.5 1.5 0 0 1-2.046-.759l-.901-2.124a.5.5 0 0 1 .92-.39l.901 2.124a.5.5 0 0 0 .682.253l5.14-2.541a.5.5 0 0 1 .67.226Zm1.777 7.318a.5.5 0 0 1 .612-.353l22.526 6.035a.5.5 0 0 1-.259.967l-22.526-6.036a.5.5 0 0 1-.353-.613Zm-15.987 7.677a2.5 2.5 0 0 1 3.062-1.767l6.533 1.75a2.5 2.5 0 0 1 1.768 3.062l-1.75 6.533a2.5 2.5 0 0 1-3.063 1.767l-6.532-1.75a2.5 2.5 0 0 1-1.768-3.062l1.75-6.533Zm2.803-.801a1.5 1.5 0 0 0-1.837 1.06l-1.75 6.533a1.5 1.5 0 0 0 1.06 1.837l6.533 1.75a1.5 1.5 0 0 0 1.837-1.06l1.75-6.533a1.5 1.5 0 0 0-1.06-1.837l-6.533-1.75Z"
              fill="#8F959E"/>
        <path d="M46.607 48.115a.5.5 0 0 1-.227.67l-5.14 2.541a1.5 1.5 0 0 1-2.046-.759l-.9-2.124a.5.5 0 1 1 .92-.39l.9 2.124a.5.5 0 0 0 .683.253l5.14-2.541a.5.5 0 0 1 .67.226Zm1.776 7.318a.5.5 0 0 0 .354.612l22.526 6.036a.5.5 0 1 0 .258-.966L48.996 55.08a.5.5 0 0 0-.613.353Zm-15.986 7.678a2.5 2.5 0 0 1 3.062-1.768l6.533 1.75a2.5 2.5 0 0 1 1.767 3.063l-1.75 6.532a2.5 2.5 0 0 1-3.062 1.768l-6.533-1.75a2.5 2.5 0 0 1-1.768-3.062l1.75-6.533Zm2.803-.802a1.5 1.5 0 0 0-1.837 1.06l-1.75 6.534a1.5 1.5 0 0 0 1.06 1.837l6.533 1.75a1.5 1.5 0 0 0 1.837-1.06l1.75-6.533a1.5 1.5 0 0 0-1.06-1.837L35.2 62.31Zm8.157 11.883a.5.5 0 0 1 .612-.354l22.526 6.036a.5.5 0 1 1-.259.966L43.71 74.804a.5.5 0 0 1-.353-.612Z"
              fill="#8F959E"/>
        <path d="m115.604 90.293-.021 7.107c-.381-1.454-2.322-3.58-4.525-3.575l1.062-7.174c1.797.239 2.716.97 3.484 3.642Z"
              fill="#0C296E"/>
        <path d="M67.116 108.675v-7.798c14.233-4.509 30.99.027 39.196-1.252 7.248-1.13 9.329-4.513 9.329-9.502v9.648c0 2.996-.994 6.153-8.56 7.622-7.565 1.469-25.99-3.541-39.965 1.282ZM32.689 90.608v-8.472C19.94 81.73 14.86 78.172 7.547 70.86v9.866c3.803 3.857 10.794 9.285 25.14 9.883Z"
              fill="#3370FF"/>
        <path d="M11.925 99.535v-8.253c8.763 8.254 30.514 12.847 46.461 10.71v7.585c-17.745 2.118-38.44-2.17-46.461-10.041Z"
              fill="#00D6B9"/>
        <path d="M3.9 49.81v9.781c0-2.6 2.435-9.78 5.317-9.78V42.13c-2.526 0-5.318 4.014-5.318 7.68Z" fill="#0C296E"/>
        <path d="M3.89 50.132v8.647c0 5.07 3.474 7.255 7.287 9.651.714.45 1.441.907 2.16 1.391.33.224.66.454.985.691l.204-9.273c-4.819-2.463-8.102-4.8-9.639-7.463-.66-1.143-.998-2.346-.998-3.644Zm.997 5.3c.325.414.687.82 1.085 1.216 1.81 1.808 4.372 3.47 7.54 5.13l-.151 6.935c-.59-.389-1.179-.758-1.747-1.115l-.5-.315c-1.203-.76-2.294-1.473-3.229-2.259-.926-.778-1.663-1.6-2.174-2.555-.507-.947-.824-2.09-.824-3.554v-3.484Zm65.173 9.536c-.49.332-.885.855-.944 1.518a.5.5 0 0 0 .09.333l20.02 28.298v15.788a.5.5 0 0 0 1 0V94.958a.5.5 0 0 0-.091-.288L70.143 66.412c.067-.235.231-.45.478-.617a1.674 1.674 0 0 1 1.056-.28c.849.082 1.928.418 2.64.928a727.84 727.84 0 0 0 2.539 1.799c2.884 2.037 4.522 3.194 8.107 6.044a.5.5 0 0 0 .622-.783c-3.608-2.868-5.268-4.04-8.158-6.082a777.505 777.505 0 0 1-2.529-1.792c-.888-.635-2.147-1.016-3.127-1.11h-.004c-.6-.053-1.22.117-1.708.449Z"
              fill="#0C296E"/>
        <path d="M85.069 29.06c-.202-.068-.468-.088-.839-.008-.187.04-.405.188-.636.49-.226.295-.428.692-.594 1.13a7.69 7.69 0 0 0-.36 1.288c-.075.41-.094.72-.077.88l.002.013 3.415 43.538a.5.5 0 0 1-.997.078l-3.415-43.531c-.03-.302.008-.722.09-1.16.083-.453.22-.966.407-1.46.186-.492.43-.985.736-1.385.302-.394.704-.748 1.219-.859.5-.107.957-.101 1.37.039.415.14.743.403 1.006.735.504.636.812 1.587 1.097 2.614.122.44.4 1.954.767 4.07.372 2.134.841 4.92 1.35 7.939l.134.8c.984 5.846 2.087 12.406 2.891 16.758a.5.5 0 1 1-.983.182c-.806-4.361-1.91-10.928-2.893-16.77l-.136-.804c-.508-3.02-.977-5.803-1.348-7.934-.374-2.149-.64-3.595-.746-3.974-.292-1.053-.557-1.806-.916-2.26-.17-.213-.346-.342-.544-.41Z"
              fill="#0C296E"/>
        <path d="M101.738 55.622c-3.663-.302-7.464.339-10.287.913a.5.5 0 0 1-.2-.98c2.837-.577 6.756-1.244 10.569-.93 3.812.315 7.591 1.618 10.048 5.047 1.852 2.28 2.428 6.016 2.354 10.657-.074 4.678-.816 10.417-1.733 16.805l-.003.023-.002.006-1.401 6.904.939 16.544a.5.5 0 1 1-.998.057l-.943-16.608a.457.457 0 0 1 .009-.128l1.412-6.954c.916-6.39 1.647-12.063 1.721-16.665.073-4.636-.527-8.045-2.14-10.022a.305.305 0 0 1-.019-.025c-2.22-3.107-5.667-4.342-9.326-4.644Z"
              fill="#0C296E"/>
        <path d="M98.6 54.978a.5.5 0 0 1 .566.425l.674 4.75a.5.5 0 0 1-.99.14l-.674-4.75a.5.5 0 0 1 .424-.565Zm6.86.435a.5.5 0 0 1 .517.482c.033.95.009 1.677-.021 2.394l-.009.215c-.027.644-.055 1.293-.047 2.118a.5.5 0 1 1-1 .01c-.008-.852.021-1.526.048-2.17l.009-.214c.03-.71.053-1.407.021-2.318a.5.5 0 0 1 .482-.517Z"
              fill="#0C296E"/>
    </g>
    <defs>
        <clipPath id="ud3nwy6klnpa">
            <path fill="#fff" d="M0 0h120v120H0z"/>
        </clipPath>
    </defs>
</svg>
