<svg width="120" height="120" viewBox="0 0 120 120" fill="none" xmlns="http://www.w3.org/2000/svg"><path d="M6.611 18.273a.5.5 0 0 1 .586-.397l11.05 2.117a.5.5 0 1 1-.188.982l-11.05-2.117a.5.5 0 0 1-.398-.585Zm11.863-7.358a.5.5 0 0 1 .703.082l3.393 4.284a.5.5 0 0 1-.784.621l-3.393-4.285a.5.5 0 0 1 .081-.702Zm8.267-4.8a.5.5 0 0 1 .659.258l2.064 4.727a.5.5 0 1 1-.917.4l-2.064-4.726a.5.5 0 0 1 .258-.659ZM3.923 49.107c0-3.725 2.156-7.401 6.587-10.73v8.763c-4.431 3.328-6.587 7.004-6.587 10.73v-8.763Z" fill="#0C296E"/><path d="M3.913 57.87c0 3.886 2.329 7.824 6.849 11.49.322.262.655.522 1 .78v-8.763c-3.342-2.507-5.64-5.16-6.849-7.842-.664-1.473-1-2.955-1-4.427v8.763Zm1-2.212c1.333 2.163 3.307 4.25 5.849 6.215v6.185c-3.966-3.4-5.849-6.894-5.849-10.188v-2.212Z" fill="#0C296E"/><path d="M73.588 91.353C38.18 89.515 15.17 80.823 7.044 70.987v8.762c8.137 9.826 31.136 18.519 66.544 20.367v-8.763Z" fill="#3370FF"/><path d="M54.245 103.493c-12.955-1.828-23.586-4.7-31.692-8.167v8.763c8.106 3.467 18.727 6.338 31.692 8.166v-8.762Z" fill="#00D6B9"/><path d="M68.058 57.747c-4.4 5.845-11.13 9.848-18.838 10.61l9.844 14.999L64.73 73.18l11.646-.213-8.318-15.22ZM44.771 68.432c-7.729-.501-14.591-4.275-19.186-9.968l-7.799 15.491 11.647-.18 6.007 9.979 9.331-15.322Z" fill="#8F959E"/><path d="M46.997 68.484c14.863-.25 26.708-12.503 26.457-27.365-.25-14.863-12.503-26.708-27.365-26.457-14.863.25-26.708 12.503-26.457 27.366.25 14.862 12.503 26.707 27.365 26.456Zm.226-38.767 3.395 6.384c.143.27.407.454.708.497l7.16 1.015a.953.953 0 0 1 .551 1.606l-5.022 5.202a.953.953 0 0 0-.253.826l1.247 7.123a.954.954 0 0 1-1.358 1.021l-6.498-3.17a.954.954 0 0 0-.865.016L39.9 53.623a.954.954 0 0 1-1.391-.975l1.005-7.16a.954.954 0 0 0-.28-.818l-5.196-5.029a.954.954 0 0 1 .498-1.624l7.12-1.256a.953.953 0 0 0 .691-.52l3.178-6.495a.953.953 0 0 1 1.698-.029Z" fill="#BBBFC4" fill-opacity=".45"/><path d="M45.493 29.696a.953.953 0 0 1 1.698-.028l3.395 6.383c.143.27.407.454.708.497l7.16 1.015a.954.954 0 0 1 .551 1.606l-5.022 5.202a.954.954 0 0 0-.253.827l1.247 7.122a.954.954 0 0 1-1.357 1.021l-6.5-3.169a.953.953 0 0 0-.864.015l-6.388 3.387a.954.954 0 0 1-1.391-.975l1.006-7.16a.953.953 0 0 0-.282-.819l-5.195-5.029a.953.953 0 0 1 .498-1.624l7.12-1.256a.953.953 0 0 0 .691-.52l3.178-6.495Z" fill="#8F959E"/><path d="M81.341 29.473a.5.5 0 0 1 .585.398c.19 1.004.626 4.758 1.011 8.226a1245.547 1245.547 0 0 1 .669 6.161l.06.56-.498.053.497-.052a.5.5 0 0 1 .003.062c-.046 2.26-1.567 4.169-3.841 4.364h-.011c-.62.04-1.303-.148-1.968-.43-.674-.286-1.377-.69-2.051-1.13-1.348-.88-2.626-1.94-3.396-2.605-1.433-1.23-2.937-2.179-4.28-2.752-1.364-.582-2.468-.735-3.158-.518-.041.015-.054.031-.067.062a.638.638 0 0 0-.018.307c.04.317.207.707.414.992l.005.008c.365.523.958 1.315 1.463 1.98a175.834 175.834 0 0 0 .844 1.102l.07.091.001.001a7404.95 7404.95 0 0 0 14.06 17.979c2.593 3.307 5.183 6.612 7.769 9.918a.5.5 0 0 1 .104.26c.462 4.833.947 9.318 1.446 13.922.647 5.982 1.316 12.163 1.983 19.567a.5.5 0 0 1-.996.09c-.668-7.415-1.334-13.564-1.98-19.525-.492-4.554-.974-8.998-1.435-13.813-2.554-3.266-5.114-6.532-7.676-9.8-4.69-5.985-9.386-11.976-14.064-17.984l-.001-.001-.073-.094-.197-.257c-.167-.217-.397-.517-.65-.85a71.846 71.846 0 0 1-1.485-2.01c-.287-.396-.531-.94-.595-1.452a1.612 1.612 0 0 1 .088-.814 1.09 1.09 0 0 1 .669-.626l.01-.003c1.044-.334 2.434-.06 3.861.548 1.453.62 3.043 1.63 4.54 2.913l.002.001c.757.656 1.996 1.682 3.288 2.526.647.422 1.295.791 1.895 1.046.606.257 1.118.378 1.509.354 1.675-.147 2.87-1.544 2.92-3.357l-.056-.527a1454.567 1454.567 0 0 0-.667-6.157c-.389-3.495-.82-7.195-1-8.15a.5.5 0 0 1 .397-.584Zm23.315-6.8c.169.306.315.76.381 1.342.069.595.105 2.241.119 4.42a563.54 563.54 0 0 1-.014 7.387 1444.068 1444.068 0 0 1-.096 9.143l-.012.834.5.009-.5-.009.003.06a55668.986 55668.986 0 0 0 2.851 27.158c.683 4.3 1.122 6.969 1.48 9.146.752 4.574 1.149 6.984 2.708 17.815a.5.5 0 1 0 .99-.143c-1.561-10.84-1.959-13.26-2.712-17.838-.358-2.175-.796-4.838-1.477-9.123-.947-9.016-1.895-18.031-2.843-27.089l.012-.806.029-2.226c.022-1.852.049-4.35.067-6.924.018-2.575.028-5.23.014-7.4-.013-2.154-.049-3.866-.125-4.528-.078-.676-.252-1.264-.5-1.713-.239-.43-.597-.819-1.08-.91-.532-.1-.984.194-1.297.635-.311.437-.55 1.09-.711 1.953-.313 1.68-.852 5.884-1.31 9.647a991.827 991.827 0 0 0-.774 6.543l-.067.583.497.058.496.056.067-.582.181-1.565c.153-1.309.363-3.089.593-4.973.46-3.776.994-7.942 1.3-9.584.149-.797.352-1.289.543-1.556.182-.257.287-.234.296-.232.053.01.211.088.391.412Zm-3.924 18.52a.5.5 0 0 0 .553-.44l-.496-.056-.497-.058a.5.5 0 0 0 .44.554Z" fill="#0C296E"/><path d="M85.2 26.52a.5.5 0 0 0 .364.606l.121-.485.122-.484a.5.5 0 0 0-.606.363Zm9.307 3.646c1.196.567 2.11 1.137 2.561 1.659h.001c.403.462.818 1.288 1.216 2.326.392 1.024.746 2.2 1.046 3.32a63.7 63.7 0 0 1 .9 3.872l.05.253.012.066.003.016.001.005.492-.092.491-.092-.001-.006-.003-.018-.013-.068-.051-.26a64.302 64.302 0 0 0-.915-3.933c-.304-1.138-.67-2.351-1.078-3.42-.403-1.053-.87-2.022-1.395-2.625-.6-.692-1.683-1.335-2.89-1.907-1.225-.58-2.65-1.118-3.996-1.576a73.476 73.476 0 0 0-5.019-1.5l-.082-.022-.022-.006-.008-.001-.122.485-.121.484.006.002.02.005.08.02.306.08a72.408 72.408 0 0 1 4.64 1.398c1.33.453 2.714.977 3.89 1.535Zm6.373 11.917a.5.5 0 0 0 .4-.584l-.491.092-.492.092a.5.5 0 0 0 .583.4Z" fill="#0C296E"/><path d="M78.284 26.374c1.85-.082 4.244.167 6.095.422l.011.002c.722.083 1.33.24 1.745.598.303.286.477.719.642 1.23l.003.01c.937 2.732 1.345 4.662 2.045 8.363a.5.5 0 0 0 .983-.186c-.702-3.708-1.12-5.696-2.08-8.498-.164-.507-.402-1.176-.918-1.657l-.012-.01c-.656-.573-1.53-.756-2.288-.843-1.86-.256-4.33-.517-6.275-.43h-.008c-.706.044-1.5.131-2.18.482l-.012.006c-.64.352-1.124.903-1.527 1.362l-.132.15a1682.424 1682.424 0 0 1-2.908 3.584c-.145.178-.29.355-.43.529a745.957 745.957 0 0 0-2 2.464l-.008.01c-.453.59-.743 1.492-.398 2.243.383.834 1.364 1.143 2.74.895.707-.126 1.502-.558 2.261-1.078.772-.528 1.562-1.186 2.267-1.822a40.191 40.191 0 0 0 2.323-2.28l.023-.026 3.175.355a.5.5 0 0 0 .11-.993l-3.424-.384a.5.5 0 0 0-.426.161l-.002.003-.01.01-.035.038a36.387 36.387 0 0 1-.661.695 39.31 39.31 0 0 1-1.743 1.679c-.688.62-1.44 1.246-2.162 1.74-.734.502-1.383.83-1.872.918h-.001c-1.224.22-1.563-.13-1.655-.329-.129-.281-.048-.782.28-1.212.356-.442 1.122-1.384 1.994-2.457l.43-.53c1.043-1.283 2.164-2.663 2.888-3.559l.118-.133c.42-.477.786-.89 1.262-1.154.475-.243 1.08-.326 1.772-.368Zm13.436 1.639a.5.5 0 0 0-.263.656c1.23 2.879 2.294 5.835 3.07 8.872a.5.5 0 0 0 .969-.248c-.792-3.097-1.874-6.103-3.12-9.017a.5.5 0 0 0-.656-.263Zm24.365 52.103c0-1.58-.872-4.295-2.916-7.312-1.041-1.537-3.047-3.947-5.389-5.335l1.171 10.15c.911.26 3.351 3.805 4.218 5.18 1.412 2.24 2.916 4.5 2.916 6.08v-8.763Z" fill="#0C296E"/><path d="M83.159 91.65c-.644 0-1.308-.02-1.96-.03v8.763c.653.01 1.326.03 1.96.03 22.481 0 32.927-6.756 32.927-11.902v-8.763c0 5.147-10.446 11.902-32.927 11.902Z" fill="#3370FF"/></svg>