<svg width="88" height="88" viewBox="0 0 88 88" fill="none" xmlns="http://www.w3.org/2000/svg"><path d="M54 64.8c-6.07 2.86-11.19 5.65-18.28 7.6v5.08a77.381 77.381 0 0 0 18.28-7V64.8Z" fill="#FFC60A"/><path d="M10.26 64.73V56c-4.66 4.51-7.09 8.65-5.63 11.84C6.37 70.2 6 72 7.38 73.56c-.94-2.56.24-5.56 2.88-8.83Z" fill="#0C296E"/><path d="M29.58 66.578c-14.73 3.89-23.51 3.78-25.27.49l2.16 5.61c1.73 3 9.73 3.43 23.11 0v-6.1Z" fill="#3370FF"/><path d="M50.11 33.5a1.5 1.5 0 1 0 0 3 1.5 1.5 0 0 0 0-3Zm-2.5 1.5a2.5 2.5 0 1 1 5 0 2.5 2.5 0 0 1-5 0Zm2.5 10a1.5 1.5 0 1 0 0 3 1.5 1.5 0 0 0 0-3Zm-2.5 1.5a2.5 2.5 0 1 1 5 0 2.5 2.5 0 0 1-5 0Zm6.45-22.73a.5.5 0 0 1 .5-.5H66.2a.5.5 0 1 1 0 1H54.56a.5.5 0 0 1-.5-.5Zm-3.95-1.5a1.5 1.5 0 1 0 0 3 1.5 1.5 0 0 0 0-3Zm-2.5 1.5a2.5 2.5 0 1 1 5 0 2.5 2.5 0 0 1-5 0ZM54.06 35a.5.5 0 0 1 .5-.5H66.2a.5.5 0 1 1 0 1H54.56a.5.5 0 0 1-.5-.5Zm0 11.5a.5.5 0 0 1 .5-.5H66.2a.5.5 0 1 1 0 1H54.56a.5.5 0 0 1-.5-.5Zm21.12-18.879v-6.18c2.26 0 5.82 1.86 6.29 4.09 0 4.2.09 6 0 7.53-.69-2.51-3.47-5.68-6.29-5.44Z" fill="#0C296E"/><path d="M70.79 38.29c10.71-5.58 10.73-9.8 10.73-13.43v7.31c0 2.7-.72 7-10.73 12.64v-6.52Z" fill="#00D6B9"/><path d="M40.91 7.747a3.24 3.24 0 0 0-2 2.993v14.18a.5.5 0 0 0 1 0V10.74a2.241 2.241 0 0 1 2.24-2.24h30.17a2.24 2.24 0 0 1 2.24 2.213V58.71a2.24 2.24 0 0 1-2.24 2.24H47.53a.5.5 0 0 0 0 1h24.79a3.24 3.24 0 0 0 3.24-3.24V10.704A3.24 3.24 0 0 0 72.32 7.5H42.15a3.24 3.24 0 0 0-1.24.247Z" fill="#0C296E"/><path d="M44.39 14.54a.5.5 0 0 1 .5-.5h24.69a.5.5 0 1 1 0 1H44.89a.5.5 0 0 1-.5-.5Zm-29.4 18.519a.5.5 0 0 1 .5-.5h24.69a.5.5 0 0 1 0 1H15.49a.5.5 0 0 1-.5-.5Z" fill="#0C296E"/><path d="M70 72.77a12.33 12.33 0 1 1 12.32-12.32A12.32 12.32 0 0 1 70 72.77Z" fill="#00D6B9"/><path d="M74.69 56.371a.529.529 0 0 1 .38.16l1.25 1.25c.049.05.09.107.12.17.01.07.01.14 0 .21a.67.67 0 0 1 0 .2.568.568 0 0 1-.12.18L69 65.821a.66.66 0 0 1-.17.12.57.57 0 0 1-.42 0 .663.663 0 0 1-.17-.12l-4.6-4.6a.663.663 0 0 1-.12-.17.57.57 0 0 1 0-.42.662.662 0 0 1 .12-.17l1.25-1.25a.52.52 0 0 1 .17-.12c.07-.01.14-.01.21 0a.651.651 0 0 1 .2 0 .57.57 0 0 1 .18.12l3 3 5.65-5.65a.551.551 0 0 1 .39-.19Z" fill="#fff"/><path d="M42.94 80.742H12.75a3.232 3.232 0 0 1-3.25-3.23v-48a3.22 3.22 0 0 1 1-2.3 3.22 3.22 0 0 1 1-.7c.393-.175.82-.257 1.25-.24h30.18a3.199 3.199 0 0 1 2.29.94c.29.29.527.628.7 1 .162.396.247.82.25 1.25v48a3.27 3.27 0 0 1-.95 2.29c-.3.3-.657.538-1.05.7a3.283 3.283 0 0 1-1.23.29Zm-30.2-53.47c-.29-.002-.58.053-.85.16a2.4 2.4 0 0 0-.73.49 2.35 2.35 0 0 0-.66 1.59v48a2.24 2.24 0 0 0 2.25 2.23h30.18c.295.01.589-.044.86-.16a2.33 2.33 0 0 0 1.21-1.21c.111-.274.169-.566.17-.86v-48a2.23 2.23 0 0 0-.66-1.59 2.4 2.4 0 0 0-.73-.49 2.249 2.249 0 0 0-.85-.16H12.74Z" fill="#0C296E"/><path d="m29.343 51.37.053-.052.102-.102.067-.069.211-.214.287-.291.246-.25.231-.236.242-.245.221-.228.308-.313.179-.171a6.24 6.24 0 0 1 .345-.304c.111-.09.222-.176.333-.259a7.003 7.003 0 0 1 1.497-.83 7 7 0 0 1 .432-.156 12.639 12.639 0 0 0-2.297-4.745 1.115 1.115 0 0 0-.385-.313 1.082 1.082 0 0 0-.478-.111h-8.873a.163.163 0 0 0-.097.032.175.175 0 0 0-.001.276 26.419 26.419 0 0 1 7.355 8.6l.022-.02Z" fill="#00D6B9"/><path d="M25.823 59.405c2.174 0 4.308-.597 6.181-1.73a12.38 12.38 0 0 0 4.687-5.127 5.35 5.35 0 0 1-.489.789 4.923 4.923 0 0 1-.87.892 4.237 4.237 0 0 1-.396.282c-.053.033-.11.069-.166.1a4.506 4.506 0 0 1-1.566.55 4.685 4.685 0 0 1-.835.059 5.258 5.258 0 0 1-1.316-.194 25.131 25.131 0 0 1-.456-.131l-.226-.069c-.111-.034-.226-.07-.337-.106-.092-.029-.184-.057-.277-.09l-.26-.088-.177-.062-.215-.076-.153-.057a18.563 18.563 0 0 1-.302-.114l-.174-.065-.233-.093-.245-.1-.159-.067-.197-.082-.152-.066-.158-.07-.137-.062-.125-.057-.126-.057-.13-.062-.166-.078-.172-.085-.183-.091-.155-.08a25.653 25.653 0 0 1-7.26-5.568.161.161 0 0 0-.18-.042.173.173 0 0 0-.106.156l.005 8.054v.653c0 .187.044.371.13.536.084.166.208.306.36.41a11.895 11.895 0 0 0 6.736 2.088Z" fill="#3370FF"/><path d="M39.279 48.051a6.832 6.832 0 0 0-6.112-.023 6.943 6.943 0 0 0-1.677 1.169l-.178.17-.306.317-.222.228-.241.245-.232.235-.247.247-.287.292-.212.217-.07.071-.102.103-.053.051-.078.077-.085.08a12.243 12.243 0 0 1-2.528 1.842l.167.078.13.062.126.057.125.057.137.062.158.07.152.066.197.086.158.066.246.1.233.093.175.068c.1.038.2.077.301.114l.153.057.215.077.177.062.26.088.277.09c.11.036.222.071.337.106l.226.068a23.603 23.603 0 0 0 .623.175 5.124 5.124 0 0 0 1.15.15c.145 0 .289 0 .431-.012a4.553 4.553 0 0 0 .947-.167 4.54 4.54 0 0 0 1.783-.976 4.691 4.691 0 0 0 .486-.495 4.974 4.974 0 0 0 .325-.427 5.4 5.4 0 0 0 .347-.588l.118-.243 1.069-2.205v.005a6.994 6.994 0 0 1 1.4-2.065Z" fill="#133C9A"/></svg>