<svg width="140" height="140" viewBox="0 0 140 140" fill="none" xmlns="http://www.w3.org/2000/svg"><mask id="udm68017983a" style="mask-type:alpha" maskUnits="userSpaceOnUse" x="8" y="9" width="124" height="124"><circle cx="70" cy="71" r="62" fill="#C4C4C4"/></mask><g mask="url(#udm68017983a)"><path d="M125 142c0 14.912-24.848 27-55.5 27S14 156.912 14 142s24.848-27 55.5-27 55.5 12.088 55.5 27Z" fill="#14C0FF"/><path d="M53.5 109.5V88l31 .5c0 2.5.1 9.6.5 18s2.5 10.833 3.5 11c0 0-5 4.5-18 4s-20.5-4-20.5-4 3.5-3.5 3.5-8Z" fill="#fff"/><path d="M53.15 87.644a.5.5 0 0 1 .358-.144l31 .5a.5.5 0 0 1 .492.5c0 2.492.1 9.584.5 17.976.198 4.167.817 6.812 1.487 8.419.334.803.676 1.333.973 1.663.303.338.527.433.622.449a.5.5 0 0 1 .253.865l-.335-.372.335.372-.003.002-.005.004-.015.014-.053.044a6.13 6.13 0 0 1-.198.156c-.175.131-.434.314-.783.529-.7.431-1.76.992-3.23 1.535-2.94 1.087-7.506 2.096-14.067 1.844-6.541-.252-11.703-1.258-15.235-2.205a46.228 46.228 0 0 1-4.045-1.271 26.356 26.356 0 0 1-1.316-.527l-.07-.032-.019-.008-.005-.003h-.002L50 117.5l-.21.454a.499.499 0 0 1-.143-.807m0 0v-.001l.006-.006.025-.026.104-.111c.09-.099.22-.246.379-.438.316-.384.74-.943 1.162-1.637.85-1.396 1.677-3.304 1.677-5.428V88a.5.5 0 0 1 .15-.356m-2.31 29.669c.193.077.43.169.709.273.892.331 2.221.779 3.955 1.244 3.468.928 8.556 1.922 15.015 2.17 6.439.248 10.873-.743 13.683-1.781 1.405-.52 2.407-1.052 3.051-1.449.117-.072.222-.14.316-.202a3.275 3.275 0 0 1-.353-.342c-.392-.435-.787-1.07-1.152-1.946-.73-1.752-1.362-4.523-1.563-8.756-.377-7.911-.488-14.672-.5-17.532L54 88.508V109.5c0 2.376-.922 4.468-1.823 5.947a15.314 15.314 0 0 1-1.244 1.754l-.093.112Z" fill="#0C296E"/><path d="M90.396 66.662c.98-1.768 2.357-2.015 3.224-.996 1.48 1.743 1.3 4.592 1.071 6.35-.58 4.544-3.043 10.742-6.743 10.742" fill="#fff"/><path d="M93.239 65.99c.647.763.953 1.796 1.06 2.894.106 1.094.009 2.202-.104 3.068-.284 2.224-1.03 4.848-2.145 6.9-1.136 2.09-2.549 3.406-4.102 3.406a.5.5 0 0 0 0 1c2.147 0 3.815-1.784 4.98-3.928 1.186-2.182 1.962-4.929 2.259-7.25.116-.892.224-2.087.107-3.292-.116-1.201-.46-2.465-1.293-3.445-.542-.637-1.294-.92-2.08-.707-.754.204-1.435.833-1.962 1.783a.5.5 0 1 0 .874.486c.454-.818.951-1.196 1.348-1.303m0 0c.363-.099.732.005 1.058.388l-1.058-.388Z" fill="#0C296E"/><path d="M48.709 66.99c-1.114-1.615-3.1-1.372-4.086-.444-1.68 1.591-1.47 4.192-1.219 5.793.662 4.144 3.629 9.799 7.653 9.799" fill="#fff"/><path d="M46.634 65.314c.908.03 1.834.446 2.486 1.391a.5.5 0 1 1-.822.568c-.462-.669-1.086-.94-1.697-.96-.627-.02-1.24.225-1.634.597-.728.689-1.064 1.611-1.182 2.589-.118.98-.01 1.976.113 2.761.32 2.005 1.202 4.383 2.484 6.25 1.293 1.88 2.91 3.127 4.675 3.127a.5.5 0 1 1 0 1c-2.26 0-4.138-1.58-5.5-3.561-1.372-1.998-2.305-4.518-2.646-6.658v-.001c-.129-.816-.253-1.92-.119-3.038.135-1.12.535-2.294 1.488-3.196.592-.558 1.465-.898 2.354-.869Z" fill="#0C296E"/><path d="M47 51.5c0 6.86.585 23.5 4.484 36.91 2.143 7.37 7.048 9.552 11.014 11.609 6.595 3.421 15.395 2.496 20.51-2.196C90.392 91.045 92 87.911 92 54.5" fill="#fff"/><path d="M47 51a.5.5 0 0 1 .5.5c0 6.85.586 23.431 4.465 36.77l-.48.14.48-.14c1.971 6.782 6.316 9.017 10.152 10.99.206.106.41.21.612.316 6.427 3.333 14.996 2.415 19.94-2.121 1.843-1.692 3.29-3.125 4.444-4.841 1.15-1.71 2.021-3.721 2.673-6.577C91.096 80.295 91.5 71.22 91.5 54.5a.5.5 0 0 1 1 0c0 16.692-.4 25.887-1.74 31.76-.673 2.952-1.587 5.083-2.817 6.912-1.225 1.821-2.748 3.322-4.598 5.02-5.284 4.848-14.314 5.778-21.077 2.271l-.626-.323c-3.855-1.98-8.544-4.39-10.638-11.59C47.084 75.07 46.5 58.37 46.5 51.5a.5.5 0 0 1 .5-.5Z" fill="#0C296E"/><path d="M71.568 70.46a.5.5 0 0 1 .556.438l1.343 11.18a.5.5 0 0 1-.993.119l-1.343-11.18a.5.5 0 0 1 .437-.556Z" fill="#0C296E"/><path d="M48.587 75.167c-5.162-9.994-7.757-23.518-1.438-31.445 5.19-7.826 16.57-8.207 16.57-8.207 2.467-2.458 6.938-3.82 9.686-4.516 2.752-.695 5.819-.552 8.228.948 1.143.71 2.124 1.748 2.543 3.025.91 2.324-1.552 4.601-1.552 4.601 3.514-.176 7.09 1.491 10.1 4.416 3.375 3.282 4.042 5.869 4.132 10.58l-3.347.02c.605 7.907-1.933 14.733-1.933 14.733l-3.348-15.015-34.88-.143s-1.228 10.694-4.633 12.814l-.128 8.189Z" fill="#0C296E"/><path d="M5.992 82.398h128.015v50.611H5.992v-50.61Z" fill="#3686FF" fill-opacity=".2"/></g><path d="M6 82h128v3H6v-3Z" fill="#00D6B9" fill-opacity=".5"/><path d="M70 7C34.654 7 6 35.654 6 71c0 28.589 18.746 52.802 44.62 61.013a1 1 0 0 1-.606 1.907C23.334 125.453 4 100.486 4 71 4 34.55 33.55 5 70 5c36.451 0 66 29.55 66 66 0 29.486-19.335 54.453-46.014 62.92a1 1 0 0 1-.605-1.907C115.254 123.802 134 99.589 134 71c0-35.346-28.654-64-64-64Z" fill="#BBBFC4" fill-opacity=".45"/></svg>