<svg width="260" height="163" viewBox="0 0 260 163" fill="none" xmlns="http://www.w3.org/2000/svg"><path d="M65.5 21a4.5 4.5 0 0 1 4.5-4.5h159a4.5 4.5 0 0 1 4.5 4.5v115a4.5 4.5 0 0 1-4.5 4.5H70a4.5 4.5 0 0 1-4.5-4.5V21Zm4.5-3.5a3.5 3.5 0 0 0-3.5 3.5v115a3.5 3.5 0 0 0 3.5 3.5h159a3.5 3.5 0 0 0 3.5-3.5V21a3.5 3.5 0 0 0-3.5-3.5H70Z" fill="#E0E0E0"/><path d="M81.908 31.913c-.204 0-.398.04-.574.114a.5.5 0 1 1-.383-.924c.295-.123.619-.19.957-.19h1.993a.5.5 0 1 1 0 1h-1.993Zm5.478-.5a.5.5 0 0 1 .5-.5h3.986a.5.5 0 1 1 0 1h-3.986a.5.5 0 0 1-.5-.5Zm7.972 0a.5.5 0 0 1 .5-.5h3.985a.5.5 0 0 1 0 1h-3.985a.5.5 0 0 1-.5-.5Zm7.971 0a.5.5 0 0 1 .5-.5h3.986a.5.5 0 0 1 0 1h-3.986a.5.5 0 0 1-.5-.5Zm7.971 0a.5.5 0 0 1 .5-.5h3.986a.5.5 0 0 1 0 1H111.8a.5.5 0 0 1-.5-.5Zm7.971 0a.5.5 0 0 1 .5-.5h3.986a.5.5 0 0 1 0 1h-3.986a.5.5 0 0 1-.5-.5Zm7.972 0a.5.5 0 0 1 .5-.5h3.985a.5.5 0 0 1 0 1h-3.985a.5.5 0 0 1-.5-.5Zm7.971 0a.5.5 0 0 1 .5-.5h3.985a.5.5 0 1 1 0 1h-3.985a.5.5 0 0 1-.5-.5Zm7.971 0a.5.5 0 0 1 .5-.5h3.986a.5.5 0 0 1 0 1h-3.986a.5.5 0 0 1-.5-.5Zm7.971 0a.5.5 0 0 1 .5-.5h3.986a.5.5 0 0 1 0 1h-3.986a.5.5 0 0 1-.5-.5Zm7.971 0a.5.5 0 0 1 .5-.5h3.986a.5.5 0 0 1 0 1h-3.986a.5.5 0 0 1-.5-.5Zm7.972 0a.5.5 0 0 1 .5-.5h3.985a.5.5 0 0 1 0 1h-3.985a.5.5 0 0 1-.5-.5Zm7.971 0a.5.5 0 0 1 .5-.5h3.986a.5.5 0 0 1 0 1h-3.986a.5.5 0 0 1-.5-.5Zm7.971 0a.5.5 0 0 1 .5-.5h3.986a.5.5 0 0 1 0 1h-3.986a.5.5 0 0 1-.5-.5Zm7.971 0a.5.5 0 0 1 .5-.5h3.986a.5.5 0 0 1 0 1h-3.986a.5.5 0 0 1-.5-.5Zm7.972 0a.5.5 0 0 1 .5-.5h3.985a.5.5 0 0 1 0 1h-3.985a.5.5 0 0 1-.5-.5Zm7.971 0a.5.5 0 0 1 .5-.5h3.985a.5.5 0 1 1 0 1h-3.985a.5.5 0 0 1-.5-.5Zm7.971 0a.5.5 0 0 1 .5-.5h1.993c.338 0 .662.067.957.19a.5.5 0 0 1-.383.924 1.495 1.495 0 0 0-.574-.114h-1.993a.5.5 0 0 1-.5-.5Zm-134.675.773a.5.5 0 0 1 .27.653c-.072.176-.113.37-.113.574v1.978a.5.5 0 1 1-1 0v-1.978c0-.338.067-.662.19-.957a.5.5 0 0 1 .653-.27Zm138.825 0a.5.5 0 0 1 .653.27c.123.295.19.619.19.957v1.978a.5.5 0 0 1-1 0v-1.978c0-.204-.041-.398-.114-.574a.5.5 0 0 1 .271-.653Zm.343 6.66a.5.5 0 0 1 .5.5v3.957a.5.5 0 0 1-1 0v-3.956a.5.5 0 0 1 .5-.5Zm-139.511 0a.5.5 0 0 1 .5.5v3.957a.5.5 0 1 1-1 0v-3.956a.5.5 0 0 1 .5-.5Zm139.511 7.913a.5.5 0 0 1 .5.5v3.955a.5.5 0 0 1-1 0v-3.956a.5.5 0 0 1 .5-.5Zm-139.511 0a.5.5 0 0 1 .5.5v3.955a.5.5 0 1 1-1 0v-3.956a.5.5 0 0 1 .5-.5Zm139.511 7.911a.5.5 0 0 1 .5.5v3.956a.5.5 0 0 1-1 0V55.17a.5.5 0 0 1 .5-.5Zm-139.511 0a.5.5 0 0 1 .5.5v3.956a.5.5 0 1 1-1 0V55.17a.5.5 0 0 1 .5-.5Zm0 7.912a.5.5 0 0 1 .5.5v3.956a.5.5 0 1 1-1 0v-3.956a.5.5 0 0 1 .5-.5Zm139.511 0a.5.5 0 0 1 .5.5v3.956a.5.5 0 0 1-1 0v-3.956a.5.5 0 0 1 .5-.5ZM79.908 70.494a.5.5 0 0 1 .5.5v3.955a.5.5 0 1 1-1 0v-3.955a.5.5 0 0 1 .5-.5Zm139.511 0a.5.5 0 0 1 .5.5v3.955a.5.5 0 0 1-1 0v-3.955a.5.5 0 0 1 .5-.5Zm0 7.911a.5.5 0 0 1 .5.5v3.956a.5.5 0 0 1-1 0v-3.956a.5.5 0 0 1 .5-.5Zm-139.511 0a.5.5 0 0 1 .5.5v3.956a.5.5 0 1 1-1 0v-3.956a.5.5 0 0 1 .5-.5Zm139.511 7.912a.5.5 0 0 1 .5.5v3.956a.5.5 0 0 1-1 0v-3.956a.5.5 0 0 1 .5-.5Zm-139.511 0a.5.5 0 0 1 .5.5v3.956a.5.5 0 1 1-1 0v-3.956a.5.5 0 0 1 .5-.5Zm139.511 7.912a.5.5 0 0 1 .5.5v1.978c0 .338-.067.661-.19.957a.5.5 0 1 1-.924-.383 1.5 1.5 0 0 0 .114-.574v-1.978a.5.5 0 0 1 .5-.5Zm-139.511 0a.5.5 0 0 1 .5.5v1.978c0 .204.04.397.114.574a.5.5 0 0 1-.924.383 2.495 2.495 0 0 1-.19-.957v-1.978a.5.5 0 0 1 .5-.5Zm.773 4.134a.5.5 0 0 1 .653-.27c.176.073.37.114.574.114h1.993a.5.5 0 1 1 0 1h-1.993c-.338 0-.662-.068-.957-.19a.5.5 0 0 1-.27-.654Zm137.965 0a.5.5 0 0 1-.27.654c-.295.122-.619.19-.957.19h-1.993a.5.5 0 0 1 0-1h1.993c.204 0 .398-.041.574-.114a.5.5 0 0 1 .653.27Zm-131.26.344a.5.5 0 0 1 .5-.5h3.986a.5.5 0 1 1 0 1h-3.986a.5.5 0 0 1-.5-.5Zm7.972 0a.5.5 0 0 1 .5-.5h3.985a.5.5 0 0 1 0 1h-3.985a.5.5 0 0 1-.5-.5Zm7.971 0a.5.5 0 0 1 .5-.5h3.986a.5.5 0 0 1 0 1h-3.986a.5.5 0 0 1-.5-.5Zm7.971 0a.5.5 0 0 1 .5-.5h3.986a.5.5 0 0 1 0 1H111.8a.5.5 0 0 1-.5-.5Zm7.971 0a.5.5 0 0 1 .5-.5h3.986a.5.5 0 0 1 0 1h-3.986a.5.5 0 0 1-.5-.5Zm7.972 0a.5.5 0 0 1 .5-.5h3.985a.5.5 0 0 1 0 1h-3.985a.5.5 0 0 1-.5-.5Zm7.971 0a.5.5 0 0 1 .5-.5h3.985a.5.5 0 1 1 0 1h-3.985a.5.5 0 0 1-.5-.5Zm7.971 0a.5.5 0 0 1 .5-.5h3.986a.5.5 0 0 1 0 1h-3.986a.5.5 0 0 1-.5-.5Zm7.971 0a.5.5 0 0 1 .5-.5h3.986a.5.5 0 0 1 0 1h-3.986a.5.5 0 0 1-.5-.5Zm7.971 0a.5.5 0 0 1 .5-.5h3.986a.5.5 0 0 1 0 1h-3.986a.5.5 0 0 1-.5-.5Zm7.972 0a.5.5 0 0 1 .5-.5h3.985a.5.5 0 0 1 0 1h-3.985a.5.5 0 0 1-.5-.5Zm7.971 0a.5.5 0 0 1 .5-.5h3.986a.5.5 0 0 1 0 1h-3.986a.5.5 0 0 1-.5-.5Zm7.971 0a.5.5 0 0 1 .5-.5h3.986a.5.5 0 0 1 0 1h-3.986a.5.5 0 0 1-.5-.5Zm7.971 0a.5.5 0 0 1 .5-.5h3.986a.5.5 0 0 1 0 1h-3.986a.5.5 0 0 1-.5-.5Zm7.972 0a.5.5 0 0 1 .5-.5h3.985a.5.5 0 0 1 0 1h-3.985a.5.5 0 0 1-.5-.5Zm7.971 0a.5.5 0 0 1 .5-.5h3.985a.5.5 0 1 1 0 1h-3.985a.5.5 0 0 1-.5-.5Z" fill="#E0E0E0"/><path d="M217.419 109.375H81.908a2 2 0 0 0-2 2v7.489a2 2 0 0 0 2 2h135.511a2 2 0 0 0 2-2v-7.489a2 2 0 0 0-2-2Z" fill="#fff" fill-opacity=".3"/><path d="M134.481 45.723a2 2 0 0 1 2-2h21.471l8.534 8.534v32.14a2 2 0 0 1-2 2h-28.005a2 2 0 0 1-2-2V45.723Z" fill="#42BDEB"/><path d="M157.952 50.257v-6.534l8.534 8.534h-6.534a2 2 0 0 1-2-2Z" fill="#E0E0E0"/><path d="M140.957 64.027a.5.5 0 0 0 .5.5h18.054a.5.5 0 0 0 0-1h-18.054a.5.5 0 0 0-.5.5Z" fill="#EBEBEB"/><path d="M150.484 54.5a.5.5 0 0 1 .5.5v18.054a.5.5 0 0 1-1 0V55a.5.5 0 0 1 .5-.5Z" fill="#EBEBEB"/><path d="M193.978 134.098h6.565v-6.566h-6.565v6.566Zm12.036 0h34.019v-6.566h-34.019v6.566Z" fill="#4C88FF"/><path d="M120.743 60.327c.199-2.84 5.413-18.645 6.819-23.7.15-.54.196-1.197-.168-.772-.287.335-.955 2.093-1.394 2.145-.44.053-.65-1.6-.679-2.042-.133-2.06-.328-4.263-.591-5.778-.16-.9-.33-1.84-.92-2.53-.96-1.12-2.74-1.22-4.08-.61-1.49.681-2.192 2.882-3.19 6.016l-.04.124a893.716 893.716 0 0 0-2.546 8.148c-.954 3.672-1.895 1.614-2.566.258a26.804 26.804 0 0 0-1.06-1.971c-2.328-2.989-1.843-.532-1.608.898.392 2.378.812 5.06.968 6.057.041.266.133.515.275.744.842 1.359 3.887 6.3 3.887 6.636.009 1.39-.529 4.983-.64 5.71a1.898 1.898 0 0 1-.058.258l-9.595 32.355L102 96.5l-2.084-3.78-5.1-8.655a2 2 0 0 0-2.74-.706l-9.157 5.408a2 2 0 0 0-.585 2.919l1.17 1.565c.044.06.08.113.118.177.655 1.108 7.392 12.416 12.468 17.472 5.35 5.32 15.86 3.8 17.54-8.53l7.07-41.576c.027-.155.032-.31.043-.467Z" fill="#EBEBEB"/><path d="M103.08 114.3c-2.68 0-5.36-1.07-7.34-3.04-5.33-5.3-12.31-17.16-12.6-17.66l-2.54-3.4a.513.513 0 0 1-.09-.4c.03-.14.11-.26.24-.33l12.8-7.56a.46.46 0 0 1 .38-.05c.13.03.24.12.31.23l7.87 13.35 10.61-35.79s.65-4.2.64-5.7c-.13-.34-2.17-3.74-4.02-6.72a.438.438 0 0 1-.07-.19c-.01-.07-1.05-6.74-1.54-9.49-.03-.17.03-.34.15-.45.12-.12.29-.16.46-.12 1.59.39 2.88 3.06 3.92 5.21.19.4.39.8.57 1.15.65-2.1 2.14-6.94 3.21-10.31l.03-.11c1.03-3.23 1.77-5.56 3.46-6.33 1.44-.66 3.51-.62 4.67.74.69.82.88 1.9 1.03 2.76.34 1.97.57 5.01.69 7.36.77-1.6 1.27-2.34 1.89-2.39.16-.01.31.05.42.17.11.12.15.28.11.44-.28 1.25-1.34 4.68-2.57 8.66-1.95 6.29-4.61 14.9-4.52 16.21 0 .04 0 .08-.01.12l-7.11 41.81c-.79 5.77-3.66 9.9-7.89 11.33-1.03.33-2.1.5-3.16.5ZM81.73 90.04l2.24 3c.1.17 7.24 12.29 12.47 17.5 2.5 2.49 6.22 3.39 9.47 2.29 3.85-1.3 6.48-5.14 7.22-10.53l7.1-41.78c-.03-1.52 1.96-8.09 4.56-16.51.62-2 1.2-3.87 1.65-5.38-.14.31-.29.63-.42.93l-.07.15c-.1.21-.32.33-.55.28a.5.5 0 0 1-.4-.47c-.07-2.23-.32-6.7-.77-9.28-.14-.79-.29-1.68-.81-2.29-.82-.97-2.41-.97-3.49-.48-1.29.59-1.98 2.74-2.93 5.73l-.03.11c-1.4 4.41-3.53 11.35-3.53 11.35-.05.17-.19.3-.36.34a.53.53 0 0 1-.48-.13c-.34-.34-.68-1.04-1.27-2.25-.65-1.34-1.56-3.21-2.46-4.14.49 2.88 1.22 7.56 1.34 8.3 4.12 6.63 4.12 7 4.12 7.16.01 1.57-.64 5.74-.67 5.92l-10.93 36.95c-.06.19-.22.33-.42.35-.2.03-.39-.07-.49-.24l-8.2-13.9-11.89 7.02Z" fill="#2851A3"/><path d="M117.87 36.53c.58-2.36 1.77-7.13 2.35-9.48l-2.35 9.48Z" fill="#fff"/><path d="M117.87 37.03c-.04 0-.08 0-.12-.01a.512.512 0 0 1-.37-.61l2.35-9.48c.07-.27.34-.43.61-.37.27.07.43.34.37.61l-2.35 9.48a.51.51 0 0 1-.49.38Z" fill="#2851A3"/><path d="M121.27 37.56c.4-2.72 1.35-6.79 1.62-9.53l-1.62 9.53Z" fill="#fff"/><path d="M121.27 38.06c-.02 0-.05 0-.07-.01a.5.5 0 0 1-.42-.57c.17-1.12.42-2.44.69-3.84.38-2 .77-4.06.94-5.66.03-.27.28-.47.55-.45.27.03.48.27.45.55-.17 1.64-.56 3.73-.95 5.75-.26 1.39-.52 2.7-.68 3.8-.05.25-.27.43-.51.43Z" fill="#2851A3"/><path d="M116.68 37.35c1.81.46 3.64.88 5.48 1.26l-5.48-1.26Z" fill="#fff"/><path d="M122.16 39.11c-.03 0-.07 0-.1-.01-1.81-.37-3.66-.8-5.5-1.26a.498.498 0 0 1-.36-.61c.07-.27.34-.43.61-.36 1.82.46 3.66.89 5.45 1.25a.5.5 0 0 1 .39.59c-.05.23-.26.4-.49.4Z" fill="#2851A3"/><path d="M112.85 44.22c1.07 1.11 1.99 2.2 2.6 3.29l-2.6-3.29Z" fill="#fff"/><path d="M115.44 48.02a.49.49 0 0 1-.44-.26c-.51-.91-1.31-1.93-2.52-3.19-.19-.2-.18-.52.02-.71.2-.19.52-.19.71.02 1.29 1.34 2.11 2.39 2.67 3.39.13.24.05.55-.19.68-.08.05-.16.07-.25.07Z" fill="#2851A3"/><path d="M119.91 46.57c1.27-1.2 2.54-2.41 3.73-3.7.42-.46.76-1.01 1.03-1.58l.83-1.78" fill="#fff"/><path d="M119.91 47.07a.48.48 0 0 1-.36-.16c-.19-.2-.18-.52.02-.71 1.24-1.17 2.51-2.38 3.7-3.68.35-.39.67-.88.95-1.45l.83-1.78c.12-.25.41-.36.66-.24.25.12.36.41.24.66l-.83 1.78c-.32.67-.69 1.24-1.11 1.7-1.21 1.32-2.5 2.54-3.75 3.73-.1.11-.22.15-.35.15ZM26.19 79.02c13.04-.24 26.08-.48 39.12-.71 6.01-.11 21.17-.41 29.41-.41.96-2.84-6.01-8.46-7.16-10.73-1.71-3.4-1.42-4.33-1.74-8.07-.43-5.24-3.87-8.24-6.66-12.4-2.59-3.87-3.68-8.91-4.23-13.49-.16-1.29-.43-2.57-.86-3.8-.98-2.8-2.68-5.41-5.54-7.38-5.73-3.81-13.11-3.03-18.22.3-4.36 2.85-6.25 6.54-7.1 11.55-.89 5.28-5.32 8.33-6.79 13.29-.94 3.18-.13 6.68-1.03 9.87-1 3.56-3.94 6.19-5.99 9.28-1.37 2.06-2.39 4.86-1.85 7.36.62 2.81 2.5 4-1.36 5.34Z" fill="#2851A3"/><path d="M26.19 79.52c-.24 0-.45-.17-.49-.41-.04-.24.1-.48.33-.56 1.13-.39 1.77-.78 1.96-1.18.17-.37 0-.86-.32-1.7-.21-.54-.44-1.15-.6-1.88-.71-3.3 1.11-6.51 1.92-7.74.67-1 1.43-1.97 2.17-2.9 1.59-2.01 3.1-3.91 3.75-6.24.42-1.51.45-3.08.48-4.75.03-1.7.06-3.45.55-5.13.69-2.35 2.03-4.28 3.32-6.15 1.54-2.23 2.99-4.33 3.45-7.08.94-5.6 3.13-9.15 7.31-11.88 4.83-3.15 12.5-4.47 18.77-.3 2.68 1.85 4.61 4.41 5.73 7.63.42 1.19.71 2.5.88 3.9.72 5.89 2.04 10.11 4.15 13.27.68 1.02 1.41 1.97 2.11 2.9 2.21 2.9 4.3 5.65 4.65 9.73.06.72.1 1.34.14 1.9.14 2.29.21 3.34 1.55 6 .36.71 1.43 1.87 2.56 3.11 2.51 2.74 5.36 5.85 4.63 8.01-.07.2-.26.34-.47.34-7.23 0-19.98.24-26.83.37l-41.7.74c.01 0 0 0 0 0Zm33.77-59.53c-3.49 0-6.84 1.12-9.37 2.77-3.93 2.56-5.98 5.92-6.88 11.21-.5 2.97-2.09 5.27-3.62 7.48-1.25 1.8-2.53 3.67-3.18 5.86-.46 1.55-.48 3.16-.51 4.86-.03 1.65-.06 3.36-.52 5-.71 2.52-2.35 4.59-3.93 6.59-.73.92-1.48 1.86-2.12 2.83-1.55 2.34-2.22 4.95-1.78 6.98.14.66.36 1.23.55 1.74.35.91.65 1.7.29 2.48-.12.25-.3.48-.55.69l39.53-.72c6.72-.12 19.13-.36 26.44-.37.1-1.67-2.53-4.54-4.48-6.67-1.23-1.34-2.29-2.5-2.71-3.33-1.43-2.84-1.51-4.02-1.65-6.38-.03-.55-.07-1.16-.13-1.87-.32-3.79-2.32-6.42-4.44-9.21-.71-.94-1.45-1.91-2.15-2.95-2.21-3.29-3.58-7.65-4.31-13.71-.16-1.33-.44-2.57-.83-3.69-1.05-3.02-2.85-5.42-5.35-7.14-2.63-1.73-5.51-2.45-8.3-2.45Z" fill="#2851A3"/><path d="m49.52 123.4 30.8-.13c2.72 5.57 6.49 16.1 8.72 23.09H36.79c2.66-10.8 5.38-13.44 12.73-22.96Z" fill="#4C88FF"/><path d="M89.04 146.85H36.79c-.15 0-.3-.07-.39-.19-.09-.12-.13-.28-.09-.43 2.41-9.79 4.84-12.9 10.7-20.41.66-.85 1.37-1.75 2.12-2.73.09-.12.24-.19.39-.19l30.8-.13c.2.03.37.11.45.28 2.7 5.53 6.43 15.88 8.75 23.15.05.15.02.32-.07.45-.09.13-.25.2-.41.2Zm-51.61-1h50.93c-2.34-7.27-5.87-16.92-8.35-22.08l-30.24.13c-.7.9-1.36 1.75-1.97 2.54-5.65 7.23-8.06 10.32-10.37 19.41Z" fill="#4C88FF"/><path d="M53.119 60.129a1.18 1.18 0 0 0 .498-.274c.836-.794 2.076-2.571 2.203-8.938a2.05 2.05 0 0 1 .917-1.679l10.387-6.776c1.347-.88 3.123.115 3.073 1.722-.293 9.315-.656 14.094 1.623 15.876.433.33 1.403.853 2.729 1.113.914.18 1.726.8 1.931 1.709l.178.785c.067.298.065.608-.006.905l-1.709 7.158a2 2 0 0 1-2.363 1.492l-15.115-3.23a2 2 0 0 1-1.302-.934l-3.02-5.086a1.998 1.998 0 0 1-.128-.253L52.26 61.9c-.303-.728.1-1.558.859-1.771Z" fill="#EBEBEB"/><path d="M74.49 74.13c-.03 0-.07 0-.1-.01L56.51 70.3a.519.519 0 0 1-.33-.23l-3.54-5.96-1.41-3.39a.53.53 0 0 1 .01-.41.5.5 0 0 1 .31-.26l1.6-.45c.71-.62 2.18-2.17 2.18-9.77 0-.17.09-.33.23-.42l14.47-9.44c.16-.1.35-.11.52-.02.16.09.26.26.26.45-.05 2.19-.11 4.18-.17 5.98-.25 7.61-.39 11.8 1.5 13.29.56.43 2.03 1.15 4 1.17.23 0 .43.16.48.39l.63 2.79c.02.07.02.15 0 .23l-2.27 9.51c-.06.21-.26.37-.49.37Zm-17.56-4.76 17.18 3.67 2.13-8.92-.52-2.3c-2.04-.1-3.59-.89-4.21-1.36-2.3-1.8-2.16-5.91-1.89-14.11.05-1.53.11-3.2.15-5.02L56.32 50.1c-.03 7.15-1.33 9.23-2.61 10.33-.06.05-.12.08-.19.1l-1.17.33 1.17 2.8 3.41 5.71Z" fill="#2851A3"/><path d="M40.1 65.17c5.16-2.12 4.32-1.69 11.31-5.62l.16.01c1.05 1.21 6.92 7.64 13.79 9.15 6.31 1.39 9.24-.49 10.09-4.42.4-1.87.27-2.96.03-3.38 3.23 1.15 9.62 2.63 12.85 4.99 5.04 3.69 12.08 19.61 12.08 19.61l-12.08 8.97-.84-3.83-7.65 31.97-30.8.14L38.8 86.98" fill="#FAC823"/><path d="M49.06 123.26c-.22 0-.42-.15-.48-.36L38.32 87.12c-.08-.27.08-.54.34-.62.26-.08.54.08.62.34l10.15 35.42 30.03-.13 7.56-31.59c.05-.23.26-.38.49-.38.23 0 .43.17.48.39l.67 3.07 11.13-8.27c-1.08-2.39-7.3-15.78-11.75-19.04-2.33-1.71-6.41-2.95-9.7-3.96-.76-.23-1.5-.46-2.16-.67.07.71-.02 1.65-.25 2.72-.42 1.93-1.32 3.35-2.67 4.22-1.84 1.18-4.46 1.37-8.01.59-6.74-1.48-12.56-7.62-13.86-9.07l-.65.37c-5.56 3.12-5.56 3.12-9.35 4.68l-1.11.46c-.25.1-.55-.02-.65-.27-.1-.26.02-.55.27-.65l1.11-.46c3.74-1.53 3.74-1.53 9.24-4.63l.91-.51c.09-.05.19-.07.29-.06l.16.02c.13.01.25.07.33.17.66.76 6.61 7.47 13.52 8.98 3.23.71 5.68.56 7.26-.45 1.14-.73 1.87-1.9 2.23-3.59.39-1.82.24-2.76.08-3.02-.1-.18-.08-.41.05-.57.13-.16.35-.22.55-.15.82.29 1.87.61 2.99.95 3.35 1.02 7.53 2.3 9.99 4.11 5.09 3.73 11.95 19.15 12.24 19.81a.5.5 0 0 1-.16.6L88.61 94.9a.49.49 0 0 1-.78-.29l-.37-1.69-7.14 29.84c-.05.22-.25.38-.48.38l-30.78.12Z" fill="#FAC823"/><path d="M52.97 81.21 31.65 93.52a3.992 3.992 0 0 0-1.46 5.46l17.21 29.8a3.992 3.992 0 0 0 5.46 1.46l21.33-12.31a3.992 3.992 0 0 0 1.46-5.46l-17.21-29.8a4.003 4.003 0 0 0-5.47-1.46Z" fill="#41CCB9"/><path d="M92.31 91.79c1.38-.64 2.54-1.99 2.3-2.81-.15-.4-.75-.31-1.11-.1-3.45 1.9-9.65 4.47-13.3 5.95" fill="#EBEBEB"/><path d="M94.14 89.2c0 .07-.01.17-.06.3-.07.19-.21.41-.4.64-.39.46-.96.92-1.58 1.21-.25.12-.36.41-.24.66.12.25.41.36.66.24.75-.35 1.45-.89 1.93-1.47.24-.29.44-.6.56-.92.12-.31.18-.67.08-1.02 0-.01-.01-.02-.01-.03-.18-.48-.62-.61-.94-.61-.32 0-.64.1-.88.24-3.42 1.88-9.59 4.44-13.24 5.92a.501.501 0 0 0 .37.93c3.64-1.48 9.87-4.06 13.35-5.97l.01-.01c.12-.07.27-.11.39-.11-.01 0 0 0 0 0Z" fill="#2851A3"/><path d="M38.416 93.998a2 2 0 0 1 2 2.308l-2.15 13.778c-.12.77-.798 2.497-.266 2.916.53.418 2.269-.47 2.986-.768 7.06-2.936 23.652-9.954 30.374-13.832 5.68-3.27 14.27-5.32 21.34-6.47 4.63-.76 1.2 8.71-1.23 10.15-2.21 1.3-4.92 1.39-7.47 1.46-2 .05-5.54-.21-7.55-.15-2.99.1-20.74 15.47-33.66 22-6.32 3.18-15.18 5.71-17.19-.2-1.515-4.453-.683-23.197-.372-29.19a1.978 1.978 0 0 1 1.964-1.872l11.224-.13Z" fill="#EBEBEB"/><path d="M94.31 91.65c-.47-.26-1.04-.32-1.7-.21-7.08 1.15-15.75 3.21-21.51 6.53-4.3 2.48-12.68 6.26-20.02 9.44-3.66 1.59-7.05 3.01-9.53 4.05-1.24.52-2.25.93-2.95 1.22-.1.04-.19.08-.27.11l2.93-18.73a.494.494 0 0 0-.12-.4.517.517 0 0 0-.38-.17l-15.43.16c-.26 0-.48.21-.49.47l.5.03-.5-.03v.07l-.01.22c-.01.19-.03.47-.05.83a414.156 414.156 0 0 0-.48 12.43c-.08 3.55-.1 7.28.01 10.45.11 3.15.35 5.83.83 7.24.55 1.61 1.57 2.66 2.91 3.26 1.32.59 2.91.73 4.58.58 3.35-.3 7.21-1.76 10.39-3.36 6.5-3.29 14.2-8.79 20.62-13.45.52-.38 1.04-.75 1.54-1.12 2.6-1.89 4.94-3.6 6.85-4.89 1.14-.78 2.11-1.4 2.89-1.83.39-.22.72-.38.99-.49.28-.11.46-.15.56-.16.98-.03 2.35.02 3.74.07.04 0 .09 0 .13.01 1.34.05 2.68.1 3.67.08 2.53-.07 5.37-.16 7.71-1.53.73-.43 1.45-1.4 2.05-2.49.61-1.12 1.14-2.45 1.44-3.72.3-1.25.4-2.53.05-3.47-.17-.52-.47-.94-.95-1.2Zm-68.5 3 14.38-.17-2.97 19.02a.494.494 0 0 0 .68.54l-.19-.46.19.46.28-.12c.19-.08.46-.19.81-.33.7-.29 1.71-.71 2.95-1.22 2.48-1.03 5.88-2.46 9.54-4.05 7.32-3.17 15.76-6.98 20.12-9.49l-45.79-4.18Zm45.79 4.17c5.59-3.22 14.11-5.26 21.17-6.41.51-.09.84-.02 1.06.1.22.12.39.32.5.64.24.66.2 1.7-.09 2.9-.28 1.18-.78 2.43-1.35 3.47-.58 1.07-1.2 1.82-1.68 2.11-2.08 1.22-4.65 1.32-7.23 1.39-.96.02-2.28-.03-3.63-.08h-.11c-1.38-.05-2.79-.1-3.81-.07-.28.01-.59.1-.9.23-.32.13-.69.31-1.1.54-.82.46-1.82 1.1-2.97 1.88-1.93 1.31-4.28 3.03-6.88 4.92-.51.37-1.02.74-1.54 1.12-6.43 4.68-14.07 10.13-20.48 13.37-3.13 1.58-6.87 2.98-10.03 3.26-1.58.15-2.98.01-4.08-.49-1.08-.48-1.91-1.33-2.37-2.67-.43-1.25-.67-3.78-.78-6.95-.11-3.14-.09-6.85-.01-10.39.08-3.54.21-6.92.33-9.41.06-1.24.11-2.27.15-2.98.02-.26.03-.48.04-.65" fill="#2851A3"/><path d="M94.66 95.05a.505.505 0 0 0-.57-.42c-.28.04-.56.08-.85.13-.28.04-.57.08-.86.13-.27.04-.46.3-.42.57.04.27.3.46.57.42.28-.04.56-.08.85-.13.28-.04.57-.08.86-.13.27-.04.46-.3.42-.57Zm-4.34 3.01c-.04.27.15.53.43.56.8.11 1.7.08 2.57.02.28-.02.48-.26.46-.53a.494.494 0 0 0-.53-.46c-.86.06-1.67.09-2.36-.01a.5.5 0 0 0-.57.42Zm-58.6 18.77c-.19 0-.37-.11-.46-.29-.12-.25 0-.55.25-.66l5.99-2.75c.25-.12.55 0 .66.25.12.25 0 .55-.25.66l-5.99 2.75c-.06.03-.13.04-.2.04Z" fill="#2851A3"/><path d="m42.12 86.49-1.33 9.79-16.29-.72s0-12.41 1.66-18.7c.7-2.27 1.87-7.22 13.94-11.67" fill="#FAC823"/><path d="M40.79 96.78h-.02l-16.29-.72a.497.497 0 0 1-.48-.5c0-.51.02-12.54 1.68-18.83l.07-.23c.73-2.39 2.24-7.38 14.18-11.78.26-.1.55.04.64.3.1.26-.04.55-.3.64-11.47 4.23-12.88 8.89-13.57 11.13l-.07.22C25.2 82.45 25.02 92.75 25 95.08l15.35.68 1.27-9.34c.04-.27.29-.47.56-.43.27.04.47.29.43.56l-1.33 9.79c-.03.25-.24.44-.49.44Z" fill="#FAC823"/><path d="M40.79 96.78h-.07a.503.503 0 0 1-.43-.56l1.33-9.79c.04-.27.29-.47.56-.43.27.04.47.29.43.56l-1.33 9.79c-.03.24-.24.43-.49.43Zm5.23-71.24c2.5 0 4.52-2.03 4.52-4.52 0-2.5-2.03-4.52-4.52-4.52-2.5 0-4.52 2.03-4.52 4.52-.01 2.49 2.02 4.52 4.52 4.52Z" fill="#2851A3"/><path d="M46.02 26.04c-2.77 0-5.02-2.25-5.02-5.02 0-2.77 2.25-5.02 5.02-5.02 2.77 0 5.02 2.25 5.02 5.02 0 2.77-2.25 5.02-5.02 5.02Zm0-9.05c-2.22 0-4.02 1.81-4.02 4.02 0 2.21 1.8 4.02 4.02 4.02 2.22 0 4.02-1.81 4.02-4.02 0-2.21-1.8-4.02-4.02-4.02Z" fill="#2851A3"/><path d="M61.86 22.92h-.02c-7.16 0-12.98 5.6-12.98 12.5 0 6.91 1.67 8.4 5.04 8.4.01 0 7.94 4.1 7.94 4.1h.01l12.91-11.91c.02-6.9-5.73-13.09-12.9-13.09Z" fill="#EBEBEB"/><path d="M61.86 48.42c-.14 0-.14 0-3.33-1.65l-4.75-2.46c-4-.05-5.42-2.39-5.42-8.9 0-7.17 6.05-13 13.48-13h.03c3.56 0 6.94 1.46 9.51 4.11 2.48 2.57 3.91 6.03 3.91 9.49 0 3.61 0 6.65-1.72 8.88-1.87 2.41-5.58 3.53-11.71 3.53Zm-.01-25c-6.89 0-12.49 5.38-12.49 12 0 6.68 1.53 7.9 4.54 7.9.12 0 .12 0 5.09 2.57 1.38.72 2.61 1.35 2.97 1.54 5.73-.01 9.16-1.01 10.8-3.14 1.51-1.96 1.51-4.84 1.51-8.17 0-3.3-1.32-6.5-3.62-8.89-2.38-2.46-5.5-3.81-8.79-3.81h-.01Z" fill="#2851A3"/><path d="M74.68 34.29c.58 4.19.77 9.09-.17 12.9-1.1 4.48-4.27 7.43-9.04 7.93-2.8.29-5.7-.77-7.79-2.62-2.1-1.85-3.67-5.76-4.46-8.67" fill="#EBEBEB"/><path d="M64.56 55.66c-2.55 0-5.19-1.01-7.21-2.79-2.67-2.36-4.2-7.42-4.61-8.92-.07-.27.08-.54.35-.61.27-.07.54.08.61.35.8 2.94 2.35 6.7 4.31 8.43 2.07 1.83 4.84 2.76 7.41 2.5 4.46-.46 7.52-3.14 8.6-7.55 1.07-4.37.56-9.84.16-12.71a.49.49 0 0 1 .43-.56c.27-.04.53.15.56.43.41 2.94.93 8.56-.18 13.09-1.18 4.77-4.63 7.8-9.47 8.3-.31.02-.64.04-.96.04Z" fill="#2851A3"/><path d="m70.23 37.98 1.6 5.36c.06.21-.12.4-.33.36l-1.14-.24" fill="#EBEBEB"/><path d="M71.57 44.2c-.05 0-.11-.01-.16-.02l-1.15-.24a.5.5 0 1 1 .2-.98l.78.16-1.5-5c-.08-.26.07-.54.34-.62.26-.08.54.07.62.34l1.6 5.36c.08.27.02.55-.17.75a.75.75 0 0 1-.56.25Zm-.22-.72h.01-.01ZM52.46 39.2c.17-3.45 19.31.01 19.31-12.87 0 0-5.29-9.42-18.58-3.71-6.32 2.71-7.66 11.71-6.99 16.59.27 2.02 1.53 2.15 3.82 2.09.75-.02 1.44-2.1 2.44-2.1Z" fill="#2851A3"/><path d="M49.22 41.81c-1.67 0-3.22-.27-3.53-2.54-.7-5.11.67-14.28 7.29-17.12 7.05-3.03 11.89-1.81 14.71-.26 3.07 1.69 4.44 4.09 4.5 4.19.04.08.06.16.06.25 0 8.92-8.71 10.37-14.47 11.33-2.36.39-4.8.8-4.83 1.57-.01.27-.23.48-.5.48-.28 0-.7.55-.99.95-.43.58-.84 1.13-1.44 1.15-.26-.01-.53 0-.8 0Zm12.01-20.54c-2.2 0-4.81.5-7.85 1.81-5.79 2.48-7.4 10.89-6.69 16.06.2 1.52.89 1.72 3.31 1.66.14-.04.46-.48.66-.74.38-.52.81-1.09 1.37-1.29.44-1.24 2.64-1.61 5.59-2.1 5.72-.95 13.55-2.25 13.63-10.2-.48-.8-3.48-5.2-10.02-5.2Z" fill="#2851A3"/><path d="M53.91 43.82c-.91-.05-2.35-.35-3.13-.85-.96-.61-1.72-1.72-1.89-2.86-.11-.72 0-3.42 2.59-3.42 1.04 0 2.45 1.34 2.89 1.7" fill="#EBEBEB"/><path d="M53.91 44.32h-.03c-.84-.05-2.44-.33-3.37-.93-1.1-.7-1.92-1.96-2.11-3.2-.08-.5-.08-2.01.8-3.03.55-.64 1.32-.96 2.28-.96 1.11 0 2.35 1.07 3.02 1.65l.19.16c.21.18.24.49.07.7-.18.21-.49.24-.7.07l-.2-.17c-.45-.39-1.63-1.41-2.37-1.41-.67 0-1.17.2-1.53.62-.58.68-.64 1.8-.57 2.23.15.97.8 1.96 1.66 2.51.66.42 1.98.72 2.88.77a.496.496 0 0 1-.02.99Z" fill="#2851A3"/></svg>