<svg width="350" height="350" viewBox="0 0 350 350" fill="none" xmlns="http://www.w3.org/2000/svg"><path d="M268.76 143h-32.195c-2.156 0-3.903 1.791-3.903 4v22c0 2.209 1.747 4 3.903 4h32.195c2.155 0 3.902-1.791 3.902-4v-22c0-2.209-1.747-4-3.902-4Z" fill="#FFC60A"/><path d="M316.898 143h-32.195c-2.155 0-3.902 1.791-3.902 4v22c0 2.209 1.747 4 3.902 4h32.195c2.156 0 3.903-1.791 3.903-4v-22c0-2.209-1.747-4-3.903-4Z" fill="#3370FF"/><path d="M21 26a8 8 0 0 1 8-8h292a8 8 0 0 1 8 8v25H21V26Z" fill="#BBBFC4" fill-opacity=".45"/><path d="M175.499 58.668c.277 0 .502.224.502.501v114a.502.502 0 0 1-1.003 0v-114c0-.276.225-.501.501-.501ZM183 35c0 3.866-3.358 7-7.5 7-4.142 0-7.5-3.134-7.5-7s3.358-7 7.5-7c4.142 0 7.5 3.134 7.5 7Z" fill="#0C296E"/><path d="M163 59H33a4 4 0 0 0-4 4v106c0 2.209 1.771 4 3.98 4h130.026a3.995 3.995 0 0 0 3.994-4V63a4 4 0 0 0-4-4Z" fill="#BBBFC4" fill-opacity=".45"/><path d="M329.941 295.844v35.1H193.553c19.466 0 26.534-7.522 36.205-11.249 8.059-3.117 16.118-2.303 20.086-1.829 7.687.813 14.755.881 21.326-1.152 5.704-1.762 8.432-4.811 11.655-7.521 3.224-2.711 7.936-5.557 14.631-6.031 6.695-.474 14.135 1.491 19.838-.068 6.572-1.762 12.647-7.25 12.647-7.25ZM183 63a4 4 0 0 1 4-4h130a4 4 0 0 1 4 4v68a4 4 0 0 1-4 4H187a4 4 0 0 1-4-4V63Z" fill="#14C0FF"/><path d="M235.421 87.3c0-1.505 1.269-2.726 2.835-2.726h19.843c1.566 0 2.835 1.22 2.835 2.726v3.237l5.27-2.688c1.889-1.023 3.234-.295 3.234 1.79v14.276c0 2.085-1.345 3.036-3.234 2.014l-5.27-2.783v3.237c0 1.505-1.269 2.726-2.835 2.726h-19.843c-1.566 0-2.835-1.221-2.835-2.726V87.3Zm8.504 8.178c1.566 0 2.835-1.22 2.835-2.726 0-1.505-1.269-2.726-2.835-2.726-1.565 0-2.835 1.22-2.835 2.726s1.27 2.727 2.835 2.727Z" fill="#fff"/><path d="M220.098 143h-32.196c-2.155 0-3.902 1.791-3.902 4v22c0 2.209 1.747 4 3.902 4h32.196c2.155 0 3.902-1.791 3.902-4v-22c0-2.209-1.747-4-3.902-4Z" fill="#00D6B9"/><g clip-path="url(#uddc1sxdg4ra)"><path d="M295.755 160.269a.39.39 0 0 1 .393-.163c2.659.502 4.857 2.171 6.709 4.401 1.853 2.229 3.387 5.048 4.714 7.909a.38.38 0 0 1-.351.542l-16.509-.025a.386.386 0 0 1-.377-.305c-.116-.554-.021-1.118.169-1.643.189-.525.481-1.036.789-1.498.301-.453.626-.872.895-1.22l.017-.021c.285-.368.48-.623.56-.781.291-.571.399-.911.454-1.254.037-.227.051-.446.069-.735.012-.193.026-.417.05-.695.085-.998.461-1.778.928-2.482.232-.349.489-.684.742-1.014l.007-.009c.254-.331.505-.657.741-1.007Z" fill="#0C296E"/><path d="M297.347 153.396c-.646 1.275-1.016 3.495-1.016 3.495l-1.187 1.866a.104.104 0 0 0 .078.159l.81.076c0 2.184.109 3.828 2.074 4.162.344.04.682-.001 1.173-.098l.665 2.911-.99 1.832c-.123.266.906.726 2.084.771 2.8.109 5.041-1.601 5.041-1.601l-.922-2.32-.915-2.613s4.792-2.583 3.554-7.008c-1.41-5.422-8.921-4.64-10.449-1.632Z" fill="#fff"/><path d="M307.812 149.24a1.973 1.973 0 0 0-1.981-1.965 1.973 1.973 0 0 0-1.914 2.476 7.862 7.862 0 0 0-4.064.407 4.874 4.874 0 0 0-1.861 1.16 4.815 4.815 0 0 0-1.158 1.861.573.573 0 0 0-.021.204c-.03.567.325.952.735 1.217.412.266.969.471 1.511.666l.004.002c.499.174 1.015.357 1.423.575.203.108.362.216.472.322.108.104.153.189.167.255.015.09.046.175.092.254l.622 1.009.001.002a.774.774 0 0 0 .34.295c.009.041.019.095.026.164.025.211.027.505-.01.831-1.376 2.434-.929 5.157-.522 7.637l.005.033c.187 1.153.36 2.243.362 3.245.002.998-.167 1.872-.638 2.606a.763.763 0 0 0 .649 1.177h6.549c1.899 0 3.495 0 4.618-.002a281.98 281.98 0 0 0 1.662-.009l.099-.002.04-.002.012-.002a.77.77 0 0 0 .728-.702.757.757 0 0 0-.062-.367l-.003-.006a4.933 4.933 0 0 1-.452-2.233 4.39 4.39 0 0 0-.774-3.113 11.236 11.236 0 0 0-.685-.918l-.105-.131a.293.293 0 0 0-.038-.041 4.21 4.21 0 0 1-1.053-1.554 4.17 4.17 0 0 1-.269-1.853l.001-.012v-.01a7.222 7.222 0 0 0-.229-1.983 8.092 8.092 0 0 0-1.255-2.32l-.007-.009a5.503 5.503 0 0 1-1.108-2.227c-.418-2.459-1.289-4.191-2.715-5.205l-.009-.007a3.638 3.638 0 0 0-.103-.067 1.96 1.96 0 0 0 .918-1.658Z" fill="#0C296E"/><path d="m301.821 159.476.475-.042c.326-.017.642-.123.922-.298.342-.214.613-.601.674-.999.039-.251.001-1.196-.925-1.196-.373 0-.856.539-1.01.663" fill="#fff"/><path d="M302.573 156.428c-.039.357-.672 1.2-.672 1.2-.323-1.642-2.644-.493-3.794-1.798-.521-.544-.838-1.65-.752-2.734.353-1.154 1.465-1.812 2.654-2.233.001 0 2.737 4.002 2.564 5.565Z" fill="#0C296E"/><path d="M300.318 150.635a.801.801 0 0 0-.309-.155.378.378 0 0 0-.13.023c-1.211.428-2.483 1.142-2.894 2.481a.382.382 0 0 0-.015.082 4.998 4.998 0 0 0 .161 1.701c.144.514.375.988.69 1.32.638.718 1.572.809 2.267.877l.185.019c.388.041.675.088.884.194.174.09.306.226.365.523a.384.384 0 0 0 .293.3.389.389 0 0 0 .395-.145l-.31-.228.31.228v-.001l.002-.002.006-.008.022-.029.075-.105c.063-.088.147-.21.232-.344.086-.134.176-.285.249-.43.068-.134.142-.305.16-.467.054-.489-.117-1.108-.351-1.708a16.288 16.288 0 0 0-.911-1.886 30.876 30.876 0 0 0-1.334-2.18l-.024-.035-.007-.01-.003-.004-.003-.004-.005-.007Zm1.643 6.218a1.421 1.421 0 0 0-.451-.356c-.354-.18-.779-.235-1.155-.275l-.144-.015c-.757-.078-1.387-.144-1.814-.629l-.007-.007a.008.008 0 0 0-.004-.004c-.202-.212-.388-.561-.511-1.004a4.226 4.226 0 0 1-.139-1.395c.284-.868 1.099-1.437 2.121-1.84.067.103.153.234.251.388.251.396.583.938.91 1.527.327.591.644 1.221.868 1.794.23.589.336 1.057.303 1.349 0 0 0 .006-.003.017-.004.012-.008.027-.016.047-.014.04-.036.089-.064.145a3.935 3.935 0 0 1-.145.258Zm.228-.467Z" fill="#0C296E"/><path d="M302.309 152.008a6.485 6.485 0 0 0-2.905.526c-.856.381-1.491.926-1.798 1.543-.291.583-.529 1.41-.698 2.117-.083.349-.146.659-.189.882-.022.111-.038.2-.049.261l-.012.069-.003.017v.005a.507.507 0 0 1-.07.185l-.827 1.323.157.015a.501.501 0 0 1 .452.498c0 1.11.032 1.975.264 2.602.11.299.26.525.461.693.199.166.477.3.883.372.253.028.52 0 .982-.093a.5.5 0 0 1 .587.381l.652 2.911a.496.496 0 0 1-.046.344l-.818 1.541c.039.019.084.039.136.06.326.132.811.247 1.335.268 1.269.05 2.425-.32 3.276-.714.424-.196.765-.395.999-.544l.046-.03-.762-1.952-.007-.02-.898-2.613a.501.501 0 0 1 .233-.601l.007-.004.033-.019.134-.082a8.544 8.544 0 0 0 1.887-1.625c.961-1.125 1.735-2.709 1.187-4.706l-.002-.009c-.625-2.445-2.581-3.503-4.627-3.601Zm-6.624 5.158.001-.003a21.938 21.938 0 0 1 .249-1.2c.172-.721.432-1.642.776-2.333.443-.887 1.293-1.568 2.286-2.01a7.5 7.5 0 0 1 3.36-.611c2.362.114 4.785 1.374 5.546 4.348.665 2.427-.305 4.344-1.392 5.616a9.484 9.484 0 0 1-1.978 1.735l.765 2.226.901 2.311a.498.498 0 0 1-.159.576l-.307-.395.307.395-.001.001-.003.002-.006.005-.024.018-.083.06a7.409 7.409 0 0 1-.308.207 9.736 9.736 0 0 1-1.116.607c-.937.434-2.255.864-3.736.806a5.185 5.185 0 0 1-1.669-.339 2.106 2.106 0 0 1-.574-.325.874.874 0 0 1-.228-.283.618.618 0 0 1-.01-.531l.013-.028.885-1.668-.507-2.265c-.289.04-.552.052-.827.02l-.027-.004c-.551-.095-1.006-.291-1.368-.593a2.574 2.574 0 0 1-.758-1.114c-.261-.707-.314-1.581-.324-2.493l-.345-.034a.603.603 0 0 1-.453-.921l1.114-1.783Z" fill="#0C296E"/><path d="M301.165 162.143a.501.501 0 0 0-.707.006c-.489.498-.911.751-1.639.997a.5.5 0 0 0 .32.948c.857-.29 1.419-.62 2.032-1.243a.5.5 0 0 0-.006-.708Z" fill="#0C296E"/></g><g clip-path="url(#udi1oszhg1hb)"><path d="m216.012 171.13-14.228-.231c-2.189-.077-7.662-.153-10.711-.153-.312-.999 2.189-2.997 2.58-3.842.626-1.229.547-1.537.626-2.919.156-1.844 1.407-2.92 2.423-4.457.938-1.382 1.329-3.15 1.564-4.84.078-.461.156-.922.312-1.383.391-.998.938-1.92 2.033-2.612 2.111-1.383 4.769-1.075 6.645.077 1.563.999 2.267 2.305 2.58 4.149.312 1.92 1.954 2.996 2.501 4.763.313 1.153.079 2.382.391 3.534.391 1.306 1.407 2.228 2.189 3.304.469.768.86 1.767.704 2.612-.313 1.153-1.016 1.537.391 1.998Z" fill="#0C296E"/><path d="M200.34 150.273c-1.214.768-1.815 1.796-2.227 2.85a.195.195 0 0 0-.008.022c-.169.499-.253.993-.33 1.444l-.002.016-.003.015c-.232 1.677-.612 3.346-1.482 4.628l-.003.005c-.244.369-.503.712-.767 1.058l-.029.04c-.251.33-.507.666-.738 1.014-.485.731-.883 1.542-.971 2.577l-.001.015c-.012.214-.02.397-.028.558-.017.387-.029.645-.073.904-.057.334-.17.668-.471 1.259a.12.12 0 0 1-.008.016c-.061.134-.238.363-.532.695-.109.123-.24.266-.377.417-.188.207-.39.428-.568.633-.321.37-.644.769-.866 1.154-.206.358-.406.836-.26 1.302a.5.5 0 0 0 .477.351c3.046 0 8.512.076 10.693.153h.009l7.114.116 7.115.115a.5.5 0 0 0 .163-.975c-.304-.1-.44-.177-.496-.221.013-.065.053-.166.141-.371l.001-.004a5.646 5.646 0 0 0 .299-.836c.192-1.033-.282-2.168-.768-2.963a17.349 17.349 0 0 0-.657-.843l-.069-.084c-.189-.231-.371-.453-.543-.68-.384-.507-.695-1.006-.866-1.574-.137-.508-.157-1.043-.176-1.646l-.001-.025c-.019-.579-.04-1.224-.212-1.857l-.005-.017c-.272-.879-.791-1.602-1.255-2.25l-.154-.215c-.515-.727-.941-1.394-1.077-2.23v-.004c-.331-1.95-1.096-3.395-2.804-4.486l-.007-.005c-2.001-1.229-4.87-1.581-7.178-.071Zm6.65.921c1.417.906 2.058 2.072 2.352 3.807.177 1.083.729 1.914 1.249 2.647l.149.209c.475.665.895 1.253 1.117 1.965.137.508.156 1.042.176 1.644l.001.025c.019.579.04 1.224.212 1.856l.003.013c.22.736.613 1.349 1.029 1.897a23.201 23.201 0 0 0 .635.794c.207.252.405.496.588.747.442.73.743 1.574.632 2.224a5.04 5.04 0 0 1-.255.68c-.076.177-.174.405-.202.623a.994.994 0 0 0 .001.283l-5.757-.093-.043-.001-7.081-.115c-2.069-.072-7.034-.144-10.155-.153.022-.046.049-.097.082-.153.171-.297.44-.637.754-.997.183-.211.358-.403.532-.593.135-.149.27-.297.407-.451.272-.308.551-.641.687-.928.322-.635.481-1.068.561-1.538.055-.324.071-.668.09-1.087.006-.15.014-.308.023-.479.07-.805.376-1.452.807-2.102.213-.321.452-.634.708-.972l.023-.03c.261-.344.539-.71.802-1.109 1.004-1.481 1.406-3.342 1.643-5.042.078-.46.15-.876.288-1.288.368-.938.861-1.749 1.83-2.361l.007-.004c1.912-1.253 4.355-.991 6.105.082Z" fill="#0C296E"/><path d="M203.659 172.897h-13.602c0-4.102 8.13-4.61 9.694-5.762h7.817c1.642 1.152 9.694 1.853 9.694 5.762h-13.603Z" fill="#0C296E"/><path d="M207.856 166.726a.497.497 0 0 0-.288-.091h-7.817a.502.502 0 0 0-.297.097c-.133.098-.373.213-.736.342a20.25 20.25 0 0 1-1.276.389l-.548.151c-.85.233-1.814.497-2.743.824-1.131.398-2.262.905-3.116 1.603-.866.707-1.478 1.638-1.478 2.856a.5.5 0 0 0 .5.5h27.205a.5.5 0 0 0 .5-.5c0-1.176-.614-2.082-1.469-2.776-.845-.686-1.965-1.199-3.091-1.609-.932-.339-1.9-.619-2.758-.867a88.296 88.296 0 0 1-.528-.153 22.28 22.28 0 0 1-1.289-.409c-.369-.134-.623-.253-.771-.357Zm-.434.909c.242.145.543.271.863.388.394.143.856.284 1.35.428l.542.158c.857.248 1.786.517 2.683.843 1.092.398 2.088.865 2.803 1.446.55.446.909.936 1.042 1.499h-26.097c.13-.609.5-1.124 1.06-1.582.719-.587 1.719-1.048 2.815-1.434.892-.313 1.814-.566 2.663-.799l.565-.156c.491-.137.952-.271 1.342-.41.313-.111.61-.235.849-.381h7.52Z" fill="#0C296E"/><path d="M199.829 167.058c.391-.307 1.016-.999 1.016-4.226l6.02-3.918c-.078 4.84-.469 7.376.625 8.067-2.423 2.305-5.472 2.228-7.661.077Z" fill="#fff"/><path d="M207.107 158.476a.501.501 0 0 0-.515.019l-6.02 3.918a.503.503 0 0 0-.227.419c0 1.589-.155 2.508-.336 3.05-.172.516-.366.686-.489.783a.5.5 0 0 0-.042.75c1.178 1.156 2.609 1.776 4.094 1.776 1.484 0 2.971-.619 4.263-1.848a.499.499 0 0 0-.078-.785c-.132-.083-.26-.243-.356-.584-.098-.348-.149-.83-.163-1.482-.017-.746.013-1.645.05-2.731.028-.831.06-1.772.077-2.839a.502.502 0 0 0-.258-.446Zm-.762 1.373c-.016.653-.036 1.264-.055 1.831-.037 1.12-.069 2.07-.052 2.834.015.674.067 1.258.201 1.732.073.261.177.503.322.713-1.026.841-2.13 1.232-3.189 1.232-1.053 0-2.1-.385-3.027-1.158.147-.2.29-.466.413-.835.216-.648.369-1.611.386-3.094l5.001-3.255Z" fill="#0C296E"/><path d="M203.931 150.891c2.879 0 5.264 2.182 5.264 4.931 0 2.748-.658 3.314-2.056 3.314l-3.208 1.617c-5.183 0-5.183-1.94-5.183-4.689 0-2.748 2.304-5.173 5.183-5.173Z" fill="#fff"/><path d="M209.695 155.822c0-3.058-2.644-5.431-5.764-5.431-3.163 0-5.683 2.656-5.683 5.673v.023c0 .67 0 1.336.086 1.94.088.618.271 1.212.668 1.72.802 1.026 2.316 1.506 4.929 1.506a.503.503 0 0 0 .225-.053l3.104-1.565c.714-.017 1.387-.189 1.841-.839.436-.623.594-1.594.594-2.974Zm-5.764-4.431c2.638 0 4.764 1.992 4.764 4.431 0 1.369-.171 2.055-.413 2.401-.199.284-.503.413-1.143.413a.504.504 0 0 0-.225.054l-3.101 1.563c-2.485-.015-3.537-.499-4.023-1.121-.25-.321-.392-.727-.466-1.246-.075-.526-.076-1.125-.076-1.822 0-2.479 2.087-4.673 4.683-4.673Z" fill="#0C296E"/><path d="M198.787 155.459c-.245 1.602-.326 3.525.081 5.048.408 1.762 1.712 2.884 3.588 3.124a4.288 4.288 0 0 0 3.098-1.041c.815-.721 1.63-1.683 1.793-3.365" fill="#fff"/><path d="M198.862 154.965a.499.499 0 0 0-.569.419c-.249 1.626-.341 3.625.09 5.244.461 1.977 1.946 3.235 4.009 3.499a4.783 4.783 0 0 0 3.493-1.163c.868-.768 1.78-1.837 1.96-3.691a.501.501 0 0 0-.996-.096c-.146 1.51-.865 2.364-1.627 3.038a3.786 3.786 0 0 1-2.717.919c-1.677-.22-2.794-1.202-3.15-2.74l-.004-.017c-.381-1.424-.311-3.266-.07-4.843a.5.5 0 0 0-.419-.569Zm7.612 1.95c-.078-1.229-7.036 0-7.036-4.609 0 0 1.955-3.381 6.724-1.306 2.267.998 2.814 4.148 2.58 5.915-.079.692-.548.769-1.408.769-.234 0-.469-.769-.86-.769Z" fill="#0C296E"/><path d="m199.006 152.055.433.251-.433-.251a.502.502 0 0 0-.067.251c0 1.299.499 2.227 1.265 2.874.743.627 1.705.967 2.606 1.184.575.139 1.184.239 1.704.325.274.045.524.086.732.126.328.065.554.126.691.191.022.01.039.019.051.027a.5.5 0 0 0 .423.378c.035.033.08.088.145.179l.037.053c.052.074.119.17.182.244.042.05.103.116.182.171a.648.648 0 0 0 .377.126c.414 0 .855-.013 1.202-.169.193-.087.365-.22.492-.414a1.43 1.43 0 0 0 .21-.624c.126-.958.041-2.263-.376-3.471-.417-1.209-1.192-2.388-2.499-2.964l-.002-.001c-2.516-1.095-4.359-.77-5.587-.106a5.008 5.008 0 0 0-1.326 1.039 4.354 4.354 0 0 0-.408.525l-.023.038-.007.011-.003.004-.001.002v.001Zm7.386 5.341.002.001-.002-.001Zm-.374-.343-.005-.004a.022.022 0 0 0 .005.004Zm-6.077-4.601c.053-.075.135-.182.248-.306a4.01 4.01 0 0 1 1.06-.831c.942-.509 2.46-.837 4.712.143.96.423 1.591 1.317 1.956 2.374.365 1.057.436 2.208.329 3.018l-.001.009a.44.44 0 0 1-.054.194c-.009.015-.023.031-.065.05-.106.048-.29.074-.634.079l-.054-.077-.068-.096a2.06 2.06 0 0 0-.296-.346 1.041 1.041 0 0 0-.218-.153 1.143 1.143 0 0 0-.493-.409c-.259-.122-.59-.202-.925-.267-.267-.052-.545-.097-.833-.144a20.407 20.407 0 0 1-1.56-.298c-.849-.205-1.631-.499-2.195-.976-.515-.435-.875-1.042-.909-1.964Z" fill="#0C296E"/><path d="M206.614 159.08c.313 0 .86-.154 1.173-.308.391-.23.625-.614.703-1.075.078-.308 0-1.306-1.016-1.306-.391 0-.938.537-1.095.614" fill="#fff"/><path d="m208.008 157.56-.002.014v-.001l-.009.04c-.056.332-.213.574-.448.719a3.05 3.05 0 0 1-.478.169 2.043 2.043 0 0 1-.457.079.5.5 0 1 0 0 1c.221 0 .485-.051.716-.113.236-.064.484-.151.677-.246l.034-.018c.532-.314.837-.83.939-1.405a1.771 1.771 0 0 0-.136-1.084c-.1-.21-.257-.422-.496-.58a1.56 1.56 0 0 0-.874-.243c-.204 0-.389.067-.528.133a2.718 2.718 0 0 0-.394.236 6.207 6.207 0 0 0-.271.202l-.025.019-.103.078.006-.002a.499.499 0 1 0 .441.897c.089-.044.192-.124.254-.171l.013-.01.025-.02c.075-.058.152-.117.234-.175.092-.064.176-.116.248-.15a.35.35 0 0 1 .101-.037h-.001c.169 0 .266.04.323.078a.413.413 0 0 1 .144.174.791.791 0 0 1 .071.38l-.004.037Z" fill="#0C296E"/></g><g clip-path="url(#udc5xwnp7a5c)"><path d="M248.644 169.35c1.288-.427 1.042-3.539 1.1-7.079h7.353c-.091 6.075-.173 6.309 1.017 6.954" fill="#fff"/><path d="M249.244 162.263a.5.5 0 0 1 .5-.492h7.353a.498.498 0 0 1 .5.508l-.016 1.037c-.038 2.387-.057 3.654.04 4.404.054.41.135.59.217.697.087.115.218.207.514.368a.5.5 0 0 1-.476.879c-.298-.161-.604-.339-.833-.64-.234-.307-.35-.687-.413-1.175-.108-.827-.087-2.181-.05-4.52l.009-.558h-6.351c-.004.396-.005.788-.006 1.172-.002 1.135-.005 2.201-.078 3.077-.055.651-.151 1.248-.337 1.724-.186.477-.495.908-1.016 1.081a.498.498 0 0 1-.631-.318.499.499 0 0 1 .317-.631c.123-.041.267-.159.399-.496.132-.339.219-.821.271-1.444.07-.835.072-1.831.075-2.938.001-.553.002-1.133.012-1.735Z" fill="#0C296E"/><path d="M252.944 172.892h13.783c0-3.392-7.916-4.169-9.501-5.38a6.224 6.224 0 0 1-7.511.256l-.364-.256c-1.664 1.211-10.189 2.069-10.189 5.38h13.782Z" fill="#0C296E"/><path d="M249.056 167.108a.5.5 0 0 1 .583-.005l.364.256a5.725 5.725 0 0 0 6.908-.236l.315.388.304-.397c.14.108.383.232.741.372.35.136.775.275 1.255.422.256.079.527.16.809.244.762.227 1.598.476 2.403.76 1.1.389 2.197.862 3.025 1.477.831.616 1.464 1.431 1.464 2.503a.5.5 0 0 1-.5.5h-27.565a.5.5 0 0 1-.5-.5c0-1.072.696-1.878 1.575-2.48.885-.606 2.057-1.079 3.237-1.472.85-.283 1.733-.534 2.539-.763.315-.089.618-.176.903-.259.515-.151.97-.292 1.345-.432.384-.142.645-.269.795-.378Zm8.198 1.013a6.725 6.725 0 0 1-7.827.056l-.096-.068a6.07 6.07 0 0 1-.721.315c-.41.152-.894.302-1.413.454-.3.088-.613.176-.933.267-.799.227-1.647.468-2.474.744-1.159.386-2.222.824-2.988 1.348-.546.374-.891.756-1.046 1.155h26.391c-.142-.427-.47-.822-.979-1.2-.706-.523-1.687-.956-2.764-1.337-.778-.275-1.577-.513-2.332-.738-.287-.086-.568-.17-.839-.253a19.39 19.39 0 0 1-1.325-.447 5.759 5.759 0 0 1-.654-.296Z" fill="#0C296E"/><path d="M258.328 157.185c.262-.393.738-.334.968-.108.402.385.353 1.012.287 1.397-.156 1.004-.862 2.368-1.813 2.368" fill="#fff"/><path d="M258.796 157.41a.155.155 0 0 0-.053.053.499.499 0 1 1-.831-.555c.225-.337.561-.497.895-.509.313-.011.622.109.837.319.31.298.429.675.468.999.037.32.001.626-.035.837a4.54 4.54 0 0 1-.688 1.76c-.347.515-.892 1.028-1.619 1.028a.5.5 0 1 1 0-1c.224 0 .508-.169.79-.587a3.55 3.55 0 0 0 .529-1.358l.001-.007c.03-.174.05-.372.028-.556-.021-.182-.078-.31-.168-.396l-.005-.005a.109.109 0 0 0-.04-.023.147.147 0 0 0-.064-.011.1.1 0 0 0-.045.011Z" fill="#0C296E"/><path fill-rule="evenodd" clip-rule="evenodd" d="M253.765 150.699h-.008c-3.135 0-5.654 2.853-5.671 6.033v.041c0 .64 0 1.243.047 1.799.13 2.302.624 4.71 2.062 6.059 1.215 1.129 3.299 1.355 4.858.527l.133-.069c.917-.476 1.992-1.034 2.477-2.734.07-.244.142-.466.213-.682.157-.484.305-.937.393-1.527 1.188-.574 1.186-1.646 1.183-3.43v-.26c0-3.18-2.544-5.757-5.687-5.757Z" fill="#fff"/><path d="M248.094 156.609a.5.5 0 0 1 .5.5c0 1.322.088 2.75.383 4.039.296 1.295.789 2.395 1.559 3.118 1.046.972 2.896 1.188 4.283.451l.002-.001.13-.068c.442-.23.86-.447 1.239-.782.4-.354.764-.849.992-1.648.076-.265.153-.5.225-.722.246-.756.445-1.37.445-2.579a.5.5 0 0 1 1 0c0 1.379-.252 2.15-.507 2.933-.069.21-.137.42-.202.643-.28.984-.749 1.643-1.291 2.122-.476.421-1.002.694-1.434.917a8.74 8.74 0 0 1-.132.069c-1.73.919-4.048.683-5.431-.603l-.002-.002c-.977-.917-1.534-2.239-1.851-3.625-.319-1.393-.408-2.905-.408-4.262a.5.5 0 0 1 .5-.5Z" fill="#0C296E"/><path d="M252.286 148.113c-.747-.192-1.626-.165-2.342.282l-.006.003c-.328.213-.643.528-.785.961-.133.359-.06.697.048.949-.748.148-1.463.571-2.063 1.166-.444.442-.735.858-.909 1.342-.172.477-.22.988-.229 1.595a.405.405 0 0 0 .111.283.39.39 0 0 0 .277.121l.425.004c-.022.878.089 1.679.213 2.284a10.167 10.167 0 0 0 .28 1.075l.022.064.006.018.002.005v.001l.001.001a.39.39 0 0 0 .75-.051l.763-3.464 7.982-.032.014.093c.043.268.109.633.203 1.017.094.381.218.794.379 1.153.123.272.285.554.503.757l.008 1.863a.398.398 0 0 0 .3.386.39.39 0 0 0 .44-.204c.658-1.292 1.156-2.821 1.287-4.296.13-1.464-.099-2.924-.958-4.026-.715-1.085-1.833-1.636-2.734-1.917a7.391 7.391 0 0 0-1.517-.302c-.342-.309-.775-.54-1.188-.713a9.14 9.14 0 0 0-1.283-.418Z" fill="#0C296E"/></g><path d="M21 58.5a.5.5 0 0 1 .5.5v106.75a.5.5 0 0 1-1 0V59a.5.5 0 0 1 .5-.5Zm308 0a.5.5 0 0 1 .5.5v114a8.5 8.5 0 0 1-8.5 8.5H95a.5.5 0 0 1 0-1h226a7.5 7.5 0 0 0 7.5-7.5V59a.5.5 0 0 1 .5-.5Z" fill="#0C296E"/><path d="M47 90h105v7H47v-7Zm0 19h105v7H47v-7Zm0 19h80v7H47v-7Z" fill="#fff"/><path d="M100.04 98.281H86v8.023h14.04v-8.023Z" fill="#00D6B9"/><path d="M86 106.002h1v10h-1v-10Z" fill="#00D6B9"/><path fill-rule="evenodd" clip-rule="evenodd" d="M127 79.227h14.04v8.022H128v9.752h-1V79.227Z" fill="#3370FF"/><path d="M272.273 205.585a4.514 4.514 0 0 1 4.513-4.513h48.688a4.514 4.514 0 0 1 4.513 4.513v66.787a4.513 4.513 0 0 1-4.513 4.513h-48.688a4.513 4.513 0 0 1-4.513-4.513v-66.787Zm4.513-3.51a3.51 3.51 0 0 0-3.51 3.51v66.787a3.51 3.51 0 0 0 3.51 3.51h48.688a3.51 3.51 0 0 0 3.51-3.51v-66.787a3.51 3.51 0 0 0-3.51-3.51h-48.688Z" fill="#0C296E"/><path d="m298.172 225.044 13.911 8.326c2.598 1.555 2.603 5.318.008 6.879l-13.91 8.373c-2.674 1.609-6.08-.316-6.08-3.437v-16.699c0-3.116 3.398-5.042 6.071-3.442Z" fill="#00D6B9"/><path d="M274.382 266.289a.5.5 0 0 1 .5-.5h50.781a.5.5 0 0 1 0 1h-50.781a.5.5 0 0 1-.5-.5Z" fill="#0C296E"/><g filter="url(#ud2sbee0yfod)"><path d="M231.992 297.51c9.599 0 17.381-7.782 17.381-17.381s-7.782-17.381-17.381-17.381-17.381 7.782-17.381 17.381 7.782 17.381 17.381 17.381Z" fill="#FFC60A"/></g><path d="M237.5 233.344a4.5 4.5 0 0 1 4.5-4.5h18a4.5 4.5 0 0 1 4.5 4.5v37.76a4.5 4.5 0 0 1-4.5 4.5h-18a4.5 4.5 0 0 1-4.5-4.5v-37.76Zm4.5-3.5a3.5 3.5 0 0 0-3.5 3.5v37.76a3.5 3.5 0 0 0 3.5 3.5h18a3.5 3.5 0 0 0 3.5-3.5v-37.76a3.5 3.5 0 0 0-3.5-3.5h-18Z" fill="#0C296E"/><path d="M237.5 271.066a.5.5 0 0 1 .5-.5h26a.5.5 0 0 1 0 1h-26a.5.5 0 0 1-.5-.5Zm0-37.685a.5.5 0 0 1 .5-.5h26a.5.5 0 0 1 0 1h-26a.5.5 0 0 1-.5-.5Z" fill="#0C296E"/><path d="M179.511 217.621h-10.029v8.023h10.029v-8.023Zm-17.049 0h-25.071v8.023h25.071v-8.023Z" fill="#14C0FF"/><path d="M21 265a.5.5 0 0 1 .5-.5h48a.5.5 0 0 1 0 1h-48a.5.5 0 0 1-.5-.5Zm28.577-133.029A6.971 6.971 0 0 1 56.559 125c3.858 0 6.982 3.103 6.982 6.959 0 1.109-.26 2.158-.722 3.088 2.716.122 5.109 1.013 7.12 2.285 3.989 2.522 6.48 6.542 7.056 8.965.38 1.573.979 3.275 1.606 5.055.27.768.546 1.55.812 2.344.87 2.598 1.62 5.289 1.593 7.769-.02 2.373.141 3.818.802 5.203.67 1.405 1.874 2.793 4.071 4.993 1.198 1.2 1.778 2.774 1.992 4.414.215 1.638.07 3.374-.209 4.946a28.712 28.712 0 0 1-1.046 4.042 27.577 27.577 0 0 1-.58 1.571l-.016.038-.021.052-.01.024-.003.006-.001.002-.46-.197.46.198a.5.5 0 0 1-.46.302H29.417a.5.5 0 0 1-.496-.433l-.017-.124c-.498-3.67-1.01-7.443-.658-11.214.341-3.802 1.685-7.73 4.3-9.945.49-.417 1.016-.772 1.532-1.103l.435-.277a26.53 26.53 0 0 0 1.074-.703c.953-.666 1.75-1.406 2.216-2.531.372-.92.474-1.985.584-3.131l.04-.425c.04-.393.084-.796.147-1.196-.063.345-.112.708-.157 1.086l-.05.429c-.127 1.13-.267 2.372-.789 3.452l-.002.004c-.693 1.398-1.862 2.273-3.08 2.985-.444.26-.909.505-1.363.745v.001l-.492.261c-.612.328-1.198.659-1.73 1.038-2.804 1.992-4.356 5.643-4.774 9.336-.412 3.635.182 7.291.783 10.993l.028.174a.5.5 0 0 1-.987.16l-.038-.233c-.594-3.658-1.208-7.433-.78-11.206.435-3.85 2.066-7.821 5.187-10.039.587-.416 1.217-.771 1.838-1.104l.515-.274c.447-.236.883-.467 1.307-.715 1.162-.679 2.126-1.43 2.688-2.563.442-.916.563-1.975.695-3.128l.05-.433c.151-1.274.366-2.651 1.225-3.748.77-.981 1.85-1.47 2.868-1.867.175-.068.348-.133.518-.198.855-.323 1.641-.62 2.312-1.116.154-.115.3-.239.441-.372.3-.39.565-.842.816-1.337.27-.533.508-1.086.752-1.651.132-.306.266-.616.407-.928l.002-.004c1.452-3.149 3.48-6.065 6.13-7.829a6.944 6.944 0 0 1-3.317-5.925Z" fill="#0C296E"/><path d="m80.287 195.741 10.334-3.396 3.48 11.4H85.86l-1.863 4.653-3.71-12.657Z" fill="#fff"/><path d="M90.938 190.863a.5.5 0 0 1 .238.311l2.99 11.621a.5.5 0 1 1-.969.249l-2.86-11.118-9.848 2.942c.466 1.258.954 2.957 1.48 4.846l.28 1.013c.527 1.904 1.098 3.965 1.734 5.986a.5.5 0 1 1-.955.3c-.64-2.039-1.217-4.119-1.744-6.022l-.28-1.009c-.605-2.175-1.14-4.027-1.64-5.249a.5.5 0 0 1 .32-.668l10.864-3.246a.5.5 0 0 1 .39.044Z" fill="#0C296E"/><path d="M85.861 203.746h44.34l-14.119 34.188H72.176l13.685-34.188Z" fill="#BBBFC4" fill-opacity=".45"/><path d="M71.579 173.773c-2.277-.607-3.092-3.423-3.092-10.256l-12.55-8.203c.22 10.283.92 15.333-1.319 17.077-.504.401-.453.413-2.316 1.111l-1.966 2.428 5.123 5.981 12.342-1.033 3.08-5.18 1.539-1.615-.841-.31Z" fill="#fff"/><path d="M55.695 154.877a.5.5 0 0 1 .517.019l12.549 8.202c.141.093.226.25.226.419 0 3.412.206 5.761.672 7.32.458 1.534 1.136 2.21 2.049 2.453l.044.014.841.31a.5.5 0 0 1 .19.814l-1.501 1.574-3.05 5.131a.502.502 0 0 1-.389.243l-12.342 1.033a.499.499 0 0 1-.422-.173l-5.123-5.981a.499.499 0 0 1-.009-.639l1.967-2.429a.5.5 0 0 1 .213-.153c.94-.352 1.365-.52 1.62-.647a2.12 2.12 0 0 0 .466-.312 8.84 8.84 0 0 1 .094-.075l.004-.003c.449-.35.78-.885 1.007-1.698.23-.821.343-1.889.382-3.258.048-1.714-.023-3.833-.11-6.437-.052-1.576-.11-3.329-.152-5.279a.5.5 0 0 1 .257-.448Zm.765 1.376c.038 1.54.086 2.961.13 4.268.087 2.635.159 4.806.11 6.548-.04 1.396-.156 2.56-.418 3.499-.264.944-.685 1.694-1.354 2.216l-.086.068a3.16 3.16 0 0 1-.65.431c-.296.147-.746.324-1.586.639l-1.619 1.999 4.686 5.471 11.83-.991 2.947-4.958a.474.474 0 0 1 .068-.09l1.015-1.064-.106-.039c-1.351-.369-2.212-1.403-2.727-3.127-.497-1.664-.702-4.054-.713-7.336l-11.527-7.534Z" fill="#0C296E"/><path d="M62.807 138.754c-.013 0-.013 0 0 0h-.026c-5.692 0-10.298 4.431-10.298 9.907 0 5.464 1.32 6.653 3.998 6.653l6.3 3.255h.013c10.298 0 10.246-3.966 10.246-9.43.013-5.477-4.554-10.385-10.233-10.385Z" fill="#fff" stroke="#0C296E" stroke-linecap="round" stroke-linejoin="round"/><path d="M72.975 147.77c.466 3.319.608 7.194-.142 10.217-.88 3.552-3.39 5.89-7.167 6.278-2.225.232-4.515-.607-6.184-2.08-1.67-1.472-3.3-3.449-3.545-6.872" fill="#fff"/><path d="M72.906 147.274a.501.501 0 0 1 .565.426c.469 3.344.62 7.293-.152 10.407-.928 3.747-3.604 6.245-7.601 6.655-2.38.249-4.806-.648-6.567-2.202-1.727-1.524-3.454-3.612-3.713-7.211a.5.5 0 0 1 .998-.072c.233 3.247 1.766 5.112 3.377 6.533 1.577 1.392 3.73 2.174 5.801 1.958 3.558-.365 5.902-2.543 6.734-5.901.727-2.931.594-6.732.132-10.028a.5.5 0 0 1 .426-.565Z" fill="#0C296E"/><path d="M69.3 150.211a.5.5 0 0 1 .623.335l1.267 4.236c.174.569-.334.996-.814.923l-.028-.006-.906-.193a.5.5 0 0 1 .21-.978l.446.096-1.134-3.791a.5.5 0 0 1 .336-.622Z" fill="#0C296E"/><path d="M54.203 171.813a.499.499 0 0 1 .565.184l.005.007.022.03a9.612 9.612 0 0 0 .495.593c.358.397.899.942 1.622 1.529a15.704 15.704 0 0 0 6.521 3.146c2.408.525 4.17.286 5.388-.389 1.21-.67 1.958-1.81 2.27-3.246a.5.5 0 0 1 .62-.377l4.818 1.303.005.001.018.005.072.018.272.071a61.542 61.542 0 0 1 4.146 1.268c1.208.42 2.506.92 3.668 1.477 1.153.552 2.212 1.178 2.912 1.859.274.268.521.65.747 1.083.23.439.452.961.667 1.534.43 1.145.841 2.525 1.22 3.911.325 1.196.63 2.406.9 3.484l.127.507c.304 1.208.556 2.183.745 2.737a.5.5 0 0 1-.284.624l-.57.233-.013.005-9.706 3.646c.03 2.37-.526 4.992-1.964 7.994l-5.84 15.057a.5.5 0 0 1-.467.319H45.253a.5.5 0 0 1-.5-.481l-.981-25.643-1.341 6.504a.501.501 0 0 1-.673.364l-10.57-4.146a.5.5 0 0 1-.312-.536c.268-1.887.363-3.599.454-5.234.035-.628.07-1.245.113-1.856.154-2.188.424-4.275 1.275-6.395 1.476-3.692 4.035-7.246 9.74-8.783 1.392-.377 3.012-.632 4.69-.897l.96-.152c2.034-.328 4.13-.707 6.095-1.358Z" fill="#14C0FF"/><path d="m42.61 199.996-1.602 8.986s18.514-13.238 19.38-15.137c1.346-3.307 1.579-10.024 1.579-10.024.931-2.273 1.876-4.547 2.807-6.82.414-1.008.841-2.028 1.553-2.842.194-.22.737-.465.737-.168.026.607-.57 2.519-1.125 3.824 0 0 3.105-5.296 4.178-6.769 1.022-1.292.79 1.485.298 2.351 0 0 .931-1.757 1.475-1.408.465.31-.298 1.783-.298 1.783-1.733 4.288-3.79 6.239-4.166 11.896 0 0 3.196-5.942 3.765-5.322.453.44-1.229 4.767-1.746 5.929-1.605 3.566-3.157 7.053-5.887 10.657 0 0-14.153 17.064-16.947 19.854-3.74 3.746-7.75 6.859-11.631 4.973-3.648-1.769-5.822-5.205-5.032-12.517.4-3.448 1.035-9.274 1.448-12.723l11.214 3.477Z" fill="#fff"/><path d="M67.742 173.827c.756-1.238 1.527-2.466 1.971-3.075l.012-.016c.143-.18.305-.346.492-.441a.742.742 0 0 1 .37-.085.66.66 0 0 1 .392.148c.189.152.263.374.298.519.04.164.055.348.057.529v.135c.22-.106.523-.167.826.027l.007.005c.342.228.38.615.373.842a2.764 2.764 0 0 1-.149.736 5.888 5.888 0 0 1-.317.776l-.026.052a37.175 37.175 0 0 1-1.339 2.891c-.086.17-.17.337-.255.502a46.675 46.675 0 0 0-.997 2.039 16.616 16.616 0 0 0-1.224 3.824c.14-.238.288-.481.437-.723.437-.707.903-1.414 1.304-1.91.195-.242.4-.466.598-.609a.97.97 0 0 1 .398-.182.643.643 0 0 1 .58.187c.12.121.168.266.19.367.025.109.03.222.028.326a4.02 4.02 0 0 1-.096.706c-.108.514-.3 1.154-.516 1.801a43.224 43.224 0 0 1-1.254 3.281v.001l-.078.173c-1.576 3.503-3.143 6.985-5.867 10.581l-.013.017-.386-.319c.386.319.385.32.385.32l-.613.738-1.642 1.972a1595.306 1595.306 0 0 1-5.173 6.173c-3.878 4.603-8.133 9.589-9.55 11.004-1.875 1.879-3.858 3.641-5.886 4.69-2.043 1.056-4.188 1.414-6.317.38-1.911-.927-3.461-2.307-4.418-4.425-.95-2.103-1.294-4.889-.894-8.595v-.004c.169-1.443.378-3.306.594-5.239.3-2.676.616-5.485.856-7.487a.501.501 0 0 1 .645-.418l11.213 3.477a.5.5 0 0 1 .344.565l-1.385 7.774c.49-.354 1.14-.823 1.904-1.378a563.506 563.506 0 0 0 6.453-4.754c2.366-1.772 4.756-3.6 6.605-5.102a49.996 49.996 0 0 0 2.289-1.95c.29-.267.52-.495.69-.682.172-.188.25-.3.273-.347.64-1.583 1.029-4.018 1.254-6.105a59.968 59.968 0 0 0 .28-3.662l.002-.055v-.018a.498.498 0 0 1 .037-.172c.466-1.137.935-2.274 1.403-3.409l.001-.003c.47-1.136.938-2.273 1.404-3.409.409-.996.864-2.095 1.638-2.981l.002-.002a1.6 1.6 0 0 1 .663-.422.872.872 0 0 1 .498-.026.619.619 0 0 1 .3.19c.144.034.263.13.329.257Zm3.406-.285-.1-.238-.05.081a9.75 9.75 0 0 0-.105.181l-.014.025-.029.053a.502.502 0 0 1-.44.253c-.405 1.028-.889 1.893-1.375 2.728l-.208.356c-.632 1.079-1.246 2.127-1.731 3.483a.5.5 0 0 1-.942-.337c.517-1.448 1.178-2.575 1.808-3.649l.001-.002.207-.354c.678-1.164 1.309-2.319 1.737-3.872-.536.828-1.223 1.946-1.853 2.991a269.406 269.406 0 0 0-1.24 2.076l-.253.576c-.096.218-.182.415-.252.58-.42 1.013-.69 2.092-.738 3.175v.002c-.024.482 0 .974.038 1.483l.033.422c.03.371.06.751.075 1.122.04 1.037-.038 2.124-.644 3.134a.5.5 0 0 1-.858-.514c.456-.759.54-1.61.502-2.581-.014-.349-.042-.698-.07-1.061a27.345 27.345 0 0 1-.036-.449 12.93 12.93 0 0 1-.04-1.604c.055-1.216.356-2.41.814-3.514l.001-.003.066-.154a.496.496 0 0 1 .027-.312c.27-.634.552-1.421.762-2.121.07-.233.13-.454.18-.655-.489.677-.829 1.484-1.184 2.347-.465 1.138-.935 2.275-1.404 3.411-.457 1.11-.915 2.219-1.37 3.328-.001.05-.005.121-.009.211a61.19 61.19 0 0 1-.274 3.507c-.227 2.093-.626 4.662-1.328 6.386a.212.212 0 0 1-.008.019c-.09.196-.26.408-.446.612-.196.216-.451.467-.751.744-.6.554-1.405 1.234-2.337 1.991-1.865 1.514-4.266 3.352-6.636 5.126a568.647 568.647 0 0 1-8.576 6.29l-.59.424-.208.149-.292-.406.291.406a.498.498 0 0 1-.783-.494l1.524-8.552-10.217-3.168c-.23 1.94-.512 4.458-.783 6.873-.217 1.933-.426 3.799-.595 5.251-.389 3.604-.04 6.191.811 8.075.845 1.871 2.206 3.094 3.943 3.936 1.752.852 3.552.597 5.42-.368 1.882-.973 3.774-2.641 5.638-4.508 1.377-1.376 5.596-6.317 9.493-10.942a1694.537 1694.537 0 0 0 6.81-8.14l.606-.729c2.651-3.502 4.177-6.893 5.758-10.408l.064-.142c.252-.566.796-1.924 1.22-3.191.188-.564.349-1.098.45-1.531-.34.439-.741 1.047-1.137 1.687a58.913 58.913 0 0 0-1.619 2.803l-.026.049-.007.012-.001.003a.5.5 0 0 1-.94-.269c.192-2.895.817-4.855 1.616-6.633a47.02 47.02 0 0 1 1.023-2.092l.25-.492a35.888 35.888 0 0 0 1.331-2.876Zm-.83-1.745a.494.494 0 0 0-.15.055c.057-.085.11-.165.162-.24a4.12 4.12 0 0 1-.013.185Zm1.457.639s-.002.002-.007.003a.193.193 0 0 0 .007-.003Zm-.237-.119-.002-.007v.001l.002.006Z" fill="#0C296E"/><path d="M41.413 208.682a.5.5 0 0 1-.024.707l-3.406 3.184a.5.5 0 0 1-.683-.731l3.406-3.184a.5.5 0 0 1 .707.024Z" fill="#0C296E"/><path d="M136.731 298.825c18.216 13.163 21.838 16.354 21.838 16.354 4.515 3.681 5.55 5.283 5.848 6.11.308.873-.062 2.215-.431 3.555-.625 2.267-1.249 4.531 1.401 4.531 4.218 0 20.674.284 31.114.271.737 0 1.177-.839.75-1.434l-5.019-2.273c-9.134-3.656-14.192-6.536-18.138-9.094-2.608-1.689-4.867-3.709-7.284-5.632-10.336-9.224-17.929-17.093-25.912-25.367l-4.167 12.979Z" fill="#fff"/><path d="M196.157 330.257c-6.443 0-15.068-.1-21.422-.18-4.092-.05-7.424-.09-9.005-.09a2.44 2.44 0 0 1-2.001-.79c-.77-1-.33-2.649.15-4.369.341-1.25.701-2.529.441-3.259-.421-1.17-2.342-3.15-5.694-5.889-.05 0-3.862-3.359-21.812-16.336a.483.483 0 0 1-.18-.56l4.163-12.997a.472.472 0 0 1 .36-.33.502.502 0 0 1 .48.14c8.004 8.288 15.559 16.126 25.884 25.334.631.51 1.271 1 1.901 1.56a61.308 61.308 0 0 0 5.313 3.999 97.803 97.803 0 0 0 18.06 8.998l5.003 2.289c.081.033.15.089.2.16a1.382 1.382 0 0 1 .11 1.45 1.412 1.412 0 0 1-1.261.77l-.69.1Zm-58.502-31.513c17.77 12.857 21.432 16.046 21.582 16.176 4.712 3.839 5.673 5.439 6.003 6.319.33.88 0 2.399-.42 3.849-.42 1.45-.791 2.869-.31 3.499a1.48 1.48 0 0 0 1.23.4c1.591 0 4.933 0 9.005.09 6.584.08 15.599.18 22.092.18a.438.438 0 0 0 .371-.22.463.463 0 0 0 0-.32l-4.873-2.209a98.327 98.327 0 0 1-18.2-9.128 60.932 60.932 0 0 1-5.403-4.099c-.63-.52-1.271-1-1.921-1.56-10.116-8.998-17.57-16.726-25.374-24.815l-3.782 11.838Z" fill="#0C296E"/><path d="M202.292 330.459c.081-.792-.251-1.526-.792-2.1-.539-.572-1.304-1.012-2.175-1.247l-8.7-2.647a.5.5 0 0 0-.479.105c-2.907 2.6-6.536 2.909-11.086 1.729-4.568-1.185-9.95-3.842-16.251-7.032a.503.503 0 0 0-.724.392l-.093.855c-.374 3.387-.673 6.101.105 9.28a.499.499 0 0 0 .476.381l39.212.733a.5.5 0 0 0 .507-.449Z" fill="#0C296E"/><path d="M115.772 245.631c-73.186-18.696-108.307 24.055-14.179 17.529h3.157c-10.812 10.06-15.17 16.933-22.535 30.068-4.044 7.212-12.508 20.785-14.878 24.48-2.37 3.695-7.083 11.285.464 11.139l31.393.819c1.307-.013.075-1.784-1.076-2.391-1.413-.736-3.504-1.504-6.686-2.215-2.996-.669-15.12-4.686-12.613-7.352 0 0 17.845-21.351 34.534-39.539 5.835-6.368 13.105-15.19 13.105-22.992 0-4.948-5.563-8.242-10.686-9.546Z" fill="#fff"/><path d="M53.959 260.069c8.71 2.769 24.088 4.222 47.6 2.592l.019-.001h3.172a.5.5 0 0 1 .341.865c-10.757 10.011-15.087 16.833-22.44 29.948-4.05 7.224-12.521 20.808-14.892 24.505-1.197 1.867-2.912 4.611-3.42 6.85-.255 1.12-.176 1.982.268 2.553.438.563 1.359 1.001 3.185.966h.023l31.382.818.043-.002a1.119 1.119 0 0 0-.1-.227c-.24-.435-.765-.96-1.254-1.218-1.362-.71-3.408-1.465-6.563-2.17-1.532-.342-5.346-1.525-8.47-2.961-1.554-.714-2.989-1.514-3.88-2.331-.443-.406-.804-.863-.938-1.365-.144-.543-.004-1.068.409-1.514l.196-.234.595-.709a1496.697 1496.697 0 0 1 10.213-12.001c6.55-7.613 15.187-17.502 23.537-26.601 2.912-3.179 6.165-6.951 8.688-10.891 2.529-3.949 4.285-8.007 4.285-11.764 0-2.267-1.27-4.198-3.232-5.747-1.961-1.55-4.563-2.675-7.077-3.315-18.245-4.661-34.103-5.488-46.152-4.218-6.025.635-11.088 1.794-15.017 3.253-3.942 1.465-6.694 3.214-8.153 4.998-.725.886-1.115 1.762-1.197 2.602-.082.834.134 1.679.703 2.523 1.155 1.714 3.757 3.407 8.126 4.796Zm24.86 57.639.384.321a.927.927 0 0 1-.02.021c-.205.219-.23.399-.181.584.061.23.259.529.647.885.77.707 2.085 1.453 3.622 2.16 3.06 1.406 6.807 2.566 8.27 2.893 3.209.717 5.345 1.497 6.809 2.26l.002.001c.661.349 1.328 1.013 1.664 1.618.156.282.312.678.205 1.057a.846.846 0 0 1-.403.51 1.259 1.259 0 0 1-.619.147h-.018l-31.381-.819c-1.942.036-3.258-.42-3.983-1.352-.721-.927-.731-2.166-.454-3.387.554-2.443 2.381-5.34 3.553-7.169 2.369-3.692 10.826-17.256 14.862-24.454 7.164-12.777 11.51-19.675 21.708-29.325h-1.875c-23.543 1.632-39.067.188-47.956-2.638-4.432-1.409-7.304-3.189-8.652-5.19-.683-1.014-.976-2.087-.87-3.178.107-1.085.604-2.141 1.42-3.138 1.622-1.983 4.566-3.811 8.578-5.302 4.024-1.495 9.173-2.668 15.261-3.31 12.179-1.284 28.156-.444 46.505 4.243 2.609.665 5.35 1.84 7.45 3.5 2.101 1.66 3.612 3.85 3.612 6.531 0 4.044-1.879 8.299-4.444 12.303-2.57 4.014-5.871 7.838-8.793 11.027-8.339 9.088-16.969 18.969-23.515 26.578a1484.473 1484.473 0 0 0-10.8 12.7l-.203.243s-.001.001-.385-.32Z" fill="#0C296E"/><path d="M83.391 251.112a.5.5 0 0 0-.508.797l24.028 30.096 15.235 25.779a.502.502 0 0 0 .494.241c7.198-.909 14.145-5.312 19.258-9.436a75.133 75.133 0 0 0 6.161-5.574 65.232 65.232 0 0 0 1.715-1.799c.198-.217.349-.387.452-.503l.085-.096.032-.037.03-.035.01-.012.001-.001a.499.499 0 0 0-.015-.666l-27.297-29.142a.502.502 0 0 0-.249-.144l-39.432-9.468Z" fill="#0C296E"/><path d="M44.763 219.4a.5.5 0 0 0-.38.175l.38.325c-.38-.325-.381-.324-.381-.324l-.002.002-.007.009-.026.031a21.952 21.952 0 0 0-.474.579c-.32.4-.775.985-1.318 1.725a61.406 61.406 0 0 0-3.926 6.076c-2.8 4.968-5.523 11.567-5.01 17.902.257 3.181 1.33 6.294 3.61 9.087 2.279 2.79 5.74 5.233 10.73 7.114 9.819 3.7 25.636 5.256 50.304 2.95-.463.659-1.215 1.768-2.405 3.62-2.535 3.942-7.069 11.257-15.072 24.758a.5.5 0 0 0 .041.568v.001l.003.003.009.011.032.039c.029.035.07.086.126.151.11.132.275.323.49.567a48.341 48.341 0 0 0 1.909 2.024 62.794 62.794 0 0 0 7.27 6.244c6.283 4.617 15.338 9.47 26.38 10.345a.5.5 0 0 0 .528-.388l12.398-54.846.001-.003c.741-3.117.373-5.828-.762-8.166-1.13-2.33-3.006-4.259-5.233-5.851-4.447-3.181-10.394-5.089-14.991-6.183a.503.503 0 0 0-.116-.013H72.184l6.142-15.344a.499.499 0 0 0-.201-.61l-4.051-2.503a.499.499 0 0 0-.263-.075H44.762Z" fill="#0C296E"/><path d="M64.331 232.65a.5.5 0 0 1 .571-.417l7.385 1.145a.5.5 0 0 1-.154.988l-7.384-1.145a.5.5 0 0 1-.418-.571Zm35.187 31.868a.5.5 0 0 1-.054.552l-3.038 3.716a.5.5 0 0 1-.775-.632l2.28-2.788c-1.697.159-3.356.302-4.98.43a.5.5 0 1 1-.078-.997c1.996-.157 4.047-.338 6.155-.543a.502.502 0 0 1 .49.262Zm28.331.495a.5.5 0 0 1 .377.598l-8.512 37.465a.5.5 0 0 1-.976-.222l8.512-37.465a.5.5 0 0 1 .599-.376Z" fill="#fff"/><path fill-rule="evenodd" clip-rule="evenodd" d="M56.338 138.1a.499.499 0 0 0-.474.306l-4.32 10.256a.498.498 0 0 0 .005.401l3.713 8.125a.5.5 0 0 0 .955-.229l-.252-5.835a37.986 37.986 0 0 0 2.393-.419 21.555 21.555 0 0 0 2.317-.609c.722-.241 1.413-.541 1.877-.916l.002-.001c.281-.23.693-.667 1.132-1.161a67.5 67.5 0 0 0 1.415-1.663c.468-.566.904-1.107 1.224-1.506l.074-.092c.14.226.313.497.502.784.487.735 1.133 1.639 1.672 2.104l.003.002c.426.364 1.038.637 1.665.849a15.87 15.87 0 0 0 1.99.507 26.784 26.784 0 0 0 2.221.331l.146.015.04.003.01.001.004.001a.5.5 0 0 0 .544-.498v-2.844c-.007-1.638-.751-3.514-1.87-4.976-1.111-1.452-2.684-2.61-4.42-2.613l-12.568-.323Z" fill="#0C296E"/><path d="M57.077 155.78c-.724-.039-1.863-.285-2.484-.672-.763-.478-1.358-1.356-1.5-2.261-.091-.568 0-2.712 2.056-2.712.828 0 1.566.723 1.915.994" fill="#fff"/><path d="M53.773 151.48a2.632 2.632 0 0 0-.187 1.289v.001c.12.757.629 1.511 1.272 1.914.247.154.63.297 1.06.406.426.108.86.173 1.185.19a.5.5 0 0 1-.053.999 7.544 7.544 0 0 1-1.377-.22c-.474-.12-.971-.294-1.345-.527v-.001c-.884-.552-1.565-1.555-1.73-2.606l.494-.078-.494.079a3.61 3.61 0 0 1 .26-1.85c.161-.366.414-.732.8-1.005.39-.277.885-.436 1.491-.436.555 0 1.045.24 1.409.476.266.172.52.382.683.518l.13.106a.5.5 0 1 1-.614.789c-.069-.053-.137-.11-.208-.169-.155-.128-.322-.267-.535-.405-.299-.194-.592-.315-.865-.315-.422 0-.71.108-.913.251a1.407 1.407 0 0 0-.463.594Z" fill="#0C296E"/><path d="M103.619 223.785a2.428 2.428 0 1 0 0-4.855 2.429 2.429 0 0 0-2.43 2.428 2.429 2.429 0 0 0 2.43 2.427Z" fill="#fff"/><path d="M43.081 174.625a.5.5 0 0 0-.624-.405c-5.704 1.538-8.263 5.091-9.74 8.784-.85 2.12-1.12 4.206-1.275 6.394a124.56 124.56 0 0 0-.112 1.856c-.091 1.636-.186 3.347-.455 5.235a.499.499 0 0 0 .332.542l11.934 4.133a.5.5 0 0 0 .652-.362l1.997-8.854a.503.503 0 0 0 .006-.189l-2.715-17.134Z" fill="#14C0FF"/><path d="M45.344 192.675c.27.059.442.325.384.595l-1.627 7.527a.5.5 0 0 1-.978-.211l1.627-7.527a.5.5 0 0 1 .594-.384Zm35.264-2.844a.5.5 0 0 1 .592.388c.659 3.172 1.155 6.659.508 10.086a.5.5 0 1 1-.983-.186c.61-3.226.149-6.553-.504-9.697a.5.5 0 0 1 .387-.591Zm23.128 140.626c.081-.791-.25-1.525-.791-2.1-.539-.572-1.305-1.011-2.175-1.247l-8.7-2.647a.5.5 0 0 0-.48.106c-2.929 2.619-6.22 3.099-10.384 2.123-4.205-.986-9.224-3.441-15.528-6.632a.5.5 0 0 0-.668.213c-.935 1.777-1.632 3.281-1.982 4.779-.354 1.513-.352 3 .075 4.741a.5.5 0 0 0 .476.381l39.65.733a.5.5 0 0 0 .507-.45Z" fill="#0C296E"/><defs><clipPath id="uddc1sxdg4ra"><path fill="#fff" transform="matrix(-1 0 0 1 316.479 147)" d="M0 0h27v26H0z"/></clipPath><clipPath id="udi1oszhg1hb"><path fill="#fff" transform="translate(189.479 149)" d="M0 0h29v24H0z"/></clipPath><clipPath id="udc5xwnp7a5c"><path fill="#fff" transform="translate(238 147)" d="M0 0h30v26H0z"/></clipPath><filter id="ud2sbee0yfod" x="200.301" y="248.438" width="63.382" height="63.382" filterUnits="userSpaceOnUse" color-interpolation-filters="sRGB"><feFlood flood-opacity="0" result="BackgroundImageFix"/><feBlend in="SourceGraphic" in2="BackgroundImageFix" result="shape"/><feGaussianBlur stdDeviation="7.155" result="effect1_foregroundBlur_15877_3342"/></filter></defs></svg>