<svg width="350" height="350" viewBox="0 0 350 350" fill="none" xmlns="http://www.w3.org/2000/svg">
  <path d="M61.9 87.345v17.447a3.206 3.206 0 0 0 1.064 2.186 3.163 3.163 0 0 0 2.286.799h17.66a3.163 3.163 0 0 0 2.285-.799 3.206 3.206 0 0 0 1.064-2.186V87.345a3.214 3.214 0 0 0-1.047-2.219 3.175 3.175 0 0 0-2.302-.817H65.2a3.166 3.166 0 0 0-2.27.836 3.206 3.206 0 0 0-1.029 2.2Z" fill="#FAC823"/>
  <path d="M73.21 98.527c0-3.533 2.571-6.397 5.743-6.397h177.304c3.172 0 5.743 2.864 5.743 6.397v106.338c0 3.532-2.571 6.396-5.743 6.396H78.953c-3.172 0-5.743-2.864-5.743-6.396V98.527Z" fill="#373737"/>
  <path d="M73.298 198.642v6.396c0 3.533 2.645 6.397 5.908 6.397h113.63M73.298 133.413V98.7c0-3.532 2.645-6.396 5.908-6.396h177.039c3.263 0 5.908 2.864 5.908 6.397v1.998m0 41.976v62.363c0 3.533-2.645 6.397-5.908 6.397h-14.254" stroke="#E0E0E0" stroke-linecap="round"/>
  <path d="M251.009 119.303H83.331c-1.746 0-3.161 4.417-3.161 9.867v62.49c0 5.449 1.415 9.867 3.161 9.867H251.01c1.746 0 3.161-4.418 3.161-9.867v-62.49c0-5.45-1.415-9.867-3.161-9.867Z" fill="#BBBFC4" fill-opacity=".5"/>
  <path fill-rule="evenodd" clip-rule="evenodd" d="M87.76 103.539a2.394 2.394 0 0 0-.462 4.746 2.399 2.399 0 0 0 2.86-2.359 2.397 2.397 0 0 0-2.397-2.387Zm-1.883-.42a3.388 3.388 0 1 1 3.767 5.632 3.388 3.388 0 0 1-3.767-5.632Zm13.455.42a2.394 2.394 0 0 0-.462 4.746 2.398 2.398 0 0 0 2.859-2.359 2.397 2.397 0 0 0-2.397-2.387Zm-1.884-.42a3.388 3.388 0 1 1 3.768 5.632 3.388 3.388 0 0 1-3.768-5.632Z" fill="#E0E0E0"/>
  <path d="M113.796 105.925a2.896 2.896 0 0 1-1.778 2.678 2.896 2.896 0 0 1-3.951-2.1 2.89 2.89 0 0 1 2.836-3.46 2.893 2.893 0 0 1 2.893 2.882Z" fill="#E0E0E0"/>
  <path fill-rule="evenodd" clip-rule="evenodd" d="M110.903 103.456a2.48 2.48 0 0 0-1.75 4.234 2.479 2.479 0 1 0 1.75-4.234Zm-1.838-.268a3.303 3.303 0 0 1 4.171.406 3.303 3.303 0 0 1-2.971 5.583 3.306 3.306 0 0 1-2.418-4.504 3.306 3.306 0 0 1 1.218-1.485Z" fill="#E0E0E0"/>
  <path d="M182.834 166.753c0-.427.346-.773.774-.773h2.629c.428 0 .774.346.774.773v13.052a.773.773 0 0 1-.774.773h-2.629a.773.773 0 0 1-.774-.773v-13.052Z" fill="#3DC4F5"/>
  <path d="M186.315 170.129h4.099c.427 0 .774.347.774.773v1.237a.775.775 0 0 1-.774.774h-4.099v-2.784Zm0 4.278h4.099c.427 0 .774.346.774.773v1.237a.774.774 0 0 1-.774.773h-4.099v-2.783Z" fill="#3DC4F5"/>
  <path fill-rule="evenodd" clip-rule="evenodd" d="M184.683 168.299a8.119 8.119 0 0 0 8.121-8.117 8.12 8.12 0 0 0-8.121-8.118 8.12 8.12 0 0 0-8.121 8.118 8.119 8.119 0 0 0 8.121 8.117Zm0-4.638a3.48 3.48 0 1 0 0-6.958 3.48 3.48 0 1 0 0 6.958Zm-18.989-4.645c-5.481 0-9.93-4.435-9.93-9.907 0-5.471 4.449-9.906 9.93-9.906s9.93 4.435 9.93 9.906c0 5.472-4.449 9.907-9.93 9.907Zm-17.874 13.868c0-6.565 5.333-11.887 11.916-11.887h11.916c.398 0 .791.019 1.179.057a8.722 8.722 0 0 0-.012.458c0 4.384 3.051 8.055 7.147 9.008v9.358a4.13 4.13 0 0 1-.37.017h-27.804a3.983 3.983 0 0 1-3.972-3.97v-3.041Z" fill="#3DC4F5"/>
  <path fill-rule="evenodd" clip-rule="evenodd" d="M27.994 215.424a.455.455 0 0 1 .626.119c2.723 3.969 5.204 6.347 7.594 7.811 2.384 1.46 4.708 2.029 7.156 2.332 1.069.132 2.166.212 3.301.295 4.062.298 8.623.633 14.155 3.494l-.209.393.209-.394v.001c4.896 2.519 7.89 6.182 10.677 9.594.865 1.059 1.71 2.093 2.586 3.061 1.864 2.06 3.88 3.85 6.542 5.052 2.66 1.201 6.002 1.831 10.539 1.511 9.213-.648 15.58-.328 21.194 1.302 5.615 1.632 10.438 4.563 16.575 9.066h.001c6.582 4.839 14.411 6.776 19.139 7.447.246.035.417.26.381.503a.45.45 0 0 1-.51.376c-4.805-.683-12.8-2.653-19.549-7.615l.269-.355-.269.355c-6.114-4.484-10.833-7.34-16.292-8.926-5.461-1.586-11.703-1.913-20.875-1.268-4.656.328-8.155-.315-10.978-1.589-2.822-1.274-4.934-3.163-6.84-5.269-.93-1.027-1.807-2.101-2.692-3.183-2.767-3.383-5.603-6.851-10.316-9.276v-.001c-5.352-2.767-9.687-3.087-13.726-3.385-1.16-.086-2.296-.17-3.424-.309-2.525-.312-4.988-.908-7.52-2.459-2.528-1.548-5.094-4.03-7.865-8.067a.44.44 0 0 1 .121-.616Z" fill="#BBBFC4"/>
  <path d="M38.83 239.193c4.975 1.575 11.469-.412 17.311.07a20.401 20.401 0 0 1 12.77 6.124c2.814 2.747 5.21 5.827 10.167 7.612 5.739 2.056 11.911 1.995 18.613 1.172 3.473-.481 10.496-1.303 17.529 1.846 8.447 3.771 14.611 11.374 31.592 11.374H27.796V231.87s5.296 5.538 11.034 7.323Z" fill="#00D6B9"/>
  <g clip-path="url(#illustration_passport_initialization_function_addpasskey__a)">
    <path d="M274.759 182.699c.928-5.572 4.253-9.674 5.8-11.028 3.712-3.251 10.44.967 13.34 3.482 1.353 1.355 3.944 4.992 3.48 8.707-.464 3.714-5.8 8.126-8.12 9.286 0 2.837.487 8.076.568 8.22l.012-.093v-.001c0-.218.02-.19 0 .001 0 .077-.004.106-.012.093-.14.995-1.15 4.674-7.528 5.13-6.496.464-7.347-4.45-6.96-6.965l2.281-5.707c-.192-.021-.746-.302-1.701-1.258-1.74-1.741-2.32-2.902-1.16-9.867Z" fill="#EBEBEB"/>
    <path fill-rule="evenodd" clip-rule="evenodd" d="M279.461 168.862a.369.369 0 0 1 .388-.184l6.744 1.202a.368.368 0 0 1 .212.119l9.547 10.765a.37.37 0 0 1 .093.245v4.031a.372.372 0 0 1-.087.239l-3.477 4.114a.35.35 0 0 1-.038.039l-3.156 2.768.639 14.272a.37.37 0 0 1-.151.314l-7.559 5.526a.368.368 0 0 1-.277.066l-10.527-1.703a.367.367 0 0 1-.294-.476l.353.112-.353-.112.001-.001v-.003l.001-.001.104-.329.282-.888c.235-.74.554-1.735.884-2.759.331-1.024.675-2.077.963-2.933a36.95 36.95 0 0 1 .591-1.676l.019-.06a60.23 60.23 0 0 0 1.599-3.947c.475-1.324.85-2.601.95-3.523-1.397-.777-2.499-2.162-3.252-4.555-.335-1.038-.281-2.562-.046-4.206.237-1.662.669-3.51 1.138-5.23a85.214 85.214 0 0 1 1.843-5.887l.136-.384.037-.1.009-.026.003-.009s.001-.001.347.127l-.347-.127a.365.365 0 0 1 .025-.053l2.656-4.767Zm-1.996 5.101-.003.007-.035.098c-.032.086-.077.214-.135.378a86.406 86.406 0 0 0-1.827 5.836c-.464 1.706-.888 3.521-1.119 5.14-.234 1.637-.261 3.013.018 3.876l.001.003c.751 2.386 1.824 3.597 3.102 4.235a.37.37 0 0 1 .203.353c-.062 1.048-.495 2.521-1.012 3.962a59.203 59.203 0 0 1-1.577 3.898.28.28 0 0 1-.008.031l-2.716 8.235 9.948 1.609 7.274-5.317-.638-14.252a.37.37 0 0 1 .125-.294l3.268-2.866 3.372-3.99v-3.756l-9.369-10.564-6.359-1.134-2.513 4.512Z" fill="#2353B6"/>
    <path d="M232.073 199.645c-.217-3.815.1-7.845-.369-10.945a127.766 127.766 0 0 0-1.381-7.646c-1.178-5.622-6.037-12.13-6.703-12.444-1.02.083-.148 2.882.748 4.552 1.317 2.462 2.001 5.992 2.001 5.992-3.914-.013-6.61.605-8.482 2.168-1.868 1.565.764 9.181 1.466 10.578 1.055 2.098 5.438 9.961 5.438 9.961" fill="#EBEBEB"/>
    <path d="M223.522 168.171a.618.618 0 0 1 .313.057c.13.062.243.159.318.228.09.081.189.183.294.3.212.233.471.547.76.925.579.757 1.295 1.79 2.026 2.988 1.457 2.389 2.995 5.471 3.598 8.35.606 2.897.995 5.076 1.385 7.668.239 1.581.277 3.39.284 5.26l.001 1.09c0 1.536.001 3.1.088 4.631.01.181-.11.338-.302.397l-7.282 2.215a.598.598 0 0 1-.676-.26l.462-.158-.462.158-.001-.002-.19-.34-.511-.92c-.427-.771-1.008-1.819-1.623-2.934-1.225-2.225-2.59-4.724-3.122-5.782-.372-.74-1.215-3.029-1.732-5.325-.259-1.15-.442-2.325-.437-3.322.003-.499.052-.967.17-1.371.117-.401.31-.768.625-1.031 1.901-1.588 4.573-2.231 8.252-2.277a32.254 32.254 0 0 0-.398-1.57c-.333-1.181-.824-2.644-1.459-3.832-.465-.866-.922-2.02-1.134-2.982-.105-.475-.158-.941-.1-1.31.055-.346.253-.802.853-.851Zm2.847 10.984.509-.03a.365.365 0 0 1-.1.332.495.495 0 0 1-.361.14c-3.857-.013-6.404.598-8.152 2.056-.152.128-.285.342-.379.662-.092.318-.138.712-.141 1.169-.004.915.165 2.025.418 3.149.507 2.252 1.331 4.471 1.661 5.128.523 1.04 1.877 3.521 3.107 5.752.613 1.113 1.194 2.161 1.621 2.931l.479.862 6.511-1.981c-.073-1.458-.073-2.944-.073-4.383l-.002-1.078c-.006-1.873-.045-3.63-.275-5.149a127.173 127.173 0 0 0-1.377-7.624c-.575-2.744-2.055-5.726-3.488-8.075a34.096 34.096 0 0 0-1.968-2.903 13.989 13.989 0 0 0-.674-.826c-.023.23.009.56.098.964.193.876.62 1.956 1.051 2.761.681 1.273 1.192 2.807 1.53 4.007.17.603.298 1.128.384 1.502.043.188.075.338.097.441l.025.12.006.031.002.008v.004l-.509.03Zm-2.608-10.12c.001.001-.002.005-.01.008.006-.007.01-.009.01-.008Z" fill="#2851A3"/>
    <path d="M225.383 180.044a21.45 21.45 0 0 0 1.851 6.038l.035.071c.227.472.523 1.088.453 1.719v.001c-.036.315-.158.591-.283.828-.052.1-.108.198-.161.291l-.03.052c-.062.11-.119.212-.168.314-.487 1.003-.313 2.271.42 3.189.167.211.117.482-.114.605a.598.598 0 0 1-.721-.156c-.951-1.193-1.156-2.784-.545-4.043.061-.124.128-.244.191-.356l.032-.056c.053-.092.102-.178.148-.266.109-.208.182-.39.203-.572.045-.401-.153-.82-.41-1.357l-.001-.002a22.093 22.093 0 0 1-1.996-6.814c-.028-.229.152-.421.414-.443.714-.06 1.321.236 1.787.602.461.362.838.834 1.132 1.237v.001c1.361 1.874 2.724 3.757 3.997 5.691a.386.386 0 0 1-.181.588.6.6 0 0 1-.707-.213c-1.259-1.913-2.609-3.777-3.971-5.654-.281-.387-.59-.761-.927-1.026a1.834 1.834 0 0 0-.448-.269Z" fill="#2851A3"/>
    <path d="M221.399 179.269c.271-.055.563.093.655.331l-.182.037.182-.037.007.02.024.06.09.229a50.927 50.927 0 0 0 1.397 3.225c.413.861.844 1.669 1.222 2.202.154.216.278.356.367.436a.61.61 0 0 1 .559.12c.212.18.229.46.038.624a.782.782 0 0 1-.594.182 1.138 1.138 0 0 1-.538-.207c-.257-.178-.492-.459-.7-.751-.429-.604-.888-1.473-1.304-2.341a52.118 52.118 0 0 1-1.422-3.281l-.092-.234-.024-.062-.008-.022.489-.1-.489.1c-.092-.238.053-.476.323-.531Zm-2.411 1.57c.261-.078.566.047.682.279.089.178.225.472.389.827l.238.514c.273.586.595 1.263.921 1.891.33.635.652 1.196.924 1.562.089.118.16.2.212.252.164-.01.34.048.463.169.197.193.188.47-.018.621a.727.727 0 0 1-.543.12 1.029 1.029 0 0 1-.433-.182c-.2-.14-.38-.349-.536-.558-.322-.433-.673-1.052-1.006-1.692a51.173 51.173 0 0 1-.938-1.927l-.249-.537a34.557 34.557 0 0 0-.367-.78c-.116-.232.001-.482.261-.559Zm3.447 5.395-.003-.001.003.001Z" fill="#2851A3"/>
    <path d="m233.495 198.585 7.398 29.594 8.08-11.871c3.477-5.275 7.732-10.071 13.573-12.461 1.697-.695 9.401-2.857 9.401-2.857l3.303-1.39a7.911 7.911 0 0 0 6.48 5.978 7.914 7.914 0 0 0 7.991-3.726l.521-.855 16.264 3.475c5.709 1.64 9.561 7.374 12.28 12.649l13.733 26.626a9.5 9.5 0 0 1-2.559 11.815l-13.628 11.926h-13.08l17.161-19.363-14.755-17.847-12.071 26.41-33.419-.459-.73-24.554-13.817 13.997c-3.177 3.795-10.77 4.74-14.463-.403l-7.162-43.938 9.499-2.746Z" fill="#528CFF"/>
    <path fill-rule="evenodd" clip-rule="evenodd" d="M233.678 198.266c.087.05.15.133.175.23l7.198 28.793 7.613-11.184.001-.002c3.492-5.297 7.798-10.166 13.741-12.598.87-.357 3.244-1.077 5.373-1.701 1.07-.314 2.087-.607 2.836-.82l.897-.255.313-.088 3.281-1.381a.371.371 0 0 1 .503.255 7.543 7.543 0 0 0 13.795 2.146l.001-.001.521-.855a.37.37 0 0 1 .393-.169l16.264 3.475.025.006c2.945.846 5.392 2.743 7.437 5.073 2.045 2.331 3.704 5.113 5.069 7.762l13.733 26.626a9.867 9.867 0 0 1-2.651 12.268l-13.621 11.92a.369.369 0 0 1-.244.091h-13.079a.37.37 0 0 1-.277-.614l16.951-19.126-14.177-17.149-11.827 25.873a.367.367 0 0 1-.341.216l-33.418-.458a.37.37 0 0 1-.365-.359l-.704-23.691-13.199 13.372c-1.669 1.984-4.463 3.201-7.304 3.271-2.856.07-5.804-1.02-7.734-3.708a.364.364 0 0 1-.064-.156l-7.162-43.938a.37.37 0 0 1 .262-.414l9.498-2.745a.37.37 0 0 1 .287.035Zm38.269 2.724.1.356-.334.094-.895.254c-.748.214-1.763.505-2.831.819-2.148.63-4.475 1.337-5.301 1.676-5.739 2.349-9.943 7.07-13.405 12.323l-.003.004-8.08 11.871a.37.37 0 0 1-.664-.118l-7.306-29.222-8.815 2.548 7.095 43.528c1.764 2.405 4.433 3.395 7.065 3.33 2.668-.066 5.254-1.214 6.765-3.018a.209.209 0 0 1 .02-.022l13.816-13.998a.371.371 0 0 1 .633.249l.72 24.201 32.823.45 11.971-26.191a.37.37 0 0 1 .621-.081l14.756 17.847a.37.37 0 0 1-.008.48l-16.617 18.749h12.119l13.525-11.835.014-.012a9.13 9.13 0 0 0 2.459-11.356l-13.733-26.625c-1.353-2.626-2.98-5.348-4.968-7.614-1.985-2.261-4.314-4.05-7.073-4.846l-15.995-3.418-.384.63-.001.001a8.283 8.283 0 0 1-15.034-1.938l-2.912 1.225a.312.312 0 0 1-.043.015l-.1-.356Z" fill="#3370FF"/>
    <path d="m289.706 189.356 6.516-6.005c-.146-3.711-7.148-1.682-8.72-2.085-3.115-.695-7.315-1.737-7.085-5.108.2-1.014.486-2.009.855-2.975a2.535 2.535 0 0 0-.459-2.481c-.542-.486-1.342-.229-1.912-.229-1.057-1.258 1.689-4.115 2.489-4.546 1.655-.91 4.916-2.453 9.172.973 3.372 2.711 9.436 3.858 8.949 11.628-.32 5.254-5.174 12.225-10.034 14.456l.229-3.628Z" fill="#2353B6"/>
    <path d="M280.848 167.241c1.773-2.259 3.574.695 6.717 1.23 1.744.251 3.434.791 4.999 1.599 0 0-9.915-.973-13.003 1.487-3.087 2.46-4.944 10.939-4.944 10.939-1.147-2.085-4.374-6.512-.542-10.028.8-.695 3.539-2.343 4.513-1.94a27.433 27.433 0 0 1 2.26-3.287Z" fill="#2353B6"/>
    <path d="M295.339 184.526s2.51-5.143 1.258-10.314c-1.251-5.171-15.207-8.243-15.207-8.243-.8.459-3.546 3.288-2.489 4.546.605 0 1.39-.285 1.919.229a2.56 2.56 0 0 1 .452 2.481c-.239.91-.39 1.841-.452 2.78-.202 3.371 1.856 4.344 4.972 5.053 1.571.375 5.43 0 5.562 3.718l3.985-.25Z" fill="#2353B6"/>
    <path fill-rule="evenodd" clip-rule="evenodd" d="M281.056 165.314c.85-.467 2.195-1.145 3.913-1.224 1.742-.08 3.785.458 6.031 2.266.738.593 1.617 1.11 2.581 1.678l.226.133c1.033.609 2.14 1.276 3.13 2.118.997.849 1.889 1.886 2.494 3.246.605 1.36.905 3.003.778 5.04-.17 2.798-1.534 5.977-3.438 8.717-1.905 2.742-4.421 5.146-7.002 6.331a.7.7 0 0 1-.989-.679l.23-3.628a.697.697 0 0 1 .223-.469l3.765-3.47-1.599.1a.7.7 0 0 1-.742-.672c-.029-.802-.253-1.321-.546-1.679-.3-.365-.719-.618-1.231-.8-.517-.183-1.09-.281-1.664-.355a34.815 34.815 0 0 0-.405-.049c-.418-.05-.846-.101-1.177-.18-1.56-.355-3.006-.803-4.026-1.678a4.115 4.115 0 0 1-.775-.875c-.737-.773-1.202-1.774-1.113-3.074a.642.642 0 0 1 .012-.088c.207-1.05.503-2.079.884-3.079.057-.165.09-.337.099-.51a1.897 1.897 0 0 0-.12-.708 3.547 3.547 0 0 0-.598.377c-.661.527-1.302 1.42-1.893 2.53-.586 1.098-1.094 2.353-1.512 3.547a44.247 44.247 0 0 0-1.209 4.11c-.028.116-.048.206-.062.267l-.016.068-.003.016-.001.004v.001m3.587-11.433a.71.71 0 0 1-.113-.011.698.698 0 0 1-.454-.028c-.005-.001-.046-.013-.141-.008a1.96 1.96 0 0 0-.415.073c-.344.092-.757.26-1.188.474-.864.427-1.689.977-2.036 1.276-.858.789-1.294 1.601-1.478 2.394-.186.803-.123 1.632.093 2.46.265 1.019.738 1.968 1.207 2.806.222-.808.527-1.838.909-2.93.432-1.233.967-2.559 1.598-3.743.568-1.064 1.238-2.062 2.018-2.763Zm-3.587 11.433a.698.698 0 0 1-1.295.187c-.101-.182-.224-.392-.361-.626-.589-1.007-1.436-2.455-1.842-4.012-.255-.979-.352-2.046-.101-3.127.252-1.09.847-2.148 1.901-3.115a.174.174 0 0 1 .014-.012c.457-.398 1.396-1.014 2.34-1.481a8.1 8.1 0 0 1 1.447-.571c.172-.046.363-.087.56-.108 0-.231.036-.459.093-.67.152-.564.473-1.13.822-1.624.355-.501.768-.969 1.146-1.342.362-.356.74-.673 1.031-.831m9.746 16.519a20.776 20.776 0 0 1 1.593-.066c.957.003 1.765.111 2.321.379a1.438 1.438 0 0 1 .608.507 16.69 16.69 0 0 1-.265.739c-.016.044-.033.086-.049.126l-.382.353-2.646.166c-.124-.725-.396-1.32-.791-1.8a3.393 3.393 0 0 0-.389-.404Zm4.409 3.401.172-.011a.698.698 0 0 0 .584-.391l-.21-.102.21.102.001-.001.003-.005.006-.015a.867.867 0 0 0 .024-.05c.02-.043.049-.105.084-.185.03-.069.065-.15.103-.243l.508-.468a.698.698 0 0 0 .225-.541 3.14 3.14 0 0 0-.112-.729c.105-.343.21-.719.308-1.121.485-1.991.822-4.692.16-7.426-.375-1.551-1.665-2.839-3.189-3.882-1.547-1.058-3.465-1.949-5.31-2.665a54.364 54.364 0 0 0-5-1.644l-.319-.087a6.15 6.15 0 0 1 1.574-.284c1.366-.063 3.081.341 5.091 1.959.821.659 1.787 1.228 2.729 1.781l.244.144c1.037.611 2.047 1.224 2.934 1.979.879.748 1.623 1.624 2.123 2.749.5 1.125.776 2.538.66 4.386v.002c-.15 2.455-1.373 5.389-3.191 8.005-1.533 2.208-3.44 4.117-5.369 5.288l.133-2.099 4.824-4.446Zm.549-4.094a3.284 3.284 0 0 0-.437-.253c-.847-.408-1.916-.514-2.923-.517-.915-.003-1.865.08-2.675.15l-.277.024c-.441.038-.826.068-1.145.077-.335.01-.532-.007-.627-.031a.16.16 0 0 0-.021-.005c-1.572-.351-3.304-.768-4.615-1.483a5.004 5.004 0 0 1-1.098-.78c-.319-.538-.485-1.256-.424-2.273.058-.885.2-1.763.424-2.622.103-.304.159-.621.169-.939a3.22 3.22 0 0 0-.195-1.26c.343-.096.714-.181 1.108-.254 1.313-.246 2.8-.353 4.213-.385a49.707 49.707 0 0 1 4.841.14l.313.026.022.002c.309.183.605.37.886.562 1.445.988 2.369 2.024 2.62 3.058.589 2.435.297 4.89-.159 6.763Zm-8.142-11.955-.152-.022-.018-.003c-.879-.15-1.65-.466-2.32-.798-.334-.166-.649-.34-.938-.498l-.012-.007c-.29-.159-.548-.301-.793-.421-.513-.252-.861-.353-1.133-.334-.221.016-.499.118-.854.571l-.004.005a26.603 26.603 0 0 0-1.473 2.029c.343.002.766.06 1.154.317.536-.177 1.11-.315 1.693-.424 1.415-.264 2.985-.375 4.437-.407l.413-.008Zm12.465 54.628a.444.444 0 0 1 .618.107l5.152 7.305a.444.444 0 0 1-.725.511l-5.152-7.305a.442.442 0 0 1 .107-.618Zm-41.075-4.473a.443.443 0 0 1 .448.439l.167 14.894a.443.443 0 0 1-.887.01l-.167-14.894a.445.445 0 0 1 .439-.449Z" fill="#2353B6"/>
    <path d="m260.057 255.088 33.586.889 5.82 11.086-40.936-.362 1.53-11.613Z" fill="#2353B6"/>
    <path fill-rule="evenodd" clip-rule="evenodd" d="M259.69 255.039a.37.37 0 0 1 .376-.321l33.586.89a.369.369 0 0 1 .317.198l5.82 11.085a.37.37 0 0 1-.33.541l-40.935-.361a.373.373 0 0 1-.364-.418l1.53-11.614Zm.69.427-1.432 10.869 39.9.353-5.433-10.347-33.035-.875Zm18.491-74.867a.37.37 0 0 1 .225.471l-1.705 4.831 1.269.229a.37.37 0 1 1-.131.727l-1.697-.306a.37.37 0 0 1-.283-.486l1.85-5.241a.37.37 0 0 1 .472-.225Z" fill="#2353B6"/>
    <path d="M202.894 264.832h48.376l-8.602-32.228h-48.375l8.601 32.228Z" fill="#42BDEB"/>
    <path d="M202.895 265.881v.39h63.186v-1.439h-63.186v1.049Z" fill="#E0E0E0"/>
    <path fill-rule="evenodd" clip-rule="evenodd" d="M202.581 264.832c0-.173.14-.313.313-.313h63.186c.173 0 .313.14.313.313v1.438c0 .173-.14.313-.313.313h-63.186a.313.313 0 0 1-.313-.313v-1.438Zm.626.313v.813h62.56v-.813h-62.56Z" fill="#E0E0E0"/>
    <path d="M223.407 248.632a2.634 2.634 0 1 0-2.628 2.634 2.643 2.643 0 0 0 1.861-.772 2.618 2.618 0 0 0 .767-1.862Z" fill="#fff"/>
  </g>
  <path fill-rule="evenodd" clip-rule="evenodd" d="M148.03 266.893c0-.288.338-.522.755-.522h182.93c.417 0 .755.234.755.522 0 .288-.338.522-.755.522h-182.93c-.417 0-.755-.234-.755-.522Z" fill="#BBBFC4"/>
  <path d="M167.344 233h-6.612v5.783h6.612V233Zm-10.745 0H137.59v5.783h19.009V233Z" fill="#42BDEB"/>
  <path d="M33.675 194.059h3.152v14.857l15.71-14.871h58.137a4.85 4.85 0 0 0 4.849-4.846V144.11a4.833 4.833 0 0 0-2.982-4.474 4.844 4.844 0 0 0-1.852-.371H33.675a4.846 4.846 0 0 0-4.469 2.993 4.831 4.831 0 0 0-.366 1.852v45.075a4.85 4.85 0 0 0 1.405 3.44 4.858 4.858 0 0 0 3.43 1.434Z" fill="#373737"/>
  <path d="M28.536 151.261v-7.151a4.833 4.833 0 0 1 2.982-4.474 4.846 4.846 0 0 1 1.852-.371h77.014a4.844 4.844 0 0 1 4.835 4.845v45.089a4.848 4.848 0 0 1-4.849 4.846H52.232l-15.71 14.871v-14.857H33.37a4.858 4.858 0 0 1-4.475-3.014 4.85 4.85 0 0 1-.36-1.86v-14.446" stroke="#E0E0E0" stroke-width=".977" stroke-linecap="round" stroke-linejoin="round"/>
  <path d="M16.678 151.816h17.881c6.152 0 11.138 4.994 11.138 11.155v8.229a2.925 2.925 0 0 1-2.923 2.927H16.678c-6.152 0-11.138-4.994-11.138-11.156 0-6.161 4.986-11.155 11.138-11.155Z" fill="#373737"/>
  <path d="M16.678 151.816h17.881c6.152 0 11.138 4.994 11.138 11.155v8.229a2.925 2.925 0 0 1-2.923 2.927H16.678c-6.152 0-11.138-4.994-11.138-11.156 0-6.161 4.986-11.155 11.138-11.155Z" fill="#fff" fill-opacity=".3"/>
  <rect x="244.339" y="101.706" width="82.329" height="39.34" rx="19.67" fill="#5F5F5F"/>
  <path fill-rule="evenodd" clip-rule="evenodd" d="M285.555 114.528c0-.281.227-.508.508-.508h29.368a.508.508 0 0 1 0 1.016h-29.368a.507.507 0 0 1-.508-.508Z" fill="#E0E0E0" stroke="#E0E0E0" stroke-width=".25" stroke-linecap="round" stroke-linejoin="round"/>
  <path fill-rule="evenodd" clip-rule="evenodd" d="M285.504 114.528c0-.309.25-.559.559-.559h29.368a.559.559 0 1 1 0 1.118h-29.368a.559.559 0 0 1-.559-.559Zm.559-.457a.457.457 0 1 0 0 .914h29.368a.457.457 0 1 0 0-.914h-29.368Zm-.508 11.669c0-.281.227-.509.508-.509h17.768a.508.508 0 0 1 0 1.017h-17.768a.508.508 0 0 1-.508-.508Z" fill="#E0E0E0"/>
  <path fill-rule="evenodd" clip-rule="evenodd" d="M285.504 125.74c0-.309.25-.559.559-.559h17.768a.559.559 0 1 1 0 1.117h-17.768a.558.558 0 0 1-.559-.558Zm.559-.458a.457.457 0 0 0 0 .915h17.768a.457.457 0 1 0 0-.915h-17.768Z" fill="#E0E0E0" stroke="#E0E0E0" stroke-width=".25" stroke-linecap="round" stroke-linejoin="round"/>
  <path d="M282.085 121.422c0 9.424-7.644 17.064-17.073 17.064-9.43 0-17.074-7.64-17.074-17.064s7.644-17.065 17.074-17.065c9.429 0 17.073 7.641 17.073 17.065Z" fill="#5F5F5F" stroke="#E0E0E0"/>
  <path d="M265.012 135.157c7.591 0 13.744-6.151 13.744-13.737 0-7.587-6.153-13.738-13.744-13.738s-13.744 6.151-13.744 13.738c0 7.586 6.153 13.737 13.744 13.737Z" fill="#373737"/>
  <path d="M73.297 181.416c7.892 0 14.29-6.395 14.29-14.282 0-7.888-6.398-14.282-14.29-14.282-7.892 0-14.29 6.394-14.29 14.282 0 7.887 6.398 14.282 14.29 14.282Z" fill="#fff" fill-opacity=".3"/>
  <path d="M91.067 167.133c0 9.809-7.955 17.761-17.77 17.761-9.814 0-17.77-7.952-17.77-17.761 0-9.808 7.956-17.76 17.77-17.76 9.815 0 17.77 7.952 17.77 17.76Z" stroke="#E0E0E0"/>
  <path fill="#E0E0E0" fill-opacity=".4" d="M17.564 154.849v1.385h14.77v-1.385zm1.428 15.006v1.4h14.282v-1.4z"/>
  <path fill="#E0E0E0" fill-opacity=".4" d="m18.302 169.588.967.966 14.695-14.691-.967-.967z"/>
  <path d="M18.11 154.276a1.189 1.189 0 1 1 .002 2.378 1.189 1.189 0 0 1-.002-2.378Zm0 7.506a1.19 1.19 0 1 1 0 2.38 1.19 1.19 0 0 1 0-2.38Zm0 7.507a1.189 1.189 0 1 1 .002 2.378 1.189 1.189 0 0 1-.002-2.378Zm7.509-15.013a1.189 1.189 0 1 1 .001 2.378 1.189 1.189 0 0 1-.001-2.378Zm0 7.506a1.19 1.19 0 1 1 0 2.38 1.19 1.19 0 0 1 0-2.38Zm0 7.507a1.189 1.189 0 1 1 .001 2.378 1.189 1.189 0 0 1-.001-2.378Zm7.508-15.013a1.189 1.189 0 1 1 .001 2.378 1.189 1.189 0 0 1 0-2.378Zm0 7.506a1.19 1.19 0 1 1 0 2.38 1.19 1.19 0 0 1 0-2.38Zm0 7.507a1.189 1.189 0 1 1 .001 2.378 1.189 1.189 0 0 1 0-2.378Z" fill="#E0E0E0"/>
  <path d="M271.951 115.703c-.805-1.419-1.945-2.57-3.297-3.332a.443.443 0 0 0-.525.068.552.552 0 0 0-.166.357.546.546 0 0 0 .112.381c.04.052.09.095.145.127 1.218.684 2.24 1.725 2.953 3.009a8.774 8.774 0 0 1 1.09 4.263v1.911c0 .765-.085 4.013-.234 4.778a.57.57 0 0 0 .066.395.477.477 0 0 0 .4.239.447.447 0 0 0 .299-.117.53.53 0 0 0 .165-.297c.186-.95.256-4.452.256-4.998v-1.912a9.88 9.88 0 0 0-1.264-4.872Zm-11.754-1.485a7.184 7.184 0 0 1 2.976-1.593 6.763 6.763 0 0 1 3.309-.013.46.46 0 0 0 .188.009.459.459 0 0 0 .313-.214.55.55 0 0 0 .081-.396.54.54 0 0 0-.2-.34.443.443 0 0 0-.173-.081c-2.159-.535-4.422-.108-6.296 1.189-1.873 1.296-3.204 3.356-3.701 5.73a.563.563 0 0 0 .056.4.507.507 0 0 0 .128.151.442.442 0 0 0 .534.016.512.512 0 0 0 .209-.333c.376-1.783 1.283-3.375 2.576-4.525Zm-3.239 5.834a.441.441 0 0 0-.337.153.534.534 0 0 0-.139.37v2.065c0 1.505-.393 2.622-1.201 3.415a.547.547 0 0 0-.153.36.555.555 0 0 0 .119.375c.084.102.2.165.325.174a.449.449 0 0 0 .342-.127c.613-.601 1.047-1.365 1.289-2.27a7.377 7.377 0 0 0 .231-1.927v-2.065a.547.547 0 0 0-.14-.37.454.454 0 0 0-.336-.153Zm13.509 5.046v-.005l-.014-1.581a.543.543 0 0 0-.142-.369.488.488 0 0 0-.156-.112.444.444 0 0 0-.364.004.486.486 0 0 0-.153.115.536.536 0 0 0-.136.372l.013 1.578c0 .126 0 .263.002.41.005 1.046.014 2.626-.249 3.496a.575.575 0 0 0 .025.4.529.529 0 0 0 .114.161.456.456 0 0 0 .346.127.443.443 0 0 0 .179-.054.496.496 0 0 0 .238-.303c.313-1.034.305-2.652.299-3.833-.002-.145-.002-.281-.002-.406Z" fill="#E0E0E0" stroke="#E0E0E0" stroke-width=".3"/>
  <path d="M269.502 121.833c0 .139.05.272.139.37.089.098.21.154.336.154a.456.456 0 0 0 .337-.154.551.551 0 0 0 .139-.37v-1.347c0-3.417-2.525-6.195-5.629-6.195-.539 0-1.074.084-1.591.251a.484.484 0 0 0-.283.251.578.578 0 0 0-.039.399.517.517 0 0 0 .229.312.436.436 0 0 0 .362.043c.429-.139.874-.21 1.322-.21 2.579 0 4.678 2.31 4.678 5.149v1.347Zm-9.356-1.348a5.587 5.587 0 0 1 .528-2.374 5.054 5.054 0 0 1 1.462-1.841.5.5 0 0 0 .131-.147.552.552 0 0 0 .069-.192.569.569 0 0 0-.079-.395.485.485 0 0 0-.311-.215.437.437 0 0 0-.358.093 6.068 6.068 0 0 0-1.757 2.214 6.718 6.718 0 0 0-.635 2.857v3.244a6.634 6.634 0 0 1-.187 1.651 4.952 4.952 0 0 1-1.283 2.327.56.56 0 0 0-.032.742.486.486 0 0 0 .151.121.443.443 0 0 0 .524-.091c.756-.764 1.281-1.713 1.558-2.821a7.718 7.718 0 0 0 .22-1.929l-.001-3.244Zm2.094 2.507a.454.454 0 0 0-.336.153.552.552 0 0 0-.14.37l-.003 1.702c0 .374-.073 2.322-1.522 3.946a.546.546 0 0 0-.136.372.55.55 0 0 0 .142.369c.09.097.212.151.338.15a.455.455 0 0 0 .335-.157 7.027 7.027 0 0 0 1.528-2.831 7.195 7.195 0 0 0 .268-1.848l.003-1.701a.55.55 0 0 0-.139-.372.487.487 0 0 0-.155-.113.431.431 0 0 0-.183-.04Z" fill="#E0E0E0" stroke="#E0E0E0" stroke-width=".3"/>
  <path d="M266.681 118.616a.562.562 0 0 0-.128-.727c-.462-.343-1-.541-1.557-.573a2.842 2.842 0 0 0-1.603.391 3.218 3.218 0 0 0-1.19 1.244 3.632 3.632 0 0 0-.439 1.741v1.141c0 .139.05.272.139.37.089.099.21.154.336.154a.452.452 0 0 0 .337-.154.551.551 0 0 0 .139-.37v-1.141c0-.423.105-.839.303-1.201.198-.363.482-.66.822-.859a1.96 1.96 0 0 1 2.18.125c.052.038.11.065.172.079a.445.445 0 0 0 .357-.076.506.506 0 0 0 .132-.144Zm.399.547a.5.5 0 0 0-.262.278.576.576 0 0 0-.008.401c.097.271.146.559.145.85v6.174a8.702 8.702 0 0 1-.535 2.981.57.57 0 0 0 .005.401c.025.063.061.12.106.168a.47.47 0 0 0 .156.111c.058.025.12.038.183.036a.464.464 0 0 0 .334-.159.518.518 0 0 0 .1-.172 9.792 9.792 0 0 0 .603-3.366v-6.174a3.69 3.69 0 0 0-.21-1.231.536.536 0 0 0-.1-.172.467.467 0 0 0-.334-.161.43.43 0 0 0-.183.035Z" fill="#E0E0E0" stroke="#E0E0E0" stroke-width=".3"/>
  <path d="M265.206 120.658a.547.547 0 0 0-.14-.37.452.452 0 0 0-.336-.154.452.452 0 0 0-.336.154.547.547 0 0 0-.14.37v5.219c0 .015 0 .029.002.045.002.026.19 2.668-1.391 4.573a.55.55 0 0 0-.124.377.554.554 0 0 0 .154.363.442.442 0 0 0 .672-.033c1.795-2.159 1.659-5.028 1.639-5.346v-5.198Z" fill="#E0E0E0" stroke="#E0E0E0" stroke-width=".3"/>
  <g clip-path="url(#illustration_passport_initialization_function_addpasskey__b)" fill="#E0E0E0" stroke="#E0E0E0" stroke-width=".4">
    <path d="M66.485 158.854h3.735a.414.414 0 1 1 0 .83h-3.735a.83.83 0 0 0-.83.831v3.737a.415.415 0 0 1-.83 0v-3.737a1.66 1.66 0 0 1 1.66-1.661ZM65.24 169.65a.415.415 0 0 0-.415.416v3.737a1.66 1.66 0 0 0 1.66 1.661h3.735a.415.415 0 0 0 0-.831h-3.735a.83.83 0 0 1-.83-.83v-3.737a.415.415 0 0 0-.415-.416Zm15.769 0a.415.415 0 0 0-.415.416v3.737a.83.83 0 0 1-.83.83h-3.735a.415.415 0 0 0 0 .831h3.735a1.66 1.66 0 0 0 1.66-1.661v-3.737a.415.415 0 0 0-.415-.416Zm0-4.983a.415.415 0 0 0 .415-.415v-3.737a1.66 1.66 0 0 0-1.66-1.661h-3.735a.414.414 0 1 0 0 .83h3.735a.83.83 0 0 1 .83.831v3.737c0 .229.186.415.415.415Zm-7.214-.701a.476.476 0 0 0-.952 0v3.65h-.953a.477.477 0 0 0 0 .954h1.043a.863.863 0 0 0 .862-.863v-3.741Zm-3.911-.045a.431.431 0 1 0-.862 0v1.997a.43.43 0 1 0 .862 0v-1.997Zm7.648 0a.43.43 0 1 0-.862 0v1.997a.431.431 0 1 0 .862 0v-1.997Zm-.858 4.89c.236.049.39.282.316.511a4.062 4.062 0 0 1-7.734-.005c-.074-.23.08-.462.316-.511.236-.049.464.104.545.332a3.196 3.196 0 0 0 3.005 2.126 3.191 3.191 0 0 0 3.007-2.122c.081-.227.31-.38.545-.331Z"/>
  </g>
  <defs>
    <clipPath id="illustration_passport_initialization_function_addpasskey__a">
      <path fill="#fff" transform="translate(194.14 150.391)" d="M0 0h140.07v116.522H0z"/>
    </clipPath>
    <clipPath id="illustration_passport_initialization_function_addpasskey__b">
      <path fill="#fff" transform="translate(64.162 158.079)" d="M0 0h18.096v18.109H0z"/>
    </clipPath>
  </defs>
</svg>
