<svg width="120" height="120" viewBox="0 0 120 120" fill="none" xmlns="http://www.w3.org/2000/svg"><path d="M12 24.245a4 4 0 0 1 4-4h82.836l2.394 10.486a110.006 110.006 0 0 1 0 48.967l-1.684 7.377a4 4 0 0 1-3.9 3.11H16a4 4 0 0 1-4-4v-61.94Z" fill="#fff" fill-opacity=".3"/><path d="M28.038 28.5a3.5 3.5 0 1 1 7 0 3.5 3.5 0 0 1-7 0Zm3.5-2.5a2.5 2.5 0 1 0 0 5 2.5 2.5 0 0 0 0-5Zm-13.5 2.5a3.5 3.5 0 1 1 7 0 3.5 3.5 0 0 1-7 0Zm3.5-2.5a2.5 2.5 0 1 0 0 5 2.5 2.5 0 0 0 0-5Zm52.937 25.535c2.666 1.54 2.665 5.388 0 6.927L54.162 70.189c-2.666 1.539-5.999-.384-6-3.463l-.007-23.466c-.002-3.08 3.333-5.006 6-3.465l20.32 11.74Z" fill="#fff" fill-opacity=".4"/><path d="M72.54 92.255c-1.19 1.821-3.183 4.065-5.19 6.224a.5.5 0 1 0 .733.68c2-2.152 4.05-4.454 5.295-6.356.616-.942 1.075-1.844 1.197-2.612.062-.393.044-.79-.125-1.146-.173-.366-.477-.63-.873-.797-4.192-1.767-7.725-1.891-11.088-.87-3.336 1.015-6.467 3.147-9.88 5.804-4.853 3.778-9.725 7.441-16.572 7.352a.5.5 0 1 0-.013 1c7.24.094 12.37-3.804 17.199-7.563 3.404-2.65 6.411-4.68 9.557-5.635 3.118-.948 6.41-.852 10.41.834.208.088.306.196.356.303.056.117.084.294.041.56-.087.55-.444 1.303-1.046 2.222Z" fill="#E0E0E0"/><path d="M72.276 87.734a.5.5 0 0 0-.707.02l-9.932 10.537a.5.5 0 1 0 .727.686l9.933-10.537a.5.5 0 0 0-.021-.706Zm-4.71-.557a.5.5 0 0 0-.703-.076c-.716.576-1.563 1.531-2.527 2.618l-.03.035c-.975 1.099-2.097 2.364-3.399 3.626-2.626 2.544-5.949 5.038-10.157 6.053a.5.5 0 1 0 .234.972c4.456-1.074 7.933-3.704 10.619-6.307 1.329-1.288 2.472-2.577 3.443-3.672l.032-.036c.991-1.118 1.775-1.998 2.412-2.51a.5.5 0 0 0 .076-.703Z" fill="#E0E0E0"/><path d="M77.007 99.597c-.136.378-.59.859-1.727 1.339-5.607 2.362-16.24 4.687-25.52 6.426a486.06 486.06 0 0 1-16.752 2.821l-.265.039-.03.005-26.99-2.65a.5.5 0 0 0-.098.995l27.052 2.656c.04.004.08.003.12-.003l.092-.013.265-.039c.234-.035.578-.086 1.019-.154a487.147 487.147 0 0 0 15.77-2.674c9.261-1.735 20.002-4.077 25.725-6.488 1.218-.513 1.999-1.143 2.28-1.921.292-.81-.019-1.592-.524-2.24a.5.5 0 0 0-.455-.19c-3.053.37-12.892 1.142-21.986 1.823a4689.505 4689.505 0 0 1-15.964 1.166l-1.442.103a.23.23 0 0 0-.026.002l-.01.001-.018.002-.026.003c-.041.003-.105.008-.19.012a7.662 7.662 0 0 1-.731-.006 10.157 10.157 0 0 1-2.526-.465c-2.014-.639-4.551-2.108-6.574-5.47-.455-.754-.33-1.63.36-2.722.691-1.095 1.877-2.28 3.282-3.531.696-.62 1.436-1.248 2.184-1.883l.007-.005a123.06 123.06 0 0 0 2.225-1.918c1.431-1.275 2.75-2.574 3.583-3.85.471-.72.828-1.343 1.073-1.875.242-.525.39-.995.412-1.4.023-.422-.093-.825-.433-1.1-.313-.252-.727-.322-1.13-.317-.812.009-1.938.325-3.26.812-1.338.494-2.939 1.188-4.723 2-1.295.59-2.689 1.242-4.154 1.928-6.64 3.106-14.752 6.903-21.863 8.685a.5.5 0 0 0 .243.97c7.215-1.808 15.444-5.66 22.082-8.767 1.454-.68 2.832-1.326 4.106-1.905 1.78-.81 3.353-1.492 4.656-1.973 1.32-.487 2.302-.744 2.923-.75.312-.004.444.058.49.095.02.016.076.062.065.268-.012.221-.102.557-.322 1.036-.218.47-.546 1.049-1.002 1.746-.755 1.156-1.986 2.381-3.411 3.65a119.73 119.73 0 0 1-2.207 1.902l-.011.01c-.745.632-1.493 1.266-2.198 1.894-1.409 1.254-2.69 2.52-3.463 3.744-.775 1.228-1.111 2.542-.371 3.772 2.16 3.59 4.906 5.203 7.129 5.907 1.107.351 2.078.475 2.776.511.35.018.63.014.828.006a6.054 6.054 0 0 0 .294-.021l.012-.001 1.432-.102 3.854-.277c3.217-.232 7.57-.549 12.114-.89 8.808-.66 18.359-1.408 21.736-1.792.27.42.32.768.213 1.063Z" fill="#E0E0E0"/><path d="M85.445 105.01h8.8c-3.865-.005-7.355-5.675-9.869-14.826h-8.8c2.514 9.151 6.004 14.821 9.869 14.826Zm-9.98-84.765C77.988 10.845 81.525 5 85.445 5h8.8c-3.925 0-7.462 5.845-9.984 15.245h-8.796Z" fill="#fff" fill-opacity=".4"/><path d="M105.458 16.552c-1.021-3.679-2.197-6.867-3.503-9.43h6.53c1.408 2.52 2.709 5.89 3.846 9.965 1.285 4.64 2.338 10.157 3.088 16.282h-6.786c-.76-6.298-1.84-12-3.175-16.817Zm-4.631-9.43c1.358 2.551 2.594 5.83 3.667 9.697 1.38 4.98 2.49 10.94 3.25 17.55h8.8a144.57 144.57 0 0 0-.118-1c-.755-6.212-1.822-11.822-3.132-16.55-1.225-4.392-2.653-8.026-4.23-10.698h-8.797c.189.32.376.653.56 1Z" fill="#E0E0E0"/><path d="M107.834 44.95c-.55-9.78-1.89-18.51-3.78-25.3C101.534 10.6 98.074 5 94.244 5h-8.8c3.82 0 7.29 5.6 9.81 14.64 1.89 6.79 3.23 15.53 3.78 25.3h8.8v.01Z" fill="#4C88FF"/><path d="M104.054 90.36c1.72-6.21 2.99-14.04 3.62-22.81h-8.8c-.63 8.77-1.9 16.6-3.62 22.81-2.51 9.04-5.98 14.64-9.81 14.64h8.8c3.83 0 7.29-5.6 9.81-14.64Z" fill="#41CCB9"/><path d="M112.694 59.64h-8.8c-.228 8.838-1.085 17.004-2.421 23.9-.065.336-.131.67-.199 1h8.8c1.398-6.854 2.313-15.018 2.592-23.9.01-.333.02-.666.028-1Zm-1.029 1c-.268 8.479-1.118 16.286-2.411 22.9h-6.762c1.278-6.662 2.111-14.47 2.374-22.9h6.799Z" fill="#E0E0E0"/></svg>