<svg width="350" height="350" viewBox="0 0 350 350" fill="none" xmlns="http://www.w3.org/2000/svg"><path d="M160 109a8 8 0 0 1 8-8h43.09a8 8 0 0 1 8 8v43a8 8 0 0 1-8 8H168a8 8 0 0 1-8-8v-43Z" fill="#FAC823"/><path d="m195.185 122.854.04.139c.904 2.965 2.719 5.109 5.349 6.274 1.33.588 2.839.847 4.581.781.631 1.866 1.105 3.587 1.424 5.167.227 1.121.635 2.519.75 4.2l.046.738.065 1.398.045 1.509.014.796c.048 3.222-2.341 5.895-5.408 6.128l-.344.016h-23.494c-3.23-.052-5.802-2.803-5.752-6.144l.014-.796.045-1.509.065-1.398c.114-2.014.612-3.658.871-4.939.319-1.58.794-3.301 1.422-5.166 1.737.07 3.16-.179 4.464-.755l.457-.215.457-.248c2.236-1.288 3.74-3.288 4.502-5.821l.042-.155h10.345ZM194 138.088h-8l-.233.02a2.006 2.006 0 0 0-1.767 1.997c0 1.035.772 1.88 1.767 1.997l.233.02h8l.233-.02a2.005 2.005 0 0 0 1.767-1.997 2.008 2.008 0 0 0-2-2.017Zm8.969-11.696-.367-.076-.442-.127a3.371 3.371 0 0 1-.29-.111 5.742 5.742 0 0 1-.466-.227l-.275-.159-.252-.166-.211-.156-.209-.172-.261-.243-.33-.363-.221-.288-.123-.179c-.419-.637-.73-1.401-.929-2.294l-.114-.602a1.919 1.919 0 0 0-1.885-1.635h-13.192a1.92 1.92 0 0 0-1.89 1.672l-.023.165c-.152.877-.409 1.644-.771 2.301l-.226.378a5.318 5.318 0 0 1-.29.401l-.224.263-.307.311-.272.234-.307.229-.246.16-.2.116-.211.112-.359.166-.214.084-.309.097-.447.102-.342.057-.365.043c-1.174.116-2.571.016-3.697-.344-2.542-.812-3.86-2.765-3.687-5.821.291-5.11 5.725-8.281 15.707-9.113l1.293-.092a66.29 66.29 0 0 1 3.975-.115l.709.003a66.29 66.29 0 0 1 3.311.113l1.293.093c9.957.83 15.391 4.001 15.682 9.111.173 3.056-1.145 5.009-3.687 5.821-1.083.346-2.416.452-3.578.35l-.387-.044-.364-.055Z" fill="#373737"/><path d="M85.65 73.693h-8.496v6.786h8.496v-6.786Zm-14.44 0H49.972v6.786H71.21v-6.786Z" fill="#42BDEB"/><path d="M162.147 71.483a2.712 2.712 0 0 1-2.714 2.71 2.712 2.712 0 0 1-2.715-2.71 2.712 2.712 0 0 1 2.715-2.711 2.712 2.712 0 0 1 2.714 2.71Zm13.804 0a2.713 2.713 0 0 1-2.715 2.71 2.713 2.713 0 0 1-2.715-2.71 2.713 2.713 0 0 1 2.715-2.711 2.713 2.713 0 0 1 2.715 2.71Zm13.803 0a2.712 2.712 0 0 1-2.714 2.71 2.712 2.712 0 0 1-2.715-2.71 2.712 2.712 0 0 1 2.715-2.711 2.712 2.712 0 0 1 2.714 2.71Zm13.804 0a2.713 2.713 0 0 1-2.715 2.71 2.713 2.713 0 0 1-2.715-2.71 2.713 2.713 0 0 1 2.715-2.711 2.713 2.713 0 0 1 2.715 2.71Zm13.804 0a2.713 2.713 0 0 1-2.715 2.71 2.712 2.712 0 0 1-2.715-2.71 2.712 2.712 0 0 1 2.715-2.711 2.713 2.713 0 0 1 2.715 2.71Z" fill="#2851A3"/><path d="M121.903 92.806C109.254 92.806 99 82.552 99 69.903S109.254 47 121.903 47s22.903 10.254 22.903 22.903-10.254 22.903-22.903 22.903Z" fill="#41CCB9"/><path d="M121.903 48c12.097 0 21.903 9.806 21.903 21.903 0 12.096-9.806 21.903-21.903 21.903S100 82 100 69.903 109.806 48 121.903 48Zm23.903 21.903c0-13.201-10.702-23.903-23.903-23.903C108.702 46 98 56.702 98 69.903c0 13.201 10.702 23.903 23.903 23.903 13.201 0 23.903-10.702 23.903-23.903Z" fill="#41CCB9"/><g clip-path="url(#uduoff4ztqpa)"><path d="M132.248 96.418c-2.809-.895-2.273-7.47-2.398-14.924h-16.03c.196 12.805.375 13.299-2.219 14.669" fill="#EBEBEB"/><path d="M130.342 80.994h-17.03l.008.508.035 2.204c.081 5.003.125 7.721-.094 9.344-.121.906-.318 1.395-.584 1.734-.273.348-.661.594-1.309.936l.467.885c.648-.343 1.211-.672 1.628-1.203.424-.539.657-1.23.79-2.219.229-1.703.183-4.51.102-9.464l-.028-1.725h15.031c.013 1.036.016 2.058.018 3.052.005 2.376.01 4.587.168 6.413.118 1.358.323 2.556.698 3.485.377.933.955 1.664 1.854 1.95l.303-.952c-.506-.161-.913-.588-1.23-1.372-.318-.79-.513-1.869-.628-3.198-.155-1.784-.159-3.922-.165-6.27-.002-1.16-.005-2.371-.026-3.616l-.008-.492Z" fill="#2851A3"/><path d="M121.1 56.23s-.017 0 0 0h-.017c-6.853 0-12.399 5.627-12.399 12.568 0 6.942-.358 9.243 12.041 9.243 0 0 .358 3.325.375 3.325h.018c12.399 0 12.345-5.023 12.345-11.965-.035-6.941-5.528-13.17-12.363-13.17Z" fill="#EBEBEB"/><path d="M110.652 70.388c-.572-.858-1.61-.73-2.111-.237-.877.84-.769 2.21-.626 3.05.34 2.192 1.879 5.17 3.954 5.17" fill="#EBEBEB"/><path d="M109.553 70.262c.24.009.491.115.683.404a.5.5 0 0 0 .832-.555c-.379-.57-.934-.83-1.481-.848a1.923 1.923 0 0 0-1.394.529c-.548.526-.771 1.203-.844 1.826-.073.62-.002 1.225.072 1.664.181 1.162.675 2.523 1.406 3.606.718 1.066 1.753 1.983 3.042 1.983a.5.5 0 0 0 0-1c-.786 0-1.559-.572-2.213-1.542-.643-.953-1.087-2.175-1.247-3.204l-.001-.008c-.068-.4-.123-.9-.066-1.383.057-.48.218-.909.545-1.222l.005-.005a.925.925 0 0 1 .661-.245Z" fill="#2851A3"/><path d="M111.083 74.17c0 3.616.805 5.078 1.502 7.507 1.11 3.891 3.632 5.042 5.69 6.12 3.399 1.808 7.944 1.315 10.591-1.151 3.811-3.58 4.581-10.577 4.581-16.422" fill="#EBEBEB"/><path d="M133.447 69.724a.5.5 0 0 0-.5.5c0 2.905-.192 6.073-.849 8.949-.658 2.881-1.771 5.414-3.573 7.108-2.479 2.307-6.788 2.79-10.015 1.074l-.003-.001-.286-.15c-.957-.498-1.932-1.005-2.815-1.787-.956-.846-1.812-2.024-2.34-3.877-.159-.554-.321-1.052-.476-1.53-.542-1.669-1.007-3.1-1.007-5.84a.5.5 0 0 0-1 0c0 2.91.517 4.498 1.069 6.194.152.466.306.94.453 1.451.581 2.038 1.541 3.38 2.638 4.351.98.868 2.063 1.43 3.009 1.922l.289.15c3.572 1.9 8.349 1.397 11.166-1.226l.002-.002c2.008-1.887 3.185-4.642 3.864-7.615.681-2.979.874-6.231.874-9.171a.5.5 0 0 0-.5-.5Z" fill="#2851A3"/><path d="M122.752 70.53a.5.5 0 0 0-.448.547l.644 6.485a.5.5 0 1 0 .995-.1l-.644-6.484a.5.5 0 0 0-.547-.448Z" fill="#2851A3"/><path d="M111.082 74.699c-2.666-5.261-4.008-12.404-.751-16.569 2.683-4.128 8.552-4.329 8.552-4.329 1.27-1.297 3.578-2.01 5.009-2.375 1.414-.365 3.006-.292 4.258.494.591.383 1.092.913 1.306 1.589.465 1.224-.805 2.43-.805 2.43 1.807-.092 3.668.785 5.207 2.32 1.735 1.735 2.093 3.087 2.129 5.57l-1.736.02c.304 4.164-1.002 7.763-1.002 7.763l-1.735-7.91-18.017-.073s-.626 5.644-2.397 6.759l-.018 4.31Z" fill="#2851A3"/><path d="M127.881 52.341c-1.103-.69-2.542-.772-3.864-.43h-.001c-.705.18-1.613.442-2.495.814-.888.375-1.713.846-2.281 1.426a.501.501 0 0 1-.34.15h-.012l-.044.002a11.74 11.74 0 0 0-.851.089c-.571.08-1.361.23-2.23.503-1.748.549-3.761 1.581-5.013 3.508a.527.527 0 0 1-.026.035c-1.52 1.945-1.996 4.626-1.74 7.522.189 2.147.779 4.378 1.608 6.443l.008-2.018a.5.5 0 0 1 .234-.42c.312-.197.633-.643.932-1.308.29-.647.526-1.424.711-2.185a25.454 25.454 0 0 0 .494-2.664l.022-.175.006-.046.001-.01v-.003a.502.502 0 0 1 .499-.445l18.017.073a.5.5 0 0 1 .486.393l1.302 5.931c.023-.108.047-.219.07-.334.283-1.391.526-3.284.378-5.308a.502.502 0 0 1 .494-.536l1.228-.013c-.036-.975-.143-1.728-.385-2.403-.279-.777-.753-1.488-1.585-2.32-1.47-1.466-3.201-2.257-4.828-2.174a.499.499 0 0 1-.37-.861l.001-.001.006-.006.031-.032a3.242 3.242 0 0 0 .45-.604c.229-.401.349-.841.195-1.248a3.977 3.977 0 0 1-.009-.026c-.169-.53-.572-.976-1.099-1.319Zm1.754 3.136c1.642.207 3.241 1.097 4.576 2.427.903.904 1.476 1.736 1.819 2.69.339.944.438 1.97.457 3.228a.5.5 0 0 1-.495.507l-1.212.013c.083 1.938-.156 3.72-.426 5.05a20.812 20.812 0 0 1-.574 2.213c-.019.056-.033.1-.044.129l-.012.034-.003.01-.002.004-.47-.17.47.17a.5.5 0 0 1-.958-.063l-1.65-7.519-17.174-.07a26.73 26.73 0 0 1-.488 2.578c-.193.79-.446 1.633-.771 2.358-.273.607-.622 1.193-1.079 1.575l-.017 4.06a.5.5 0 0 1-.946.224c-1.356-2.677-2.38-5.839-2.649-8.878-.267-3.024.211-5.99 1.936-8.207 1.432-2.19 3.688-3.318 5.54-3.9a15.093 15.093 0 0 1 2.391-.538 12.883 12.883 0 0 1 .812-.089c.687-.648 1.587-1.138 2.467-1.51.947-.399 1.908-.675 2.635-.861 1.503-.388 3.247-.325 4.648.554l.007.004c.648.422 1.243 1.03 1.506 1.844.302.813.021 1.582-.267 2.086a4.939 4.939 0 0 1-.027.047Z" fill="#2851A3"/></g><rect width="45.806" height="45.806" rx="22.903" transform="matrix(-1 0 0 1 144.806 47)" stroke="#41CCB9" stroke-width="2" stroke-linejoin="round"/><path d="M248.904 92.806c12.649 0 22.903-10.254 22.903-22.903S261.553 47 248.904 47s-22.903 10.254-22.903 22.903 10.254 22.903 22.903 22.903Z" fill="#42BDEB"/><path d="M248.904 47.5c-12.373 0-22.403 10.03-22.403 22.403s10.03 22.403 22.403 22.403c12.372 0 22.403-10.03 22.403-22.403S261.276 47.5 248.904 47.5Zm-23.403 22.403c0-12.925 10.478-23.403 23.403-23.403 12.925 0 23.403 10.478 23.403 23.403 0 12.925-10.478 23.403-23.403 23.403-12.925 0-23.403-10.478-23.403-23.403Z" fill="#42BDEB"/><g clip-path="url(#ud0sgpsgsqob)"><rect x="226" y="47.001" width="45.806" height="45.806" rx="22.903" fill="#42BDEB"/><g clip-path="url(#udfcl22gvy0c)"><path d="M225.611 92.281c.171-1.011.171-2.06.322-3.76.397-4.637 5.932 3.703 8.373 0 0-5.02.729-18.894 1.221-22.96.132-1.145.378-2.27.757-3.359.87-2.48 2.365-4.81 4.863-6.546 5.052-3.378 11.524-2.691 16.027.267 3.841 2.52 5.507 5.802 6.245 10.25 0 9.973.466 18.4-1.113 22.349.832 2.824 7.206-4.638 8-1.795.587 2.1 1.912 3.837 3.274 5.554h-47.969Z" fill="#2851A3"/><path d="M241.147 92.281c.321-1.508.549-3.626.549-6.68l14.646-9.657c-.171 7.73-.606 13.035-.19 16.337" fill="#EBEBEB"/><path d="M241.147 92.281c.321-1.508.549-3.626.549-6.68l14.646-9.657a491.034 491.034 0 0 1-.203 6.536c-.156 4.307-.273 7.529.013 9.801h-1.007c-.203-1.718-.194-3.9-.118-6.537.03-1.034.07-2.137.113-3.317.051-1.414.107-2.94.154-4.594l-12.601 8.308c-.024 2.688-.228 4.66-.525 6.14h-1.021Z" fill="#2851A3"/><path d="M248.337 56.419c2.336-.582 11.034 11.68 11.034 11.68s-.551 7.844-3.673 7.844l-7.361 3.836h-.019c-12.016 0-11.959-4.676-11.959-11.108.019-6.47 9.641-11.67 11.978-12.253Z" fill="#EBEBEB"/><path d="M236.472 67.05c-.549 3.913-.719 8.493.151 12.043 1.022 4.18 3.955 6.948 8.364 7.406 2.592.267 5.279-.726 7.209-2.443 1.949-1.737 3.842-4.066 4.126-8.093" fill="#EBEBEB"/><path d="M236.967 67.12c-.546 3.888-.706 8.395.142 11.854.975 3.987 3.743 6.592 7.93 7.027 2.437.251 4.988-.684 6.825-2.32 1.891-1.684 3.687-3.9 3.959-7.753l.997.07c-.296 4.201-2.283 6.642-4.291 8.43-2.023 1.8-4.846 2.85-7.593 2.568-4.632-.482-7.73-3.412-8.799-7.784-.892-3.641-.712-8.296-.16-12.231l.99.138Z" fill="#2851A3"/><path d="M240.693 69.995a.5.5 0 0 0-.586.394l-1.094 5.568a.5.5 0 1 0 .981.193l1.094-5.568a.5.5 0 0 0-.395-.587Zm13.113-1.495c-2.283-.5-9.5-.5-18-.5 0 0 6.589-16.238 18.283-11.18 5.563 2.405 6.736 10.383 6.15 14.715-.246 1.794-1.344 1.909-3.368 1.852-.682 0-2.195-4.887-3.065-4.887Z" fill="#2851A3"/><path d="M255.318 78c1.003-.069 2.564-.39 3.41-.963 1.048-.687 1.873-1.925 2.051-3.209.111-.802 0-3.828-2.831-3.828-1.136 0-2.674 1.513-3.142 1.903" fill="#EBEBEB"/><path d="M260.007 71.81c.323.752.323 1.612.277 1.95-.158 1.133-.897 2.247-1.83 2.86l-.006.003c-.354.24-.892.446-1.491.6a9.659 9.659 0 0 1-1.673.278l.069.998a10.65 10.65 0 0 0 1.854-.307c.642-.166 1.306-.406 1.799-.739 1.16-.763 2.069-2.124 2.268-3.556.065-.466.065-1.52-.348-2.481-.21-.49-.535-.973-1.031-1.335-.501-.365-1.145-.581-1.947-.581-.388 0-.774.127-1.119.29a6.38 6.38 0 0 0-.997.611c-.451.33-.874.703-1.139.937-.088.078-.158.14-.207.18l.64.769c.077-.064.169-.146.274-.238a13.84 13.84 0 0 1 1.021-.84c.278-.203.564-.385.837-.515.278-.132.51-.194.69-.194.614 0 1.046.162 1.358.39.317.23.544.553.701.92Z" fill="#2851A3"/><path d="M252.806 68h3v23h-3V68Z" fill="#2851A3"/></g></g><rect x="226" y="47.001" width="45.806" height="45.806" rx="22.903" stroke="#42BDEB" stroke-width="2" stroke-linecap="round" stroke-linejoin="round"/><path d="M69.782 91.465a.5.5 0 0 0-.5.5v122.013a7.33 7.33 0 0 0 2.107 5.15 7.158 7.158 0 0 0 5.093 2.136.5.5 0 0 0 0-1 6.159 6.159 0 0 1-4.382-1.839 6.33 6.33 0 0 1-1.818-4.447V91.965a.5.5 0 0 0-.5-.5Zm140.79 129.299a.5.5 0 0 0-.5-.5H161.72a.5.5 0 0 0 0 1h48.352a.5.5 0 0 0 .5-.5ZM310.578 29.248c-1.53-1.442-3.598-2.248-5.749-2.248H77.157c-2.15 0-4.22.806-5.748 2.248-1.531 1.443-2.397 3.407-2.397 5.462v28.84a.5.5 0 0 0 1 0V34.71c0-1.77.745-3.474 2.083-4.735C73.433 28.715 75.253 28 77.157 28H304.83c1.904 0 3.725.714 5.063 1.976 1.337 1.26 2.082 2.964 2.082 4.734v107.889a.5.5 0 0 0 1 0V34.709c0-2.054-.866-4.018-2.396-5.461Z" fill="#E0E0E0"/><path d="M205.766 327.265h-59.101l10.509-39.332h59.1l-10.508 39.332Z" fill="#42BDEB"/><path d="M205.766 328.545v.475H128.57v-1.756h77.196v1.281Z" fill="#2851A3"/><path d="M180.705 307.491a3.213 3.213 0 0 1 1.99-2.971 3.22 3.22 0 0 1 4.202 4.207 3.221 3.221 0 0 1-2.981 1.979 3.215 3.215 0 0 1-2.969-1.985 3.203 3.203 0 0 1-.242-1.23Z" fill="#373737"/><mask id="ud7p1f12kjyd" style="mask-type:alpha" maskUnits="userSpaceOnUse" x="47" y="162" width="147" height="168"><path d="M47.795 162.363h146.017v167.036H47.795V162.363Z" fill="#C4C4C4"/></mask><g mask="url(#ud7p1f12kjyd)"><path d="M139.386 239.403c6.209.507 24.576 13.073 24.576 13.073-2.39-2.176-4.486-4.451-15.263-17.245-.861-.835-4.713-4.974-5.395-5.367-3.219-1.865-4.34-5.088-5.624-8.606-.521-1.407-1.464-4.025-.911-4.843.52-.065 3.024 4.238 4.47 6.414l.456 2.323s-.668-4.958-1.74-7.412c-1.982-4.532-.861-11.813-.569-12.336.439-.524 1.251-2.504 2.992-.589l1.478 1.554s12.288 17.589 1.154 1.767c.39-3.91 7.834 5.71 9.201 9.064.471 1.473-1.757 8.034-.13 10.242 8.289 11.126 29.533 21.058 36.815 33.378 3.038 5.154.276 10.602-4.715 11.78-10.857 2.585-47.12-8.639-47.12-8.639" fill="#EBEBEB"/><path d="M137.113 217.422c.027.311.096.677.194 1.073.224.902.581 1.884.842 2.589l.001.003.054.146c1.273 3.493 2.357 6.464 5.35 8.198.135.078.304.218.473.368.181.159.397.362.635.593a85.939 85.939 0 0 1 1.631 1.641c.463.476.925.956 1.34 1.387.633.658 1.158 1.204 1.414 1.452a.412.412 0 0 1 .035.037c10.784 12.803 12.857 15.048 15.217 17.197l.025.024 7.363 7.707-.723.69-7.327-7.668-.009-.006-.154-.105-.591-.398a222.207 222.207 0 0 0-9.137-5.791c-2.678-1.599-5.542-3.209-8.117-4.449-2.598-1.251-4.834-2.09-6.283-2.209l.081-.997c1.655.136 4.043 1.057 6.635 2.305 2.614 1.259 5.507 2.885 8.197 4.491a209.563 209.563 0 0 1 5.955 3.702c-2.168-2.373-5.508-6.264-11.881-13.83a92.855 92.855 0 0 1-1.446-1.485c-.413-.429-.866-.899-1.311-1.357a80.945 80.945 0 0 0-1.611-1.62 17.674 17.674 0 0 0-.6-.562 2.547 2.547 0 0 0-.311-.25l-.001-.001c-3.311-1.919-4.508-5.206-5.74-8.587l-.102-.279c-.26-.703-.635-1.732-.874-2.695-.12-.48-.21-.964-.231-1.392-.021-.407.016-.864.248-1.209a.502.502 0 0 1 .352-.216.693.693 0 0 1 .441.105c.092.055.176.127.249.197.149.142.313.336.483.557.344.445.76 1.059 1.197 1.731.398.613.81 1.266 1.209 1.899-.23-.918-.495-1.797-.788-2.467l.916-.401c.561 1.283 1.004 3.184 1.305 4.731a56.986 56.986 0 0 1 .465 2.756l.006.043.002.015-.496.067.496-.067a.5.5 0 0 1-.986.164l-.438-2.227c-.376-.569-.829-1.288-1.294-2.027-.417-.661-.844-1.339-1.236-1.941a28.474 28.474 0 0 0-1.124-1.632Z" fill="#2851A3"/><path d="M139.984 205.429c-.065.097-.14.207-.214.296l-1.767.358a3.067 3.067 0 0 0 .184-.26 8.92 8.92 0 0 1 .201-.293c.175-.243 1.413-1.538 1.726-1.749a1.537 1.537 0 0 1 1.236-.243c.465.107.925.421 1.394.936l1.474 1.55a.443.443 0 0 1 .048.059l-.41.286.41-.286.506.725.158.225a1.04 1.04 0 0 1 .333-.227c.464-.199.974-.034 1.388.182.862.45 1.924 1.453 2.966 2.623 2.098 2.355 4.343 5.648 5.057 7.401l.013.036c.086.271.099.607.086.944-.013.349-.058.753-.117 1.187-.059.43-.134.902-.212 1.39l-.003.016a74.72 74.72 0 0 0-.233 1.53c-.147 1.043-.253 2.083-.227 2.988.026.921.189 1.616.501 2.042 3.757 5.042 10.226 9.85 16.904 14.814l1.779 1.324c7.238 5.399 14.46 11.02 18.161 17.283 3.213 5.449.282 11.266-5.029 12.521-2.815.67-7.202.438-12.128-.251-4.949-.692-10.516-1.856-15.735-3.099a340.976 340.976 0 0 1-13.673-3.581 349.89 349.89 0 0 1-5.435-1.591l-.307-.094-.105-.032.147-.478.149-.477.025.008.077.023.305.093a327.276 327.276 0 0 0 5.416 1.586 339.7 339.7 0 0 0 13.633 3.57c5.204 1.24 10.737 2.396 15.641 3.082 4.927.689 9.145.89 11.758.268 4.67-1.102 7.264-6.183 4.4-11.04-3.581-6.058-10.622-11.562-17.898-16.99l-1.808-1.345c-6.638-4.932-13.229-9.83-17.079-14.998l-.002-.002c-.5-.679-.669-1.631-.697-2.607-.028-.992.088-2.099.236-3.156.075-.53.158-1.054.237-1.549l.001-.009c.079-.493.153-.955.21-1.374.058-.423.097-.79.109-1.091.011-.297-.007-.484-.035-.585-.663-1.608-2.813-4.785-4.868-7.091-1.039-1.166-1.997-2.044-2.683-2.403-.36-.188-.506-.159-.53-.149-.002.001-.024.009-.054.066a.654.654 0 0 0-.051.135l.459.658c.978 1.402 2.166 3.106 3.007 4.316.42.605.754 1.088.931 1.348l.105.154.033.05.016.025.014.027.015.031a.967.967 0 0 1 .032.096c.011.09-.102.423-.32.577a.91.91 0 0 1-.464-.067.744.744 0 0 1-.059-.05l-.02-.021-.028-.034-.036-.047-.117-.163c-.416-.578-1.737-2.448-4.52-6.402a.489.489 0 0 1-.089-.243l-.56-.801-.484-.694-1.461-1.535c-.399-.44-.692-.595-.881-.638a.54.54 0 0 0-.452.096c-.163.11-.318.289-.474.505a7.691 7.691 0 0 0-.18.262l-.036.053Z" fill="#2851A3"/><path d="M146.636 227.768c-4.388-4.565-13.636-13.547-15.831-15.658a1.515 1.515 0 0 1-.342-1.685l3.365-8.115a1.497 1.497 0 0 1 2.455-.491l16.141 16.018a1.53 1.53 0 0 1 .308 1.734l-3.624 7.788c-.488.949-1.741 1.178-2.472.409Z" fill="#373737"/><path d="M135.929 202.172a.998.998 0 0 0-1.638.326l-.001.003-3.365 8.115c-.166.404-.077.839.227 1.135 2.196 2.112 11.449 11.099 15.845 15.671l.002.002c.471.495 1.313.378 1.66-.285l3.62-7.779.001-.001c.184-.393.1-.855-.21-1.168l-.001-.002-16.138-16.015-.002-.002Zm.708-.707.001.002 16.14 16.018a2.03 2.03 0 0 1 .407 2.299s0-.001 0 0l-3.628 7.795-.005.009c-.63 1.227-2.287 1.565-3.277.526-4.381-4.557-13.621-13.532-15.817-15.643l-.002-.002a2.014 2.014 0 0 1-.454-2.235l3.363-8.113.001-.001a1.998 1.998 0 0 1 3.271-.655Z" fill="#E0E0E0"/><path d="m68.223 372.958-8.815-53.388 3.666-43.192 19.4 1.128-6.413 42.485-.404 50.478c1.458 4.536 3.383 5.886 5.443 10.008.767 1.537.985 3.229 1.315 4.947.515 2.727.266 6.959-.416 9.766-1.93-4.569-2.257-10.046-4.628-14.396 0 0 3.36 19.577 6.618 26.942-.716.408-1.335-.28-1.803-.783-3.268-3.483-4.875-9.323-6.4-12.727l5.243 12.704a207.17 207.17 0 0 1-7.952-9.664c-1.339-1.749-2.674-3.549-3.302-5.653-.505-1.764-.649-12.791-1.552-18.655Z" fill="#EBEBEB" stroke="#2851A3" stroke-linejoin="round"/><path d="M121.513 236.5c-1.089-.817-3.384-5.725-3.506-14.176l-16.652-6.255c.224 14.485.156 18.588-2.746 20.118 0 0 1.571 17.753 13.404 15.249 11.831-2.503 9.5-14.936 9.5-14.936Z" fill="#EBEBEB"/><path d="m100.843 215.343 17.659 6.633.005.341c.06 4.182.658 7.475 1.369 9.812.355 1.169.737 2.094 1.09 2.768.363.693.668 1.069.847 1.203l.156.117.035.191-.491.092.491-.092.001.002v.002l.002.009.005.03.018.113c.015.097.035.238.057.417.042.357.088.868.105 1.487.035 1.236-.045 2.918-.509 4.688-.463 1.771-1.315 3.642-2.832 5.235-1.521 1.597-3.686 2.89-6.735 3.535-3.094.654-5.555-.015-7.483-1.411-1.909-1.383-3.26-3.454-4.215-5.558-.957-2.108-1.532-4.288-1.869-5.935a31.628 31.628 0 0 1-.345-2.009 22.27 22.27 0 0 1-.088-.725l-.004-.041v-.011l-.001-.003s0-.002.498-.046l-.498.044-.03-.331.294-.155c1.225-.646 1.936-1.835 2.282-4.817.347-2.987.31-7.594.198-14.851l-.012-.734Zm-1.702 21.115a30.612 30.612 0 0 0 .388 2.364c.328 1.604.885 3.705 1.8 5.722.917 2.022 2.177 3.92 3.891 5.161 1.695 1.228 3.867 1.84 6.689 1.242 2.868-.607 4.848-1.807 6.218-3.245 1.373-1.443 2.157-3.149 2.589-4.799.433-1.652.509-3.234.477-4.407a15.665 15.665 0 0 0-.144-1.735c-.317-.3-.647-.786-.969-1.4-.387-.74-.791-1.724-1.161-2.941-.72-2.369-1.318-5.64-1.406-9.747l-15.647-5.877c.103 6.812.129 11.285-.215 14.248-.336 2.885-1.039 4.496-2.51 5.414Z" fill="#2851A3"/><path d="M104.172 189.676h-.034c-7.342 1.565-12.041 8.833-10.486 16.24 1.555 7.407 1.295 11.094 14.597 8.259l1.537 2.313h.017c13.301-2.834 12.574-8.538 10.381-15.771-2.47-8.068-8.671-12.606-16.012-11.041Z" fill="#EBEBEB" stroke="#2851A3" stroke-linejoin="round"/><path d="M120.182 200.717c1.503 4.086 2.712 8.955 2.54 13.006-.207 4.747-3.006 8.955-7.497 9.911-2.834.609-6.028-.174-8.931-1.339-1.554-.626-4.163-3.199-5.044-7.355" fill="#EBEBEB"/><path d="M122.222 213.701c.168-3.955-1.015-8.751-2.509-12.812l.938-.345c1.512 4.111 2.746 9.052 2.57 13.2-.213 4.911-3.121 9.362-7.891 10.379-2.982.64-6.292-.188-9.222-1.364h-.001c-.884-.357-1.991-1.226-2.983-2.513-1-1.296-1.906-3.047-2.363-5.203l.979-.207c.423 2 1.262 3.614 2.176 4.8.921 1.195 1.895 1.925 2.564 2.195 2.876 1.154 5.955 1.891 8.64 1.314h.001c4.211-.897 6.902-4.861 7.101-9.444" fill="#2851A3"/><path d="M91.232 207.379c-1.331-4.069-2.246-8.416.482-13.198 2.42-4.259 6.358-5.39 9.45-6.05 6.546-1.392 12.091 2.608 14.371 5.616 1.122 1.478.932 2.208.932 2.208-3.73.696-12.747 2.66-12.747 2.66s.554 3.739 0 5.008c-.535 1.27-2.897 2.782-2.897 2.782l-.323 2.096s-1.551-.144-2.5-1.5l3.5 8.5-.112 5.006c0-.018-7.807-5.964-10.156-13.128Z" fill="#2851A3"/><path d="M108.937 197.466c6.874-1.495 11.297-2.33 11.297-2.33s.258-2.886-2.522-5.077c-1.468-1.078-3.144-1.652-4.802-2.208 3.126-2.174.242-6.782-5.372-4.121-1.677.695-3.956 1.478-7.22 3.199-2.212 1.165-3.888 1.739-7.359 5.495" fill="#2851A3"/><path d="M102.231 214.981c-.899.278-2.608-.383-3.402-.73-.969-.435-1.935-1.461-2.454-2.661-.328-.765-1.156-3.738.899-4.382.828-.261 2.211.574 2.746 1.148" fill="#EBEBEB"/><path d="M98.54 207.92c-.494-.238-.894-.304-1.116-.235v.001c-.387.12-.618.339-.764.609-.154.284-.225.651-.23 1.063-.007.831.26 1.696.405 2.034.477 1.105 1.362 2.026 2.196 2.401.387.17.987.41 1.591.575.303.082.596.142.857.167.267.025.468.01.604-.032a.5.5 0 0 1 .296.955c-.313.097-.663.104-.994.073a6.261 6.261 0 0 1-1.025-.198 13.14 13.14 0 0 1-1.732-.624l-.004-.002c-1.102-.495-2.149-1.625-2.708-2.919v-.001c-.183-.426-.495-1.431-.485-2.438.005-.507.09-1.052.35-1.53a2.238 2.238 0 0 1 1.343-1.088c.607-.191 1.312.029 1.85.287.561.27 1.095.657 1.411.997a.5.5 0 1 1-.731.682c-.218-.234-.643-.551-1.113-.777Zm18.523-2.181a.5.5 0 0 1 .664.244l2.385 5.151a.598.598 0 0 1 .03.084.789.789 0 0 1-.093.6.796.796 0 0 1-.477.368.408.408 0 0 1-.098.015l-2.248.121a.5.5 0 0 1-.053-.999l1.878-.1-2.232-4.82a.5.5 0 0 1 .244-.664Zm1.024 147.605c-.291 9.799-.343 15.05-.343 15.05l-1.423 60.861c.291 25.03.858 83.208.858 83.208H96.903s-13.292-96.514-16.315-156.739c-.91-18.115 4.48-39.406 4.48-39.406h50.027l33.112 105.88c2.71 12.368 1.681 17.483-.103 21.916-3.223 8.025-34.307 64.415-34.307 64.415l-17.012-11.48s16.439-32.224 28.1-59.505c.874-2.047.892-2.819.069-4.888-10.908-24.622-21.447-49.257-27.192-64.262" fill="#2851A3"/><path d="M69.478 245.911c4.454-6.431 29.907-10.62 29.907-10.62 2.357 7.346 11.183 8.402 13.653 8.533 1.853.098 3.673-.278 5.299-1.211 1.625-.932 2.226-2.34 2.551-4.188l.52-4.751c8.195 1.617 17.499 2.745 22.318 5.236 4.729 2.438 13.774 8.59 13.774 8.59l-6.555 20.739L142.5 266l-8 50.279H85.631s-1.332-20.665-2.484-28.476l.723-9.217-21.36-2.021c1.612-12.008-.14-20.372 6.968-30.654Z" fill="#41CCB9"/><path d="M105.929 293.361a.5.5 0 0 1 .694-.135 114.202 114.202 0 0 0 19.517 10.572.5.5 0 1 1-.389.922 115.287 115.287 0 0 1-19.688-10.665.5.5 0 0 1-.134-.694Zm36.983-37.231a.5.5 0 0 1 .502.498l.036 9.779a.5.5 0 0 1-1 .004l-.036-9.779a.5.5 0 0 1 .498-.502Zm-59.461 14.117a.5.5 0 0 1 .438.555l-1.004 8.426a.5.5 0 1 1-.994-.119l1.005-8.425a.5.5 0 0 1 .555-.437Z" fill="#E0E0E0"/></g><path d="M214.915 328.997a.5.5 0 0 0-.5-.5H30.435a.5.5 0 1 0 0 1h183.98a.5.5 0 0 0 .5-.5ZM122.5 173a.5.5 0 0 1 .5-.5c10.217 0 18.5 8.283 18.5 18.5a.5.5 0 0 1-1 0c0-9.665-7.835-17.5-17.5-17.5a.5.5 0 0 1-.5-.5Zm0-13a.5.5 0 0 1 .5-.5c17.397 0 31.5 14.103 31.5 31.5a.5.5 0 0 1-1 0c0-16.845-13.655-30.5-30.5-30.5a.5.5 0 0 1-.5-.5Z" fill="#E0E0E0"/><path d="M271.958 270.919a6.375 6.375 0 0 0 5.1 7.438 6.383 6.383 0 0 0 7.449-5.092 6.376 6.376 0 0 0-5.1-7.438c-3.465-.647-6.8 1.632-7.449 5.092Z" fill="#41CCB9"/><path d="M227.5 272c0-5.799 4.701-10.5 10.5-10.5h41c5.799 0 10.5 4.701 10.5 10.5v1c0 5.799-4.701 10.5-10.5 10.5h-41c-5.799 0-10.5-4.701-10.5-10.5v-1Zm10.5-9.5a9.5 9.5 0 0 0-9.5 9.5v1a9.5 9.5 0 0 0 9.5 9.5h41a9.5 9.5 0 0 0 9.5-9.5v-1a9.5 9.5 0 0 0-9.5-9.5h-41Z" fill="#E0E0E0"/><g filter="url(#udnps7e0vu4e)"><path d="M315.807 313.4c6.422 0 11.628-5.198 11.628-11.61 0-6.412-5.206-11.61-11.628-11.61s-11.628 5.198-11.628 11.61c0 6.412 5.206 11.61 11.628 11.61Z" fill="#4C88FF"/></g><path d="M320.685 298.195v6.022h-7.584c-15.581 0-28.315 11.268-28.315 25.283a.5.5 0 0 0 .5.5h22.821a.5.5 0 0 0 0-1h-22.315c.299-13.129 12.358-23.783 27.309-23.783h8.084a.5.5 0 0 0 .5-.5v-6.522c0-13.357 12.175-24.283 27.315-24.283a.5.5 0 0 0 0-1c-15.581 0-28.315 11.268-28.315 25.283Z" fill="#E0E0E0"/><g filter="url(#ud4ayhen4ibf)"><path d="M17.142 220.825h18.29v8.032H20.055a2.923 2.923 0 0 1-2.913-2.909v-5.123Z" fill="#4C88FF"/></g><path d="M19.929 211.494a2.909 2.909 0 0 0-2.914 2.91v6.582h16.829a1.461 1.461 0 0 1 1.46 1.45v6.582h13.907a2.918 2.918 0 0 0 2.922-2.909v-11.705a2.911 2.911 0 0 0-2.922-2.91H19.93Z" fill="#4C88FF"/><path d="M.5 224.5A4.5 4.5 0 0 1 5 220h27c2.485 0 4.5 2.012 4.5 4.498V245.5a.5.5 0 0 1-.825.38l-6.86-5.88H5a4.5 4.5 0 0 1-4.5-4.5v-11Zm35 19.913v-19.915A3.498 3.498 0 0 0 32 221H5a3.5 3.5 0 0 0-3.5 3.5v11A3.5 3.5 0 0 0 5 239h24a.5.5 0 0 1 .325.12l6.175 5.293Z" fill="#E0E0E0"/><path d="M341.027 155.168h-31.353a4 4 0 0 0-4 4v34.191a4 4 0 0 0 4 4h31.353a4 4 0 0 0 4-4v-34.191a4 4 0 0 0-4-4Z" fill="#41CCB9"/><path d="M327.81 239.059h-4.255V259.1l-21.207-20.061h-78.479a6.547 6.547 0 0 1-4.628-1.914 6.53 6.53 0 0 1-1.917-4.622v-60.822a6.507 6.507 0 0 1 1.907-4.617 6.537 6.537 0 0 1 4.618-1.918H327.81a6.539 6.539 0 0 1 6.032 4.037c.327.792.495 1.641.494 2.498v60.803a6.534 6.534 0 0 1-4.018 6.068 6.567 6.567 0 0 1-2.508.507Z" fill="#373737"/><path d="M275.997 133.118c8.926 0 16.198 7.29 16.198 16.236v22.579h-32.396v-22.579c0-8.946 7.273-16.236 16.198-16.236Z" fill="#2851A3"/><path d="M260.035 183.062c9.351-1.752 7.934-7.669 7.934-16.426l14.97-2.319c0 14.153-.52 16.33 5.761 18.413l-.141 7.858-28.477-.663v-6.863h-.047Z" fill="#EBEBEB"/><path d="M283.439 163.733v.584c0 1.073-.003 2.075-.006 3.013-.006 2.163-.012 3.982.023 5.531.049 2.223.18 3.838.493 5.066.308 1.209.786 2.021 1.527 2.659.759.652 1.828 1.154 3.382 1.67l.349.115-.158 8.728-29.467-.685v-7.353h.407l-.046-.491c2.29-.429 3.869-1.104 4.966-1.974 1.088-.863 1.736-1.946 2.119-3.26.388-1.328.503-2.886.516-4.689.007-.899-.012-1.848-.032-2.852l-.002-.091c-.02-.975-.041-2-.041-3.068v-.428l15.97-2.475Zm-22.857 19.73v5.974l27.486.639.126-6.99c-1.418-.491-2.527-1.017-3.37-1.742-.928-.799-1.497-1.806-1.844-3.171-.343-1.346-.475-3.059-.524-5.29-.035-1.562-.029-3.401-.023-5.571.002-.762.005-1.565.006-2.412l-13.969 2.165c.004.904.022 1.777.04 2.622l.001.087c.021 1.002.04 1.966.033 2.88-.013 1.825-.128 3.497-.556 4.962-.431 1.479-1.182 2.751-2.458 3.763-1.185.941-2.793 1.633-4.948 2.084Z" fill="#2851A3"/><path d="M264.24 152.476c-.567-.757-1.606-.662-2.125-.189-.897.757-.756 1.941-.661 2.698.33 1.941 1.936 4.024 4.014 4.592" fill="#EBEBEB"/><path d="M276.187 137.518c7.036 0 12.703 5.68 12.703 12.639 0 6.958 0 12.638-12.703 12.638s-12.656-5.065-12.656-12.023c0-7.006 5.62-13.254 12.656-13.254Z" fill="#EBEBEB"/><path d="M287.757 152.476c.567-.757 1.606-.662 2.125-.189.897.757.756 1.941.661 2.698-.33 1.941-1.936 4.024-4.014 4.592" fill="#EBEBEB"/><path d="M287.756 152.476c0 4.071-.613 6.769-1.652 9.42-1.606 4.165-4.062 5.68-6.328 6.911-3.778 2.035-8.548 1.467-11.476-1.326-4.25-4.023-5.1-10.413-4.769-16.756" fill="#EBEBEB"/><path d="M263.031 150.699c-.332 6.369.505 12.96 4.925 17.145 3.095 2.951 8.102 3.534 12.057 1.403l.001-.001c1.141-.619 2.371-1.332 3.52-2.433 1.153-1.107 2.208-2.589 3.036-4.736 1.062-2.71 1.686-5.47 1.686-9.601h-1c0 4.01-.602 6.646-1.618 9.237l-.001.003c-.778 2.018-1.753 3.375-2.796 4.375-1.047 1.004-2.177 1.665-3.303 2.276-3.6 1.939-8.132 1.386-10.893-1.247l-.001-.002c-4.08-3.862-4.943-10.051-4.614-16.367l-.999-.052Z" fill="#2851A3"/><path d="M274.289 151.884a.5.5 0 0 0-.536.461l-.472 6.248a.5.5 0 1 0 .997.076l.472-6.248a.5.5 0 0 0-.461-.537Z" fill="#2851A3"/><path d="M275.288 137c7.273 0 13.223 5.964 13.223 13.254v.52h-7.461l-1.275-6.484-1.323 6.484h-16.434v-.52c.048-7.29 5.998-13.254 13.27-13.254Z" fill="#2851A3" stroke="#2851A3" stroke-linejoin="round"/><path d="m284.639 146.325 3.872-4.825v32.421h-3.872v-27.596Z" fill="#2851A3"/><path d="M288.677 141.028a.502.502 0 0 0-.556.159l-3.982 3.313c-.072.089 0 1.711 0 1.825v27.596a.5.5 0 0 0 .5.5h3.872a.5.5 0 0 0 .5-.5V141.5a.501.501 0 0 0-.334-.472Zm-.666 1.894v30.499h-2.872V146.5l2.872-3.578Z" fill="#2851A3"/><path d="m249.5 211.5-7-.5H240l-4 27.5h13l3-18-2.5-9Z" fill="#EBEBEB"/><path d="M240.19 210.795a.499.499 0 0 1 .427.563l-3.849 27.854a.502.502 0 0 1-.992-.136l3.85-27.854a.5.5 0 0 1 .564-.427Zm12.743-.136a.5.5 0 0 1 .427.563l-3.849 27.854a.5.5 0 0 1-.992-.136l3.85-27.854a.5.5 0 0 1 .564-.427Z" fill="#2851A3"/><path d="M287.126 180.026c6.233 0 11.381.284 13.459.616 7.414 1.325 10.767 7.289 11.475 9.656 1.795 5.87 1.889 9.041 2.928 15.999l-14.309 4.876-3.258-10.509L291.5 238.5h-34.83l-6.898-26.191-10.579-.994c.709-7.905 1.7-17.656 2.881-20.354 1.322-3.172 2.928-4.544 7.273-6.39 3.116-1.373 11.9-2.793 12.797-3.219 4.723 9.561 19.976 9.467 24.982-1.326Z" fill="#42BDEB"/><path d="M249.915 197.855a.5.5 0 0 1 .393.588c-.119.597-.25 1.192-.38 1.782v.003c-.13.592-.259 1.179-.376 1.765l-.001.004c-.285 1.382-.556 2.704-.556 4.017 0 .799.133 1.653.36 2.469l.002.008 3.966 15.194a.5.5 0 1 1-.967.253l-3.966-15.191a10.424 10.424 0 0 1-.395-2.733c0-1.424.292-2.839.572-4.195l.005-.023c.119-.596.249-1.191.379-1.78v-.003c.13-.592.259-1.179.376-1.766a.5.5 0 0 1 .588-.392Zm13.341 14.56a.5.5 0 0 1 .577-.408c5.284.906 10.423 2.481 15.322 4.626a.5.5 0 0 1-.401.916c-4.829-2.115-9.89-3.664-15.09-4.557a.5.5 0 0 1-.408-.577Z" fill="#E0E0E0"/><path d="M252.155 164.646a.5.5 0 1 1 0 1h-28.279a6.042 6.042 0 0 0-4.265 1.771 6.02 6.02 0 0 0-1.761 4.263.508.508 0 0 1-.025.158v60.665c0 1.601.637 3.136 1.77 4.268a6.052 6.052 0 0 0 4.275 1.768h78.479a.5.5 0 0 1 .344.137l20.363 19.262v-18.879a.5.5 0 0 1 .5-.5h4.253a6.04 6.04 0 0 0 6.028-6.072v-60.806a6.026 6.026 0 0 0-6.026-6.035h-10.668a.5.5 0 0 1 0-1h10.668a7.044 7.044 0 0 1 4.972 2.065 7.003 7.003 0 0 1 2.054 4.971v60.799l-.5.003h.5v-.002a7.042 7.042 0 0 1-.522 2.7 7.047 7.047 0 0 1-6.503 4.377h-3.756V259.1a.5.5 0 0 1-.844.363l-21.062-19.924h-78.28a7.05 7.05 0 0 1-4.981-2.06 7.03 7.03 0 0 1-2.064-4.976v-60.822c0-.057.009-.111.027-.162a7.017 7.017 0 0 1 4.332-6.335 7.048 7.048 0 0 1 2.654-.538h28.317Z" fill="#E0E0E0"/><path d="M314.5 206.5c.708 5.349 1.492 9.399 2.153 20.144.756 12.449-10.909 19.123-16.906 7.289-3.117-5.443-8.501-32.471-10.248-41.654-.425-2.272-1.086-4.45-1.889-6.627-1.275-3.55-.236-5.491-.094-9.893.047-1.657-.472-7.527.33-7.716 1.795-.663 1.842 8 1.842 8 3.4-6.532 3.967-11.313 4.297-17.94 0 0 0-2.083.614-2.083 1.086 0 .756 3.881.756 3.881.189-2.319 1.417-2.603 1.606-.662.188 2.367-.331 9.088-.331 9.088.236-1.846 1.133-5.538 1.606-6.201.425-.662.33 4.26.236 6.106-.236 3.172-.189 3.882-1.086 6.959l-3.023 11.076S299.08 201.575 303 210l11.5-3.5Z" fill="#EBEBEB"/><path d="M296.921 158.74a.5.5 0 0 0-.459.539c.091 1.143.011 3.38-.095 5.365a172.13 172.13 0 0 1-.158 2.562c-.015.23-.03.431-.042.595-.318 1.407-.636 2.731-1.274 3.881l-.002.006c-.302.56-.676 1.1-1.077 1.647-.131.178-.267.359-.404.542-.275.368-.557.744-.816 1.118-.783 1.128-1.468 2.378-1.494 3.879a.5.5 0 0 0 1 .018c.021-1.197.564-2.243 1.316-3.327.249-.36.511-.709.78-1.068.139-.187.281-.376.423-.57.41-.557.815-1.141 1.15-1.762.604-1.091.944-2.304 1.225-3.495a.5.5 0 0 0 .132-.279c.114-.896.393-2.26.703-3.485.072-.284.145-.558.217-.816l.002.155a71.497 71.497 0 0 1-.075 3.956c-.03.396-.055.752-.078 1.079-.16 2.291-.219 3.129-.99 5.771l-3.024 11.084a.507.507 0 0 0 .005.281l.058.187.169.537c.148.466.362 1.142.633 1.979.54 1.673 1.301 3.993 2.184 6.576 1.756 5.134 4.075 11.502 6.04 15.741l4.735 11.935a.5.5 0 1 0 .93-.368l-4.77-12.023-.005-.013a.75.75 0 0 0-.024-.06c-1.947-4.186-4.195-10.377-5.96-15.536a407.895 407.895 0 0 1-2.809-8.532l-.168-.535-.015-.046 2.983-10.932c.799-2.741.864-3.663 1.026-5.981l.077-1.075.001-.012a71.78 71.78 0 0 0 .077-4.026c-.008-.691-.034-1.326-.087-1.753-.023-.19-.061-.419-.143-.582a.654.654 0 0 0-.136-.183.547.547 0 0 0-.725-.021.704.704 0 0 0-.135.152c-.124.178-.246.458-.362.777.048-1.341.063-2.617-.001-3.423a.5.5 0 0 0-.538-.459Z" fill="#2851A3"/><path d="M287.532 175.259a.5.5 0 0 0-.516.484c-.045 1.403-.179 2.516-.301 3.541-.07.583-.137 1.137-.182 1.701-.122 1.531-.061 2.978.607 4.836l.001.004c.796 2.159 1.448 4.309 1.867 6.546v.001c.874 4.594 2.658 13.654 4.614 22.247.978 4.297 2 8.482 2.973 11.936.966 3.426 1.898 6.19 2.711 7.616 1.535 3.024 3.461 4.923 5.518 5.824 2.068.907 4.219.782 6.128-.151 3.8-1.857 6.586-6.863 6.2-13.231-.572-9.302-1.145-13.511-1.748-17.934-.094-.696-.19-1.397-.286-2.123a.5.5 0 1 0-.991.131c.049.373.136.788.221 1.197.082.391.162.777.209 1.116.601 4.416 1.027 8.409 1.597 17.675.369 6.081-2.299 10.637-5.641 12.271-1.662.812-3.505.915-5.287.134-1.791-.785-3.57-2.486-5.033-5.373l-.012-.022c-.744-1.299-1.651-3.95-2.623-7.401-.967-3.431-1.985-7.598-2.961-11.887-1.952-8.576-3.733-17.622-4.607-22.211-.431-2.307-1.101-4.511-1.91-6.705-.607-1.691-.664-2.989-.55-4.416.039-.49.101-1.014.169-1.582.126-1.06.27-2.275.316-3.708a.5.5 0 0 0-.483-.516Z" fill="#2851A3"/><path d="m292.276 153.96 8.207-.254-8.346 24.455-8.207.254 8.346-24.455Z" fill="#373737"/><path d="M300.885 153.409a.5.5 0 0 1 .072.458l-8.346 24.455a.503.503 0 0 1-.459.339l-8.207.254a.5.5 0 0 1-.488-.661l8.346-24.455a.5.5 0 0 1 .458-.338l8.207-.254c.164-.005.32.07.417.202Zm-8.247 1.04-8.001 23.444 7.139-.221 8.001-23.444-7.139.221Z" fill="#E0E0E0"/><defs><clipPath id="uduoff4ztqpa"><rect width="45.806" height="45.806" rx="22.903" transform="matrix(-1 0 0 1 144.806 47)" fill="#fff"/></clipPath><clipPath id="ud0sgpsgsqob"><rect x="226" y="47.001" width="45.806" height="45.806" rx="22.903" fill="#fff"/></clipPath><clipPath id="udfcl22gvy0c"><path fill="#fff" transform="matrix(-1 0 0 1 275.279 45.897)" d="M0 0h51.091v45.806H0z"/></clipPath><filter id="udnps7e0vu4e" x="299.179" y="285.18" width="33.255" height="33.22" filterUnits="userSpaceOnUse" color-interpolation-filters="sRGB"><feFlood flood-opacity="0" result="BackgroundImageFix"/><feBlend in="SourceGraphic" in2="BackgroundImageFix" result="shape"/><feGaussianBlur stdDeviation="2.5" result="effect1_foregroundBlur_14633_3760"/></filter><filter id="ud4ayhen4ibf" x="16.142" y="219.825" width="20.29" height="10.033" filterUnits="userSpaceOnUse" color-interpolation-filters="sRGB"><feFlood flood-opacity="0" result="BackgroundImageFix"/><feBlend in="SourceGraphic" in2="BackgroundImageFix" result="shape"/><feGaussianBlur stdDeviation=".5" result="effect1_foregroundBlur_14633_3760"/></filter></defs></svg>