<svg width="350" height="350" viewBox="0 0 350 350" fill="none" xmlns="http://www.w3.org/2000/svg"><path d="M118.516 60.969v16.54c-44.6 6.92-85.24 21.49-85.52 43.51v-16.54c.28-22.01 40.92-36.58 85.52-43.51Z" fill="#42BDEB"/><path d="M324.985 293.261c-9.042-39.273-311.826-94.276-311.826-147.064v-28.753c0 59.432 311.571 109.462 312.283 149.078l-.457 26.739Z" fill="#2851A3"/><path d="M43.515 74.342a.5.5 0 0 1 .205.404v21.616a.5.5 0 0 1-.304.46c-6.56 2.793-13.985 6.805-19.776 14.262-5.786 7.45-9.981 18.391-9.981 35.114a.5.5 0 0 1-1 0v-24.879C10.628 96.13 26.285 79.672 43.067 74.27a.5.5 0 0 1 .448.072Zm-29.856 58.599c1.592-9.799 4.96-17.023 9.191-22.47 5.853-7.536 13.318-11.623 19.87-14.44V75.439c-16.158 5.494-31.035 21.474-29.063 45.82a.51.51 0 0 1 .002.041v11.642Zm126.366-2.288c-.751-.793-1.437-1.517-2.307-1.992-.967-.527-2.117-.73-3.778-.546-1.074.099-1.942.491-2.762.947l-.015.008c-1.645.987-3.717 1.242-5.632.745-1.925-.575-4.02-.273-6.073 1.034l-.015.01a6.252 6.252 0 0 0-2.695 4.523l-.002.053v.24c-.073.663-.746 1.14-1.406.96-1.064-.29-2.125-.287-3.264-.003-3.138.762-5.433 3.616-5.341 6.872v.015c0 .337 0 .738.1 1.148.406 2.136-.251 4.365-1.741 6.023-1.153 1.241-2.283 2.81-2.077 4.559l.001.008a7.301 7.301 0 0 0 1.615 3.706l.007.008c.943 1.1 1.158 2.646.476 3.86l-.002.002c-.959 1.726-1.146 3.833-.293 5.921.867 2.21 2.879 3.736 5.166 4.117a.465.465 0 0 0 .083.007h.225c.9.155 1.558.912 1.491 1.856a.434.434 0 0 0-.002.036v.027c0 .601 0 1.278.195 1.963.763 3.039 3.52 5.332 6.684 5.332 1.422 0 2.667-.381 3.723-1.052 2.546-1.613 5.531-2.132 8.549-1.874l.009.001c1.35.09 2.798.091 4.253-.091.788-.079 1.505-.225 2.194-.376 1.38 2.018 3.839 3.307 6.481 3.035a6.651 6.651 0 0 0 4.882-2.872c.888-1.291 2.249-2.092 3.854-2.176.177-.001.324-.03.429-.052l.01-.002a1.29 1.29 0 0 1 .256-.034.512.512 0 0 0 .087-.008c3.259-.575 5.64-3.535 5.64-6.782v-.023c0-.334 0-.732-.098-1.139-.241-1.561.096-3.167 1.128-4.358a.514.514 0 0 0 .059-.085c.908-1.633 1.581-3.423 1.39-5.428l-.001-.003a5.98 5.98 0 0 0-.864-2.597c-1.097-1.945-1.5-4.108-.924-6.166a.222.222 0 0 0 .009-.037c.183-.914.287-1.97-.003-3.048-.582-2.871-3.062-5.05-5.914-5.43a.489.489 0 0 0-.066-.005h-.068c-.847-.075-1.424-.86-1.3-1.625.1-.508.097-1.094.003-1.667-.48-3.795-3.805-6.469-7.614-6.01h-.146a.46.46 0 0 0-.098.01c-1.609.322-3.204-.16-4.32-1.357l-.178-.188Z" fill="#2851A3"/><path d="M123.27 185.933c2.835-2.215 1.684-10.365 1.418-19.402l16.39 10.72c0 5.581.265 7.265 2.923 8.859 2.658 1.595 12.935 4.962 12.935 4.962l-23.566 23.92-22.326-23.655c.089 0 9.391-3.189 12.226-5.404Z" fill="#EBEBEB"/><path d="M124.444 166.095a.5.5 0 0 1 .518.017l16.389 10.72c.141.092.227.25.227.419 0 2.808.07 4.546.443 5.779.355 1.172.988 1.901 2.237 2.651 1.278.766 4.457 1.99 7.376 3.037a234.941 234.941 0 0 0 5.342 1.84l.115.038-.155.475.155-.475a.5.5 0 0 1 .201.826l-23.566 23.92a.503.503 0 0 1-.72-.007l-22.325-23.655a.5.5 0 0 1 .253-.831c.001 0 0 0 0 0l.077-.024c.07-.023.174-.057.307-.103a110.538 110.538 0 0 0 4.624-1.721 66.65 66.65 0 0 0 4.018-1.74c1.267-.608 2.339-1.204 3.003-1.722.578-.452 1-1.246 1.276-2.416.273-1.163.386-2.629.403-4.338.02-2.047-.097-4.378-.224-6.892a251.643 251.643 0 0 1-.23-5.348.5.5 0 0 1 .256-.45Zm31.572 25.198-.888-.299a231.345 231.345 0 0 1-3.832-1.335c-2.884-1.035-6.172-2.292-7.552-3.12-1.408-.845-2.237-1.755-2.68-3.219-.41-1.356-.482-3.172-.486-5.799l-15.359-10.045c.053 1.466.125 2.914.196 4.314.127 2.547.247 4.938.227 7.005-.017 1.734-.131 3.287-.43 4.557-.298 1.264-.795 2.319-1.634 2.975-.754.589-1.908 1.222-3.185 1.835a68.317 68.317 0 0 1-4.08 1.768 114.085 114.085 0 0 1-4.367 1.633l21.432 22.708 22.638-22.978Z" fill="#2851A3"/><path d="M133.725 144.912s-.089 0 0 0c-7.442 0-13.466 5.759-13.466 12.935s1.683 8.682 5.227 8.682l8.239 4.252c13.466 0 13.378-5.227 13.378-12.314 0-7.176-5.936-13.555-13.378-13.555Z" fill="#EBEBEB" stroke="#2851A3" stroke-miterlimit="10" stroke-linecap="round" stroke-linejoin="round"/><path d="M147.014 156.697c.62 4.341.798 9.391-.177 13.378-1.152 4.607-4.43 7.707-9.391 8.239-2.923.266-5.936-.797-8.062-2.746-2.126-1.949-4.341-4.519-4.607-8.948" fill="#EBEBEB"/><path d="M146.944 156.202a.5.5 0 0 1 .565.425c.624 4.367.81 9.49-.186 13.567l-.001.002c-1.2 4.799-4.642 8.06-9.823 8.615l-.008.001c-3.067.279-6.218-.834-8.445-2.876-2.168-1.988-4.491-4.67-4.768-9.286a.5.5 0 0 1 .998-.06c.255 4.242 2.362 6.699 4.446 8.609 2.025 1.856 4.897 2.869 7.675 2.618 4.739-.51 7.851-3.45 8.955-7.862.952-3.897.784-8.873.167-13.187a.5.5 0 0 1 .425-.566Z" fill="#2851A3"/><path d="M142.262 160.026a.5.5 0 0 1 .623.334l1.674 5.552a.774.774 0 0 1-.955 1.011l-1.133-.261a.5.5 0 0 1 .225-.975l.807.187-1.575-5.225a.5.5 0 0 1 .334-.623Zm-6.274 8.236a.5.5 0 0 1 .702-.087c.705.548 1.669.877 2.658.959a.5.5 0 0 1-.083.997c-1.138-.095-2.299-.475-3.189-1.167a.5.5 0 0 1-.088-.702Z" fill="#2851A3"/><path d="M125.574 166.533c-.975-.088-2.393-.354-3.278-.886-.975-.62-1.772-1.771-1.95-2.923-.088-.709 0-3.544 2.658-3.544 1.063 0 2.038.975 2.481 1.329" fill="#EBEBEB"/><path d="M120.842 162.655c-.036-.3-.033-1.084.263-1.771.145-.338.353-.634.644-.845.287-.209.685-.359 1.255-.359.385 0 .794.18 1.196.448.287.191.52.39.724.564.087.074.169.144.249.208a.5.5 0 0 0 .624-.781l-.174-.146a9.343 9.343 0 0 0-.869-.677c-.462-.309-1.072-.616-1.75-.616-.758 0-1.368.204-1.843.55-.47.342-.777.799-.975 1.259-.388.902-.387 1.883-.336 2.297l.002.014c.201 1.304 1.088 2.578 2.175 3.269l.011.007c.987.593 2.5.865 3.49.955a.5.5 0 1 0 .091-.996c-.957-.086-2.275-.344-3.061-.813-.857-.548-1.561-1.572-1.716-2.567Z" fill="#2851A3"/><path d="M148.874 152.798h-.089a3.808 3.808 0 0 0-.089-2.215c-.531-1.417-1.86-2.48-3.455-2.48-1.417 0-1.594-5.936-2.303-4.784-.886-1.064-2.658-1.507-4.164-1.507-1.772 0-3.898 0-4.784 1.418-.975-.975-3.278-1.24-4.873-1.063-1.772.266-4.075.266-4.518 1.949-.266.886-6.024-1.595-5.759-.797-.088 0-6.733 21.173-2.303 16.124 1.417-1.595 2.215-.798 2.392 1.417.089 1.949 4.784-.531 6.733-.443.975 0 2.481 2.126 3.898 0 1.683-2.658 6.202-3.455 7.531-3.101.443.089.797.178 1.24.178.974 0 1.949-.355 2.658-.886.354-.266.797-.443 1.329-.532 1.24-.354 2.569.354 2.923 1.595.532 1.594 1.949 2.658 3.633 2.569 2.037 0 3.72-1.683 3.72-3.81.089-1.86-1.594-3.632-3.72-3.632Z" fill="#2851A3"/><path d="M138.748 141.313h.026a8.06 8.06 0 0 1 2.47.379c.652.214 1.279.533 1.772.986a.617.617 0 0 1 .45.104.876.876 0 0 1 .265.311c.054.099.099.21.138.322.123.35.24.866.36 1.393l.082.358c.156.673.325 1.339.533 1.833.104.248.205.418.294.519a.34.34 0 0 0 .091.079l.012.006c1.828 0 3.328 1.217 3.924 2.805a4.303 4.303 0 0 1 .214 1.92c2.146.255 3.804 2.106 3.715 4.114-.006 2.385-1.896 4.291-4.207 4.298-1.923.095-3.526-1.128-4.12-2.911l-.005-.015-.002-.006c-.275-.965-1.32-1.532-2.305-1.251a.54.54 0 0 1-.055.012c-.47.078-.833.23-1.111.439a5.057 5.057 0 0 1-2.958.986c-.433 0-.801-.077-1.16-.151l-.178-.036-.031-.008c-.245-.065-.705-.088-1.32-.024-.602.063-1.31.205-2.03.438-1.457.471-2.878 1.285-3.629 2.472l-.007.01c-.397.596-.845.959-1.351 1.101-.502.14-.973.037-1.363-.116a6.998 6.998 0 0 1-.849-.429c-.061-.035-.118-.068-.172-.097-.317-.176-.484-.237-.579-.237h-.023c-.401-.019-.99.098-1.711.289-.322.086-.656.182-.997.28l-.095.027c-.371.106-.749.214-1.114.308-.712.182-1.444.329-2.022.278-.294-.026-.609-.109-.859-.32-.264-.224-.393-.536-.411-.887-.043-.527-.12-.945-.224-1.252-.108-.32-.223-.458-.293-.507-.035-.024-.088-.054-.238.009-.175.072-.43.257-.763.632-.289.329-.56.583-.814.743-.242.152-.577.284-.921.148-.34-.135-.49-.452-.561-.697a3.41 3.41 0 0 1-.1-.915c.001-1.342.434-3.571.992-5.895a136.897 136.897 0 0 1 1.833-6.752c.284-.956.534-1.767.717-2.339.091-.286.166-.515.22-.673l.054-.155a.57.57 0 0 1 .185-.398.72.72 0 0 1 .445-.179c.211-.017.479.027.732.08.453.095 1.051.267 1.658.44l.305.088c.725.206 1.434.4 1.975.49.242.04.421.054.538.049.336-.973 1.187-1.433 2.052-1.68.641-.183 1.391-.275 2.068-.358.266-.033.521-.064.753-.099l.019-.002c.844-.094 1.868-.07 2.815.105.727.134 1.461.368 2.031.748.545-.575 1.288-.869 2.041-1.023.914-.188 1.93-.188 2.799-.187Zm-14.473 2.482c.001 0-.003.002-.013.004a.093.093 0 0 1 .013-.004Zm11.875-1.316c-.801.165-1.397.474-1.736 1.016a.5.5 0 0 1-.778.089c-.379-.38-1.077-.666-1.941-.826a9.034 9.034 0 0 0-2.513-.095c-.29.043-.578.078-.861.113-.643.078-1.262.154-1.824.315-.788.225-1.26.566-1.415 1.152l-.004.017c-.129.431-.556.52-.763.541-.251.025-.55-.005-.848-.055-.605-.101-1.368-.311-2.084-.515l-.312-.089a25.75 25.75 0 0 0-1.583-.421 4.556 4.556 0 0 0-.249-.046l-.015.041c-.05.15-.123.371-.213.654-.181.566-.429 1.37-.712 2.32a137.22 137.22 0 0 0-1.818 6.701c-.561 2.338-.964 4.456-.965 5.663-.001.282.021.483.055.613.134-.086.329-.257.59-.554l.002-.003c.376-.422.751-.735 1.129-.892.404-.168.827-.159 1.191.094.328.228.535.605.671 1.008.139.414.227.924.273 1.5l.001.017c.006.133.044.166.058.178.031.026.114.071.303.088.388.034.968-.068 1.685-.251a38.64 38.64 0 0 0 1.087-.3l.096-.028c.339-.097.683-.196 1.015-.284.707-.188 1.431-.347 2.002-.323.389.004.77.206 1.051.362l.216.121c.239.135.457.258.687.349.285.112.517.142.727.084.206-.058.476-.225.786-.689.933-1.468 2.61-2.38 4.163-2.883a11.169 11.169 0 0 1 2.234-.481c.65-.068 1.246-.059 1.665.049l.184.037c.36.074.62.128.944.128.861 0 1.731-.317 2.358-.786.424-.319.937-.52 1.519-.621 1.485-.408 3.076.436 3.511 1.935.469 1.396 1.694 2.294 3.128 2.219l.027-.001c1.753 0 3.22-1.452 3.22-3.31l.001-.023c.074-1.553-1.357-3.109-3.221-3.109h-.089a.5.5 0 0 1-.485-.621 3.307 3.307 0 0 0-.075-1.927c-.47-1.242-1.626-2.147-2.984-2.147-.371 0-.654-.199-.851-.421-.194-.22-.345-.504-.468-.795-.246-.583-.431-1.329-.585-1.996-.032-.134-.061-.265-.09-.391-.11-.482-.203-.893-.297-1.182a.5.5 0 0 1-.396-.179c-.363-.435-.933-.771-1.622-.997a7.07 7.07 0 0 0-2.158-.329c-.897 0-1.819.001-2.624.166Zm-17.111 1.18Z" fill="#2851A3"/><path d="M113.262 250.458a.502.502 0 0 0-.459.3c-5.372 12.343-9.808 26.076-14.038 39.653a3616.53 3616.53 0 0 0-1.658 5.338c-3.641 11.743-7.198 23.215-11.155 33.434a.5.5 0 0 0 .466.68h31.432a.502.502 0 0 0 .741-.207l.268-.597.721-1.597c.602-1.331 1.418-3.13 2.276-5 1.214-2.647 2.501-5.416 3.382-7.215l.547 14.224a.501.501 0 0 0 .5.481h36.943a.5.5 0 0 0 .499-.467c.974-14.694 1.685-28.534 1.596-33.26-.001-10.802-4.768-22.209-9.496-30.877a123.013 123.013 0 0 0-6.514-10.602 103.106 103.106 0 0 0-2.148-3.016c-.259-.35-.464-.62-.603-.802l-.16-.208-.042-.053-.014-.017-.001-.002a.5.5 0 0 0-.392-.19h-32.691Z" fill="#42BDEB"/><path d="M142.709 258.315a.5.5 0 0 1 .675.211c2.956 5.653 9.249 11.604 15.981 14.751a.5.5 0 0 1-.424.906c-6.911-3.231-13.376-9.329-16.444-15.193a.5.5 0 0 1 .212-.675Zm-18.222 32.635a.5.5 0 0 1 .526.473l1.595 30.388a.5.5 0 0 1-.999.052l-1.595-30.388a.5.5 0 0 1 .473-.525Z" fill="#2851A3"/><path d="M167.746 325.29c-.266 1.594.177 4.466.177 4.466h2.746s0-3.58.355-5.441l.531 5.441h8.328s-2.569-11.465-3.189-16.249l1.24-52.802-3.544-40.398-16.744 2.48 7.176 38.273 4.961 52.713c-.088 4.695-1.329 6.733-2.037 11.517Z" fill="#EBEBEB"/><path d="M174.7 219.914a.498.498 0 0 1 .188.348l3.544 40.399a.506.506 0 0 1 .002.055l-1.24 52.764c.311 2.375 1.1 6.395 1.816 9.843.36 1.731.7 3.312.95 4.46l.3 1.363.082.371.029.129-.488.11.488-.11a.5.5 0 0 1-.488.61h-8.328a.5.5 0 0 1-.443-.268.497.497 0 0 1-.443.268h-2.746a.5.5 0 0 1-.494-.424l.494-.076-.494.076-.001-.003-.001-.007-.004-.025-.014-.097a29.446 29.446 0 0 1-.173-1.537c-.077-.918-.127-2.087.016-2.951.288-1.946.665-3.45 1.013-4.837.084-.337.167-.667.246-.995.403-1.668.726-3.306.772-5.589l-4.957-52.662-7.171-38.25a.498.498 0 0 1 .418-.587l16.744-2.48a.494.494 0 0 1 .383.102Zm-6.342 109.342h1.815l.002-.096c.005-.368.017-.878.039-1.447.044-1.128.134-2.521.318-3.492a.501.501 0 0 1 .989.045l.488 4.99h7.251l-.277-1.26c-.25-1.151-.591-2.735-.952-4.469-.719-3.462-1.52-7.542-1.833-9.956-.004-.026-.005-.051-.004-.076l1.239-52.774-3.495-39.842-15.705 2.326 7.081 37.762.006.045 4.961 52.713a.362.362 0 0 1 .002.057c-.045 2.397-.385 4.119-.8 5.833-.082.339-.167.677-.252 1.019-.347 1.383-.71 2.834-.991 4.729l-.001.009c-.122.73-.083 1.792-.006 2.706.038.45.084.852.121 1.141l.004.037Z" fill="#2851A3"/><path d="m168.101 264.161 1.506-3.19" stroke="#2851A3" stroke-miterlimit="10" stroke-linecap="round" stroke-linejoin="round"/><path d="M30.337 195.855c-1.595-.886-6.113-2.038-6.556-.621 3.278 1.772 8.86 5.493 13.555 6.468l3.189.177c4.695.177 10.188-.089 12.492 1.595 3.543 2.48 26.223 43.588 26.223 43.588 6.468 12.048 17.896 9.568 21.351 2.037 3.455-7.53 6.113-22.945 6.113-22.945l1.329-4.519-14.175-2.746-4.961 18.693s-24.895-31.716-28.793-37.563c-3.898-5.848-7.53-7.177-10.188-7.531-2.747-.354-9.657-1.506-10.366-.531-.886 1.328 4.164 2.126 5.848 2.303-1.24.886-4.253 1.595-6.822 1.595" fill="#EBEBEB"/><path d="M48.573 191.799c-1.33-.186-3.011-.422-4.556-.573-1.085-.105-2.126-.172-2.949-.147-.41.012-.786.047-1.095.119-.28.065-.625.187-.827.464l-.012.017c-.188.282-.245.608-.123.928.107.284.332.497.555.654.448.316 1.118.564 1.808.76.741.211 1.571.38 2.315.505-.395.137-.839.265-1.318.377-1.195.28-2.552.452-3.795.452a.5.5 0 1 0 0 1c1.327 0 2.76-.183 4.023-.479 1.249-.292 2.389-.709 3.09-1.209a.5.5 0 0 0-.239-.904c-.828-.087-2.48-.327-3.803-.704-.672-.191-1.203-.403-1.505-.616a.635.635 0 0 1-.192-.181l.002-.003a.84.84 0 0 1 .248-.087 4.86 4.86 0 0 1 .898-.094c.758-.022 1.749.039 2.823.144 1.521.148 3.162.378 4.485.564.546.076 1.038.145 1.445.198 1.27.169 2.77.57 4.424 1.63 1.658 1.063 3.494 2.803 5.413 5.682 1.962 2.942 9.175 12.352 15.88 21.003a3667.553 3667.553 0 0 0 11.858 15.217l.797 1.017.28.356v.002l.394-.309-.393.309a.5.5 0 0 0 .876-.181l4.842-18.241 13.176 2.553-1.173 3.99-.005.019c-.004.012-.006.025-.009.038h.004-.004l-.001.01-.006.033-.023.129-.09.5a188.84 188.84 0 0 1-1.635 7.95c-1.096 4.795-2.615 10.486-4.319 14.2-1.65 3.597-5.202 5.979-9.098 6.032-3.873.052-8.193-2.201-11.358-8.098l-.003-.005-.438.242.438-.242-.256-.463a1349.237 1349.237 0 0 0-3.345-6.002 1334.727 1334.727 0 0 0-8.187-14.407c-3.057-5.295-6.228-10.672-8.857-14.882-1.314-2.104-2.496-3.923-3.463-5.295a29.243 29.243 0 0 0-1.29-1.717c-.36-.438-.692-.789-.972-.987-.652-.475-1.498-.793-2.44-1.014-.948-.223-2.027-.356-3.163-.44-1.424-.105-2.984-.136-4.522-.166-.896-.018-1.785-.035-2.635-.068l-3.147-.174c-2.266-.477-4.77-1.617-7.14-2.879a106.38 106.38 0 0 1-3.389-1.903l-.436-.253c-.636-.369-1.237-.718-1.788-1.028.056-.015.12-.028.195-.039.436-.066 1.034-.036 1.705.071 1.342.215 2.812.71 3.546 1.118a.5.5 0 0 0 .486-.874c-.86-.478-2.448-1.003-3.874-1.231-.713-.114-1.428-.161-2.013-.073-.556.085-1.188.328-1.39.971a.5.5 0 0 0 .24.589c.698.377 1.502.844 2.389 1.359l.439.255c1.058.614 2.216 1.279 3.42 1.92 2.402 1.279 5.023 2.481 7.443 2.983a.46.46 0 0 0 .074.01l3.19.177.008.001c.892.033 1.8.051 2.705.069 1.513.029 3.017.059 4.42.162 1.111.082 2.132.21 3.008.416.88.207 1.583.486 2.083.851l.008.006c.161.113.42.373.78.807.349.424.766.981 1.242 1.657.952 1.35 2.123 3.15 3.433 5.249 2.62 4.195 5.784 9.56 8.84 14.852a1348.663 1348.663 0 0 1 10.797 19.085l.725 1.308.251.455.002.002.001.003c3.302 6.15 7.93 8.68 12.251 8.622 4.298-.059 8.189-2.682 9.994-6.615 1.751-3.817 3.288-9.599 4.385-14.394a191.05 191.05 0 0 0 1.644-7.994l.091-.504.023-.132.003-.017 1.321-4.491a.5.5 0 0 0-.385-.632l-14.175-2.746a.5.5 0 0 0-.578.363l-4.704 17.723-.458-.584a3712.485 3712.485 0 0 1-11.856-15.213c-6.718-8.669-13.9-18.041-15.837-20.946-1.979-2.969-3.908-4.817-5.705-5.968-1.801-1.155-3.447-1.596-4.833-1.781h-.002c-.39-.05-.87-.117-1.407-.193Z" fill="#2851A3"/><path d="M31.755 193.906c-2.215-4.341-5.493-6.024-4.784-3.898.532 1.683 6.024 10.277 8.416 11.163" fill="#EBEBEB"/><path d="M28.551 189.121a3.591 3.591 0 0 0-.792-.429c-.236-.085-.523-.144-.796-.061-.328.099-.52.363-.573.67-.047.267.007.565.105.862.155.485.628 1.384 1.249 2.43a56.792 56.792 0 0 0 2.329 3.583c.875 1.244 1.815 2.471 2.693 3.448.439.488.868.92 1.27 1.263.397.337.797.612 1.178.753a.5.5 0 1 0 .347-.938c-.218-.081-.513-.268-.877-.577a12.667 12.667 0 0 1-1.174-1.17c-.842-.936-1.757-2.128-2.62-3.354a56.197 56.197 0 0 1-2.286-3.518c-.632-1.064-1.044-1.868-1.156-2.225l-.003-.008a1.64 1.64 0 0 1-.06-.229 2.595 2.595 0 0 1 .598.322c.924.64 2.248 2.076 3.327 4.19a.5.5 0 0 0 .89-.454c-1.136-2.226-2.558-3.803-3.649-4.558Z" fill="#2851A3"/><path d="M38.487 201.791c-2.57-.532-5.227-3.632-6.202-6.379-.62-1.772-1.329-3.544-1.86-6.29 0 0-.443-2.215.797-1.329.443.355.797.798 1.063 1.329l1.329 3.101" fill="#EBEBEB"/><path d="M30.915 189.024v-.002l-.003-.015a3.196 3.196 0 0 1-.04-.274 2.793 2.793 0 0 1-.016-.558l.002-.024c.019.012.04.025.062.041.376.303.68.681.911 1.141l1.323 3.087a.5.5 0 0 0 .92-.394l-1.33-3.101a4.426 4.426 0 0 0-1.21-1.522l-.021-.017c-.332-.237-.788-.443-1.204-.183a.891.891 0 0 0-.349.436 1.62 1.62 0 0 0-.1.437c-.027.274-.006.564.018.771.012.106.026.198.037.263l.013.078.004.022.002.007v.001c.462 2.389 1.06 4.061 1.608 5.596.092.257.183.511.271.764v.002c.513 1.444 1.46 2.964 2.61 4.194 1.142 1.223 2.536 2.212 3.962 2.507a.5.5 0 0 0 .203-.98c-1.143-.236-2.363-1.063-3.435-2.21-1.065-1.14-1.934-2.543-2.396-3.845-.09-.258-.183-.516-.276-.775-.547-1.532-1.118-3.133-1.566-5.444v-.003Zm-.195-.94.01.002-.01-.002Zm.174-.084-.001.001V188Z" fill="#2851A3"/><path d="M48.764 198.515c-1.418-1.152-3.367-.798-5.05-.532-1.772.266-3.721.532-5.05-.709-.975-.885-1.329-2.303-1.95-3.543-.62-1.241-1.682-2.392-2.923-2.127l-.088.443c1.151 3.633 2.303 8.151 5.227 9.569" fill="#EBEBEB"/><path d="M35.803 191.716c.57.469 1.03 1.131 1.359 1.791.163.325.307.659.443.981l.061.146c.115.274.226.536.344.791.279.6.577 1.104.99 1.479l.005.005c.553.516 1.247.735 2.05.785.812.052 1.69-.071 2.583-.205l.167-.027c.787-.125 1.678-.267 2.546-.245.941.024 1.904.241 2.728.909a.5.5 0 0 1-.63.777c-.595-.483-1.315-.665-2.123-.686-.772-.019-1.578.108-2.385.236l-.15.024h-.003c-.878.132-1.86.275-2.797.215-.946-.059-1.89-.327-2.666-1.05-.56-.51-.925-1.157-1.222-1.796a25.27 25.27 0 0 1-.36-.827l-.06-.142c-.135-.32-.268-.628-.415-.923-.29-.581-.673-1.114-1.1-1.465-.31-.255-.622-.398-.934-.42l.267.856c.476 1.536.969 3.123 1.606 4.531.784 1.73 1.74 3.079 3.04 3.709a.5.5 0 0 1-.435.9c-1.624-.787-2.705-2.406-3.516-4.197-.666-1.47-1.18-3.132-1.658-4.67-.105-.34-.209-.675-.312-1a.5.5 0 0 1-.014-.249l.089-.443a.501.501 0 0 1 .386-.391c.815-.174 1.542.129 2.116.601Z" fill="#2851A3"/><path d="m90.934 239.619-2.126-2.746" stroke="#2851A3" stroke-miterlimit="10" stroke-linecap="round" stroke-linejoin="round"/><path d="M119.182 187.627a.498.498 0 0 0-.62-.207l-11.599 4.781c-6.011 2.28-10.29 7.74-11.118 14.111l-.056.255-.175.789a1114.906 1114.906 0 0 1-2.73 11.962c-1.475 6.29-3.161 13.178-4.246 16.646-3.33-4.589-8.203-11.077-12.333-16.534a2680.89 2680.89 0 0 0-7.297-9.598l-.623-.814a.497.497 0 0 0-.723-.075 312.52 312.52 0 0 1-3.936 3.317l-.002.001a308.006 308.006 0 0 0-3.947 3.326.502.502 0 0 0-.027.733c3.475 3.474 4.483 8.585 5.512 13.804l.143.723c1.067 5.379 2.283 10.819 6.722 13.964 1.019.733 2.18 1.268 3.29 1.78.15.068.298.137.445.205 1.262.587 2.439 1.18 3.395 2.053l.007.006c1.038.914 1.78 2.089 2.47 3.382.207.388.411.792.62 1.201.468.925.953 1.879 1.515 2.754l.003.004c2.092 3.185 4.915 5.31 8.818 4.739l.002-.001c3.09-.468 6.031-2.692 7.769-5.07 5.066-6.77 6.045-11.576 6.441-15.305.055-.521.099-1.015.141-1.485.233-2.602.402-4.482 2.015-6.252l3.623 17.443a.5.5 0 0 0 .49.398h32.691a.5.5 0 0 0 .478-.354l8.617-28.237c-.07 1.283-.131 2.769-.16 4.361-.088 4.896.129 10.86 1.396 14.931v.001c.572 1.823 1.804 4.316 3.09 6.921l.001.001c.341.69.686 1.388 1.023 2.083.812 1.675 1.589 3.346 2.189 4.892.602 1.552 1.014 2.945 1.118 4.071.346 3.887-.34 6.115-1.138 8.477l-.109.322c-.783 2.308-1.635 4.819-1.678 9.047v.005c0 .98.337 2.213.821 3.522.488 1.322 1.147 2.775 1.829 4.212.305.642.613 1.276.913 1.895l.001.002c.377.779.743 1.534 1.08 2.254.602 1.29 1.078 2.402 1.31 3.222.561 2.028.957 5.722 1.212 8.952a182.916 182.916 0 0 1 .343 5.437l.016.348.004.091.001.03a.5.5 0 0 0 .5.48h8.239a.5.5 0 0 0 .5-.48l2.037-48.726a.492.492 0 0 0-.002-.077l-5.936-52.093-.002-.013c-.496-3.566-1.675-6.667-3.623-9.154-1.951-2.49-4.653-4.339-8.152-5.429l-12.491-3.898a.5.5 0 0 0-.548.175l-16.472 21.733-13.087-22.04Z" fill="#4C88FF"/><path d="M156.759 215.611c-.975 2.746-3.101 10.277-4.075 13.023l4.075-13.023Z" fill="#4C88FF"/><path d="M108.486 211.825a.499.499 0 0 1 .144.692c-2.956 4.522-3.913 10.035-.903 14.135a15.53 15.53 0 0 0 .449.566c.12.148.245.301.365.456.274.354.544.742.744 1.191.071.147.144.401.217.679.081.307.176.707.281 1.17.211.929.463 2.132.724 3.412a592.298 592.298 0 0 1 1.386 7.083.501.501 0 0 1-.983.186c-.31-1.638-.863-4.514-1.383-7.069a167.24 167.24 0 0 0-.719-3.391 34.729 34.729 0 0 0-.273-1.137 7.948 7.948 0 0 0-.1-.354l-.035-.107-.015-.037-.01-.02c-.153-.346-.369-.663-.625-.994-.112-.145-.228-.287-.349-.436l-.053-.065a16.66 16.66 0 0 1-.422-.535l-.003-.004c-3.366-4.582-2.197-10.585.87-15.276a.501.501 0 0 1 .693-.145Z" fill="#2851A3"/><path d="M237.998 252.643c0 .177-1.949-3.278-3.012-5.227-.709-1.24-1.417-2.569-1.506-4.075l-37.475 18.25.531 7.531c16.833-2.747 31.717-7.265 41.462-16.479Z" fill="#EBEBEB" stroke="#2851A3" stroke-miterlimit="10" stroke-linecap="round" stroke-linejoin="round"/><path d="m248.276 238.57.011-.057-.011.057Zm53.317-128.805a.5.5 0 0 1 .765.026l5.493 6.999a.5.5 0 0 1 .049.542l-13.023 24.717-.002.003c-7.49 13.954-23.302 29.466-37.19 41.46a403.41 403.41 0 0 1-18.187 14.776 357.05 357.05 0 0 1-5.662 4.25c-.673.494-1.198.875-1.555 1.132l-.012.008c4.381 3.623 5.874 6.925 6.031 10.307.081 1.731-.19 3.456-.561 5.209-.145.686-.303 1.368-.463 2.057a76.053 76.053 0 0 0-.691 3.178l.218.274.986 1.229a533.084 533.084 0 0 0 3.255 4.005c2.535 3.085 5.538 6.658 7.473 8.686l.001.001.001.001h.001l.002.002h.001l.001.001.001.001h.001l.001.001.001.001.001.001.001.001h.001l.001.001.001.001.002.001.001.001.001.001h.001l.001.001.001.001h.001l.002.002.001.001.003.001.001.001.002.002h.001l.001.001.002.002h.001l.001.001.001.001.001.001.002.001h.001l.001.001.001.001.001.001.003.002.003.002.002.001.001.001.001.001.002.001.001.001.001.001h.001l.001.001.001.001.002.001.001.001.001.001h.001l.001.001.002.001.001.001.002.002.001.001.004.002.001.001.001.001h.001l.002.002h.001l.001.001.001.001.001.001.002.001.001.001.001.001h.001l.002.001.001.001.001.001.001.001.003.002.001.001.002.001.001.001.002.001.001.001.001.001.001.001h.001l.004.003.001.001.002.001.001.001h.001l.004.003.001.001.001.001.002.001.001.001.002.001.001.001.001.001.001.001h.001l.003.002.001.001.001.001.002.001.001.001.002.001.001.001.001.001.001.001.002.001.003.002.001.001h.001l.002.002.001.001.001.001h.001l.001.001.003.002h.001l.001.001.002.002.001.001h.001l.001.001.002.002h.001l.001.001.002.001.001.001.001.001.002.001.002.002h.001l.001.001.001.001.001.001h.001l.001.001.001.001h.001l.001.001.001.001h.001l.001.001h.001v.001l.001.001h.001l.001.001.001.001h.001l.001.001.001.001.001.001h.001l.003.002.001.001.001.001h.001v.001l.001.001h.001l.001.001h.001l.001.001.002.001.001.001.001.001.001.001h.001l.001.001.001.001.001.001h.001l.001.001.001.001h.001l.002.002h.001l.001.001.001.001h.001l.001.002c.063.054-.581.814-.581.814v-.001l-.001-.001h-.001l-.001-.001-.001-.001h-.001l-.001-.001-.001-.001h-.001l-.002-.002-.002-.001-.001-.001-.001-.001h-.001l-.001-.001-.002-.001-.001-.001-.001-.001-.001-.001-.002-.001-.001-.001h-.001l-.001-.001-.001-.001h-.001l-.002-.002-.001-.001h-.001l-.001-.001-.001-.001-.003-.002-.001-.001-.001-.001h-.001l-.001-.001h-.001l-.001-.001v-.001h-.001l-.002-.002h-.001l-.001-.001-.001-.001h-.001l-.002-.002-.001-.001h-.001l-.001-.001-.001-.001-.002-.001-.001-.001-.001-.001h-.001l-.001-.001-.001-.001h-.001l-.001-.001-.001-.001-.002-.001-.001-.001-.001-.001-.001-.001-.002-.001h-.001l-.001-.001-.001-.001-.001-.001h-.001l-.002-.002-.001-.001-.002-.001h-.001l-.001-.001-.001-.001-.001-.001-.001-.001h-.001l-.001-.001-.002-.001-.003-.003h-.001l-.001-.001-.002-.001-.001-.001-.001-.001-.001-.001-.002-.001-.003-.002-.001-.001-.001-.001-.001-.001h-.001l-.002-.001-.001-.001-.001-.001-.004-.003h-.001l-.002-.002-.002-.001-.001-.001-.001-.001-.001-.001h-.001l-.001-.001-.002-.001-.001-.001-.001-.001-.001-.001-.002-.001h-.001l-.001-.001-.001-.001-.001-.001-.001-.001-.002-.001-.001-.001-.001-.001h-.001l-.002-.001-.001-.001-.001-.001-.001-.001-.002-.001-.001-.001-.002-.001-.001-.001-.002-.001-.002-.002h-.001l-.001-.001-.002-.001-.001-.001-.001-.001-.001-.001-.001-.001h-.001l-.002-.001-.002-.002-.001-.001-.003-.002-.002-.001-.001-.001a4.98 4.98 0 0 0-.29-.035c-.27-.027-.677-.052-1.21-.044-1.066.016-2.639.165-4.628.707-3.975 1.084-9.637 3.739-16.269 10.061-10.895 11.293-19.286 15.217-25.011 16.283a18.91 18.91 0 0 1-3.553.336l-.435 32.822a.5.5 0 0 1-.975.151l-3.717-11.241c-.763-1.997-1.537-4.725-2.396-7.891-.201-.743-.407-1.511-.619-2.301l-.001-.002c-.696-2.589-1.453-5.411-2.309-8.35-2.234-7.675-5.122-16.11-9.254-23.188-1.288-2.214-2.608-4.345-3.887-6.411-2.298-3.711-4.467-7.214-6.088-10.613-2.54-5.326-3.809-10.53-2.212-16.143 1.335-4.741 5.585-8.814 10.681-12.399 4.002-2.817 8.602-5.383 12.867-7.762a429.322 429.322 0 0 0 3.441-1.932.517.517 0 0 1 .114-.047l21.705-6.024.005-.001a100.203 100.203 0 0 0 20.715-8.11c10.145-5.358 22.98-17.916 35.258-31.346 6.129-6.705 12.105-13.61 17.52-19.916l2.706-3.156c4.327-5.046 8.221-9.588 11.443-13.16Zm-53.881 128.733.564.072-.087.433.087-.433.203.026a.5.5 0 0 0-.192-.083h-.001l-.002-.001-.009-.002-.027-.005a6.246 6.246 0 0 0-.448-.058l-.147-.014.059.065Z" fill="#41CCB9"/><path d="M300.105 112.046s3.19-4.518 4.076-6.201c.177-.443-.709-10.189-.709-10.189s2.569-8.15 3.632-11.605c2.038 1.683.886 9.213 1.418 10.72 0 0 6.29-6.645 10.365-10.898 2.924-3.012 5.05-5.227 7.088-5.138 1.86.089 3.809 1.152 4.252 3.012.266 1.152-.088 2.304-.354 3.367-.886 3.1-3.101 8.15-4.43 10.985 2.392-1.949 4.253-3.455 4.873-3.19-2.747 3.367-21.085 21.706-22.149 24.364" fill="#EBEBEB"/><path d="m319.323 84.142-.075.077-.001.002a2194.648 2194.648 0 0 0-6.708 7.04l-2.608 2.749-1.046 1.104-.363-.344.363.344a.5.5 0 0 1-.835-.177c-.09-.257-.133-.599-.157-.958-.024-.37-.031-.808-.03-1.283 0-.353.005-.725.009-1.11.008-.67.016-1.38.006-2.102-.017-1.132-.08-2.243-.258-3.165a5.652 5.652 0 0 0-.336-1.155c-.536 1.728-1.273 4.082-1.917 6.135l-1 3.18-.388 1.232.029.32.098 1.111c.08.922.185 2.155.285 3.402.1 1.247.194 2.511.253 3.492.029.49.05.914.057 1.232.004.158.004.296.001.406a1.897 1.897 0 0 1-.011.158.782.782 0 0 1-.068.245c-.458.872-1.494 2.446-2.398 3.78-.456.672-.883 1.291-1.197 1.742l-.374.537-.104.147-.035.051h-.001l-.409-.288-.408-.288.036-.051.102-.145.372-.534c.312-.448.737-1.064 1.19-1.732.886-1.308 1.857-2.785 2.303-3.613a5.837 5.837 0 0 0 .001-.392 35.162 35.162 0 0 0-.055-1.195c-.058-.971-.152-2.227-.252-3.472a475.874 475.874 0 0 0-.284-3.395l-.098-1.109-.038-.418.498-.046-.477-.15.418-1.327.999-3.18c.776-2.47 1.683-5.37 2.214-7.095a.502.502 0 0 1 .797-.239c.652.539.988 1.478 1.179 2.464.195 1.01.259 2.192.276 3.34.011.733.002 1.472-.006 2.152-.005.382-.009.745-.009 1.077-.001.36.003.686.015.97l.327-.346 2.609-2.75a2307.49 2307.49 0 0 1 6.712-7.044l.003-.003.111-.114c1.407-1.45 2.659-2.741 3.811-3.66 1.175-.938 2.338-1.568 3.545-1.516h.003c1.983.095 4.2 1.236 4.715 3.396v.004c.27 1.167-.03 2.33-.277 3.29l-.079.31-.004.016c-.719 2.515-2.291 6.272-3.571 9.124a31.775 31.775 0 0 1 1.475-1.111c.429-.3.825-.544 1.166-.698a2.18 2.18 0 0 1 .519-.168c.169-.029.372-.032.57.052a.499.499 0 0 1 .19.776c-1.002 1.23-4.043 4.414-7.554 8.091-1.352 1.417-2.774 2.906-4.176 4.384-2.53 2.669-5.003 5.311-6.909 7.45a69.806 69.806 0 0 0-2.361 2.762 17.08 17.08 0 0 0-.73.969 3.449 3.449 0 0 0-.341.577.5.5 0 0 1-.929-.372c.088-.22.249-.485.446-.772.203-.294.464-.639.772-1.026a72.118 72.118 0 0 1 2.396-2.803c1.917-2.152 4.4-4.803 6.931-7.473 1.426-1.504 2.865-3.011 4.227-4.438 2.235-2.341 4.264-4.466 5.69-6.006a90.478 90.478 0 0 0-2.406 1.918.5.5 0 0 1-.769-.6c1.329-2.834 3.525-7.844 4.4-10.903l.074-.292c.253-.996.487-1.916.276-2.83-.372-1.56-2.052-2.544-3.788-2.627-.83-.036-1.748.396-2.877 1.297-1.101.88-2.315 2.13-3.752 3.61Zm-15.851 11.514-.477-.15a.5.5 0 0 0-.021.196l.498-.046Zm-3.367 16.39-.408-.288a.5.5 0 1 0 .817.576l-.409-.288Z" fill="#2851A3"/><path d="M326.827 78.618a.5.5 0 0 1 .058.705c-.974 1.152-2.481 2.924-3.986 4.695h-.001c-1.506 1.773-3.012 3.544-3.986 4.695a.5.5 0 0 1-.763-.645c.975-1.153 2.481-2.925 3.987-4.697 1.506-1.772 3.012-3.543 3.986-4.694a.5.5 0 0 1 .705-.06Zm2.427 2.619a.5.5 0 0 1 .153.69c-.943 1.482-2.262 3.248-3.578 4.984l-.558.735c-1.13 1.487-2.22 2.923-3.05 4.13a.5.5 0 1 1-.824-.567c.845-1.228 1.952-2.686 3.08-4.17l.555-.732c1.32-1.741 2.614-3.475 3.531-4.917a.501.501 0 0 1 .691-.153Z" fill="#2851A3"/><path d="M316.377 88.33a.5.5 0 0 1 .705-.057c1.767 1.501 3.622 3.004 5.484 4.51a.5.5 0 1 1-.629.777l-.004-.002c-1.858-1.505-3.722-3.014-5.499-4.523a.5.5 0 0 1-.057-.705Zm-7.994 5.428a.5.5 0 0 1 .618.343c.532 1.861.989 3.68 1.081 5.337a.499.499 0 1 1-.998.055c-.085-1.533-.513-3.258-1.045-5.117a.5.5 0 0 1 .344-.618Zm17.446 1.848a.5.5 0 0 1-.07.704l-1.945 1.591c-.654.56-1.409 1.034-2.18 1.324a75.167 75.167 0 0 1-6.329 2.139.5.5 0 0 1-.28-.96 74.477 74.477 0 0 0 6.248-2.112l.007-.002c.644-.242 1.303-.651 1.888-1.152l.008-.008 1.949-1.594a.5.5 0 0 1 .704.07ZM184.406 225.375a.5.5 0 0 1 .688.166c7.767 12.677 11.499 30.754 12.21 43.999a.5.5 0 0 1-.998.054c-.707-13.156-4.417-31.048-12.065-43.531a.501.501 0 0 1 .165-.688Zm41.602-25.317a.5.5 0 0 1 .703-.069c.854.701 1.945 1.407 3.111 2.16.495.32 1.003.649 1.512.989 1.67 1.117 3.339 2.358 4.329 3.772 1.908 2.727 2.837 5.128 2.837 8.526 0 2.487-.495 4.566-.882 6.189l-.007.029c-.196.823-.356 1.503-.423 2.075-.066.57-.027.953.103 1.22.048.085.213.314.509.694.293.375.687.863 1.157 1.434.94 1.141 2.175 2.603 3.486 4.124 2.627 3.048 5.536 6.309 6.979 7.708a.5.5 0 0 1-.696.718c-1.481-1.436-4.419-4.731-7.041-7.773a252.902 252.902 0 0 1-3.499-4.141 72.259 72.259 0 0 1-1.174-1.455c-.288-.369-.513-.671-.603-.837l-.004-.007-.004-.009c-.265-.53-.28-1.152-.206-1.791.074-.642.251-1.382.442-2.184l.003-.013c.387-1.627.86-3.612.86-5.981 0-3.157-.844-5.363-2.656-7.952-.871-1.244-2.391-2.395-4.066-3.515-.473-.316-.96-.631-1.443-.943-1.189-.769-2.359-1.525-3.258-2.264a.499.499 0 0 1-.069-.704Z" fill="#2851A3"/><path d="M233.481 243.961s10.543-7.796 15.061-5.139c4.607 2.747-10.542 13.732-10.542 13.732l-4.519-8.593Z" fill="#2851A3" stroke="#2851A3" stroke-miterlimit="10" stroke-linecap="round" stroke-linejoin="round"/><path d="M228.053 230.208a.5.5 0 0 1 .047.706c-1.237 1.414-2.452 2.85-3.671 4.29l-.001.002c-1.218 1.438-2.438 2.881-3.681 4.301a.5.5 0 0 1-.753-.658c1.237-1.414 2.453-2.851 3.672-4.291l.001-.001a339.689 339.689 0 0 1 3.681-4.302.499.499 0 0 1 .705-.047Zm51.57-78.2a.5.5 0 0 1-.168.687c-1.829 1.111-3.709 2.175-5.558 3.221-.667.378-1.329.753-1.984 1.127a.5.5 0 1 1-.496-.868c.663-.379 1.33-.757 1.999-1.135 1.845-1.045 3.705-2.098 5.52-3.2a.5.5 0 0 1 .687.168Zm-95.004 2.906c2.091-10.725 12.541-17.721 23.174-15.722l.004.001c10.625 2.089 17.582 10.728 18.122 23.06l.001.007.017.511c.482 2.747.984 5.447 1.903 8.021l.002.006c.521 1.519 1.216 2.977 1.927 4.465l.006.013c.705 1.475 1.424 2.981 1.965 4.559 1.079 3.147 1.571 6.855-.028 9.959a.5.5 0 0 1-.889-.458c1.413-2.742 1.018-6.123-.029-9.177-.52-1.518-1.216-2.976-1.927-4.465l-.006-.013c-.704-1.474-1.423-2.979-1.964-4.555-.042-.119-.084-.238-.124-.357.226 1.362.469 2.617.697 3.79.249 1.284.48 2.472.648 3.6.297 1.989.398 3.794.021 5.562-.379 1.776-1.232 3.479-2.783 5.281a.5.5 0 0 1-.456.168l-36.412-5.67a.501.501 0 0 1-.332-.207c-2.155-3.071-3.474-7.956-4.042-13.134-.569-5.192-.392-10.758.505-15.245Z" fill="#2851A3"/><path d="M190.158 176.807c-1.152 6.113-2.038 12.226-2.924 18.338h-.177c2.481 2.304 5.847 3.81 9.214 3.456 6.999-.798 10.631-5.405 11.783-8.328l1.24-11.163" fill="#EBEBEB"/><path d="M190.25 176.315a.5.5 0 0 1 .399.584c-1.141 6.059-2.022 12.121-2.902 18.194 2.363 2.051 5.436 3.329 8.469 3.01 6.732-.768 10.225-5.165 11.348-7.953l1.233-11.096a.5.5 0 0 1 .994.111l-1.24 11.163a.511.511 0 0 1-.032.128c-1.207 3.063-4.976 7.819-12.192 8.641h-.004c-3.547.374-7.05-1.212-9.606-3.586a.499.499 0 0 1 .073-.789c.869-5.994 1.745-12.001 2.877-18.008a.499.499 0 0 1 .583-.399Z" fill="#2851A3"/><path d="M189.628 159.621c-.531-.975-1.771-1.152-2.48-.709-1.152.709-1.329 2.126-1.329 3.012 0 2.304 1.329 5.139 3.632 6.202" fill="#EBEBEB"/><path d="M186.884 158.487c.934-.583 2.504-.352 3.183.894a.5.5 0 1 1-.878.479c-.383-.703-1.293-.827-1.776-.524l-.003.002c-.906.557-1.091 1.713-1.091 2.586 0 1.062.308 2.264.891 3.325.582 1.061 1.419 1.946 2.451 2.422a.5.5 0 0 1-.419.908c-1.272-.587-2.251-1.65-2.909-2.849-.658-1.198-1.014-2.565-1.014-3.806 0-.899.169-2.577 1.565-3.437Z" fill="#2851A3"/><path d="M206.904 144.913c8.239 1.595 13.554 9.48 12.048 17.542-1.594 8.15-2.835 14.706-17.63 11.871-14.795-2.835-13.643-8.682-12.048-16.832 1.506-8.151 9.479-14.175 17.63-12.581Z" fill="#EBEBEB" stroke="#2851A3" stroke-miterlimit="10" stroke-linecap="round" stroke-linejoin="round"/><path d="M218.065 164.759c.886-.709 2.038-.355 2.569.265.886 1.064.443 2.481.178 3.278-.798 2.215-3.19 4.253-5.67 4.43" fill="#EBEBEB"/><path d="M220.253 165.347c-.402-.466-1.251-.697-1.875-.198a.5.5 0 1 1-.625-.781c1.146-.917 2.599-.442 3.261.331l.005.005c.548.659.673 1.418.635 2.087-.037.661-.235 1.271-.368 1.67l-.004.011c-.434 1.206-1.292 2.342-2.361 3.199-1.07.858-2.382 1.463-3.744 1.56a.5.5 0 0 1-.071-.998c1.119-.079 2.243-.583 3.189-1.342.945-.757 1.68-1.745 2.044-2.752.133-.398.288-.893.317-1.404.028-.504-.068-.983-.403-1.388Z" fill="#2851A3"/><path d="M217.799 164.935c-1.771 5.847-2.923 7.707-4.784 10.542-2.746 4.43-6.024 5.759-8.947 6.645-4.873 1.506-10.277-.178-13.112-4.076-4.076-5.67-3.633-13.2-1.861-20.553" fill="#EBEBEB"/><path d="M189.212 157.007a.499.499 0 0 1 .369.603c-1.766 7.329-2.158 14.663 1.78 20.143 2.7 3.712 7.875 5.339 12.559 3.891l.002-.001c2.866-.868 6.012-2.145 8.668-6.429l.007-.011c1.838-2.8 2.968-4.618 4.724-10.413a.5.5 0 1 1 .957.29c-1.786 5.894-2.96 7.799-4.841 10.666-2.835 4.57-6.243 5.951-9.223 6.854-5.061 1.564-10.693-.176-13.663-4.259l-.001-.003c-4.212-5.859-3.719-13.585-1.941-20.962a.5.5 0 0 1 .603-.369Z" fill="#2851A3"/><path d="M201.457 161.26a.5.5 0 0 1 .351.614l-1.949 7.176a.5.5 0 1 1-.965-.262l1.949-7.176a.5.5 0 0 1 .614-.352Zm1.201 10.445a.5.5 0 0 1-.224.671c-1.163.581-2.507.77-3.838.579a.499.499 0 1 1 .141-.99c1.15.165 2.286-.002 3.25-.483a.5.5 0 0 1 .671.223Zm-15.38-15.989c1.645-8.686 10.145-14.537 18.924-12.801 8.781 1.648 14.533 10.24 12.889 19.01l-.002.01-.002.011-.798 3.455a.5.5 0 0 1-.982-.042l-.392-2.746-7.179-1.352a.499.499 0 0 1-.407-.491v-5.373l-2.051 4.944a.5.5 0 0 1-.557.3l-19.136-3.721a.5.5 0 0 1-.4-.562l.089-.62.004-.022Zm-1.615-2.258a.5.5 0 0 1 .377.598c-.755 3.335-.92 6.739-1.086 10.154a147.33 147.33 0 0 1-.232 4.037l-.001.009c-.223 2.413-.693 5.549-1.636 8.659-.941 3.104-2.365 6.218-4.518 8.555a.5.5 0 1 1-.735-.678c2.01-2.182 3.377-5.137 4.296-8.167.917-3.024 1.378-6.087 1.597-8.457.097-1.286.161-2.596.225-3.92.167-3.447.339-6.987 1.115-10.413a.5.5 0 0 1 .598-.377Z" fill="#2851A3"/><g filter="url(#ud5ufnjwp0ma)"><mask id="ud2cdh063lxb" style="mask-type:alpha" maskUnits="userSpaceOnUse" x="194" y="308" width="93" height="24"><path d="M233.482 330.713c0-.319.05-5.576.04-9.818-11.78 2.439-24.49 4.63-38.01 6.621-.05 1.424-.09 2.42-.11 2.908l38.08.289Zm48.03.04c1.53-.518 3.02-1.055 4.48-1.583-1.31-3.246-4.51-11.163-8.13-20.244-12.35 4.431-26.83 8.305-43.11 11.71a803.823 803.823 0 0 1 3.87 10.117h42.89Z" fill="#2851A3" stroke="#2851A3" stroke-linejoin="round"/></mask><g mask="url(#ud2cdh063lxb)"><path d="M288.16 303.322a.5.5 0 0 0-.619-.485l-92.894 22.768a.497.497 0 0 0-.357.334l-1.086 3.416a.496.496 0 0 0 .476.651h93.98a.5.5 0 0 0 .5-.5v-26.184Z" fill="#2851A3"/></g></g><path d="M12.337 289.221s0 11.727 30.862 19.604v16.437s-30.862-7.924-30.862-20.437v-15.604Z" fill="#2851A3"/><path d="M80.466 260.971c-40.987 5.347-68.076 18.492-68.076 28.366v15.705c0-9.595 24.983-25.357 68.076-29.813v-14.258Zm201.8-58.606s35.155 8.586 43.174 19.927v14.58s-26.488-16.605-43.174-19.035v-15.472Z" fill="#FAC823"/><path d="M237.393 251.932a.5.5 0 0 0-.486.017l-6.29 3.81c-8.45 5.11-17.792 8.717-27.56 10.476l-.023.005-6.56 1.5a.499.499 0 0 0-.388.495c.204 12.672-.866 41.332-1.376 55.008-.065 1.749-.121 3.253-.164 4.447a.498.498 0 0 0 .573.513 660.812 660.812 0 0 0 37.679-6.705.5.5 0 0 0 .398-.49c0-.6.139-1.491.286-2.394l.047-.289c.305.765.629 1.584.872 2.205a.5.5 0 0 0 .568.307c16.294-3.423 30.718-7.26 43.097-11.72a.503.503 0 0 0 .295-.655c-3.449-8.677-7.538-19.283-10.518-27.033-2.299-6.128-7.056-12.038-12.644-17.135-5.593-5.103-12.053-9.423-17.806-12.362Z" fill="#2851A3"/><path d="M225.064 297.359a.5.5 0 0 1 .645.29c1.544 4.059 4.062 9.737 6.611 15.433l.742 1.656c2.294 5.124 4.537 10.131 6.021 13.821a.5.5 0 1 1-.928.373c-1.476-3.67-3.71-8.659-6.007-13.788l-.741-1.654c-2.545-5.688-5.076-11.395-6.633-15.486a.5.5 0 0 1 .29-.645Zm8.282-43.494a.499.499 0 0 1 .661-.25c17.254 7.776 26.956 24.999 33.342 42.084 2.743 7.338 7.241 17.494 10.985 25.948 1.085 2.448 2.106 4.754 3.002 6.807a.5.5 0 1 1-.916.4c-.892-2.041-1.909-4.338-2.99-6.78-3.746-8.456-8.263-18.656-11.018-26.025-6.364-17.029-15.945-33.919-32.816-41.523a.499.499 0 0 1-.25-.661Z" fill="#EBEBEB"/><path d="M229.847 309.111a.5.5 0 0 1 .5.5c0 2.135-.133 5.95-.266 9.751v.012c-.133 3.814-.266 7.613-.266 9.728a.5.5 0 1 1-1 0c0-2.135.134-5.95.266-9.75l.001-.013c.133-3.814.265-7.612.265-9.728a.5.5 0 0 1 .5-.5Z" fill="#EBEBEB"/><path opacity=".5" d="M300.817 330c12.515-10.711 24.256-21.815 24.256-32.19l.164-26.311v-1.653s.078-.541-.359 1.173c-7.802 30.576-65.731 48.407-149.3 58.981h125.239Z" fill="#EBEBEB"/><path d="M320.235 309.468c-3.342 5.159-9.273 10.945-19.712 19.531H190.168c37.643-5.369 69.407-12.408 92.746-21.698 21.589-8.592 36.262-19.233 41.437-32.503v18.709c0 6.277-.792 10.832-4.116 15.961Zm-19.354 20.531c21.222-17.423 24.47-23.711 24.47-36.492v-27.749a28.888 28.888 0 0 1-1 5.879c-8.159 29.26-62.591 46.75-141.47 57.362-2.53.341-5.085.674-7.664 1h125.664Z" fill="#2851A3"/><path d="M252.703 31.702c-26.71-5.4-56.31-8.13-81.58-8.13v18.02c25.26 0 54.87 2.73 81.58 8.13v-18.02Zm13.35 3v18.02c14.56 3.6 27.78 8.08 38.29 13.41v-18.02c-10.51-5.34-23.73-9.81-38.29-13.41Z" fill="#FAC823"/><path d="M33.974 329.758a.5.5 0 0 1 .5-.5h282.21a.5.5 0 0 1 0 1H34.474a.5.5 0 0 1-.5-.5Z" fill="#E0E0E0"/><defs><filter id="ud5ufnjwp0ma" x="190.902" y="304.426" width="99.591" height="29.581" filterUnits="userSpaceOnUse" color-interpolation-filters="sRGB"><feFlood flood-opacity="0" result="BackgroundImageFix"/><feBlend in="SourceGraphic" in2="BackgroundImageFix" result="shape"/><feGaussianBlur stdDeviation="2" result="effect1_foregroundBlur"/></filter></defs></svg>