<svg width="372" height="230" viewBox="0 0 372 230" fill="none" xmlns="http://www.w3.org/2000/svg"><path d="M27.552 164.706a.5.5 0 0 1 .5-.5H171.1a.5.5 0 0 1 0 1H28.052a.5.5 0 0 1-.5-.5Zm0 17.784a.5.5 0 0 1 .5-.5h99.835a.5.5 0 0 1 0 1H28.052a.5.5 0 0 1-.5-.5Z" fill="#E0E0E0"/><path d="M135.337 62.004a4 4 0 0 1 4-4h197.63a4 4 0 0 1 4 4v67.581a4 4 0 0 1-4 4h-197.63a4 4 0 0 1-4-4V62.004Z" fill="#fff" fill-opacity=".3"/><mask id="udym4kqnkria" style="mask-type:alpha" maskUnits="userSpaceOnUse" x="159" y="46" width="182" height="169"><path d="M159.178 46.666h181.789V214.13H159.178V46.666Z" fill="#C4C4C4"/></mask><g mask="url(#udym4kqnkria)"><path d="m292.991 186.619-35.881.041a1025.76 1025.76 0 0 0-11.53 27.427l63.278.017c-6.115-15.223-15.867-27.485-15.867-27.485Z" fill="#2851A3"/><path d="m293.383 186.308-.392.311.392-.311v.001l.008.009.021.027.085.108a71.406 71.406 0 0 1 1.518 2.026c1.014 1.393 2.43 3.41 4.037 5.903 3.213 4.984 7.197 11.885 10.27 19.536a.499.499 0 0 1-.464.686l-63.278-.017a.499.499 0 0 1-.463-.687c3.92-9.702 7.829-18.992 11.535-27.441a.5.5 0 0 1 .457-.299l35.882-.041a.5.5 0 0 1 .392.189Zm-.635.811-35.311.041a1025.736 1025.736 0 0 0-11.115 26.427l61.793.017c-3.001-7.299-6.808-13.878-9.904-18.68-1.595-2.475-3-4.476-4.005-5.857a88.655 88.655 0 0 0-1.181-1.588l-.277-.36Z" fill="#2851A3"/><path d="m324.1 154.256 3.869 44.041-.365 15.703h-12.532l-1.454-15.296-7.897-41.728 18.379-2.72Z" fill="#EBEBEB"/><path d="M324.41 153.863a.502.502 0 0 1 .188.349l3.869 44.041a.505.505 0 0 1 .001.055l-.364 15.704a.499.499 0 0 1-.5.488h-12.532a.5.5 0 0 1-.497-.452l-1.453-15.273-7.893-41.706a.501.501 0 0 1 .419-.588l18.379-2.72a.502.502 0 0 1 .383.102Zm-18.101 3.531 7.8 41.217a.387.387 0 0 1 .006.046l1.412 14.843h11.589l.352-15.187-3.82-43.485-17.339 2.566Z" fill="#2851A3"/><path d="M319.185 198.32a.5.5 0 0 1 .226.67l-1.713 3.454a.501.501 0 0 1-.896-.444l1.713-3.454a.5.5 0 0 1 .67-.226Z" fill="#2851A3"/><path d="M179.876 118.016c-2.042-2.035-3.654-3.663-4.307-3.477 2.233 3.427 17.79 22.569 18.548 25.13l25.632 44.009c7.093 13.15 19.608 10.462 23.408 2.244 3.796-8.214 6.755-24.971 6.755-24.971l1.453-4.95-17.644-3.142-3.517 19.65-27.888-36.874s-2.563-4.537-3.207-6.287c-.164-.44 1.69-9.56 1.69-9.56s-1.649-7.978-2.252-11.323c-2.096 1.419-1.795 8.549-2.416 9.927 0 0-5.321-6.903-8.765-11.278-2.498-3.168-4.238-5.403-6.229-5.543-1.773-.127-3.746.734-4.349 2.393-.37 1.025-.173 2.153.028 3.223.562 2.992 2.092 7.955 3.06 10.829Z" fill="#EBEBEB"/><path d="M176.318 103.793c.706-1.942 2.948-2.858 4.854-2.721 1.176.083 2.217.78 3.239 1.777.997.973 2.048 2.307 3.248 3.828l.1.128c1.723 2.188 3.916 5.009 5.677 7.282a3979.514 3979.514 0 0 1 2.444 3.16c.034-.249.067-.531.099-.84.029-.286.059-.596.09-.922.063-.661.132-1.385.221-2.103.133-1.074.316-2.177.605-3.109.283-.911.699-1.766 1.372-2.222a.502.502 0 0 1 .772.325c.301 1.667.863 4.493 1.35 6.906.244 1.206.469 2.307.633 3.107l.195.949.072.348-.49.102.49.1-.079.391-.208 1.038a389.47 389.47 0 0 0-.618 3.179 141.927 141.927 0 0 0-.587 3.254c-.075.456-.132.84-.166 1.12a5.236 5.236 0 0 0-.031.323l-.001.037c.321.848 1.087 2.351 1.796 3.682.359.674.698 1.293.948 1.744.124.226.227.409.298.536l.081.146.013.022 27.178 35.936 3.316-18.525a.5.5 0 0 1 .58-.404l17.643 3.141a.501.501 0 0 1 .393.633l-1.445 4.924-.004.022-.026.143c-.023.125-.056.31-.101.548a206.846 206.846 0 0 1-1.824 8.691c-1.214 5.217-2.913 11.504-4.834 15.662-1.978 4.277-6.227 7.123-10.917 7.181-4.712.059-9.766-2.692-13.381-9.39l-25.628-44.002a.479.479 0 0 1-.047-.109 3.25 3.25 0 0 0-.267-.566 17.024 17.024 0 0 0-.597-.979 69.36 69.36 0 0 0-1.966-2.829c-1.595-2.202-3.677-4.937-5.808-7.703-1.1-1.428-2.215-2.867-3.283-4.245-3.056-3.943-5.729-7.391-6.567-8.677a.499.499 0 0 1 .282-.754c.2-.057.396-.034.559.012.166.046.33.123.489.214.316.182.671.456 1.048.782.372.32.785.708 1.229 1.139-.907-2.844-1.979-6.51-2.433-8.926-.196-1.047-.43-2.312-.006-3.485v-.001Zm73.594 57.157-.492-.087.003-.017.01-.037 1.295-4.414-16.603-2.956-3.429 19.158a.498.498 0 0 1-.891.214l-27.888-36.875a.417.417 0 0 1-.037-.056l-.029-.052-.083-.148a117.846 117.846 0 0 1-1.255-2.298c-.718-1.345-1.537-2.949-1.873-3.862l.469-.172-.468.175-.001-.003c-.034-.091-.038-.18-.04-.217a1.712 1.712 0 0 1 .002-.16c.005-.108.018-.242.036-.392.036-.302.097-.703.173-1.164.151-.923.369-2.109.59-3.277a363.617 363.617 0 0 1 .829-4.228l.059-.293-.052-.25-.195-.949c-.164-.801-.389-1.903-.633-3.11a536.163 536.163 0 0 1-1.162-5.892 5.579 5.579 0 0 0-.397.981c-.263.847-.437 1.879-.568 2.936-.087.705-.153 1.401-.215 2.054-.032.33-.062.649-.094.952a20.07 20.07 0 0 1-.152 1.2c-.057.335-.128.651-.234.886a.499.499 0 0 1-.852.1l-.001-.001-.234-.304-.65-.842a2371.63 2371.63 0 0 0-2.205-2.85 1303.573 1303.573 0 0 0-5.671-7.276l-.069-.087c-1.226-1.556-2.243-2.845-3.193-3.772-.971-.948-1.795-1.438-2.611-1.496-1.637-.117-3.342.69-3.843 2.065-.316.876-.156 1.868.049 2.96.555 2.955 2.075 7.889 3.043 10.762a.5.5 0 0 1-.827.514l-.132-.132a90.984 90.984 0 0 0-1.831-1.794 623.498 623.498 0 0 0 4.905 6.378c1.078 1.39 2.207 2.848 3.327 4.301 2.132 2.768 4.221 5.513 5.826 7.727a71.456 71.456 0 0 1 1.996 2.872c.254.393.468.742.632 1.038.144.26.262.502.331.705l25.604 43.961.008.014c3.478 6.448 8.226 8.925 12.493 8.872 4.29-.053 8.199-2.66 10.021-6.6 1.874-4.056 3.554-10.254 4.768-15.47a207.37 207.37 0 0 0 1.915-9.191l.026-.14.008-.048.492.087Zm-50.334-31.778v.003-.003Zm1.221-9.384.49.1a.509.509 0 0 0 0-.202l-.49.102Z" fill="#2851A3"/><path d="M187.245 111.47c-1.653-2.407-5.001-7.271-6.65-9.673l6.65 9.673Z" fill="#fff"/><path d="M180.312 101.385a.499.499 0 0 1 .695.129l3.818 5.554c1.078 1.567 2.115 3.074 2.832 4.119a.499.499 0 1 1-.824.566l-2.831-4.117c-1.407-2.046-2.886-4.196-3.819-5.556a.499.499 0 0 1 .129-.695Z" fill="#2851A3"/><path d="M183.837 114.054c-1.599-2.888-4.38-7.067-5.846-10.027l5.846 10.027Z" fill="#fff"/><path d="M177.769 103.579a.5.5 0 0 1 .67.227c.722 1.457 1.773 3.225 2.853 5.002l.587.966c.878 1.44 1.736 2.848 2.395 4.038a.499.499 0 1 1-.874.484c-.648-1.17-1.492-2.554-2.37-3.994l-.593-.975c-1.077-1.773-2.15-3.576-2.894-5.078a.5.5 0 0 1 .226-.67Z" fill="#2851A3"/><path d="M188.928 111.893a142.582 142.582 0 0 1-5.659 3.707l5.659-3.707Z" fill="#fff"/><path d="M189.34 111.609a.5.5 0 0 1-.128.695 142.498 142.498 0 0 1-5.679 3.721.5.5 0 1 1-.528-.849 141.6 141.6 0 0 0 5.639-3.695.5.5 0 0 1 .696.128Z" fill="#2851A3"/><path d="M196.156 118.015c-.735 1.695-1.32 3.309-1.548 4.786l1.548-4.786Z" fill="#fff"/><path d="M196.355 117.556a.5.5 0 0 1 .26.658c-.731 1.685-1.295 3.251-1.513 4.664a.5.5 0 1 1-.988-.153c.238-1.542.844-3.204 1.583-4.909a.5.5 0 0 1 .658-.26Z" fill="#2851A3"/><path d="M189.161 123.609c-1.941-.821-3.887-1.646-5.769-2.598-.676-.344-1.283-.815-1.827-1.341l-1.685-1.659" fill="#fff"/><path d="M179.524 117.66a.5.5 0 0 0 .005.707l1.685 1.659.004.003c.568.55 1.216 1.055 1.947 1.428l.002.001c1.899.96 3.86 1.792 5.799 2.611a.5.5 0 1 0 .389-.921c-1.943-.821-3.873-1.64-5.736-2.582-.62-.316-1.187-.754-1.705-1.254l-1.683-1.658a.5.5 0 0 0-.707.006Zm50.373 54.453a.5.5 0 0 1 .701.09l2.362 3.055a.502.502 0 0 1-.09.702.502.502 0 0 1-.702-.09l-2.361-3.055a.5.5 0 0 1 .09-.702ZM277.87 58.522c-11.54 0-20.977 9.37-20.977 20.818v28.95h41.96V79.34c0-11.449-9.442-20.819-20.983-20.819Z" fill="#2851A3"/><path d="M256.393 79.34c0-11.728 9.664-21.319 21.477-21.319 11.814 0 21.483 9.59 21.483 21.319v28.95a.5.5 0 0 1-.5.5h-41.96a.5.5 0 0 1-.5-.5V79.34Zm21.477-20.32c-11.268 0-20.477 9.15-20.477 20.319v28.45h40.96V79.34c0-11.169-9.214-20.319-20.483-20.319Z" fill="#2851A3"/><path d="M298.542 118.626c-12.114-2.25-10.253-6.859-10.253-18.051l-19.36-5.978c0 18.141.665 20.909-7.433 23.616l.187 10.064 36.859-.84v-8.811Z" fill="#EBEBEB"/><path d="M268.632 94.194a.502.502 0 0 1 .445-.075l19.359 5.978a.5.5 0 0 1 .353.478c0 1.405-.029 2.707-.057 3.908v.029c-.027 1.192-.052 2.281-.045 3.285.015 2.031.162 3.653.655 4.983.952 2.571 3.273 4.237 9.291 5.354a.5.5 0 0 1 .409.492v8.811a.5.5 0 0 1-.489.5l-36.858.84a.501.501 0 0 1-.512-.49l-.187-10.065a.5.5 0 0 1 .341-.483c2.009-.672 3.41-1.328 4.411-2.187.983-.844 1.614-1.913 2.017-3.484.408-1.589.577-3.671.642-6.52.045-1.992.038-4.334.029-7.119-.003-1.194-.007-2.469-.007-3.832 0-.16.076-.308.203-.403Zm.798 1.08c.001 1.102.004 2.147.006 3.137.009 2.792.016 5.155-.03 7.16-.064 2.857-.234 5.037-.673 6.746-.443 1.727-1.165 2.991-2.334 3.994-1.086.932-2.527 1.612-4.397 2.258l.172 9.197 35.868-.818v-7.909c-5.814-1.134-8.518-2.888-9.638-5.912-.557-1.502-.702-3.271-.717-5.323-.007-1.018.018-2.12.045-3.305l.001-.039c.025-1.095.051-2.264.055-3.516l-18.358-5.67Z" fill="#2851A3"/><path d="M293.102 83.34c.756-.966 2.104-.82 2.774-.267 1.141.951.999 2.511.826 3.472-.451 2.481-2.505 5.163-5.192 5.873" fill="#EBEBEB"/><path d="M294.536 83.136a1.328 1.328 0 0 0-1.04.512.5.5 0 0 1-.788-.616 2.327 2.327 0 0 1 1.799-.895c.627-.019 1.252.19 1.687.55l.002.002c.692.577.984 1.334 1.081 2.05.096.706.007 1.397-.083 1.895-.48 2.638-2.649 5.5-5.556 6.267a.501.501 0 0 1-.256-.966c2.468-.652 4.405-3.154 4.828-5.479.083-.463.151-1.032.076-1.583-.074-.543-.282-1.041-.73-1.415-.234-.193-.617-.333-1.02-.322Z" fill="#2851A3"/><path d="M277.64 64.151h-.03c-9.082 0-16.439 7.257-16.439 16.204 0 8.947 0 16.204 16.439 16.204h.03c16.439 0 16.363-6.482 16.363-15.429 0-8.952-7.282-16.979-16.363-16.979Z" fill="#EBEBEB"/><path fill-rule="evenodd" clip-rule="evenodd" d="M260.671 80.355c0-9.23 7.588-16.704 16.939-16.704h.03c9.383 0 16.863 8.277 16.863 17.48v.141c0 2.175 0 4.245-.25 6.11-.255 1.912-.778 3.653-1.866 5.116-2.187 2.943-6.5 4.56-14.747 4.56h-.03c-8.265 0-12.594-1.819-14.794-4.959-1.091-1.556-1.622-3.39-1.884-5.372-.261-1.971-.261-4.13-.261-6.35v-.022Zm16.939-15.704c-8.813 0-15.939 7.04-15.939 15.704 0 2.245 0 4.341.252 6.24.251 1.896.748 3.554 1.712 4.93 1.909 2.725 5.8 4.534 13.975 4.534h.03c8.191 0 12.06-1.623 13.945-4.158.948-1.276 1.434-2.832 1.677-4.652.241-1.798.241-3.81.241-6.016v-.103c0-8.703-7.084-16.479-15.863-16.479h-.03Z" fill="#2851A3"/><path d="M262.647 83.34c-.756-.966-2.105-.82-2.774-.267-1.141.951-.999 2.511-.827 3.472.452 2.481 2.505 5.163 5.193 5.873" fill="#EBEBEB"/><path d="M261.242 82.137c.64.019 1.315.277 1.798.895a.5.5 0 1 1-.787.616 1.33 1.33 0 0 0-1.04-.512c-.403-.011-.787.129-1.021.322-.448.374-.655.872-.729 1.415-.075.551-.008 1.12.076 1.584.423 2.324 2.36 4.826 4.827 5.478a.5.5 0 1 1-.255.966c-2.907-.767-5.077-3.63-5.556-6.266l-.001-.001c-.089-.498-.178-1.19-.082-1.896.097-.715.389-1.472 1.081-2.049l.001-.001c.436-.36 1.061-.57 1.688-.551Z" fill="#2851A3"/><path d="M262.646 83.34c0 5.243.796 8.69 2.12 12.092 2.058 5.314 5.233 7.301 8.173 8.871 4.899 2.617 11.075 1.908 14.873-1.68 5.486-5.178 6.602-13.326 6.191-21.498" fill="#EBEBEB"/><path d="M293.978 80.626a.5.5 0 0 1 .524.474c.412 8.2-.691 16.548-6.347 21.886-3.966 3.747-10.378 4.469-15.451 1.758-2.989-1.595-6.284-3.658-8.405-9.132-1.345-3.459-2.153-6.968-2.153-12.273a.5.5 0 0 1 1 0c0 5.182.785 8.567 2.086 11.911v.001c1.997 5.154 5.05 7.067 7.943 8.611 4.723 2.524 10.663 1.826 14.293-1.603 5.317-5.018 6.445-12.965 6.035-21.109a.501.501 0 0 1 .475-.524Zm-15.173-17.903c-9.416 0-17.123 7.644-17.123 16.993v.645h9.639l1.638-8.339 1.693 8.339h21.277v-.645c0-9.35-7.708-16.993-17.124-16.993Z" fill="#2851A3"/><path d="M261.182 79.716c0-9.63 7.935-17.493 17.623-17.493 9.689 0 17.624 7.864 17.624 17.493v.645a.5.5 0 0 1-.5.5h-21.277a.501.501 0 0 1-.49-.4l-1.195-5.886-1.155 5.882a.5.5 0 0 1-.491.404h-9.639a.5.5 0 0 1-.5-.5v-.645Zm17.623-16.493c-9.143 0-16.623 7.423-16.623 16.493v.145h8.728l1.558-7.935a.5.5 0 0 1 .981-.003l1.612 7.938h20.368v-.145c0-9.07-7.48-16.493-16.624-16.493Z" fill="#2851A3"/><path d="M266.692 75.469h-5.01v35.391h5.01V75.469Z" fill="#2851A3"/><path d="M261.182 75.469a.5.5 0 0 1 .5-.5h5.01a.5.5 0 0 1 .5.5v35.391a.5.5 0 0 1-.5.5h-5.01a.5.5 0 0 1-.5-.5V75.469Zm1 .5v34.391h4.01V75.969h-4.01Zm18.711 8.384a.5.5 0 0 1 .536.46l.574 7.568a.5.5 0 1 1-.997.076l-.574-7.568a.5.5 0 0 1 .461-.536Z" fill="#2851A3"/><path d="M325.541 138.676c-1.192-7.092-5.275-13.099-13.068-15.472l-14.227-5.465c-11.848 5.658-23.473 6.761-34.694-.372l-15.874 6.436c-6.668 2.436-11.393 8.185-12.29 14.95l-2.393 14.02 15.604 2.822 8.714 32.733 37.305-.041 9.882-36.786 1.5 5.5 20.966-2.835-1.425-15.49Z" fill="#FAC823"/><path d="M263.364 116.904a.5.5 0 0 1 .456.041c11.031 7.011 22.462 5.953 34.211.343a.5.5 0 0 1 .394-.016l14.211 5.459c7.997 2.442 12.182 8.626 13.398 15.862a.47.47 0 0 1 .005.037l1.425 15.49a.501.501 0 0 1-.428.541l-20.358 2.896a.5.5 0 0 1-.559-.391l-1.195-4.063-9.828 35.33a.5.5 0 0 1-.477.354l-37.306.041a.5.5 0 0 1-.484-.371l-8.632-32.427-15.291-2.765a.5.5 0 0 1-.404-.576l2.392-14.011c.925-6.952 5.778-12.844 12.604-15.342l15.866-6.432Zm.138 1.023-15.637 6.339a.077.077 0 0 1-.016.007c-6.501 2.375-11.094 7.974-11.965 14.546l-.003.018-2.31 13.532 15.117 2.734a.5.5 0 0 1 .394.363l8.615 32.362 36.551-.04 10.285-36.829a.5.5 0 0 1 .967.042l1.5 5.5 19.424-2.763-1.379-14.998c-1.171-6.934-5.147-12.752-12.718-15.058l-.033-.011-14.027-5.388c-11.805 5.589-23.482 6.706-34.765-.356Z" fill="#FAC823"/><path d="M253.054 136.988a.5.5 0 0 1 .254.66l-3.43 7.71a14.584 14.584 0 0 0-.906 9.133l3.709 16.532a.5.5 0 0 1-.976.219l-3.708-16.531a15.58 15.58 0 0 1 .967-9.759l3.43-7.711a.5.5 0 0 1 .66-.253Zm49.544 8.622a.5.5 0 0 1 .614.352l3.127 11.509a.5.5 0 1 1-.965.262l-3.127-11.509a.501.501 0 0 1 .351-.614Z" fill="#2851A3"/></g><path d="M84.644 97.794c0 9.518-7.724 17.201-17.294 17.201s-17.294-7.683-17.294-17.2c0-9.518 7.725-17.201 17.294-17.201V61.788c-20.061 0-36.318 16.168-36.318 36.12 0 19.953 16.257 36.122 36.318 36.122 20.062 0 36.318-16.169 36.318-36.121H84.644v-.115Z" fill="#fff" fill-opacity=".3"/><path d="M338.728 32.81H326.09v12.569h12.638v-12.57Zm-23.168 0h-65.487v12.569h65.487v-12.57Z" fill="#42BDEB"/><path d="M35.502 37.737c1.922 0 3.47-1.547 3.47-3.446 0-1.897-1.548-3.445-3.47-3.445-1.921 0-3.47 1.548-3.47 3.445 0 1.899 1.549 3.446 3.47 3.446Zm4.47-3.446c0 2.456-2 4.446-4.47 4.446-2.468 0-4.47-1.99-4.47-4.446 0-2.455 2.002-4.445 4.47-4.445 2.47 0 4.47 1.99 4.47 4.445Z" fill="#E0E0E0"/><path fill-rule="evenodd" clip-rule="evenodd" d="M50.404 37.737c1.921 0 3.47-1.547 3.47-3.446 0-1.897-1.549-3.445-3.47-3.445-1.922 0-3.47 1.548-3.47 3.445 0 1.899 1.548 3.446 3.47 3.446Zm4.47-3.446c0 2.456-2.002 4.446-4.47 4.446-2.47 0-4.47-1.99-4.47-4.446 0-2.455 2-4.445 4.47-4.445 2.468 0 4.47 1.99 4.47 4.445Z" fill="#E0E0E0"/><path d="M65.303 38.737c2.469 0 4.47-1.99 4.47-4.446 0-2.455-2.001-4.445-4.47-4.445s-4.47 1.99-4.47 4.445c0 2.456 2.001 4.446 4.47 4.446Z" fill="#E0E0E0"/><path d="M15.5 20a4.5 4.5 0 0 1 4.5-4.5h332a4.5 4.5 0 0 1 4.5 4.5v190a4.5 4.5 0 0 1-4.5 4.5H20a4.5 4.5 0 0 1-4.5-4.5V20Zm4.5-3.5a3.5 3.5 0 0 0-3.5 3.5v190a3.5 3.5 0 0 0 3.5 3.5h332a3.5 3.5 0 0 0 3.5-3.5V20a3.5 3.5 0 0 0-3.5-3.5H20Z" fill="#E0E0E0"/><path d="M71.155 58.003v18.92c9.57 0 17.294 7.683 17.294 17.2h19.024c-.115-19.952-16.372-36.12-36.318-36.12Z" fill="#41CCB9"/></svg>