<svg width="120" height="120" viewBox="0 0 120 120" fill="none" xmlns="http://www.w3.org/2000/svg"><path d="M43.375 17.215v4.7c-14.86 2-28.4 6.1-28.49 12.36v-4.7c.12-6.24 13.63-10.36 28.49-12.36Z" fill="#0BBCE7"/><path d="M112.165 83.215c-3-11.16-103.89-26.79-103.89-41.78v-8.17c0 16.88 103.79 31.1 104 42.35l-.11 7.6Z" fill="#1C519F"/><path d="M8.275 41.935a.5.5 0 0 1-.5-.5v-7.07c-.72-7.29 4.69-12.15 10.36-13.71a.501.501 0 0 1 .44.09.5.5 0 0 1 .2.39v6.14a.5.5 0 0 1-.33.47c-4.5 1.65-9.67 4.69-9.67 13.69a.5.5 0 0 1-.5.5Zm9.5-20.12c-4.71 1.51-9.68 5.59-9 12.5v.86c1.76-4.79 5.53-6.93 9-8.24v-5.12Z" fill="#1C519F"/><path d="M30.695 74.035c-13.65 1.52-22.67 5.26-22.67 8.06v4.46c0-2.72 8.32-7.2 22.67-8.47v-4.05Zm67.23-16.65s11.71 2.44 14.38 5.66v4.17s-8.82-4.72-14.38-5.41v-4.42Zm-9.85-42.9h-.07a167.255 167.255 0 0 0-27.09-2.31.5.5 0 0 1-.5-.5v-5.08a.5.5 0 0 1 .14-.35.53.53 0 0 1 .36-.15 168.21 168.21 0 0 1 27.26 2.32.5.5 0 0 1 .42.49v5.08a.532.532 0 0 1-.18.39.54.54 0 0 1-.34.11Zm-26.68-3.3c8.77.056 17.524.794 26.18 2.21v-4.06a166.49 166.49 0 0 0-26.18-2.23v4.08Zm43.88 8a.582.582 0 0 1-.19 0 68.24 68.24 0 0 0-12.66-3.77.51.51 0 0 1-.4-.5v-5.16a.46.46 0 0 1 .18-.38.51.51 0 0 1 .41-.11 69.328 69.328 0 0 1 12.85 3.84.513.513 0 0 1 .31.46v5.11a.526.526 0 0 1-.22.42.482.482 0 0 1-.28.09Zm-12.27-4.71a69.7 69.7 0 0 1 11.75 3.47v-4a68.19 68.19 0 0 0-11.75-3.54v4.07Z" fill="#FFC73F"/><path d="M97.695 104.425a4.198 4.198 0 0 0 2.87 1.25c.16 1.48.42 3.12 1.62 4 .14.1.32.18.45.08.13-.1.11-.2.12-.34.06-1.8.19-5.7.1-5.83-.09-.13-8.47-4-8.47-4-1.67-1.51-18.17-16.55-18.17-16.55s-4.63-13.7-4.61-21.14c0-4.71-9 3.23-9 3.23s4.06 21 9.11 24.53l20 14a30.695 30.695 0 0 0 2.93 6.15c1.5 2 2.14 2.7 4.17 2.56 2.03-.14 2.88-1.27 4.7-3.55 0 0 1.08.78 2.85 2.17 2.89 2.28 4.41 2.72 4.94 2.17.53-.55-2.71-2.88-6.24-6.21-.7-.67-1.35-1.26-2-1.83l-3-.38-2.37-.31Zm-.32 3.46c2.16 1.84 2.74 2.19 4.11 3.36l-4.11-3.36Zm-1.21 1.38c1.2 1.22 1.78 1.83 3 3.08l-3-3.08Z" fill="#EAEAEA"/><path d="M110.765 113.915c-1 0-2.56-.83-4.67-2.49-1.14-.89-2-1.54-2.45-1.88-1.66 2.07-2.63 3.22-4.76 3.36a3.664 3.664 0 0 1-3.35-1.21.496.496 0 0 1-.37-.41c-.27-.33-.56-.71-.88-1.14a31.397 31.397 0 0 1-2.95-6.13l-19.87-13.91c-5.16-3.6-9.15-24-9.31-24.84a.47.47 0 0 1 .16-.47c1.09-1 6.64-5.71 8.89-4.7a1.79 1.79 0 0 1 .94 1.84c0 6.91 4.08 19.49 4.54 20.86 1.34 1.22 16.15 14.72 18 16.41 8.43 3.9 8.5 4 8.6 4.14.1.14.13.19.12 1.43.65.57 1.31 1.17 2 1.84 1.16 1.09 2.28 2.07 3.27 2.93 2.24 2 3.16 2.79 3.18 3.46a.71.71 0 0 1-.19.53 1.27 1.27 0 0 1-.9.38Zm-7.21-5.56a.462.462 0 0 1 .29.1s1.11.8 2.87 2.18c2.63 2.08 3.71 2.31 4.09 2.27a25.8 25.8 0 0 0-2.75-2.59c-1-.87-2.12-1.86-3.3-3-.47-.46-.92-.87-1.36-1.27 0 .62 0 1.38-.07 2.33a.462.462 0 0 1 .23-.02Zm-7.41 2.53a2.6 2.6 0 0 0 1.83 1l-1.78-1.82c-.043.271-.06.546-.05.82Zm.42-1.86 1.66 1.7 1.09 1.12a3.4 3.4 0 0 0 1.42-.61l-1-.8-.15-.12c-.61-.48-1.3-1-2.44-2-.125.093-.24.201-.34.32a2.135 2.135 0 0 0-.24.39Zm3.81.63c.36.28.71.56 1.11.9.14-.14.27-.29.41-.46a3.748 3.748 0 0 1-1.23-1.69 5.412 5.412 0 0 0-2.29-.41l2 1.66Zm-37.19-44.3c.51 2.5 4.33 20.78 8.85 23.93l20 14c.087.062.153.15.19.25a31.344 31.344 0 0 0 2.88 6l.14.18c.12-.648.398-1.256.81-1.77a2.758 2.758 0 0 1 1.88-1 7.161 7.161 0 0 1 2.39.23 9.743 9.743 0 0 1-.17-1.06 4.797 4.797 0 0 1-2.78-1.41.49.49 0 0 1-.09-.57.504.504 0 0 1 .51-.27l4.63.63v-.63c-1-.5-5.3-2.51-8.21-3.85a.378.378 0 0 1-.13-.09c-1.67-1.51-18.17-16.55-18.17-16.55a.52.52 0 0 1-.14-.21c-.19-.56-4.65-13.86-4.63-21.3 0-.513-.12-.823-.36-.93-1.18-.46-5.07 2.23-7.6 4.42Zm39.15 44.09a.248.248 0 0 0-.05.1h.09l.06-.09-.1-.01Zm-1.37-4.07c.074.08.12.182.13.29a5.505 5.505 0 0 0 1.21 3.47c0-.87.07-2.36.1-3.57l-1.44-.19Z" fill="#1C519F"/><path d="M19.165 82.215c2.91-5.54 5.45-9.68 5.45-9.68l9.71 6.37-6.09 6.77 24.8 4.58 9-1.42 8.41 4.3h-44.44a7.38 7.38 0 0 1-6.58-3.48 7.26 7.26 0 0 1-1.13-3.68 7.36 7.36 0 0 1 .87-3.76Z" fill="#EAEAEA"/><path d="M25.705 93.645a7.93 7.93 0 0 1-7-11.66c2.88-5.49 5.44-9.67 5.46-9.71a.52.52 0 0 1 .518-.226.47.47 0 0 1 .182.076l9.71 6.37a.51.51 0 0 1 .205.563.49.49 0 0 1-.105.187l-5.49 6.11 23.82 4.4 8.92-1.41a.52.52 0 0 1 .3.05l8.41 4.3a.5.5 0 0 1-.22.94h-44.71v.01Zm-.93-20.4c-.73 1.21-2.84 4.77-5.17 9.21a7 7 0 0 0-.81 3.5 6.87 6.87 0 0 0 1 3.44 7 7 0 0 0 2.63 2.45 6.91 6.91 0 0 0 3.51.79h42.38l-6.42-3.28-8.83 1.4h-.17l-24.8-4.58a.53.53 0 0 1-.39-.33.5.5 0 0 1 .11-.5l5.7-6.34-8.74-5.76Z" fill="#1C519F"/><path d="M69.005 56.675a13.42 13.42 0 0 0-7.21-4.46s-2.86.08-1.67-7l-8.42-5.21c-.26 7.87.58 11.67-2.56 12.67l11 9.89 8.82-5.89" fill="#EAEAEA"/><path d="m59.825 62.945-11-9.89a.509.509 0 0 1-.032-.713.48.48 0 0 1 .222-.137c2-.65 2.12-2.7 2.14-7.69 0-1.33 0-2.83.07-4.52a.49.49 0 0 1 .76-.41l8.42 5.21a.52.52 0 0 1 .23.51c-.66 3.93 0 5.42.44 6a1.059 1.059 0 0 0 .74.44v1a1.942 1.942 0 0 1-1.47-.75c-1-1.14-1.25-3.33-.76-6.5l-7.4-4.57v3.62c0 4.49 0 7.17-2.08 8.32l10.42 9.36-.7.72Z" fill="#1C519F"/><path d="M58.475 22.925a10.45 10.45 0 0 0-11.6 9l-1.87 15 4.57.58 2.23-8.54 8.11 5.3-.84 4.41 6.53.82 1.87-15a10.39 10.39 0 0 0-9-11.59v.02Z" fill="#1C519F"/><path d="M65.605 49.995h-.07l-6.53-.82a.52.52 0 0 1-.34-.2.49.49 0 0 1-.08-.39l.77-4.08-7.24-4.74-2.06 7.87a.5.5 0 0 1-.55.37l-4.57-.58a.5.5 0 0 1-.43-.56l1.87-15a10.93 10.93 0 0 1 12-9.45h.15a10.88 10.88 0 0 1 9.43 12.15l-1.87 15a.49.49 0 0 1-.49.43h.01Zm-5.94-1.75 5.5.7 1.81-14.51a9.87 9.87 0 0 0-8.43-11h-.13a9.93 9.93 0 0 0-11.05 8.57l-1.81 14.5 3.64.46 2.12-8.11a.5.5 0 0 1 .31-.34.48.48 0 0 1 .45 0l8.11 5.3a.49.49 0 0 1 .22.51l-.74 3.92Z" fill="#1C519F"/><path d="M58.765 25.845a8.43 8.43 0 0 0-8.51 4 8.311 8.311 0 0 0-1.09 3.12c-.58 4.54.41 5.67 2.64 6l4.9 3.37c8.56 1.08 8.91-2.25 9.49-6.79a8.79 8.79 0 0 0-7.42-9.74l-.01.04Z" fill="#EAEAEA"/><path d="M59.535 43.075a22.813 22.813 0 0 1-2.9-.2.648.648 0 0 1-.22-.08l-4.8-3.31c-2.7-.44-3.5-2.23-2.95-6.54a9 9 0 0 1 1.16-3.31 8.851 8.851 0 0 1 2.34-2.61 9.16 9.16 0 0 1 3.17-1.5 9 9 0 0 1 3.5-.17 9.25 9.25 0 0 1 7.85 10.29v.12c-.51 3.89-.95 7.31-7.15 7.31Zm-2.65-1.18c7.88 1 8.22-1.76 8.8-6.25v-.12a8.27 8.27 0 0 0-7-9.18 8.089 8.089 0 0 0-3.1.15 8.188 8.188 0 0 0-2.83 1.34 8 8 0 0 0-3.1 5.24c-.59 4.66.55 5.19 2.22 5.44a.49.49 0 0 1 .21.08l4.8 3.3Z" fill="#DFDFDF"/><path d="M66.275 34.395a24 24 0 0 1-1.18 8.5 6.63 6.63 0 0 1-6.61 4.48 6.911 6.911 0 0 1-2.71-.68 6.83 6.83 0 0 1-2.23-1.69 8 8 0 0 1-1.77-2.8 7.77 7.77 0 0 1-.47-3.28" fill="#EAEAEA"/><path d="M58.825 47.885h-.37a7.51 7.51 0 0 1-5.29-2.54 8.31 8.31 0 0 1-1.86-2.95 8.15 8.15 0 0 1-.5-3.49.491.491 0 0 1 .53-.46.5.5 0 0 1 .47.53 7.15 7.15 0 0 0 .44 3.07 7.34 7.34 0 0 0 1.66 2.63 6.39 6.39 0 0 0 2.08 1.58c.79.377 1.646.592 2.52.63a6.22 6.22 0 0 0 3.75-1 6.07 6.07 0 0 0 2.36-3.1 23.19 23.19 0 0 0 1.16-8.32.51.51 0 0 1 .48-.52.52.52 0 0 1 .52.48 24.59 24.59 0 0 1-1.21 8.68 7.08 7.08 0 0 1-6.74 4.83v-.05Z" fill="#1C519F"/><path d="m63.165 26.395-10.47-1.57-4.69 8.13 2.27 7.18 2.22-6.62 3.31.41 1.33-4.06.13 4.24 9.59 1.19.3-2.37c.38-2.52-1.5-6.25-3.99-6.53Z" fill="#1C519F"/><path d="M50.305 40.635a.5.5 0 0 1-.47-.35l-2.27-7.18a.48.48 0 0 1 0-.39l4.66-8.13a.51.51 0 0 1 .51-.25l10.46 1.57a4.34 4.34 0 0 1 2.88 1.83 7.52 7.52 0 0 1 1.57 5.26l-.3 2.37a.489.489 0 0 1-.55.43l-9.59-1.19a.49.49 0 0 1-.44-.48l-.05-1.39-.44 1.35a.49.49 0 0 1-.53.34l-2.91-.36-2.09 6.23a.49.49 0 0 1-.44.34Zm-1.73-7.62 1.74 5.51 1.73-5.17a.51.51 0 0 1 .54-.33l2.9.36 1.2-3.67a.51.51 0 0 1 .55-.34.5.5 0 0 1 .43.48l.11 3.81 8.67 1.08.24-1.88a6.58 6.58 0 0 0-1.37-4.52 3.45 3.45 0 0 0-2.21-1.45l-10.1-1.52-4.43 7.64Z" fill="#1C519F"/><path d="m54.915 26.285-2-.25-2.75 22.87 2 .24 2.75-22.86Z" fill="#1C519F"/><path d="M52.165 49.645h-.06l-2-.24a.49.49 0 0 1-.34-.19.469.469 0 0 1-.1-.36l2.75-22.87a.5.5 0 0 1 .56-.44l2 .25a.49.49 0 0 1 .43.55l-2.75 22.86a.49.49 0 0 1-.49.44Zm-1.45-1.17 1 .12 2.63-21.87-1-.13-2.63 21.88Z" fill="#1C519F"/><path opacity=".3" d="M51.315 38.805a5.19 5.19 0 0 1-2-.83 2.802 2.802 0 0 1-.7-.9 3.002 3.002 0 0 1-.3-1.1c0-.49.27-2.27 2-2a3 3 0 0 1 1.48 1" fill="#fff"/><path d="M51.315 38.805a5.19 5.19 0 0 1-2-.83 2.802 2.802 0 0 1-.7-.9 3.002 3.002 0 0 1-.3-1.1c0-.49.27-2.27 2-2a3 3 0 0 1 1.48 1" fill="#EAEAEA"/><path d="M51.315 39.304h-.1a6 6 0 0 1-2.18-.91 3.41 3.41 0 0 1-.87-1.09 3.44 3.44 0 0 1-.35-1.29 2.9 2.9 0 0 1 .86-2.1 2 2 0 0 1 1.71-.43 3.34 3.34 0 0 1 1.8 1.19.5.5 0 1 1-.79.61 2.41 2.41 0 0 0-1.22-.83 1 1 0 0 0-.85.22 1.92 1.92 0 0 0-.51 1.3c.022.308.107.607.25.88.137.287.33.542.57.75.539.349 1.14.59 1.77.71a.51.51 0 0 1 .4.59.5.5 0 0 1-.49.4Z" fill="#1C519F"/><path d="M24.495 72.315s6.37-14.24 9.91-17 6.11-2.27 8.9-2.78c4-.74 6.58-1.24 6.58-1.24s3.33 8.77 11.18 6.08c2.29-.78 0-6 0-6 .849.286 1.723.494 2.61.62 6.15-.75 12.14 18.12 12.14 18.12l-9.65 4.56.76-9.28s1.39 2.52-.76 9.28-4.85 13-4.59 13l-2 .5-6.5 1-16.63-3c.39-3.32.45-6.669.18-10l-2.22 2.61-9.91-6.47Z" fill="#0BBCE7"/><path d="M53.075 89.754h-.07l-16.63-3a.51.51 0 0 1-.41-.55c.342-2.883.429-5.79.26-8.69l-1.42 1.68a.51.51 0 0 1-.66.09l-9.91-6.52a.5.5 0 0 1-.18-.62c.26-.59 6.46-14.38 10.06-17.19a12 12 0 0 1 7.2-2.63c.66-.07 1.28-.13 1.92-.25 4-.74 6.57-1.24 6.57-1.24a.5.5 0 0 1 .56.32c.13.34 3.26 8.27 10.55 5.78a.83.83 0 0 0 .53-.49c.53-1.21-.41-3.9-.82-4.83a.5.5 0 0 1 .61-.68c.806.265 1.632.463 2.47.59 6.44-.66 12.35 17.69 12.6 18.47a.5.5 0 0 1-.26.61l-9.45 4.46c-1.17 3.65-2.51 7.18-3.4 9.53-.52 1.39-1 2.71-1.11 3.08v.07a.51.51 0 0 1-.38.5l-2 .5-6.55 1-.08.01Zm-16.07-3.94 16.08 2.91 6.42-1 1.62-.41c.13-.46.45-1.32 1.13-3.12.9-2.37 2.25-6 3.42-9.62l.76-9.23a.51.51 0 0 1 .39-.45.53.53 0 0 1 .55.25c.05.11 1.31 2.51-.4 8.59l8.24-3.89c-1.77-5.4-6.89-17.89-11.47-17.36h-.14a16.544 16.544 0 0 1-1.7-.35c.44 1.25 1 3.36.44 4.67a1.84 1.84 0 0 1-1.11 1c-7.22 2.47-10.85-4.27-11.64-6-.87.17-3.11.6-6.19 1.17-.68.12-1.35.19-2 .25a11.14 11.14 0 0 0-6.69 2.43c-3.08 2.4-8.53 14.13-9.58 16.42l9.18 6 1.94-2.27a.5.5 0 0 1 .88.28 52.48 52.48 0 0 1-.13 9.73Z" fill="#0BBCE7"/><path d="M33.605 80.245a.47.47 0 0 1-.33-.12.491.491 0 0 1 0-.7l6.66-7.78a.49.49 0 0 1 .7-.06.51.51 0 0 1 .06.71l-6.66 7.78a.48.48 0 0 1-.43.17Zm33.12-5.3a.5.5 0 0 1-.5-.48l-.34-10.13a.502.502 0 0 1 .48-.52.53.53 0 0 1 .52.49l.34 10.13a.498.498 0 0 1-.49.51h-.01Z" fill="#1C519F"/><path d="M104.005 93.675c4.17-3 8.08-6.2 8.08-9.14l.21-9.11c-.74 9.58-12.79 13.25-22.82 18.25h14.53Z" fill="#0BBCE7"/></svg>