<svg width="120" height="120" viewBox="0 0 120 120" fill="none" xmlns="http://www.w3.org/2000/svg"><g clip-path="url(#udmfaw23eoea)"><path d="M64.127 105.568c-11.43 0-41.774-3.023-48.032-5.836.184 1.945-.238 4.699 0 7.222 11.252 4.81 48.032 5.83 48.032 5.83v-7.216Z" fill="#4C88FF"/><path d="M29.553 56.437c-6.363 3.747-11.148 7.02-13.226 8.824-1.771 1.538-3.26 3.085-4.306 4.564a14.335 14.335 0 0 0-1.3 2.216 9.49 9.49 0 0 0-.719 2.155c-.095.478-.142.95-.142 1.414v6.988c0-.463.047-.936.141-1.414.139-.7.719-.154.719-.154s.772-1.469 1.3-2.216c1.046-1.48 4.432-4.457 6.203-5.995 1.446-1.255 9.844-7.085 13.254-8.592l-1.924-7.79Zm54.62-14.552c4.635-2.152 11.112-5.288 15.274-8.128 2.275-1.683 3.544-2.976 3.544-4.89V20.2c0 1.27-.413 1.39-1.055 1.576-.492.142-1.118.324-1.797 1.091-3.548 3.998-11.306 7.726-17.972 10.89l2.006 8.128Z" fill="#fff" fill-opacity=".4"/><path d="M22.022 25.915a4 4 0 0 1 2.925-4.842L72.05 9.451a4 4 0 0 1 4.842 2.925l14.653 59.386a4 4 0 0 1-2.926 4.841L41.516 88.226a4 4 0 0 1-4.842-2.926L22.022 25.915Z" fill="#fff" fill-opacity=".3"/><path d="M29.024 36.914a.5.5 0 1 0-.84.542c2.252 3.49 6.729 5.838 11.784 7.023a35.36 35.36 0 0 0 7.381.904 8.351 8.351 0 0 1-.106-1.002 34.324 34.324 0 0 1-7.047-.875c-4.944-1.16-9.123-3.418-11.171-6.592Zm34.131 3.541c.141.301.265.614.372.937a35.355 35.355 0 0 0 6.114-4.234c3.923-3.4 6.793-7.562 7.164-11.699a.5.5 0 1 0-.996-.089c-.337 3.763-2.986 7.706-6.823 11.032a34.325 34.325 0 0 1-5.831 4.053Z" fill="#fff" fill-opacity=".4"/><path d="M63.704 42.01a8.356 8.356 0 1 1-16.224 4.003 8.356 8.356 0 0 1 16.224-4.003Z" fill="#fff" fill-opacity=".4"/><path d="M81.739 70.83a.314.314 0 0 1 .13.005.049.049 0 0 1 .026.016c.023.026.08.128.08.388 0 .25-.054.59-.182 1.012-.246.809-.8 1.817-1.523 2.897-.718 1.073-1.58 2.183-2.415 3.19a68.152 68.152 0 0 1-3.135 3.518l-.05.053-.014.013-.004.004a.5.5 0 1 0 .717.697l-.3-.292.3.292.005-.005.014-.014.053-.055.2-.21a69.257 69.257 0 0 0 2.983-3.363c.848-1.022 1.733-2.16 2.477-3.271.738-1.103 1.36-2.21 1.648-3.164.146-.479.226-.92.227-1.301 0-.372-.077-.754-.32-1.039-.267-.311-.647-.41-1.033-.365-.367.043-.766.214-1.185.475-2.347 1.46-8.254 5.437-13.564 9.041a2825.487 2825.487 0 0 0-9.223 6.29l-.822.563.282.412a45.284 45.284 0 0 0-.418-.274l-.386.588a4610.112 4610.112 0 0 1-4.629 7.02c-2.82 4.271-6.263 9.473-8.757 13.201a.5.5 0 0 0 .831.556c2.496-3.73 5.94-8.935 8.76-13.206a6357.678 6357.678 0 0 0 4.63-7.022l.333-.506.741-.508a3058.658 3058.658 0 0 1 9.22-6.286c5.317-3.61 11.205-7.574 13.53-9.02.36-.224.614-.312.773-.33ZM57.11 86.616l-.282-.412a.502.502 0 0 0-.136.138l.419.274Zm55.057-16.817c1.75-.924 2.734-.852 3.293-.314.136.132.38.451.362 1.021-.018.584-.313 1.507-1.436 2.824-2.017 2.364-5.751 7.142-7.946 9.95l-.878 1.123a.499.499 0 1 0 .787.617l.883-1.129c2.198-2.812 5.914-7.566 7.914-9.912 1.207-1.415 1.648-2.548 1.676-3.442.028-.907-.372-1.486-.668-1.772-1.074-1.034-2.654-.8-4.454.15-1.837.969-4.145 2.8-6.94 5.441-2.194 2.074-5.868 3.984-9.636 5.517-3.755 1.528-7.54 2.657-9.907 3.19a.5.5 0 0 0 .22.975c2.422-.545 6.26-1.691 10.064-3.239 3.79-1.542 7.611-3.509 9.946-5.716 2.78-2.628 5.008-4.38 6.72-5.284Z" fill="#E0E0E0"/><path d="M109.511 84.506c-.603.005-1.302.212-1.803.366-.88.27-2.214.94-3.75 1.826-1.524.878-3.21 1.944-4.784 2.977a190.037 190.037 0 0 0-5.704 3.902l-.09.064-.03.022-.292-.406.292.406a.502.502 0 0 1-.253.092c-2.131.165-4.597.092-7.116.017-1.327-.04-2.67-.079-3.985-.085-3.869-.016-7.548.257-10.316 1.593a.5.5 0 1 1-.435-.9c2.994-1.446 6.882-1.71 10.755-1.693 1.379.006 2.752.047 4.092.087 2.425.073 4.742.142 6.79-.005l.008-.006a133.008 133.008 0 0 1 1.62-1.14 190.813 190.813 0 0 1 4.115-2.784c1.582-1.038 3.286-2.116 4.834-3.008 1.536-.885 2.956-1.61 3.956-1.916h.004c.479-.147 1.314-.403 2.084-.41.389-.002.813.057 1.179.268.387.224.661.59.772 1.099a.828.828 0 0 1-.037.444c-.041.117-.103.23-.171.336-.134.21-.33.444-.563.691-.469.499-1.147 1.112-1.952 1.793-1.615 1.363-3.792 3.032-5.972 4.648a346.11 346.11 0 0 1-6.017 4.352 392.116 392.116 0 0 1-2.549 1.79l-.197.137-.286-.411.14.48-.056.016-.163.048-.629.18a415.995 415.995 0 0 1-10.029 2.726c-6.053 1.562-13.38 3.291-18.399 3.93-.454.057-1.005.344-1.607.814-.592.461-1.181 1.058-1.71 1.659a24.434 24.434 0 0 0-1.687 2.163l-.1.147-.025.037-.006.009-.002.003a.5.5 0 0 1-.835-.551l.336.222-.336-.222.003-.004.008-.011.028-.042c.025-.037.06-.09.107-.157a26.004 26.004 0 0 1 1.758-2.255c.55-.625 1.186-1.272 1.845-1.787.649-.505 1.373-.925 2.097-1.017 4.948-.63 12.22-2.344 18.275-3.906a415.666 415.666 0 0 0 10.63-2.899l.14-.04.13-.09a304.15 304.15 0 0 0 2.54-1.785 348.836 348.836 0 0 0 6.001-4.339c2.175-1.613 4.332-3.267 5.922-4.61.796-.672 1.439-1.257 1.868-1.713.217-.23.365-.412.451-.547a.927.927 0 0 0 .055-.095.593.593 0 0 0-.278-.377c-.15-.087-.373-.136-.671-.133Zm.964.474-.001.003.001-.003ZM93.71 98.652l.14.48a.5.5 0 0 0 .145-.069l-.285-.411ZM110.915 70.1a.5.5 0 0 1-.283.648L89.258 79.13a.471.471 0 0 1-.038.013l-.006.001c-5.864 1.773-11.739 3.548-17.088 4.951a.5.5 0 0 1-.253-.967c5.323-1.396 11.175-3.165 17.038-4.937l21.356-8.374a.5.5 0 0 1 .648.283Zm3.983-1.478a.5.5 0 1 1 .67.743l-.335-.372-.335-.371ZM88.156 88.049a.5.5 0 0 0 .304.953l-.152-.477.152.477.006-.002.015-.005.058-.019c.05-.016.125-.04.22-.073a61.369 61.369 0 0 0 3.523-1.312c2.132-.87 4.765-2.096 6.667-3.487 1.141-.834 5.369-3.977 7.67-6.363 1.121-1.163 3.353-3.253 5.316-5.061a513.887 513.887 0 0 1 3.341-3.052l.292-.263-.335-.372-.335-.371-.294.265-.791.718c-.665.605-1.575 1.435-2.556 2.34-1.957 1.803-4.212 3.914-5.357 5.101-2.232 2.314-6.388 5.407-7.541 6.251-1.8 1.317-4.34 2.504-6.455 3.368a60.508 60.508 0 0 1-3.675 1.36l-.055.018-.014.005h-.004Z" fill="#E0E0E0"/><path d="M9.86 75.241a9.112 9.112 0 0 0 .603 3.292c.254.67.586 1.315.982 1.918 2.363 3.595 6.676 5.384 10.687 6.407 4.877 1.245 19.89 3.177 24.907 3.177v8.187c-5.017 0-20.028-1.935-24.907-3.177-4.011-1.023-8.324-2.812-10.687-6.407a9.944 9.944 0 0 1-.983-1.918 9.217 9.217 0 0 1-.603-3.291V75.24Z" fill="#41CCB9"/><path d="M4.167 19.211a.5.5 0 0 1 .545-.451l9.868.921a.5.5 0 1 1-.093.996l-9.868-.922a.5.5 0 0 1-.452-.544Zm9.798-7.492a.5.5 0 0 1 .707.013l3.337 3.47a.5.5 0 1 1-.72.694l-3.338-3.47a.5.5 0 0 1 .014-.707Zm6.855-4.918a.5.5 0 0 1 .68.194l2.21 3.97a.5.5 0 0 1-.874.486l-2.21-3.97a.5.5 0 0 1 .194-.68Z" fill="#E0E0E0"/><path d="M102.987 29.557a11.682 11.682 0 0 0-.451-2.933c-1.73-5.998-7.898-9.236-13.466-10.947V6.724c4.804 1.476 9.915 3.536 12.458 8.1.428.77.767 1.583 1.008 2.415.302 1.044.455 2.143.455 3.252v9.385c0-.107-.001-.213-.004-.32Z" fill="#41CCB9"/></g><defs><clipPath id="udmfaw23eoea"><path fill="#fff" d="M0 0h120v120H0z"/></clipPath></defs></svg>