<svg width="120" height="120" viewBox="0 0 120 120" fill="none" xmlns="http://www.w3.org/2000/svg"><g clip-path="url(#udveseducvga)"><path d="m51.419 11.113-13.74-3.681a4 4 0 0 0-4.898 2.828L13.628 81.74a4 4 0 0 0 2.828 4.899l59.888 16.047a4 4 0 0 0 4.899-2.829l19.152-71.478a4 4 0 0 0-2.828-4.9L84.26 19.914l-1.012 3.778a2 2 0 0 1-2.45 1.415L51.82 17.34a2 2 0 0 1-1.414-2.45l1.013-3.778Z" fill="#fff" fill-opacity=".3"/><path d="M51.958 9.095a2 2 0 0 1 2.45-1.414l28.977 7.764a2 2 0 0 1 1.414 2.45l-1.553 5.795a2 2 0 0 1-2.449 1.415L51.82 17.34a2 2 0 0 1-1.414-2.45l1.553-5.795Zm-9.508 16.5a2.5 2.5 0 0 1 3.061-1.768l6.533 1.75a2.5 2.5 0 0 1 1.768 3.062l-1.75 6.533A2.5 2.5 0 0 1 49 36.94l-6.533-1.75a2.5 2.5 0 0 1-1.768-3.063l1.75-6.532Zm2.803-.802a1.5 1.5 0 0 0-1.837 1.06l-1.75 6.533a1.5 1.5 0 0 0 1.06 1.837l6.533 1.75a1.5 1.5 0 0 0 1.837-1.06l1.75-6.532a1.5 1.5 0 0 0-1.06-1.838l-6.533-1.75Z" fill="#fff" fill-opacity=".4"/><path d="M51.634 29.358a.5.5 0 0 1-.227.67l-5.14 2.54a1.5 1.5 0 0 1-2.046-.758l-.9-2.125a.5.5 0 1 1 .92-.39l.9 2.124a.5.5 0 0 0 .683.253l5.14-2.541a.5.5 0 0 1 .67.227Zm1.776 7.317a.5.5 0 0 1 .612-.353l22.526 6.035a.5.5 0 0 1-.259.967l-22.526-6.036a.5.5 0 0 1-.353-.613Zm-15.986 7.678a2.5 2.5 0 0 1 3.062-1.768l6.532 1.75a2.5 2.5 0 0 1 1.768 3.062l-1.75 6.533a2.5 2.5 0 0 1-3.062 1.768l-6.533-1.75a2.5 2.5 0 0 1-1.768-3.063l1.75-6.532Zm2.803-.802a1.5 1.5 0 0 0-1.837 1.06l-1.75 6.533a1.5 1.5 0 0 0 1.06 1.837l6.533 1.75a1.5 1.5 0 0 0 1.837-1.06l1.75-6.533a1.5 1.5 0 0 0-1.06-1.837l-6.533-1.75Z" fill="#fff" fill-opacity=".4"/><path d="M46.608 48.116a.5.5 0 0 1-.227.67l-5.14 2.54a1.5 1.5 0 0 1-2.046-.758l-.9-2.125a.5.5 0 0 1 .92-.39l.9 2.124a.5.5 0 0 0 .683.253l5.14-2.541a.5.5 0 0 1 .67.227Zm1.775 7.317a.5.5 0 0 0 .354.613l22.526 6.035a.5.5 0 1 0 .258-.966L48.996 55.08a.5.5 0 0 0-.613.353ZM32.397 63.11a2.5 2.5 0 0 1 3.062-1.767l6.533 1.75a2.5 2.5 0 0 1 1.768 3.062l-1.75 6.533a2.5 2.5 0 0 1-3.063 1.768l-6.532-1.75a2.5 2.5 0 0 1-1.768-3.063l1.75-6.532Zm2.803-.801a1.5 1.5 0 0 0-1.837 1.06l-1.75 6.533a1.5 1.5 0 0 0 1.06 1.838l6.533 1.75a1.5 1.5 0 0 0 1.837-1.06l1.75-6.534a1.5 1.5 0 0 0-1.06-1.837L35.2 62.31Zm8.157 11.882a.5.5 0 0 1 .612-.353l22.526 6.035a.5.5 0 1 1-.259.966L43.71 74.804a.5.5 0 0 1-.353-.613Zm72.248 16.103-.021 7.107c-.381-1.455-2.322-3.58-4.526-3.576l1.062-7.173c1.798.238 2.717.968 3.485 3.642Z" fill="#fff" fill-opacity=".4"/><path d="M67.116 108.675v-7.797c14.233-4.51 30.99.027 39.196-1.253 7.248-1.13 9.329-4.512 9.329-9.501v9.647c0 2.996-.994 6.153-8.56 7.622-7.565 1.47-25.99-3.54-39.965 1.282ZM32.689 90.608v-8.472C19.94 81.73 14.86 78.172 7.547 70.86v9.866c3.803 3.857 10.794 9.285 25.14 9.883Z" fill="#4C88FF"/><path d="M11.925 99.536v-8.254c8.763 8.254 30.514 12.847 46.461 10.71v7.585c-17.745 2.118-38.44-2.169-46.461-10.041Z" fill="#41CCB9"/><path d="M3.9 49.81v9.781c0-2.6 2.436-9.78 5.317-9.78V42.13c-2.526 0-5.317 4.014-5.317 7.68Z" fill="#fff" fill-opacity=".4"/><path d="M3.89 50.132v8.647c0 5.07 3.474 7.255 7.287 9.651.714.45 1.441.907 2.16 1.391.33.224.66.454.985.691l.204-9.273c-4.819-2.463-8.102-4.8-9.639-7.463-.66-1.143-.998-2.346-.998-3.644Zm.997 5.3c.325.414.687.82 1.085 1.216 1.81 1.808 4.372 3.47 7.54 5.13l-.151 6.935c-.59-.389-1.179-.758-1.747-1.115l-.5-.315c-1.203-.76-2.294-1.473-3.229-2.259-.926-.778-1.663-1.6-2.174-2.555-.507-.947-.824-2.09-.824-3.554v-3.484Zm65.173 9.536c-.49.332-.885.855-.944 1.518a.5.5 0 0 0 .09.333l20.02 28.298v15.788a.5.5 0 0 0 1 0V94.958a.5.5 0 0 0-.091-.288L70.143 66.412c.067-.235.231-.45.478-.617a1.674 1.674 0 0 1 1.056-.28c.849.082 1.928.418 2.64.928a727.84 727.84 0 0 0 2.539 1.799c2.884 2.037 4.522 3.194 8.107 6.044a.5.5 0 0 0 .622-.783c-3.608-2.868-5.268-4.04-8.158-6.082a777.505 777.505 0 0 1-2.529-1.792c-.888-.635-2.147-1.016-3.127-1.11h-.004c-.6-.053-1.22.117-1.708.449Z" fill="#E0E0E0"/><path d="M85.069 29.06c-.201-.068-.468-.088-.838-.008-.187.04-.405.188-.636.49-.227.295-.429.692-.594 1.13a7.69 7.69 0 0 0-.36 1.288c-.076.41-.094.72-.077.88l.001.013 3.416 43.538a.5.5 0 0 1-.997.078l-3.415-43.531c-.031-.302.008-.722.09-1.16.083-.453.22-.966.406-1.46.186-.492.43-.985.736-1.385.302-.394.705-.748 1.22-.859.5-.107.956-.101 1.37.039.415.14.743.403 1.006.735.504.636.811 1.587 1.096 2.614.122.44.4 1.954.768 4.07.371 2.134.84 4.92 1.349 7.939l.135.8c.983 5.846 2.087 12.406 2.89 16.758a.5.5 0 0 1-.983.182c-.805-4.361-1.91-10.928-2.893-16.77l-.135-.804c-.508-3.02-.978-5.803-1.348-7.934-.374-2.149-.641-3.595-.746-3.974-.292-1.053-.558-1.806-.917-2.26-.169-.213-.346-.342-.544-.41Z" fill="#E0E0E0"/><path d="M101.738 55.622c-3.663-.302-7.464.339-10.287.913a.5.5 0 0 1-.2-.98c2.837-.577 6.756-1.244 10.569-.93 3.812.315 7.591 1.618 10.048 5.047 1.852 2.28 2.428 6.016 2.354 10.657-.074 4.678-.816 10.417-1.733 16.805l-.003.023-.002.006-1.401 6.904.939 16.544a.5.5 0 1 1-.998.057l-.943-16.608a.457.457 0 0 1 .009-.128l1.412-6.954c.916-6.39 1.647-12.063 1.721-16.665.073-4.636-.527-8.045-2.14-10.022a.305.305 0 0 1-.019-.025c-2.22-3.107-5.667-4.342-9.326-4.644Z" fill="#E0E0E0"/><path d="M98.6 54.978a.5.5 0 0 1 .566.425l.674 4.75a.5.5 0 0 1-.99.14l-.674-4.75a.5.5 0 0 1 .424-.565Zm6.86.435a.5.5 0 0 1 .517.482c.033.95.009 1.677-.021 2.394l-.009.215c-.027.644-.055 1.293-.047 2.118a.5.5 0 1 1-1 .01c-.008-.852.021-1.526.048-2.17l.009-.214c.03-.71.053-1.407.021-2.318a.5.5 0 0 1 .482-.517Z" fill="#E0E0E0"/></g><defs><clipPath id="udveseducvga"><path fill="#fff" d="M0 0h120v120H0z"/></clipPath></defs></svg>