<svg width="120" height="120" viewBox="0 0 120 120" fill="none" xmlns="http://www.w3.org/2000/svg"><path d="M13.548 18.982V39.97a.5.5 0 1 0 1 0V18.982a3.5 3.5 0 0 1 3.5-3.5h76.25v12.872a.5.5 0 1 0 1 0V14.982a.5.5 0 0 0-.5-.5h-76.75a4.5 4.5 0 0 0-4.5 4.5ZM7.674 83.984A3.374 3.374 0 0 0 4.3 87.36c0 4.45 4.205 7.927 9.218 7.927h69.817c.02 0 .039-.001.058-.003a9.078 9.078 0 0 0 2.907-.49.5.5 0 0 0-.326-.946 8.083 8.083 0 0 1-2.64.436c-3.924 0-6.966-2.697-6.966-5.861a4.437 4.437 0 0 0-4.438-4.438H7.674ZM79.2 94.286H13.518c-4.617 0-8.218-3.173-8.218-6.927a2.374 2.374 0 0 1 2.374-2.374H71.93a3.437 3.437 0 0 1 3.438 3.437c0 2.519 1.552 4.672 3.832 5.864Z" fill="#0C296E"/><path d="M14.254 79.115a.5.5 0 0 1 .5.5V84a.5.5 0 0 1-1 0v-4.385a.5.5 0 0 1 .5-.5ZM21.5 26a.5.5 0 0 1 .5-.5h30a.5.5 0 0 1 0 1H22a.5.5 0 0 1-.5-.5Zm0 6a.5.5 0 0 1 .5-.5h22a.5.5 0 0 1 0 1H22a.5.5 0 0 1-.5-.5Zm88.62 40c4.827 1.781 5.196 4.842 5.227 6.199v8.927c-.316-3.549-2.019-8.735-6.637-9.125L110.12 72Z" fill="#0C296E"/><path d="M115.368 87.549c-.62 5.217-14.911 8.468-27.136 8.468v-7.992c10.467 0 26.272-2.56 27.118-9.676l.018 9.2Z" fill="#00D6B9"/><path d="M42.636 102.341v7.62c29.614-4.976 65.37 3.638 73.12-6.559v-8.056c-10.198 10.605-44.325 1.653-73.12 6.995Z" fill="#3370FF"/><path d="M86.137 39.75c9.94 0 18-8.059 18-18s-8.06-18-18-18c-9.941 0-18 8.059-18 18s8.059 18 18 18ZM84.5 14.386a.82.82 0 0 1 .819-.818h1.636c.452 0 .818.367.818.818v5.728H93.5c.452 0 .819.366.819.818v1.636a.818.818 0 0 1-.819.818h-5.727v5.728a.818.818 0 0 1-.818.818h-1.636a.818.818 0 0 1-.819-.818v-5.728h-5.727a.818.818 0 0 1-.818-.818v-1.636c0-.452.366-.818.818-.818H84.5v-5.728Z" fill="#FFC60A"/><path d="M84.5 14.386a.82.82 0 0 1 .819-.818h1.636c.452 0 .818.367.818.819v5.727h5.728c.451 0 .818.366.818.818v1.636a.818.818 0 0 1-.819.819h-5.727v5.727a.818.818 0 0 1-.818.818H85.32a.818.818 0 0 1-.819-.818v-5.727h-5.727a.818.818 0 0 1-.818-.819v-1.636c0-.452.366-.818.818-.818h5.728v-5.728Z" fill="#fff"/><path d="M102.567 40.848a.501.501 0 0 0-.075-.997l.037.498-.038-.498h-.008l-.018.002a6.432 6.432 0 0 0-.294.036c-.197.03-.479.079-.83.16-.703.165-1.682.46-2.808.984-2.255 1.051-5.09 3.023-7.454 6.697a.5.5 0 0 0 .841.54c2.249-3.495 4.929-5.349 7.035-6.33a13.477 13.477 0 0 1 2.613-.916 9.242 9.242 0 0 1 .942-.17l.046-.005.01-.001h.001Z" fill="#0C296E"/><path d="M112.82 60.8a.482.482 0 0 1-.014.146l-.485-.12.485.12-.076.307-.214.872a1325.382 1325.382 0 0 0-3.092 12.84 560.868 560.868 0 0 0-2.325 10.227c-.316 1.478-.58 2.772-.763 3.782-.178.978-.273 1.649-.282 1.969l3.708 18.423a.5.5 0 0 1-.981.197l-3.718-18.475a.467.467 0 0 1-.01-.099c0-.406.116-1.188.299-2.195.186-1.024.452-2.33.77-3.812a555.833 555.833 0 0 1 2.328-10.246 1375.507 1375.507 0 0 1 3.095-12.85l.214-.872.059-.236a171.555 171.555 0 0 0-1.095-12.06c-.527-4.113-1.189-7.864-1.927-10.13-1.502-4.618-6.045-16.4-7.453-19.427-.29-.624-.55-1.237-.784-1.789l-.162-.38c-.28-.656-.515-1.183-.73-1.544a1.776 1.776 0 0 0-.248-.342 1.975 1.975 0 0 0-.28.464c-.385.82-.551 2.096-.499 3.74.052 1.627.315 3.555.735 5.633.84 4.156 2.297 8.867 3.894 12.903.019.048.03.099.034.15.277 4.097.617 10.682-1.386 16.75a.44.44 0 0 1-.013.035c-.996 2.406-2.117 3.857-3.36 4.801-1.04.791-2.14 1.204-3.234 1.54.182.306.374.605.577.896a.5.5 0 0 1-.82.573 15.846 15.846 0 0 1-.895-1.446.496.496 0 0 1-.093-.172c-2.197-4.11-2.76-9.18-3.157-13.502l-.08-.884c-.192-2.127-.364-4.031-.691-5.556-.38-1.768-.928-2.811-1.74-3.192-.42-.197-.708-.174-.934-.062-.252.127-.52.414-.777.929-.516 1.032-.865 2.72-1.103 4.817-.315 2.768-.424 6.102-.53 9.313a242.245 242.245 0 0 1-.184 4.728c-.392 7.994 1.12 13.98 3.802 24.604a997.073 997.073 0 0 1 1.63 6.518c.006.023.01.045.012.068l2.248 21.653a.5.5 0 1 1-.995.103l-2.244-21.619c-.574-2.334-1.114-4.47-1.614-6.451-2.684-10.623-4.237-16.772-3.838-24.926v-.002c.076-1.437.129-3.02.182-4.646.106-3.237.218-6.65.537-9.456.24-2.103.601-3.947 1.203-5.151.3-.603.694-1.11 1.224-1.376.558-.279 1.174-.245 1.806.05 1.289.605 1.912 2.116 2.293 3.889.34 1.588.518 3.56.709 5.676l.08.881c.391 4.26.935 9.003 2.899 12.848 1.136-.341 2.161-.71 3.122-1.44 1.064-.809 2.088-2.092 3.034-4.371 1.916-5.822 1.613-12.176 1.337-16.275-1.603-4.065-3.067-8.802-3.915-13-.427-2.11-.7-4.097-.754-5.8-.054-1.688.105-3.16.594-4.197.139-.293.287-.542.457-.725.171-.184.407-.345.708-.35.296-.005.53.145.692.297.163.153.306.356.434.57.255.428.516 1.019.791 1.663l.165.39c.234.55.485 1.143.768 1.75 1.429 3.073 5.986 14.895 7.497 19.54.769 2.363 1.441 6.195 1.967 10.313.529 4.128.915 8.58 1.106 12.207Z" fill="#0C296E"/><path d="M103.023 47.84a.5.5 0 0 1-.415.571c-1.551.247-3.764 1.23-5.71 2.462-.966.612-1.848 1.273-2.532 1.917-.697.654-1.145 1.247-1.31 1.716a.5.5 0 0 1-.943-.334c.247-.698.837-1.425 1.568-2.111.742-.697 1.678-1.397 2.683-2.033 1.997-1.265 4.343-2.327 6.086-2.604a.5.5 0 0 1 .573.415Zm-2.716 8.635a.5.5 0 0 1-.696.125c-1.048-.727-2.152-1.049-3.204-.949-1.047.1-2.096.622-3.032 1.68a.5.5 0 0 1-.749-.662c1.08-1.222 2.353-1.887 3.686-2.013 1.33-.127 2.665.286 3.869 1.123a.5.5 0 0 1 .126.696Z" fill="#0C296E"/><path d="M7 45a4 4 0 0 1 4-4h53a4 4 0 0 1 4 4v29a4 4 0 0 1-4 4H11a4 4 0 0 1-4-4V45Z" fill="#00D6B9"/><path d="m40.258 63.493 25.908-20.098a.5.5 0 1 0-.613-.79L39.645 62.703a3.5 3.5 0 0 1-4.29 0L9.446 42.605a.5.5 0 1 0-.613.79l25.908 20.098a4.5 4.5 0 0 0 5.516 0Z" fill="#0C296E"/><path d="M30.392 59.19a.5.5 0 0 1-.082.702l-20.86 16.5a.5.5 0 0 1-.62-.784l20.86-16.5a.5.5 0 0 1 .702.082Zm14.216 0a.5.5 0 0 1 .702-.082l20.86 16.5a.5.5 0 1 1-.62.784l-20.86-16.5a.5.5 0 0 1-.082-.702Z" fill="#0C296E"/></svg>