<svg width="120" height="120" viewBox="0 0 120 120" fill="none" xmlns="http://www.w3.org/2000/svg"><g clip-path="url(#udtm0db468ma)"><path d="M4.482 91.135v-8.297c0-4.766 6.198-8.771 10.074-10.3l1.385 4.335v3.814c-4.26 1.648-11.459 5.76-11.459 10.448Z" fill="#0C296E"/><path d="M106.193 85.848c-4.897 1.59-10.607 2.229-16.793 2.229-13.46 0-34.696-3.822-50.596-6.583l-.657-5.686v-2.574c15.797 2.712 37.26 6.547 51.253 6.547 6.186 0 11.896-.64 16.793-2.23v8.297Z" fill="#3370FF"/><path d="M19.983 101.723h-.336c-5.185 0-9.597-.34-12.722-1.41-.291-.097-.56-.214-.829-.32v8.575c.269.117.538.224.829.321 3.125 1.07 7.537 1.41 12.722 1.41h.336v-8.576Z" fill="#FFC60A"/><rect x="28.227" y="9.725" width="86.927" height="60.225" rx="4" fill="#FFC60A"/><path d="M74.623 45.585a4.5 4.5 0 0 1-5.866 0l-38.484-33.07a.5.5 0 1 1 .652-.759l38.484 33.07a3.5 3.5 0 0 0 4.562 0l38.484-33.07a.5.5 0 0 1 .652.759l-38.484 33.07Z" fill="#0C296E"/><path d="M63.023 39.565a.5.5 0 0 0-.705-.054L46.295 53.28a.5.5 0 1 0 .652.758L62.969 40.27a.5.5 0 0 0 .054-.705Zm17.333 0a.5.5 0 0 1 .705-.054l32.045 27.538a.5.5 0 1 1-.651.758L80.409 40.27a.5.5 0 0 1-.053-.705ZM27.562 12.389v-.002l-.002-.005-.006-.019a8.63 8.63 0 0 0-.107-.316 14.153 14.153 0 0 0-.338-.857c-.301-.695-.759-1.61-1.384-2.461-.622-.848-1.434-1.668-2.457-2.127-1.046-.47-2.279-.547-3.663.048-.972.417-1.766.919-2.396 1.566-.631.649-1.074 1.421-1.374 2.35a9.35 9.35 0 0 0-.294 1.18 3.035 3.035 0 0 0-.37-.46c-.554-.557-1.275-.765-2-.495-.676.252-1.226.876-1.611 1.694-.392.83-.647 1.926-.695 3.245-.283 7.754-.33 14.613.093 22.906L6.526 26.235a.46.46 0 0 0-.013-.033c-.473-1.068-.969-1.841-1.567-2.221a1.626 1.626 0 0 0-1.05-.26c-.369.035-.713.192-1.03.409a.518.518 0 0 0-.036.027c-.759.617-.923 1.58-.914 2.404.01.842.202 1.706.332 2.288.605 3.171 3.82 13.771 7.077 24.303.936 3.024 1.54 6.122 2.424 8.965 1.396 4.486 2.712 10.492 3.332 15.124.351 2.624.525 5.004.748 5.814l2.047 25.129a.493.493 0 0 0 .518.492.54.54 0 0 0 .533-.517l-2.064-25.33c.012.044.001-.044 0 0-.211-.773-.376-3.061-.715-5.588-.627-4.668-1.966-10.863-3.4-15.475-.883-2.838-1.484-5.925-2.414-8.935C7.062 42.254 3.869 31.718 3.28 28.624l-.003-.015c-.133-.595-.302-1.367-.31-2.097-.008-.74.152-1.281.508-1.583.21-.14.369-.195.488-.206a.574.574 0 0 1 .38.104c.33.21.73.74 1.194 1.783l5.41 15.14a.48.48 0 0 0 .203.249c.05.78.103 1.574.16 2.384.02.277.27.477.56.448a.534.534 0 0 0 .488-.555c-.78-11.004-.788-19.106-.443-28.549.045-1.222.28-2.179.6-2.857.324-.69.706-1.03 1.004-1.141.25-.094.547-.066.877.267.339.342.676.983.888 2.009-.03.17-.044.387-.052.62-.011.31-.01.7-.001 1.154.018.91.074 2.097.154 3.461.161 2.73.425 6.185.704 9.577a1115.002 1115.002 0 0 0 1.077 12.199l.078.834.028.294.524-.064-.523.065a.497.497 0 0 0 .567.435.533.533 0 0 0 .48-.558l-.001-.007-1.925-23.794c-.153-3.453-.085-5.76.443-7.39.26-.803.627-1.429 1.128-1.943.377-.388.843-.727 1.424-1.03.963 6.006 1.943 10.852 2.925 15.572l.36 1.727c.897 4.298 1.794 8.594 2.682 13.688a.502.502 0 0 0 .604.392.528.528 0 0 0 .432-.595c-.89-5.11-1.79-9.422-2.688-13.72l-.36-1.726c-.994-4.779-1.984-9.676-2.956-15.775.928-.304 1.719-.212 2.405.096.803.36 1.494 1.033 2.065 1.812.568.775.994 1.62 1.278 2.277a13.238 13.238 0 0 1 .403 1.056l.009.026.004.014v.003l.001.001c3.096 10.115 5.206 18.585 7.6 28.196.528 2.117 1.069 4.288 1.637 6.545a.495.495 0 0 0 .452.367.553.553 0 0 0 .53-.295l2.251-4.437c.898-1.77 1.842-3.633 2.697-5.313a875.159 875.159 0 0 1 2.156-4.216c.583-1.13.961-1.845 1.048-1.98.058-.09.261-.313.544-.512.29-.203.554-.302.734-.295a.34.34 0 0 1 .21.08c.073.058.17.175.257.402.181.466.29 1.298.185 2.698-.102 1.375-.778 4.6-1.754 8.718-.97 4.099-2.226 9.032-3.468 13.79-1.13 4.757-1.967 9.372-2.886 12.763-.46 1.695-.842 3.094-1.108 4.068-.134.487-.227 1.237-.298 1.496l-.017.063a.495.495 0 0 0-.018.13l2.107 15.149c0 .278.235.495.525.485a.538.538 0 0 0 .526-.522l-2.108-15.082c.072-.26.165-1.01.298-1.498.267-.975.65-2.374 1.109-4.07.92-3.394 1.87-7.96 2.888-12.772 1.244-4.761 2.501-9.703 3.475-13.812.968-4.09 1.668-7.403 1.777-8.873.108-1.447.011-2.45-.246-3.113-.131-.338-.312-.611-.552-.804a1.375 1.375 0 0 0-.816-.302c-.545-.023-1.06.244-1.418.495-.365.256-.682.576-.834.812-.122.19-.532.971-1.098 2.067a866.85 866.85 0 0 0-2.159 4.221c-.869 1.709-1.804 3.554-2.695 5.31l-1.609 3.171c-.446-1.776-.876-3.504-1.297-5.196-2.395-9.613-4.512-18.111-7.616-28.251Z" fill="#0C296E"/><path d="M28.227 14.582v3.752c2.238 7.759 3.99 14.789 5.927 22.566v.005a2540.87 2540.87 0 0 0 1.636 6.54.493.493 0 0 0 .452.367.553.553 0 0 0 .53-.295l2.251-4.436.008-.015c.895-1.767 1.837-3.623 2.69-5.299a865.844 865.844 0 0 1 2.155-4.215c.583-1.131.961-1.846 1.048-1.98.058-.09.261-.314.544-.513.29-.203.554-.302.734-.294a.34.34 0 0 1 .21.078c.073.06.17.176.257.404.181.466.29 1.298.185 2.697-.102 1.375-.778 4.601-1.754 8.719-.97 4.098-2.226 9.032-3.468 13.79a269.96 269.96 0 0 0-1.332 6.005c-.537 2.515-1.033 4.833-1.554 6.757l-.199.733h1.076l.139-.514c.854-3.15 1.734-7.313 2.67-11.743l.218-1.028c1.244-4.762 2.501-9.704 3.475-13.813.968-4.09 1.668-7.402 1.777-8.873.108-1.446.011-2.449-.246-3.113-.131-.338-.312-.61-.552-.803a1.376 1.376 0 0 0-.816-.303c-.545-.023-1.06.244-1.418.496-.365.256-.682.575-.834.811-.122.19-.532.971-1.098 2.068a870.889 870.889 0 0 0-2.159 4.22l-2.695 5.31-.004.009-1.605 3.163c-.446-1.777-.876-3.504-1.297-5.197-2.22-8.911-4.201-16.864-6.951-26.056Z" fill="#0C296E"/><path d="M55.586 88.962c-2.33-.16-4.724-.236-7.162-.236-9.805 0-20.119 1.054-28.299 1.054-4.593 0-8.504-.33-11.267-1.355-2.774-1.044-4.388-2.784-4.388-5.587v8.296c0 2.803 1.615 4.553 4.388 5.578 2.774 1.035 6.674 1.355 11.267 1.355 8.18 0 18.494-1.054 28.3-1.054 2.437 0 4.831.066 7.16.236v-8.287Z" fill="#00D6B9"/><path d="M29.195 102.093v6.575c4.553-.215 9.226-.408 13.817-.408 6.175 0 12.234.336 17.602 1.4v-6.535c-5.28-1.089-11.325-1.441-17.602-1.441-4.573 0-9.24.186-13.817.409Zm32.418.224v8.576a47.56 47.56 0 0 0-1-.213c-5.32-1.076-11.376-1.42-17.601-1.42-4.582 0-9.25.194-13.817.409l-1 .048v-8.576c4.883-.243 9.9-.457 14.817-.457 6.618 0 13.036.389 18.602 1.633Z" fill="#0C296E"/></g><defs><clipPath id="udtm0db468ma"><path fill="#fff" d="M0 0h120v120H0z"/></clipPath></defs></svg>