<svg width="120" height="120" viewBox="0 0 120 120" fill="none" xmlns="http://www.w3.org/2000/svg"><g clip-path="url(#udlv2n1qj7za)"><path d="M89.857 20.908c2.872 5.973.358 13.143-5.615 16.014L58.102 49.49c-5.972 2.872-13.142.358-16.014-5.615l-1.945-4.045 7.21-3.467 1.945 4.046a4 4 0 0 0 5.338 1.872l26.14-12.568a4 4 0 0 0 1.871-5.339l-3.89-8.09a4 4 0 0 0-5.338-1.873l-13.07 6.284-3.466-7.21 13.07-6.284c5.972-2.871 13.142-.357 16.014 5.615l3.89 8.092Z" fill="#BBBFC4" fill-opacity=".45"/><path d="M88.663 8.35c-.328-.512-.635-.92-.923-1.216-.279-.287-.588-.521-.929-.597-.395-.09-.743.053-.993.331-.221.248-.364.598-.465.976-.204.766-.294 1.888-.304 3.273-.022 2.852.711 4.992 1.48 7.129l.093.256c.74 2.052 1.49 4.131 1.7 6.947.044.572-.028 1.846-.194 3.577a162.085 162.085 0 0 1-.718 6.061c-.495 3.654-1.125 7.594-1.726 10.54-.9-2.539-2.416-6.033-4.011-8.98-1.007-1.86-2.064-3.537-3.035-4.621-.482-.538-.979-.972-1.475-1.19a1.63 1.63 0 0 0-.81-.15c-.29.027-.552.147-.773.346-.272.244-.413.597-.49.948-.078.36-.105.784-.098 1.243.013.919.162 2.06.366 3.274.193 1.146.44 2.378.68 3.577.014.076.03.151.045.226.254 1.275.497 2.502.66 3.56.543 3.51 1.65 10.052 2.785 13.404.778 2.293 6.039 14.07 7.515 17.142l-3.64 28.428a.5.5 0 1 0 .992.127l3.66-28.576a.5.5 0 0 0-.047-.281c-1.38-2.848-6.766-14.9-7.533-17.161-1.102-3.254-2.198-9.703-2.743-13.235-.168-1.084-.415-2.333-.669-3.604l-.044-.221c-.24-1.204-.484-2.422-.675-3.552-.202-1.203-.34-2.283-.352-3.123-.006-.42.02-.76.075-1.014.058-.264.135-.377.18-.418a.334.334 0 0 1 .2-.095.647.647 0 0 1 .313.07c.3.131.682.439 1.133.942.891.995 1.903 2.588 2.9 4.43 1.992 3.678 3.85 8.208 4.501 10.556a.5.5 0 0 0 .969-.018c.72-3.035 1.531-7.965 2.138-12.44.303-2.239.557-4.37.722-6.1.164-1.712.248-3.074.197-3.747-.221-2.954-1.012-5.146-1.75-7.192l-.1-.275c-.764-2.125-1.442-4.12-1.421-6.782.01-1.371.101-2.387.27-3.024.087-.324.18-.493.244-.566.033-.036.03-.026.03-.023.055.013.197.08.43.319.223.23.489.576.798 1.058.617.963 1.37 2.411 2.277 4.415 3.64 8.044 4.019 9.489 4.226 12.252.21 2.813-.15 9.357-.645 14.364a.5.5 0 1 0 .995.099c.495-5.008.856-11.555.638-14.462-.222-2.957-.662-4.618-4.303-12.666-.913-2.02-1.69-3.519-2.346-4.542Z" fill="#0C296E"/><path d="M89.504 9.06c.255-.613.624-1.501 1.115-2.183.314-.437.614-.693.876-.77.201-.06.487-.047.902.37l.001.001c.46.46 1.154 1.564 1.967 3.087.801 1.5 1.687 3.345 2.535 5.226 1.702 3.774 3.229 7.637 3.626 9.13 1.284 4.824 1.852 14.129 2.012 23.746.159 9.596-.088 19.433-.412 25.279l-.842 14.975a.5.5 0 0 0 .999.056l.841-14.976c.326-5.87.583-15.715.423-25.334-.16-9.597-.734-19.041-2.054-24.003-.421-1.583-1.98-5.514-3.682-9.285-.853-1.892-1.749-3.758-2.564-5.285-.802-1.503-1.56-2.742-2.142-3.323-.595-.598-1.246-.816-1.895-.623-.588.175-1.052.657-1.403 1.145-.57.792-1.008 1.852-1.256 2.451-.059.142-.106.257-.143.337a.5.5 0 0 0 .91.414c.054-.118.116-.266.186-.436Z" fill="#0C296E"/><path d="M91.078 5.493a.5.5 0 0 1 .654.269 445.518 445.518 0 0 0 2.32 5.417c1.45 3.344 2.96 6.83 3.968 9.487.822 2.165 1.196 5.317 1.335 8.568.14 3.267.043 6.689-.104 9.426a.5.5 0 0 1-.998-.054c.145-2.72.24-6.107.103-9.33-.139-3.236-.51-6.25-1.27-8.256-1.002-2.639-2.492-6.078-3.934-9.404a445.728 445.728 0 0 1-2.343-5.47.5.5 0 0 1 .269-.653Zm21.382 69.595c.19.371.287.75.287 1.124v8.733c0-.376-.097-.338-.287-.709-.187-.365-.471-.732-.84-1.09-.73-.707-1.819-1.4-3.236-2.063-1.392-.65-3.93-1.61-5.935-2.197l.814-8.816c2.006.587 3.729 1.215 5.121 1.865 1.417.664 2.506 1.358 3.236 2.063.369.358.652.725.84 1.09Z" fill="#0C296E"/><path d="M87.655 87.735c-7.41 1.167-20.557 1.247-35.537 1.247v8.063h.378c14.871 0 23.796 0 35.159-1.443 7.492-.951 18.168-3.137 23.042-7.867.747-.725 2.048-1.714 2.048-3.046v-8.04c0 2.38-2.66 4.015-4.364 5.103-3.211 2.05-13.317 4.815-20.726 5.983Z" fill="#00D6B9"/><path d="M11.922 105.536v-7.952c11.476 5.314 24.856 5.134 37.176 5.152v7.896c-12.73-.019-25.515.113-37.176-5.096Zm103.286-3.552c-.729.703-1.814 1.395-3.228 2.057-2.762 1.29-6.834 2.486-11.872 3.481-5.037.998-11.072 1.802-17.608 2.35-7.17.598-14.368.86-21.562.86v-7.985c7.15 0 14.392-.118 21.562-.717 6.537-.547 12.572-1.351 17.608-2.349 5.035-.995 9.109-2.19 11.872-3.481 1.634-.765 3.815-1.868 4.354-3.745v7.32c0 .743-.38 1.489-1.126 2.209Z" fill="#3370FF"/><path d="M23.561 61.21c-5.331-3.938-6.461-11.452-2.524-16.783L36.413 23.61c3.937-5.33 11.45-6.46 16.782-2.523l3.984 2.942-4.753 6.436-3.984-2.943a4 4 0 0 0-5.594.841L27.473 49.18a4 4 0 0 0 .84 5.594l7.857 5.802a4 4 0 0 0 5.634-.898l5.368-7.539 6.517 4.64-5.368 7.54c-3.89 5.465-11.507 6.678-16.904 2.692L23.56 61.21Z" fill="#BBBFC4" fill-opacity=".45"/><path d="M24.307 57.689c-1.128.5-1.947.938-2.308 1.223a1.69 1.69 0 0 0-.289.265.518.518 0 0 0-.097.206c-.029.11-.05.266-.07.523-.014.192-.025.42-.04.704l-.015.306a.518.518 0 0 1-.328.46c-1.152.433-3.062 1.328-4.937 2.428-1.861 1.091-3.625 2.348-4.594 3.515-.125.295-.196.778-.204 1.423l.425 4.145.06.348c.348 1.657.433 2.105.716 3.666a.519.519 0 0 1-.388.603.482.482 0 0 1-.57-.397 64.95 64.95 0 0 0-.18-.89c-.148-.726-.349-1.708-.534-2.76l-.05-.241a.531.531 0 0 1-.009-.055l-.012-.118c-.047-.28-.092-.563-.135-.846a29.209 29.209 0 0 1-.263-2.316c-.408.274-1.01.621-1.908 1.06-.343.169-.571.66-.513 1.702.055.987.36 2.225.762 3.462a39.53 39.53 0 0 0 1.259 3.31 44.3 44.3 0 0 0 .61 1.36l.037.075 12.396 19.505a.526.526 0 0 1 .067.4l-2.029 8.82a.495.495 0 0 1-.589.386.506.506 0 0 1-.36-.612l1.979-8.603L9.9 81.4a.516.516 0 0 1-.029-.05l.436-.238-.436.237-.003-.008-.01-.02-.039-.081c-.033-.07-.082-.173-.142-.304-.12-.262-.29-.637-.485-1.09a40.538 40.538 0 0 1-1.292-3.4c-.41-1.262-.75-2.603-.812-3.73-.06-1.072.123-2.229 1.085-2.7 1.292-.633 1.89-1.038 2.157-1.265.056-.048.095-.085.12-.112.015-.7.103-1.35.331-1.823a.526.526 0 0 1 .065-.103c1.083-1.332 3.006-2.685 4.908-3.8 1.76-1.032 3.556-1.893 4.775-2.378.014-.269.025-.5.04-.693.02-.271.047-.51.102-.72.06-.223.15-.412.287-.588.13-.165.29-.303.46-.437.47-.37 1.396-.851 2.517-1.35 1.14-.505 2.53-1.05 3.97-1.544 1.44-.495 2.935-.94 4.283-1.245 1.336-.303 2.57-.477 3.465-.4.533.045.923.377 1.092.832.162.438.109.951-.134 1.39-1.083 1.955-3.243 3.355-5.187 4.418-.58.317-1.172.62-1.715.898-.36.184-.698.357-.998.517-.628.333-1.094.61-1.386.847 1.709 6.087 3.97 11.92 7.164 17.701.185-.39.366-.86.544-1.399.301-.915.581-2.004.847-3.2.441-1.985.838-4.238 1.23-6.463.08-.463.162-.924.243-1.382.47-2.643.946-5.166 1.494-6.985.273-.903.576-1.68.93-2.214.347-.522.862-.977 1.535-.807.565.143.947.599 1.205 1.161.258.562.43 1.304.545 2.171.232 1.739.257 4.131.197 6.964-.039 1.85-.114 3.893-.194 6.083-.168 4.555-.36 9.744-.296 15.145a.534.534 0 0 1-.013.124c-1.646 7.362-3.372 13.331-4.272 16.445l-.123.425a.492.492 0 0 1-.61.35.51.51 0 0 1-.325-.634c.04-.134.08-.276.123-.424.897-3.101 2.608-9.02 4.243-16.321-.061-5.404.13-10.623.298-15.174.08-2.18.155-4.207.193-6.027.06-2.833.032-5.152-.188-6.8-.11-.827-.264-1.449-.459-1.873-.194-.423-.394-.577-.565-.62-.064-.016-.22-.027-.494.388-.266.401-.534 1.054-.799 1.934-.527 1.748-.993 4.208-1.465 6.863l-.242 1.371c-.392 2.225-.793 4.508-1.24 6.518-.27 1.215-.559 2.34-.876 3.304-.314.956-.667 1.784-1.076 2.38a.489.489 0 0 1-.418.217.477.477 0 0 1-.398-.245c-3.517-6.205-5.951-12.457-7.762-18.988a.533.533 0 0 1 .116-.497c.387-.43 1.092-.84 1.862-1.25.332-.176.68-.354 1.042-.539.525-.269 1.08-.552 1.66-.87 1.948-1.065 3.864-2.348 4.788-4.017.108-.196.109-.384.065-.502-.038-.102-.115-.183-.275-.196-.744-.064-1.86.082-3.178.38-1.305.296-2.766.731-4.183 1.217a49.429 49.429 0 0 0-3.892 1.515Z" fill="#0C296E"/><path d="M21.038 59.124a.495.495 0 0 1 .474.521c-.067 2.633.322 5.695.802 8.538.24 1.419.501 2.775.738 3.99.02.109.041.215.062.321.21 1.081.398 2.045.525 2.818a.515.515 0 0 1-.398.595.486.486 0 0 1-.564-.413 102.25 102.25 0 0 0-.52-2.79 163.536 163.536 0 0 1-.803-4.333c-.484-2.86-.887-6.005-.817-8.744a.504.504 0 0 1 .5-.503Zm-5.451 4.009a.488.488 0 0 1 .523.465c.23 3.324.7 7.871 1.252 12.835a.515.515 0 0 1-.429.573.485.485 0 0 1-.54-.44c-.552-4.964-1.025-9.531-1.257-12.88a.513.513 0 0 1 .451-.553Zm14.126-57.23a.5.5 0 0 1 .703-.081l9.1 7.204a.5.5 0 0 1-.62.784l-9.101-7.204a.5.5 0 0 1-.082-.703Zm14.351-1.071a.5.5 0 0 0-.397.585l1.062 5.538a.5.5 0 1 0 .982-.188L44.65 5.23a.5.5 0 0 0-.586-.397Zm9.849-.449a.5.5 0 0 1 .464.533l-.365 5.309a.5.5 0 1 1-.998-.069l.365-5.309a.5.5 0 0 1 .534-.464Z" fill="#0C296E"/></g><defs><clipPath id="udlv2n1qj7za"><path fill="#fff" d="M0 0h120v120H0z"/></clipPath></defs></svg>