<svg width="120" height="120" viewBox="0 0 120 120" fill="none" xmlns="http://www.w3.org/2000/svg"><path d="M6.611 18.274a.5.5 0 0 1 .586-.397l11.05 2.117a.5.5 0 0 1-.188.982l-11.05-2.117a.5.5 0 0 1-.398-.585Zm11.863-7.358a.5.5 0 0 1 .703.081l3.393 4.285a.5.5 0 1 1-.784.621l-3.394-4.285a.5.5 0 0 1 .082-.702Zm8.268-4.8a.5.5 0 0 1 .658.258l2.064 4.727a.5.5 0 0 1-.916.4l-2.064-4.727a.5.5 0 0 1 .258-.658Z" fill="#E0E0E0"/><path d="M3.923 49.108c0-3.726 2.156-7.402 6.587-10.73v8.763c-4.431 3.328-6.587 7.004-6.587 10.73v-8.763Z" fill="#fff" fill-opacity=".4"/><path d="M3.913 57.871c0 3.886 2.329 7.824 6.849 11.49.322.261.655.521 1 .78v-8.763c-3.342-2.507-5.64-5.16-6.849-7.842-.664-1.473-1-2.955-1-4.427v8.762Zm1-2.213c1.333 2.163 3.307 4.251 5.849 6.216v6.185c-3.966-3.4-5.849-6.894-5.849-10.188v-2.213Z" fill="#E0E0E0"/><path d="M73.588 91.354c-35.407-1.838-58.417-10.53-66.544-20.367v8.763c8.137 9.826 31.137 18.519 66.544 20.367v-8.763Z" fill="#4C88FF"/><path d="M54.245 103.494c-12.955-1.828-23.585-4.7-31.692-8.167v8.763c8.107 3.467 18.727 6.338 31.692 8.166v-8.762Z" fill="#41CCB9"/><path d="M68.06 57.747c-4.4 5.845-11.132 9.848-18.84 10.61l9.845 14.999L64.73 73.18l11.646-.213-8.318-15.22ZM44.771 68.432c-7.73-.501-14.591-4.275-19.186-9.968l-7.8 15.491 11.647-.18 6.008 9.979 9.33-15.322Z" fill="#fff" fill-opacity=".4"/><path d="M46.998 68.485c14.863-.251 26.708-12.503 26.457-27.366-.25-14.863-12.503-26.708-27.366-26.457-14.863.25-26.708 12.503-26.457 27.366.25 14.863 12.503 26.708 27.366 26.457Zm.226-38.767 3.395 6.384a.953.953 0 0 0 .708.496l7.16 1.015a.954.954 0 0 1 .551 1.606l-5.022 5.202a.954.954 0 0 0-.254.827l1.247 7.122a.954.954 0 0 1-1.357 1.022l-6.499-3.17a.954.954 0 0 0-.864.015L39.9 53.624a.954.954 0 0 1-1.39-.975l1.005-7.16a.953.953 0 0 0-.281-.818l-5.195-5.03a.954.954 0 0 1 .497-1.624l7.121-1.256a.954.954 0 0 0 .691-.52l3.178-6.495a.954.954 0 0 1 1.698-.028Z" fill="#fff" fill-opacity=".3"/><path d="M45.493 29.697a.954.954 0 0 1 1.699-.03l3.395 6.385a.953.953 0 0 0 .708.496l7.159 1.015a.953.953 0 0 1 .552 1.607l-5.022 5.201a.953.953 0 0 0-.254.827l1.247 7.122a.954.954 0 0 1-1.357 1.022l-6.499-3.17a.953.953 0 0 0-.864.015l-6.389 3.387a.954.954 0 0 1-1.39-.975l1.005-7.16a.953.953 0 0 0-.281-.818l-5.195-5.03a.954.954 0 0 1 .497-1.623l7.121-1.257a.954.954 0 0 0 .69-.52l3.178-6.495Z" fill="#fff" fill-opacity=".4"/><path d="M81.342 29.473a.5.5 0 0 1 .585.398c.19 1.004.626 4.758 1.011 8.226a1264.508 1264.508 0 0 1 .669 6.162l.059.56-.497.053.497-.053.003.063c-.046 2.26-1.567 4.168-3.841 4.364h-.011c-.62.04-1.303-.149-1.968-.43-.674-.287-1.377-.69-2.051-1.13-1.349-.88-2.627-1.94-3.396-2.606-1.433-1.229-2.937-2.178-4.28-2.751-1.364-.582-2.468-.736-3.158-.518-.041.015-.054.031-.067.062a.64.64 0 0 0-.018.307c.039.317.206.707.413.992l.006.008c.365.523.957 1.314 1.463 1.98a182.828 182.828 0 0 0 .844 1.101l.07.092h.001a7136.257 7136.257 0 0 0 14.06 17.98c2.593 3.307 5.183 6.612 7.769 9.918a.5.5 0 0 1 .104.26c.462 4.833.947 9.318 1.446 13.922.647 5.982 1.316 12.163 1.983 19.567a.5.5 0 0 1-.996.09c-.668-7.415-1.334-13.564-1.98-19.525-.492-4.554-.974-8.998-1.435-13.813a13220.33 13220.33 0 0 0-7.676-9.8c-4.69-5.985-9.386-11.976-14.064-17.984l-.001-.002-.073-.093a175.664 175.664 0 0 1-.848-1.108 71.647 71.647 0 0 1-1.484-2.009c-.287-.396-.531-.94-.595-1.453a1.61 1.61 0 0 1 .087-.813c.119-.285.343-.514.67-.626l.01-.004c1.044-.333 2.434-.06 3.861.549 1.453.62 3.043 1.63 4.54 2.913l.001.001c.758.655 1.997 1.682 3.29 2.526.646.422 1.294.791 1.894 1.046.606.257 1.118.377 1.509.354 1.675-.147 2.87-1.545 2.92-3.357l-.056-.528a1485.603 1485.603 0 0 0-.667-6.156c-.389-3.495-.82-7.195-1-8.15a.5.5 0 0 1 .397-.585Zm23.315-6.799c.169.306.314.76.381 1.342.069.595.105 2.241.119 4.42.013 2.163.004 4.813-.014 7.387a1443.994 1443.994 0 0 1-.096 9.143l-.012.834.5.009-.5-.008.003.06a55670.813 55670.813 0 0 0 2.851 27.158c.683 4.3 1.122 6.968 1.48 9.146.752 4.574 1.149 6.983 2.708 17.814a.5.5 0 1 0 .99-.142c-1.561-10.84-1.959-13.26-2.712-17.838a1520.25 1520.25 0 0 1-1.477-9.124c-.947-9.016-1.895-18.03-2.843-27.089l.012-.806.029-2.226c.022-1.852.049-4.349.067-6.924.018-2.575.027-5.23.014-7.4-.014-2.154-.049-3.866-.125-4.528-.078-.676-.252-1.264-.501-1.713-.238-.43-.596-.819-1.079-.91-.532-.1-.984.194-1.298.635-.31.437-.549 1.09-.71 1.953-.313 1.68-.852 5.884-1.31 9.647-.23 1.886-.44 3.667-.593 4.977l-.182 1.567-.066.583.496.057.497.056.067-.582.181-1.565c.153-1.309.363-3.089.593-4.972.459-3.777.994-7.943 1.3-9.585.148-.797.352-1.289.543-1.556.182-.257.287-.234.296-.232.053.01.211.088.391.412Zm-3.924 18.52a.5.5 0 0 0 .553-.44l-.497-.056-.496-.057a.5.5 0 0 0 .44.553Z" fill="#E0E0E0"/><path d="M85.201 26.52a.5.5 0 0 0 .363.607l.122-.485.122-.485a.5.5 0 0 0-.607.363Zm9.306 3.647c1.196.566 2.11 1.137 2.562 1.658v.001c.403.462.819 1.288 1.216 2.326.392 1.024.747 2.2 1.046 3.32a62.862 62.862 0 0 1 .95 4.125l.013.065.003.017.001.005.491-.092.492-.092-.001-.006-.004-.018-.013-.068-.051-.26a64.468 64.468 0 0 0-.915-3.934c-.304-1.137-.669-2.35-1.078-3.42-.403-1.053-.87-2.021-1.395-2.624-.6-.692-1.683-1.336-2.889-1.907-1.225-.58-2.65-1.119-3.997-1.577a73.442 73.442 0 0 0-5.018-1.5l-.083-.021-.022-.006-.007-.002-.122.485-.122.485.006.002.02.005.08.02.307.08a72.408 72.408 0 0 1 4.64 1.398c1.329.453 2.713.977 3.89 1.535Zm6.374 11.917a.501.501 0 0 0 .4-.584l-.492.092-.491.092a.5.5 0 0 0 .583.4Z" fill="#E0E0E0"/><path d="M78.284 26.375c1.85-.083 4.244.167 6.096.422l.01.001c.723.083 1.33.24 1.745.599.304.285.478.718.643 1.23l.003.009c.937 2.733 1.344 4.663 2.045 8.364a.5.5 0 1 0 .983-.186c-.702-3.708-1.12-5.697-2.08-8.498-.164-.507-.402-1.177-.919-1.657l-.011-.01c-.657-.573-1.53-.756-2.289-.844-1.86-.256-4.33-.516-6.274-.429h-.008c-.706.043-1.501.13-2.18.481l-.012.006c-.64.353-1.124.903-1.528 1.362a35.806 35.806 0 0 1-.147.168c-.721.893-1.845 2.277-2.892 3.566l-.43.53c-.876 1.076-1.645 2.022-2.001 2.463l-.008.01c-.453.59-.743 1.493-.398 2.243.384.835 1.364 1.144 2.74.896.708-.126 1.503-.559 2.262-1.078.772-.529 1.561-1.186 2.266-1.822a40.244 40.244 0 0 0 2.347-2.306l3.174.355a.5.5 0 1 0 .111-.994l-3.425-.383a.5.5 0 0 0-.425.16l-.003.003-.009.01-.035.039-.14.15c-.123.13-.3.318-.522.544a39.306 39.306 0 0 1-1.742 1.68c-.688.62-1.441 1.245-2.162 1.739-.735.503-1.384.831-1.873.919-1.224.22-1.564-.13-1.655-.33-.13-.28-.049-.781.28-1.212.356-.442 1.121-1.384 1.994-2.457l.43-.529c1.043-1.284 2.164-2.663 2.887-3.559l.118-.133c.421-.477.787-.89 1.262-1.154.475-.243 1.08-.326 1.772-.368Zm13.436 1.639a.5.5 0 0 0-.263.656c1.23 2.879 2.294 5.836 3.07 8.872a.5.5 0 1 0 .97-.248c-.792-3.097-1.875-6.103-3.12-9.017a.5.5 0 0 0-.656-.263Z" fill="#E0E0E0"/><path d="M116.086 80.117c0-1.58-.872-4.295-2.916-7.312-1.041-1.537-3.047-3.947-5.389-5.335l1.171 10.15c.911.26 3.351 3.805 4.218 5.18 1.412 2.24 2.916 4.5 2.916 6.08v-8.763Z" fill="#fff" fill-opacity=".4"/><path d="M83.16 91.651c-.645 0-1.308-.02-1.961-.03v8.763c.653.01 1.326.03 1.96.03 22.482 0 32.928-6.756 32.928-11.902v-8.763c0 5.147-10.446 11.902-32.928 11.902Z" fill="#4C88FF"/></svg>