<svg width="350" height="350" viewBox="0 0 350 350" fill="none" xmlns="http://www.w3.org/2000/svg"><g filter="url(#udbsv3h8zsva)"><path d="M288.704 309.706c9.572 0 17.332-7.76 17.332-17.332 0-9.572-7.76-17.331-17.332-17.331-9.571 0-17.331 7.759-17.331 17.331s7.76 17.332 17.331 17.332Z" fill="#FAC823"/></g><path d="M115.571 56.19a8 8 0 0 1 8-8h178.842a8 8 0 0 1 8 8v88.654H250.69a4 4 0 0 0-4 4v23.318H123.571a8 8 0 0 1-8-8V56.189Z" fill="#42BDEB"/><path d="M119.7 51.434a.5.5 0 0 1 .703-.072l87.855 71.481a7.5 7.5 0 0 0 9.467 0l87.854-71.48a.5.5 0 0 1 .632.775l-87.855 71.481a8.5 8.5 0 0 1-10.729 0l-87.855-71.481a.5.5 0 0 1-.072-.703Z" fill="#2851A3"/><path d="M181.247 100.748a.5.5 0 0 1 .031.707l-61.712 67.389a.5.5 0 0 1-.738-.676l61.713-67.388a.5.5 0 0 1 .706-.032Zm64.539 0a.5.5 0 0 1 .707.031l61.713 67.389a.5.5 0 0 1-.738.675l-61.713-67.389a.5.5 0 0 1 .031-.706Z" fill="#2851A3"/><g opacity=".8" filter="url(#udiwsxj85h5b)"><path d="M246.628 148.969a4 4 0 0 1 4-4h59.785v19.194a8 8 0 0 1-8 8h-55.785v-23.194Z" fill="#42BDEB"/></g><path d="M99.514 195.693a4 4 0 0 1 4-4h57.046a4 4 0 0 1 4 4v32.894a4 4 0 0 1-4 4h-57.046a4 4 0 0 1-4-4v-32.894Z" fill="#373737"/><path d="M99.014 195.693a4.5 4.5 0 0 1 4.5-4.5h57.046a4.5 4.5 0 0 1 4.5 4.5v32.894a4.5 4.5 0 0 1-4.5 4.5h-57.046a4.5 4.5 0 0 1-4.5-4.5v-32.894Zm4.5-3.5a3.5 3.5 0 0 0-3.5 3.5v32.894a3.5 3.5 0 0 0 3.5 3.5h57.046a3.5 3.5 0 0 0 3.5-3.5v-32.894a3.5 3.5 0 0 0-3.5-3.5h-57.046Z" fill="#E0E0E0"/><path d="m100.569 193.12 28.979 23.023a4 4 0 0 0 4.977 0l28.979-23.023" fill="#373737"/><path d="M100.177 192.809a.5.5 0 0 1 .703-.08l28.979 23.023a3.5 3.5 0 0 0 4.355 0l28.979-23.023a.5.5 0 1 1 .622.783l-28.979 23.023a4.501 4.501 0 0 1-5.599 0l-28.979-23.023a.502.502 0 0 1-.081-.703Z" fill="#E0E0E0"/><path d="M121.912 210.075a.5.5 0 0 1 .026.707l-21.785 23.432a.5.5 0 1 1-.732-.681l21.784-23.432a.5.5 0 0 1 .707-.026Zm20.523 0a.5.5 0 0 0-.026.707l19.906 21.412a.5.5 0 1 0 .733-.681l-19.907-21.412a.5.5 0 0 0-.706-.026Z" fill="#E0E0E0"/><path d="M155.39 267.074a4 4 0 0 1 4-4h42.736a4 4 0 0 1 4 4v23.898a4 4 0 0 1-4 4H159.39a4 4 0 0 1-4-4v-23.898Z" fill="#fff" fill-opacity=".3"/><path d="M158.048 265.247a.5.5 0 0 1 .703-.081l19.83 15.754a3.499 3.499 0 0 0 4.354 0l19.83-15.754a.5.5 0 0 1 .622.783l-19.83 15.754a4.5 4.5 0 0 1-5.598 0l-19.83-15.754a.5.5 0 0 1-.081-.702Z" fill="#373737"/><path d="M173.677 277.477a.5.5 0 0 1 .025.706l-14.118 15.187a.5.5 0 0 1-.732-.681l14.118-15.187a.5.5 0 0 1 .707-.025Zm14.357 0a.5.5 0 0 0-.026.706l14.118 15.187a.5.5 0 0 0 .733-.681l-14.119-15.187a.5.5 0 0 0-.706-.025Z" fill="#373737"/><path d="M15.81 329.371a.5.5 0 0 1 .5-.5h306.202a.5.5 0 0 1 0 1H16.31a.5.5 0 0 1-.5-.5Zm217.692-72.707a2 2 0 1 0 0-4 2 2 0 0 0 0 4Zm3-2a3 3 0 1 1-6 0 3 3 0 0 1 6 0Zm7 2a2 2 0 1 0 .001-3.999 2 2 0 0 0-.001 3.999Zm3-2a3 3 0 1 1-6 0 3 3 0 0 1 6 0Zm6.999 3a3 3 0 1 0 0-6 3 3 0 0 0 0 6Z" fill="#E0E0E0"/><path d="M288.7 252.282a.5.5 0 0 1-.494-.5c0-3.187.656-5.826 2.017-7.682a6.89 6.89 0 0 1 2.084-1.897h-57.28c-6.539 0-11.84 5.302-11.84 11.841v62.301a.5.5 0 0 1-1 0v-62.301c0-7.092 5.749-12.841 12.84-12.841h11.101v-92.236a4.5 4.5 0 0 1 4.5-4.5h64.508a4.5 4.5 0 0 1 4.5 4.5v106.749a8.086 8.086 0 0 1-8.086 8.086h-22.845a.5.5 0 0 1-.005-1v-10.52Zm-41.572-11.079h48.864a7.79 7.79 0 0 1 8.286 7.774v6.538a7.795 7.795 0 0 0 5.033 7.287h2.239a7.086 7.086 0 0 0 7.086-7.086V148.967a3.5 3.5 0 0 0-3.5-3.5h-64.508a3.5 3.5 0 0 0-3.5 3.5v92.236Z" fill="#E0E0E0"/><path d="M289.2 251.781a.5.5 0 0 0-1 0v63.241c0 .026.002.051.006.076v6.637a7.11 7.11 0 0 1-7.109 7.109 7.11 7.11 0 0 1-7.109-7.109v-.709a4.5 4.5 0 0 0-4.5-4.5h-59.021a3.938 3.938 0 0 0-3.938 3.938 9.383 9.383 0 0 0 9.384 9.383h10.812a.5.5 0 1 0 0-1h-10.812a8.383 8.383 0 0 1-8.384-8.383 2.938 2.938 0 0 1 2.938-2.938h59.021a3.5 3.5 0 0 1 3.5 3.5v.709a8.11 8.11 0 0 0 8.109 8.109 8.11 8.11 0 0 0 8.109-8.109v-38.768a.456.456 0 0 0-.006-.075v-31.111Zm-32.408-66.767a.5.5 0 0 0 .5.5h39.375a.5.5 0 0 0 0-1h-39.375a.5.5 0 0 0-.5.5Zm0 11.91a.5.5 0 0 1 .5-.5h32.51a.5.5 0 1 1 0 1h-32.51a.5.5 0 0 1-.5-.5Z" fill="#E0E0E0"/><path d="M229.654 268.008a.5.5 0 0 1 .5-.5h39.376a.5.5 0 0 1 0 1h-39.376a.5.5 0 0 1-.5-.5Zm0 10.262a.5.5 0 0 1 .5-.5h32.511a.5.5 0 1 1 0 1h-32.511a.5.5 0 0 1-.5-.5Z" fill="#E0E0E0"/><path d="m26.01 139.652.045-.023 18.79 25.947 2.176 2.606-3.297 20.46c-1.295-1.786-1.92-3.994-2.074-6.194-.154-2.199.14-4.407.554-6.577.218-1.154.474-2.32.395-3.493-.08-1.173-.55-2.38-1.51-3.061l-.733-.677s-23.013-20.697-25.282-23.709c-5.115-6.712-.354-12.217 1.072-13.676 2.868-2.937 10.974-8.07 17.462-13.222l9.672 12.755c-5.743 2.949-11.527 5.919-17.27 8.864Z" fill="#EBEBEB"/><path d="M33.67 117.537a.501.501 0 0 1 .336.194l9.672 12.755a.5.5 0 0 1-.17.747l-3.54 1.817a28358.59 28358.59 0 0 1-13.166 6.758l18.438 25.46 2.164 2.593a.5.5 0 0 1 .11.4l-3.297 20.46a.5.5 0 0 1-.898.214c-1.364-1.882-2.009-4.186-2.168-6.452-.158-2.264.145-4.521.561-6.705l.062-.325c.203-1.057.393-2.048.326-3.041-.073-1.084-.505-2.123-1.3-2.687a.518.518 0 0 1-.05-.04l-.729-.673v-.001l-.004-.003-.012-.011-.243-.218-.734-.663a1580.108 1580.108 0 0 1-10.8-9.833 668.01 668.01 0 0 1-8.592-8.015c-2.46-2.349-4.362-4.24-4.961-5.035-2.659-3.49-2.77-6.712-1.996-9.256.764-2.512 2.377-4.322 3.11-5.072 1.471-1.507 4.257-3.553 7.439-5.837l1.348-.965c2.85-2.04 5.935-4.249 8.721-6.461a.498.498 0 0 1 .374-.105Zm-7.897 22.555a.5.5 0 0 1 .009-.885c4.565-2.341 9.156-4.698 13.732-7.047l3.007-1.544-9.003-11.874c-2.7 2.122-5.65 4.234-8.363 6.176l-1.344.963c-3.21 2.304-5.911 4.293-7.307 5.723-.694.709-2.174 2.381-2.869 4.664-.684 2.252-.619 5.138 1.836 8.36l.002.002c.536.712 2.362 2.537 4.853 4.915a666.98 666.98 0 0 0 8.578 8.002 1592.222 1592.222 0 0 0 10.793 9.827l.734.662.259.232-.334.372.334-.372.005.005.71.656c1.106.8 1.608 2.163 1.692 3.415.077 1.13-.139 2.25-.338 3.287l-.064.333c-.411 2.155-.696 4.314-.546 6.449.119 1.691.523 3.366 1.294 4.829l3.048-18.915-2.03-2.431a.828.828 0 0 1-.02-.027l-18.668-25.777Z" fill="#2851A3"/><path d="M53.007 303.678c-.831 22.374-3.601 18.328-2.818 25.585l23.122-.003c1.704.007 3.021.003 3.021.003s-.131-2.918-4.425-4.354c-4.294-1.44-10.282-5.257-10.869-6.904 0 0 .742-8.856 1.175-14.049" fill="#EBEBEB"/><path d="M53.026 303.178a.5.5 0 0 1 .481.518c-.417 11.209-1.32 15.83-2.03 18.569-.12.463-.232.862-.333 1.224-.203.725-.363 1.301-.469 1.942-.14.852-.176 1.81-.034 3.332l8.827-.002 13.843-.001h.002c.851.003 1.606.004 2.148.004h.257a3.918 3.918 0 0 0-.412-.874c-.504-.805-1.514-1.823-3.558-2.507-2.196-.737-4.803-2.072-6.934-3.427-1.066-.678-2.025-1.369-2.76-2.001a9.04 9.04 0 0 1-.935-.913c-.244-.283-.448-.578-.552-.869a.5.5 0 0 1-.027-.21l.498.042-.498-.042.425-5.077.75-8.972a.5.5 0 1 1 .996.084l-.75 8.971-.414 4.955c.058.116.163.271.33.465.206.24.486.512.83.808.687.591 1.603 1.254 2.644 1.915 2.083 1.326 4.617 2.619 6.715 3.323 2.25.752 3.453 1.911 4.088 2.924.314.502.483.959.574 1.296a3.605 3.605 0 0 1 .1.529l.003.037v.016l.001.002c0 .001 0 .002-.5.024l.5-.022a.498.498 0 0 1-.498.522l-.233.001h-.64c-.543 0-1.299-.001-2.151-.004l-13.842.001-9.279.002v-.5.5a.5.5 0 0 1-.498-.446c-.198-1.842-.175-2.998-.003-4.048.115-.696.298-1.352.51-2.112.098-.354.203-.73.31-1.143.687-2.646 1.585-7.189 2-18.355a.5.5 0 0 1 .518-.481Z" fill="#2851A3"/><path d="M101.668 304.452c3.23 10.093 3.242 13.445 2.242 17.945s.358 6.862.358 6.862 25.113.113 31.571.113c.269-2.742-3.652-3.643-5.536-4.408-3.966-1.609-14.188-4.072-15.629-7.648-1.438-3.565-2.764-12.864-2.764-12.864" fill="#EBEBEB"/><path d="M135.58 329.517c-6.38 0-31.32-.11-31.57-.11a.502.502 0 0 1-.48-.37 11.715 11.715 0 0 1-.09-5.45c.5-3.3 1.19-7.81-2.5-19.34a.5.5 0 0 1 .32-.63.513.513 0 0 1 .63.33c3.76 11.75 3.06 16.4 2.54 19.79a11.008 11.008 0 0 0 0 4.67c3.1 0 24.09.1 30.68.11-.21-1.64-2.51-2.46-4.23-3.08-.36-.13-.7-.25-1-.37-.91-.36-2.15-.78-3.58-1.25-5-1.66-11.13-3.71-12.33-6.67-1.44-3.58-3-14.71-3.07-15.18a.493.493 0 0 1 .092-.372.51.51 0 0 1 .328-.198.514.514 0 0 1 .57.43c0 .11 1.61 11.48 3 14.95 1 2.52 7.46 4.67 11.71 6.09 1.45.48 2.7.9 3.64 1.28l1 .35c2.05.74 5.16 1.85 4.89 4.57a.494.494 0 0 1-.354.432.5.5 0 0 1-.196.018Z" fill="#2851A3"/><path d="M112.868 309.428a.377.377 0 0 1-.373.417h-9.434a.372.372 0 0 1-.369-.301l-.418-2.087a.375.375 0 0 1 .079-.312.367.367 0 0 1 .29-.139h9.615c.192 0 .35.143.373.335l.237 2.087Zm-.095 2.011c.189 0 .347.136.373.324l.29 2.091a.376.376 0 0 1-.373.425h-8.874a.379.379 0 0 1-.365-.29l-.497-2.087a.376.376 0 0 1 .365-.463h9.081ZM45.81 168.644c2.26-5.853 5.17-11.352 8.41-16.641a.499.499 0 0 1 .425-.239h27.153a.5.5 0 0 1 .478.354l.238.782.673 2.22a11673.154 11673.154 0 0 1 10.004 33.181c5.65 18.849 11.695 39.252 13.256 45.394a.433.433 0 0 1 .007.035c.776 4.304 2.751 22.071 4.528 38.727a6998.436 6998.436 0 0 1 3.294 31.57l.072.7v.002a.502.502 0 0 1-.511.551l-12.276-.334a.501.501 0 0 1-.448-.308c-8.415-20.157-10.254-33.712-11.124-44.851-.132-1.683-.241-3.308-.348-4.89-.598-8.889-1.105-16.413-4.922-25.234-1.307-3.022-2.68-5.999-4.289-8.83-.784-1.379-2.376-3.504-4.387-6.189l-.376-.503a290.01 290.01 0 0 1-4.177-5.689l-4.89 96.354a.5.5 0 0 1-.499.475h-13.34a.5.5 0 0 1-.5-.475l-.021-.404-.062-1.17a2128.993 2128.993 0 0 0-1.132-19.426c-.763-12.139-1.84-27.547-3.093-40.637a1863.307 1863.307 0 0 0-1.518-15.01c-1.054-10.145-2.07-19.913-2.623-28.689-.412-6.528-.57-12.523-.299-17.734.271-5.206.972-9.661 2.296-13.092Zm-22.334-32.248a.5.5 0 0 1 .7.081l2.27 2.839a.5.5 0 0 1-.168.759l-.045.023a.5.5 0 0 1-.618-.14l-2.224-2.862a.5.5 0 0 1 .085-.7Z" fill="#2851A3"/><path d="M65.035 111.18c6.12 1.61 12.235-.549 16.33-5.125-.125-.034-.241-.094-.37-.109-5.648-.643-6.72-4.832-7.511-8.641H63.18c-.354 5.516-1.28 8.558-5.574 9.254 2.074 2.185 4.468 3.963 7.43 4.621Z" fill="#EBEBEB"/><path d="M62.681 97.273a.5.5 0 0 1 .499-.468h10.304a.5.5 0 0 1 .49.398c.396 1.913.848 3.82 1.86 5.332.987 1.476 2.534 2.609 5.218 2.914h.002a1.413 1.413 0 0 1 .36.097c.035.012.056.02.082.027a.498.498 0 0 1 .241.815c-4.206 4.701-10.506 6.935-16.82 5.278-3.092-.689-5.566-2.543-7.673-4.763a.5.5 0 0 1 .282-.838c2.015-.326 3.174-1.179 3.903-2.559.757-1.433 1.075-3.474 1.252-6.233Zm.966.532c-.183 2.543-.516 4.621-1.334 6.168-.77 1.456-1.949 2.41-3.711 2.885 1.882 1.84 4.004 3.27 6.542 3.834l.018.005c5.628 1.48 11.26-.328 15.223-4.33-2.64-.428-4.299-1.656-5.383-3.276-1.055-1.578-1.544-3.5-1.924-5.286h-9.43Z" fill="#2851A3"/><path d="M136.233 112.445a.502.502 0 0 0-.73-.012l-21.901 22.67c-1.898-2.412-4.292-5.695-6.698-8.994a845.685 845.685 0 0 0-3.524-4.808.5.5 0 0 0-.856.506L88.5 128.256l-.13-.13a.5.5 0 1 0-.709.705l.355-.353c-.355.353-.354.354-.354.354l.187.187.537.537a719.993 719.993 0 0 0 8.345 8.185c4.918 4.741 10.65 10.102 13.819 12.49 1.209.909 2.391 1.375 3.567 1.408 1.177.032 2.288-.371 3.352-1.088 2.1-1.415 4.117-4.127 6.274-7.493 1.035-1.615 2.109-3.393 3.248-5.277 3.652-6.041 7.971-13.186 13.796-19.626a.5.5 0 0 0 0-.671l-4.554-5.039Z" fill="#EBEBEB"/><path d="M81.503 105.577a.5.5 0 0 0-.511.147c-3.981 4.45-9.908 6.533-15.83 4.975l-.018-.004c-2.827-.628-5.137-2.334-7.18-4.478a.498.498 0 0 0-.535-.124c-.214.079-.423.151-.634.224l-.253.088c-.435.15-1.12.296-1.998.461l-1.005.183c-.619.112-1.289.233-1.975.368-2.161.425-4.6 1.005-6.505 1.953-3.557 1.77-7.09 4.56-11.763 8.273a.5.5 0 0 0-.087.694l9.672 12.755a.5.5 0 0 0 .627.142l2.557-1.312 2.004-1.028 6.103 23.119a.5.5 0 0 0 .477.372l27.137.38a.5.5 0 0 0 .49-.373l6.151-23.356a.498.498 0 0 0-.034-.346l14.13-6.868.056.075a.5.5 0 0 0 .804-.595c-1.348-1.821-2.614-3.501-3.7-4.862l-.005-.007c-1.843-2.306-3.757-4.7-6.175-6.535a18.444 18.444 0 0 0-6.662-3.197c-.81-.203-1.633-.352-2.435-.497l-.283-.052c-.899-.163-1.772-.331-2.62-.575Z" fill="#4C88FF"/><path d="M59.606 178.398a.5.5 0 0 1 .445.55c-.626 5.872.889 11.119 3.474 16.263 2.045 4.069 4.742 8.042 7.566 12.202.759 1.118 1.527 2.25 2.294 3.401a.5.5 0 1 1-.832.554 498.763 498.763 0 0 0-2.27-3.363c-2.829-4.168-5.574-8.212-7.651-12.344-2.64-5.252-4.228-10.695-3.576-16.818a.5.5 0 0 1 .55-.445Z" fill="#EBEBEB"/><path d="M102.681 121.196a.498.498 0 0 1 .699.105c1.731 2.342 3.924 5.335 6.063 8.254 2.541 3.468 5.005 6.832 6.528 8.876a.5.5 0 0 1-.802.598 1826.213 1826.213 0 0 1-6.538-8.89c-2.139-2.919-4.33-5.91-6.055-8.244a.5.5 0 0 1 .105-.699Zm-55.873.883a.5.5 0 0 1 .61.358l1.185 4.565 1.186 4.565a.5.5 0 0 1-.968.252l-1.185-4.565v-.001l-1.186-4.565a.5.5 0 0 1 .358-.609Z" fill="#2851A3"/><path d="M80.41 78.397c.347 1.515 1.38 5.98 1.38 5.98l2.521 3.008-1.174 1.026s.286 2.76.128 4.283c-.188 1.839-.967 2.866-2.442 3.347-.587.192-15.791-1.045-16.702-1.076" fill="#EBEBEB"/><path d="M80.22 96.589c-1.26 0-4.74-.24-12.7-.83-1.88-.14-3.36-.26-3.61-.26a.5.5 0 1 1 0-1c.27 0 1.69.11 3.65.26 4 .3 12.26.92 12.93.83 1.26-.42 1.88-1.29 2.05-2.91a26.862 26.862 0 0 0-.13-4.19.51.51 0 0 1 .17-.42l.81-.71-2.21-2.63a.41.41 0 0 1-.1-.21s-1-4.47-1.38-6a.512.512 0 0 1 1-.22c.31 1.37 1.19 5.15 1.35 5.86l2.45 2.91a.5.5 0 0 1-.06.7l-1 .86a26.25 26.25 0 0 1 .11 4.13 3.93 3.93 0 0 1-2.79 3.77 2.628 2.628 0 0 1-.54.06Z" fill="#2851A3"/><path d="M80.344 96.39c-1.231 0-4.634-.227-12.416-.819l-3.529-.256a.487.487 0 0 1-.489-.493.487.487 0 0 1 .489-.493l3.568.257c3.911.296 11.986.907 12.641.818.59-.2 1.1-.588 1.453-1.105a2.92 2.92 0 0 0 .503-1.763 26.463 26.463 0 0 0-.127-4.12.537.537 0 0 1 .166-.423l.792-.69-2.073-2.602a.405.405 0 0 1-.098-.207l-.977-4.485a.51.51 0 0 1 .202-.522.498.498 0 0 1 .775.306l.978 4.366 2.395 2.877a.496.496 0 0 1-.058.69l-.978.838c.142 1.352.178 2.713.107 4.07a3.894 3.894 0 0 1-.753 2.313 3.843 3.843 0 0 1-1.974 1.403 2.008 2.008 0 0 1-.597.04Z" fill="#2851A3"/><path d="M81.47 79.014c-.57-1.894-1.98-3.567-3.83-4.868-1.852-1.303-4.176-2.257-6.635-2.702-4.91-.888-10.472.243-13.903 4.849-2.543 3.351-3.402 7.652-3.604 11.745-.092 1.877-.06 3.758-.028 5.618l.009.504c.034 2.031.054 4.04-.097 6.037a.5.5 0 0 0 .499.538h25.463a.501.501 0 0 0 .494-.574l-2.591-17.495 4.05-3.112a.5.5 0 0 0 .174-.54Z" fill="#2851A3"/><path d="m140.504 117.844 1.622-.992c3.876-1.674 9.019-5.872 9.019-5.872.804-.269 8.367-2.604 8.07-3.221-.098-.203-.38-.214-.606-.195-1.441.131-2.888.86-4.31 1.115l-2.352.583c2.435-1.421 4.818-3.481 7.117-5.109 0 0 1.316-1.557.975-2.177-.341-.62-2.619.052-2.95.244-6.065 3.512-1.679.676 1.855-1.869.293-.244.555-.955.359-1.286-5.544 2.068-10.991 4.561-16.455 6.825-.171-2.13.062-4.255.087-6.392.004-.403-.546-.97-.761-.433-1.836 4.573-3.966 7.318-5.43 12.022l-1.099 1.598" fill="#EBEBEB"/><path d="M143.288 98.949c.082.152.148.346.146.554-.008.766-.042 1.513-.075 2.248-.052 1.149-.103 2.272-.055 3.408 1.613-.673 3.23-1.367 4.851-2.062 3.632-1.558 7.286-3.125 10.973-4.5a.5.5 0 0 1 .605.214c.111.189.139.396.137.567a1.834 1.834 0 0 1-.086.511c-.094.302-.273.64-.521.847l-.027.021-.761.544c.343-.06.717-.1 1.045-.074.284.023.738.11.957.508.189.345.114.733.029.996a3.98 3.98 0 0 1-.401.827 8.06 8.06 0 0 1-.596.841l-.045.055-.013.015-.003.005-.002.001-.382-.322.382.323a.5.5 0 0 1-.093.085 83.49 83.49 0 0 0-2.432 1.814c-.351.268-.706.539-1.064.809-.41.31-.824.618-1.242.918.457-.109.922-.259 1.411-.417l.268-.086c.718-.23 1.488-.462 2.269-.533l.004-.001a1.71 1.71 0 0 1 .506.026.852.852 0 0 1 .592.451c.143.297-.007.554-.087.657a1.354 1.354 0 0 1-.309.277 6.102 6.102 0 0 1-.87.464c-.7.319-1.659.683-2.639 1.031a137.29 137.29 0 0 1-3.965 1.324l-.407.131-.16.129a66.453 66.453 0 0 1-2.85 2.141c-1.766 1.256-4.041 2.74-6.022 3.601l-1.592.973a.5.5 0 1 1-.522-.853l1.622-.992a.465.465 0 0 1 .063-.032c1.887-.815 4.107-2.257 5.872-3.512a70.908 70.908 0 0 0 2.805-2.108l.168-.134.043-.035.013-.011a.488.488 0 0 1 .158-.087c.097-.032.281-.092.532-.172.836-.268 2.406-.772 3.907-1.305a47.447 47.447 0 0 0 1.756-.658 25.17 25.17 0 0 0-.844.265c-.622.201-1.28.414-1.934.533l-2.336.579a.5.5 0 0 1-.373-.917c1.191-.696 2.376-1.551 3.561-2.445.347-.262.695-.528 1.043-.794.812-.62 1.624-1.241 2.422-1.808l.01-.013a6.848 6.848 0 0 0 .523-.735c.134-.219.244-.434.301-.612a.801.801 0 0 0 .04-.176.784.784 0 0 0-.153-.024 3.41 3.41 0 0 0-.795.062 7.397 7.397 0 0 0-1.174.311 1.773 1.773 0 0 0-.099.04l-.034.016c-1.511.875-2.391 1.366-2.797 1.564a1.988 1.988 0 0 1-.278.117.541.541 0 0 1-.098.022.523.523 0 0 1-.468-.17.502.502 0 0 1-.122-.298c-.011-.157.055-.27.07-.296a.662.662 0 0 1 .118-.146c.03-.03.063-.06.097-.088.067-.057.154-.125.255-.2a86.12 86.12 0 0 1 2.007-1.426c.788-.552 1.679-1.175 2.509-1.772a.612.612 0 0 0 .103-.147c-3.411 1.298-6.781 2.743-10.154 4.19-1.844.79-3.689 1.582-5.542 2.349a.498.498 0 0 1-.69-.421c-.115-1.433-.05-2.891.014-4.315.028-.628.055-1.248.067-1.857-.728 1.742-1.496 3.229-2.237 4.664l-.429.832c-.941 1.838-1.824 3.67-2.543 5.981a.498.498 0 0 1-.066.135l-1.099 1.597a.5.5 0 1 1-.824-.567l1.057-1.535c.74-2.359 1.646-4.232 2.585-6.067l.434-.842c.812-1.572 1.632-3.161 2.402-5.078.091-.226.271-.46.577-.52.28-.055.514.068.652.173.148.112.266.263.349.417Zm11.176 5.211c-.001 0 0 0 0 0-.006.005-.006.005 0 0Z" fill="#EBEBEB"/><path d="M87.539 128.143a.5.5 0 0 1 .707-.012c1.177 1.137 2.736 2.748 4.513 4.585l.997 1.03c2.195 2.266 4.665 4.796 7.159 7.199 2.495 2.405 5.006 4.674 7.283 6.424 2.296 1.765 4.288 2.947 5.756 3.258a.5.5 0 0 1-.207.979c-1.71-.363-3.858-1.676-6.159-3.444-2.32-1.783-4.861-4.082-7.367-6.497-2.507-2.416-4.987-4.956-7.184-7.223l-1-1.033c-1.778-1.839-3.322-3.435-4.486-4.559a.5.5 0 0 1-.012-.707Z" fill="#2851A3"/><path d="M160.038 99.914a.5.5 0 0 1-.056.705c-.308.262-.983.704-1.795 1.213-.825.517-1.833 1.128-2.836 1.736l-.002.001c-1.006.61-2.008 1.217-2.826 1.73-.833.521-1.437.922-1.676 1.126a.5.5 0 0 1-.649-.761c.308-.262.982-.704 1.794-1.213.825-.517 1.833-1.128 2.836-1.736l.003-.001c1.005-.61 2.007-1.217 2.825-1.73.833-.521 1.437-.922 1.677-1.126a.5.5 0 0 1 .705.056Zm.69 1.442a.5.5 0 0 1 .075.703c-.274.34-.876.818-1.585 1.333a71.7 71.7 0 0 1-2.571 1.758 276.559 276.559 0 0 1-3.302 2.129c-.643.41-1.197.763-1.581 1.014a.5.5 0 1 1-.547-.837c.42-.275.984-.634 1.63-1.046.966-.616 2.118-1.35 3.25-2.095a70.519 70.519 0 0 0 2.533-1.732c.732-.532 1.219-.934 1.395-1.152a.5.5 0 0 1 .703-.075Zm-13.559 1.943a.5.5 0 0 1-.238.666l-.078-.166.078.166-.011.006-.035.016-.135.065a75.182 75.182 0 0 0-2.057 1.025c-.594.308-1.219.642-1.76.955-.55.32-.985.6-1.221.802a.5.5 0 0 1-.649-.761c.312-.266.817-.586 1.369-.906.56-.325 1.2-.667 1.801-.978a83.075 83.075 0 0 1 1.586-.797c.208-.102.379-.184.497-.241l.138-.066.036-.017.012-.006.193.404-.192-.404a.5.5 0 0 1 .666.237Z" fill="#42BDEB"/><path d="M55.245 276.553h-8v8h8v-8Zm-14.666 0H9v8h31.579v-8Z" fill="#41CCB9"/><path d="M331.08 222.113h-24.609a7.754 7.754 0 0 1-7.754-7.755 7.753 7.753 0 0 1 7.754-7.754h24.609a7.755 7.755 0 0 1 0 15.509Z" fill="#373737"/><path d="M306.471 207.104a7.255 7.255 0 0 0 0 14.509h24.609a7.255 7.255 0 0 0 0-14.509h-24.609Zm-8.254 7.254a8.253 8.253 0 0 1 8.254-8.254h24.609a8.255 8.255 0 0 1 0 16.509h-24.609a8.254 8.254 0 0 1-8.254-8.255Z" fill="#E0E0E0"/><path d="M330.895 219.521a5.162 5.162 0 1 0 0-10.326 5.164 5.164 0 0 0 0 10.326ZM27.105 34v32.211h10.031V34H27.104Z" fill="#41CCB9"/><path d="M21.592 61.633a.5.5 0 0 1 .5-.5h10.031a.5.5 0 0 1 .5.5v10.031a.5.5 0 0 1-.5.5H22.092a.5.5 0 0 1-.5-.5V61.633Zm1 .5v9.031h9.031v-9.031h-9.031Z" fill="#E0E0E0"/><defs><filter id="udbsv3h8zsva" x="257.067" y="260.737" width="63.274" height="63.274" filterUnits="userSpaceOnUse" color-interpolation-filters="sRGB"><feFlood flood-opacity="0" result="BackgroundImageFix"/><feBlend in="SourceGraphic" in2="BackgroundImageFix" result="shape"/><feGaussianBlur stdDeviation="7.153" result="effect1_foregroundBlur"/></filter><filter id="udiwsxj85h5b" x="240.19" y="138.531" width="76.66" height="40.069" filterUnits="userSpaceOnUse" color-interpolation-filters="sRGB"><feFlood flood-opacity="0" result="BackgroundImageFix"/><feBlend in="SourceGraphic" in2="BackgroundImageFix" result="shape"/><feGaussianBlur stdDeviation="3.219" result="effect1_foregroundBlur"/></filter></defs></svg>