<svg width="120" height="120" viewBox="0 0 120 120" fill="none" xmlns="http://www.w3.org/2000/svg"><path d="m37.31 6.035 60.27 16.15a4 4 0 0 1 2.828 4.898L82.958 92.21a2 2 0 0 1-2.447 1.415L18.286 77.06a4 4 0 0 1-2.835-4.9L32.41 8.863a4 4 0 0 1 4.899-2.829Z" fill="#BBBFC4" fill-opacity=".45"/><path d="M6.01 50.867c0-3.725 2.156-7.401 6.587-10.73V48.9C8.166 52.228 6.01 55.904 6.01 59.63v-8.763Z" fill="#0C296E"/><path d="M6 59.63c0 3.886 2.329 7.823 6.849 11.49.322.26.655.52 1 .78v-8.763c-3.342-2.508-5.64-5.16-6.849-7.843-.664-1.472-1-2.955-1-4.427v8.763Zm1-2.213c1.333 2.163 3.307 4.25 5.849 6.215v6.186C8.883 66.417 7 62.923 7 59.63v-2.213Z" fill="#0C296E"/><path d="M72.853 93.22C37.445 91.382 14.435 82.69 6.309 72.853v8.763c8.136 9.826 31.136 18.519 66.544 20.367V93.22Z" fill="#3370FF"/><path d="M53.509 105.361c-12.955-1.828-23.586-4.699-31.693-8.167v8.763c8.107 3.467 18.728 6.338 31.693 8.166v-8.762Z" fill="#00D6B9"/><path d="M84.004 34.288c0 5.402.154 12.356.309 19.318v.005c.133 5.972.266 11.95.3 16.949.012.06.013.122.002.182.005.762.008 1.5.008 2.212a.5.5 0 1 1-1 0c0-.673-.003-1.37-.007-2.088-2.828-2.621-4.172-3.735-6.508-5.67a467.764 467.764 0 0 1-2.095-1.74h-.001c-.576-.483-1.476-.837-2.192-.954a1.328 1.328 0 0 0-.872.182.962.962 0 0 0-.41.465l17.28 25.931a.51.51 0 0 1 .065.14l6.656 23.379a.499.499 0 1 1-.962.273l-6.635-23.303L70.584 63.52a.5.5 0 0 1-.079-.349c.088-.602.464-1.06.92-1.34a2.328 2.328 0 0 1 1.55-.317h.004c.85.139 1.93.551 2.674 1.175.793.661 1.474 1.225 2.088 1.733 2.143 1.775 3.469 2.873 5.864 5.073-.045-4.76-.168-10.311-.292-15.867v-.005c-.155-6.96-.31-13.928-.31-19.343v-.014l.5.014-.5-.014v-.002l.001-.004v-.011l.002-.042c.002-.035.004-.086.009-.149.008-.127.024-.306.05-.52.052-.425.148-.998.328-1.57.178-.564.45-1.17.879-1.625.445-.473 1.058-.774 1.842-.692h.005c1.068.123 1.569 1.038 1.85 1.965.225.738.36 1.653.495 2.56.037.251.075.503.114.75v.001c.188 1.21.85 7.41 1.462 13.283.23 2.212.455 4.382.645 6.229h.006l.63-.041c3.185-.207 6.622-.43 9.663.25 3.286.736 6.137 2.533 7.776 6.486.556 1.34.66 3.1.503 5.076-.158 1.987-.586 4.251-1.145 6.63-.559 2.381-1.253 4.894-1.946 7.38l-.177.632c-.618 2.212-1.226 4.39-1.735 6.439l11.513 25.237a.5.5 0 0 1-.91.415l-11.585-25.396a.499.499 0 0 1-.031-.327c.521-2.112 1.151-4.365 1.784-6.635l.178-.634c.694-2.487 1.382-4.981 1.936-7.34s.969-4.566 1.121-6.48c.153-1.925.035-3.495-.429-4.614-1.115-2.688-2.818-4.268-4.868-5.178a30.01 30.01 0 0 1-.139 1.719c-.057.573-.115 1.15-.151 1.884a.5.5 0 0 1-.999-.05c.038-.76.098-1.36.155-1.933l.019-.19a27.91 27.91 0 0 0 .131-1.81 12.752 12.752 0 0 0-1.22-.335c-1.147-.257-2.358-.378-3.603-.418l.31 3.987a.5.5 0 0 1-.996.078l-.318-4.08c-1.584-.002-3.208.104-4.814.207l-.557.036.073.718c.11 1.066.2 1.948.262 2.564l.098.963s0 .002-.497.052l-.497.05-.099-.964a4447.402 4447.402 0 0 0-1.081-10.503c-.615-5.894-1.272-12.054-1.456-13.232a85.895 85.895 0 0 1-.123-.812c-.133-.891-.254-1.703-.454-2.363-.265-.87-.589-1.213-1.006-1.262-.431-.044-.746.107-1.008.384-.28.297-.495.74-.652 1.24a8.01 8.01 0 0 0-.29 1.39 8.952 8.952 0 0 0-.052.595l-.001.032v.002Zm6.72 25.443-.498.05a.5.5 0 0 0 .995-.1l-.498.05Z" fill="#0C296E"/><path d="M116 81.984c0-1.58-1.004-3.01-2.971-4.044-1.667-.876-4.029-1.802-6.529-1.802l-2 8.5c2.509.23 7.069 1.297 8.529 2.065 1.967 1.023 2.971 2.464 2.971 4.043v-8.762Z" fill="#0C296E"/><path d="M82.46 93.518c-.656 0-1.331-.02-1.997-.03v8.763c.666.01 1.351.03 1.997.03 22.9 0 33.54-6.756 33.54-11.902v-8.763c0 5.147-10.64 11.902-33.54 11.902Z" fill="#3370FF"/><path d="M37.123 19.58a.5.5 0 0 1 .677.204l2.646 4.919 4.92-2.646a.5.5 0 0 1 .473.88l-4.919 2.646 2.646 4.919a.5.5 0 1 1-.88.474l-2.647-4.92-4.918 2.647a.5.5 0 0 1-.474-.88l4.919-2.647-2.646-4.918a.5.5 0 0 1 .203-.678Zm14.805 4.355a.5.5 0 0 1 .612-.353l25.225 6.76a.5.5 0 1 1-.258.965l-25.226-6.76a.5.5 0 0 1-.353-.612Zm-1.612 8.96a.5.5 0 0 1 .612-.354l15.916 4.264a.5.5 0 1 1-.258.966l-15.917-4.264a.5.5 0 0 1-.353-.613ZM31.123 41.58a.5.5 0 0 1 .677.204l2.646 4.919 4.92-2.646a.5.5 0 0 1 .473.88l-4.919 2.646 2.646 4.919a.5.5 0 1 1-.88.474l-2.647-4.92-4.918 2.647a.5.5 0 0 1-.474-.88l4.919-2.647-2.646-4.919a.5.5 0 0 1 .203-.677Zm14.805 4.355a.5.5 0 0 1 .612-.353l25.225 6.76a.5.5 0 1 1-.258.965l-25.226-6.76a.5.5 0 0 1-.353-.612Zm-1.612 8.96a.5.5 0 0 1 .612-.354l15.916 4.264a.5.5 0 1 1-.258.966l-15.917-4.264a.5.5 0 0 1-.353-.613Z" fill="#8F959E"/></svg>