<svg width="250" height="250" viewBox="0 0 250 250" fill="none" xmlns="http://www.w3.org/2000/svg"><g filter="url(#ud5f4wynex5a)"><path d="M73.409 104.275c7.724 0 13.985-6.261 13.985-13.985 0-7.724-6.261-13.985-13.985-13.985-7.724 0-13.985 6.261-13.985 13.985 0 7.724 6.261 13.985 13.985 13.985Z" fill="#FFC60A"/></g><path d="M159.985 103.848H80.472v10.355h79.513v-10.355Z" fill="#BBBFC4" fill-opacity=".45"/><path d="M159.984 89.506h66.51v124.803a20.218 20.218 0 0 0-3.162-.248c-3.676 0-7.114.998-10.079 2.727-3.527-11.778-14.446-20.365-27.37-20.365-11.459 0-21.344 6.747-25.899 16.485V89.506Z" fill="#14C0FF"/><path d="M216.228 89.504h10.305v10.03l-10.305-10.03Z" fill="#0C296E"/><path d="M181.525 185.009h24.891c8.626 0 8.626-6.373 8.626-14.238V46.144a5.714 5.714 0 0 0-5.714-5.714h-88.795a5.715 5.715 0 0 0-5.715 5.714v114.005" fill="#fff"/><path d="M114.461 46.144v114.004a.357.357 0 1 0 .714 0V46.144a5.357 5.357 0 0 1 5.357-5.357h88.795a5.358 5.358 0 0 1 5.358 5.357V170.77c0 1.97-.001 3.828-.134 5.515-.134 1.688-.399 3.179-.917 4.416-.515 1.231-1.278 2.208-2.414 2.882-1.141.678-2.69 1.069-4.804 1.069h-24.891a.357.357 0 0 0 0 .714h24.891c2.198 0 3.884-.406 5.169-1.169 1.29-.766 2.145-1.874 2.708-3.22.56-1.339.834-2.916.97-4.635.136-1.718.136-3.603.136-5.562V46.144a6.071 6.071 0 0 0-6.072-6.072h-88.795a6.071 6.071 0 0 0-6.071 6.072Z" fill="#0C296E"/><path d="M201.655 61h-73.799a2.857 2.857 0 0 0-2.857 2.857v37.456a2.857 2.857 0 0 0 2.857 2.857h73.799a2.857 2.857 0 0 0 2.857-2.857V63.857A2.857 2.857 0 0 0 201.655 61Z" fill="#FFC60A"/><path d="M63.609 52.943v8.345h-9.255c-18.462 0-33.43 14.968-33.43 33.429 0 .197.16.357.358.357h56.322a.357.357 0 1 0 0-.714H21.641c.192-17.903 14.765-32.358 32.713-32.358h9.612c.197 0 .357-.16.357-.357v-8.703c0-18.066 14.648-32.714 32.715-32.714a.357.357 0 0 0 0-.714c-18.462 0-33.43 14.967-33.43 33.428ZM6.086 214.506c0-.198.16-.358.357-.358h87.94v.358-.358c.197 0 .357.16.357.358v20.472h154.353a.357.357 0 1 1 0 .714H94.383a.357.357 0 0 1-.357-.357v-20.472H6.443a.357.357 0 0 1-.357-.357Z" fill="#0C296E"/><mask id="ud5ypc7kplhb" style="mask-type:alpha" maskUnits="userSpaceOnUse" x="157" y="196" width="70" height="30"><path opacity=".8" fill-rule="evenodd" clip-rule="evenodd" d="M226.473 214.022a20.088 20.088 0 0 0-3.093-.238 19.93 19.93 0 0 0-10.078 2.727c-3.528-11.778-14.447-20.365-27.371-20.365-15.721 0-28.481 12.701-28.576 28.4v.681h69.118v-11.205Z" fill="#14C0FF"/></mask><g mask="url(#ud5ypc7kplhb)"><path d="M223.38 213.784c-3.676 0-7.115.998-10.079 2.727-3.527-11.778-14.446-20.365-27.37-20.365-15.781 0-28.577 12.796-28.577 28.577v10.464h86.005v-1.404c.02-11.047-8.932-19.999-19.979-19.999Z" fill="#14C0FF"/></g><path d="M190.361 160.078a9.01 9.01 0 0 0-9.013 9.013V185c0 .197.16.357.357.357h25.541c.141.006.283.01.426.01.197 0 .357-.16.357-.358V185a.357.357 0 0 0-.357-.358h-.408a8.294 8.294 0 0 1-7.89-8.288v-7.263a9.01 9.01 0 0 0-9.013-9.013Z" fill="#0C296E"/><path d="M93.633 174.476v60.858h63.674V224.88c0-14.299 10.506-26.147 24.218-28.246v-24.727c0-7.114 2.944-11.462 8.656-11.462h-82.517c-7.747 0-14.031 6.285-14.031 14.031Z" fill="#fff"/><path d="M93.276 174.476c0-7.944 6.445-14.388 14.389-14.388h82.516a.357.357 0 1 1 0 .714c-2.753 0-4.805 1.042-6.181 2.917-1.389 1.893-2.117 4.672-2.117 8.188v24.727a.358.358 0 0 1-.303.353c-13.541 2.072-23.915 13.773-23.915 27.892v10.455c0 .197-.16.357-.358.357H93.634a.357.357 0 0 1-.358-.357v-60.858Zm93.231-13.674h-78.842c-7.55 0-13.674 6.125-13.674 13.674v60.5h62.959v-10.097c0-14.371 10.483-26.298 24.218-28.55v-24.422c0-3.599.744-6.55 2.256-8.61.816-1.112 1.847-1.953 3.083-2.495Z" fill="#0C296E"/><path d="M168.065 178.547h-61.882a2.857 2.857 0 0 0-2.857 2.857v15.175a2.857 2.857 0 0 0 2.857 2.857h61.882a2.858 2.858 0 0 0 2.858-2.857v-15.175a2.858 2.858 0 0 0-2.858-2.857Z" fill="#BBBFC4" fill-opacity=".45"/><path d="M156.949 224.88v10.464c0 .198.16.358.357.358h86.005c.197 0 .357-.16.357-.358v-1.402c.02-11.245-9.092-20.357-20.336-20.357-3.582 0-6.942.931-9.869 2.554-3.705-11.705-14.651-20.192-27.581-20.192-15.977 0-28.933 12.956-28.933 28.933Zm28.933-28.218c12.763 0 23.545 8.478 27.029 20.11a.354.354 0 0 0 .211.229.355.355 0 0 0 .311-.023 19.57 19.57 0 0 1 9.899-2.679c10.85 0 19.641 8.793 19.622 19.642v1.046h-85.29V224.88c0-15.582 12.636-28.218 28.218-28.218Zm-60.739-82.51c0-.197.159-.357.357-.357h56.625a.357.357 0 0 1 0 .714H125.5a.357.357 0 0 1-.357-.357Zm0 8.279c0-.197.159-.357.357-.357h39.765a.357.357 0 1 1 0 .715H125.5a.357.357 0 0 1-.357-.358Zm60.955-70.264a1.428 1.428 0 1 0 0-2.856 1.428 1.428 0 0 0 0 2.856Zm2.142-1.429a2.142 2.142 0 1 1-4.285.001 2.142 2.142 0 0 1 4.285 0Zm4.999 1.429a1.429 1.429 0 1 0 0-2.858 1.429 1.429 0 0 0 0 2.858Zm2.143-1.429a2.143 2.143 0 1 1-4.285 0 2.143 2.143 0 0 1 4.285 0Zm7.143 0a2.143 2.143 0 1 1-4.286 0 2.143 2.143 0 0 1 4.286 0Z" fill="#0C296E"/><path d="M133.833 142.086h-6.058v6.058h6.058v-6.058Zm-11.106 0H91.335v6.058h31.392v-6.058Z" fill="#14C0FF"/><path d="M171.978 73.226a5.5 5.5 0 0 0-7.735.813l-2.832 3.497a5.5 5.5 0 0 0 .813 7.736c.063.05.128.106.196.163.168.144.348.297.538.419.447.285.962.101 1.226-.225l.593-.732c.245-.303.262-.67.182-.963a1.345 1.345 0 0 0-.515-.736 6.73 6.73 0 0 1-.332-.258 2.5 2.5 0 0 1-.37-3.516l2.832-3.497a2.5 2.5 0 0 1 3.886 3.146l-1.274 1.636c-.27.346-.264.794-.088 1.131.169.324.281.686.322 1.073.079.746 1.023 1.02 1.488.431l1.885-2.385a5.5 5.5 0 0 0-.815-7.733Z" fill="#fff"/><path d="M165.83 79.019a.969.969 0 0 0-1.192.264l-.593.732c-.242.3-.266.667-.174.966.09.294.301.56.595.71a2.5 2.5 0 0 1 .809 3.802l-2.832 3.498a2.5 2.5 0 0 1-3.886-3.147l1.186-1.545c.266-.346.258-.79.083-1.125a2.967 2.967 0 0 1-.323-1.075c-.079-.746-1.024-1.018-1.487-.428l-1.793 2.288a5.5 5.5 0 0 0 8.551 6.92l2.832-3.498a5.5 5.5 0 0 0-1.776-8.362Z" fill="#fff"/><g clip-path="url(#udlqxcjjt9oc)"><path d="M19.93 214.402c-1.157 1.651-4.718 6.766-5.596 7.358-.441.279-.922.526-1.254.929-.747.923-.494 1.423.254 2.346.747.923 2.203 1.723 3.093 2.509 1.034.916 4.108 3.204 4.667 3.815.87.955 3.1 2.652 3.1 2.652.754-.793.572-1.775-.403-2.925-2.125-3.165-2.808-2.847-3.243-5.635-.345-2.223-.397-3.886.52-5.726l2.19-2.489" fill="#fff"/><path d="M19.93 214.402c-1.157 1.651-4.718 6.766-5.596 7.358-.441.279-.922.526-1.254.929-.747.923-.494 1.423.254 2.346.747.923 2.203 1.723 3.093 2.509 1.034.916 4.108 3.204 4.667 3.815.87.955 3.1 2.652 3.1 2.652.754-.793.572-1.775-.403-2.925-2.125-3.165-2.808-2.847-3.243-5.635-.345-2.223-.397-3.886.52-5.726l2.19-2.489" stroke="#0C296E" stroke-width=".65" stroke-linecap="round" stroke-linejoin="round"/><path d="M74.063 220.596c.208 2.918.176 3.496.384 6.415.032.474.8 2.95 1.384 3.34 2.88 1.937 5.362 3.588 6.864 4.101 1.754.605 2.32 1.528 2.547 2.087l-14.305.039c-.708.097-1.313-.605-1.352-1.281-.045-.676.494-6.532.364-7.169-.663-3.171-.637-3.841-1.3-7.012l5.414-.52Z" fill="#fff" stroke="#0C296E" stroke-width=".65" stroke-linecap="round" stroke-linejoin="round"/><path d="m53.508 168.884 10.45 20.726c.97 11.166 2.243 33.107 2.243 33.107l7.936-.974s.884-24.048-.3-33.725c-.33-2.704-8.093-28.658-10.497-36.607-.878-2.911-2.795-8.39-4.128-11.12l-13.395.059c-3.197 4.14-4.38 5.288-5.537 9.98-2.164 7.585.86 38.728.86 38.728-7.22 4.634-13.454 13.115-22.39 25.444l4.998 4.212 24.963-24.652c.404-.643 1.02-1.514 1.274-2.229.221-.605.5-2.236.637-2.866.956-6.376 3.445-26.362 4.51-35.058" fill="#3370FF"/><path d="m53.508 168.884 10.45 20.726c.97 11.166 2.243 33.107 2.243 33.107l7.936-.974s.884-24.048-.3-33.725c-.33-2.704-8.093-28.658-10.497-36.607-.878-2.911-2.795-8.39-4.128-11.12l-13.395.059c-3.197 4.14-4.38 5.288-5.537 9.98-2.164 7.585.86 38.728.86 38.728-7.22 4.634-13.454 13.115-22.39 25.444l4.998 4.212 24.963-24.652c.404-.643 1.02-1.514 1.274-2.229.221-.605.5-2.236.637-2.866.956-6.376 3.445-26.362 4.51-35.058" stroke="#3370FF" stroke-width=".65" stroke-linecap="round" stroke-linejoin="round"/><path d="M85.482 110.192c.358-.403.735-.832 1.15-1.287 2.094-2.321 3.62-4.361 3.907-4.101.35.325.071 1.3-1.359 3.184-.87 1.157-1.358 1.859-1.358 1.859 1.443 1.105 2.158 1.709 2.249 2.912.084 1.287-.377 1.703-1.612 2.704-1.124.909-3.672 1.884-3.672 1.884-1.69 1.931-7.526 16.593-9.405 19.758-2.216 3.731-5.361 3.113-7.246.397-1.879-2.717-7.11-10.36-7.11-10.36l6.024-3.399 4.543 8.377s10.061-15.059 10.464-16.32c0 0 2.444-5.426 2.47-5.446.078-.058 2.528-.058 3.66-.058.084.019.168.026.214.078.065.084.013.201-.052.286-.546.773-1.573.974-2.503 1.111a3.882 3.882 0 0 1-.799 2.249" fill="#fff"/><path d="M85.482 110.192c.358-.403.735-.832 1.15-1.287 2.094-2.321 3.62-4.361 3.907-4.101.35.325.071 1.3-1.359 3.184-.87 1.157-1.358 1.859-1.358 1.859 1.443 1.105 2.158 1.709 2.249 2.912.084 1.287-.377 1.703-1.612 2.704-1.124.909-3.672 1.884-3.672 1.884-1.69 1.931-7.526 16.593-9.405 19.758-2.216 3.731-5.361 3.113-7.246.397-1.879-2.717-7.11-10.36-7.11-10.36l6.024-3.399 4.543 8.377s10.061-15.059 10.464-16.32c0 0 2.444-5.426 2.47-5.446.078-.058 2.528-.058 3.66-.058.084.019.168.026.214.078.065.084.013.201-.052.286-.546.773-1.573.974-2.503 1.111a3.882 3.882 0 0 1-.799 2.249" stroke="#0C296E" stroke-width=".65" stroke-linecap="round" stroke-linejoin="round"/><path d="M89.277 114.786c-1.079.143-2.255-.338-2.326-1.391-.033-.416-.046-.956.26-1.827" stroke="#0C296E" stroke-width=".65" stroke-linecap="round" stroke-linejoin="round"/><path d="M89.277 111.082c-.728.897-.942 1.267-2.092 2.678m2.795-1.156a74.69 74.69 0 0 0-1.918 1.943M71.36 132.289l-.728 1.079" stroke="#0C296E" stroke-width=".65" stroke-linecap="round" stroke-linejoin="round"/><path d="M51.68 92.324c3.736 0 6.797 3.055 6.797 6.785v9.866H44.876V99.11c.006-3.731 3.06-6.786 6.804-6.786Z" fill="#0C296E" stroke="#0C296E" stroke-width=".65" stroke-linejoin="round"/><path d="M46.968 112.615c.409-.351 1.156-1.111 1.156-4.855l6.877-4.485c-.124 5.629-.5 8.391.721 9.346.28.215.247.228 1.267.605l1.08 1.326-2.808 3.269-6.766-.566-1.683-2.833-.657-1.58.813-.227Z" fill="#fff" stroke="#0C296E" stroke-width=".65" stroke-linecap="round" stroke-linejoin="round"/><path d="M51.244 94.209s.007 0 0 0h.013c3.113 0 5.641 2.424 5.641 5.42 0 2.997-.721 3.64-2.19 3.64l-3.451 1.781h-.006c-5.642 0-5.616-2.171-5.616-5.16-.006-2.997 2.496-5.681 5.609-5.681Z" fill="#fff" stroke="#0C296E" stroke-width=".65" stroke-linecap="round" stroke-linejoin="round"/><path d="M45.674 99.137c-.254 1.813-.332 3.938.078 5.596.48 1.943 1.859 3.223 3.932 3.438 1.215.123 2.476-.332 3.386-1.138.91-.806 1.807-1.884 1.937-3.763" fill="#fff"/><path d="M45.674 99.137c-.254 1.813-.332 3.938.078 5.596.48 1.943 1.859 3.223 3.932 3.438 1.215.123 2.476-.332 3.386-1.138.91-.806 1.807-1.884 1.937-3.763" stroke="#0C296E" stroke-width=".65" stroke-linecap="round" stroke-linejoin="round"/><path d="M45.674 99.137c-.254 1.813-.332 3.938.078 5.596.48 1.943 1.859 3.223 3.932 3.438 1.215.123 2.476-.332 3.386-1.138.91-.806 1.807-1.884 1.937-3.763" stroke="#0C296E" stroke-width=".65" stroke-linecap="round" stroke-linejoin="round"/><path d="m47.605 100.742-.696 2.32a.123.123 0 0 0 .143.156l.5-.104" fill="#fff"/><path d="m47.605 100.742-.696 2.32a.123.123 0 0 0 .143.156l.5-.104" stroke="#0C296E" stroke-width=".65" stroke-linecap="round" stroke-linejoin="round"/><path d="m47.605 100.742-.696 2.32a.123.123 0 0 0 .143.156l.5-.104" stroke="#0C296E" stroke-width=".65" stroke-linecap="round" stroke-linejoin="round"/><path d="m48.358 94.21 6.916-.183 2.378 5.642-2.047 4.465-.897-4.465h-2.184l-.572-2.73-.435 2.73h-6.33v-1.56c-.007-1.664 1.508-3.9 3.171-3.9Z" fill="#0C296E" stroke="#0C296E" stroke-width=".65" stroke-linejoin="round"/><path d="M53.72 94.795h1.294v15.039H53.72v-15.04Z" fill="#0C296E" stroke="#0C296E" stroke-width=".65" stroke-linejoin="round"/><path d="M54.701 103.269c.397-.019 1.02-.156 1.359-.37.416-.266.747-.741.819-1.241.045-.312 0-1.482-1.125-1.482-.455 0-.858.39-1.046.546" fill="#fff"/><path d="M54.701 103.269c.397-.019 1.02-.156 1.359-.37.416-.266.747-.741.819-1.241.045-.312 0-1.482-1.125-1.482-.455 0-.858.39-1.046.546" stroke="#0C296E" stroke-width=".65" stroke-linecap="round" stroke-linejoin="round"/><path d="M54.701 103.269c.397-.019 1.02-.156 1.359-.37.416-.266.747-.741.819-1.241.045-.312 0-1.482-1.125-1.482-.455 0-.858.39-1.046.546" stroke="#0C296E" stroke-width=".65" stroke-linecap="round" stroke-linejoin="round"/><path d="M41.722 115.028c2.242-.923 1.878-.735 4.92-2.444l.071.006c.455.527 3.01 3.322 6 3.978 2.742.604 4.016-.214 4.386-1.924.176-.812.117-1.287.013-1.469 1.404.501 4.186 1.144 5.59 2.171 2.19 1.606 5.251 8.527 5.251 8.527l-5.251 3.9-.364-1.664-3.328 13.902-13.395.059-4.459-15.56" fill="#FFC60A"/><path d="M41.722 115.028c2.242-.923 1.878-.735 4.92-2.444l.071.006c.455.527 3.01 3.322 6 3.978 2.742.604 4.016-.214 4.386-1.924.176-.812.117-1.287.013-1.469 1.404.501 4.186 1.144 5.59 2.171 2.19 1.606 5.251 8.527 5.251 8.527l-5.251 3.9-.364-1.664-3.328 13.902-13.395.059-4.459-15.56" stroke="#FFC60A" stroke-width=".65" stroke-linecap="round" stroke-linejoin="round"/><path d="M68.921 227.557h7.5l.176 3.789s5.544 1.488 7.312 3.028a3.979 3.979 0 0 1 1.326 2.308.378.378 0 0 1-.364.442l-15.488-.111a.406.406 0 0 1-.416-.429l-.046-9.027Zm-51.968-10.985 5.901 4.628-2.196 3.087s3.438 4.595 3.886 6.896a3.966 3.966 0 0 1-.383 2.632.377.377 0 0 1-.56.123l-12.12-9.645a.41.41 0 0 1-.066-.591l5.538-7.13Z" fill="#0C296E" stroke="#0C296E" stroke-width=".65" stroke-linejoin="round"/><path d="M54.845 151.924c-.403 8.598-1.047 14.506-2.093 22.741m7.889 6.505 5.538 6.434" stroke="#0C296E" stroke-width=".65" stroke-linecap="round" stroke-linejoin="round"/><path d="M64.424 126.602c.598-.279 1.105-.864 1-1.221-.064-.176-.324-.137-.48-.046-1.501.825-4.199 1.943-5.785 2.587" fill="#fff"/><path d="M64.424 126.602c.598-.279 1.105-.864 1-1.221-.064-.176-.324-.137-.48-.046-1.501.825-4.199 1.943-5.785 2.587" stroke="#0C296E" stroke-width=".65" stroke-linecap="round" stroke-linejoin="round"/><path d="m42.014 127.552-1.332 8.527s10.867-4.433 14.63-6.603c2.47-1.424 6.207-2.314 9.281-2.814 2.015-.332.52 3.789-.533 4.413-.962.565-2.138.604-3.25.636-.87.02-2.41-.091-3.282-.065-1.3.046-9.02 6.727-14.636 9.567-2.75 1.385-6.603 2.483-7.474-.084-.787-2.314-.117-13.499-.117-13.499l6.713-.078Z" fill="#fff" stroke="#0C296E" stroke-width=".65" stroke-linecap="round" stroke-linejoin="round"/><path d="M65.23 128.053c-.248.039-.495.071-.741.11m.357 1.203c-.377.026-.748.039-1.073-.007m-23.09 6.719-2.607 1.196" stroke="#0C296E" stroke-width=".65" stroke-linecap="round" stroke-linejoin="round"/><path d="m42.6 124.295-.579 4.257-7.084-.312s0-5.395.721-8.131c.306-.988.813-3.139 6.064-5.076" fill="#FFC60A"/><path d="m42.6 124.295-.579 4.257-7.084-.312s0-5.395.721-8.131c.306-.988.813-3.139 6.064-5.076" stroke="#FFC60A" stroke-width=".65" stroke-linecap="round" stroke-linejoin="round"/><path d="m42.6 124.295-.579 4.257" stroke="#0C296E" stroke-width=".65" stroke-linecap="round" stroke-linejoin="round"/></g><defs><clipPath id="udlqxcjjt9oc"><path fill="#fff" transform="matrix(-1 0 0 1 91 92)" d="M0 0h80v149.367H0z"/></clipPath><filter id="ud5f4wynex5a" x="44.424" y="61.305" width="57.971" height="57.971" filterUnits="userSpaceOnUse" color-interpolation-filters="sRGB"><feFlood flood-opacity="0" result="BackgroundImageFix"/><feBlend in="SourceGraphic" in2="BackgroundImageFix" result="shape"/><feGaussianBlur stdDeviation="7.5" result="effect1_foregroundBlur"/></filter></defs></svg>