<svg width="120" height="120" viewBox="0 0 120 120" fill="none" xmlns="http://www.w3.org/2000/svg"><path d="M83.51 71.611a4 4 0 0 1 3.935-3.279h23.999a4 4 0 0 1 3.934 4.72l-5.403 29.501a4 4 0 0 1-3.935 3.279H82.042a4 4 0 0 1-3.935-4.721l5.403-29.5Z" fill="#00D6B9"/><path d="M77.826 41.826a.5.5 0 0 1 .499-.502l18.876-.06a.5.5 0 1 1 .004 1l-18.877.06a.5.5 0 0 1-.502-.498Z" fill="#0C296E"/><path d="M45.093 32.266a2 2 0 0 0-2 2v16.487a2 2 0 0 0 2 2H60.05a2 2 0 0 1 1.19.393L75.139 63.43c1.32.976 3.19.034 3.19-1.608V23.197c0-1.643-1.87-2.585-3.19-1.608L61.241 31.874a2 2 0 0 1-1.19.392H45.092Z" fill="#FFC60A"/><path d="M4.666 96.871c0 .349.134.697.4 1.036 2.41 3.082 8.096 3.314 11.6 3.701v8.046c-3.684-.407-9.184-.613-11.6-3.701-.266-.339-.4-1.062-.4-1.41v-7.672Z" fill="#00D6B9"/><path d="M3.819 79.578c0-3.986 5.54-5.788 7.178-5.98l-1.07 7.981c-1.494.176-6.108 3.43-6.108 6.645v-8.646Z" fill="#0C296E"/><path d="M3.79 79.25v8.482c0 11.883 30.916 9.123 36.475 7.828v-8.483C34.575 88.413 3.79 91.984 3.79 79.25Zm43.093 15.745V87.05c7.235-1.202 12.715-.355 19.213-.186v7.946c-6.249-.281-13.028-.875-19.213.186Z" fill="#3370FF"/><path d="M27.093 109.416c6.893.881 14.662.204 22.445-.579l1.708-.173c7.047-.717 14.056-1.43 20.184-.963v-6.004c-6.764-.809-14.556-.067-22.39.731l-.828.084c-7.385.754-14.782 1.509-21.12.893v6.011Zm0-7.016c6.252.624 13.603-.126 21.079-.889 8.388-.856 16.934-1.728 24.258-.692v7.974c-.33-.034-.664-.063-1-.09-6.048-.471-13.002.236-20.112.958-8.624.877-17.478 1.777-25.225.627v-8c.33.041.663.079 1 .112Zm85.066-93.142c-2.529 0-4.904 2.01-5.352 4.511l-1.177 6.65a.499.499 0 0 0 .492.587h4.904a4.501 4.501 0 0 0 4.432-3.716l.592-3.345c.226-1.267-.083-2.443-.799-3.306-.716-.864-1.812-1.381-3.092-1.381Z" fill="#0C296E"/><path d="M55.608 9.258c-2.529 0-4.904 2.01-5.352 4.511l-1.423 8.01a.5.5 0 0 0 .985.175l1.422-8.009c.364-2.031 2.33-3.687 4.368-3.687h53.507c-1.175.826-2.054 2.09-2.308 3.512l-1.176 6.642-.001.007-11.057 58.037a3.5 3.5 0 0 1-3.438 2.844H42.667a3.5 3.5 0 0 1-3.446-4.112l1.342-7.553a.5.5 0 1 0-.985-.175l-1.342 7.554a4.5 4.5 0 0 0 4.431 5.287h48.468a4.5 4.5 0 0 0 4.42-3.658l11.058-58.041.002-.009 1.176-6.647c.364-2.032 2.331-3.688 4.368-3.688a.5.5 0 0 0 0-1H55.608Z" fill="#0C296E"/><path d="M36.735 24.49a.5.5 0 0 0-.556.437c-.136 1.144-.338 5.407-.505 9.35a1410.514 1410.514 0 0 0-.278 7l-.024.636.5.018-.5-.018c0 .02 0 .042.002.063.223 2.516 2.063 4.52 4.604 4.565h.011c.687-.003 1.432-.263 2.157-.631.733-.372 1.492-.878 2.216-1.426 1.449-1.094 2.806-2.386 3.621-3.195 1.525-1.5 3.154-2.691 4.631-3.444 1.498-.764 2.75-1.031 3.568-.833a.17.17 0 0 1 .122.099c.034.069.061.192.05.377-.02.373-.183.837-.4 1.182l-.004.008a78.2 78.2 0 0 1-1.499 2.348c-.259.394-.494.749-.664 1.005l-.202.303-.073.108-.001.002c-2.838 4.209-5.73 8.922-8.644 13.67-.929 1.514-1.86 3.03-2.791 4.536-3.862 6.238-7.745 12.278-11.596 17.091a.5.5 0 0 0-.108.28l-1.056 16.367a.5.5 0 1 0 .998.064l1.046-16.21c3.86-4.844 7.736-10.88 11.566-17.066.937-1.514 1.871-3.036 2.802-4.553 2.911-4.744 5.788-9.431 8.612-13.62l.001-.002.075-.111a149.51 149.51 0 0 0 .87-1.315 81.011 81.011 0 0 0 1.519-2.378c.288-.461.517-1.084.548-1.654.016-.286-.016-.6-.154-.878a1.17 1.17 0 0 0-.762-.62l-.01-.003c-1.18-.29-2.708.117-4.267.912-1.583.807-3.294 2.064-4.879 3.623l-.001.002c-.805.798-2.125 2.053-3.52 3.107-.699.528-1.405.996-2.067 1.332-.667.339-1.246.52-1.703.523-1.94-.037-3.42-1.553-3.617-3.623l.022-.604a1590.962 1590.962 0 0 1 .278-6.995c.168-3.97.368-8.179.5-9.273a.5.5 0 0 0-.438-.556ZM9.17 17.43c-.112.05-.314.231-.343.86-.031.67.096 2.296.316 4.499.186 1.86.433 4.095.693 6.439l.136 1.235c.613 5.557 1.25 11.49 1.25 14.251 0 2.727-.025 10.049-.05 16.688l-.034 8.788-.016 3.808-.5-.001.498.045-.02.232a1052.483 1052.483 0 0 1-.282 3.048c-.186 1.998-.444 4.71-.73 7.57-.569 5.709-1.251 12.043-1.695 14.428a.5.5 0 1 1-.983-.183c.434-2.333 1.112-8.615 1.683-14.344a1227.535 1227.535 0 0 0 1.01-10.61l.02-.21.015-3.787.034-8.788c.025-6.64.05-13.96.05-16.684 0-2.69-.627-8.552-1.244-14.141l-.136-1.234c-.26-2.344-.508-4.586-.694-6.451-.216-2.172-.355-3.884-.32-4.644.037-.798.32-1.448.928-1.725.578-.262 1.24-.085 1.8.24 1.143.665 2.323 2.194 2.827 4.148.485 1.881 1.184 6.3 1.759 10.216a571.146 571.146 0 0 1 1.012 7.239l.02.156-.495.066-.496.066-.02-.156a684.131 684.131 0 0 0-.28-2.064 573.847 573.847 0 0 0-.73-5.162c-.578-3.937-1.27-8.294-1.738-10.11-.45-1.745-1.49-3.027-2.362-3.534-.447-.26-.74-.26-.883-.194Zm1.452 56.567.498.045a.474.474 0 0 0 .002-.043l-.5-.002Zm5.122-34.917a.5.5 0 0 1-.56-.43l.495-.066.496-.066a.5.5 0 0 1-.43.562Z" fill="#0C296E"/><path d="M32.102 21.414a.5.5 0 0 1-.32.63l-.155-.475-.155-.476a.5.5 0 0 1 .63.321ZM21.92 26.167c1.287-.72 2.81-1.42 4.276-2.033a81.857 81.857 0 0 1 5.468-2.05l.089-.03.022-.007.007-.003-.154-.475-.155-.476-.009.003-.023.008-.092.03-.346.117a82.891 82.891 0 0 0-5.192 1.96c-1.483.62-3.046 1.337-4.38 2.084-1.315.737-2.476 1.54-3.09 2.355-.54.712-.988 1.83-1.36 3.048-.379 1.234-.696 2.628-.951 3.933a72.77 72.77 0 0 0-.765 4.799l-.01.078-.002.02v.008l.414.048-.415-.049a.5.5 0 1 0 .994.116v-.006l.003-.018.009-.076.036-.29a71.701 71.701 0 0 1 .717-4.439c.252-1.287.562-2.643.925-3.831.369-1.203.776-2.176 1.202-2.737v-.001c.48-.635 1.476-1.354 2.782-2.086Z" fill="#0C296E"/><path d="M39.952 20.63c-2.099.05-4.785.517-6.854.948l-.01.002c-.811.15-1.502.377-1.957.829-.333.358-.5.876-.646 1.466l-.002.009c-.847 3.159-1.158 5.37-1.663 9.599a.5.5 0 1 1-.993-.119c.505-4.235.823-6.506 1.688-9.735.146-.585.36-1.343.892-1.91l.011-.012c.681-.682 1.635-.953 2.482-1.11 2.078-.432 4.839-.915 7.032-.967h.008c.799-.006 1.69.032 2.469.369.05.021.095.05.136.087a766.046 766.046 0 0 1 4.42 4.007c2.508 2.287 4.317 3.937 6.451 5.698.722.595.981 1.59.477 2.404-.5.805-1.608 1.222-3.179 1.049-.797-.087-1.855-.577-2.935-1.193-1.102-.63-2.303-1.436-3.41-2.227a81.761 81.761 0 0 1-3.906-2.98l-3.606.655a.5.5 0 1 1-.179-.984l3.833-.697a.5.5 0 0 1 .408.107l.005.004.015.013.062.05.239.194a80.91 80.91 0 0 0 3.711 2.825c1.094.781 2.264 1.566 3.324 2.171 1.083.619 1.979 1.006 2.547 1.068h.001c1.397.154 2.015-.251 2.22-.581.198-.321.139-.776-.263-1.107-2.154-1.777-3.989-3.45-6.511-5.75a769.442 769.442 0 0 0-4.33-3.925c-.555-.22-1.232-.262-1.987-.257Zm-15.046 3.013a.5.5 0 0 1 .307.636c-1.166 3.344-2.138 6.764-2.78 10.252a.5.5 0 0 1-.984-.181c.653-3.55 1.641-7.02 2.82-10.4a.5.5 0 0 1 .637-.307Z" fill="#0C296E"/></svg>