<svg width="120" height="120" viewBox="0 0 120 120" fill="none" xmlns="http://www.w3.org/2000/svg"><g clip-path="url(#ud0hb4s74t8a)"><path d="m21.288 23.47 9.3 34.705c.02.079.044.156.07.233L32.751 57a2 2 0 0 1 2.776.545l1.962 2.92 47.744-12.792a3.996 3.996 0 0 0 2.744-2.553l-5.941-1.657A2 2 0 0 1 80.647 41l3.54-12.689-2.712-10.122a4 4 0 0 0-4.9-2.829l-25.762 6.904a4 4 0 0 1-3.924-1.097l-4.994-5.212a4 4 0 0 0-3.923-1.097l-13.855 3.713a4 4 0 0 0-2.829 4.898Z" fill="#BBBFC4" fill-opacity=".45"/><path d="M7.87 17.716a.515.515 0 0 1 .572-.43l8.27 1.249c.267.04.445.298.396.575a.515.515 0 0 1-.572.43l-8.27-1.249a.486.486 0 0 1-.396-.575Zm8.695-6.287a.478.478 0 0 1 .693.048l2.625 3.236a.523.523 0 0 1-.072.717.478.478 0 0 1-.692-.048l-2.625-3.236a.523.523 0 0 1 .071-.717Zm6.061-4.091a.472.472 0 0 1 .653.225l1.647 3.633a.529.529 0 0 1-.242.682.472.472 0 0 1-.652-.225L22.384 8.02a.53.53 0 0 1 .242-.682Z" fill="#0C296E"/><path d="M92.696 31.5c.415-1.483 2.28-1.96 3.356-.86l4.985 5.097c1.076 1.1.557 2.954-.934 3.336l-6.906 1.768c-1.491.382-2.837-.994-2.422-2.476l1.921-6.865Z" fill="#BBBFC4" fill-opacity=".45"/><path d="M29.558 37.319a.5.5 0 0 1 .353-.613l12.864-3.446a.5.5 0 1 1 .258.966L30.17 37.673a.5.5 0 0 1-.612-.354Zm1.534 5.726a.5.5 0 0 1 .353-.612l12.864-3.447a.5.5 0 1 1 .259.966L31.704 43.4a.5.5 0 0 1-.612-.354Zm-3.73-20.319a.899.899 0 1 1 .465 1.737.899.899 0 0 1-.465-1.737Zm2.067.377a1.899 1.899 0 1 0-3.669.983 1.899 1.899 0 0 0 3.668-.983Zm3.993-2a.899.899 0 1 1 .465 1.736.899.899 0 0 1-.465-1.736Zm2.067.377a1.899 1.899 0 1 0-3.668.982 1.899 1.899 0 0 0 3.668-.982Z" fill="#8F959E"/><path d="M110.745 29.748a1 1 0 0 1 .695 1.232l-4.816 17.266a1 1 0 0 1-1.232.694L82.305 42.5a1 1 0 0 1-.695-1.232l4.816-17.265a1 1 0 0 1 1.232-.695l23.087 6.44Zm-22.818-7.403a2 2 0 0 0-2.464 1.39L80.647 41a2 2 0 0 0 1.39 2.464l23.086 6.44a2 2 0 0 0 2.464-1.39l4.816-17.265a2 2 0 0 0-1.389-2.464l-23.087-6.44Zm15.063 71.701-3.775-8.44c1.938-.03 13.16 1.922 13.239 7.281l.063 10.378c-.078-5.31-5.312-9.281-9.527-9.22Z" fill="#0C296E"/><path d="m7.413 94.321-.124-8.428c13.362 5.293 17.774 5.69 32.069 3.558l.12 8.212c-13.913 1.81-19.459 1.505-32.065-3.342Zm64.629-4.561.977 3.31c-8.437-.463-16.31 1.404-25.316 3.467l-.123-8.358c7.798-1.938 15.551-3.819 22.913-3.414l1.549 4.996Z" fill="#3370FF"/><path d="M112.62 103.037c-1.269 5.237-5.147 9.848-26.098 9.071-20.952-.777-27.188-.233-51.639 4.642l-.12-8.165c22.089-5.816 31.11-6.33 51.025-5.155 19.915 1.176 26.78-3.974 26.682-10.62l.15 10.227Z" fill="#00D6B9"/><path d="M33.309 57.832 12.896 71.543a1 1 0 0 0-.273 1.388l13.712 20.412a1 1 0 0 0 1.388.273l20.412-13.712a1 1 0 0 0 .273-1.387L34.696 58.104a1 1 0 0 0-1.387-.272Zm-20.97 12.88 20.412-13.71a2 2 0 0 1 2.776.544l13.71 20.413a2 2 0 0 1-.544 2.776L28.28 94.446a2 2 0 0 1-2.775-.545L11.793 73.488a2 2 0 0 1 .545-2.775Z" fill="#0C296E"/><path d="M17.109 74.558a1.638 1.638 0 0 1 .456-2.246l14.873-10.084a1.638 1.638 0 0 1 2.28.444l6.032 9.006-4.81-.728a1.638 1.638 0 0 0-1.863 1.368l-1.35 8.668-5.187-.808a1.638 1.638 0 0 0-1.87 1.365l-.79 5.026-7.771-12.011Zm10.84-1.657a2.269 2.269 0 1 0-4.294 1.469 2.269 2.269 0 0 0 4.293-1.47Z" fill="#BBBFC4" fill-opacity=".45"/><path d="M86.44 106.504a.486.486 0 0 1-.47-.32l-6.32-16.64-23.08-21a.47.47 0 0 1-.16-.31 2.23 2.23 0 0 1 2-2.3 6.428 6.428 0 0 1 3 .38c1 .42 1.82.78 2.58 1.09 3 1.26 4.61 1.95 8.34 3.78a.5.5 0 0 1-.06.92.51.51 0 0 1-.38-.02c-3.7-1.82-5.33-2.51-8.29-3.75l-2.58-1.1a5.288 5.288 0 0 0-2.48-.3 1.29 1.29 0 0 0-1.13 1l23 21a.43.43 0 0 1 .13.19l6.36 16.74a.502.502 0 0 1-.29.65.464.464 0 0 1-.17-.01Z" fill="#0C296E"/><path d="M72.729 74.324a.5.5 0 0 1-.48-.37c-1.48-5.24-3.59-12.06-5.62-18.66-2.03-6.6-4.15-13.42-5.64-18.68 0-.13-.7-2.83.29-4.36a2.22 2.22 0 0 1 1.53-1c1.75-.29 2.64 1.64 3.58 3.7l.33.72c1 2.19 9.11 22.4 9.46 23.26a.51.51 0 0 1-.28.65.499.499 0 0 1-.65-.28c-.09-.21-8.43-21-9.44-23.21l-.33-.73c-.78-1.69-1.52-3.3-2.5-3.13a1.28 1.28 0 0 0-.86.57c-.62 1-.33 2.89-.16 3.55 1.48 5.23 3.59 12.05 5.62 18.65 2.03 6.6 4.14 13.43 5.63 18.68a.5.5 0 0 1-.34.62l-.14.02Z" fill="#0C296E"/><path d="M111.089 111.574a.483.483 0 0 1-.45-.28l-12.82-26.82a.52.52 0 0 1 0-.21c-.53-19.53-2.69-26.16-4.41-28.28-4.84-6-11.64-3.58-18.21-1.26l-.61.22a.503.503 0 0 1-.33-.95l.6-.21c6.59-2.32 14-4.95 19.33 1.57 2.64 3.25 4.19 12.94 4.62 28.78l12.77 26.73a.504.504 0 0 1-.081.554.521.521 0 0 1-.159.116.522.522 0 0 1-.25.04Z" fill="#0C296E"/><path d="M81.812 57.816a.499.499 0 0 1-.47-.32l-1.51-4.05a.5.5 0 0 1 .94-.35l1.51 4a.5.5 0 0 1-.3.64.51.51 0 0 1-.17.08Zm5.427-1.271a.51.51 0 0 1-.49-.39c-.17-.75-.27-1.34-.37-1.92-.1-.58-.24-1.35-.46-2.23a.498.498 0 0 1 .738-.553.51.51 0 0 1 .232.303c.23.92.35 1.59.47 2.31.1.56.2 1.14.37 1.87a.51.51 0 0 1-.38.6l-.11.01Z" fill="#0C296E"/></g><defs><clipPath id="ud0hb4s74t8a"><path fill="#fff" d="M0 0h120v120H0z"/></clipPath></defs></svg>