<svg width="120" height="120" viewBox="0 0 120 120" fill="none" xmlns="http://www.w3.org/2000/svg"><mask id="udts4n6rd6sa" style="mask-type:alpha" maskUnits="userSpaceOnUse" x="17" y="98" width="49" height="14"><path fill="#C4C4C4" d="M17 98h49v14H17z"/></mask><g mask="url(#udts4n6rd6sa)"><path d="M65.528 104.17c-11.43 0-41.774-3.023-48.032-5.836.184 1.945-.239 4.699 0 7.222 11.252 4.81 48.032 5.83 48.032 5.83v-7.216Z" fill="#3370FF"/></g><path d="M98.077 22.052c.642-.186 1.055-.306 1.055-1.575v8.666c0 1.914-1.27 3.207-3.545 4.89-4.946 3.375-10.539 5.943-15.85 8.381-1.867.857-2.817 1.286-4.574 2.14-.494.252-1.884.916-2.406 1.168-.135.069.135-.069 0 0-4.817 2.302-11.16 4.858-17.56 7.404-13.638 5.423-29.372 11.68-40.833 19.97-1.771 1.537-5.157 4.514-6.203 5.994-.528.748-1.3 2.216-1.3 2.216s-.58-.545-.72.155A7.346 7.346 0 0 0 6 82.874v-6.988h.001c0-.463.047-.936.142-1.413.137-.7.38-1.424.719-2.155.335-.722.772-1.468 1.3-2.216 1.046-1.48 2.473-3.011 4.245-4.55 13.72-9.748 42.602-21.632 56.48-27.342a680.5 680.5 0 0 0 5.16-2.137c1.204-.59 2.501-1.206 3.849-1.845 6.755-3.205 14.762-7.004 18.384-11.085.678-.767 1.305-.948 1.797-1.091Z" fill="#0C296E"/><path d="M99.128 29.833a11.696 11.696 0 0 0-.451-2.932c-1.73-6-7.899-9.236-13.466-10.947V7c4.804 1.476 9.915 3.536 12.458 8.1.427.77.766 1.584 1.008 2.416.302 1.043.455 2.142.455 3.252v9.385c0-.107-.001-.214-.004-.32ZM6 75.518a9.112 9.112 0 0 0 .603 3.292 9.98 9.98 0 0 0 .983 1.917c2.363 3.595 6.675 5.384 10.687 6.407 4.877 1.245 19.89 3.177 24.906 3.177v8.187c-5.017 0-20.028-1.934-24.906-3.177-4.012-1.023-8.324-2.812-10.687-6.406a9.944 9.944 0 0 1-.983-1.918A9.213 9.213 0 0 1 6 83.705v-8.187Z" fill="#00D6B9"/><path d="M108.26 68.124c-.859.054-2.004.324-3.356.87h-.002c-2.186.87-5.543 2.861-9.424 5.368-3.537 2.286-7.475 4.98-11.301 7.595l-1.071.733c-3.435 2.337-6.672 4.522-9.269 6.139-1.297.808-2.444 1.48-3.38 1.96-.468.24-.89.435-1.258.576-.36.139-.698.237-.987.26-2.116.17-3.757-.73-5.515-2.05-.592-.445-1.194-.934-1.836-1.455-1.294-1.051-2.75-2.233-4.61-3.45-2.49-1.617-3.978-2.312-4.966-2.543-.483-.113-.834-.112-1.12-.06-.288.053-.539.164-.828.315l-.007.004a.48.48 0 0 0-.224.192.46.46 0 0 0-.043.252c.015.251.146.576.345.923l.005.009c.073.132.332.456.77.95.42.476.964 1.064 1.56 1.701l.861.917a154.387 154.387 0 0 1 2.74 2.963c5.545 6.95 6.801 12.06 6.607 15.49-.096 1.713-.554 2.986-.996 3.839-.22.426-.437.746-.602.962a4.11 4.11 0 0 1-.263.316l-.019.02-.006.006-.002.002v.001s-.002.001-.354-.354l.352.355a.5.5 0 0 1-.706-.708v-.001l.008-.007.038-.042c.035-.04.09-.104.156-.192.133-.176.318-.448.51-.818.384-.74.798-1.876.886-3.435.176-3.11-.945-7.981-6.382-14.8-.752-.846-1.733-1.889-2.687-2.904-.295-.314-.588-.624-.87-.926a88.712 88.712 0 0 1-1.58-1.721c-.411-.464-.755-.877-.895-1.129-.217-.378-.445-.868-.474-1.358a1.444 1.444 0 0 1 .161-.786 1.47 1.47 0 0 1 .65-.608c.319-.167.674-.331 1.11-.411.44-.081.93-.07 1.526.069 1.169.273 2.78 1.052 5.284 2.68h.001c1.9 1.242 3.44 2.491 4.756 3.559.627.51 1.204.977 1.745 1.384 1.704 1.28 3.093 1.992 4.834 1.851h.002c.145-.011.377-.069.706-.195.323-.124.71-.303 1.16-.533.9-.462 2.02-1.117 3.309-1.92 2.576-1.604 5.796-3.776 9.233-6.115l1.072-.733c3.823-2.615 7.773-5.315 11.322-7.608 3.87-2.501 7.305-4.545 9.595-5.458 1.418-.571 2.67-.876 3.667-.939.499-.03.95-.002 1.333.095.381.096.729.27.97.557.533.634.313 1.468-.213 2.215-.543.771-1.533 1.656-3.007 2.62-4.538 2.97-9.557 7.057-13.45 10.41a230.166 230.166 0 0 0-6.148 5.493c-.16.148-.281.262-.364.34l-.093.088-.031.029-.344-.363-.344-.363.033-.031.095-.09.367-.342c.32-.299.788-.73 1.377-1.268a231.168 231.168 0 0 1 4.8-4.251c3.902-3.361 8.961-7.482 13.555-10.489 1.43-.935 2.299-1.737 2.736-2.359.455-.645.338-.91.266-.996-.062-.073-.194-.166-.451-.23-.253-.065-.595-.093-1.025-.067ZM86.85 88.61l-.343-.363a.5.5 0 1 0 .688.726l-.344-.363Z" fill="#0C296E"/><path d="M99.61 77.586a.5.5 0 0 1 .176.685c-1.812 3.062-3.834 6.046-5.402 8.262a147.816 147.816 0 0 1-2.635 3.607l-.038.05-.013.017-.397-.304.375.33-.117.134-.335.383c-.29.332-.708.81-1.216 1.396a503.316 503.316 0 0 0-3.855 4.493c-2.89 3.412-6.044 7.25-7.27 9.138l-1.46 5.613a.5.5 0 1 1-.967-.252l1.48-5.691a.507.507 0 0 1 .062-.144c1.238-1.931 4.484-5.877 7.392-9.31a506.946 506.946 0 0 1 5.417-6.285l.107-.122.003-.004.037-.048.146-.193c.128-.17.315-.418.55-.736a146.34 146.34 0 0 0 1.918-2.65c1.559-2.204 3.564-5.163 5.358-8.193a.5.5 0 0 1 .685-.176ZM91.3 89.903l.376.33a.492.492 0 0 0 .022-.026l-.397-.304Zm13.438-25.606c-.126-.07-.227-.077-.295-.058a.536.536 0 0 1-.027.007c-.139.032-.263.157-.476.418-1.443 1.772-2.451 2.997-3.458 4.221a1024.774 1024.774 0 0 0-3.455 4.218.5.5 0 1 1-.776-.632c1.444-1.771 2.451-2.996 3.459-4.22a1029.508 1029.508 0 0 0 3.479-4.248c.172-.212.492-.608.989-.728a1.382 1.382 0 0 1 1.048.149c.293.163.542.418.694.708a.468.468 0 0 1 .036.088c.121.4.065.874-.039 1.307a8.58 8.58 0 0 1-.493 1.397c-.407.923-.933 1.818-1.256 2.264a.5.5 0 1 1-.811-.585c.277-.383.77-1.215 1.152-2.082a7.56 7.56 0 0 0 .435-1.228c.084-.349.095-.593.066-.74a.783.783 0 0 0-.272-.256Zm-8.42 2.509c.295.09.549.285.707.593l.004.01c.187.384.14.778.034 1.092a3.197 3.197 0 0 1-.447.823.5.5 0 0 1-.81-.585c.137-.191.25-.383.309-.557.056-.168.046-.268.017-.332a.154.154 0 0 0-.102-.086.676.676 0 0 0-.324.01c-.315.068-.684.269-.95.493-2.137 1.93-4.387 5.015-5.769 7.555a.503.503 0 0 1-.064.092l-.047.052-.133.15-.501.56c-.43.478-1.042 1.152-1.765 1.936-1.445 1.565-3.34 3.57-5.137 5.321a.5.5 0 0 1-.698-.716c1.778-1.733 3.66-3.724 5.1-5.284a207.214 207.214 0 0 0 2.255-2.482l.131-.148.008-.01c1.424-2.604 3.727-5.764 5.956-7.773l.01-.01c.363-.308.88-.602 1.39-.714.256-.056.547-.074.826.01Z" fill="#0C296E"/><path d="M102.514 63.266c-.648.098-1.269.466-1.658.793l-.012.01c-.393.31-.896.845-1.436 1.484a47.484 47.484 0 0 0-1.572 1.988v.001c-4.298 5.677-4.733 6.153-8.934 10.758l-.957 1.05a.5.5 0 1 1-.74-.673l.969-1.062c4.175-4.576 4.593-5.035 8.864-10.676a48.577 48.577 0 0 1 1.606-2.031c.544-.644 1.098-1.242 1.574-1.619.477-.4 1.262-.878 2.146-1.012.925-.14 1.944.104 2.755 1.129a.5.5 0 0 1-.784.62c-.564-.712-1.21-.853-1.821-.76ZM20.316 36.012C14.29 32.773 10.014 28.081 10.014 25v6.762c-.327 5.529 5.183 9.12 10.302 11.939v-7.689Z" fill="#0C296E"/><path d="M11 28.522c2.281-3.37 8.002-5.76 12.257-5.76V15h-.001c-.34 0-.673.006-.998.019C12.696 15.39 10 21.095 10 24.512v7.006c0-1.054.368-2.063 1-2.996Zm0-1.605v-2.405c0-1.516.625-3.627 2.43-5.36 1.67-1.602 4.426-2.955 8.828-3.133V21.8c-2.692.2-5.72 1.183-8.182 2.66-1.137.682-2.211 1.508-3.076 2.456Z" fill="#0C296E"/><path d="M9.86 38.61a4 4 0 0 0-2.547 5.05L20.1 82.477a4 4 0 0 0 5.05 2.547l55.395-18.249a4 4 0 0 0 2.548-5.05l-3.186-9.67 13.366 2.784c3.014.627 5.578-2.242 4.616-5.167l-8.699-26.43c-.963-2.926-4.733-3.711-6.784-1.413L73.31 32.024l-3.003-9.116a4 4 0 0 0-5.051-2.547L9.86 38.61Z" fill="#FFC60A"/><path d="M60.217 45.193c1.506.314 2.108 2.142 1.083 3.29L45.956 65.665c-1.026 1.148-2.91.756-3.392-.706l-7.219-21.89c-.482-1.462.8-2.898 2.308-2.584l22.564 4.708Z" fill="#fff"/></svg>