<svg width="88" height="88" viewBox="0 0 88 88" fill="none" xmlns="http://www.w3.org/2000/svg"><path d="M54.3 27.11a11.81 11.81 0 1 0 0-23.62 11.81 11.81 0 0 0 0 23.62Z" fill="#3370FF"/><path d="m44.82 52.23 10.46 13.24a2.52 2.52 0 0 0 3.54.41l13.23-10.46a2.52 2.52 0 0 0 .42-3.54L62 38.65a2.53 2.53 0 0 0-3.55-.42L45.23 48.69a2.52 2.52 0 0 0-.41 3.54Z" fill="#FAC823"/><path d="M28.69 29.79a2.53 2.53 0 0 1 3.51 2.61l-2.44 20.75a2.52 2.52 0 0 1-4 1.73L9 42.41a2.52 2.52 0 0 1 .51-4.34l19.18-8.28Z" fill="#00D6B9"/><path d="M5.13 83.41h9.53l3.57-9.72S29.59 59.8 29.05 57.42c-.543-1.697-6.76 5.09-6.76 5.09L24.09 49s1.13-5-1.55-5.1c-2.68-.1-3.54 3.73-3.54 3.73L16.11 57s1.37-13.11-.64-13c-2.01.11-1.54 5-1.54 5s.26-.9-.82-.91c-1.08-.01-3 23.31-3 23.31L5.13 83.41Zm25.17-.08h11l4.95-27.61s10.48-8.5 9-14.19C53.77 35.84 46.44 35 46.44 35S50.57 22.51 49 20.32c-1.57-2.19-8 17.61-8 17.61l-2.21 1.29L37.57 55l-8 28 .73.33Zm41.7 0h9.68l-4-11.08s5.48-5.49 6.13-8.15c.65-2.66-.68-6.37-5.76-9.7 0 0 2.55-4 2-6.31-.55-2.31-10.48-.94-10.5 0-.02.94 2.32 2.61 6 2.57l-5.69 10.25s-3.63-7.86-5.66-8c-2.03-.14 7.8 30.42 7.8 30.42Z" fill="#fff"/><path d="M29.465 57.826a.913.913 0 0 0-.175-.504.826.826 0 0 0-.388-.278c-.257-.092-.532-.064-.701-.034a2.284 2.284 0 0 0-.298.074l-.021.006-.007.003h-.002l-.002.001.139.386-.139-.386a.41.41 0 0 0-.132.078c-1.413 1.244-2.816 2.494-4.215 3.74l-1.507 1.342a.41.41 0 0 0 .545.612l1.51-1.343c1.376-1.226 2.754-2.454 4.143-3.677.034-.01.078-.02.127-.028a.64.64 0 0 1 .295.002.198.198 0 0 1 .01.056c.008.134-.043.419-.304.94-.253.508-1.023 1.668-2.062 3.156a306.369 306.369 0 0 1-3.547 4.941 688.727 688.727 0 0 1-4.726 6.39l-.106.141.328.246-.328-.246a.41.41 0 0 0-.057.105l-3.49 9.49a.41.41 0 0 0 .77.283l3.469-9.434.07-.093a492.028 492.028 0 0 0 1.38-1.852 689.822 689.822 0 0 0 3.352-4.546 307.112 307.112 0 0 0 3.557-4.956c1.027-1.469 1.837-2.685 2.124-3.258.279-.557.41-1.002.388-1.357Zm-.83-.01Zm.006.006Z" fill="#2851A3"/><path d="M23.477 44.638c-.182-.2-.456-.348-.92-.328-1.082.047-1.664.318-2.074.802-.443.522-.735 1.34-1.088 2.627-.352 1.284-1.112 3.746-1.781 5.88a746.624 746.624 0 0 1-1.152 3.639l-.102.317-.39-.125-.41-.014.06-1.714c.035-1.036.083-2.43.13-3.863.095-2.87.19-5.877.19-6.479v-.008a1.394 1.394 0 0 0-.158-.707c-.1-.177-.211-.25-.28-.27-.045-.013-.109-.017-.205.078-.11.11-.251.351-.345.81l-.003.01a24.906 24.906 0 0 0-.59 3.994v.01a573.62 573.62 0 0 0-.639 7.976l-.011.155-.41-.027-.408-.03.011-.157.033-.454.127-1.698c.112-1.448.274-3.483.48-5.833.09-1.386.294-2.763.607-4.116.112-.539.301-.954.57-1.221.285-.284.65-.388 1.008-.286.335.096.598.352.77.657.173.309.271.697.263 1.122 0 .628-.096 3.649-.19 6.502-.03.907-.06 1.8-.088 2.596l.35-1.109c.67-2.138 1.425-4.586 1.773-5.852.346-1.263.675-2.26 1.252-2.94.61-.719 1.448-1.038 2.665-1.091.687-.03 1.204.2 1.562.597.343.379.508.871.587 1.319.08.452.08.9.061 1.228a6.224 6.224 0 0 1-.05.518l-.005.029c-.436 4.738-1.003 8.591-1.655 13.027-.113.767-.229 1.551-.346 2.36a.41.41 0 1 1-.812-.117c.118-.812.234-1.598.347-2.366.653-4.44 1.217-8.273 1.65-12.993a.47.47 0 0 1 .005-.031v-.006l.004-.023.013-.095c.01-.084.023-.204.03-.35a4.637 4.637 0 0 0-.05-1.039c-.065-.372-.19-.693-.386-.91ZM15.97 57.451l-.41-.015a.41.41 0 0 0 .8.14l-.39-.126Zm-2.67-.05-.41-.03a.41.41 0 1 0 .819.057l-.41-.027Z" fill="#2851A3"/><path d="M13.213 48.496a.44.44 0 0 0-.119.102 2.681 2.681 0 0 0-.412 1.193c-.264 1.317-.712 6.024-1.139 10.786l-.335 3.784c-.29 3.282-.536 6.087-.661 7.09a.407.407 0 0 1-.029.107l-4.92 11.78a.41.41 0 0 1-.756-.316L9.74 71.294c.125-1.032.366-3.766.649-6.978.108-1.224.222-2.518.338-3.812.421-4.708.871-9.46 1.147-10.857a3.5 3.5 0 0 1 .56-1.535 1.26 1.26 0 0 1 .519-.4.41.41 0 0 1 .103-.028 1.03 1.03 0 0 1 .994.453c.15.247.247.522.286.808a.41.41 0 1 1-.812.11 1.278 1.278 0 0 0-.167-.479.21.21 0 0 0-.144-.08Zm9.42-4.996a.41.41 0 0 1 .306.493 413.556 413.556 0 0 0-2.032 9.318 1041.87 1041.87 0 0 1-.886 4.195.41.41 0 0 1-.802-.172c.327-1.526.61-2.883.883-4.183a415.043 415.043 0 0 1 2.039-9.343.41.41 0 0 1 .492-.307Zm25-8.136a1.3 1.3 0 0 1 .875 0c.03.011.06.025.086.043a.832.832 0 0 1 .365.635 1.64 1.64 0 0 1-.063.586c-.35 1.301-1.165 2.322-2.148 3.158-.892.759-1.941 1.381-2.945 1.932a10.61 10.61 0 0 1-.042 6.225.41.41 0 0 1-.782-.246 9.79 9.79 0 0 0-.058-6.047.41.41 0 0 1 .194-.49c1.088-.59 2.192-1.225 3.102-1.998.906-.771 1.596-1.66 1.887-2.748v-.003a.849.849 0 0 0 .038-.297.481.481 0 0 0-.234.022 294.597 294.597 0 0 0-5.504 2.033c-.942.36-1.796.693-2.421.949a20.065 20.065 0 0 0-.836.362l-.001.007c-.014.122-.03.296-.05.518-.04.443-.092 1.066-.151 1.81a931.32 931.32 0 0 0-.407 5.409 2758.827 2758.827 0 0 0-.512 7.136l-.047.668L37.57 55l.395.11-.305 1.094a4656.941 4656.941 0 0 1-3.343 11.906c-1.88 6.656-3.885 13.675-4.36 15.026a.41.41 0 1 1-.774-.272c.465-1.319 2.46-8.3 4.345-14.977a4312.224 4312.224 0 0 0 3.342-11.904l.294-1.053.044-.628a2613.903 2613.903 0 0 1 .512-7.138c.143-1.958.29-3.924.407-5.413.06-.745.111-1.372.151-1.82a27.174 27.174 0 0 1 .073-.697 1.32 1.32 0 0 1 .011-.065c.001-.005.013-.068.045-.13a.455.455 0 0 1 .154-.17c.032-.022.067-.043.099-.06a3.83 3.83 0 0 1 .241-.12c.19-.088.455-.2.771-.33.634-.26 1.496-.596 2.44-.956 1.887-.72 4.112-1.538 5.52-2.04ZM37.57 55l.395.11a.425.425 0 0 0 .014-.082L37.57 55Z" fill="#2851A3"/><path d="M47.906 19.88c-.19.196-.375.486-.56.83-.376.695-.811 1.727-1.306 2.988-.365.93-.764 1.986-1.199 3.14a265.155 265.155 0 0 1-2.62 6.747 89.69 89.69 0 0 0-1.608 4.21.41.41 0 1 0 .773.272 88.816 88.816 0 0 1 1.593-4.17v-.001a267.006 267.006 0 0 0 2.638-6.792c.434-1.15.83-2.197 1.186-3.106.496-1.263.915-2.253 1.264-2.899.176-.327.32-.537.429-.65l.027-.027c.135.084.266.24.37.519.128.344.203.852.186 1.562-.035 1.42-.435 3.54-1.351 6.527v.002a221.026 221.026 0 0 0-1.26 4.31 132.773 132.773 0 0 0-.398 1.453l-.02.076-.007.026a.41.41 0 0 0 .279.496c4.59 1.38 6.752 2.2 7.974 4.886.67 1.5.798 2.55.537 3.642-.272 1.133-.965 2.343-2.055 4.159l-.002.004c-.925 1.588-2.617 3.407-4.103 4.847a54.689 54.689 0 0 1-2.66 2.408l-.04.035-.011.008-.003.003a.41.41 0 0 0-.143.244l.404.072-.404-.071-.185 1.035a16627.782 16627.782 0 0 1-2.042 11.364c-1.155 6.412-2.392 13.231-2.721 14.892a.41.41 0 1 0 .804.16c.331-1.67 1.57-8.5 2.724-14.906a11476.548 11476.548 0 0 0 2.042-11.365l.16-.89a53.021 53.021 0 0 0 .704-.608 55.325 55.325 0 0 0 1.942-1.792c1.49-1.444 3.253-3.329 4.239-5.02 1.07-1.784 1.84-3.108 2.147-4.388.316-1.319.134-2.558-.586-4.169v-.002c-1.36-2.986-3.812-3.92-8.105-5.218 0-.005.002-.009.003-.013.07-.26.176-.647.316-1.147.281-1.002.7-2.461 1.254-4.293.924-3.012 1.349-5.216 1.387-6.747.018-.764-.059-1.388-.238-1.869-.181-.487-.478-.85-.9-1.03l-.004-.002c-.372-.155-.685.085-.851.258Zm.667.503-.009.004c.007-.004.01-.004.01-.004Z" fill="#2851A3"/><path d="M46.487 39.36a.41.41 0 0 1 .403.418 10.51 10.51 0 0 0 .962 4.58l.002.004c.505 1.126 1.494 1.727 2.688 1.895 1.204.169 2.596-.113 3.807-.75a.41.41 0 0 1 .382.726c-1.339.704-2.903 1.032-4.303.836-1.41-.198-2.676-.935-3.321-2.369a11.331 11.331 0 0 1-1.037-4.937.41.41 0 0 1 .417-.403Z" fill="#2851A3"/><path d="M51.323 36.293a.41.41 0 0 1 .255.52 93.593 93.593 0 0 0-1.037 3.235l-.125.41a145.252 145.252 0 0 1-1.598 4.916.41.41 0 1 1-.776-.266c.778-2.27 1.22-3.683 1.59-4.89l.125-.41a94.664 94.664 0 0 1 1.045-3.26.41.41 0 0 1 .52-.255Zm3.164 3.157a.41.41 0 0 0-.547.193c-1.197 2.502-1.8 3.861-2.905 6.357l-.1.224a.41.41 0 0 0 .75.332l.099-.223c1.105-2.495 1.704-3.845 2.896-6.336a.41.41 0 0 0-.193-.547Zm15.539 8.605c.12.413.443.765.939 1.065.534.324 1.221.557 1.92.72.694.164 1.377.254 1.888.303a15.144 15.144 0 0 0 .78.055l.044.002h.012s-.36-.154-.369.256c-.01.41.145.242.145.242l.203.322h-.016l-.145.046c-.042-.002-.009-.053-.087-.057a15.456 15.456 0 0 1-.645-.05 15.34 15.34 0 0 1-1.998-.32c-.737-.173-1.518-.43-2.157-.818-.637-.386-1.18-.931-1.34-1.694-.08-.358.149-.605.34-.734.192-.13.452-.222.728-.294.562-.147 1.343-.245 2.2-.313 1.725-.136 3.852-.156 5.372-.156.971 0 2.01.208 2.543 1.025.535.82.43 2.05-.35 3.746l-.001.001c-.334.72-.765 1.544-1.452 2.848a11.48 11.48 0 0 1 5.647 8.223c.207 1.807-.428 3.192-1.568 4.678-.566.737-1.265 1.51-2.056 2.377l-.2.218c-.702.769-1.477 1.617-2.31 2.593 1.406 4.207 2.33 6.838 3.918 10.84a.41.41 0 1 1-.762.302c-1.624-4.09-2.557-6.757-4.008-11.101a.41.41 0 0 1 .076-.395 97.714 97.714 0 0 1 2.68-3.01c.795-.87 1.47-1.62 2.011-2.323 1.07-1.395 1.576-2.568 1.405-4.078a10.66 10.66 0 0 0-5.215-7.598 463.64 463.64 0 0 0-.905 1.724.41.41 0 1 1-.727-.38c.392-.75.73-1.393 1.025-1.952a.41.41 0 0 1 .152-.288c.752-1.427 1.2-2.279 1.545-3.022.76-1.653.694-2.517.408-2.955-.287-.44-.928-.653-1.856-.653-1.52 0-3.618.02-5.307.154-.848.067-1.57.16-2.058.288a1.905 1.905 0 0 0-.449.163Zm-.128 11.925a6748.964 6748.964 0 0 0 4.936-8.838l.09-.162m-5.026 9c-.81-1.65-1.94-3.696-3.006-5.216-.606-.863-1.223-1.604-1.774-1.985-.27-.187-.599-.342-.942-.29-.382.06-.625.343-.766.686l-.001.004c-.074.184-.078.421-.066.64.014.237.052.526.11.857.116.663.317 1.529.58 2.548.527 2.04 1.315 4.728 2.205 7.702.316 1.056.645 2.147.98 3.26 1.557 5.164 3.247 10.77 4.385 15.245a.41.41 0 0 0 .794-.202c-1.142-4.495-2.839-10.123-4.395-15.287-.335-1.11-.663-2.2-.978-3.251-.89-2.975-1.674-5.649-2.197-7.672a33.684 33.684 0 0 1-.566-2.484 6.87 6.87 0 0 1-.099-.762 1.737 1.737 0 0 1 0-.223.325.325 0 0 1 .01-.07.478.478 0 0 1 .096-.161c.018-.017.026-.018.032-.019.027-.004.135.003.351.153.42.291.967.924 1.57 1.782 1.19 1.697 2.478 4.096 3.277 5.808a.41.41 0 0 0 .73.027c1.735-3.1 3.167-5.665 4.166-7.455.5-.895.862-1.443 1.128-1.92l.35-.762-.632-.477" fill="#2851A3"/><path d="M76.307 48.79a.41.41 0 0 1 .263.518 13.348 13.348 0 0 1-1.393 2.97.41.41 0 1 1-.694-.436 12.53 12.53 0 0 0 1.307-2.788.41.41 0 0 1 .517-.263Zm5.047 7.855a.41.41 0 0 1 .151.56l-1.15 2a.41.41 0 1 1-.71-.41l1.15-2a.41.41 0 0 1 .56-.15Zm1.936 2.949a.41.41 0 0 1 .126.566l-1 1.58a.41.41 0 0 1-.692-.439l1-1.58a.41.41 0 0 1 .565-.127ZM2.97 83.33a.41.41 0 0 1 .41-.41h83.13a.41.41 0 0 1 0 .82H3.38a.41.41 0 0 1-.41-.41Z" fill="#2851A3"/><path d="M75.299 50.202h.293l-.121.828-.649-.058.477-.77Z" fill="#2851A3"/></svg>