<svg width="120" height="120" viewBox="0 0 120 120" fill="none" xmlns="http://www.w3.org/2000/svg"><path d="M43.367 17.21v4.7c-14.86 2-28.4 6.1-28.49 12.36v-4.7c.09-6.24 13.63-10.36 28.49-12.36Z" fill="#14C0FF"/><path d="M112.156 83.21c-3-11.16-104.343-26.8-104.343-41.79v-8.17c0 16.88 104.243 31.11 104.453 42.36l-.11 7.6Z" fill="#0C296E"/><path d="M8.267 41.93a.5.5 0 0 1-.5-.5v-7.07c-.71-7.29 4.69-12.15 10.39-13.71a.5.5 0 0 1 .63.48v6.14a.5.5 0 0 1-.33.47c-4.5 1.65-9.67 4.69-9.67 13.69a.5.5 0 0 1-.52.5Zm9.5-20.13c-4.71 1.52-9.68 5.6-9 12.51v.85c1.75-4.78 5.52-6.92 9-8.24V21.8Z" fill="#0C296E"/><path d="M30.687 74.031c-13.65 1.48-22.67 5.26-22.67 8.06v4.42c0-2.72 8.32-7.2 22.67-8.47v-4.01Zm67.229-16.652s11.711 2.44 14.381 5.66v4.17s-8.82-4.7-14.38-5.41v-4.42ZM88.067 14.51h-.08a167.47 167.47 0 0 0-27.1-2.31.5.5 0 0 1-.5-.5V6.59a.51.51 0 0 1 .5-.5 168.21 168.21 0 0 1 27.27 2.32.5.5 0 0 1 .42.49v5.12a.46.46 0 0 1-.18.38.47.47 0 0 1-.33.11Zm-26.68-3.3a168.81 168.81 0 0 1 26.18 2.22v-4.1a167.6 167.6 0 0 0-26.18-2.24v4.12Zm43.88 7.97a.429.429 0 0 1-.19 0 69.352 69.352 0 0 0-12.66-3.77.49.49 0 0 1-.4-.49V9.76a.508.508 0 0 1 .6-.49 69.489 69.489 0 0 1 12.84 3.84.5.5 0 0 1 .31.46v5.11c0 .082-.02.164-.059.237a.504.504 0 0 1-.161.183.54.54 0 0 1-.28.08Zm-12.25-4.67a70.738 70.738 0 0 1 11.75 3.47v-4a67.71 67.71 0 0 0-11.75-3.54v4.07Z" fill="#FFC60A"/><path d="M97.687 104.42a4.154 4.154 0 0 0 2.87 1.29c.16 1.48.42 3.12 1.62 4 .14.1.32.18.45.08.13-.1.11-.2.12-.34.06-1.8.19-5.7.1-5.83-.09-.13-8.47-4-8.47-4-1.67-1.51-18.17-16.55-18.17-16.55s-4.63-13.7-4.61-21.14c0-4.71-9 3.23-9 3.23s4.06 21 9.11 24.53l20 14a31.228 31.228 0 0 0 2.93 6.15c1.5 2 2.14 2.7 4.17 2.56 2.03-.14 2.88-1.27 4.7-3.55 0 0 1.08.78 2.85 2.17 2.89 2.28 4.41 2.72 4.94 2.17.53-.55-2.71-2.88-6.24-6.21-.7-.67-1.35-1.26-2-1.83l-3-.38-2.37-.35Zm-.32 3.46c2.16 1.84 2.74 2.19 4.11 3.36l-4.11-3.36Zm-1.21 1.38c1.2 1.22 1.78 1.83 3 3.08l-3-3.08Z" fill="#fff"/><path d="M110.757 113.91c-1 0-2.56-.83-4.67-2.5-1.13-.89-2-1.53-2.45-1.87-1.65 2.07-2.63 3.21-4.76 3.36a3.686 3.686 0 0 1-3.35-1.22.475.475 0 0 1-.36-.4c-.28-.33-.57-.71-.89-1.14a31.964 31.964 0 0 1-3-6.13L71.457 90.1c-5.15-3.6-9.14-24-9.31-24.84a.5.5 0 0 1 .16-.47c1.09-1 6.64-5.71 8.89-4.7a1.79 1.79 0 0 1 .96 1.84c0 6.91 4.09 19.49 4.54 20.86l18 16.41c8.43 3.9 8.5 4 8.6 4.14.1.14.13.19.12 1.43.65.57 1.31 1.17 2 1.84a99.69 99.69 0 0 0 3.26 2.93c2.24 2 3.16 2.79 3.19 3.46a.746.746 0 0 1-.2.53 1.271 1.271 0 0 1-.91.38Zm-7.21-5.56a.464.464 0 0 1 .29.1s1.11.8 2.87 2.18c2.63 2.08 3.71 2.28 4.09 2.27a26.818 26.818 0 0 0-2.75-2.6c-1-.86-2.12-1.85-3.29-3-.48-.46-.93-.87-1.37-1.27 0 .62 0 1.38-.07 2.33a.47.47 0 0 1 .23-.01Zm-7.39 2.53a2.631 2.631 0 0 0 1.86 1l-1.86-1.82c-.03.273-.03.548 0 .82Zm.43-1.88c.67.69 1.14 1.18 1.67 1.71l1.09 1.13a3.388 3.388 0 0 0 1.41-.62l-1-.79-.15-.12c-.61-.49-1.3-1-2.44-2a1.88 1.88 0 0 0-.6.69h.02Zm3.83.65 1.09.88c.14-.139.274-.286.4-.44a3.805 3.805 0 0 1-1.23-1.69 6.11 6.11 0 0 0-2.28-.41l2.02 1.66Zm-37.26-44.3c.5 2.49 4.33 20.77 8.85 23.93 4.3 3 20 14 20 14a.51.51 0 0 1 .18.25 30.788 30.788 0 0 0 2.89 6 .97.97 0 0 0 .13.17 4.004 4.004 0 0 1 .82-1.76 2.705 2.705 0 0 1 1.87-1 6.936 6.936 0 0 1 2.39.23c-.07-.36-.13-.71-.17-1.07a4.62 4.62 0 0 1-2.78-1.4.503.503 0 0 1-.127-.564.5.5 0 0 1 .847-.126 3.729 3.729 0 0 0 2.53 1.13.503.503 0 0 1 .48.45 5.442 5.442 0 0 0 1.2 3.47c0-1.49.14-4.37.12-5.2-1-.5-5.3-2.51-8.21-3.85a.588.588 0 0 1-.13-.09c-1.64-1.41-18.14-16.48-18.14-16.48a.46.46 0 0 1-.13-.21c-.19-.56-4.62-13.86-4.62-21.3 0-.51-.12-.82-.35-.93-1.21-.49-5.1 2.16-7.65 4.35Zm39.14 44.09a.24.24 0 0 0 0 .1h.09l.07-.09-.16-.01Z" fill="#0C296E"/><path d="M19.157 82.212c2.9-5.54 5.44-9.7 5.44-9.7l9.71 6.37-6.08 6.73 24.8 4.58 9-1.42 8.41 4.3h-44.44a7.42 7.42 0 0 1-6.84-10.86Z" fill="#fff"/><path d="M25.717 93.598a7.92 7.92 0 0 1-7-11.62c2.87-5.47 5.44-9.67 5.44-9.71a.54.54 0 0 1 .32-.23.51.51 0 0 1 .38.07l9.72 6.4a.489.489 0 0 1 .205.573.542.542 0 0 1-.105.187l-5.52 6.03 23.84 4.4 8.91-1.4a.48.48 0 0 1 .31 0l8.41 4.3a.5.5 0 0 1 .26.56.51.51 0 0 1-.49.38h-44.68v.06Zm-6.13-11.16a6.94 6.94 0 0 0 .27 6.92 6.901 6.901 0 0 0 2.63 2.43 6.74 6.74 0 0 0 3.49.8h42.38l-6.41-3.28-8.79 1.4h-.17l-24.83-4.59a.48.48 0 0 1-.38-.33.49.49 0 0 1 .1-.49l5.69-6.3-8.81-5.77c-.73 1.21-2.84 4.78-5.17 9.21Z" fill="#0C296E"/><path d="M69.016 56.67a13.42 13.42 0 0 0-7.21-4.46s-2.86.08-1.67-7L51.716 40c-.26 7.87.58 11.7-2.61 12.64l11.05 9.87 8.87-5.86" fill="#fff"/><path d="m59.776 62.9-11-9.89a.49.49 0 0 1-.035-.713.5.5 0 0 1 .225-.137c2.07-.65 2.19-2.65 2.19-7.65 0-1.32 0-2.8.07-4.47a.54.54 0 0 1 .26-.43.5.5 0 0 1 .5 0l8.42 5.21a.46.46 0 0 1 .23.5c-.66 3.93 0 5.43.44 6a1.061 1.061 0 0 0 .74.45v1a2 2 0 0 1-1.47-.75c-1-1.15-1.25-3.33-.76-6.5l-7.43-4.64v3.59c0 4.52 0 7.22-2.11 8.33l10.4 9.36-.67.74Z" fill="#0C296E"/><path d="M58.467 22.922a10.45 10.45 0 0 0-11.6 9l-1.87 15 4.57.58 2.23-8.54 8.11 5.3-.84 4.43 6.53.82 1.87-15a10.38 10.38 0 0 0-9-11.59Z" fill="#0C296E"/><path d="M65.596 50.008h-.06l-6.53-.82a.501.501 0 0 1-.34-.2.46.46 0 0 1-.09-.39l.78-4.09-7.2-4.75-2.06 7.87a.49.49 0 0 1-.54.37l-4.57-.58a.51.51 0 0 1-.44-.56l1.87-15a10.93 10.93 0 0 1 12.16-9.43 10.89 10.89 0 0 1 9.44 12.14l-1.87 15a.55.55 0 0 1-.19.34.57.57 0 0 1-.36.1Zm-5.94-1.75 5.51.69 1.8-14.5a9.86 9.86 0 0 0-15.84-9 9.89 9.89 0 0 0-3.76 6.56l-1.81 14.5 3.64.46 2.12-8.11a.5.5 0 0 1 .3-.35.51.51 0 0 1 .45.05l8.09 5.28a.5.5 0 0 1 .22.51l-.72 3.91Z" fill="#0C296E"/><path d="M58.757 25.841a8.542 8.542 0 0 0-3.3.17 8.331 8.331 0 0 0-3 1.42 8.379 8.379 0 0 0-3.3 5.57c-.58 4.54.41 5.67 2.64 6l4.9 3.37c8.56 1.08 8.91-2.25 9.49-6.79a8.77 8.77 0 0 0-7.42-9.74h-.01Z" fill="#fff"/><path d="M59.527 43.07c-.97-.01-1.939-.076-2.9-.2a.43.43 0 0 1-.22-.09l-4.81-3.27c-2.7-.45-3.5-2.24-2.95-6.54a9 9 0 0 1 1.17-3.31 8.858 8.858 0 0 1 2.34-2.63 9.001 9.001 0 0 1 3.17-1.52 8.79 8.79 0 0 1 3.5-.17 9.16 9.16 0 0 1 6 3.55 9.25 9.25 0 0 1 1.83 6.74v.12c-.5 3.9-.93 7.32-7.13 7.32Zm-2.66-1.18c7.88 1 8.22-1.76 8.8-6.25v-.13a8.27 8.27 0 0 0-7-9.18 7.76 7.76 0 0 0-3.11.15 7.93 7.93 0 0 0-2.81 1.34 7.82 7.82 0 0 0-2.09 2.31 7.999 7.999 0 0 0-1 2.93c-.59 4.65.55 5.19 2.22 5.44a.49.49 0 0 1 .21.08l4.78 3.31Z" fill="#0C296E"/><path d="M66.266 34.39a23.98 23.98 0 0 1-1.18 8.5 6.61 6.61 0 0 1-6.61 4.48 6.998 6.998 0 0 1-4.94-2.37 8.001 8.001 0 0 1-1.77-2.8 7.792 7.792 0 0 1-.47-3.28" fill="#fff"/><path d="M58.826 47.88h-.38a7.35 7.35 0 0 1-2.9-.73 7.569 7.569 0 0 1-2.39-1.82 8.44 8.44 0 0 1-2.36-6.44.503.503 0 0 1 .535-.464.501.501 0 0 1 .465.535 7.47 7.47 0 0 0 .44 3.07 7.22 7.22 0 0 0 1.66 2.62 6.489 6.489 0 0 0 4.6 2.22 6.1 6.1 0 0 0 6.12-4.14 23.48 23.48 0 0 0 1.15-8.32.5.5 0 0 1 .48-.52.52.52 0 0 1 .52.48 24.59 24.59 0 0 1-1.2 8.68 7.11 7.11 0 0 1-6.74 4.83Z" fill="#0C296E"/><path d="m63.157 26.39-10.48-1.57-4.66 8.13 2.27 7.18 2.22-6.62 3.31.41 1.34-4.06.13 4.24 9.59 1.19.3-2.37c.35-2.52-1.53-6.21-4.02-6.53Z" fill="#0C296E"/><path d="M50.287 40.631a.5.5 0 0 1-.48-.35l-2.27-7.18a.52.52 0 0 1 0-.4l4.66-8.13a.48.48 0 0 1 .5-.24l10.47 1.57a4.51 4.51 0 0 1 2.99 1.9 7.49 7.49 0 0 1 1.52 5.19l-.3 2.36a.51.51 0 0 1-.56.44l-9.59-1.19a.5.5 0 0 1-.44-.48v-1.39l-.44 1.35a.51.51 0 0 1-.54.34l-2.91-.36-2.14 6.23a.49.49 0 0 1-.47.34Zm-1.73-7.62 1.74 5.5 1.74-5.17a.48.48 0 0 1 .53-.33l2.9.35 1.2-3.66a.51.51 0 0 1 .855-.18.49.49 0 0 1 .125.32l.12 3.81 8.67 1.07.23-1.87a6.38 6.38 0 0 0-1.32-4.45 3.57 3.57 0 0 0-2.26-1.52l-10.15-1.51-4.38 7.64Z" fill="#0C296E"/><path d="m54.907 26.281-2-.25-2.75 22.87 2 .24 2.75-22.86Z" fill="#0C296E"/><path d="M52.157 49.64h-.06l-2-.24a.49.49 0 0 1-.33-.19.5.5 0 0 1-.11-.37l2.76-22.87a.499.499 0 0 1 .56-.43l2 .25a.5.5 0 0 1 .44.55l-2.77 22.86a.51.51 0 0 1-.49.44Zm-1.45-1.13 1 .12 2.64-21.87-1-.13-2.64 21.88Z" fill="#0C296E"/><path d="M51.307 38.8a5.19 5.19 0 0 1-2-.83 2.8 2.8 0 0 1-.7-.9 3 3 0 0 1-.3-1.1c0-.49.27-2.27 2-2a2.87 2.87 0 0 1 1.48 1" fill="#fff"/><path d="M51.307 39.298h-.09a5.64 5.64 0 0 1-2.19-.91 3.2 3.2 0 0 1-.87-1.1c-.201-.4-.32-.834-.35-1.28a2.94 2.94 0 0 1 .86-2.11 2.09 2.09 0 0 1 1.72-.39 3.4 3.4 0 0 1 1.77 1.15.53.53 0 0 1-.09.71.49.49 0 0 1-.7-.09 2.42 2.42 0 0 0-1.21-.83 1.088 1.088 0 0 0-.85.21 2 2 0 0 0-.51 1.31c.022.307.107.607.25.88.14.284.337.536.58.74a4.68 4.68 0 0 0 1.76.72.502.502 0 1 1-.09 1l.01-.01Z" fill="#0C296E"/><path d="M24.487 72.31s6.37-14.24 9.91-17 6.11-2.27 8.9-2.78c4-.74 6.58-1.24 6.58-1.24s3.33 8.77 11.18 6.08c2.29-.78 0-6 0-6 .85.28 1.723.488 2.61.62 6.15-.75 12.14 18.12 12.14 18.12l-9.65 4.54.76-9.28s1.39 2.52-.76 9.28-4.85 13.06-4.59 13.07l-2 .5-6.5 1-16.63-3c.39-3.32.45-6.67.18-10l-2.22 2.61-9.91-6.52Z" fill="#14C0FF"/><path d="M53.067 89.721h-.09l-16.63-3a.49.49 0 0 1-.41-.55c.322-2.875.395-5.772.22-8.66l-1.52 1.74c-.079.092-.088.094-.208.11-.22.076-.467.017-.467-.11l-9.886-6.42c-.102-.063-.077-.22-.112-.334-.135-.055-.127-.178-.078-.286.27-.59 6.57-14.45 10.16-17.25a12.07 12.07 0 0 1 7.2-2.63c.66-.07 1.28-.13 1.92-.25 4-.74 6.57-1.24 6.57-1.24a.51.51 0 0 1 .57.31c.13.34 3.25 8.29 10.55 5.79a.84.84 0 0 0 .52-.49c.53-1.22-.41-3.9-.82-4.84a.49.49 0 0 1 .09-.53.48.48 0 0 1 .53-.14 15.9 15.9 0 0 0 2.46.59c6.52-.71 12.4 17.65 12.65 18.43a.5.5 0 0 1-.27.6l-9.41 4.45c-1.19 3.73-2.57 7.33-3.48 9.73-.5 1.31-1 2.55-1.07 2.91a.51.51 0 0 1-.38.54l-2 .5-6.54 1-.07.03Zm-16.08-3.92 16.09 2.91 6.41-1 1.67-.39c.13-.45.44-1.28 1.07-2.94.93-2.42 2.28-6.07 3.48-9.87l.75-9.22a.51.51 0 0 1 .4-.45.52.52 0 0 1 .54.25c.06.11 1.32 2.5-.4 8.59l8.16-3.83c-1.77-5.4-6.9-17.9-11.47-17.36h-.13a16.512 16.512 0 0 1-1.7-.35c.43 1.24 1 3.36.44 4.67a1.911 1.911 0 0 1-1.12 1c-7.22 2.47-10.85-4.27-11.64-6l-6.19 1.16c-.68.13-1.35.19-2 .26a11.11 11.11 0 0 0-6.68 2.43c-3.04 2.45-8.61 14.24-9.61 16.53l9.19 6 2.03-2.33a.47.47 0 0 1 .53-.15.49.49 0 0 1 .35.43c.24 3.219.183 6.452-.17 9.66Z" fill="#14C0FF"/><path d="M33.597 80.24a.52.52 0 0 1-.33-.12.49.49 0 0 1 0-.7l6.66-7.78a.5.5 0 1 1 .76.65l-6.66 7.78a.521.521 0 0 1-.43.17Zm33.119-5.301a.5.5 0 0 1-.5-.48l-.34-10.13a.5.5 0 0 1 .48-.52.52.52 0 0 1 .52.49l.34 10.13a.5.5 0 0 1-.48.51h-.02Z" fill="#0C296E"/><path d="M104.007 93.668c4.17-3 8.14-6.403 8.14-9.343l.15-8.907c-.74 9.61-12.79 13.28-22.82 18.25h14.53Z" fill="#14C0FF"/></svg>