<svg width="120" height="120" viewBox="0 0 120 120" fill="none" xmlns="http://www.w3.org/2000/svg"><path d="M84.84 104.883h8.8c-3.866-.005-7.355-5.674-9.87-14.826h-8.8c2.515 9.151 6.004 14.821 9.87 14.826Zm-9.98-84.765c2.522-9.4 6.06-15.245 9.98-15.245h8.8c-3.925 0-7.463 5.845-9.984 15.245h-8.797Z" fill="#0C296E"/><path d="M9.357 24.12a4 4 0 0 1 4-4h82.836l2.394 10.485a109.995 109.995 0 0 1 0 48.968l-1.684 7.376a4 4 0 0 1-3.9 3.11H13.357a4 4 0 0 1-4-4v-61.94Z" fill="#BBBFC4" fill-opacity=".45"/><path d="m62.764 62.063 30.648-26.337a.5.5 0 0 0-.652-.758L62.112 61.305a3.5 3.5 0 0 1-4.562 0L12.438 22.539a.5.5 0 1 0-.652.759l45.112 38.765a4.5 4.5 0 0 0 5.865 0Z" fill="#8F959E"/><path d="M49.704 54.827a.5.5 0 0 1-.053.705l-28.977 24.9a.5.5 0 1 1-.652-.759l28.977-24.9a.5.5 0 0 1 .705.053Zm20.251 0a.5.5 0 0 1 .706-.054l22.714 19.519a.5.5 0 1 1-.652.758L70.009 55.532a.5.5 0 0 1-.054-.705Z" fill="#8F959E"/><path d="M71.936 92.127c-1.192 1.82-3.184 4.064-5.191 6.223a.5.5 0 1 0 .732.681c2.001-2.153 4.05-4.455 5.295-6.357.616-.941 1.075-1.843 1.198-2.612.062-.392.043-.79-.125-1.146-.174-.366-.477-.63-.873-.797-4.192-1.767-7.725-1.89-11.088-.869-3.336 1.014-6.468 3.146-9.88 5.803-4.854 3.778-9.725 7.442-16.572 7.352a.5.5 0 0 0-.013 1c7.24.095 12.37-3.803 17.199-7.563 3.404-2.65 6.41-4.679 9.556-5.635 3.12-.948 6.411-.852 10.41.834.209.088.306.196.357.303.055.117.084.294.041.56-.087.55-.445 1.303-1.046 2.223Z" fill="#0C296E"/><path d="M71.67 87.606a.5.5 0 0 0-.707.02l-9.932 10.537a.5.5 0 1 0 .728.686l9.932-10.536a.5.5 0 0 0-.02-.707Zm-4.71-.556a.5.5 0 0 0-.702-.077c-.717.577-1.563 1.531-2.527 2.618l-.031.035c-.975 1.1-2.097 2.365-3.399 3.626-2.625 2.545-5.948 5.039-10.157 6.053a.5.5 0 0 0 .235.973c4.456-1.075 7.933-3.705 10.619-6.308 1.328-1.288 2.471-2.577 3.443-3.672l.031-.036c.992-1.118 1.776-1.997 2.412-2.51a.5.5 0 0 0 .077-.702Z" fill="#0C296E"/><path d="m36.946 100.472.026-.003.035.499-.035-.499 1.441-.102 3.854-.277c3.216-.232 7.567-.55 12.11-.89 9.095-.68 18.934-1.453 21.987-1.822a.5.5 0 0 1 .454.189c.506.649.816 1.43.524 2.24-.28.779-1.061 1.408-2.279 1.922-5.723 2.411-16.464 4.753-25.725 6.488a487.147 487.147 0 0 1-16.789 2.827l-.266.039-.091.014-.072-.495.072.495a.488.488 0 0 1-.12.003L5.02 108.444a.5.5 0 0 1 .098-.995l26.99 2.649.03-.004.264-.039a403.973 403.973 0 0 0 4.725-.734c3.12-.501 7.396-1.22 12.027-2.087 9.28-1.739 19.914-4.064 25.52-6.427 1.138-.479 2.144-1.375 1.69-2.294m-39.418 1.959-.01.001-.018.002-.027.002a7.598 7.598 0 0 1-.921.007 10.164 10.164 0 0 1-2.526-.466c-2.014-.638-4.55-2.107-6.574-5.47-.454-.754-.329-1.63.36-2.721.692-1.095 1.877-2.28 3.282-3.532.697-.62 1.437-1.247 2.185-1.882l.007-.006c.748-.635 1.505-1.277 2.224-1.917 1.432-1.275 2.75-2.575 3.584-3.85.47-.72.827-1.344 1.072-1.876.242-.524.391-.994.413-1.4.022-.422-.094-.824-.434-1.099-.312-.252-.726-.322-1.13-.318-.81.01-1.938.325-3.258.813-1.34.494-2.94 1.188-4.724 2-1.295.59-2.689 1.241-4.154 1.927-6.64 3.107-14.753 6.903-21.864 8.685a.5.5 0 1 0 .244.97c7.215-1.808 15.444-5.66 22.082-8.766a431.206 431.206 0 0 1 4.106-1.906c1.78-.81 3.353-1.491 4.656-1.972 1.32-.487 2.302-.744 2.923-.75.311-.004.444.057.49.095.02.015.075.062.064.268-.012.221-.102.557-.322 1.035-.217.471-.546 1.05-1.002 1.747-.755 1.156-1.986 2.381-3.41 3.65a121.99 121.99 0 0 1-2.207 1.902l-.012.01c-.745.631-1.492 1.266-2.198 1.893-1.409 1.255-2.69 2.52-3.462 3.745-.775 1.228-1.112 2.542-.372 3.771 2.161 3.592 4.907 5.203 7.13 5.907 1.106.351 2.077.475 2.776.512.349.018.63.014.828.005.098-.004.175-.01.23-.014l.064-.006.012-.002 1.431-.102a5190.85 5190.85 0 0 0 15.968-1.166c8.809-.66 18.534-1.3 21.912-1.685m28.488-82.088c-1.021-3.679-2.197-6.867-3.503-9.43h6.53c1.409 2.52 2.71 5.89 3.846 9.965 1.286 4.64 2.339 10.157 3.088 16.282h-6.785c-.761-6.297-1.841-12-3.176-16.817Zm-4.631-9.43c1.359 2.551 2.595 5.83 3.668 9.697 1.38 4.98 2.49 10.94 3.25 17.55h8.8a140.88 140.88 0 0 0-.119-1c-.754-6.212-1.821-11.822-3.131-16.55-1.225-4.392-2.653-8.026-4.231-10.698h-8.797c.189.32.376.653.56 1Z" fill="#0C296E"/><path d="M107.229 44.823c-.55-9.78-1.89-18.51-3.78-25.3-2.52-9.05-5.98-14.65-9.81-14.65h-8.8c3.82 0 7.29 5.6 9.81 14.64 1.89 6.79 3.23 15.53 3.78 25.3h8.8v.01Z" fill="#3370FF"/><path d="M103.449 90.234c1.72-6.21 2.99-14.04 3.62-22.81h-8.8c-.63 8.77-1.9 16.6-3.62 22.81-2.51 9.04-5.98 14.64-9.81 14.64h8.8c3.83 0 7.29-5.6 9.81-14.64Z" fill="#00D6B9"/><path d="M112.089 59.514h-8.8c-.229 8.839-1.085 17.005-2.421 23.9-.066.336-.132.67-.199 1h8.8c1.397-6.854 2.312-15.018 2.591-23.9l.029-1Zm-1.03 1c-.267 8.48-1.117 16.286-2.41 22.9h-6.763c1.278-6.662 2.111-14.47 2.374-22.9h6.799Z" fill="#0C296E"/></svg>