<svg width="88" height="88" viewBox="0 0 88 88" fill="none" xmlns="http://www.w3.org/2000/svg"><path d="m44.82 52.23 10.46 13.24a2.52 2.52 0 0 0 3.54.41l13.23-10.46a2.52 2.52 0 0 0 .42-3.54L62 38.65a2.53 2.53 0 0 0-3.55-.42L45.23 48.69a2.52 2.52 0 0 0-.41 3.54Z" fill="#FFC60A"/><path d="M54.3 27.108a11.81 11.81 0 1 0 0-23.62 11.81 11.81 0 0 0 0 23.62Z" fill="#3370FF"/><path d="M28.69 29.786a2.53 2.53 0 0 1 3.51 2.61l-2.44 20.75a2.52 2.52 0 0 1-4 1.73L9 42.406a2.52 2.52 0 0 1 .51-4.34l19.18-8.28Z" fill="#00D6B9"/><path d="M5.13 83.406h9.53l3.57-9.72s11.36-13.89 10.82-16.27c-.625-1.576-6.76 5.09-6.76 5.09l1.8-13.51s1.13-5-1.55-5.1c-2.68-.1-3.54 3.73-3.54 3.73l-2.89 9.37s1.37-13.11-.64-13c-2.01.11-1.54 5-1.54 5s.26-.9-.82-.91c-1.08-.01-3 23.31-3 23.31l-4.98 12.01Zm25.17-.078h11l4.95-27.61s10.48-8.5 9-14.19c-1.48-5.69-8.81-6.53-8.81-6.53s4.13-12.49 2.56-14.68c-1.57-2.19-8 17.61-8 17.61l-2.21 1.29-1.22 15.78-8 28 .73.33Zm41.7.002h9.68l-4-11.08s5.48-5.49 6.13-8.15c.65-2.66-.68-6.37-5.76-9.7 0 0 2.55-4 2-6.31-.55-2.31-10.48-.94-10.5 0-.02.94 2.32 2.61 6 2.57l-5.69 10.25s-3.63-7.86-5.66-8c-2.03-.14 7.8 30.42 7.8 30.42Z" fill="#fff"/><path d="M29.465 57.825a.913.913 0 0 0-.175-.504.826.826 0 0 0-.388-.278c-.257-.091-.532-.064-.701-.034a2.26 2.26 0 0 0-.298.074l-.021.007-.007.002h-.002l-.002.001.139.386-.139-.386a.408.408 0 0 0-.132.078c-1.413 1.244-2.816 2.494-4.215 3.74l-1.507 1.342a.41.41 0 0 0 .545.612l1.51-1.343c1.376-1.226 2.754-2.454 4.143-3.677.034-.01.078-.02.127-.028a.641.641 0 0 1 .295.002.198.198 0 0 1 .01.056c.008.134-.043.419-.304.94-.253.508-1.023 1.668-2.062 3.156a306.8 306.8 0 0 1-3.547 4.941 694.112 694.112 0 0 1-4.726 6.39l-.106.141.328.246-.328-.246a.41.41 0 0 0-.057.105l-3.49 9.49a.41.41 0 0 0 .77.283l3.469-9.434.07-.093.3-.402a749.662 749.662 0 0 0 4.432-5.996 307.112 307.112 0 0 0 3.557-4.956c1.027-1.469 1.837-2.685 2.124-3.258.279-.558.41-1.003.388-1.357Zm-.83-.01Zm.006.007Z" fill="#0C296E"/><path d="M23.477 44.634c.197.218.32.539.387.911.065.368.066.747.05 1.04a5.446 5.446 0 0 1-.044.444l-.003.023-.001.006a.47.47 0 0 0-.004.031c-.434 4.72-.998 8.554-1.651 12.993a1329.4 1329.4 0 0 0-.347 2.366.41.41 0 0 0 .812.118c.117-.81.233-1.594.346-2.361.652-4.436 1.22-8.29 1.655-13.027l.004-.029.016-.116c.012-.098.026-.236.035-.402a5.451 5.451 0 0 0-.06-1.228c-.08-.448-.245-.94-.588-1.32-.358-.395-.875-.626-1.562-.596-1.217.053-2.055.372-2.665 1.09-.577.681-.906 1.678-1.252 2.941-.348 1.267-1.103 3.714-1.774 5.852l-.349 1.109.088-2.596c.094-2.853.19-5.874.19-6.502a2.21 2.21 0 0 0-.264-1.122c-.171-.305-.434-.561-.768-.657-.358-.102-.724.002-1.009.286-.269.267-.458.682-.57 1.221a25.713 25.713 0 0 0-.608 4.116 571.857 571.857 0 0 0-.639 7.985l-.011.158.409.029.409.028.011-.156a252.02 252.02 0 0 1 .16-2.148c.111-1.447.274-3.48.478-5.829l.001-.009a24.94 24.94 0 0 1 .59-3.994l.003-.01c.094-.459.235-.7.345-.81.096-.095.16-.091.205-.078.069.02.18.093.28.27.096.17.164.414.158.707v.009c0 .6-.095 3.608-.19 6.478a3310.16 3310.16 0 0 1-.13 3.863l-.06 1.714.41.015.39.124.102-.317a677.221 677.221 0 0 0 1.152-3.639c.67-2.134 1.429-4.596 1.781-5.88.354-1.287.645-2.105 1.088-2.627.41-.484.992-.755 2.075-.802.463-.02.737.128.919.328ZM15.97 57.447l-.41-.015a.41.41 0 0 0 .8.14l-.39-.125Zm-2.67-.05-.41-.029a.41.41 0 1 0 .819.056l-.41-.027Z" fill="#0C296E"/><path d="M13.213 48.493a.208.208 0 0 1 .144.08c.087.147.144.31.167.48a.41.41 0 0 0 .812-.11 2.098 2.098 0 0 0-.3-.83 1.03 1.03 0 0 0-.98-.432.41.41 0 0 0-.103.028 1.26 1.26 0 0 0-.537.425 3.5 3.5 0 0 0-.542 1.51c-.276 1.397-.726 6.149-1.147 10.857-.116 1.294-.23 2.588-.338 3.812-.283 3.212-.524 5.947-.65 6.978L4.843 83.02a.41.41 0 0 0 .756.316l4.92-11.78a.409.409 0 0 0 .029-.107c.125-1.002.372-3.808.661-7.09.107-1.218.22-2.502.335-3.784.427-4.762.875-9.47 1.139-10.786a2.681 2.681 0 0 1 .412-1.193.442.442 0 0 1 .119-.102Zm9.42-4.994a.41.41 0 0 1 .306.492 413.556 413.556 0 0 0-2.032 9.318c-.273 1.302-.558 2.662-.886 4.195a.41.41 0 0 1-.802-.171c.327-1.527.61-2.884.883-4.184a415.045 415.045 0 0 1 2.039-9.343.41.41 0 0 1 .492-.307Zm25-8.138a291.6 291.6 0 0 0-5.522 2.04c-.943.36-1.805.695-2.439.955-.316.13-.58.242-.77.33a3.835 3.835 0 0 0-.242.12 1.106 1.106 0 0 0-.1.06.455.455 0 0 0-.154.17c-.031.062-.043.125-.044.13a4.72 4.72 0 0 0-.031.228c-.015.13-.032.31-.052.534-.041.448-.093 1.075-.152 1.82-.117 1.49-.264 3.455-.407 5.413a2709.75 2709.75 0 0 0-.512 7.138l-.044.628-.294 1.054a4582.402 4582.402 0 0 1-3.342 11.904c-1.886 6.677-3.88 13.657-4.345 14.976a.41.41 0 1 0 .774.272c.475-1.35 2.48-8.37 4.36-15.026a4260.076 4260.076 0 0 0 3.343-11.906l.305-1.093-.395-.11c.409.028.41.027.41.027l.046-.668a3284.272 3284.272 0 0 1 .512-7.136c.143-1.958.29-3.922.407-5.409.059-.743.11-1.367.15-1.81.02-.222.037-.396.05-.518l.002-.007.098-.046c.174-.08.425-.188.738-.316.625-.256 1.48-.59 2.42-.948a295.379 295.379 0 0 1 5.505-2.034.481.481 0 0 1 .234-.022l.001.01a.849.849 0 0 1-.038.287l-.001.003c-.291 1.088-.98 1.977-1.887 2.748-.91.773-2.014 1.408-3.102 1.998a.41.41 0 0 0-.194.49 9.79 9.79 0 0 1 .058 6.047.41.41 0 1 0 .782.246 10.61 10.61 0 0 0 .042-6.224c1.004-.551 2.053-1.174 2.945-1.933.983-.836 1.799-1.857 2.148-3.158a1.64 1.64 0 0 0 .063-.586.833.833 0 0 0-.365-.635.409.409 0 0 0-.086-.043 1.3 1.3 0 0 0-.875 0ZM37.57 54.997l.395.11a.427.427 0 0 0 .014-.082l-.409-.028Z" fill="#0C296E"/><path d="M47.906 19.878c.166-.173.479-.413.851-.258l.004.002c.422.18.719.543.9 1.03.18.481.256 1.105.238 1.87-.038 1.53-.463 3.734-1.387 6.746a220.087 220.087 0 0 0-1.254 4.293c-.14.5-.245.886-.316 1.147l-.003.013c4.293 1.299 6.746 2.232 8.104 5.218l.001.002c.72 1.61.902 2.85.586 4.17-.306 1.279-1.077 2.603-2.147 4.386-.986 1.692-2.748 3.577-4.239 5.021a55.44 55.44 0 0 1-2.54 2.31l-.107.09-.16.89a14409.275 14409.275 0 0 1-2.041 11.365c-1.155 6.406-2.393 13.236-2.724 14.906a.41.41 0 1 1-.804-.16c.329-1.66 1.566-8.48 2.721-14.892a11720.204 11720.204 0 0 0 2.042-11.364l.185-1.035s0-.002.404.07l-.404-.072a.41.41 0 0 1 .143-.243l.003-.003.01-.008.041-.035a32.232 32.232 0 0 0 .747-.643 54.59 54.59 0 0 0 1.913-1.765c1.486-1.44 3.178-3.259 4.103-4.847l.002-.004c1.09-1.816 1.783-3.026 2.055-4.158.261-1.093.133-2.144-.537-3.643-1.222-2.685-3.385-3.507-7.974-4.886a.41.41 0 0 1-.279-.496l.007-.026.02-.076.08-.3c.072-.262.178-.65.319-1.154.282-1.006.703-2.471 1.258-4.309l.001-.001c.916-2.988 1.316-5.108 1.35-6.528.018-.71-.057-1.218-.185-1.562-.104-.28-.235-.434-.37-.519a.848.848 0 0 0-.027.027c-.11.113-.253.323-.43.65-.348.646-.767 1.636-1.263 2.9-.357.908-.752 1.955-1.186 3.105-.761 2.018-1.64 4.35-2.637 6.792a88.86 88.86 0 0 0-1.593 4.171.41.41 0 1 1-.774-.273 89.604 89.604 0 0 1 1.608-4.209 265.3 265.3 0 0 0 2.62-6.747c.435-1.154.834-2.21 1.199-3.14.495-1.261.93-2.293 1.305-2.988.186-.344.372-.634.56-.83Zm.667.503-.009.005c.007-.005.01-.005.01-.005Z" fill="#0C296E"/><path d="M46.487 39.36a.41.41 0 0 1 .403.417 10.51 10.51 0 0 0 .962 4.58l.002.004c.505 1.126 1.494 1.728 2.688 1.895 1.204.169 2.596-.113 3.807-.75a.41.41 0 0 1 .382.726c-1.339.704-2.903 1.032-4.303.836-1.41-.198-2.676-.935-3.321-2.369a11.33 11.33 0 0 1-1.037-4.937.41.41 0 0 1 .417-.403Z" fill="#0C296E"/><path d="M51.323 36.292a.41.41 0 0 0-.521.255 94.664 94.664 0 0 0-1.045 3.26l-.125.41c-.37 1.207-.812 2.62-1.59 4.89a.41.41 0 0 0 .776.266c.782-2.28 1.225-3.703 1.598-4.916l.125-.41c.318-1.036.601-1.962 1.037-3.234a.41.41 0 0 0-.255-.521Zm3.164 3.155a.41.41 0 0 1 .193.546c-1.192 2.491-1.79 3.841-2.896 6.337l-.1.223a.41.41 0 1 1-.749-.333l.1-.224c1.105-2.495 1.708-3.855 2.905-6.357a.41.41 0 0 1 .547-.193Zm15.539 8.607c.12.413.443.765.939 1.065.534.324 1.221.557 1.92.72a15.297 15.297 0 0 0 2.669.357l.043.003h.012s-.36-.154-.369.256c-.01.41.145.242.145.242l.203.322h-.016l-.145.046c-.042-.002-.009-.053-.087-.057a15.456 15.456 0 0 1-.645-.05 15.323 15.323 0 0 1-1.998-.32c-.737-.173-1.518-.43-2.157-.817-.637-.386-1.18-.932-1.34-1.695-.08-.357.149-.605.34-.734.192-.13.452-.222.728-.294.562-.147 1.343-.245 2.2-.313 1.725-.136 3.852-.156 5.372-.156.971 0 2.01.208 2.543 1.025.535.82.43 2.05-.35 3.746l-.001.001c-.334.72-.765 1.544-1.452 2.848a11.48 11.48 0 0 1 5.647 8.223c.207 1.807-.428 3.192-1.568 4.678-.566.737-1.265 1.51-2.056 2.377l-.2.218a101.01 101.01 0 0 0-2.31 2.593c1.406 4.208 2.33 6.838 3.918 10.84a.41.41 0 1 1-.762.302c-1.624-4.09-2.557-6.757-4.008-11.101a.41.41 0 0 1 .076-.395 98.114 98.114 0 0 1 2.48-2.791l.2-.219c.795-.87 1.47-1.619 2.011-2.324 1.07-1.394 1.576-2.567 1.405-4.077a10.66 10.66 0 0 0-5.215-7.598 463.64 463.64 0 0 0-.905 1.724.41.41 0 1 1-.727-.38c.392-.75.73-1.393 1.025-1.952a.409.409 0 0 1 .152-.287c.752-1.428 1.2-2.28 1.545-3.023.76-1.653.694-2.517.408-2.955-.287-.44-.928-.653-1.856-.653-1.52 0-3.618.02-5.307.154-.848.067-1.57.16-2.058.288a1.904 1.904 0 0 0-.449.163Zm-.128 11.925a6748.964 6748.964 0 0 0 4.936-8.838l.09-.162m-5.026 9c-.81-1.65-1.94-3.696-3.006-5.216-.606-.863-1.223-1.603-1.774-1.985-.27-.187-.599-.342-.942-.29-.382.06-.625.343-.766.686l-.001.004c-.074.184-.078.421-.066.64.014.237.052.526.11.857.116.663.317 1.529.58 2.548.527 2.04 1.315 4.728 2.205 7.702.316 1.056.645 2.148.98 3.26 1.557 5.164 3.247 10.77 4.385 15.245a.41.41 0 0 0 .794-.202c-1.142-4.495-2.839-10.123-4.395-15.287-.335-1.11-.663-2.2-.978-3.251-.89-2.975-1.674-5.649-2.197-7.672-.262-1.013-.456-1.854-.566-2.484a6.867 6.867 0 0 1-.099-.762 1.738 1.738 0 0 1 0-.223.325.325 0 0 1 .01-.07.476.476 0 0 1 .096-.16c.018-.018.026-.019.032-.02.027-.004.135.003.351.153.42.291.967.924 1.57 1.782 1.19 1.697 2.478 4.096 3.277 5.808a.41.41 0 0 0 .73.027c1.735-3.1 3.167-5.665 4.166-7.455.5-.895.862-1.443 1.128-1.92l.35-.762-.632-.477" fill="#0C296E"/><path d="M76.307 48.79a.41.41 0 0 1 .263.517 13.35 13.35 0 0 1-1.393 2.971.41.41 0 0 1-.694-.437c.549-.872.988-1.809 1.307-2.788a.41.41 0 0 1 .517-.263Zm5.047 7.855a.41.41 0 0 1 .151.56l-1.15 2a.41.41 0 1 1-.71-.41l1.15-2a.41.41 0 0 1 .56-.15Zm1.936 2.946a.41.41 0 0 1 .126.566l-1 1.58a.41.41 0 0 1-.692-.439l1-1.58a.41.41 0 0 1 .565-.127ZM2.97 83.328a.41.41 0 0 1 .41-.41h83.13a.41.41 0 1 1 0 .82H3.38a.41.41 0 0 1-.41-.41Z" fill="#0C296E"/><path d="M75.299 50.2h.293l-.121.827-.649-.058.477-.77Z" fill="#0C296E"/></svg>