<svg width="120" height="120" viewBox="0 0 120 120" fill="none" xmlns="http://www.w3.org/2000/svg"><path d="M32.617 10a6 6 0 0 1 6-6h66.068a5.725 5.725 0 0 0-5.725 5.725v10.482c0 .047.038.085.084.085.047 0 .085.038.085.085v34.394a4 4 0 0 1-4 4h-8.053a4 4 0 0 0-4 4v12.592a4 4 0 0 1-4 4H36.617a4 4 0 0 1-4-4V10Zm72.5-5.988c-.002.003-.004.004-.007.004a5.786 5.786 0 0 0-.425-.016h.426c.006 0 .01.007.006.012Z" fill="#FAC823"/><path d="M83.076 79.594v7.07a3.993 3.993 0 0 0 4 3.986h22.257c2.209 0 4-1.784 4-3.985V63.063c0-2.2-1.791-3.985-4-3.985H99.129v16.53a3.993 3.993 0 0 1-4 3.986H83.076ZM7.688 97.392c0 .353.136.707.405 1.05 2.445 3.125 8.21 3.36 11.763 3.753v8.158c-3.736-.413-9.313-.621-11.763-3.753-.27-.343-.405-1.076-.405-1.43v-7.778Z" fill="#41CCB9"/><path d="M4.923 79.648c0-2.995 6.381-4.687 9.17-4.422l.678 7.089c-1.51.217-9.848 2.435-9.848 4.84v-7.507Z" fill="#fff" fill-opacity=".4"/><path d="M4.823 79.573v8.403c-1.289 11.894 32.01 8.007 37.46 6.904 5.443-1.102 13.395-2.415 21.332-.73.07.002-.07.003 0 .005v-8.51c-10.212-1.412-13.315-.59-21.332.87-8.016 1.461-38.464 5.75-37.46-6.942Zm0-.221v.22c.006-.073-.008-.146 0-.22Z" fill="#4C88FF"/><path d="m32.089 20.065-.001-.007-.004-.019a14.295 14.295 0 0 0-.327-1.212c-.23-.722-.596-1.677-1.133-2.587-.534-.904-1.261-1.8-2.234-2.36-.994-.571-2.213-.77-3.65-.316-1.008.32-1.848.74-2.539 1.321-.693.583-1.21 1.308-1.6 2.202a9.35 9.35 0 0 0-.41 1.146 3.038 3.038 0 0 0-.324-.494c-.495-.61-1.192-.89-1.94-.692-.698.184-1.307.75-1.771 1.525-.472.788-.835 1.853-1.013 3.161-1.052 7.688-1.778 14.508-2.181 22.802l-3.18-12.78a.491.491 0 0 0-.009-.033c-.365-1.11-.782-1.929-1.339-2.367a1.626 1.626 0 0 0-1.02-.363c-.37 0-.727.121-1.064.305a.581.581 0 0 0-.04.024c-.815.539-1.074 1.48-1.147 2.301-.074.84.032 1.718.103 2.31.288 3.215 2.949 13.98 5.146 24.782.63 3.102.924 6.245 1.522 9.162.943 4.602 1.862 15.433 1.862 15.433l-.851 31.117a.492.492 0 0 0 .466.541.54.54 0 0 0 .581-.461l.865-31.091s-.925-11.058-1.895-15.79c-.597-2.91-.888-6.043-1.515-9.13C9.24 47.647 6.594 36.949 6.316 33.81l-.002-.015c-.073-.605-.165-1.39-.1-2.117.065-.737.278-1.26.662-1.525.223-.119.386-.157.506-.157.113 0 .23.034.368.142.308.242.653.808 1.011 1.893l3.882 15.602a.47.47 0 0 0 .177.267c-.029.782-.055 1.577-.078 2.388a.496.496 0 0 0 .512.502.534.534 0 0 0 .542-.504c.315-11.027 1.112-19.09 2.392-28.452.165-1.211.494-2.14.88-2.783.392-.655.805-.955 1.113-1.037.257-.068.55-.01.846.354.303.373.575 1.045.684 2.087a4.69 4.69 0 0 0-.114.612c-.041.307-.08.695-.115 1.148a95.474 95.474 0 0 0-.19 3.46c-.11 2.731-.191 6.196-.25 9.599a1122.618 1122.618 0 0 0-.143 13.083l-.002.295.527-.012-.527.013a.498.498 0 0 0 .521.49.534.534 0 0 0 .533-.508v-.008l.446-23.867c.19-3.45.487-5.74 1.175-7.31.337-.773.765-1.359 1.314-1.821.415-.349.912-.64 1.52-.884.362 6.073.856 10.992 1.365 15.786l.187 1.754c.466 4.366.932 8.73 1.31 13.886.02.276.272.478.563.45a.528.528 0 0 0 .489-.549c-.38-5.173-.847-9.552-1.314-13.918l-.186-1.753c-.515-4.855-1.014-9.826-1.377-15.991.953-.21 1.732-.04 2.384.334.762.439 1.383 1.177 1.875 2.008.488.827.828 1.71 1.045 2.393a13.299 13.299 0 0 1 .29 1.058l.007.032.006.027.002.014.001.003v.002c2.078 10.372 3.337 19.01 4.765 28.81.315 2.16.638 4.374.98 6.676.03.208.195.372.412.41a.553.553 0 0 0 .557-.242c.764-1.192 1.699-2.655 2.68-4.19 1.07-1.674 2.194-3.433 3.212-5.02a863.708 863.708 0 0 1 2.563-3.981c.693-1.067 1.14-1.741 1.24-1.867.066-.083.29-.285.592-.455.309-.174.58-.246.759-.22a.34.34 0 0 1 .2.099c.068.066.152.191.217.426.134.482.159 1.32-.083 2.703-.239 1.358-1.232 4.501-2.61 8.502-1.373 3.981-3.112 8.766-4.82 13.378-1.596 4.62-2.888 9.13-4.139 12.412-.625 1.642-1.144 2.995-1.506 3.938-.181.472-.348 1.209-.445 1.46l-.024.06a.497.497 0 0 0-.03.129l.593 15.282a.493.493 0 0 0 .474.535c.29.018.547-.19.575-.468l-.6-15.216c.097-.252.264-.99.445-1.46.363-.945.882-2.299 1.508-3.941 1.251-3.285 2.65-7.736 4.14-12.422 1.71-4.614 3.453-9.407 4.829-13.4 1.37-3.973 2.394-7.2 2.649-8.652.25-1.429.254-2.436.064-3.122-.097-.35-.25-.639-.47-.855a1.375 1.375 0 0 0-.782-.382c-.54-.077-1.078.138-1.46.353-.389.218-.735.505-.91.725-.14.177-.626.913-1.298 1.948a873.464 873.464 0 0 0-2.566 3.986 4543.712 4543.712 0 0 0-3.21 5.016c-.67 1.05-1.32 2.067-1.915 2.996-.267-1.812-.524-3.574-.776-5.3-1.428-9.803-2.691-18.469-4.774-28.867Z" fill="#E0E0E0"/><path d="M32.617 28.59v-5.835c1.777 9.233 2.943 17.231 4.246 26.177.252 1.726.509 3.488.776 5.3l1.902-2.975.014-.021c1.06-1.66 2.174-3.402 3.209-5.016a879.06 879.06 0 0 1 2.566-3.986c.672-1.035 1.158-1.771 1.298-1.948.175-.22.521-.506.91-.725.382-.215.92-.43 1.46-.353.285.04.557.162.782.383.22.215.373.505.47.854.19.686.187 1.693-.064 3.122-.255 1.452-1.28 4.68-2.65 8.653-1.376 3.992-3.117 8.785-4.827 13.4l-.319 1.002c-1.372 4.315-2.66 8.369-3.822 11.419l-.505 1.322h-1.11l.625-1.64c.71-1.864 1.433-4.121 2.217-6.57.597-1.867 1.23-3.844 1.921-5.843 1.709-4.612 3.448-9.397 4.82-13.378 1.38-4 2.372-7.144 2.61-8.502.243-1.382.218-2.22.084-2.703-.065-.235-.15-.36-.216-.426a.339.339 0 0 0-.201-.1c-.178-.025-.45.047-.76.221-.3.17-.525.372-.591.455-.1.126-.547.8-1.24 1.867-.682 1.05-1.58 2.446-2.563 3.98a4168.23 4168.23 0 0 0-3.206 5.013l-.006.008c-.981 1.535-1.916 2.998-2.68 4.19a.553.553 0 0 1-.557.242.495.495 0 0 1-.413-.41c-.34-2.299-.663-4.51-.977-6.667l-.002-.008c-1.031-7.077-1.974-13.548-3.2-20.502Z" fill="#5F5F5F"/><path d="M32.294 109.716v-6.093c6.558.704 13.795.031 20.847-.624l1.215-.113c7.583-.7 14.885-1.285 21.133-.174v5.641c-6.696-1.016-14.012-.3-21.295.469l-.84.089c-7.18.76-14.326 1.516-21.06.805Zm0-7.099a40.153 40.153 0 0 1-1-.122v8.112c7.107.893 14.665.092 22.12-.697 7.67-.812 15.23-1.613 22.075-.546.335.052.668.109 1 .171v-7.65c-6.918-1.416-15.12-.655-23.4.114-7.129.662-14.316 1.33-20.795.618Z" fill="#E0E0E0"/><path d="M44.74 22.934a.5.5 0 0 1 .5-.5h38a.5.5 0 1 1 0 1h-38a.5.5 0 0 1-.5-.5Zm0 10a.5.5 0 0 1 .5-.5h38a.5.5 0 1 1 0 1h-38a.5.5 0 0 1-.5-.5Z" fill="#5F5F5F"/><path d="M98.96 9.725a5.725 5.725 0 0 1 11.45 0v7.852c0 1.5-1.216 2.715-2.716 2.715H98.96V9.725Z" fill="#fff" fill-opacity=".4"/></svg>