<svg width="120" height="120" viewBox="0 0 120 120" fill="none" xmlns="http://www.w3.org/2000/svg"><g clip-path="url(#udgi8lwn68na)"><path d="m34.995 61.672-1.5-10C11.851 60.618 5.171 69.49 5.171 73.302a2.94 2.94 0 0 0-.158 1.204l.678 6.412c-.003-.036 1.163 2.603 3.587.73.61-2.01 6.073-12.03 25.717-19.976Z" fill="#fff" fill-opacity=".4"/><path d="M4.98 74.22c.8 8.386 25.224 14.904 45.074 13.898l.797 9.054C29.93 98.436 6.658 91.485 5.98 83.773l-1-9.554Z" fill="#41CCB9"/><path d="m62.75 113.393-.464-9.077c-14.55.21-32.68-.724-44.227-4.79l.482 9.441c11.299 3.817 28.94 4.792 44.208 4.426Z" fill="#4C88FF"/><path d="M114.563 65.043c-.855.103-1.981.438-3.297 1.06h-.002c-2.127.996-5.351 3.174-9.063 5.898-3.385 2.483-7.143 5.396-10.795 8.225l-1.022.792c-3.279 2.53-6.37 4.894-8.858 6.656-1.244.881-2.345 1.617-3.25 2.15-.451.266-.86.485-1.219.647-.35.159-.681.276-.969.316-2.103.292-3.8-.51-5.644-1.725-.62-.41-1.255-.862-1.93-1.345-1.362-.973-2.893-2.067-4.832-3.172-2.593-1.47-4.126-2.077-5.129-2.25-.49-.085-.84-.063-1.122.005-.285.07-.528.195-.807.362l-.007.005a.476.476 0 0 0-.211.204.458.458 0 0 0-.027.254c.032.25.184.566.406.9l.006.009c.08.127.36.435.83.903a86.4 86.4 0 0 0 1.672 1.606c.297.28.606.57.92.863 1.026.963 2.094 1.965 2.913 2.777a.549.549 0 0 1 .018.02c5.996 6.608 7.586 11.631 7.617 15.062.015 1.713-.358 3.009-.744 3.885a6.65 6.65 0 0 1-.538.995 4.542 4.542 0 0 1-.243.33l-.017.02-.006.007-.002.002v.001c-.001.001-.002.001-.377-.332l.375.333a.501.501 0 0 1-.752-.665l.001-.001.007-.008.035-.044a3.56 3.56 0 0 0 .143-.2c.122-.183.289-.465.457-.845.334-.76.674-1.917.66-3.476-.029-3.111-1.467-7.903-7.347-14.388-.807-.8-1.855-1.783-2.875-2.74-.315-.295-.628-.588-.93-.873a90.047 90.047 0 0 1-1.692-1.625c-.44-.438-.811-.83-.967-1.073-.242-.364-.502-.84-.563-1.326a1.442 1.442 0 0 1 .11-.794c.122-.266.33-.482.61-.644.307-.184.651-.369 1.08-.474.435-.106.927-.123 1.53-.019 1.186.205 2.848.889 5.456 2.367 1.98 1.129 3.6 2.285 4.986 3.274.66.471 1.267.904 1.834 1.278 1.787 1.178 3.221 1.808 4.952 1.567.145-.02.373-.09.694-.236.314-.142.69-.342 1.125-.598.869-.512 1.944-1.23 3.179-2.104 2.469-1.749 5.544-4.1 8.824-6.632l1.023-.792c3.65-2.828 7.418-5.749 10.814-8.24 3.703-2.717 7.001-4.953 9.23-5.995 1.379-.652 2.61-1.029 3.602-1.149.496-.06.949-.057 1.338.018.387.074.746.227 1.006.499.574.602.409 1.446-.068 2.221-.492.8-1.423 1.74-2.832 2.786-4.34 3.223-9.087 7.588-12.757 11.155a226.654 226.654 0 0 0-5.783 5.832l-.341.36-.088.093-.029.031-.367-.342-.367-.342.03-.032.09-.095c.077-.083.193-.205.343-.363a228.516 228.516 0 0 1 5.81-5.86c3.679-3.576 8.464-7.977 12.857-11.24 1.367-1.015 2.183-1.865 2.58-2.51.412-.67.277-.926.199-1.008-.067-.07-.205-.154-.465-.205-.257-.049-.6-.058-1.028-.006Zm-20.05 21.661-.366-.342a.502.502 0 0 0 .735.684l-.368-.342Z" fill="#E0E0E0"/><path d="M106.521 74.988a.501.501 0 0 1 .221.673c-1.611 3.157-3.436 6.25-4.856 8.55a146.373 146.373 0 0 1-2.261 3.543l-.136.204-.035.053-.012.018-.416-.28.396.307-.108.14-.31.401c-.268.348-.654.849-1.124 1.462a496.717 496.717 0 0 0-3.556 4.702c-2.664 3.57-5.565 7.579-6.666 9.531l-1.09 5.681a.496.496 0 0 1-.586.392.503.503 0 0 1-.398-.587l1.106-5.759a.497.497 0 0 1 .053-.148c1.11-1.997 4.095-6.119 6.776-9.71a495.881 495.881 0 0 1 4.69-6.177l.31-.402.1-.128.002-.003.034-.051a62.51 62.51 0 0 0 .635-.967c.43-.66 1.036-1.608 1.742-2.751 1.413-2.288 3.223-5.355 4.817-8.48a.498.498 0 0 1 .672-.214Zm-7.495 12.76.396.308a.533.533 0 0 0 .02-.027l-.416-.28Zm11.727-26.314c-.131-.063-.233-.064-.299-.04a.56.56 0 0 1-.027.008c-.136.04-.252.172-.448.445a970.309 970.309 0 0 1-3.178 4.408h-.001c-.925 1.279-1.851 2.557-3.175 4.405a.501.501 0 0 1-.699.112.5.5 0 0 1-.117-.697c1.326-1.85 2.252-3.13 3.178-4.409a995.175 995.175 0 0 0 3.176-4.404l.022-.031c.158-.222.452-.635.941-.783.377-.129.756-.057 1.057.087.303.147.569.386.74.667.016.027.03.056.041.086.147.391.122.867.047 1.305a8.51 8.51 0 0 1-.401 1.421c-.346.944-.814 1.866-1.106 2.33a.5.5 0 0 1-.69.153.5.5 0 0 1-.159-.69c.251-.397.689-1.256 1.014-2.142a7.47 7.47 0 0 0 .355-1.25c.061-.352.055-.596.017-.74a.803.803 0 0 0-.288-.241Zm-8.235 2.988c.301.072.567.252.745.55l.005.01c.212.372.19.767.105 1.086a3.166 3.166 0 0 1-.392.847.5.5 0 0 1-.69.153.5.5 0 0 1-.159-.69 2.19 2.19 0 0 0 .273-.573c.046-.17.029-.27-.005-.332a.156.156 0 0 0-.107-.08.68.68 0 0 0-.324.028c-.309.087-.665.308-.916.548-2.01 2.047-4.055 5.253-5.269 7.865a.492.492 0 0 1-.058.096l-.043.054-.123.157-.465.588c-.399.502-.965 1.209-1.636 2.031-1.341 1.644-3.104 3.754-4.785 5.603a.501.501 0 0 1-.707.032.499.499 0 0 1-.037-.706c1.663-1.83 3.414-3.924 4.75-5.562a203.852 203.852 0 0 0 2.09-2.606l.122-.155.007-.01c1.253-2.678 3.346-5.962 5.441-8.094l.011-.01c.342-.329.839-.652 1.341-.792.252-.071.541-.106.826-.038Z" fill="#E0E0E0"/><path d="M108.47 60.532c-.641.135-1.238.537-1.604.886l-.012.011c-.372.332-.839.894-1.337 1.562a46.178 46.178 0 0 0-1.44 2.074h-.001c-3.922 5.909-4.325 6.409-8.221 11.243l-.888 1.102a.5.5 0 0 1-.704.073.5.5 0 0 1-.079-.702l.899-1.115c3.87-4.803 4.26-5.285 8.157-11.156.448-.677.963-1.435 1.471-2.118.502-.673 1.016-1.3 1.466-1.704.451-.427 1.204-.95 2.079-1.134.915-.193 1.949-.008 2.826.966a.497.497 0 1 1-.743.665c-.61-.678-1.264-.781-1.869-.654Z" fill="#E0E0E0"/><path d="M86.737 44.438c9.469-2.905 17.68-8.097 17.342-11.941l-.939-10.667c.578 6.568-10.656 10.655-18.876 13.406l2.474 9.202Z" fill="#fff" fill-opacity=".4"/><path d="m77.765 11.06 14.587 54.264a4 4 0 0 1-2.852 4.909l-4.351 1.136 1.84-2.873-9.224-57.436Z" fill="#fff" fill-opacity=".4"/><path d="m78.358 11.446 9.445 55.568a4.5 4.5 0 0 1-3.264 5.098l-46.661 12.59a4.5 4.5 0 0 1-5.609-3.591l-9.445-55.568a4.5 4.5 0 0 1 3.264-5.098L72.75 7.855a4.5 4.5 0 0 1 5.608 3.591ZM73.01 8.821l-46.661 12.59a3.5 3.5 0 0 0-2.539 3.965l9.445 55.567a3.5 3.5 0 0 0 4.362 2.793l46.661-12.59a3.5 3.5 0 0 0 2.54-3.965l-9.446-55.567a3.5 3.5 0 0 0-4.362-2.793Z" fill="#E0E0E0"/><path d="M77.753 11.55a4 4 0 0 0-5.038-3.68L23.23 21.221a4 4 0 0 0-2.954 4.044l2.39 52.366a4 4 0 0 0 5.037 3.68L77.19 67.959a4 4 0 0 0 2.954-4.044l-2.39-52.365Z" fill="#FAC823"/><path d="M26.917 33.636a.5.5 0 0 1 .352-.613L74.615 20.25a.5.5 0 0 1 .26.966L27.53 33.989a.5.5 0 0 1-.613-.353Z" fill="#fff"/><path d="M31.373 14.77a4.604 4.604 0 1 0 2.398 8.89.5.5 0 0 1 .26.965 5.604 5.604 0 1 1 3.951-6.87.5.5 0 0 1-.965.26 4.604 4.604 0 0 0-5.644-3.245Zm31.839-8.59a4.604 4.604 0 1 0 2.398 8.89.5.5 0 0 1 .26.965 5.604 5.604 0 1 1 3.951-6.87.5.5 0 0 1-.965.26 4.604 4.604 0 0 0-5.644-3.245Zm-15.919 4.295a4.604 4.604 0 1 0 2.398 8.89.5.5 0 0 1 .26.965 5.604 5.604 0 1 1 3.951-6.87.5.5 0 0 1-.965.26 4.604 4.604 0 0 0-5.644-3.245Z" fill="#E0E0E0"/><path d="m52.016 62.213-1.155.312c-4.423 1.193-7.899-1.712-8.032-5.096l1.65-.445c.11 2.508 2.902 4.717 6.302 3.8l1.155-.312c3.697-.998 6.522-4.968 6.363-8.838-.16-3.87-3.31-6.229-7.007-5.231l-2.97.801c-.33.09-.648-.037-.803-.348-.155-.31-.078-.684.157-.994l6.873-9.046-10.2 2.752-.08-1.741 12.28-3.313c.33-.09.647.036.801.347.155.311.079.684-.156.995l-6.882 9.013.891-.24c4.588-1.238 8.495 1.691 8.737 6.527.242 4.835-3.335 9.819-7.924 11.057Z" fill="#fff"/><path d="M55.127 16.175 54.35 7.36c8.988 0 13.603.846 20.137 2.106l.797 9.057c-5.938-1.056-10.436-2.033-20.158-2.348Zm48.979 16.615a5.476 5.476 0 0 0-.025-.224c-.879-6.696-15.902-12.347-21.063-12.864l-.78-8.873c4.431.444 20.44 5.733 21.001 12.111l.867 9.85Z" fill="#41CCB9"/></g><defs><clipPath id="udgi8lwn68na"><path fill="#fff" d="M0 0h120v120H0z"/></clipPath></defs></svg>