<svg width="120" height="120" viewBox="0 0 120 120" fill="none" xmlns="http://www.w3.org/2000/svg"><g clip-path="url(#ud56dgl32bia)"><path d="M4.482 91.134v-8.296c0-4.767 6.198-8.772 10.074-10.302l1.385 4.337v3.814c-4.26 1.647-11.459 5.758-11.459 10.447Z" fill="#fff" fill-opacity=".4"/><path d="M106.193 85.847c-4.897 1.59-10.607 2.23-16.793 2.23-13.46 0-34.696-3.823-50.596-6.584l-.657-5.686v-2.573c15.797 2.712 37.26 6.546 51.253 6.546 6.186 0 11.896-.64 16.793-2.23v8.297Z" fill="#4C88FF"/><path d="M19.983 101.722h-.336c-5.185 0-9.597-.34-12.722-1.41-.291-.097-.56-.214-.829-.32v8.575c.269.117.538.224.829.321 3.125 1.07 7.537 1.41 12.722 1.41h.336v-8.576Z" fill="#FAC823"/><rect x="28.227" y="9.725" width="86.927" height="60.225" rx="4" fill="#FAC823"/><path d="M74.623 45.585a4.5 4.5 0 0 1-5.866 0l-38.484-33.07a.5.5 0 1 1 .652-.758l38.484 33.07a3.5 3.5 0 0 0 4.562 0l38.484-33.07a.5.5 0 0 1 .652.758l-38.484 33.07Z" fill="#5F5F5F"/><path d="M63.023 39.566a.5.5 0 0 0-.705-.054L46.295 53.281a.5.5 0 0 0 .652.758l16.022-13.768a.5.5 0 0 0 .054-.705Zm17.333 0a.5.5 0 0 1 .705-.054l32.045 27.537a.5.5 0 1 1-.651.759L80.409 40.27a.5.5 0 0 1-.053-.705Z" fill="#5F5F5F"/><path d="m27.562 12.388-.002-.006-.006-.019a8.393 8.393 0 0 0-.107-.316 14.547 14.547 0 0 0-.338-.857c-.301-.696-.759-1.61-1.384-2.462-.622-.847-1.434-1.667-2.457-2.127-1.046-.47-2.279-.546-3.663.048-.972.418-1.766.92-2.396 1.566-.631.65-1.074 1.422-1.374 2.35-.119.367-.216.76-.294 1.182a3.039 3.039 0 0 0-.37-.46c-.554-.559-1.275-.767-2-.496-.676.252-1.226.876-1.611 1.693-.392.83-.647 1.927-.695 3.246-.283 7.754-.33 14.613.093 22.906L6.526 26.234a.502.502 0 0 0-.013-.032c-.473-1.069-.969-1.841-1.567-2.222a1.626 1.626 0 0 0-1.05-.26c-.369.036-.713.193-1.03.41a.588.588 0 0 0-.036.027c-.759.617-.923 1.58-.914 2.404.01.842.202 1.706.332 2.287.605 3.172 3.82 13.772 7.077 24.303.936 3.024 1.54 6.123 2.424 8.966 1.396 4.486 2.712 10.492 3.332 15.124.351 2.624.525 5.004.748 5.814l2.047 25.129a.492.492 0 0 0 .518.491.539.539 0 0 0 .533-.516l-2.064-25.33c.012.043.001-.044 0 0-.211-.774-.376-3.061-.715-5.588-.627-4.668-1.966-10.864-3.4-15.476-.883-2.837-1.484-5.925-2.414-8.934C7.062 42.254 3.869 31.718 3.28 28.624l-.003-.015c-.133-.595-.302-1.368-.31-2.097-.008-.74.152-1.282.508-1.583.21-.14.369-.195.488-.207a.575.575 0 0 1 .38.105c.33.21.73.74 1.194 1.783l5.41 15.14a.48.48 0 0 0 .203.249c.05.78.103 1.574.16 2.384.02.276.27.477.56.447a.534.534 0 0 0 .488-.554c-.78-11.005-.788-19.106-.443-28.549.045-1.222.28-2.179.6-2.857.324-.69.706-1.03 1.004-1.142.25-.093.547-.065.877.268.339.341.676.983.888 2.009a4.7 4.7 0 0 0-.052.62c-.011.31-.01.7-.001 1.154.018.91.074 2.097.154 3.46.161 2.73.425 6.186.704 9.578a1115.002 1115.002 0 0 0 1.077 12.199l.078.834.028.293s0 .002.524-.063l-.523.065a.497.497 0 0 0 .567.435.533.533 0 0 0 .48-.558l-.001-.007-1.925-23.794c-.153-3.453-.085-5.76.443-7.391.26-.802.627-1.428 1.128-1.942.377-.389.843-.727 1.424-1.03.963 6.006 1.943 10.852 2.925 15.571l.36 1.728c.897 4.298 1.794 8.594 2.682 13.687a.502.502 0 0 0 .604.393.528.528 0 0 0 .432-.596c-.89-5.11-1.79-9.42-2.688-13.719l-.36-1.726c-.994-4.78-1.984-9.676-2.956-15.775.928-.304 1.719-.212 2.405.096.803.36 1.494 1.033 2.065 1.812.568.774.994 1.62 1.278 2.277a13.238 13.238 0 0 1 .403 1.056l.009.026.004.013v.003l.001.002c3.096 10.114 5.206 18.585 7.6 28.196.528 2.116 1.069 4.288 1.637 6.545.052.204.232.35.452.367a.553.553 0 0 0 .53-.296l2.251-4.436c.898-1.77 1.842-3.633 2.697-5.313a865.844 865.844 0 0 1 2.156-4.216c.583-1.13.961-1.845 1.048-1.98.058-.09.261-.314.544-.512.29-.204.554-.302.734-.295a.34.34 0 0 1 .21.079c.073.059.17.175.257.403.181.466.29 1.298.185 2.697-.102 1.376-.778 4.602-1.754 8.719-.97 4.098-2.226 9.032-3.468 13.79-1.13 4.757-1.967 9.371-2.886 12.763-.46 1.695-.842 3.093-1.108 4.068-.134.487-.227 1.237-.298 1.496l-.017.063a.494.494 0 0 0-.018.13l2.107 15.148c0 .279.235.496.525.486a.538.538 0 0 0 .526-.523l-2.108-15.082c.072-.26.165-1.01.298-1.497.267-.975.65-2.374 1.109-4.07.92-3.394 1.87-7.96 2.888-12.772 1.244-4.761 2.501-9.703 3.475-13.813.968-4.09 1.668-7.402 1.777-8.872.108-1.447.011-2.45-.246-3.114-.131-.337-.312-.61-.552-.803a1.376 1.376 0 0 0-.816-.303c-.545-.023-1.06.245-1.418.496-.365.256-.682.576-.834.812-.122.19-.532.97-1.098 2.067a870.889 870.889 0 0 0-2.159 4.22l-2.695 5.31a5956.8 5956.8 0 0 1-1.609 3.172c-.446-1.777-.876-3.504-1.297-5.196-2.395-9.614-4.512-18.111-7.616-28.252Z" fill="#E0E0E0"/><path d="M28.227 14.582v3.751c2.238 7.76 3.99 14.79 5.927 22.567v.005a2541.02 2541.02 0 0 0 1.636 6.54.495.495 0 0 0 .452.367.553.553 0 0 0 .53-.295l2.251-4.437.008-.014c.895-1.767 1.837-3.623 2.69-5.3a869.882 869.882 0 0 1 2.155-4.215c.583-1.13.961-1.845 1.048-1.98.058-.09.261-.313.544-.512.29-.203.554-.302.734-.294a.34.34 0 0 1 .21.078c.073.06.17.176.257.403.181.466.29 1.298.185 2.698-.102 1.375-.778 4.601-1.754 8.718-.97 4.099-2.226 9.032-3.468 13.79a270.09 270.09 0 0 0-1.332 6.006c-.537 2.515-1.033 4.833-1.554 6.757l-.199.733h1.076l.139-.515c.854-3.15 1.734-7.312 2.67-11.742l.218-1.029c1.244-4.761 2.501-9.703 3.475-13.812.968-4.09 1.668-7.403 1.777-8.873.108-1.446.011-2.449-.246-3.113-.131-.338-.312-.61-.552-.804a1.375 1.375 0 0 0-.816-.302c-.545-.023-1.06.244-1.418.495-.365.256-.682.576-.834.812-.122.19-.532.971-1.098 2.067a871.48 871.48 0 0 0-2.159 4.221c-.869 1.709-1.804 3.554-2.695 5.31l-.004.008-1.605 3.163c-.446-1.776-.876-3.504-1.297-5.196-2.22-8.912-4.201-16.865-6.951-26.056Z" fill="#5F5F5F"/><path d="M55.586 88.962c-2.33-.16-4.724-.236-7.162-.236-9.805 0-20.119 1.054-28.299 1.054-4.593 0-8.504-.33-11.267-1.355-2.774-1.044-4.388-2.784-4.388-5.587v8.296c0 2.803 1.615 4.553 4.388 5.578 2.774 1.035 6.674 1.355 11.267 1.355 8.18 0 18.494-1.054 28.3-1.054 2.437 0 4.831.066 7.16.236v-8.287Z" fill="#41CCB9"/><path d="M29.195 102.093v6.575c4.553-.215 9.226-.408 13.817-.408 6.175 0 12.234.336 17.602 1.4v-6.535c-5.28-1.089-11.325-1.441-17.602-1.441-4.573 0-9.24.186-13.817.409Zm32.418.224v8.576a47.56 47.56 0 0 0-1-.213c-5.32-1.076-11.376-1.42-17.601-1.42-4.582 0-9.25.194-13.817.409l-1 .048v-8.576c4.883-.243 9.9-.457 14.817-.457 6.618 0 13.036.389 18.602 1.633Z" fill="#E0E0E0"/></g><defs><clipPath id="ud56dgl32bia"><path fill="#fff" d="M0 0h120v120H0z"/></clipPath></defs></svg>