<svg width="350" height="350" viewBox="0 0 350 350" fill="none" xmlns="http://www.w3.org/2000/svg"><path d="M160 109a8 8 0 0 1 8-8h43.09a8 8 0 0 1 8 8v43a8 8 0 0 1-8 8H168a8 8 0 0 1-8-8v-43Z" fill="#FFC60A"/><path d="m195.185 122.854.04.139c.904 2.965 2.719 5.109 5.349 6.274 1.33.588 2.839.847 4.581.781.631 1.866 1.105 3.587 1.424 5.167.227 1.121.635 2.519.75 4.2l.046.738.065 1.398.045 1.509.014.796c.048 3.222-2.341 5.895-5.408 6.128l-.344.016h-23.494c-3.23-.052-5.802-2.803-5.752-6.144l.014-.796.045-1.509.065-1.398c.114-2.014.612-3.658.871-4.939.319-1.58.794-3.301 1.422-5.166 1.737.07 3.16-.179 4.464-.755l.457-.215.457-.248c2.236-1.288 3.74-3.288 4.502-5.821l.042-.155h10.345ZM194 138.088h-8l-.233.02a2.006 2.006 0 0 0-1.767 1.997c0 1.035.772 1.88 1.767 1.997l.233.02h8l.233-.02a2.005 2.005 0 0 0 1.767-1.997 2.008 2.008 0 0 0-2-2.017Zm8.969-11.696-.367-.076-.442-.127a3.371 3.371 0 0 1-.29-.111 5.742 5.742 0 0 1-.466-.227l-.275-.159-.252-.166-.211-.156-.209-.172-.261-.243-.33-.363-.221-.288-.123-.179c-.419-.637-.73-1.401-.929-2.294l-.114-.602a1.919 1.919 0 0 0-1.885-1.635h-13.192a1.92 1.92 0 0 0-1.89 1.672l-.023.165c-.152.877-.409 1.644-.771 2.301l-.226.378a5.318 5.318 0 0 1-.29.401l-.224.263-.307.311-.272.234-.307.229-.246.16-.2.116-.211.112-.359.166-.214.084-.309.097-.447.102-.342.057-.365.043c-1.174.116-2.571.016-3.697-.344-2.542-.812-3.86-2.765-3.687-5.821.291-5.11 5.725-8.281 15.707-9.113l1.293-.092a66.29 66.29 0 0 1 3.975-.115l.709.003a66.29 66.29 0 0 1 3.311.113l1.293.093c9.957.83 15.391 4.001 15.682 9.111.173 3.056-1.145 5.009-3.687 5.821-1.083.346-2.416.452-3.578.35l-.387-.044-.364-.055Z" fill="#fff"/><path d="M85.65 73.693h-8.496v6.786h8.496v-6.786Zm-14.44 0H49.972v6.786H71.21v-6.786Z" fill="#14C0FF"/><path d="M162.147 71.482a2.712 2.712 0 0 1-2.714 2.71 2.712 2.712 0 0 1-2.715-2.71 2.712 2.712 0 0 1 2.715-2.71 2.712 2.712 0 0 1 2.714 2.71Zm13.804 0a2.713 2.713 0 0 1-2.715 2.71 2.712 2.712 0 0 1-2.715-2.71 2.712 2.712 0 0 1 2.715-2.71 2.713 2.713 0 0 1 2.715 2.71Zm13.803 0a2.712 2.712 0 0 1-2.714 2.71 2.712 2.712 0 0 1-2.715-2.71 2.712 2.712 0 0 1 2.715-2.71 2.712 2.712 0 0 1 2.714 2.71Zm13.804 0a2.713 2.713 0 0 1-2.715 2.71 2.712 2.712 0 0 1-2.715-2.71 2.712 2.712 0 0 1 2.715-2.71 2.713 2.713 0 0 1 2.715 2.71Zm13.803 0a2.712 2.712 0 0 1-2.715 2.71 2.712 2.712 0 0 1-2.714-2.71 2.712 2.712 0 0 1 2.714-2.71c1.5 0 2.715 1.213 2.715 2.71Z" fill="#0C296E"/><path d="M121.903 92.806C109.254 92.806 99 82.552 99 69.903S109.254 47 121.903 47s22.903 10.254 22.903 22.903-10.254 22.903-22.903 22.903Z" fill="#00D6B9"/><path d="M121.903 48c12.096 0 21.903 9.806 21.903 21.903 0 12.096-9.807 21.903-21.903 21.903C109.806 91.806 100 82 100 69.903S109.806 48 121.903 48Zm23.903 21.903c0-13.201-10.702-23.903-23.903-23.903C108.702 46 98 56.702 98 69.903c0 13.201 10.702 23.903 23.903 23.903 13.201 0 23.903-10.702 23.903-23.903Z" fill="#00D6B9"/><g clip-path="url(#ud62ol4xnk1a)"><path d="M132.247 96.418c-2.809-.895-2.272-7.47-2.397-14.924h-16.031c.197 12.805.376 13.299-2.218 14.669" fill="#fff"/><path d="M130.342 80.994h-17.03l.008.508c.012.78.023 1.514.035 2.204.081 5.003.125 7.721-.094 9.344-.122.906-.318 1.395-.584 1.734-.273.348-.661.594-1.31.936a.5.5 0 0 0 .467.885c.649-.343 1.212-.672 1.629-1.203.423-.539.656-1.23.789-2.219.229-1.703.184-4.51.103-9.464l-.028-1.725h15.03c.014 1.036.016 2.058.019 3.052.005 2.376.01 4.587.168 6.413.118 1.358.323 2.556.698 3.485.376.933.955 1.664 1.854 1.95a.5.5 0 1 0 .303-.952c-.506-.161-.913-.588-1.23-1.372-.318-.79-.514-1.869-.629-3.198-.154-1.784-.159-3.922-.164-6.27-.002-1.16-.005-2.371-.026-3.616l-.008-.492Z" fill="#0C296E"/><path d="M121.1 56.23s-.018 0 0 0h-.018c-6.852 0-12.398 5.627-12.398 12.568 0 6.942-.358 9.243 12.04 9.243 0 0 .358 3.325.376 3.325h.018c12.399 0 12.345-5.023 12.345-11.965-.036-6.941-5.529-13.17-12.363-13.17Z" fill="#fff"/><path d="M110.652 70.388c-.572-.858-1.61-.73-2.111-.237-.877.84-.769 2.21-.626 3.05.34 2.192 1.878 5.17 3.954 5.17" fill="#fff"/><path d="M109.552 70.262c.241.009.491.115.684.404a.5.5 0 1 0 .832-.555c-.38-.57-.934-.83-1.481-.848a1.923 1.923 0 0 0-1.394.529c-.548.526-.771 1.203-.844 1.826-.073.62-.002 1.225.072 1.664.181 1.162.675 2.523 1.405 3.606.719 1.066 1.754 1.983 3.043 1.983a.5.5 0 0 0 0-1c-.787 0-1.559-.572-2.214-1.542-.642-.953-1.087-2.175-1.246-3.204l-.001-.008c-.069-.4-.123-.9-.066-1.383.056-.48.218-.909.545-1.222l.005-.005a.924.924 0 0 1 .66-.245Z" fill="#0C296E"/><path d="M111.082 74.17c0 3.617.805 5.079 1.503 7.508 1.109 3.891 3.632 5.042 5.69 6.12 3.399 1.808 7.943 1.315 10.591-1.151 3.811-3.58 4.58-10.577 4.58-16.422" fill="#fff"/><path d="M133.446 69.725a.5.5 0 0 0-.5.5c0 2.905-.191 6.073-.848 8.949-.658 2.881-1.772 5.414-3.573 7.107-2.479 2.308-6.789 2.792-10.016 1.075l-.002-.001-.287-.15c-.957-.498-1.932-1.005-2.814-1.787-.956-.846-1.812-2.024-2.34-3.877-.159-.554-.321-1.051-.476-1.53-.543-1.669-1.008-3.1-1.008-5.84a.5.5 0 0 0-1 0c0 2.91.518 4.498 1.07 6.194.151.466.306.94.453 1.451.581 2.038 1.541 3.38 2.638 4.351.98.868 2.063 1.43 3.009 1.922l.289.15c3.571 1.9 8.349 1.397 11.166-1.226l.001-.002c2.009-1.887 3.186-4.642 3.865-7.615.68-2.979.873-6.231.873-9.171a.5.5 0 0 0-.5-.5Z" fill="#0C296E"/><path d="M122.751 70.53a.5.5 0 0 0-.448.547l.644 6.485a.5.5 0 0 0 .995-.1l-.644-6.484a.5.5 0 0 0-.547-.448Z" fill="#0C296E"/><path d="M111.082 74.699c-2.666-5.261-4.008-12.404-.752-16.569 2.684-4.128 8.552-4.329 8.552-4.329 1.271-1.297 3.579-2.01 5.01-2.375 1.413-.365 3.006-.292 4.258.494.59.383 1.091.913 1.306 1.589.465 1.224-.805 2.43-.805 2.43 1.807-.092 3.668.785 5.206 2.32 1.736 1.735 2.094 3.087 2.129 5.57l-1.735.02c.304 4.164-1.002 7.763-1.002 7.763l-1.735-7.91-18.017-.073s-.626 5.644-2.397 6.759l-.018 4.31Z" fill="#0C296E"/><path d="M127.881 52.341c-1.103-.69-2.542-.772-3.864-.43h-.002c-.704.18-1.612.442-2.494.814-.888.375-1.713.846-2.282 1.426a.497.497 0 0 1-.339.15h-.012l-.044.002-.178.013a11.91 11.91 0 0 0-.673.076c-.572.08-1.361.23-2.231.503-1.748.549-3.76 1.581-5.013 3.508a.513.513 0 0 1-.025.035c-1.52 1.945-1.996 4.626-1.741 7.522.19 2.147.78 4.378 1.608 6.443l.009-2.018c0-.17.088-.33.233-.42.313-.197.634-.643.932-1.308.29-.647.526-1.424.712-2.185a25.914 25.914 0 0 0 .494-2.664l.022-.175.005-.046.002-.01v-.003a.5.5 0 0 1 .499-.445l18.016.073a.5.5 0 0 1 .487.393l1.301 5.931c.024-.108.048-.219.071-.334.283-1.391.526-3.284.378-5.308a.498.498 0 0 1 .494-.536l1.228-.013c-.037-.975-.143-1.728-.385-2.403-.28-.777-.753-1.488-1.585-2.32-1.471-1.466-3.201-2.257-4.828-2.174a.5.5 0 0 1-.37-.861v-.001l.007-.006.03-.032a3.239 3.239 0 0 0 .451-.604c.229-.401.349-.841.195-1.248a.263.263 0 0 1-.01-.026c-.168-.53-.571-.976-1.098-1.319Zm1.754 3.136c1.642.207 3.241 1.097 4.575 2.427.904.904 1.477 1.736 1.82 2.69.339.944.438 1.97.456 3.228a.499.499 0 0 1-.495.508l-1.211.012c.083 1.938-.156 3.72-.426 5.05a21.593 21.593 0 0 1-.426 1.732c-.06.208-.112.37-.149.481l-.043.129-.012.034-.004.01-.001.004-.47-.17.47.17a.5.5 0 0 1-.959-.063l-1.649-7.519-17.175-.07a26.277 26.277 0 0 1-.488 2.578c-.192.79-.445 1.633-.77 2.358-.273.607-.623 1.193-1.08 1.575l-.016 4.06a.5.5 0 0 1-.946.224c-1.356-2.677-2.381-5.839-2.649-8.878-.267-3.024.211-5.99 1.936-8.207 1.432-2.19 3.688-3.318 5.54-3.9a15.07 15.07 0 0 1 2.391-.538 12.782 12.782 0 0 1 .812-.089c.687-.648 1.587-1.138 2.466-1.51.947-.399 1.909-.675 2.635-.861 1.504-.388 3.247-.325 4.649.554l.006.004c.649.422 1.244 1.03 1.506 1.844.303.813.022 1.582-.266 2.086a4.939 4.939 0 0 1-.027.047Z" fill="#0C296E"/></g><rect width="45.806" height="45.806" rx="22.903" transform="matrix(-1 0 0 1 144.806 47)" stroke="#00D6B9" stroke-width="2" stroke-linejoin="round"/><path d="M248.903 92.806c12.649 0 22.903-10.254 22.903-22.903S261.552 47 248.903 47 226 57.254 226 69.903s10.254 22.903 22.903 22.903Z" fill="#14C0FF"/><path d="M248.903 47.5c-12.372 0-22.403 10.03-22.403 22.403s10.031 22.403 22.403 22.403c12.373 0 22.403-10.03 22.403-22.403S261.276 47.5 248.903 47.5ZM225.5 69.903c0-12.925 10.478-23.403 23.403-23.403 12.925 0 23.403 10.478 23.403 23.403 0 12.925-10.478 23.403-23.403 23.403-12.925 0-23.403-10.478-23.403-23.403Z" fill="#14C0FF"/><g clip-path="url(#udzcda72zcvb)"><rect x="226" y="47" width="45.806" height="45.806" rx="22.903" fill="#14C0FF"/><g clip-path="url(#ud0atddgw7yc)"><path d="M225.611 92.282c.17-1.012.17-2.061.321-3.76.398-4.638 5.932 3.703 8.373 0 0-5.021.729-18.895 1.221-22.96.133-1.145.379-2.271.757-3.36.871-2.48 2.365-4.809 4.863-6.546 5.053-3.378 11.524-2.69 16.028.267 3.841 2.52 5.506 5.803 6.244 10.25 0 9.974.467 18.4-1.113 22.349.833 2.825 7.206-4.638 8.001-1.794.587 2.1 1.911 3.836 3.274 5.554h-47.969Z" fill="#0C296E"/><path d="M241.146 92.28c.322-1.507.549-3.626.549-6.68l14.646-9.657c-.17 7.73-.606 13.036-.189 16.338" fill="#fff"/><path d="M241.146 92.28c.322-1.507.549-3.626.549-6.68l14.646-9.657a491.034 491.034 0 0 1-.203 6.535c-.156 4.309-.273 7.53.014 9.803h-1.008c-.203-1.719-.193-3.901-.117-6.537.029-1.034.069-2.137.112-3.318.052-1.414.107-2.94.154-4.594l-12.601 8.309c-.024 2.688-.228 4.66-.525 6.14h-1.021Z" fill="#0C296E"/><path d="M248.336 56.419c2.336-.582 11.035 11.68 11.035 11.68s-.552 7.844-3.674 7.844l-7.361 3.836h-.019c-12.016 0-11.959-4.676-11.959-11.108.019-6.47 9.641-11.67 11.978-12.253Z" fill="#fff"/><path d="M236.471 67.05c-.549 3.913-.719 8.494.151 12.044 1.022 4.18 3.955 6.947 8.364 7.405 2.593.267 5.28-.725 7.21-2.443 1.949-1.737 3.841-4.065 4.125-8.092" fill="#fff"/><path d="M240.693 69.994a.5.5 0 0 0-.587.394l-1.093 5.568a.5.5 0 1 0 .981.192l1.093-5.567a.5.5 0 0 0-.394-.587Zm13.112-1.494c-2.283-.5-9.5-.5-18-.5 0 0 6.589-16.238 18.283-11.18 5.564 2.405 6.737 10.383 6.15 14.715-.246 1.794-1.343 1.909-3.368 1.852-.681 0-2.194-4.887-3.065-4.887Z" fill="#0C296E"/><path d="M236.137 79.212c-.893-3.641-.713-8.296-.161-12.231l.99.138c-.545 3.89-.706 8.396.142 11.855.975 3.987 3.744 6.592 7.93 7.027 2.437.251 4.988-.684 6.825-2.319 1.891-1.685 3.688-3.901 3.959-7.754l.998.07c-.296 4.201-2.284 6.642-4.291 8.43h-.001c-2.022 1.801-4.845 2.85-7.593 2.568-4.632-.482-7.729-3.412-8.798-7.784" fill="#0C296E"/><path d="M255.318 78c1.003-.069 2.563-.39 3.41-.963 1.047-.687 1.872-1.925 2.05-3.209.112-.802 0-3.828-2.83-3.828-1.137 0-2.675 1.513-3.143 1.903" fill="#fff"/><path d="M260.007 71.81c.323.752.323 1.612.276 1.95-.157 1.133-.896 2.247-1.829 2.86l-.006.003c-.354.24-.892.446-1.492.6a9.649 9.649 0 0 1-1.672.278l.068.998a10.65 10.65 0 0 0 1.854-.307c.642-.166 1.307-.406 1.799-.739 1.161-.763 2.07-2.124 2.269-3.556.064-.466.065-1.52-.348-2.481-.21-.49-.535-.973-1.032-1.335-.501-.365-1.144-.581-1.946-.581-.388 0-.775.127-1.119.29a6.38 6.38 0 0 0-.998.611c-.451.33-.874.703-1.139.937-.088.078-.158.14-.207.18l.64.769c.077-.064.169-.146.274-.238.265-.234.613-.542 1.022-.84.278-.203.564-.385.837-.515.277-.132.51-.194.69-.194.613 0 1.045.162 1.358.39.317.23.543.553.701.92Z" fill="#0C296E"/><path d="M252.805 68h3v23h-3V68Z" fill="#0C296E"/></g></g><rect x="226" y="47" width="45.806" height="45.806" rx="22.903" stroke="#14C0FF" stroke-width="2" stroke-linecap="round" stroke-linejoin="round"/><path d="M69.782 91.465a.5.5 0 0 0-.5.5v122.013a7.33 7.33 0 0 0 2.107 5.149 7.158 7.158 0 0 0 5.093 2.136.5.5 0 0 0 0-1 6.158 6.158 0 0 1-4.382-1.838 6.331 6.331 0 0 1-1.818-4.447V91.965a.48.48 0 0 0-.5-.5Zm140.79 129.299a.5.5 0 0 0-.5-.5h-48.351a.5.5 0 1 0 0 1h48.351a.5.5 0 0 0 .5-.5ZM310.578 29.248c1.53 1.443 2.396 3.407 2.396 5.462v107.889a.5.5 0 0 1-1 0V34.709c0-1.769-.745-3.473-2.082-4.734-1.338-1.261-3.159-1.975-5.063-1.975H77.157c-1.904 0-3.724.714-5.062 1.976-1.337 1.26-2.083 2.964-2.083 4.734L70 63.5c0 .276-.212.55-.488.55a.5.5 0 0 1-.5-.5V34.71c0-2.055.866-4.019 2.397-5.462C72.938 27.806 75.005 27 77.157 27H304.83c2.151 0 4.22.806 5.749 2.248Z" fill="#0C296E"/><path d="M205.766 327.264h-59.101l10.509-39.332h59.1l-10.508 39.332Z" fill="#14C0FF"/><path d="M205.766 328.544v.476H128.57v-1.756h77.196v1.28Z" fill="#0C296E"/><path d="M180.705 307.49a3.213 3.213 0 0 1 1.99-2.971 3.221 3.221 0 0 1 4.389 2.349 3.212 3.212 0 0 1-1.377 3.299 3.22 3.22 0 0 1-1.791.538 3.206 3.206 0 0 1-2.273-.942 3.202 3.202 0 0 1-.938-2.273Z" fill="#fff"/><mask id="udtlgmndt2bd" style="mask-type:alpha" maskUnits="userSpaceOnUse" x="47" y="162" width="147" height="168"><path d="M47.795 162.363h146.017V329.4H47.795V162.363Z" fill="#C4C4C4"/></mask><g mask="url(#udtlgmndt2bd)"><path d="M139.386 239.403c6.208.507 24.576 13.073 24.576 13.073l7.363 7.706-7.363-7.706c-2.39-2.176-4.486-4.45-15.263-17.245-.861-.834-4.713-4.974-5.396-5.366-3.218-1.866-4.339-5.089-5.623-8.607-.521-1.407-1.464-4.025-.911-4.843.52-.065 3.023 4.238 4.469 6.414l.457 2.323s-.668-4.957-1.74-7.411c-1.982-4.532-.861-11.813-.569-12.337.439-.523 1.251-2.503 2.991-.589l1.479 1.554s12.288 17.589 1.153 1.768c.39-3.911 7.835 5.71 9.201 9.064.472 1.472-1.756 8.033-.13 10.242 8.29 11.126 29.533 21.057 36.816 33.377 3.038 5.154.276 10.603-4.715 11.781-10.857 2.585-47.12-8.639-47.12-8.639" fill="#fff"/><path d="M139.984 205.429c-.065.097-.14.208-.215.296l-.766-.642c.035-.042.082-.108.151-.212a10.137 10.137 0 0 1 .234-.341c.174-.242.413-.538.726-.749a1.533 1.533 0 0 1 1.236-.242c.465.107.925.421 1.393.936l1.475 1.55a.671.671 0 0 1 .048.058l.663.95c.113-.113.251-.203.42-.259.461-.152.958.025 1.372.252.861.473 1.915 1.479 2.951 2.648 2.081 2.349 4.293 5.6 5.001 7.338l.014.036c.086.271.099.608.086.945-.014.348-.058.753-.117 1.187-.059.43-.134.901-.212 1.389l-.003.016a84.87 84.87 0 0 0-.234 1.53c-.146 1.044-.252 2.083-.226 2.989.026.921.188 1.616.501 2.042 3.757 5.041 10.226 9.85 16.904 14.813l1.779 1.324c7.238 5.4 14.46 11.021 18.161 17.283 3.213 5.45.282 11.267-5.03 12.521-2.815.67-7.201.438-12.127-.25-4.949-.692-10.517-1.857-15.735-3.1a339.284 339.284 0 0 1-13.673-3.581 308.4 308.4 0 0 1-4.263-1.238c-.508-.151-.903-.271-1.172-.352l-.307-.094-.105-.032s-.001-.001.147-.478l.148-.478.026.008.077.024.305.093 1.166.351c1.011.301 2.468.729 4.25 1.234a338.011 338.011 0 0 0 13.633 3.57c5.204 1.24 10.737 2.397 15.641 3.082 4.927.689 9.145.891 11.758.268 4.67-1.102 7.298-6.256 4.435-11.113-3.581-6.058-10.657-11.489-17.933-16.916l-1.808-1.346c-6.638-4.932-13.23-9.83-17.08-14.997l-.001-.002c-.5-.679-.669-1.632-.697-2.608-.028-.992.088-2.098.236-3.156.074-.53.158-1.054.237-1.548l.001-.009c.079-.494.152-.956.21-1.375.058-.423.097-.79.109-1.09.011-.297-.007-.484-.035-.585-.657-1.594-2.776-4.73-4.816-7.032-1.029-1.162-1.986-2.051-2.684-2.435-.366-.201-.535-.192-.576-.179-.006.002-.022.007-.047.047a.61.61 0 0 0-.063.156 1757.537 1757.537 0 0 1 4.483 6.448l.055.084a.34.34 0 0 1 .026.045c.002.004.017.031.03.068a.945.945 0 0 1 .029.162c-.021.147-.26.443-.492.505a.893.893 0 0 1-.298-.093.902.902 0 0 1-.056-.045c-.026-.025-.046-.05-.046-.05a31.883 31.883 0 0 1-.521-.725c-.638-.897-1.929-2.727-4.162-5.901a.497.497 0 0 1-.09-.242l-1.043-1.495-1.461-1.535c-.4-.44-.693-.595-.882-.639a.54.54 0 0 0-.451.097c-.163.11-.319.288-.474.504a8.833 8.833 0 0 0-.18.262l-.036.053Z" fill="#0C296E"/><path d="M137.113 217.423c.026.311.095.676.194 1.073.224.902.581 1.884.842 2.589l.001.002.053.147c1.274 3.492 2.358 6.463 5.351 8.198.135.078.304.218.473.367.181.16.397.363.634.594a82.959 82.959 0 0 1 1.632 1.641c.462.475.924.955 1.34 1.387a81.145 81.145 0 0 0 1.449 1.488c10.784 12.804 12.533 15.269 14.893 17.417l.025.025 7.687 7.486a.5.5 0 1 1-.723.691l-7.327-7.668-.009-.007-.154-.104a179.835 179.835 0 0 0-2.752-1.825 210.82 210.82 0 0 0-6.976-4.365c-2.678-1.599-5.542-3.208-8.118-4.449-2.597-1.25-4.833-2.09-6.283-2.208a.5.5 0 0 1 .082-.997c1.655.135 4.043 1.056 6.635 2.304 2.614 1.259 5.507 2.886 8.197 4.492a211.15 211.15 0 0 1 5.955 3.701c-2.168-2.373-5.508-6.264-11.881-13.83-.274-.266-.813-.827-1.447-1.485-.412-.428-.865-.898-1.31-1.356a86.96 86.96 0 0 0-1.611-1.621 19.9 19.9 0 0 0-.6-.562 2.76 2.76 0 0 0-.311-.25l-.001-.001c-3.311-1.918-4.508-5.205-5.74-8.587l-.102-.279c-.26-.702-.635-1.732-.875-2.694-.119-.481-.21-.964-.231-1.393-.02-.407.017-.863.249-1.208a.5.5 0 0 1 .352-.217.692.692 0 0 1 .441.106c.091.055.176.127.249.197.149.141.313.336.483.557a28.6 28.6 0 0 1 1.196 1.73c.399.613.811 1.266 1.21 1.9-.23-.919-.495-1.797-.788-2.468a.5.5 0 1 1 .916-.4c.56 1.282 1.004 3.184 1.305 4.731.152.78.27 1.482.35 1.99.04.254.07.459.091.601l.023.164.006.043.002.016-.495.067.495-.067a.499.499 0 0 1-.986.163l-.437-2.226c-.376-.57-.829-1.288-1.295-2.027-.416-.662-.843-1.339-1.235-1.941a27.779 27.779 0 0 0-1.124-1.632Z" fill="#0C296E"/><path d="M146.636 227.769c-4.388-4.565-13.637-13.547-15.832-15.658a1.517 1.517 0 0 1-.341-1.685l3.365-8.115a1.497 1.497 0 0 1 2.455-.491l16.14 16.018c.455.458.585 1.145.309 1.734l-3.625 7.788c-.487.949-1.74 1.178-2.471.409Z" fill="#fff"/><path d="m135.928 202.172.003.003 16.137 16.015.002.002c.31.313.393.775.209 1.168v.001l-3.621 7.779c-.347.663-1.189.78-1.66.285l-.002-.002c-4.395-4.572-13.648-13.559-15.844-15.671a1.013 1.013 0 0 1-.227-1.135l3.365-8.115.001-.003a.997.997 0 0 1 1.637-.327Zm.708-.706a1.997 1.997 0 0 0-3.27.655l-.001.001-3.364 8.113c-.32.774-.15 1.648.455 2.235l.002.002c2.195 2.111 11.435 11.086 15.817 15.643.989 1.039 2.647.701 3.277-.526l.004-.009 3.629-7.795s0-.001 0 0a2.034 2.034 0 0 0-.407-2.299l-16.14-16.018-.002-.002Z" fill="#0C296E"/><path d="m68.223 372.959-8.815-53.388 3.666-43.192 19.4 1.128-6.413 42.485-.405 50.478c1.46 4.536 3.384 5.886 5.444 10.008.767 1.536.985 3.229 1.314 4.946.515 2.728.267 6.96-.416 9.767-1.93-4.569-2.256-10.046-4.627-14.396 0 0 3.36 19.577 6.618 26.942-.717.408-1.336-.28-1.804-.783-3.267-3.483-4.874-9.323-6.4-12.727l5.243 12.704a207.167 207.167 0 0 1-7.95-9.664c-1.34-1.749-2.676-3.549-3.303-5.654-.506-1.763-.65-12.79-1.552-18.654Zm53.29-136.458c-1.089-.817-3.385-5.725-3.507-14.176l-16.652-6.255c.224 14.484.156 18.588-2.746 20.118 0 0 1.572 17.753 13.405 15.249 11.831-2.503 9.5-14.936 9.5-14.936Z" fill="#fff"/><path d="m100.843 215.344 17.658 6.632.005.341c.061 4.183.659 7.476 1.369 9.813.356 1.169.738 2.093 1.091 2.767.362.694.668 1.07.847 1.204l.155.117.036.191-.491.092.491-.092v.001l.001.003.001.008.006.031.018.112c.015.098.035.238.056.417.042.358.088.868.106 1.487.034 1.237-.045 2.919-.509 4.689-.464 1.771-1.315 3.642-2.833 5.235-1.52 1.597-3.686 2.889-6.734 3.534-3.094.655-5.556-.014-7.483-1.41-1.909-1.383-3.26-3.454-4.215-5.558-.957-2.109-1.533-4.289-1.87-5.935a31.737 31.737 0 0 1-.416-2.581l-.016-.154-.004-.041-.001-.011v-.003l.497-.045-.498.044-.029-.331.294-.156c1.225-.645 1.936-1.835 2.282-4.816.347-2.987.31-7.594.197-14.851l-.011-.734Zm-1.703 21.115.054.419c.065.471.171 1.144.335 1.944.328 1.604.884 3.706 1.799 5.723.918 2.021 2.178 3.919 3.891 5.161 1.696 1.228 3.868 1.839 6.69 1.242 2.868-.607 4.847-1.807 6.217-3.246 1.374-1.442 2.158-3.149 2.59-4.799.432-1.651.509-3.233.476-4.407a15.79 15.79 0 0 0-.144-1.735c-.316-.3-.647-.786-.968-1.4-.388-.74-.792-1.724-1.161-2.94-.721-2.369-1.318-5.64-1.406-9.748l-15.648-5.877c.103 6.812.13 11.285-.215 14.248-.335 2.886-1.038 4.496-2.51 5.415Z" fill="#0C296E"/><path d="M104.172 189.676h-.035c-7.342 1.565-12.04 8.833-10.486 16.24 1.555 7.407 1.295 11.094 14.597 8.259l1.537 2.313h.018c13.3-2.834 12.574-8.538 10.381-15.771-2.47-8.068-8.672-12.606-16.012-11.041Z" fill="#fff"/><path d="M120.182 200.717c1.503 4.086 2.711 8.955 2.539 13.006-.206 4.747-3.006 8.955-7.497 9.911-2.833.609-6.027-.174-8.931-1.339-1.553-.626-4.162-3.199-5.043-7.355" fill="#fff"/><path d="M122.221 213.701c.168-3.955-1.015-8.75-2.509-12.812l.939-.345c1.512 4.111 2.746 9.052 2.57 13.2-.214 4.911-3.122 9.363-7.892 10.379-2.982.64-6.291-.188-9.222-1.364-.884-.356-1.992-1.226-2.984-2.513-.999-1.296-1.905-3.047-2.362-5.202l.978-.208c.424 2 1.263 3.615 2.176 4.8.921 1.195 1.895 1.925 2.564 2.195 2.877 1.154 5.956 1.891 8.64 1.314 4.211-.897 6.903-4.861 7.102-9.444Z" fill="#0C296E"/><path d="M114.291 191.175c2.885 2.023 5.11 5.277 6.37 9.396l-.956.292c-1.209-3.949-3.32-6.998-5.988-8.87-2.661-1.866-5.905-2.582-9.441-1.828a.535.535 0 0 1-.105.011h-.034v-.66l-.07-.329c3.804-.811 7.332-.041 10.224 1.988Zm-4.506 25.813v-1h.017l.001 1h-.018Z" fill="#0C296E"/><path d="M91.231 207.379c-1.33-4.069-2.245-8.416.483-13.198 2.42-4.259 6.358-5.39 9.449-6.05 6.546-1.392 12.092 2.608 14.371 5.616 1.123 1.478.933 2.208.933 2.208-3.731.696-12.748 2.66-12.748 2.66s.554 3.739 0 5.008c-.534 1.27-2.897 2.782-2.897 2.782l-.322 2.096s-1.552-.144-2.5-1.5l3.5 8.5-.112 5.006c0-.018-7.807-5.964-10.157-13.128Z" fill="#0C296E"/><path d="M108.937 197.467c6.874-1.496 11.297-2.33 11.297-2.33s.258-2.887-2.522-5.078c-1.469-1.078-3.144-1.651-4.803-2.208 3.126-2.173.242-6.781-5.371-4.121-1.677.696-3.956 1.478-7.221 3.2-2.21 1.165-3.887 1.738-7.358 5.494" fill="#0C296E"/><path d="M102.231 214.982c-.899.278-2.608-.383-3.403-.731-.968-.434-1.935-1.46-2.453-2.66-.328-.765-1.157-3.738.898-4.382.829-.261 2.212.574 2.746 1.148" fill="#fff"/><path d="M98.54 207.921c-.495-.238-.895-.305-1.116-.235h-.001c-.386.121-.617.34-.763.61-.154.284-.226.651-.23 1.063-.008.831.259 1.696.404 2.034.478 1.105 1.362 2.026 2.197 2.401.387.17.986.41 1.591.575.302.082.595.142.857.167.266.025.468.01.604-.032a.5.5 0 1 1 .295.955c-.313.097-.662.104-.993.073a6.273 6.273 0 0 1-1.026-.198 13.158 13.158 0 0 1-1.731-.624l-.004-.002c-1.102-.495-2.15-1.625-2.708-2.919v-.001c-.183-.426-.495-1.431-.486-2.438.005-.507.091-1.052.35-1.53a2.238 2.238 0 0 1 1.344-1.088c.607-.191 1.312.029 1.849.287.562.27 1.095.657 1.412.997a.5.5 0 0 1-.732.682c-.217-.234-.643-.551-1.113-.777Zm18.522-2.181a.5.5 0 0 1 .664.243l2.385 5.152a.412.412 0 0 1 .03.083.791.791 0 0 1-.092.601.795.795 0 0 1-.478.368.54.54 0 0 1-.098.015l-2.247.12a.5.5 0 0 1-.054-.998l1.878-.101-2.231-4.819a.5.5 0 0 1 .243-.664Zm1.025 147.605c-.291 9.798-.343 15.049-.343 15.049l-1.423 60.861c.291 25.031.858 83.209.858 83.209H96.903S83.611 415.95 80.588 355.725c-.91-18.116 4.48-39.406 4.48-39.406l50.027-.001 33.112 105.88c2.71 12.368 1.681 17.483-.103 21.917-3.223 8.025-34.307 64.415-34.307 64.415l-17.012-11.481s16.438-32.223 28.1-59.504c.874-2.048.892-2.82.069-4.888-10.908-24.622-21.447-49.257-27.192-64.263" fill="#0C296E"/><path d="M69.478 245.912c4.454-6.43 29.906-10.62 29.906-10.62 2.358 7.346 11.184 8.402 13.653 8.533 1.854.099 3.674-.278 5.3-1.21 1.625-.933 2.226-2.34 2.551-4.189l.52-4.75c8.195 1.616 17.498 2.744 22.318 5.236 4.729 2.437 14.274 8.59 14.274 8.59l-7.056 20.739-8.444-2.739-8 50.778H85.63s-1.331-20.664-2.483-28.475l.723-9.218-21.361-2.02c1.613-12.008-.14-20.373 6.969-30.655Z" fill="#00D6B9"/><path d="M105.928 293.361a.501.501 0 0 1 .695-.135 114.202 114.202 0 0 0 19.517 10.572.5.5 0 0 1-.389.922 115.25 115.25 0 0 1-19.688-10.665.5.5 0 0 1-.135-.694Zm36.984-37.23a.5.5 0 0 1 .502.498l.036 9.779a.5.5 0 0 1-1 .004l-.036-9.779a.5.5 0 0 1 .498-.502ZM83.9 270.059a.5.5 0 1 0-.993-.118l-.893 7.496-.034-.005-6.413 42.484a.5.5 0 0 0-.006.07l-.405 50.479c0 .054.008.107.024.157.748 2.324 1.617 3.836 2.553 5.278.193.297.387.59.583.885.754 1.134 1.532 2.306 2.337 3.915.612 1.227.854 2.552 1.117 3.992.05.271.1.546.153.825.404 2.14.323 5.274-.077 7.85-.506-1.504-.895-3.082-1.29-4.687l-.221-.891c-.62-2.483-1.306-4.997-2.525-7.235a.5.5 0 0 0-.932.324l.01.057.029.166.112.636a303.633 303.633 0 0 0 1.94 9.871c1.173 5.466 2.716 11.801 4.272 15.643-.227-.142-.446-.377-.69-.639l-.001-.001c-1.216-1.296-2.203-2.944-3.049-4.691l-2.472-5.99a43.053 43.053 0 0 0-.788-1.909.5.5 0 0 0-.918.396l.006.014.772 1.871.402 1.038.004.011a92.073 92.073 0 0 0 1.366 3.406c.226.524.464 1.051.716 1.573l.793 1.922a203.72 203.72 0 0 1-5.908-7.29c-1.345-1.756-2.621-3.487-3.219-5.49-.05-.176-.104-.503-.158-.983a45.758 45.758 0 0 1-.152-1.746c-.082-1.136-.16-2.515-.245-4.013l-.053-.935c-.211-3.704-.474-7.953-.93-10.913l-8.806-53.332 3.661-43.13-.996-.084-3.666 43.192a.5.5 0 0 0 .004.124l8.815 53.382v.003c.447 2.903.707 7.099.92 10.815l.053.932c.085 1.498.163 2.886.246 4.03.049.689.1 1.295.155 1.787.054.482.116.884.192 1.149v.005c.658 2.205 2.052 4.074 3.385 5.815l.001.002a207.764 207.764 0 0 0 7.97 9.687.5.5 0 0 0 .876-.288c.096.11.194.217.293.323v-.001l.365-.34-.365.341.037.04c.218.235.524.565.877.779.405.246.938.378 1.502.058a.5.5 0 0 0 .21-.637c-1.605-3.628-3.25-10.313-4.499-16.136-.408-1.9-.772-3.703-1.077-5.267.173.625.335 1.26.495 1.9l.219.885v.001c.538 2.186 1.087 4.416 1.954 6.467a.5.5 0 0 0 .946-.076c.696-2.861.953-7.167.422-9.977v-.002c-.05-.259-.098-.521-.146-.785-.261-1.438-.531-2.925-1.213-4.29-.834-1.67-1.653-2.902-2.41-4.042a88.45 88.45 0 0 1-.565-.856c-.896-1.381-1.71-2.795-2.415-4.964l.404-50.362 6.234-41.299a.495.495 0 0 0 .101-.247l1.004-8.425Z" fill="#0C296E"/></g><path d="M214.915 328.996a.5.5 0 0 1-.5.5l-183.98-.276c-.263 0-.391-.114-.435-.221-.117-.287.16-.503.435-.503h183.98a.5.5 0 0 1 .5.5ZM122.5 173a.5.5 0 0 1 .5-.5c10.217 0 18.5 8.283 18.5 18.5a.5.5 0 0 1-1 0c0-9.665-7.835-17.5-17.5-17.5a.5.5 0 0 1-.5-.5Zm0-13a.5.5 0 0 1 .5-.5c17.397 0 31.5 14.103 31.5 31.5a.5.5 0 0 1-1 0c0-16.845-13.655-30.5-30.5-30.5a.5.5 0 0 1-.5-.5Z" fill="#0C296E"/><path d="M271.958 270.919a6.373 6.373 0 0 0 5.1 7.437 6.383 6.383 0 0 0 7.449-5.092 6.374 6.374 0 0 0-5.1-7.437c-3.466-.648-6.801 1.632-7.449 5.092Z" fill="#00D6B9"/><path d="M227.5 272c0-5.799 4.701-10.5 10.5-10.5h41c5.799 0 10.5 4.701 10.5 10.5v1c0 5.799-4.701 10.5-10.5 10.5h-41c-5.799 0-10.5-4.701-10.5-10.5v-1Zm10.5-9.5a9.5 9.5 0 0 0-9.5 9.5v1a9.5 9.5 0 0 0 9.5 9.5h41a9.5 9.5 0 0 0 9.5-9.5v-1a9.5 9.5 0 0 0-9.5-9.5h-41Z" fill="#0C296E"/><g filter="url(#udgavte4tpme)"><path d="M315.807 313.4c6.422 0 11.628-5.198 11.628-11.61 0-6.412-5.206-11.61-11.628-11.61s-11.628 5.198-11.628 11.61c0 6.412 5.206 11.61 11.628 11.61Z" fill="#3370FF"/></g><path d="M320.685 298.195c0-14.015 12.734-25.283 28.315-25.283a.5.5 0 0 1 0 1c-15.141 0-27.315 10.926-27.315 24.283v6.522a.5.5 0 0 1-.5.5h-8.084c-14.951 0-27.01 10.654-27.309 23.783h22.315a.5.5 0 0 1 0 1h-22.821a.5.5 0 0 1-.5-.5c0-14.015 12.734-25.283 28.315-25.283h7.584v-6.022Z" fill="#0C296E"/><g filter="url(#udpd3ipuh37f)"><path d="M17.142 220.824h18.29v8.033H20.055a2.925 2.925 0 0 1-2.913-2.91v-5.123Z" fill="#3370FF"/></g><path d="M19.928 211.494a2.909 2.909 0 0 0-2.914 2.91v6.582h16.83a1.461 1.461 0 0 1 1.46 1.45v6.582h13.907a2.918 2.918 0 0 0 2.922-2.909v-11.705a2.911 2.911 0 0 0-2.922-2.91H19.93Z" fill="#3370FF"/><path d="M.5 224.5A4.5 4.5 0 0 1 5 220h27c2.485 0 4.5 2.012 4.5 4.498V245.5a.5.5 0 0 1-.825.38l-6.86-5.88H5a4.5 4.5 0 0 1-4.5-4.5v-11Zm35 19.913v-19.915A3.498 3.498 0 0 0 32 221H5a3.5 3.5 0 0 0-3.5 3.5v11A3.5 3.5 0 0 0 5 239h24a.5.5 0 0 1 .325.12l6.175 5.293Z" fill="#0C296E"/><path d="M341.027 155.166h-31.353a4 4 0 0 0-4 4v34.191a4 4 0 0 0 4 4h31.353a4 4 0 0 0 4-4v-34.191a4 4 0 0 0-4-4Z" fill="#00D6B9"/><path d="M327.809 239.056h-4.255v20.041l-21.206-20.061h-78.479a6.551 6.551 0 0 1-4.629-1.914 6.534 6.534 0 0 1-1.917-4.622v-60.822a6.526 6.526 0 0 1 6.526-6.535h103.96a6.544 6.544 0 0 1 4.619 1.918 6.507 6.507 0 0 1 1.907 4.617v60.803a6.529 6.529 0 0 1-4.018 6.068 6.56 6.56 0 0 1-2.508.507Z" fill="#fff"/><path d="M251.83 164.998h-28.304a7.053 7.053 0 0 0-4.966 2.065 7.018 7.018 0 0 0-2.054 4.972v.016l-.006-.017v60.822c0 1.866.742 3.656 2.064 4.975a7.047 7.047 0 0 0 4.982 2.061h78.279l21.062 19.923a.5.5 0 0 0 .844-.363v-19.541h3.757a7.045 7.045 0 0 0 6.502-4.377c.35-.857.527-1.774.522-2.7v.002h-.5l.5-.003v-60.799a7.02 7.02 0 0 0-4.334-6.497 7.026 7.026 0 0 0-2.692-.539h-10.668a.5.5 0 0 0 0 1h10.668a6.042 6.042 0 0 1 4.265 1.772 6.026 6.026 0 0 1 1.761 4.264v60.805a6.015 6.015 0 0 1-1.751 4.285 6.053 6.053 0 0 1-4.276 1.787h-4.254a.5.5 0 0 0-.5.5v18.88l-20.363-19.263a.504.504 0 0 0-.344-.136h-78.478a6.052 6.052 0 0 1-4.276-1.768 6.035 6.035 0 0 1-1.77-4.268v-50.279a.516.516 0 0 0 .006-.079v-10.464a6.026 6.026 0 0 1 3.717-5.574 6.06 6.06 0 0 1 2.309-.462h28.298a.5.5 0 0 0 0-1Z" fill="#0C296E"/><path d="M275.997 133.117c8.925 0 16.198 7.29 16.198 16.236v22.579h-32.396v-22.579c0-8.946 7.273-16.236 16.198-16.236Z" fill="#0C296E"/><path d="M260.035 183.061c9.351-1.751 7.934-7.668 7.934-16.425l14.97-2.32c0 14.154-.52 16.331 5.761 18.414l-.141 7.857-28.477-.662v-6.864h-.047Z" fill="#fff"/><path d="M283.439 163.732v.584c0 1.073-.003 2.075-.006 3.013-.006 2.163-.012 3.982.023 5.531.049 2.223.18 3.838.493 5.066.307 1.209.786 2.021 1.527 2.659.759.652 1.828 1.154 3.381 1.67l.35.115-.158 8.728-29.467-.685v-7.352h.407l-.046-.492c2.289-.429 3.868-1.104 4.966-1.974 1.088-.863 1.736-1.946 2.119-3.26.388-1.328.503-2.886.516-4.689.007-.899-.012-1.848-.033-2.852l-.001-.091c-.02-.975-.041-2-.041-3.068v-.428l15.97-2.475Zm-22.857 19.73v5.974l27.485.639.126-6.99c-1.418-.491-2.526-1.017-3.369-1.742-.928-.799-1.497-1.806-1.845-3.171-.342-1.346-.474-3.059-.523-5.29-.035-1.561-.029-3.401-.023-5.571.002-.762.005-1.565.005-2.412l-13.968 2.165c.004.904.022 1.777.039 2.622l.002.087c.021 1.002.04 1.966.033 2.88-.013 1.825-.128 3.497-.556 4.962-.431 1.479-1.182 2.751-2.458 3.763-1.185.941-2.793 1.633-4.948 2.084Z" fill="#0C296E"/><path d="M264.24 152.475c-.567-.758-1.606-.663-2.125-.189-.897.757-.756 1.94-.661 2.698.33 1.94 1.936 4.023 4.014 4.591" fill="#fff"/><path d="M276.187 137.518c7.036 0 12.703 5.68 12.703 12.638s0 12.638-12.703 12.638-12.656-5.064-12.656-12.023c0-7.005 5.62-13.253 12.656-13.253Z" fill="#fff"/><path d="M287.757 152.475c.567-.758 1.606-.663 2.125-.189.897.757.756 1.94.661 2.698-.33 1.94-1.936 4.023-4.014 4.591" fill="#fff"/><path d="M287.756 152.476c0 4.071-.614 6.769-1.652 9.42-1.606 4.165-4.062 5.68-6.329 6.911-3.777 2.035-8.547 1.467-11.475-1.326-4.25-4.023-5.1-10.413-4.77-16.756" fill="#fff"/><path d="M263.031 150.697c-.332 6.369.505 12.961 4.925 17.146 3.095 2.951 8.102 3.533 12.057 1.402h.001c1.141-.62 2.371-1.332 3.52-2.434 1.153-1.106 2.208-2.588 3.036-4.736 1.061-2.709 1.686-5.469 1.686-9.6h-1c0 4.009-.602 6.645-1.618 9.237l-.001.003c-.778 2.017-1.753 3.375-2.796 4.375-1.047 1.004-2.178 1.664-3.303 2.275-3.601 1.94-8.132 1.386-10.893-1.247l-.001-.001c-4.08-3.863-4.943-10.051-4.614-16.368l-.999-.052Z" fill="#0C296E"/><path d="M274.289 151.884a.5.5 0 0 0-.536.461l-.472 6.248a.5.5 0 1 0 .997.076l.472-6.248a.5.5 0 0 0-.461-.537Z" fill="#0C296E"/><path d="M275.288 137c7.273 0 13.223 5.964 13.223 13.254v.52h-7.462l-1.275-6.484-1.322 6.484h-16.434v-.52c.047-7.29 5.998-13.254 13.27-13.254Z" fill="#0C296E" stroke="#0C296E" stroke-linejoin="round"/><path d="M284.639 146.325v27.596h3.872V141.5l-3.872 4.825Z" fill="#0C296E"/><path d="M288.677 141.028c.2.071.334.26.334.472v32.421a.5.5 0 0 1-.5.5h-3.872a.5.5 0 0 1-.5-.5v-27.596c0-.114.928-1.236 1-1.325l2.982-3.813a.502.502 0 0 1 .556-.159Zm-.666 1.894-2.872 3.578v26.921h2.872v-30.499Z" fill="#0C296E"/><path d="m249.5 212-9.5-1-4 28h13l2.5-19.5-2-7.5Z" fill="#fff"/><path d="M253.36 211.22a.5.5 0 0 0-.992-.136l-3.849 27.854a.5.5 0 0 0 .992.136l3.849-27.854Zm-12.743.136a.5.5 0 0 0-.992-.136l-3.849 27.854a.5.5 0 0 0 .992.136l3.849-27.854Z" fill="#0C296E"/><path d="M287.126 180.025c6.233 0 11.381.284 13.459.616 7.414 1.325 10.767 7.289 11.475 9.656 1.795 5.87 1.889 9.041 2.928 15.999l-14.309 4.876-3.258-10.509-5.921 38.336h-35l-6.728-26.691-10.579-.994c.709-7.905 1.7-17.656 2.881-20.354 1.322-3.172 2.928-4.544 7.273-6.39 3.116-1.373 11.9-2.793 12.797-3.219 4.723 9.561 19.976 9.467 24.982-1.326Z" fill="#14C0FF"/><path d="M249.915 197.854a.5.5 0 0 1 .392.588 92.143 92.143 0 0 1-.379 1.782l-.001.002c-.13.593-.258 1.18-.375 1.766l-.001.003c-.285 1.382-.556 2.704-.556 4.017 0 .799.133 1.653.359 2.47l.002.007 3.967 15.195a.5.5 0 1 1-.968.252l-3.965-15.191a10.376 10.376 0 0 1-.395-2.733c0-1.424.292-2.838.572-4.194l.004-.023c.119-.596.25-1.191.379-1.781l.001-.002c.13-.593.259-1.18.376-1.766a.499.499 0 0 1 .588-.392Zm13.34 14.56a.501.501 0 0 1 .578-.409c5.283.907 10.422 2.481 15.322 4.627a.5.5 0 0 1-.401.916c-4.829-2.115-9.89-3.665-15.09-4.557a.5.5 0 0 1-.409-.577Z" fill="#0C296E"/><path d="M314.5 206.5c.708 5.349 1.492 9.398 2.153 20.143.755 12.45-10.909 19.124-16.906 7.29-3.117-5.444-8.501-32.472-10.248-41.655-.425-2.272-1.086-4.449-1.889-6.627-1.275-3.55-.236-5.491-.094-9.893.047-1.656-.473-7.526.33-7.715 1.795-.663 1.842 7.999 1.842 7.999 3.4-6.532 3.967-11.313 4.297-17.94 0 0 0-2.082.614-2.082 1.086 0 .756 3.881.756 3.881.189-2.319 1.416-2.603 1.605-.663.189 2.367-.33 9.089-.33 9.089.236-1.846 1.133-5.539 1.605-6.201.425-.663.331 4.26.237 6.106-.237 3.171-.189 3.881-1.087 6.958l-3.022 11.077S299.08 201.574 303 210l11.5-3.5Z" fill="#fff"/><path d="M296.921 158.74a.5.5 0 0 0-.459.538c.091 1.144.011 3.381-.095 5.365a171.286 171.286 0 0 1-.214 3.354l-.016.216-.006.075a.5.5 0 0 0 .995.102c.114-.896.393-2.259.703-3.485.072-.283.144-.558.217-.816l.002.155a70.455 70.455 0 0 1-.076 3.957l-.077 1.079c-.16 2.29-.219 3.128-.99 5.77l-3.024 11.085a.507.507 0 0 0 .005.281l.058.187.169.536a397.46 397.46 0 0 0 2.817 8.555c1.764 5.156 4.024 11.385 5.994 15.623l.011.031 4.77 12.023a.5.5 0 1 0 .929-.369l-4.769-12.023-.006-.014a.412.412 0 0 0-.023-.058c-1.947-4.187-4.195-10.377-5.96-15.536a407.542 407.542 0 0 1-2.809-8.533l-.169-.534-.014-.047 2.983-10.931c.799-2.742.864-3.664 1.026-5.982l.077-1.075.001-.011a71.78 71.78 0 0 0 .077-4.026c-.009-.691-.034-1.326-.087-1.753-.024-.19-.061-.42-.144-.583a.628.628 0 0 0-.135-.183.547.547 0 0 0-.725-.02.66.66 0 0 0-.135.152c-.124.178-.246.458-.362.776.048-1.34.063-2.617-.001-3.422a.5.5 0 0 0-.538-.459Z" fill="#0C296E"/><path d="M288.076 168.524a.837.837 0 0 1 .018-.047.5.5 0 0 0-.363-.921.743.743 0 0 0-.421.286 1.28 1.28 0 0 0-.179.356c-.081.235-.132.53-.166.844-.068.634-.079 1.463-.067 2.315.011.791.042 1.62.07 2.36l.007.182c.029.793.052 1.45.041 1.844-.045 1.403-.179 2.516-.302 3.541-.069.583-.136 1.137-.181 1.7-.122 1.531-.061 2.978.606 4.836l.002.004c.796 2.16 1.448 4.309 1.866 6.546l.001.002c.874 4.594 2.658 13.653 4.614 22.247.977 4.296 1.999 8.481 2.973 11.936.965 3.425 1.898 6.189 2.711 7.615 1.535 3.024 3.461 4.923 5.518 5.825 2.068.907 4.218.782 6.128-.151 3.8-1.858 6.586-6.863 6.2-13.231-.572-9.302-1.146-13.512-1.748-17.935a466.12 466.12 0 0 1-.286-2.123.5.5 0 0 0-.992.131c.051.382.141.946.228 1.496.08.499.157.987.203 1.318.601 4.415 1.027 7.909 1.597 17.174.369 6.081-2.299 10.638-5.641 12.271-1.663.812-3.505.915-5.288.134-1.79-.785-3.569-2.485-5.032-5.372a.16.16 0 0 0-.013-.022c-.743-1.299-1.65-3.95-2.623-7.401-.967-3.431-1.984-7.598-2.96-11.887-1.952-8.577-3.734-17.622-4.607-22.212-.431-2.306-1.101-4.511-1.91-6.705-.607-1.691-.664-2.989-.55-4.416.039-.489.101-1.013.169-1.582.126-1.06.27-2.275.316-3.708v-.001c.013-.435-.012-1.132-.041-1.911l-.007-.181c-.028-.742-.059-1.56-.07-2.338-.011-.846.001-1.623.063-2.194.031-.289.072-.497.116-.625Z" fill="#0C296E"/><path d="m292.276 153.959 8.207-.254-8.346 24.455-8.207.254 8.346-24.455Z" fill="#fff"/><path d="M300.885 153.408a.497.497 0 0 1 .071.458l-8.346 24.455a.502.502 0 0 1-.458.339l-8.207.254a.5.5 0 0 1-.489-.661l8.346-24.455a.5.5 0 0 1 .459-.338l8.207-.254c.164-.005.32.07.417.202Zm-8.248 1.04-8.001 23.444 7.139-.221 8.001-23.444-7.139.221Z" fill="#0C296E"/><defs><clipPath id="ud62ol4xnk1a"><rect width="45.806" height="45.806" rx="22.903" transform="matrix(-1 0 0 1 144.806 47)" fill="#fff"/></clipPath><clipPath id="udzcda72zcvb"><rect x="226" y="47" width="45.806" height="45.806" rx="22.903" fill="#fff"/></clipPath><clipPath id="ud0atddgw7yc"><path fill="#fff" transform="matrix(-1 0 0 1 275.278 45.897)" d="M0 0h51.091v45.806H0z"/></clipPath><filter id="udgavte4tpme" x="299.179" y="285.18" width="33.255" height="33.221" filterUnits="userSpaceOnUse" color-interpolation-filters="sRGB"><feFlood flood-opacity="0" result="BackgroundImageFix"/><feBlend in="SourceGraphic" in2="BackgroundImageFix" result="shape"/><feGaussianBlur stdDeviation="2.5" result="effect1_foregroundBlur_14633_3621"/></filter><filter id="udpd3ipuh37f" x="16.142" y="219.824" width="20.29" height="10.033" filterUnits="userSpaceOnUse" color-interpolation-filters="sRGB"><feFlood flood-opacity="0" result="BackgroundImageFix"/><feBlend in="SourceGraphic" in2="BackgroundImageFix" result="shape"/><feGaussianBlur stdDeviation=".5" result="effect1_foregroundBlur_14633_3621"/></filter></defs></svg>