<svg width="350" height="350" viewBox="0 0 350 350" fill="none" xmlns="http://www.w3.org/2000/svg"><path d="M128.413 188.12a.5.5 0 0 1 .5-.501h39.173a.5.5 0 0 1 .5.501v32.945h40.2a.5.5 0 0 1 .5.501v31.368a.5.5 0 1 1-1 0v-30.867h-40.2a.5.5 0 0 1-.499-.501v-32.945h-38.674a.5.5 0 0 1-.5-.501Z" fill="#0C296E"/><g filter="url(#udt9fkipqsga)"><path d="M194.351 329.678c10.715 0 19.402-8.702 19.402-19.436s-8.687-19.435-19.402-19.435c-10.716 0-19.402 8.701-19.402 19.435 0 10.734 8.686 19.436 19.402 19.436Z" fill="#FFC60A"/></g><path d="M47.797 295.419c14.515-2.969 28.323-.182 39.728 7.332 12.361 8.121 18.98 21.149 33.495 26.785 5.981 2.303 12.68 3.151 19.3 3.818 32.538 3.514 60.413.363 93.271 0l28.916 1.166c-32.423-1.117-67.478 2.348-100.017-1.166-6.619-.728-13.318-1.515-19.299-3.818-14.515-5.636-21.214-18.664-33.496-26.785-11.324-7.453-27.673-10.301-42.188-7.332h-19.71Z" fill="#00D6B9"/><path d="M77.876 294.269H54.51s-3.017-.728-10.913 2.666C31.141 302.289 26 313.541 26 313.541h23.593s4.916-15.307 28.283-19.272ZM84.224 37c-24.957 0-45.188 20.267-45.188 45.268v105.854a.5.5 0 0 0 .5.5h89.377a.5.5 0 0 0 .499-.5V82.268C129.412 57.267 109.181 37 84.224 37Z" fill="#0C296E"/><path d="M274.773 334.936c-32.983-3.395-74.828-7.854-105.771-12.426-10.179-1.502-20.525-3.05-29.672-6.708-9.147-3.657-17.079-9.807-19.048-17.417-1.224-4.736-.086-9.655-1.02-14.428-2.615-13.358-24.856-25.893-45.796-33.423v3.514l-30.34-7.372v17.943c20.433 0 74.302 19.311 78.477 40.635.934 4.773-.204 9.692 1.019 14.428 4.723 12.779 39.708 15.257 50.082 15.257 34.549 0 68.14-.424 100.491-.165" fill="#3370FF"/><g filter="url(#udtyw2qg6m7b)"><path d="M42.872 246.681v-3.685c6.866 0 23.054 4.914 30.289 7.371v4.053s-20.724-6.387-30.29-7.739Z" fill="#3370FF"/></g><path d="M200.895 246.895a.499.499 0 0 0-.507-.032l-9.843 5.011a.503.503 0 0 0-.016.884l95.12 53.109a.5.5 0 0 0 .524-.852l-85.278-58.12Z" fill="#0C296E"/><path d="M190.333 252.075a.5.5 0 0 1 .68-.193l95.12 53.105c.242.135.328.44.194.681-14.772 26.557-48.238 36.088-74.748 21.287-26.507-14.798-36.021-48.323-21.246-74.88Zm.632.927c-14.16 26.002-4.778 58.631 21.1 73.078 25.882 14.45 58.518 5.278 73.143-20.463l-94.243-52.615Z" fill="#0C296E"/><path d="m284.863 239.668 1.029 6.832-7.444 6.704-10.868-17.117 9.727-2.749 7.556 6.33Z" fill="#fff" stroke="#0C296E" stroke-miterlimit="10" stroke-linecap="round" stroke-linejoin="round"/><path d="M230.52 168.716a.502.502 0 0 0-.707-.114l-2.714 2.017a.503.503 0 0 0-.09.719c4.059 4.981 6.827 10.82 9.616 16.705.648 1.366 1.296 2.735 1.963 4.096 3.558 7.268 9.729 14.098 18.556 22.429l.009.009a.065.065 0 0 1 .009.008l2.286 1.957a.498.498 0 0 0 .802-.232l3.024-9.711a.502.502 0 0 0-.134-.514l-11.452-10.806a.82.82 0 0 0-.045-.038c-4.511-3.342-8.136-7.614-11.465-12.238-1.664-2.312-3.25-4.707-4.836-7.114l-.345-.524c-1.47-2.232-2.944-4.471-4.477-6.649Z" fill="#00D6B9"/><path d="M227.189 170.717c-.4-.801-5.833-4.34-8.499-6.01 0-.167.1-.601.5-1.001.4-.401 3.166.5 4.499 1.001-.333-.667-1.199-2.304-1.999-3.506-.8-1.201-5.333-6.176-7.499-8.513 0-.334 1.2.1 5.999 4.507 4.799 4.407 8.666 9.516 9.999 11.519-.834 1.001-2.6 2.804-3 2.003Z" fill="#fff"/><path d="M214.2 151.948a.5.5 0 0 1 .385.056l1.44.877.028.019c5.882 4.144 10.42 9.652 14.553 15.521a.501.501 0 0 1-.817.577c-4.107-5.831-8.562-11.225-14.298-15.27l-.227-.138c.093.134.198.277.316.43.665.867 1.648 1.948 2.737 3.115l.813.867a142.99 142.99 0 0 1 2.486 2.694c1.019 1.144 1.925 2.245 2.464 3.148l.506.631a.502.502 0 0 1-.482.806l-2.067-.388-.014-.002-2.065-.387a2.158 2.158 0 0 0-.377-.046c-.101 0-.152.018-.178.034-.025.015-.066.057-.082.161a.56.56 0 0 0 .055.327c.133.248.388.431.764.676l3.473 2.26c1.158.754 2.316 1.508 3.474 2.26a.54.54 0 0 1 .079.064l.358.356a.5.5 0 0 1-.703.712l-.322-.319-3.427-2.23-.003-.003-3.473-2.26-.02-.013c-.339-.22-.815-.53-1.083-1.033l-.002-.004a1.56 1.56 0 0 1-.158-.942c.048-.319.211-.662.552-.869.236-.143.487-.179.696-.179.206 0 .407.035.558.063h.002l2.069.388.004.001.821.153c-.501-.762-1.267-1.69-2.165-2.698-.771-.866-1.622-1.772-2.461-2.667l-.822-.877c-1.085-1.163-2.101-2.278-2.8-3.188-.347-.453-.634-.878-.81-1.247a2.075 2.075 0 0 1-.187-.569.966.966 0 0 1 .101-.631.494.494 0 0 1 .309-.236Z" fill="#0C296E"/><path d="M257.555 192.584c-1.758 1.594-3.083 4.006-6.041 6.248-.724.548 1.329.315 1.155 1.084-.28 1.247-.993 4.48-.073 5.364.568.548 1.388.733 2.171.822 2.253.255 3.427.207 5.477-.763 11.968-4.424 10.587-8.105-2.689-12.755Z" fill="#fff"/><path d="M257.22 192.212a.5.5 0 0 1 .5-.102c3.33 1.166 5.942 2.281 7.793 3.374 1.821 1.075 3.031 2.199 3.339 3.441.327 1.322-.408 2.524-1.807 3.604-1.404 1.085-3.614 2.164-6.608 3.272-1.048.494-1.901.766-2.795.875-.892.108-1.797.051-2.931-.078-.798-.09-1.765-.287-2.461-.958-.355-.341-.503-.85-.566-1.332-.065-.499-.05-1.066.001-1.621.096-1.054.331-2.143.475-2.783a2.518 2.518 0 0 0-.403-.13l-.03-.008c-.087-.023-.186-.049-.274-.078a1.165 1.165 0 0 1-.343-.166.655.655 0 0 1-.2-.249.595.595 0 0 1-.028-.406c.061-.217.228-.358.33-.435 1.438-1.09 2.482-2.222 3.392-3.293.202-.237.399-.473.593-.707.673-.807 1.317-1.58 2.023-2.22Zm.455.944c-.565.545-1.091 1.176-1.679 1.882-.202.242-.411.492-.631.751-.836.983-1.807 2.047-3.098 3.088.148.046.312.108.452.192a.998.998 0 0 1 .358.357.836.836 0 0 1 .08.599c-.14.625-.382 1.716-.477 2.754-.047.52-.056 1.005-.004 1.4.053.411.161.638.266.739.441.425 1.114.598 1.881.685 1.119.126 1.928.172 2.698.078.764-.093 1.517-.326 2.509-.796l.041-.017c2.979-1.101 5.079-2.14 6.364-3.132 1.294-.999 1.627-1.838 1.446-2.57-.201-.813-1.077-1.757-2.876-2.819-1.716-1.013-4.16-2.07-7.33-3.191Z" fill="#0C296E"/><path d="M282.975 239.403c-1.064-.366-2.464-1.001-3.417-1.601-2.873-1.801-8.179-2.117-11.466-1.288l-4.816 1.396s-3.877-17.702-3.711-21.091c.166-3.388 3.896-9.866 3.896-9.866l8.962 3.089c4.38 3.244 6.755 8.638 9.063 13.658 2.482 5.398 5.118 12.208 11.374 14.605-3.855-1.646-7.067 2.389-9.885 1.098Z" fill="#00D6B9"/><path d="M263.028 206.704a.498.498 0 0 1 .595-.224l8.963 3.089a.528.528 0 0 1 .135.071c4.337 3.213 6.745 8.461 8.964 13.296l.255.556c.199.434.399.875.601 1.321 1.064 2.349 2.185 4.825 3.635 7.041 1.669 2.552 3.745 4.71 6.607 5.883.091.034.182.07.273.109a.5.5 0 0 1-.375.928 9.886 9.886 0 0 1-.258-.102c-1.632-.593-3.15-.096-4.713.516l-.33.131c-.695.275-1.41.559-2.104.715-.813.184-1.656.209-2.486-.164-1.089-.377-2.512-1.023-3.497-1.642-1.344-.843-3.302-1.36-5.36-1.557-2.049-.196-4.135-.069-5.711.327l-4.807 1.394a.502.502 0 0 1-.627-.374l.488-.108-.488.108-.044-.201-.123-.568a452.37 452.37 0 0 1-1.754-8.517c-.474-2.426-.945-4.963-1.286-7.108-.338-2.122-.56-3.919-.516-4.828.045-.918.328-2.011.706-3.11.381-1.106.87-2.251 1.351-3.282a55.939 55.939 0 0 1 1.741-3.409l.121-.215.032-.056.008-.015.004-.005.433.25-.433-.25Zm.664.859c-.097.176-.226.41-.376.692a55.382 55.382 0 0 0-1.288 2.573 33.746 33.746 0 0 0-1.312 3.184c-.368 1.069-.614 2.056-.652 2.833-.039.785.162 2.472.504 4.621.339 2.128.807 4.652 1.281 7.074.473 2.421.952 4.737 1.313 6.448.18.856.331 1.56.436 2.05l.053.242 4.302-1.246.017-.005c1.709-.431 3.916-.56 6.058-.355 2.134.204 4.266.746 5.795 1.705.914.575 2.279 1.195 3.314 1.552a.366.366 0 0 1 .046.018c.57.261 1.178.265 1.873.108.612-.138 1.246-.389 1.947-.666l.343-.135c.85-.333 1.784-.677 2.784-.802-1.971-1.314-3.512-3.097-4.791-5.051-1.496-2.287-2.654-4.845-3.717-7.194-.199-.441-.396-.875-.59-1.298l-.214-.465c-2.244-4.887-4.543-9.894-8.631-12.955l-8.495-2.928Z" fill="#00D6B9"/><path d="M293.529 239.855c.141-.374.199-.734.145-1.069a1.386 1.386 0 0 0-.464-.84c-.454-.399-1.137-.527-1.78-.548-1.316-.044-2.956.346-3.871.736l-.353.151c-.829.356-1.642.705-2.456.895a.5.5 0 0 0-.368.625l.027.095.075.268.26.945c.211.775.481 1.79.72 2.753a.5.5 0 0 0 .588.369c1.986-.42 2.336-.562 4.558-1.513.663-.283 1.312-.804 1.82-1.325.502-.515.929-1.095 1.099-1.539v-.003Z" fill="#0C296E"/><path d="M232.432 263.222c-1.278 4.092-2.286 7.369-2.349 7.702-.122.666-.757 2.912-3.567 1.247-6.607-3.91-16.991-9.189-17.678-10.673-.757-1.631 7.05 1.31 11.093 2.246 5.063 1.169 7.645.089 8.21-3.637" fill="#fff"/><path d="M228.699 273.333a4.1 4.1 0 0 1-2-.671c-2.07-1.222-4.529-2.595-6.919-3.927-6.459-3.596-10.439-5.859-10.999-6.961a.786.786 0 0 1 .08-.881c.59-.682 2.45-.211 7.22 1.202 1.549.46 3.149.941 4.359 1.222 2.84.661 4.809.58 5.999-.251a4.14 4.14 0 0 0 1.119-1.331 4.14 4.14 0 0 0 .471-1.674.502.502 0 0 1 .57-.42.51.51 0 0 1 .42.57 4.993 4.993 0 0 1-2 3.656c-1.46 1.002-3.679 1.122-6.809.401-1.25-.29-2.86-.771-4.419-1.242a39.172 39.172 0 0 0-5.94-1.482c1.08 1.111 6.2 4.006 10.369 6.29 2.39 1.332 4.859 2.704 6.939 3.936a2.412 2.412 0 0 0 2 .441 1.915 1.915 0 0 0 .82-1.342c.06-.331.86-2.935 2.37-7.763a.486.486 0 0 1 .619-.33.492.492 0 0 1 .297.246.502.502 0 0 1 .033.385c-1.999 6.5-2.309 7.512-2.329 7.642a2.838 2.838 0 0 1-1.4 2.073 2.134 2.134 0 0 1-.87.211Z" fill="#0C296E"/><path d="M232.538 263.689a.464.464 0 0 0 .45.07.505.505 0 0 0 .32-.321c1.97-6.31 4.37-13.862 5.25-16.487 1.419-4.337 2.739-10.597 1.419-16.977 6.86 15.275 20.158 28.146 31.786 30.72 5.64 1.021 12.519-.09 14.929-6.28 2.049-5.239.819-9.005.759-9.155a.484.484 0 0 0-.349-.331.513.513 0 0 0-.47.13 3.59 3.59 0 0 1-3.4.621 11.926 11.926 0 0 1-3.45-1.893c-1.768-1.252-4.484-3.14-7.581-5.294-2.453-1.706-5.145-3.578-7.797-5.433l-1.624-1.13c-6.046-4.204-11.524-8.012-13.544-9.447-.418-.326-.845-.635-1.276-.949-.26-.188-.521-.378-.784-.574-2.889-2.173-6.169-4.627-9.628-5.499a4.692 4.692 0 0 0-4.82 1.342 6.692 6.692 0 0 0-1.07 3.276c-.756 5.545-1.634 16.56-2.361 25.679l-.068.854c-.51 6.42-.95 11.959-1.18 13.482a.495.495 0 0 0 .2.481l4.289 3.115Z" fill="#0C296E"/><path d="M319.14 320.415c.377 1.098.133 2.357-.262 3.452-.48 1.328-1.218 2.467-1.968 3.654a5.037 5.037 0 0 1-1.451 1.517c-1.485.988-2.519.632-5.241 1.694-.447.174-2.729 2.046-2.297 2.257 1.101.536 6.419.573 7.386.155l10.872-4.916a2.182 2.182 0 0 0 1.049-2.963 1547.681 1547.681 0 0 1-3.712-7.425l-4.376 2.575Z" fill="#fff"/><path d="M312.099 333.943a13.985 13.985 0 0 1-4.38-.481.612.612 0 0 1-.34-.571c0-.811 2.31-2.464 2.67-2.604a17.666 17.666 0 0 1 3-.862 5.65 5.65 0 0 0 2.179-.781 4.379 4.379 0 0 0 1.3-1.372l.12-.181a17.113 17.113 0 0 0 1.8-3.375c.438-.978.53-2.077.26-3.115a.522.522 0 0 1 .22-.601l4.379-2.574a.506.506 0 0 1 .4-.05.524.524 0 0 1 .177.099c.051.045.093.1.123.161.83 1.673 2.59 5.188 3.71 7.422a2.689 2.689 0 0 1-1.29 3.646l-10.869 4.918a12.537 12.537 0 0 1-3.459.321Zm-3.49-1.242a21.33 21.33 0 0 0 6.509 0l10.869-4.908a1.67 1.67 0 0 0 .89-1.002 1.702 1.702 0 0 0-.08-1.312c-1-2.003-2.58-5.149-3.48-6.941l-3.579 2.103a6.017 6.017 0 0 1-.38 3.385 17.687 17.687 0 0 1-1.9 3.566l-.11.191a5.526 5.526 0 0 1-1.6 1.662 6.463 6.463 0 0 1-2.519.932c-.962.187-1.906.459-2.82.811-.655.435-1.259.942-1.8 1.513Z" fill="#0C296E"/><path d="M245.303 278.111a6.84 6.84 0 0 0 1.141 4.14c.096.144.203.292.237.462.033.171-.019.374-.174.455-.166.085-.366-.003-.532-.092-.653-.352-1.303-.729-1.824-1.258-.521-.529-1.422-2.704-1.43-3.448" fill="#fff"/><path d="M245.33 277.61a.5.5 0 0 1 .472.527 6.335 6.335 0 0 0 1.057 3.833l.001.002.025.036c.083.122.235.345.286.608.056.284-.001.769-.432.995l-.004.002a.867.867 0 0 1-.614.059 1.686 1.686 0 0 1-.381-.155l-.001-.001c-.656-.352-1.366-.76-1.944-1.347-.182-.185-.364-.473-.525-.77a11.072 11.072 0 0 1-.488-1.033 11.33 11.33 0 0 1-.387-1.077c-.096-.324-.171-.655-.174-.915a.5.5 0 1 1 1-.01c.002.112.042.332.133.641.088.297.211.638.351.977.141.338.295.667.443.938.154.283.281.466.359.545.421.428.946.754 1.528 1.073l-.006-.009a7.33 7.33 0 0 1-1.225-4.446.5.5 0 0 1 .526-.473Z" fill="#0C296E"/><path d="M243.687 273.385c-1.521 1.517-3.388 2.652-5.999 2.267-1.872-.277-4.583-1.171-6.499-1.766-.244-.074-1.604.131 1.063 1.766 1.95 1.195 2.478 1.369 4.221 2.19 4.524 2.126 7.657 1.498 10.222-2.349" fill="#fff"/><path d="M241.101 279.459a11.316 11.316 0 0 1-4.77-1.263l-.89-.41a26.06 26.06 0 0 1-3.379-1.803c-1.08-.661-2.15-1.452-1.8-2.214a.996.996 0 0 1 1.14-.46l.73.23a44.241 44.241 0 0 0 5.659 1.502 6.151 6.151 0 0 0 5.569-2.133.506.506 0 0 1 .862.35.48.48 0 0 1-.152.351 7.248 7.248 0 0 1-6.429 2.414 44.586 44.586 0 0 1-5.849-1.563l-.29-.09c.316.267.65.511 1 .731a25.917 25.917 0 0 0 3.279 1.743l.89.421c4.35 2.003 7.219 1.392 9.599-2.174a.49.49 0 0 1 .69-.14.503.503 0 0 1 .14.691c-1.61 2.565-3.57 3.817-5.999 3.817Z" fill="#0C296E"/><path d="M246.342 276.082a.513.513 0 0 0 .29.1l.17-.01a.534.534 0 0 0 .33-.22c3.099-4.688 13.368-20.474 14.938-26.904 1-3.356 6.139-23.779 3.999-33.605a3.308 3.308 0 0 0-1-1.733 3.777 3.777 0 0 0-3.749-.59 5.944 5.944 0 0 0-3.43 2.924 13.812 13.812 0 0 0-1.3 6.07c-.12 2.074-.2 4.157-.27 6.25l-.004.117c-.289 7.536-.586 15.316-2.705 22.61-2.38 8.184-3.88 11.148-8.269 19.272a14.32 14.32 0 0 1-2.14 2.714.53.53 0 0 0-.14.401.512.512 0 0 0 .2.36l3.08 2.244Z" fill="#00D6B9"/><path d="M259.245 211.555c.05.01.101.01.15 0a.506.506 0 0 0 .4-.2c1.41-1.933 4.5-1.643 5.76-1.433a24.56 24.56 0 0 1 2.439.581c1.434.448 2.919.711 4.42.782 5.319-.531 7.809-2.354 9.169-6.751a.492.492 0 0 0-.24-.581c-1.572-.837-2.439-2.321-3.541-4.206l-.059-.101a21.656 21.656 0 0 0-8.529-8.955 11.69 11.69 0 0 0-6.919-1.532c-2.02.05-2.87.581-4.759 1.893a.466.466 0 0 0-.18.23c-.16.401-1.5 4.017-.73 5.83a10.01 10.01 0 0 0 4.439 4.657.527.527 0 0 0 .46 0c.8-.508 1.75-.724 2.69-.611a.994.994 0 0 1 .63.621 1.193 1.193 0 0 1-.71 1.332 4.576 4.576 0 0 1-2.12.231.42.42 0 0 0-.27.06l-.002.001c-.162.093-3.43 1.962-3.997 4.817-.42 2.143.79 3.115 1.499 3.335Zm10.192 24.563c2.647-.97 5.517.101 7.862 1.176l.307.141c2.297 1.056 4.542 2.088 6.824 1.736a.5.5 0 1 1 .152.99c-2.589.4-5.095-.756-7.309-1.777l-.39-.179c-2.368-1.086-4.882-1.96-7.102-1.147a.5.5 0 1 1-.344-.94Zm-4.052-21.544c-.977-1.352-2.942-1.821-4.21-.92a.5.5 0 1 1-.579-.817c1.805-1.282 4.368-.554 5.599 1.149 1.201 1.658 1.443 4.008 1.56 5.872.187 2.983-.248 6.652-.829 10.271a259.708 259.708 0 0 1-.875 5.041c-.328 1.817-.638 3.532-.867 5.074a.5.5 0 1 1-.989-.148c.227-1.53.544-3.288.877-5.134.293-1.627.599-3.323.867-4.992.579-3.612.997-7.186.818-10.049m0 0c-.119-1.894-.364-3.956-1.372-5.346v-.001" fill="#0C296E"/><path d="m237.297 223.334 3.003 8.013-3.003-8.013Z" fill="#fff"/><path d="M238.012 225.339a.5.5 0 0 1 .644.293l3.003 8.012a.501.501 0 0 1-.937.352l-3.002-8.012a.501.501 0 0 1 .292-.645Z" fill="#fff"/><path d="M285.638 243.419a.5.5 0 0 1 .86.138c3.587 9.659 8.865 20.804 13.337 29.873 2.832 5.743 4.401 7.938 6.221 10.485.627.879 1.285 1.799 2.034 2.92 2.923 4.374 7.178 11.727 16.377 31.43a.502.502 0 0 1-.199.644l-4.376 2.579a.502.502 0 0 1-.692-.191c-3.993-7.277-10.229-16.047-16.252-23.899-3.44-3.537-10.085-11.113-16.36-18.604-6.276-7.493-12.226-14.95-14.223-18.201a.502.502 0 0 1 .068-.612l13.205-16.562Z" fill="#0C296E"/><path d="M284.337 250.25a.502.502 0 0 1 .546.451c.321 3.343-.637 6.63-2.87 8.829-2.248 2.214-5.713 3.251-10.239 2.23a.5.5 0 1 1 .22-.977c4.262.962 7.358-.037 9.318-1.967 1.976-1.945 2.874-4.911 2.575-8.019a.502.502 0 0 1 .45-.547ZM58.392 65.015c2.443.398 5.323 2.773 6.784 3.52l2.136-5.12c-5.495-2.03-7.57-3.081-12.478-6.3-3.62-1.928-10.314-1.922-9.41-.015.724 1.526 7.239 2.262 9.99 5.145-1.975-.353-5.745-.85-5.038-.004.885 1.056 4.962 2.276 8.016 2.774Z" fill="#fff"/><path d="M53.615 61.461c-1.205-.743-2.692-1.315-4.124-1.826l-.611-.216c-.798-.28-1.556-.548-2.175-.818a6.494 6.494 0 0 1-1.037-.546c-.283-.192-.55-.432-.695-.74-.17-.36-.185-.746.015-1.092.181-.313.496-.518.82-.657.65-.278 1.596-.398 2.625-.397 2.07 0 4.734.491 6.636 1.503a.483.483 0 0 1 .039.024c4.876 3.198 6.918 4.232 12.377 6.25a.5.5 0 0 1 .288.662l-2.136 5.12a.5.5 0 0 1-.689.253c-.392-.2-.868-.504-1.377-.835l-.276-.18c-.441-.287-.911-.594-1.403-.894-1.203-.734-2.463-1.38-3.58-1.563a33.802 33.802 0 0 1-4.898-1.196 16.887 16.887 0 0 1-2.06-.813c-.565-.276-1.068-.588-1.36-.937-.13-.154-.323-.482-.116-.834a.74.74 0 0 1 .3-.275c.096-.051.2-.084.295-.106.363-.085.895-.085 1.444-.054.522.03 1.114.092 1.698.167Zm-7.386-4.235c.216.147.508.298.874.457.583.253 1.296.505 2.089.784l.634.225c2.043.728 4.478 1.666 5.949 3.208a.502.502 0 0 1-.45.839c-.979-.176-2.393-.384-3.464-.445a9.12 9.12 0 0 0-.656-.017c.159.1.354.21.586.323.528.257 1.193.516 1.936.762 1.486.49 3.243.914 4.745 1.159 1.325.216 2.727.956 3.94 1.696.506.308.991.625 1.432.912l.271.177c.302.196.574.37.816.516l1.719-4.118c-5.164-1.926-7.294-3.025-12.07-6.158-1.719-.908-4.2-1.375-6.148-1.376-.984 0-1.768.119-2.231.317-.234.1-.322.193-.348.238l-.001.002c-.008.013-.029.047.024.158.035.073.131.19.353.341Z" fill="#0C296E"/><path d="M67.569 62.669a.499.499 0 0 0-.687.243l-2.461 5.597a.501.501 0 0 0 .2.631c5.82 3.497 29.061 14.57 35.177 17.302a.5.5 0 0 0 .265.04l28.807-3.567a.5.5 0 0 0 .051-.986l-1.347-.31c-19.761-4.543-41.986-9.654-60.005-18.95Z" fill="#14C0FF"/><path d="m148.365 86.352-9.657-.862-1.244 4.79 10.901 5.172v-9.1Z" fill="#fff"/><path d="M138.224 85.365a.5.5 0 0 1 .528-.373l9.657.862a.5.5 0 0 1 .456.5v9.1a.5.5 0 0 1-.714.452l-10.901-5.173a.5.5 0 0 1-.269-.579l1.243-4.789Zm.861.663-1.033 3.977 9.813 4.657v-7.85l-8.78-.784Z" fill="#0C296E"/><path d="M158.53 87.505c-.808 1.994-2.047 4.769-3.051 6.69a9.779 9.779 0 0 1-1.581-2.072l.574.882c-1.496 2.233.16-.238-1.34 1.998-.763 1.137-1.766 2.406-3.231 2.439-1.563.035-3.056-1.118-3.638-2.44-1.074-2.438-2.348-6.018-1.902-8.615-.484-.66-.799-1.772-1.128-2.528-.366-.838-.712-3.225.763-3.215.859.006 1.48.847 1.835 1.559.354.712.397 1.514.432 2.294 7.887-6.39 11.757-5.063 12.267 3.008Z" fill="#fff"/><path d="M149.917 98.06a4.646 4.646 0 0 1-4-2.734c-1.11-2.524-2.33-6.01-2-8.704a10.203 10.203 0 0 1-.77-1.703c-.1-.26-.19-.52-.29-.741a4.083 4.083 0 0 1 0-3.275 1.43 1.43 0 0 1 1.24-.642 2.751 2.751 0 0 1 2.27 1.833c.233.481.375 1 .42 1.533 3.999-3.105 6.999-4.167 9.129-3.225 1.91.831 2.949 3.185 3.209 7.191a.545.545 0 0 1 0 .22c-.77 1.894-1.999 4.708-3.069 6.732a.482.482 0 0 1-.37.26.511.511 0 0 1-.43-.14c-.22-.22-.42-.45-.62-.681l-.07.09a2.993 2.993 0 0 1-.18.27l-.66 1.002c-.87 1.302-2 2.624-3.639 2.664l-.17.05Zm-5.81-16.797a.4.4 0 0 0-.39.19 3.247 3.247 0 0 0 .1 2.324c.1.23.2.511.31.791.187.576.442 1.128.76 1.643a.508.508 0 0 1 .09.38c-.42 2.425.79 5.87 1.87 8.324a3.638 3.638 0 0 0 3.11 2.144h.06c1.189 0 2.059-1.082 2.829-2.214.27-.41.46-.701.61-.901a.358.358 0 0 1 0-.08l.48-.722c-.14-.21-.27-.42-.4-.64a.503.503 0 0 1 .548-.74.49.49 0 0 1 .302.219l.58.88c.14.191.29.382.45.562.94-1.873 2-4.227 2.66-5.9-.23-3.475-1.11-5.569-2.6-6.23-1.85-.811-4.82.43-8.849 3.686a.47.47 0 0 1-.51.07.486.486 0 0 1-.3-.43 5.227 5.227 0 0 0-.38-2.094c-.19-.39-.71-1.282-1.39-1.282l.06.02Z" fill="#0C296E"/><path d="m166.123 81.185.003.003-.003.285c-.046.277-.229.48-.229.48l-.009.004-.034.013-.134.052c-.116.046-.282.114-.481.2a16.43 16.43 0 0 0-1.424.691c-.511.284-.974.591-1.276.89-.329.325-.322.487-.306.534.175.535.073 1.077-.152 1.545-.224.467-.585.895-.995 1.245a4.734 4.734 0 0 1-1.379.828c-.481.181-1.01.272-1.496.165a.502.502 0 0 1-.307-.21l-1.691-2.514c-1.235.2-2.498-.129-3.557-.673-1.013-.52-1.897-1.24-2.723-1.947l-1.543 1.416-1.87 1.718a.5.5 0 0 1-.764-.107 2.038 2.038 0 0 1-.231-1.566l-2.156-3.736a.512.512 0 0 1-.067-.235c-.029-.973.354-2.085.821-3.09.474-1.02 1.067-2 1.523-2.725 1.419-2.253 4.022-2.761 6.541-2.582 2.536.18 5.154 1.062 6.861 1.798a.501.501 0 0 1 .172.797l-.552.613-.02.023c1.963.68 3.734 2.08 5.039 3.338a24.238 24.238 0 0 1 2.266 2.517l.13.171.034.046.009.013Z" fill="#0C296E"/><path d="M104.423 176.093c-.355.607-.623 1.538-.96 2.108 6.073 2.684 7.388 3 13.762 5.876 3.151 1.422 5.734 4.065 2.948 4.074-8.512-.837-17.752-2.136-21.727-2.912-.837-.237-3.81-.418-2.756-2.966.39-.948 1.373-3.268 3.198-6.706" fill="#fff"/><path d="M99.122 175.124c.244.13.336.433.207.677-1.816 3.42-2.792 5.725-3.177 6.662-.232.56-.211.912-.126 1.136.086.229.276.42.573.583.3.164.665.276 1.03.363.17.04.33.073.483.104l.032.007c.145.029.294.06.417.093 3.96.772 13.151 2.065 21.635 2.9.302-.003.489-.042.594-.084a.343.343 0 0 0 .07-.036.375.375 0 0 0-.03-.114 1.81 1.81 0 0 0-.291-.454c-.625-.76-1.984-1.736-3.52-2.429a197.393 197.393 0 0 0-6.977-3.003l-.435-.178c-1.742-.715-3.536-1.451-6.346-2.693a.504.504 0 0 1-.228-.713c.145-.246.282-.582.44-.973l.005-.013c.148-.367.316-.783.513-1.121a.5.5 0 0 1 .863.507c-.156.265-.297.613-.454 1.002l-.013.03a15.85 15.85 0 0 1-.241.577 230.339 230.339 0 0 0 5.841 2.47l.434.178a200.14 200.14 0 0 1 7.009 3.017c1.616.729 3.123 1.785 3.881 2.705.192.233.353.477.449.724.096.245.148.542.039.835-.113.306-.359.501-.638.612-.272.109-.606.154-.986.156a.436.436 0 0 1-.051-.003c-8.521-.838-17.777-2.139-21.774-2.919a6.492 6.492 0 0 0-.406-.092l-.034-.007c-.15-.031-.326-.066-.511-.11-.394-.094-.863-.23-1.28-.46-.42-.23-.828-.576-1.028-1.105-.202-.534-.158-1.16.137-1.875.395-.96 1.384-3.295 3.218-6.749a.5.5 0 0 1 .676-.207Zm21.749 12.395-.003.004.003-.004Z" fill="#0C296E"/><path d="M104.946 100.997a328.077 328.077 0 0 1 32.411 27.261c.889.85 1.789 1.732 2.326 2.843 1.004 2.085.513 4.648-.681 6.631-1.78 2.956-4.771 5.617-7.157 8.096-9.62 9.982-17.486 21.213-26.718 31.49l-5.943-1.808c2.731-4.196 5.677-10.623 8.397-16.184 4.333-8.848 8.841-17.982 16.362-24.335l-.041.069c-13.883-8.441-26.496-7.512-37.995-20.534-3.282-4.067-4.872-9.835-3.919-14.978" fill="#3370FF"/><path d="M49.212 179.232c.852.345-1.776 2.201-1 2.504 4.198 1.64 10.93 2.254 15.49 4.177a.967.967 0 0 1-.679 1.51c-6.306.784-14.6-.024-20.63.196-.553.022-1.148.028-1.608-.283-.586-.394-.767-1.209-.62-1.901.47-2.223 3.249-5.801 3.132-7.773" fill="#fff"/><path d="M42.798 177.692a.501.501 0 0 1 .438-.527l8.136-1.005a.5.5 0 0 1 .476.777l-2.822 4.192c2.415.922 4.668 1.44 6.946 1.964l.142.033c2.501.575 5.036 1.167 7.783 2.325a.496.496 0 0 1 .217.177c.632.913.06 2.155-1.029 2.292v.001c-3.193.396-6.875.389-10.491.312a467.46 467.46 0 0 1-2.462-.059c-2.759-.071-5.406-.139-7.72-.054-.53.021-1.29.047-1.907-.369-.815-.548-1.002-1.61-.83-2.42.13-.616.414-1.301.743-1.987.248-.519.533-1.061.815-1.596l.275-.525c.369-.709.708-1.389.949-2.008.244-.63.363-1.14.34-1.523Zm-2.293 10.059.28-.415-.28.415Zm.814-3.974c-.32.67-.56 1.267-.666 1.762-.122.575.055 1.142.41 1.381h.001c.305.207.732.222 1.31.199 2.349-.086 5.04-.017 7.806.054.807.021 1.621.042 2.435.059 3.615.076 7.232.081 10.346-.305a.468.468 0 0 0 .387-.62c-2.596-1.076-5.005-1.641-7.458-2.205l-.164-.038c-2.445-.562-4.94-1.136-7.65-2.233a.503.503 0 0 1-.227-.744l2.556-3.799-6.622.819c-.05.473-.202.975-.394 1.471-.263.675-.625 1.398-.995 2.108l-.284.542a45.79 45.79 0 0 0-.79 1.549Z" fill="#0C296E"/><path d="M87.599 86.96c-5.673 3.492-10.261 8.3-13.762 17.347-.998 2.578-1.76 5.617-2.491 8.869a436.764 436.764 0 0 0-.7 3.187c-.498 2.299-1.012 4.669-1.607 7.053-1.749 7.003-4.172 13.996-8.827 19.272-8.326 9.435-11.448 18.837-15.11 29.863a592.837 592.837 0 0 1-1.681 5.012l-.165.482 6.378 2.063.209-.32c2.15-3.296 4.593-7.272 7.144-11.423a1343.69 1343.69 0 0 1 3.986-6.457c3.96-6.364 7.95-12.54 11.356-16.839 1.114-1.406 4.763-6.581 9.15-12.803 3.432-4.866 7.315-10.374 10.79-15.22l15.727-17.825-20.202-12.238-.09.15-.105-.172Z" fill="#3370FF"/><path d="M190.085 136.644c4.137.11 9.348.189 13.485.3.253 0 .553.032.695.237.189.269-.048.602-.3.807-2.148 1.724-15.507.095-15.507.095l-1.137 2.12c-.758.601-.458 1.582.158 2.309.885 1.06 2.937 1.804 3.679 2.42.332.269.948 1.203 0 1.361-2.115-.316-6.616-1.345-9.506-5.537-1.231-1.771-2.289-3.78-4.152-4.84" fill="#fff"/><path d="M177.065 135.67a.5.5 0 0 1 .681-.189c1.015.577 1.793 1.403 2.464 2.286a31.93 31.93 0 0 1 1.195 1.725c.223.337.442.669.658.979l.001.002c2.73 3.96 6.972 4.987 9.08 5.312l.011-.003a.916.916 0 0 0-.133-.257 1.034 1.034 0 0 0-.178-.202l-.005-.004c-.146-.122-.377-.265-.687-.437-.169-.095-.329-.18-.498-.271-.161-.086-.33-.177-.523-.283-.711-.392-1.524-.882-2.034-1.492-.346-.409-.633-.921-.707-1.456-.074-.533.068-1.081.536-1.498l1.092-2.035a.499.499 0 0 1 .501-.26l-.061.497.061-.497.037.004.111.013.425.049c.367.041.895.098 1.536.16 1.281.126 3.01.275 4.805.37 1.797.096 3.647.137 5.174.048.764-.044 1.435-.12 1.972-.233.552-.116.898-.26 1.072-.399a.918.918 0 0 0 .114-.11l.022-.028a1.282 1.282 0 0 0-.217-.015h-.013c-2.067-.055-4.402-.103-6.74-.15h-.001c-2.336-.048-4.674-.095-6.745-.151a.5.5 0 0 1 .027-1.001c2.067.055 4.402.103 6.739.15h.002c2.333.048 4.669.095 6.738.15.14.001.327.009.512.059.189.051.423.159.585.392.231.329.174.683.059.928a1.675 1.675 0 0 1-.453.555l-.003.002c-.363.292-.904.474-1.492.598-.605.128-1.33.208-2.12.253-1.582.092-3.474.049-5.285-.048a111.756 111.756 0 0 1-6.399-.535l-.243-.027-.976 1.82a.512.512 0 0 1-.13.155c-.223.177-.288.387-.252.646.04.287.211.629.481.947l.002.003c.374.449 1.029.86 1.75 1.259l.499.27c.188.101.374.201.526.285.31.173.613.354.838.54.125.102.255.247.365.403.11.158.221.358.28.576.058.215.08.514-.091.791-.174.282-.472.419-.789.472a.51.51 0 0 1-.156.001c-2.155-.322-6.833-1.379-9.843-5.746a48.06 48.06 0 0 1-.703-1.047c-.367-.555-.724-1.097-1.124-1.622-.631-.83-1.313-1.539-2.162-2.022a.5.5 0 0 1-.188-.682Zm26.806 1.816-.001-.001.001.001Z" fill="#0C296E"/><path d="M184.909 139.761c2.558.933 5.164 1.076 7.501-.332 0 0 5.29.538 7.564.775.41.048.837.079 1.231-.047.395-.127.758-.427.837-.839l-.095-.427-.442-.063.442.063a102.375 102.375 0 0 1-20.512-4.84l-3.426 1.613" fill="#fff"/><path d="M181.223 133.596a.505.505 0 0 1 .376-.02 101.935 101.935 0 0 0 19.9 4.75c.025 0 .051.001.077.005l.442.063a.499.499 0 0 1 .42.399l.092.416a.496.496 0 0 1 .003.203c-.125.652-.675 1.06-1.175 1.221-.507.162-1.03.115-1.439.068-1.136-.119-3.025-.312-4.631-.476l-2.067-.211-.699-.071c-2.473 1.42-5.193 1.233-7.784.288a.5.5 0 0 1 .342-.942c2.475.903 4.91 1.013 7.072-.29a.498.498 0 0 1 .308-.069l-.05.498.05-.498.863.087 2.067.211c1.606.164 3.498.358 4.636.477h.005c.412.048.74.064 1.022-.026.225-.073.382-.206.456-.341a102.871 102.871 0 0 1-20.045-4.749l-3.242 1.527a.5.5 0 0 1-.426-.906l3.427-1.614Z" fill="#0C296E"/><path d="M121.565 80.619c-11.771-2.205-24.3-.055-34.67 5.95a.5.5 0 0 0-.039.842l18.762 13.343a.496.496 0 0 0 .352.089c4.135-.521 8.242.719 12.384 1.969l1.253.377c2.315.689 5.26 1.076 8.184 1.095 2.829.018 5.677-.307 7.942-1.061 4.421 2.635 8.759 5.709 12.297 8.908 5.913 5.344 20.025 16.868 26.468 22.129 1.264 1.032 2.233 1.824 2.787 2.28.146.12.347.148.52.071l4.504-2a.5.5 0 0 0 .095-.86c-9.012-6.663-16.682-15.299-23.439-23.553a698.697 698.697 0 0 1-5.088-6.314c-4.615-5.773-8.809-11.02-12.718-14.763l-.634-3.751a.5.5 0 0 0-.381-.405 298.237 298.237 0 0 1-7.389-1.809c-3.481-.887-6.547-1.669-11.19-2.537Z" fill="#14C0FF"/><path d="M124.205 96.183a.5.5 0 0 1 .685-.176l5.632 3.34.005.003 5.637 3.342a.501.501 0 0 1-.51.862l-5.628-3.337-.009-.005-5.637-3.343a.501.501 0 0 1-.175-.686Zm-19.246-15.845c8.082-1.08 16.916-.895 24.084 1.04a.5.5 0 0 1-.26.966c-7.006-1.89-15.7-2.082-23.692-1.013-8.005 1.07-15.215 3.393-19.294 6.456a.5.5 0 1 1-.6-.802c4.282-3.215 11.693-5.568 19.762-6.647ZM83.222 91.06a.5.5 0 0 1 .122.697c-1.523 2.175-2.658 4.96-3.182 7.819-.524 2.86-.429 5.755.467 8.162.897 2.411 2.958 5.038 5.387 7.451a50.893 50.893 0 0 0 7.359 6.013.501.501 0 0 1-.553.835 51.928 51.928 0 0 1-7.51-6.136c-2.46-2.445-4.646-5.196-5.62-7.814-.975-2.62-1.06-5.707-.514-8.692.548-2.987 1.735-5.91 3.347-8.213a.5.5 0 0 1 .697-.122ZM28.256 232.869a.542.542 0 0 1 .375-.154c11.883 0 23.117 2.642 31.37 5.279a120.2 120.2 0 0 1 9.875 3.628c1.18.495 2.1.908 2.728 1.197.314.145.554.259.717.337l.184.089.048.024.012.006.004.002-.248.443.248-.443a.46.46 0 0 1 .258.416v10.591a.521.521 0 0 1-.227.423.528.528 0 0 1-.478.067l.199-.464-.199.464-.018-.007-.055-.02-.221-.078a151.149 151.149 0 0 0-4.067-1.355 187.366 187.366 0 0 0-10.998-3.124c-8.852-2.221-19.967-4.275-29.151-3.669a.489.489 0 0 1-.363-.123.463.463 0 0 1-.151-.344v-12.819c0-.135.057-.268.158-.366Zm44.558 20.728v-9.56a82.946 82.946 0 0 0-3.379-1.504 118.886 118.886 0 0 0-9.794-3.598c-8.074-2.58-18.986-5.153-30.53-5.23v11.799c9.247-.509 20.242 1.542 28.952 3.728a187.999 187.999 0 0 1 11.057 3.141c1.376.437 2.474.805 3.23 1.063l.464.161Z" fill="#0C296E"/><defs><filter id="udt9fkipqsga" x="164.731" y="280.588" width="59.24" height="59.308" filterUnits="userSpaceOnUse" color-interpolation-filters="sRGB"><feFlood flood-opacity="0" result="BackgroundImageFix"/><feBlend in="SourceGraphic" in2="BackgroundImageFix" result="shape"/><feGaussianBlur stdDeviation="5.109" result="effect1_foregroundBlur"/></filter><filter id="udtyw2qg6m7b" x="40.872" y="240.996" width="34.289" height="15.424" filterUnits="userSpaceOnUse" color-interpolation-filters="sRGB"><feFlood flood-opacity="0" result="BackgroundImageFix"/><feBlend in="SourceGraphic" in2="BackgroundImageFix" result="shape"/><feGaussianBlur stdDeviation="1" result="effect1_foregroundBlur"/></filter></defs></svg>