<svg width="150" height="128" viewBox="0 0 150 128" fill="none" xmlns="http://www.w3.org/2000/svg"><path d="M0 8a8 8 0 0 1 8-8h134a8 8 0 0 1 8 8v112a8 8 0 0 1-8 8H8a8 8 0 0 1-8-8V8Z" fill="#292929"/><path d="M15.117 14.352c-1.12 0-2.032.304-2.736.944-.752.64-1.168 1.52-1.264 2.656h1.712c.064-.704.304-1.232.688-1.584.384-.352.928-.528 1.616-.528.672 0 1.2.144 1.552.464.32.304.496.736.496 1.312 0 .576-.192 1.024-.544 1.328-.352.304-.88.464-1.584.464h-.816v1.312h.832c.752 0 1.328.16 1.712.48.416.32.624.816.624 1.488a1.93 1.93 0 0 1-.592 1.424c-.448.416-1.04.64-1.776.64-.672 0-1.216-.192-1.632-.576-.48-.416-.72-1.008-.752-1.776h-1.76c.096 1.28.544 2.256 1.344 2.928.704.592 1.648.896 2.816.896 1.216 0 2.224-.352 2.992-1.024.72-.672 1.088-1.536 1.088-2.592 0-.672-.192-1.232-.576-1.664-.352-.416-.864-.736-1.536-.944 1.248-.416 1.888-1.264 1.888-2.512 0-.976-.352-1.744-1.024-2.304-.704-.56-1.616-.832-2.768-.832Z" fill="#E0E0E0"/><path d="M91.797 51.608c2.666 1.54 2.665 5.389-.001 6.928L67.938 72.31c-2.666 1.54-6-.384-6-3.462l-.01-27.565c0-3.08 3.335-5.005 6.002-3.464l23.867 13.79Z" fill="#4C88FF"/><path d="M28.56 26.26a4.5 4.5 0 0 1 4.5-4.5h83.547a4.5 4.5 0 0 1 4.5 4.5v29.402a.5.5 0 0 1-1 0V26.261a3.5 3.5 0 0 0-3.5-3.5l-83.546-.001a3.5 3.5 0 0 0-3.5 3.5v55a3.5 3.5 0 0 0 3.5 3.5h57.4a.5.5 0 1 1 0 1h-57.4a4.5 4.5 0 0 1-4.5-4.5v-55Z" fill="#E0E0E0"/><path d="M46.422 32.713a3.5 3.5 0 1 1 7 0 3.5 3.5 0 0 1-7 0Zm3.5-2.5a2.5 2.5 0 1 0 0 5 2.5 2.5 0 0 0 0-5Zm-13.5 2.5a3.5 3.5 0 1 1 7 0 3.5 3.5 0 0 1-7 0Zm3.5-2.5a2.5 2.5 0 1 0 0 5 2.5 2.5 0 0 0 0-5Z" fill="#E0E0E0"/><path d="m129.488 89.011-.021 7.107c.007-2.426-8.763-6.123-10.967-6.118l2-7c1.798.239 8.988 2.447 8.988 6.011Z" fill="#fff" fill-opacity=".4"/><path d="M81 107.392v-7.798c14.233-4.509 30.991.027 39.196-1.252 7.248-1.13 9.329-4.513 9.329-9.502v9.647c0 2.997-.994 6.154-8.56 7.623-7.566 1.469-25.99-3.541-39.965 1.282Z" fill="#4C88FF"/><path d="M52.554 92.08v-8.472c-12.747-.407-24.138-7.392-31.45-14.705v9.866c3.803 3.857 17.104 12.713 31.45 13.31Z" fill="#FAC823"/><path d="M29.463 98.013V89.76c8.763 8.253 27.514 12.847 43.461 10.709v7.586c-17.744 2.118-35.44-2.17-43.461-10.042Z" fill="#41CCB9"/><path d="M85.759 65.525a2.31 2.31 0 0 1 1.216-.149h.004c.851.14 1.93.552 2.675 1.175a695.37 695.37 0 0 0 2.087 1.734c2.386 1.976 3.758 3.112 6.722 5.865a.5.5 0 0 1-.68.733c-2.942-2.733-4.294-3.852-6.675-5.824a690.91 690.91 0 0 1-2.095-1.74l-.001-.001c-.576-.483-1.476-.837-2.192-.954a1.312 1.312 0 0 0-.683.087.41.41 0 0 0-.226.188.683.683 0 0 0-.06.354c.015.331.175.75.416 1.111l16.107 24.171c.33.496.558 1.052.672 1.636l1.945 9.993a.5.5 0 1 1-.982.192l-1.945-9.994a3.503 3.503 0 0 0-.522-1.272L85.434 68.659c-.306-.46-.555-1.052-.582-1.619a1.672 1.672 0 0 1 .177-.871c.152-.287.399-.509.73-.644Z" fill="#E0E0E0"/><path d="M98.412 35.938c-.326.914-.395 1.932-.406 2.173a1.738 1.738 0 0 0-.002.087c.001 5.395.155 12.331.31 19.275v.03c.155 6.95.309 13.906.309 19.313a.5.5 0 1 1-1 0c0-5.393-.154-12.336-.309-19.29v-.04c-.155-6.937-.309-13.881-.31-19.288 0-.042 0-.086.003-.135.012-.265.085-1.404.463-2.462.189-.527.468-1.078.89-1.485a2.126 2.126 0 0 1 1.755-.602h.004c1.068.122 1.569 1.037 1.851 1.965.224.738.36 1.652.494 2.558.038.253.075.504.114.751l.001.001c.188 1.21.849 7.41 1.462 13.283.306 2.943.601 5.81.82 7.942l.262 2.564.098.964-.498.051-.497.05-.098-.964-.262-2.563a3954.08 3954.08 0 0 0-.82-7.94c-.614-5.893-1.272-12.054-1.455-13.232a72.06 72.06 0 0 1-.124-.811c-.133-.892-.253-1.703-.454-2.364-.265-.87-.588-1.212-1.005-1.261a1.127 1.127 0 0 0-.954.328c-.266.256-.479.644-.642 1.102Zm6.362 28.153a.5.5 0 0 1-.548-.447l.497-.05.498-.051a.5.5 0 0 1-.447.548Z" fill="#E0E0E0"/><path d="m105.344 59.261-.589.038a.5.5 0 0 1-.064-.998l.629-.04c3.186-.208 6.623-.43 9.664.25 3.286.736 6.137 2.533 7.776 6.485.533 1.284.65 2.953.522 4.824-.13 1.882-.512 4.021-1.024 6.278-.625 2.752-1.455 5.724-2.269 8.64a288.084 288.084 0 0 0-1.472 5.402 3.412 3.412 0 0 0 .109 2.04l4.843 13.148a.5.5 0 1 1-.938.345l-4.844-13.148a4.423 4.423 0 0 1-.139-2.635c.459-1.774.973-3.615 1.49-5.466.808-2.892 1.623-5.81 2.245-8.547.507-2.236.877-4.318 1.001-6.125.125-1.817-.003-3.302-.447-4.373-1.495-3.603-4.047-5.215-7.072-5.892-2.894-.648-6.194-.435-9.421-.226Z" fill="#E0E0E0"/><path d="M110.603 58.324a.497.497 0 0 1 .537.457l.332 4.272a.503.503 0 0 1-.459.54.497.497 0 0 1-.537-.458l-.333-4.271a.504.504 0 0 1 .46-.54Zm5.902.758a.5.5 0 0 1 .487.512 27.134 27.134 0 0 1-.162 2.326c-.057.573-.114 1.15-.151 1.884a.5.5 0 1 1-.999-.05c.038-.76.098-1.36.155-1.932l.019-.19c.062-.63.119-1.25.139-2.062a.5.5 0 0 1 .512-.488Z" fill="#E0E0E0"/></svg>