<svg width="250" height="250" viewBox="0 0 250 250" fill="none" xmlns="http://www.w3.org/2000/svg"><g filter="url(#udo8dd8h5nqa)"><path d="M73.409 104.274c7.724 0 13.985-6.262 13.985-13.986 0-7.723-6.261-13.985-13.985-13.985-7.724 0-13.985 6.262-13.985 13.985 0 7.724 6.261 13.986 13.985 13.986Z" fill="#FAC823"/></g><path d="M159.985 103.846H80.472v10.356h79.513v-10.356Z" fill="#fff" fill-opacity=".3"/><path d="M159.985 89.505h66.509v124.803a20.206 20.206 0 0 0-3.161-.248c-3.676 0-7.115.998-10.079 2.727-3.528-11.778-14.446-20.365-27.371-20.365-11.458 0-21.343 6.747-25.898 16.485V89.505Z" fill="#42BDEB"/><path d="M216.228 89.503h10.305v10.03l-10.305-10.03Z" fill="#E0E0E0"/><path d="M181.526 185.009h24.89c8.626 0 8.626-6.373 8.626-14.238V46.144a5.714 5.714 0 0 0-5.714-5.714h-88.795a5.714 5.714 0 0 0-5.714 5.714v114.005" fill="#373737"/><path d="M114.461 46.144V160.15a.357.357 0 0 0 .715 0V46.144a5.357 5.357 0 0 1 5.357-5.357h88.795a5.357 5.357 0 0 1 5.357 5.357v124.627c0 1.97 0 3.828-.134 5.515-.133 1.687-.399 3.178-.917 4.416-.515 1.23-1.277 2.207-2.413 2.882-1.142.678-2.69 1.068-4.805 1.068h-24.89a.358.358 0 1 0 0 .715h24.89c2.198 0 3.885-.406 5.169-1.169 1.29-.766 2.145-1.874 2.708-3.22.561-1.339.834-2.916.97-4.636.136-1.717.136-3.602.136-5.562V46.144a6.071 6.071 0 0 0-6.071-6.071h-88.795a6.072 6.072 0 0 0-6.072 6.071Z" fill="#E0E0E0"/><path d="M201.656 61h-73.799A2.857 2.857 0 0 0 125 63.857v37.456a2.857 2.857 0 0 0 2.857 2.857h73.799a2.857 2.857 0 0 0 2.857-2.857V63.857A2.857 2.857 0 0 0 201.656 61Z" fill="#FAC823"/><path d="M63.609 52.942v8.346h-9.255c-18.462 0-33.43 14.967-33.43 33.428 0 .198.16.358.358.358h56.322a.357.357 0 1 0 0-.715H21.641c.192-17.902 14.765-32.357 32.713-32.357h9.612c.197 0 .357-.16.357-.357v-8.703c0-18.067 14.648-32.715 32.715-32.715a.357.357 0 0 0 0-.714c-18.462 0-33.43 14.968-33.43 33.429ZM6.086 214.505c0-.198.16-.358.358-.358h87.939v.358-.358c.197 0 .358.16.358.358v20.472h154.353a.357.357 0 0 1 0 .714H94.384a.357.357 0 0 1-.357-.357v-20.472H6.444a.357.357 0 0 1-.358-.357Z" fill="#E0E0E0"/><mask id="udovpc6pjg5b" style="mask-type:alpha" maskUnits="userSpaceOnUse" x="157" y="196" width="70" height="30"><path opacity=".8" fill-rule="evenodd" clip-rule="evenodd" d="M226.473 214.022a20.214 20.214 0 0 0-3.093-.237 19.93 19.93 0 0 0-10.078 2.727c-3.528-11.778-14.447-20.365-27.371-20.365-15.721 0-28.481 12.701-28.576 28.399v.681h69.118v-11.205Z" fill="#14C0FF"/></mask><g mask="url(#udovpc6pjg5b)"><path d="M223.379 213.785a19.93 19.93 0 0 0-10.078 2.727c-3.528-11.778-14.447-20.365-27.371-20.365-15.78 0-28.576 12.796-28.576 28.576v10.464h86.005v-1.403c.02-11.047-8.933-19.999-19.98-19.999Z" fill="#42BDEB"/></g><path d="M190.361 160.078a9.01 9.01 0 0 0-9.013 9.013V185c0 .197.16.357.357.357h25.542c.141.006.283.01.426.01.197 0 .357-.16.357-.358V185a.357.357 0 0 0-.357-.358h-.409a8.295 8.295 0 0 1-7.89-8.288v-7.263a9.01 9.01 0 0 0-9.013-9.013Z" fill="#E0E0E0"/><path d="M93.633 174.476v60.858h63.674V224.88c0-14.299 10.506-26.147 24.218-28.246v-24.727c0-7.114 2.945-11.462 8.656-11.462h-82.517c-7.746 0-14.03 6.285-14.03 14.031Z" fill="#373737"/><path d="M93.276 174.476c0-7.944 6.445-14.388 14.389-14.388h82.516a.357.357 0 1 1 0 .714c-2.753 0-4.805 1.042-6.181 2.917-1.389 1.893-2.117 4.672-2.117 8.188v24.727a.358.358 0 0 1-.303.353c-13.541 2.072-23.915 13.773-23.915 27.892v10.455c0 .197-.16.357-.358.357H93.634a.357.357 0 0 1-.358-.357v-60.858Zm93.231-13.674h-78.842c-7.55 0-13.674 6.125-13.674 13.674v60.5h62.959v-10.097c0-14.371 10.483-26.298 24.218-28.55v-24.422c0-3.599.744-6.55 2.256-8.61.816-1.112 1.847-1.953 3.083-2.495Z" fill="#E0E0E0"/><path d="M168.066 178.546h-61.882a2.858 2.858 0 0 0-2.857 2.858v15.175a2.857 2.857 0 0 0 2.857 2.857h61.882a2.857 2.857 0 0 0 2.857-2.857v-15.175a2.858 2.858 0 0 0-2.857-2.858Z" fill="#fff" fill-opacity=".3"/><path d="M156.95 224.879v10.464c0 .197.16.357.357.357h86.005c.197 0 .357-.16.357-.357v-1.402c.02-11.245-9.093-20.358-20.337-20.358a20.28 20.28 0 0 0-9.868 2.554c-3.706-11.704-14.652-20.191-27.581-20.191-15.977 0-28.933 12.956-28.933 28.933Zm28.933-28.219c12.762 0 23.545 8.479 27.028 20.11a.358.358 0 0 0 .522.206 19.582 19.582 0 0 1 9.899-2.678c10.85 0 19.642 8.793 19.622 19.642v1.046h-85.29v-10.107c0-15.583 12.636-28.219 28.219-28.219Zm-60.74-82.508c0-.197.16-.357.357-.357h56.625a.357.357 0 0 1 0 .714H125.5a.357.357 0 0 1-.357-.357Zm0 8.28c0-.197.16-.357.357-.357h39.766a.357.357 0 0 1 0 .714H125.5a.357.357 0 0 1-.357-.357Zm60.955-70.265a1.429 1.429 0 1 0 0-2.858 1.429 1.429 0 0 0 0 2.858Zm2.143-1.429a2.143 2.143 0 1 1-4.285 0 2.143 2.143 0 0 1 4.285 0Zm4.999 1.428a1.429 1.429 0 1 0 0-2.857 1.429 1.429 0 0 0 0 2.857Zm2.143-1.428a2.143 2.143 0 1 1-4.285 0 2.143 2.143 0 0 1 4.285 0Zm7.142 0a2.143 2.143 0 1 1-4.285 0 2.143 2.143 0 0 1 4.285 0Z" fill="#E0E0E0"/><path d="M133.834 142.085h-6.058v6.059h6.058v-6.059Zm-11.106 0H91.336v6.059h31.392v-6.059Z" fill="#42BDEB"/><path d="M171.978 73.226a5.5 5.5 0 0 0-7.735.813l-2.832 3.497a5.5 5.5 0 0 0 .813 7.736c.063.05.128.106.196.163.168.144.348.297.538.419.447.285.962.101 1.226-.225l.593-.732c.245-.303.262-.67.182-.963a1.345 1.345 0 0 0-.515-.736 6.73 6.73 0 0 1-.332-.258 2.5 2.5 0 0 1-.37-3.516l2.832-3.497a2.5 2.5 0 0 1 3.886 3.146l-1.274 1.636c-.27.346-.264.794-.088 1.131.169.324.281.686.322 1.073.079.746 1.023 1.02 1.488.431l1.885-2.385a5.5 5.5 0 0 0-.815-7.733Z" fill="#EBEBEB"/><path d="M165.83 79.019a.969.969 0 0 0-1.192.264l-.593.732c-.242.3-.266.667-.174.966.09.294.301.56.595.71a2.5 2.5 0 0 1 .809 3.802l-2.832 3.498a2.5 2.5 0 0 1-3.886-3.147l1.186-1.545c.266-.346.258-.79.083-1.125a2.967 2.967 0 0 1-.323-1.075c-.079-.746-1.024-1.018-1.487-.428l-1.793 2.288a5.5 5.5 0 0 0 8.551 6.92l2.832-3.498a5.5 5.5 0 0 0-1.776-8.362Z" fill="#EBEBEB"/><g clip-path="url(#udkhqcvgzc5c)"><path d="M19.93 214.401c-1.157 1.651-4.719 6.766-5.596 7.358-.442.279-.923.526-1.254.929-.748.923-.494 1.423.253 2.346.748.923 2.203 1.723 3.094 2.509 1.033.916 4.107 3.204 4.666 3.815.871.955 3.1 2.652 3.1 2.652.754-.793.572-1.775-.403-2.925-2.125-3.165-2.807-2.847-3.243-5.635-.344-2.223-.396-3.886.52-5.726l2.19-2.489" fill="#EBEBEB"/><path d="M19.93 214.401c-1.157 1.651-4.719 6.766-5.596 7.358-.442.279-.923.526-1.254.929-.748.923-.494 1.423.253 2.346.748.923 2.203 1.723 3.094 2.509 1.033.916 4.107 3.204 4.666 3.815.871.955 3.1 2.652 3.1 2.652.754-.793.572-1.775-.403-2.925-2.125-3.165-2.807-2.847-3.243-5.635-.344-2.223-.396-3.886.52-5.726l2.19-2.489" stroke="#2851A3" stroke-width=".65" stroke-linecap="round" stroke-linejoin="round"/><path d="M74.063 220.595c.208 2.918.175 3.497.383 6.415.033.474.8 2.951 1.385 3.341 2.879 1.936 5.362 3.587 6.863 4.101 1.755.604 2.32 1.527 2.548 2.086l-14.305.039c-.709.098-1.313-.604-1.352-1.28-.046-.676.494-6.532.364-7.169-.663-3.172-.637-3.841-1.3-7.013l5.414-.52Z" fill="#EBEBEB" stroke="#2851A3" stroke-width=".65" stroke-linecap="round" stroke-linejoin="round"/><path d="m53.508 168.883 10.451 20.726c.969 11.166 2.243 33.107 2.243 33.107l7.935-.974s.884-24.048-.299-33.725c-.331-2.704-8.093-28.658-10.498-36.607-.877-2.911-2.795-8.39-4.127-11.12l-13.395.059c-3.198 4.14-4.38 5.288-5.537 9.98-2.164 7.585.86 38.728.86 38.728-7.221 4.634-13.454 13.115-22.39 25.444l4.997 4.212 24.964-24.652c.403-.643 1.02-1.514 1.274-2.229.22-.605.5-2.236.637-2.866.955-6.376 3.444-26.362 4.51-35.058" fill="#4C88FF"/><path d="m53.508 168.883 10.451 20.726c.969 11.166 2.243 33.107 2.243 33.107l7.935-.974s.884-24.048-.299-33.725c-.331-2.704-8.093-28.658-10.498-36.607-.877-2.911-2.795-8.39-4.127-11.12l-13.395.059c-3.198 4.14-4.38 5.288-5.537 9.98-2.164 7.585.86 38.728.86 38.728-7.221 4.634-13.454 13.115-22.39 25.444l4.997 4.212 24.964-24.652c.403-.643 1.02-1.514 1.274-2.229.22-.605.5-2.236.637-2.866.955-6.376 3.444-26.362 4.51-35.058" stroke="#4C88FF" stroke-width=".65" stroke-linecap="round" stroke-linejoin="round"/><path d="M85.482 110.192c.357-.403.734-.832 1.15-1.287 2.093-2.321 3.62-4.361 3.906-4.101.351.325.072 1.3-1.358 3.184-.87 1.157-1.358 1.859-1.358 1.859 1.442 1.105 2.157 1.709 2.248 2.912.085 1.287-.376 1.703-1.611 2.704-1.125.909-3.672 1.884-3.672 1.884-1.69 1.931-7.527 16.593-9.405 19.758-2.216 3.731-5.362 3.113-7.247.397-1.878-2.717-7.11-10.36-7.11-10.36l6.025-3.399 4.543 8.377s10.06-15.059 10.464-16.32c0 0 2.444-5.426 2.47-5.446.078-.058 2.528-.058 3.659-.058.084.019.169.026.214.078.065.084.013.201-.052.286-.546.773-1.573.974-2.502 1.111a3.882 3.882 0 0 1-.8 2.249" fill="#EBEBEB"/><path d="M85.482 110.192c.357-.403.734-.832 1.15-1.287 2.093-2.321 3.62-4.361 3.906-4.101.351.325.072 1.3-1.358 3.184-.87 1.157-1.358 1.859-1.358 1.859 1.442 1.105 2.157 1.709 2.248 2.912.085 1.287-.376 1.703-1.611 2.704-1.125.909-3.672 1.884-3.672 1.884-1.69 1.931-7.527 16.593-9.405 19.758-2.216 3.731-5.362 3.113-7.247.397-1.878-2.717-7.11-10.36-7.11-10.36l6.025-3.399 4.543 8.377s10.06-15.059 10.464-16.32c0 0 2.444-5.426 2.47-5.446.078-.058 2.528-.058 3.659-.058.084.019.169.026.214.078.065.084.013.201-.052.286-.546.773-1.573.974-2.502 1.111a3.882 3.882 0 0 1-.8 2.249" stroke="#2851A3" stroke-width=".65" stroke-linecap="round" stroke-linejoin="round"/><path d="M89.278 114.786c-1.08.143-2.255-.337-2.327-1.39-.032-.416-.045-.956.26-1.827" stroke="#2851A3" stroke-width=".65" stroke-linecap="round" stroke-linejoin="round"/><path d="M89.278 111.082c-.728.897-.943 1.267-2.093 2.678m2.795-1.157a77.984 77.984 0 0 0-1.918 1.943M71.359 132.29l-.728 1.078" stroke="#2851A3" stroke-width=".65" stroke-linecap="round" stroke-linejoin="round"/><path d="M51.68 92.325c3.736 0 6.797 3.055 6.797 6.785v9.866H44.876v-9.865c.006-3.731 3.06-6.786 6.804-6.786Z" fill="#2851A3" stroke="#2851A3" stroke-width=".65" stroke-linejoin="round"/><path d="M46.967 112.616c.41-.351 1.157-1.112 1.157-4.855L55 103.276c-.123 5.629-.5 8.391.722 9.346.28.215.247.228 1.267.605l1.079 1.326-2.808 3.269-6.766-.566-1.683-2.833-.656-1.58.812-.227Z" fill="#EBEBEB" stroke="#2851A3" stroke-width=".65" stroke-linecap="round" stroke-linejoin="round"/><path d="M51.244 94.21s.006 0 0 0h.013c3.113 0 5.64 2.424 5.64 5.42s-.72 3.64-2.19 3.64l-3.45 1.78h-.007c-5.641 0-5.615-2.17-5.615-5.16-.007-2.996 2.495-5.68 5.609-5.68Z" fill="#EBEBEB" stroke="#2851A3" stroke-width=".65" stroke-linecap="round" stroke-linejoin="round"/><path d="M45.674 99.136c-.254 1.814-.332 3.939.078 5.596.48 1.943 1.859 3.224 3.932 3.438 1.215.124 2.476-.331 3.386-1.137.91-.806 1.807-1.885 1.937-3.763" fill="#EBEBEB"/><path d="M45.674 99.136c-.254 1.814-.332 3.939.078 5.596.48 1.943 1.859 3.224 3.932 3.438 1.215.124 2.476-.331 3.386-1.137.91-.806 1.807-1.885 1.937-3.763" stroke="#2851A3" stroke-width=".65" stroke-linecap="round" stroke-linejoin="round"/><path d="M45.674 99.136c-.254 1.814-.332 3.939.078 5.596.48 1.943 1.859 3.224 3.932 3.438 1.215.124 2.476-.331 3.386-1.137.91-.806 1.807-1.885 1.937-3.763" stroke="#2851A3" stroke-width=".65" stroke-linecap="round" stroke-linejoin="round"/><path d="m47.604 100.742-.695 2.32a.123.123 0 0 0 .143.156l.5-.104" fill="#EBEBEB"/><path d="m47.604 100.742-.695 2.32a.123.123 0 0 0 .143.156l.5-.104" stroke="#2851A3" stroke-width=".65" stroke-linecap="round" stroke-linejoin="round"/><path d="m47.604 100.742-.695 2.32a.123.123 0 0 0 .143.156l.5-.104" stroke="#2851A3" stroke-width=".65" stroke-linecap="round" stroke-linejoin="round"/><path d="m48.358 94.21 6.915-.182 2.379 5.641-2.047 4.465-.897-4.465h-2.184l-.572-2.73-.435 2.73h-6.33v-1.56c-.007-1.663 1.507-3.9 3.17-3.9Z" fill="#2851A3" stroke="#2851A3" stroke-width=".65" stroke-linejoin="round"/><path d="M53.72 94.794h1.293v15.04H53.72v-15.04Z" fill="#2851A3" stroke="#2851A3" stroke-width=".65" stroke-linejoin="round"/><path d="M54.701 103.27c.397-.02 1.02-.156 1.359-.371.416-.266.747-.74.819-1.241.045-.312 0-1.482-1.125-1.482-.455 0-.858.39-1.046.546" fill="#EBEBEB"/><path d="M54.701 103.27c.397-.02 1.02-.156 1.359-.371.416-.266.747-.74.819-1.241.045-.312 0-1.482-1.125-1.482-.455 0-.858.39-1.046.546" stroke="#2851A3" stroke-width=".65" stroke-linecap="round" stroke-linejoin="round"/><path d="M54.701 103.27c.397-.02 1.02-.156 1.359-.371.416-.266.747-.74.819-1.241.045-.312 0-1.482-1.125-1.482-.455 0-.858.39-1.046.546" stroke="#2851A3" stroke-width=".65" stroke-linecap="round" stroke-linejoin="round"/><path d="M41.722 115.027c2.243-.923 1.879-.734 4.92-2.444l.072.007c.455.526 3.009 3.321 5.999 3.978 2.742.604 4.016-.215 4.387-1.924.175-.813.117-1.287.013-1.469 1.404.5 4.185 1.144 5.59 2.171 2.19 1.605 5.25 8.527 5.25 8.527l-5.25 3.899-.365-1.663-3.327 13.902-13.396.058-4.458-15.559" fill="#FAC823"/><path d="M41.722 115.027c2.243-.923 1.879-.734 4.92-2.444l.072.007c.455.526 3.009 3.321 5.999 3.978 2.742.604 4.016-.215 4.387-1.924.175-.813.117-1.287.013-1.469 1.404.5 4.185 1.144 5.59 2.171 2.19 1.605 5.25 8.527 5.25 8.527l-5.25 3.899-.365-1.663-3.327 13.902-13.396.058-4.458-15.559" stroke="#FAC823" stroke-width=".65" stroke-linecap="round" stroke-linejoin="round"/><path d="M68.921 227.556h7.5l.176 3.789s5.544 1.489 7.312 3.029a3.977 3.977 0 0 1 1.326 2.307.377.377 0 0 1-.364.442l-15.488-.11a.407.407 0 0 1-.416-.429l-.046-9.028Zm-51.968-10.984 5.902 4.628-2.197 3.087s3.438 4.595 3.887 6.896a3.966 3.966 0 0 1-.384 2.632.377.377 0 0 1-.559.123l-12.121-9.645a.41.41 0 0 1-.065-.591l5.537-7.13Z" fill="#2851A3" stroke="#2851A3" stroke-width=".65" stroke-linejoin="round"/><path d="M54.845 151.924c-.403 8.599-1.046 14.507-2.093 22.741m7.89 6.506 5.537 6.434" stroke="#2851A3" stroke-width=".65" stroke-linecap="round" stroke-linejoin="round"/><path d="M64.424 126.602c.598-.279 1.105-.864 1-1.221-.064-.176-.324-.137-.48-.046-1.501.825-4.199 1.943-5.785 2.587" fill="#EBEBEB"/><path d="M64.424 126.602c.598-.279 1.105-.864 1-1.221-.064-.176-.324-.137-.48-.046-1.501.825-4.199 1.943-5.785 2.587" stroke="#2851A3" stroke-width=".65" stroke-linecap="round" stroke-linejoin="round"/><path d="m42.014 127.551-1.332 8.527s10.867-4.432 14.63-6.603c2.47-1.424 6.207-2.314 9.281-2.814 2.015-.332.52 3.789-.533 4.413-.962.565-2.138.604-3.25.637-.87.019-2.41-.091-3.282-.065-1.3.045-9.02 6.726-14.636 9.566-2.75 1.385-6.603 2.483-7.474-.084-.787-2.314-.117-13.499-.117-13.499l6.713-.078Z" fill="#EBEBEB" stroke="#2851A3" stroke-width=".65" stroke-linecap="round" stroke-linejoin="round"/><path d="M65.23 128.052c-.247.039-.494.071-.74.11m.356 1.202c-.377.026-.747.039-1.072-.006m-23.091 6.72-2.607 1.196" stroke="#2851A3" stroke-width=".65" stroke-linecap="round" stroke-linejoin="round"/><path d="m42.6 124.295-.579 4.257-7.084-.312s0-5.394.721-8.13c.306-.988.813-3.14 6.064-5.076" fill="#FAC823"/><path d="m42.6 124.295-.579 4.257-7.084-.312s0-5.394.721-8.13c.306-.988.813-3.14 6.064-5.076" stroke="#FAC823" stroke-width=".65" stroke-linecap="round" stroke-linejoin="round"/><path d="m42.6 124.295-.579 4.257" stroke="#2851A3" stroke-width=".65" stroke-linecap="round" stroke-linejoin="round"/></g><defs><clipPath id="udkhqcvgzc5c"><path fill="#fff" transform="matrix(-1 0 0 1 91 92)" d="M0 0h80v149.367H0z"/></clipPath><filter id="udo8dd8h5nqa" x="44.424" y="61.303" width="57.97" height="57.97" filterUnits="userSpaceOnUse" color-interpolation-filters="sRGB"><feFlood flood-opacity="0" result="BackgroundImageFix"/><feBlend in="SourceGraphic" in2="BackgroundImageFix" result="shape"/><feGaussianBlur stdDeviation="7.5" result="effect1_foregroundBlur"/></filter></defs></svg>