<svg width="120" height="120" viewBox="0 0 120 120" fill="none" xmlns="http://www.w3.org/2000/svg">
  <path d="m117.604 90.294-.021 7.107c-.381-1.454-2.322-3.58-4.526-3.575l1.062-7.174c1.798.239 2.717.969 3.485 3.642Z" fill="#0C296E"/>
  <path d="M69.116 108.675v-7.798c14.233-4.509 30.991.027 39.196-1.252 7.248-1.13 9.329-4.513 9.329-9.502v9.648c0 2.996-.994 6.153-8.56 7.622-7.566 1.469-25.99-3.541-39.965 1.282Z" fill="#3370FF"/>
  <path d="M32.688 90.608v-8.472C19.94 81.73 14.858 78.172 7.546 70.86v9.866c3.803 3.857 10.794 9.285 25.14 9.883Z" fill="#FFC60A"/>
  <path d="M16.997 25.355v54a4.5 4.5 0 0 0 4.5 4.5h57.4a.5.5 0 1 0 0-1h-57.4a3.5 3.5 0 0 1-3.5-3.5v-54a3.5 3.5 0 0 1 3.5-3.5l72.546.001a3.5 3.5 0 0 1 3.5 3.5v22.402a.5.5 0 1 0 1 0V25.356a4.5 4.5 0 0 0-4.5-4.5H21.497a4.5 4.5 0 0 0-4.5 4.5Z" fill="#0C296E"/>
  <path d="M97.86 40c9.941 0 18-8.059 18-18s-8.059-18-18-18c-9.94 0-18 8.059-18 18s8.06 18 18 18Zm-1.636-25.364c0-.451.366-.818.818-.818h1.636a.82.82 0 0 1 .819.818v5.728h5.727c.452 0 .818.366.818.818v1.636a.818.818 0 0 1-.818.818h-5.727v5.728a.818.818 0 0 1-.819.818h-1.636a.818.818 0 0 1-.818-.818v-5.728h-5.727a.818.818 0 0 1-.819-.818v-1.636c0-.452.367-.818.819-.818h5.727v-5.728Z" fill="#FFC60A"/>
  <path d="M96.224 14.636c0-.451.366-.818.818-.818h1.636c.452 0 .818.367.818.819v5.727h5.728c.452 0 .818.366.818.818v1.636a.818.818 0 0 1-.818.819h-5.728v5.727a.818.818 0 0 1-.818.818h-1.636a.818.818 0 0 1-.818-.818v-5.727h-5.728a.818.818 0 0 1-.818-.819v-1.636c0-.452.367-.818.818-.818h5.728v-5.728Z" fill="#fff"/>
  <path d="M72.301 64.634c-.49.333-.884.856-.942 1.519a.5.5 0 0 0 .09.333l20.02 28.298v15.787a.5.5 0 0 0 1 0V94.625a.5.5 0 0 0-.092-.289L72.385 66.078c.067-.234.232-.449.478-.616a1.674 1.674 0 0 1 1.056-.28c.85.081 1.928.418 2.64.927v.001c.966.688 1.794 1.272 2.539 1.798 2.884 2.038 4.522 3.195 8.107 6.045a.5.5 0 1 0 .623-.783c-3.609-2.868-5.269-4.041-8.159-6.082a862.815 862.815 0 0 1-2.529-1.792c-.888-.635-2.147-1.016-3.127-1.11h-.004c-.6-.054-1.22.117-1.708.448Z" fill="#0C296E"/>
  <path d="M84.834 32.925v-.185c0-.126.006-.309.02-.527.028-.44.094-1.017.241-1.583.149-.573.37-1.092.681-1.454.296-.342.675-.55 1.21-.528.544.028.953.432 1.316 1.382.278.727.474 1.631.688 2.619.063.292.128.591.197.895.292 1.305 1.47 8.148 2.579 14.692A4874.141 4874.141 0 0 1 93.728 59.9l.18 1.07.492-.081c.494-.082.493-.084.493-.084l-.178-1.07a5606.503 5606.503 0 0 0-1.963-11.667c-1.106-6.523-2.29-13.407-2.59-14.744v-.001a80.33 80.33 0 0 1-.183-.834c-.217-1.003-.435-2.011-.743-2.817-.39-1.022-1.018-1.965-2.202-2.024h-.004a2.426 2.426 0 0 0-2.01.874c-.455.527-.727 1.214-.893 1.856a9.695 9.695 0 0 0-.271 1.769 10.646 10.646 0 0 0-.022.75v.062l.001.002.5-.016-.5.016v.014c.368 6.053 1.02 13.83 1.67 21.6l.001.006c.652 7.775 1.302 15.542 1.669 21.582a.5.5 0 0 0 .998-.06c-.367-6.053-1.019-13.831-1.67-21.601v-.005c-.651-7.772-1.302-15.535-1.669-21.573Zm9.649 28.458a.5.5 0 0 1-.576-.411l.493-.082.494-.082a.5.5 0 0 1-.411.575Z" fill="#0C296E"/>
  <path d="m94.815 55.941-.682.085a.5.5 0 1 1-.122-.993l.72-.089c3.67-.455 7.612-.944 11.155-.398 3.82.587 7.213 2.382 9.366 6.667.722 1.437 1.067 3.548 1.171 6.006.106 2.475-.03 5.364-.312 8.399-.56 6.047-1.704 12.72-2.701 17.938l.999 16.835a.5.5 0 0 1-.999.059l-1.002-16.897a.567.567 0 0 1 .008-.123c.998-5.217 2.141-11.882 2.7-17.905.279-3.011.411-5.851.308-8.263-.103-2.427-.443-4.36-1.066-5.6-1.979-3.94-5.057-5.58-8.624-6.128-3.4-.523-7.21-.052-10.92.407Z" fill="#0C296E"/>
  <path d="M100.842 54.646a.5.5 0 0 1 .565.425l.674 4.75a.5.5 0 1 1-.99.14l-.674-4.75a.5.5 0 0 1 .425-.565Zm6.86.434a.5.5 0 0 1 .518.483 29.24 29.24 0 0 1-.03 2.608 37.274 37.274 0 0 0-.047 2.118.501.501 0 0 1-1 .01 38.475 38.475 0 0 1 .057-2.384 28.42 28.42 0 0 0 .02-2.317.5.5 0 0 1 .482-.518Z" fill="#0C296E"/>
  <path d="M11.924 99.537v-8.254c8.764 8.254 30.515 12.847 46.462 10.71v7.585c-17.745 2.118-38.441-2.17-46.462-10.041Z" fill="#00D6B9"/>
  <path d="M3.9 49.81v9.78c0-2.6 2.436-9.78 5.317-9.78v-7.681c-2.526 0-5.317 4.014-5.317 7.68Z" fill="#0C296E"/>
  <path d="M3.89 50.13c0 1.3.338 2.502.998 3.645 1.537 2.663 4.82 5 9.638 7.463l-.203 9.273a32.897 32.897 0 0 0-.986-.69c-.718-.485-1.445-.942-2.16-1.392-3.812-2.396-7.287-4.581-7.287-9.65V50.13Zm.998 5.3v3.484c0 1.464.317 2.607.824 3.555.51.955 1.247 1.776 2.174 2.554.934.786 2.026 1.5 3.23 2.26l.499.314c.568.357 1.156.727 1.746 1.115l.152-6.935c-3.168-1.66-5.73-3.321-7.54-5.13a13.34 13.34 0 0 1-1.085-1.217Zm29.97-26.621a3.5 3.5 0 1 1 7 0 3.5 3.5 0 0 1-7 0Zm3.5-2.5a2.5 2.5 0 1 0 0 5 2.5 2.5 0 0 0 0-5Zm-13.5 2.5a3.5 3.5 0 1 1 7 0 3.5 3.5 0 0 1-7 0Zm3.5-2.5a2.5 2.5 0 1 0 0 5 2.5 2.5 0 0 0 0-5Z" fill="#0C296E"/>
  <path d="M56.084 55c4.312 0 8.026 3.622 8.026 8.089v3.244C64.11 67.8 62.917 69 61.46 69H49.51c-1.456 0-2.62-1.2-2.62-2.667V63.09c0-4.468 3.726-8.09 8.038-8.09h1.156Zm-8.367 1.333c.167 0 .333.008.498.022-3.517 2.419-3.741 4.67-3.741 10.25V67H41.83c-.663 0-1.331-.537-1.331-1.333V62.4c0-3.35 2.785-6.067 6.019-6.067h1.199Zm16.764 0c3.234 0 6.019 2.717 6.019 6.067v3.267c0 .777-.59 1.333-1.384 1.333h-2.59v-.395c0-5.58-.224-7.831-3.741-10.25a5.85 5.85 0 0 1 .498-.022h1.198ZM64.11 49a2.964 2.964 0 0 1 2.107.879A3 3 0 0 1 67.09 52a3.019 3.019 0 0 1-.873 2.121 2.98 2.98 0 0 1-2.107.88 2.97 2.97 0 0 1-2.108-.88 3.01 3.01 0 0 1 0-4.242A2.97 2.97 0 0 1 64.11 49Zm-17.22 0a2.965 2.965 0 0 1 2.108.879A3 3 0 0 1 49.87 52a3.017 3.017 0 0 1-.873 2.121 2.98 2.98 0 0 1-2.108.88 2.97 2.97 0 0 1-2.107-.88 3.01 3.01 0 0 1 0-4.242A2.97 2.97 0 0 1 46.89 49Zm8.61-6a4.62 4.62 0 0 1 3.278 1.367 4.683 4.683 0 0 1 1.358 3.3 4.682 4.682 0 0 1-1.358 3.3 4.62 4.62 0 0 1-3.278 1.367 4.62 4.62 0 0 1-3.278-1.367 4.682 4.682 0 0 1-1.358-3.3 4.68 4.68 0 0 1 1.358-3.3A4.62 4.62 0 0 1 55.5 43Z" fill="#00D6B9"/>
</svg>
