<svg width="120" height="120" viewBox="0 0 120 120" fill="none" xmlns="http://www.w3.org/2000/svg"><path d="M10.814 87.299V74.615C4.025 81.152.48 87.178 2.614 91.835c2.525 3.44 1.958 6.034 4.005 8.35-1.376-3.746.356-8.15 4.195-12.886Zm94.681-54.109v-9.014c3.297 0 8.494 2.705 9.174 5.96 0 6.13.135 8.794 0 10.975-1.012-3.654-5.049-8.282-9.174-7.921Z" fill="#0C296E"/><path d="M38.99 89.996c-21.475 5.673-34.285 5.514-36.854.715l3.161 8.184c2.524 4.437 14.186 5.009 33.694 0v-8.899Z" fill="#3370FF"/><path d="M99.097 48.742c15.611-8.139 15.649-14.291 15.649-19.59v10.673c0 3.936-1.06 10.218-15.649 18.433V48.74Z" fill="#00D6B9"/><path d="M74.603 87.4c-8.844 4.18-16.308 8.24-26.648 11.086v7.409c13.03-3.531 17.683-5.714 26.648-10.255V87.4Z" fill="#FFC60A"/><path d="M9.95 36.438a4.5 4.5 0 0 1 4.5-4.5h44a4.5 4.5 0 0 1 4.5 4.5v70a4.5 4.5 0 0 1-4.5 4.5h-44a4.5 4.5 0 0 1-4.5-4.5v-70Zm4.5-3.5a3.5 3.5 0 0 0-3.5 3.5v70a3.5 3.5 0 0 0 3.5 3.5h44a3.5 3.5 0 0 0 3.5-3.5v-70a3.5 3.5 0 0 0-3.5-3.5h-44Z" fill="#0C296E"/><path d="M57.323 5.025h44a3.5 3.5 0 0 1 3.5 3.5v70a3.5 3.5 0 0 1-3.5 3.5H65.177a.5.5 0 1 0 0 1h36.146a4.5 4.5 0 0 0 4.5-4.5v-70a4.5 4.5 0 0 0-4.5-4.5h-44a4.5 4.5 0 0 0-4.5 4.5v20.718a.5.5 0 1 0 1 0V8.525a3.5 3.5 0 0 1 3.5-3.5Z" fill="#0C296E"/><path d="M60.823 14.11a.5.5 0 0 1 .5-.5h36a.5.5 0 1 1 0 1h-36a.5.5 0 0 1-.5-.5ZM17.95 41.111a.5.5 0 0 1 .5-.5h36a.5.5 0 0 1 0 1h-36a.5.5 0 0 1-.5-.5Z" fill="#0C296E"/><g clip-path="url(#udrl12ix4n0a)"><path d="M97.942 99.027c-9.928 0-17.973-8.046-17.973-17.972.001-9.927 8.046-17.973 17.973-17.973 9.926 0 17.972 8.046 17.972 17.973 0 9.926-8.046 17.972-17.972 17.972Z" fill="#00D6B9"/><path d="M104.784 75.111a.79.79 0 0 1 .557.23l1.818 1.82a.78.78 0 0 1 .171.858.764.764 0 0 1-.171.256L96.543 88.892a.788.788 0 0 1-1.114 0l-6.707-6.707a.787.787 0 0 1 0-1.114l1.819-1.818a.787.787 0 0 1 1.114 0l4.33 4.329 8.243-8.24a.786.786 0 0 1 .556-.23Z" fill="#fff"/></g><path d="M92.449 44.384c0-.922-.083-1.809-.237-2.66H79.97v5.03h6.996a5.98 5.98 0 0 1-2.594 3.923v3.262h4.201c2.459-2.264 3.877-5.596 3.877-9.555Z" fill="#4285F4"/><path d="M79.97 57.089c3.51 0 6.452-1.164 8.603-3.15l-4.202-3.262c-1.164.78-2.653 1.241-4.402 1.241-3.386 0-6.252-2.287-7.274-5.36h-4.343v3.369a12.995 12.995 0 0 0 11.617 7.162Z" fill="#34A853"/><path d="M72.695 46.558a7.815 7.815 0 0 1-.408-2.47c0-.857.148-1.69.408-2.47V38.25h-4.343a12.994 12.994 0 0 0-1.383 5.838c0 2.098.502 4.083 1.383 5.838l4.343-3.368Z" fill="#FBBC05"/><path d="M79.97 36.258c1.908 0 3.621.656 4.969 1.944l3.728-3.728c-2.251-2.098-5.194-3.386-8.698-3.386a12.995 12.995 0 0 0-11.617 7.162l4.343 3.368c1.022-3.073 3.888-5.36 7.274-5.36Z" fill="#EA4335"/><path d="m37.043 71.654.076-.075c.05-.048.1-.099.149-.148l.097-.1.306-.31.416-.423.356-.363.335-.34.35-.356.322-.33.447-.455c.085-.083.171-.165.259-.248.16-.153.327-.3.5-.441.161-.13.322-.255.483-.375a10.119 10.119 0 0 1 2.171-1.204 10.156 10.156 0 0 1 .626-.226 18.328 18.328 0 0 0-3.33-6.88 1.616 1.616 0 0 0-.558-.455 1.57 1.57 0 0 0-.694-.161H26.488c-.05 0-.1.017-.14.047a.256.256 0 0 0-.002.4A38.31 38.31 0 0 1 37.01 71.683l.032-.03Z" fill="#00D6B9"/><path d="M31.938 83.308a17.292 17.292 0 0 0 8.963-2.509 17.95 17.95 0 0 0 6.796-7.434 7.754 7.754 0 0 1-.708 1.144 7.29 7.29 0 0 1-.493.585 7.562 7.562 0 0 1-.482.47 5.847 5.847 0 0 1-.286.239 6.151 6.151 0 0 1-.575.408 6.679 6.679 0 0 1-1.211.604 5.79 5.79 0 0 1-.513.165 6.602 6.602 0 0 1-1.373.242 7.401 7.401 0 0 1-1.322-.027 8.051 8.051 0 0 1-1.212-.237 36.096 36.096 0 0 1-.662-.19l-.328-.1c-.16-.05-.326-.101-.488-.153-.133-.042-.266-.083-.402-.13l-.377-.128-.256-.09-.312-.111-.222-.083a27.78 27.78 0 0 1-.437-.165l-.253-.093-.338-.135-.356-.146-.23-.096-.286-.12-.22-.096-.229-.101-.198-.09-.181-.083-.183-.083-.19-.089-.24-.114-.25-.122-.265-.133-.225-.115a37.204 37.204 0 0 1-10.527-8.075.235.235 0 0 0-.373.028.252.252 0 0 0-.043.137l.008 11.679v.948c0 .27.064.538.188.777.124.24.303.444.522.595a17.248 17.248 0 0 0 9.769 3.027Z" fill="#3370FF"/><path d="M51.45 66.841a9.906 9.906 0 0 0-8.14-.359 9.937 9.937 0 0 0-2.653 1.579 10.856 10.856 0 0 0-.76.69l-.443.457-.322.331-.35.356-.335.34-.36.36-.415.422-.307.315-.102.103-.148.149-.076.074-.113.111-.124.117a17.758 17.758 0 0 1-3.665 2.67l.24.114.19.09.183.082.18.083.2.09.228.102.22.096.286.123.23.097.356.145.338.135.254.098.437.166.222.082.312.111.256.09.377.129c.132.043.265.087.402.13.16.051.321.103.488.153l.328.1c.22.065.44.128.662.19a8.556 8.556 0 0 0 .695.16 7.751 7.751 0 0 0 1.214.12c.21 0 .419 0 .625-.017a6.581 6.581 0 0 0 1.373-.242 8.73 8.73 0 0 0 .512-.165 6.527 6.527 0 0 0 1.439-.754 6.49 6.49 0 0 0 1.116-.966 7.287 7.287 0 0 0 .695-.867c.185-.274.353-.558.503-.853l.172-.353 1.549-3.197v.006a10.142 10.142 0 0 1 2.032-2.993Z" fill="#133C9A"/><defs><clipPath id="udrl12ix4n0a"><path fill="#fff" transform="translate(79.969 63.082)" d="M0 0h35.945v35.945H0z"/></clipPath></defs></svg>