<svg width="350" height="350" viewBox="0 0 350 350" fill="none" xmlns="http://www.w3.org/2000/svg"><path d="M24.736 125.795a4.495 4.495 0 0 0-4.492 4.499v34.131a4.495 4.495 0 0 0 4.492 4.499h31.183a4.495 4.495 0 0 0 4.492-4.499v-34.131a4.495 4.495 0 0 0-4.492-4.499H24.736Z" fill="#41CCB9"/><path d="M250.553 275.561h-77.339l-13.755 51.628h77.339l13.755-51.628Z" fill="#42BDEB"/><path d="M236.799 327.189H135.792v2.311h101.007v-2.311Z" fill="#E0E0E0"/><g filter="url(#udvfc0z5dfga)"><path d="M95.887 90.517c9.553 0 17.298-7.759 17.298-17.329s-7.745-17.329-17.298-17.329c-9.554 0-17.3 7.759-17.3 17.329s7.746 17.329 17.3 17.329Z" fill="#FAC823"/></g><path d="M14 329.5a.5.5 0 0 1 .5-.5h320.393a.5.5 0 0 1 0 1H14.499a.5.5 0 0 1-.499-.5Z" fill="#E0E0E0"/><path d="M269.619 230.195a3.997 3.997 0 0 0-3.993 4v9.045h23.048c1.102 0 1.996.896 1.996 2v9.039h19.047a3.997 3.997 0 0 0 3.993-4v-16.084c0-2.209-1.788-4-3.993-4h-40.098Z" fill="#FAC823"/><g filter="url(#udjmewvrkhfb)"><path d="M265.626 243.24h25.044v11.038h-21.051a3.996 3.996 0 0 1-3.993-3.999v-7.039Z" fill="#FAC823"/></g><path d="M77.05 121.984v14.962a.5.5 0 1 0 .998 0v-14.962C78.048 65.107 124.076 19 180.853 19c56.778 0 102.806 46.107 102.806 102.984h.998C284.657 64.555 238.183 18 180.853 18 123.524 18 77.05 64.555 77.05 121.984Z" fill="#E0E0E0"/><path d="M31.325 152.528v103.443c0 4.418 3.575 7.999 7.985 7.999h95.322l26.106 23.537V263.97h31.425c4.41 0 7.985-3.581 7.985-7.999V152.528c0-4.418-3.575-7.999-7.985-7.999H39.31c-4.41 0-7.985 3.581-7.985 7.999Z" fill="#373737"/><path d="M39.31 145.029c-4.135 0-7.486 3.357-7.486 7.499v103.443c0 4.142 3.351 7.499 7.486 7.499h95.322c.124 0 .242.046.334.128l25.273 22.786V263.97a.5.5 0 0 1 .499-.5h31.425c4.134 0 7.486-3.357 7.486-7.499V152.528c0-4.142-3.352-7.499-7.486-7.499H39.31Zm-8.484 7.499c0-4.694 3.798-8.499 8.484-8.499h152.853c4.686 0 8.484 3.805 8.484 8.499v103.443c0 4.694-3.798 8.499-8.484 8.499h-30.926v23.037a.5.5 0 0 1-.833.371l-25.963-23.408H39.31c-4.686 0-8.484-3.805-8.484-8.499V152.528Z" fill="#E0E0E0"/><path d="M76.881 267.178a.5.5 0 0 0-.499.5V329a.5.5 0 1 0 .998 0v-61.322a.5.5 0 0 0-.499-.5Z" fill="#E0E0E0"/><path d="M187.172 194.971c-4.41 0-7.984-3.581-7.984-7.999v-74.438c0-4.418 3.555-7.999 7.964-7.999h126.8c4.41 0 7.965 3.581 7.965 7.999v13.761h-22.548c-8.402 0-15.211 6.824-15.211 15.243v11.243c0 2.209 1.787 4 3.992 4h33.767v30.191c0 4.418-3.574 7.999-7.984 7.999h-5.192l-25.863 24.546v-24.546h-95.706Z" fill="#373737"/><path d="M187.153 105.035c-4.133 0-7.466 3.356-7.466 7.499v74.438c0 4.142 3.351 7.499 7.485 7.499h95.706a.5.5 0 0 1 .499.5v23.384l25.021-23.747a.498.498 0 0 1 .343-.137h5.192c4.134 0 7.485-3.357 7.485-7.499v-29.51a.5.5 0 0 1 .999 0v29.51c0 4.694-3.799 8.499-8.484 8.499h-4.993l-25.719 24.409a.5.5 0 0 1-.842-.363v-24.046h-95.207c-4.685 0-8.484-3.805-8.484-8.499v-74.438c0-4.692 3.777-8.499 8.465-8.499h126.8c4.687 0 8.464 3.807 8.464 8.499v12.907a.5.5 0 1 1-.999 0v-12.907c0-4.143-3.333-7.499-7.465-7.499h-126.8Zm99.715 138.203a3.497 3.497 0 0 1 3.494 3.5v28.927l-8.243-8.056a.498.498 0 0 0-.349-.142h-33.49a3.497 3.497 0 0 1-3.494-3.499v-17.23c0-1.933 1.564-3.5 3.494-3.5h38.588Zm4.492 3.5c0-2.485-2.011-4.5-4.492-4.5H248.28a4.496 4.496 0 0 0-4.492 4.5v17.23a4.495 4.495 0 0 0 4.492 4.499h33.287l8.945 8.742a.5.5 0 0 0 .848-.358v-30.113Zm-3.21-159.935a3.496 3.496 0 0 0-3.494 3.499c0 1.933 1.564 3.5 3.494 3.5a3.496 3.496 0 0 0 3.493-3.5c0-1.933-1.564-3.5-3.493-3.5Zm-4.492 3.499c0-2.485 2.011-4.5 4.492-4.5a4.495 4.495 0 0 1 4.491 4.5c0 2.485-2.011 4.5-4.491 4.5a4.496 4.496 0 0 1-4.492-4.5Z" fill="#E0E0E0"/><path d="M208.215 305.492a4.211 4.211 0 0 0 4.208-4.215 4.212 4.212 0 0 0-4.208-4.215 4.212 4.212 0 0 0-4.207 4.215 4.211 4.211 0 0 0 4.207 4.215Z" fill="#fff"/><path d="M302.877 86.803a3.496 3.496 0 0 0-3.493 3.499c0 1.933 1.564 3.5 3.493 3.5a3.497 3.497 0 0 0 3.494-3.5c0-1.933-1.564-3.5-3.494-3.5Zm-4.491 3.499c0-2.485 2.011-4.5 4.491-4.5a4.496 4.496 0 0 1 4.492 4.5c0 2.485-2.011 4.5-4.492 4.5a4.495 4.495 0 0 1-4.491-4.5Zm14.728 0c0-2.485 2.011-4.5 4.491-4.5a4.496 4.496 0 0 1 4.492 4.5c0 2.485-2.011 4.5-4.492 4.5a4.495 4.495 0 0 1-4.491-4.5Z" fill="#E0E0E0"/><path d="m88.476 207.599-15.878-7.257c1.661-4.282 3.159-9.303 3.159-9.303s-3.434-11.045-2.652-12.053c.783-1.003 12.212-11.496 12.212-11.496l10.674-.538 3.01 1.137s3.281 7.652 1.989 11.309l3.651 6.451-3.405.605s.921 9.732-4.236 11.243c-5.153 1.51-10.33-2.83-10.33-2.83" fill="#EBEBEB"/><path d="M88.375 208.106a.479.479 0 0 1-.2-.05l-15.88-7.259a.492.492 0 0 1-.26-.63c1.478-3.809 2.845-8.268 3.105-9.118-1.318-4.239-3.334-11.318-2.525-12.368.808-1.05 11.099-10.479 12.266-11.558a.524.524 0 0 1 .31-.13l10.68-.54a.608.608 0 0 1 .2 0l2.993 1.14a.527.527 0 0 1 .28.269c.13.32 3.224 7.589 2.076 11.459l3.533 6.259a.498.498 0 0 1 0 .46.516.516 0 0 1-.359.28l-2.994.52c.12 1.999.249 9.878-4.621 11.308-5.35 1.569-10.57-2.74-10.79-2.92a.491.491 0 0 1-.178-.339.5.5 0 0 1 .817-.431c.05 0 4.99 4.15 9.861 2.73 4.871-1.42 3.893-10.618 3.883-10.708a.506.506 0 0 1 .409-.54l2.715-.49-3.304-5.829a.527.527 0 0 1 0-.42c1.108-3.12-1.407-9.549-1.896-10.749l-2.715-.999-10.38.519c-3.274 3-11.419 10.529-11.978 11.319-.3.75 1.148 6.489 2.735 11.598.03.094.03.195 0 .29 0 .05-1.417 4.749-2.994 8.898l15.45 7.059a.511.511 0 0 1-.24.97Z" fill="#2851A3"/><path d="M89.525 196.452a.499.499 0 0 1 .444.549l-.998 9.499a.499.499 0 1 1-.993-.105l.998-9.499a.499.499 0 0 1 .549-.444Zm-14.77-35.539s-14.093 2.138-7.687 18.981c3.694 9.71 8.22 12.571 8.22 12.571l4.483-6.472s-5.053-6.155-.779-8.543c4.27-2.382 5.856 5.553 5.178 8.035l3.36-7.081s6.296-1.739 5.272-8.663c0 0 11.303.51 11.281.075-.017-.436-1.511-13.22-11.656-11.1 0 0-.601-4.667-8.376-3.311-7.774 1.361-9.296 5.508-9.296 5.508Z" fill="#2851A3"/><path d="M76.82 159.044c1.277-1.139 3.513-2.479 7.317-3.145 3.788-.66 5.712.163 6.687 1.029.496.441.775.917.93 1.279a2.978 2.978 0 0 1 .174.551l.005.024v.003-.003.003c.018.137.093.26.205.341.114.08.255.11.392.082 2.426-.507 4.295-.119 5.746.722 1.464.847 2.546 2.178 3.34 3.621.794 1.442 1.286 2.97 1.581 4.17a19.15 19.15 0 0 1 .34 1.723c-.287.025-.702.04-1.213.046-1.047.014-2.45-.009-3.86-.045a320.743 320.743 0 0 1-3.876-.128c-.53-.02-.97-.039-1.279-.052a41.635 41.635 0 0 1-.358-.015l-.125-.006-.023.5.023-.5a.502.502 0 0 0-.517.573c.484 3.275-.754 5.279-2.092 6.482a8.034 8.034 0 0 1-2.766 1.609l-.043.014-.01.002a.503.503 0 0 0-.318.268l-2.308 4.865a12.33 12.33 0 0 0-.028-.263c-.124-1.094-.402-2.293-.847-3.343-.44-1.039-1.07-1.998-1.94-2.525-.912-.553-2.004-.581-3.207.09-1.205.673-1.784 1.642-1.933 2.709-.144 1.036.12 2.123.5 3.079.381.962.899 1.838 1.317 2.468.204.308.386.561.52.739l-3.982 5.748a9.979 9.979 0 0 1-.32-.268 17 17 0 0 1-1.903-1.987c-1.558-1.886-3.586-4.981-5.414-9.786-1.58-4.153-1.878-7.353-1.475-9.813.4-2.453 1.505-4.204 2.797-5.457 1.297-1.258 2.793-2.021 3.973-2.469a12.534 12.534 0 0 1 1.45-.454c.179-.044.32-.073.414-.092l.105-.019.026-.004.005-.001a.5.5 0 0 0 .393-.319v-.003l.01-.024.05-.109c.05-.1.13-.25.25-.438a7.32 7.32 0 0 1 1.287-1.472Zm-1.53 33.423-.267.422a.499.499 0 0 0 .676-.137l4.483-6.472a.5.5 0 0 0-.024-.602l-.386.317.386-.317-.002-.003-.01-.011-.015-.02-.023-.028a14.8 14.8 0 0 1-.643-.896c-.396-.599-.874-1.411-1.221-2.286-.35-.882-.548-1.781-.438-2.571.106-.758.499-1.454 1.43-1.974.933-.52 1.64-.45 2.205-.107.608.368 1.132 1.102 1.537 2.059.4.946.659 2.048.775 3.066.117 1.028.082 1.917-.064 2.449a.5.5 0 0 0 .932.346l3.267-6.885.08-.028a9.061 9.061 0 0 0 2.917-1.746c1.466-1.319 2.795-3.467 2.484-6.774l1.18.047c1.06.041 2.475.091 3.89.128 1.412.037 2.831.06 3.897.046.531-.006.987-.022 1.314-.052.159-.014.31-.034.43-.063a.87.87 0 0 0 .219-.084.541.541 0 0 0 .283-.498l-.499.025.499-.019c-.006-.155-.11-1.071-.416-2.316-.307-1.253-.826-2.871-1.676-4.414-.849-1.543-2.044-3.037-3.714-4.005-1.582-.915-3.552-1.336-5.981-.924a4.254 4.254 0 0 0-.124-.327 4.62 4.62 0 0 0-1.185-1.633c-1.27-1.128-3.534-1.961-7.52-1.265-3.97.694-6.382 2.109-7.81 3.383a8.28 8.28 0 0 0-1.46 1.676c-.13.2-.222.369-.287.497a13.45 13.45 0 0 0-1.933.573c-1.262.479-2.889 1.304-4.314 2.686-1.43 1.387-2.648 3.328-3.087 6.013-.439 2.679-.096 6.061 1.527 10.331 1.866 4.904 3.948 8.094 5.578 10.067a17.905 17.905 0 0 0 2.017 2.104 9.42 9.42 0 0 0 .759.6l.046.031.014.009.004.003.002.001.267-.422Zm28.562-23.066-.003.001.003-.001Z" fill="#2851A3"/><path d="M146.034 206.854c1.206-4.148 1.978-8.704 3.227-11.981a160.938 160.938 0 0 1 3.284-8.014c2.565-5.841 8.744-11.493 9.438-11.63.915.416-.624 3.233-1.887 4.795-1.859 2.304-3.418 5.989-3.418 5.989 3.597 1.227 5.911 2.765 7.218 5.086 1.302 2.323-3.124 9.906-4.137 11.228-1.522 1.984-7.621 9.286-7.621 9.286" fill="#EBEBEB"/><path d="M162.189 174.775a.497.497 0 0 0-.302-.036 1.135 1.135 0 0 0-.352.151 4.312 4.312 0 0 0-.35.238c-.256.191-.576.456-.941.782a36.064 36.064 0 0 0-2.649 2.66c-1.968 2.179-4.194 5.098-5.507 8.088a162.29 162.29 0 0 0-3.294 8.037c-.637 1.672-1.149 3.659-1.648 5.725-.097.399-.193.801-.289 1.204-.405 1.698-.818 3.427-1.302 5.091a.5.5 0 0 0 .173.534l6.103 4.759a.498.498 0 0 0 .689-.074l-.383-.32.383.32.001-.001.264-.317a1195.969 1195.969 0 0 0 2.977-3.582c1.712-2.071 3.625-4.4 4.392-5.401.537-.7 1.915-2.963 2.996-5.336.541-1.19 1.019-2.431 1.277-3.535.129-.552.207-1.085.205-1.569-.001-.481-.082-.947-.301-1.338-1.328-2.358-3.612-3.916-6.978-5.134l.05-.11c.173-.376.423-.902.73-1.499.617-1.2 1.453-2.661 2.35-3.773.655-.809 1.38-1.94 1.828-2.936.222-.492.393-.99.437-1.417.041-.4-.02-.966-.559-1.211Zm-5.512 11.239-.459-.195a.499.499 0 0 0 .299.668c3.545 1.209 5.723 2.691 6.944 4.858.106.19.172.468.173.852.002.38-.06.831-.179 1.337-.237 1.013-.685 2.186-1.214 3.348-1.06 2.329-2.401 4.52-2.878 5.142-.754.983-2.652 3.295-4.37 5.372-.857 1.036-1.667 2.01-2.262 2.725l-.667.801-5.457-4.254c.451-1.589.843-3.231 1.223-4.821l.286-1.192c.5-2.068.999-3.998 1.611-5.604a159.457 159.457 0 0 1 3.275-7.99c1.252-2.851 3.398-5.678 5.333-7.82a35.611 35.611 0 0 1 2.573-2.585c.334-.298.618-.533.838-.699-.04.262-.157.616-.345 1.035-.408.907-1.085 1.966-1.693 2.718-.962 1.192-1.835 2.725-2.462 3.944a38.26 38.26 0 0 0-.955 1.995l-.054.125-.014.032-.004.009-.001.003v.001l.459.195Zm5.065-10.36c-.001.001.001.006.007.013-.003-.01-.007-.014-.007-.013Z" fill="#2851A3"/><path d="M86.25 214.627a.499.499 0 0 1 .841-.451c12.488 12.401 18.667 17.803 29.115 26.937l.006.004c2.076 1.815 4.321 3.778 6.818 5.972l22.084-41.197a.498.498 0 0 1 .742-.161l6.956 5.312a.5.5 0 0 1 .167.568 1903.56 1903.56 0 0 0-1.59 4.401v.001c-4.377 12.142-14.118 39.16-18.064 47.792a.501.501 0 0 1-.454.291h-17.884a.497.497 0 0 1-.249-.067c-4.331-2.499-9.671-5.927-13.924-8.727a564.673 564.673 0 0 1-6.867-4.594l-.317-.216a35.486 35.486 0 0 0-.102-.069l-.145-.1a.498.498 0 0 1-.208-.316l-6.925-35.38Z" fill="#4C88FF"/><path d="m72.073 198.803.102-.163a.498.498 0 0 1 .638-.187l16.727 7.951a.5.5 0 0 1 .285.452v3.828c.98 3.583 2.432 8.08 3.875 12.545l.752 2.332c1.675 5.207 3.226 10.159 3.828 13.235.42 2.145.303 6.324-.068 10.939a194.059 194.059 0 0 1-1.667 13.943.5.5 0 0 1-.493.422H63.44a.5.5 0 0 1-.492-.421c-1.038-6.489-2.353-15.244-2.875-23.887-.521-8.626-.259-17.212 1.901-23.332.306-.866 1.107-2.42 2.11-4.227a234.226 234.226 0 0 1 3.443-5.952 497.122 497.122 0 0 1 4.259-7.013l.287-.465Z" fill="#4C88FF"/><path d="M157.348 187.309a25.602 25.602 0 0 1-3.292 6.086l-.051.069c-.333.45-.767 1.036-.869 1.756v.001a3.25 3.25 0 0 0 .041 1.005c.022.127.047.254.071.372l.014.068c.028.141.053.272.072.4.182 1.263-.312 2.609-1.227 3.392a.5.5 0 0 0 .648.76c1.189-1.017 1.796-2.709 1.567-4.295a8.451 8.451 0 0 0-.082-.454l-.014-.073c-.024-.118-.047-.229-.066-.34-.045-.265-.064-.489-.035-.697.064-.458.356-.858.734-1.37l.001-.001a26.608 26.608 0 0 0 3.631-6.9.499.499 0 0 0-.263-.62c-.641-.294-1.276-.159-1.801.098-.518.254-.989.656-1.365 1.009h-.001c-1.744 1.641-3.492 3.289-5.171 5.023a.5.5 0 0 0 .716.697c1.661-1.715 3.393-3.348 5.138-4.991.361-.338.743-.654 1.122-.84.175-.085.334-.137.482-.155Z" fill="#2851A3"/><path d="M161.211 187.716a.499.499 0 0 0-.688.158l.157.099-.157-.099-.012.02-.038.059-.143.225c-.124.193-.302.468-.518.795a56.473 56.473 0 0 1-1.616 2.326c-.606.821-1.215 1.577-1.703 2.046-.198.19-.349.306-.451.366a.499.499 0 0 0-.745.633.758.758 0 0 0 .497.39.92.92 0 0 0 .549-.059c.283-.115.573-.351.841-.608.553-.532 1.204-1.346 1.815-2.174a57.442 57.442 0 0 0 1.645-2.368c.219-.331.4-.61.526-.807.063-.099.113-.176.146-.23l.039-.061.013-.021s.001-.001-.422-.266l.422.266a.5.5 0 0 0-.157-.69Zm1.8 2.499a.499.499 0 0 0-.7.093c-.128.168-.331.451-.575.791l-.354.492c-.406.561-.88 1.208-1.345 1.799-.47.596-.914 1.115-1.261 1.433-.112.103-.199.17-.261.212a.5.5 0 0 0-.616.731c.104.16.266.274.466.305a.829.829 0 0 0 .446-.063c.221-.092.441-.266.639-.448.411-.376.896-.949 1.371-1.551.478-.608.962-1.268 1.369-1.832.134-.184.258-.357.37-.514.237-.33.424-.591.543-.747a.5.5 0 0 0-.092-.701Zm-4.589 4.871.004-.001-.004.001Z" fill="#2851A3"/><path d="M46.61 263.598s7.756-27.519 16.274-46.908l12.828 29.762-10.167 17.146H46.609Z" fill="#4C88FF"/><path d="M62.886 216.189a.498.498 0 0 0-.458.298c-4.27 9.718-8.345 21.464-11.35 30.773a549.326 549.326 0 0 0-3.602 11.591 423.769 423.769 0 0 0-1.257 4.295l-.067.235-.023.08.48.136-.48-.136a.502.502 0 0 0 .48.636h18.936c.176 0 .34-.093.429-.245l10.168-17.146a.502.502 0 0 0 .029-.454L63.343 216.49a.498.498 0 0 0-.457-.301Zm-15.615 46.908.168-.581c.228-.789.564-1.939.994-3.379a548.96 548.96 0 0 1 3.594-11.569c2.895-8.963 6.774-20.165 10.855-29.624l12.271 28.471-9.892 16.682h-17.99Z" fill="#4C88FF"/><path d="M92.281 219.188a.5.5 0 0 0-.296.642l.469-.173.468-.172a.5.5 0 0 0-.64-.297Zm5.1 20.166c-.036-1.269-.382-3.118-.897-5.207-.512-2.08-1.183-4.363-1.85-6.487a198.514 198.514 0 0 0-2.59-7.669L92 219.87l-.015-.04.469-.173.468-.172.016.042.044.122.168.468a199.169 199.169 0 0 1 2.436 7.243c.67 2.134 1.348 4.439 1.867 6.547.517 2.098.887 4.035.926 5.418.076 2.673-.083 6.239-.259 9.125a229.055 229.055 0 0 1-.363 5.018l-.009.102-.497-.044.497.044a.5.5 0 1 1-.994-.088l.464.041-.464-.041.008-.1.025-.29.086-1.076c.07-.914.163-2.188.25-3.627.177-2.883.333-6.41.258-9.035Zm26.522 6.979a.498.498 0 0 0-.685.168l-3.257 5.372a.5.5 0 0 0 .854.519l3.256-5.372a.5.5 0 0 0-.168-.687ZM77.127 241a.5.5 0 0 0-.643.292l-8.499 22.676a.5.5 0 0 0 .935.352l8.498-22.677a.5.5 0 0 0-.291-.643Z" fill="#2851A3"/><path d="M36.992 263.982a.5.5 0 0 1 .5-.5h96.888a.5.5 0 0 1 0 1H37.491a.499.499 0 0 1-.499-.5Z" fill="#E0E0E0"/><g clip-path="url(#ud38yv11oayc)"><path d="M158.681 119.312c3.623 7.127 2.138 10.704 9.073 16.766 0 0 19.578 24.936 29.712 39.15 4.046 5.673 11.074 5.475 16.93.773l19.075-15.22-13.606-10.397-13.98 15.129c-6.201-6.291-27.717-27.63-32.451-33.229-.676-2.401-.596-4.937-.893-7.41-.726-5.999-3.835-9.99-7.054-15.122l-.06 1.211c-.501-.792-1.001-1.584-1.605-2.3-.835-.993-1.892-1.851-3.267-1.964-1.759-.158-1.614.402-1.322 1.435 2.32 4.821 3.412 7.897 4.589 11.984l.416 5.298c-2.061-3.542-3.979-6.033-5.557-6.104Z" fill="#EBEBEB"/><path d="M205.174 180.297a11.641 11.641 0 0 1-1.457-.1 10.243 10.243 0 0 1-6.987-4.389c-9.981-14.048-29.494-38.884-29.694-39.134-4.601-3.999-5.569-7.069-6.687-10.598a38.888 38.888 0 0 0-2.435-6.249.498.498 0 0 1 .469-.73c1.367.06 2.894 1.49 4.871 4.559l-.25-3.159a68.049 68.049 0 0 0-4.561-11.858c-.21-.71-.38-1.31 0-1.76.379-.45.828-.48 1.816-.39a5.283 5.283 0 0 1 3.613 2.14c.31.37.589.75.859 1.14a.478.478 0 0 1 .289-.21.484.484 0 0 1 .549.21c.469.749.938 1.469 1.388 2.169 2.744 4.25 5.11 7.919 5.749 13.158.09.84.149 1.67.209 2.51a24.41 24.41 0 0 0 .639 4.729c3.753 4.409 17.267 17.997 26.231 26.996 2.355 2.359 4.361 4.379 5.749 5.789l13.624-14.748a.508.508 0 0 1 .679-.06l13.604 10.399a.497.497 0 0 1 .189.39.482.482 0 0 1-.179.399l-19.114 15.178a14.952 14.952 0 0 1-9.163 3.619Zm-45.833-59.78a42.193 42.193 0 0 1 1.996 5.249c1.128 3.539 1.996 6.329 6.458 10.218.26.32 19.763 25.176 29.794 39.234a9.237 9.237 0 0 0 6.308 4c3.184.44 6.697-.74 9.901-3.31l18.505-14.828-12.736-9.738-13.674 14.798a.477.477 0 0 1-.359.16.533.533 0 0 1-.36-.15 1395.04 1395.04 0 0 0-6.118-6.149c-8.983-9.059-22.677-22.747-26.36-27.106a.692.692 0 0 1-.1-.19 25.477 25.477 0 0 1-.699-4.999c-.05-.82-.11-1.64-.209-2.46-.549-4.569-2.526-7.949-4.891-11.658a319.78 319.78 0 0 0 2.835 5.219.51.51 0 0 1 .041.382.513.513 0 0 1-.241.298.512.512 0 0 1-.679-.19c-1.148-2.09-3.763-6.869-4.132-7.789a18.817 18.817 0 0 0-1.537-2.209 4.362 4.362 0 0 0-2.925-1.79c-.808-.07-.998.05-.998.05.037.255.097.506.18.75a67.973 67.973 0 0 1 4.581 11.998.28.28 0 0 1 0 .1l.42 5.299a.503.503 0 0 1-.35.514.499.499 0 0 1-.579-.224c-1.597-2.89-2.974-4.709-4.072-5.479Zm7.496-1.15a.506.506 0 0 1-.265-.075.506.506 0 0 1-.184-.205c-3.164-6.389-4.322-8.189-6.219-10.338a.497.497 0 0 1-.108-.54.486.486 0 0 1 .108-.16.479.479 0 0 1 .699 0c1.996 2.219 3.154 4.059 6.368 10.558a.51.51 0 0 1-.229.67.591.591 0 0 1-.17.09Z" fill="#2851A3"/><path d="M229.646 136.048a.5.5 0 0 1 .812.125l9.305 19.176a.503.503 0 0 1-.097.574l-13.117 13.038a.497.497 0 0 1-.718-.015l-13.112-14.224a.5.5 0 0 1 .003-.682l16.924-17.992Z" fill="#42BDEB"/><path d="m244.093 126.831-5.074-12.885s11.624-7.662 7.172-19.313c-5.148-14.298-25.148-10.4-28.495-1.913-1.418 3.589-1.85 9.675-1.85 9.675l-2.716 5.319c-.1.18.04.4.249.409l2.194.019c.546 5.896 1.261 10.303 6.627 10.74.928.02 2.913-.261 4.21-.642 0 0 .359-.48 2.881 1.828a266.992 266.992 0 0 0 2.22 8.224" fill="#EBEBEB"/><path d="M246.659 94.458c2.301 6.026.435 11.027-1.975 14.486a22.796 22.796 0 0 1-5.057 5.183l4.93 12.519a.498.498 0 1 1-.928.368l-5.074-12.885a.502.502 0 0 1 .19-.601l.006-.004.022-.015.09-.062c.08-.056.198-.141.348-.253a21.8 21.8 0 0 0 4.655-4.822c2.288-3.284 4.008-7.937 1.86-13.56l-.004-.01c-2.481-6.89-8.526-9.413-14.434-9.171-2.957.12-5.856.937-8.212 2.234-2.362 1.3-4.136 3.059-4.916 5.038-.686 1.737-1.143 4.108-1.427 6.071a55.832 55.832 0 0 0-.369 3.194l-.016.196-.004.05v.012l-.001.003a.501.501 0 0 1-.053.193l-2.556 5.004 1.844.016a.499.499 0 0 1 .492.453c.274 2.965.586 5.447 1.458 7.245.429.885.986 1.587 1.731 2.095.742.507 1.701.842 2.967.947.857.015 2.722-.245 3.974-.602a.695.695 0 0 1 .245-.075c.191-.024.405.019.651.121.488.203 1.26.709 2.532 1.872a.499.499 0 0 1 .147.246 262.463 262.463 0 0 0 2.024 7.541l.141.493.037.129.012.043-.478.141-.479.14-.013-.045-.037-.13a222.08 222.08 0 0 1-.647-2.298 265.37 265.37 0 0 1-1.491-5.622c-1.18-1.068-1.818-1.456-2.131-1.586a.93.93 0 0 0-.125-.044.594.594 0 0 1-.039.013c-1.335.392-3.371.683-4.36.662l-.03-.001c-1.409-.115-2.547-.494-3.462-1.119-.916-.625-1.578-1.475-2.067-2.483-.914-1.887-1.248-4.387-1.511-7.141l-1.745-.015h-.019c-.517-.025-.964-.591-.666-1.142l2.667-5.223.014-.172a59.334 59.334 0 0 1 .376-3.253c.286-1.977.755-4.445 1.487-6.296.893-2.264 2.873-4.176 5.364-5.547 2.496-1.374 5.546-2.23 8.651-2.357 6.214-.254 12.742 2.42 15.411 9.826Zm-19.857 24.09Zm4.709 9.743-.479.14a.5.5 0 0 0 .957-.281l-.478.141Zm-17.945-20.335.004-.008a.03.03 0 0 0-.004.008Z" fill="#2851A3"/><path d="m232.312 102.446-.003.003a.501.501 0 0 1-.862-.288l-.29-2.563-7.428.648a.5.5 0 0 1-.529-.369l-.974-3.616-.084 3.682a.497.497 0 0 1-.455.483l-7.57.66a.502.502 0 0 1-.543-.452 22.554 22.554 0 0 1-.081-2.284c.015-.958.097-2.049.345-2.876.823-2.724 2.52-6.669 5.892-9.632 3.394-2.983 8.434-4.928 15.833-3.713h.005c7.707 1.341 12.817 7.546 14.576 15.357l.005.028 3.336 20.268a.496.496 0 0 1-.271.534l-.222-.448a.438.438 0 0 1 .059.228l.065.255-17.469 4.356a.503.503 0 0 1-.607-.359l-4.343-16.416a.496.496 0 0 1 .539-.619l.011.001.028.002.025.002a5.161 5.161 0 0 0 .969-.028c.616-.073 1.362-.266 1.979-.725a12.205 12.205 0 0 1 .504-.355c.088-.062.116-.086.123-.093a.741.741 0 0 0 .027-.099c.017-.079.033-.175.057-.313l.042-.249c.031-.178.13-.333.193-.425.07-.104.159-.216.24-.319l.01-.012c.181-.23.351-.449.461-.67.109-.218.118-.36.083-.46-.034-.099-.156-.289-.612-.5-.255-.114-.554-.122-.893-.034-.344.088-.7.267-1.032.481a6.795 6.795 0 0 0-1.063.853l-.061.061-.015.015Zm2.563 1.671-.001.003.002-.005c.001 0 .001 0 0 0l-.001.002Z" fill="#2851A3"/><path d="m232.291 106.532 1.268-.226a5.216 5.216 0 0 0 2.407-1.025c.868-.657 1.5-1.768 1.562-2.856.041-.69-.297-3.23-2.794-3.01-1.004.092-2.167 1.658-2.552 2.032" fill="#EBEBEB"/><path d="M227.037 95.252a.497.497 0 0 1 .431-.558l3.795-.475a.502.502 0 0 1 .559.433l3.663 28.282a.496.496 0 0 1-.431.557l-3.795.475a.5.5 0 0 1-.558-.433l-3.664-28.281Z" fill="#2851A3"/><path d="M244.757 170.194a382.148 382.148 0 0 1-6.726-2.697c-4.703-1.942-10.182-4.334-13.172-6.099a.497.497 0 0 1-.245-.451c.129-3.057.129-5.892.129-8.689v-.004c0-.771 0-1.54.003-2.31.012-3.557.083-7.125.483-11.05.505-4.962 1.98-8.399 3.949-10.745 1.97-2.348 4.403-3.564 6.756-4.143 2.346-.577 4.619-.521 6.296-.324.84.099 1.536.233 2.024.343.244.055.436.105.568.14l.153.043.035.01c.993.218 2.242.797 3.6 1.666 1.374.879 2.888 2.072 4.399 3.539 3.023 2.933 6.06 6.982 7.962 11.848 3.618 9.254 7.677 20.925 10.831 30.276a1312.049 1312.049 0 0 1 5.004 15.15l.298.925.103.322a.5.5 0 0 1-.548.647c-5.786-.852-10.992.358-16.297 1.818-.565.156-1.132.315-1.7.474h-.002c-4.746 1.328-9.631 2.695-15.03 2.721a.5.5 0 0 1-.005-1h.027l1.105-22.41Z" fill="#42BDEB"/><path d="M268.694 188.23c1.791 5.244 1.121 3.545 2.96 9.37l-30.577-.172-1.7-4.82 29.317-4.378Z" fill="#EBEBEB"/><path d="M269.166 188.068a.5.5 0 0 0-.545-.333l-29.318 4.378a.5.5 0 0 0-.397.661l1.7 4.821c.07.199.258.332.468.333l30.577.171a.498.498 0 0 0 .479-.65 212.967 212.967 0 0 1-1.336-4.356c-.366-1.238-.571-1.93-1.628-5.025Zm-.81.718c.936 2.748 1.132 3.409 1.475 4.572.229.773.522 1.766 1.141 3.738l-29.541-.166-1.382-3.917 28.307-4.227Z" fill="#2851A3"/><path d="M269.93 192.442c1.271.16 9.1-3.586 7.189-4.494-1.855-.882-8.485-.002-8.485-.002l1.296 4.496Z" fill="#2851A3"/><path d="M230.26 183.525c-11.977 6.632-16.424 10.195-24.697 14.303 8.273 0 6.39.047 23.716 0 10.48-.029 14.04 0 14.82-7.671.925-9.079 1.049-20.286 1.049-20.286l-16.79-7.466" fill="#EBEBEB"/><path d="M227.995 162.747a.5.5 0 0 1 .566-.8l16.79 7.467a.499.499 0 0 1 .296.463l-.001.128-.006.373a310.23 310.23 0 0 1-.171 6.249c-.147 3.941-.409 9.025-.873 13.58-.198 1.948-.577 3.463-1.233 4.626-.666 1.18-1.601 1.969-2.845 2.486-1.225.509-2.742.752-4.579.874-1.799.12-3.949.126-6.489.133l-.169.001c-11.464.031-14.521.021-17.672.01-1.612-.005-3.248-.01-6.046-.01a.5.5 0 0 1-.222-.948c4.116-2.043 7.28-3.951 10.921-6.183l.826-.507.003-.002c3.385-2.077 7.249-4.448 12.655-7.449a180.4 180.4 0 0 0-.281-3.278c-.179-1.96-.418-4.481-.657-6.972-.239-2.491-.478-4.951-.657-6.788l-.216-2.215-.082-.837a.496.496 0 0 1 .142-.401Zm.863.426.07.715.217 2.215c.179 1.837.418 4.298.657 6.789.238 2.491.477 5.014.657 6.977.174 1.909.296 3.33.3 3.641a.525.525 0 0 1-.058.25.51.51 0 0 1-.174.187l-.031.018c-5.526 3.06-9.445 5.465-12.885 7.576l-.828.508c-3.083 1.889-5.844 3.56-9.138 5.279 1.623.002 2.802.006 3.968.01h.001c3.15.01 6.203.02 17.664-.011l.144-.001c2.561-.007 4.684-.013 6.451-.13 1.803-.12 3.19-.355 4.262-.801 1.054-.438 1.81-1.082 2.359-2.054.558-.99.917-2.348 1.109-4.235.461-4.525.722-9.584.869-13.516a319.195 319.195 0 0 0 .17-6.228l.003-.168-15.787-7.021Zm-.509-.074.28-.027-.28.027Zm-.496.049.496-.049-.496.049Z" fill="#2851A3"/><path d="M225.928 137.289a.498.498 0 0 0-.559.431c-.399 3.079-.587 8.903-.676 13.929a530.087 530.087 0 0 0-.08 8.568v.747h.499-.499a.5.5 0 0 0 .296.456l22.676 10.084a.497.497 0 0 0 .699-.5l-1.374-15.899a.499.499 0 1 0-.994.087l1.301 15.054-21.606-9.608v-.42a545.542 545.542 0 0 1 .079-8.551c.09-5.04.278-10.805.669-13.818a.5.5 0 0 0-.431-.56Z" fill="#2851A3"/></g><path d="M323.789 126.295h-24.42c-8.402 0-15.211 6.823-15.211 15.243v11.243a3.995 3.995 0 0 0 3.992 3.999h35.639c8.402 0 15.211-6.823 15.211-15.242 0-8.42-6.809-15.243-15.211-15.243Z" fill="#fff" fill-opacity=".3"/><path d="M295.141 138.203a.5.5 0 0 1 .499-.5h28.107a.5.5 0 0 1 0 1H295.64a.5.5 0 0 1-.499-.5Zm0 8.061a.5.5 0 0 1 .499-.5h17.052a.5.5 0 0 1 0 1H295.64a.5.5 0 0 1-.499-.5Z" fill="#E0E0E0"/><path d="M254.687 314.491h7.985v-7.999h-7.985v7.999Zm14.638 0h41.376v-7.999h-41.376v7.999Z" fill="#4C88FF"/><defs><filter id="udvfc0z5dfga" x="64.282" y="41.554" width="63.209" height="63.269" filterUnits="userSpaceOnUse" color-interpolation-filters="sRGB"><feFlood flood-opacity="0" result="BackgroundImageFix"/><feBlend in="SourceGraphic" in2="BackgroundImageFix" result="shape"/><feGaussianBlur stdDeviation="7.153" result="effect1_foregroundBlur"/></filter><filter id="udjmewvrkhfb" x="260.626" y="238.24" width="35.043" height="21.038" filterUnits="userSpaceOnUse" color-interpolation-filters="sRGB"><feFlood flood-opacity="0" result="BackgroundImageFix"/><feBlend in="SourceGraphic" in2="BackgroundImageFix" result="shape"/><feGaussianBlur stdDeviation="2.5" result="effect1_foregroundBlur"/></filter><clipPath id="ud38yv11oayc"><path fill="#fff" transform="matrix(-1 0 0 1 277.171 76.45)" d="M0 0h132.749v117.982H0z"/></clipPath></defs></svg>