<svg width="260" height="163" viewBox="0 0 260 163" fill="none" xmlns="http://www.w3.org/2000/svg"><path d="M176.676 35.465a3.053 3.053 0 0 1 3.053 3.053v90.322a3.053 3.053 0 0 1-3.053 3.053H164.73V91.609a5.357 5.357 0 0 0-5.357-5.357h-24.644V38.518a3.054 3.054 0 0 1 3.054-3.053h10.242v.62a2 2 0 0 0 2 2h14.409a2 2 0 0 0 2-2v-.62h10.242Z" fill="#3370FF"/><path d="M185.17 130.939a3.723 3.723 0 0 1-3.723 3.721h-13.021a.56.56 0 1 0 0 1.119h13.021a4.842 4.842 0 0 0 4.843-4.84V33.643a4.842 4.842 0 0 0-4.843-4.84h-48.435a4.841 4.841 0 0 0-4.842 4.84v43.848a.56.56 0 0 0 1.12 0V33.643a3.721 3.721 0 0 1 3.722-3.72h48.435a3.722 3.722 0 0 1 3.723 3.72v97.296Z" fill="#0C296E"/><path d="M141.962 53.51c0-.28.228-.508.509-.508h29.518a.509.509 0 1 1 0 1.018h-29.518a.509.509 0 0 1-.509-.51Zm0 10.97a.51.51 0 0 1 .509-.51h15.268a.51.51 0 0 1 0 1.019h-15.268a.51.51 0 0 1-.509-.51Z" fill="#fff"/><path d="M52.658 91.611a6 6 0 0 1 6-6h100.714a6 6 0 0 1 6 6v49.822a6 6 0 0 1-6 6H58.658a6 6 0 0 1-6-6V91.611Zm6-4.714a4.714 4.714 0 0 0-4.714 4.714v49.822a4.714 4.714 0 0 0 4.714 4.714h100.714a4.715 4.715 0 0 0 4.715-4.714V91.611a4.715 4.715 0 0 0-4.715-4.714H58.658Z" fill="#0C296E"/><path d="M62.944 92.684a3.214 3.214 0 0 0-3.215 3.214v11.25h.68a2 2 0 0 1 2 2v15.286a2 2 0 0 1-2 2h-.68v11.25a3.214 3.214 0 0 0 3.215 3.214h92.143a3.214 3.214 0 0 0 3.214-3.214V95.898a3.214 3.214 0 0 0-3.214-3.214H62.944Z" fill="#FFC60A"/><path d="M73.123 109.879c0-.295.24-.535.535-.535h70.715a.536.536 0 0 1 0 1.071H73.658a.536.536 0 0 1-.535-.536Zm0 12.286c0-.296.24-.536.535-.536h36.577a.536.536 0 0 1 0 1.071H73.658a.536.536 0 0 1-.535-.535Z" fill="#fff"/><path d="M48.618 75.143a.643.643 0 0 0-.298.86l3.154 6.49a.643.643 0 0 0 1.156-.562l-3.153-6.49a.643.643 0 0 0-.86-.298Zm-.045 13.301a.643.643 0 0 0-.643-.643h-4.964a.643.643 0 0 0 0 1.286h4.964a.643.643 0 0 0 .643-.643Zm-3.281-6.494a.643.643 0 0 0 .183.89l3.798 2.503a.643.643 0 0 0 .707-1.074l-3.798-2.502a.643.643 0 0 0-.89.183Zm69.565-48.643a.642.642 0 0 1-.78.467c-13.288-3.346-25.217 4.432-26.809 15.639 1.945-.112 3.724.097 5.181.56 1.214.385 2.243.96 2.946 1.713.715.767 1.09 1.721.945 2.785-.46 3.376-3.467 5.348-6.225 4.732-1.392-.31-2.653-1.27-3.444-2.918-.65-1.352-.977-3.152-.84-5.436-.75.108-1.52.266-2.304.48-6.57 1.79-14.002 7.458-16.703 19.864a.643.643 0 1 1-1.256-.273c2.802-12.87 10.584-18.915 17.621-20.832a20.365 20.365 0 0 1 2.766-.553 20.9 20.9 0 0 1 .023-.178c1.645-12.151 14.459-20.343 28.413-16.83a.643.643 0 0 1 .466.78ZM87.128 50.71c-.162 2.234.152 3.874.702 5.018.635 1.324 1.59 2.002 2.565 2.22 1.976.441 4.305-.97 4.67-3.65.086-.625-.117-1.206-.61-1.735-.506-.542-1.316-1.023-2.395-1.365-1.343-.427-3.042-.62-4.932-.488Z" fill="#0C296E"/><path d="M71.989 70.272a.154.154 0 0 0-.08-.262L61.61 67.735a.174.174 0 0 0-.1-.001.16.16 0 0 0-.114.197l2.947 9.652a.267.267 0 0 0 .016.034.15.15 0 0 0 .03.037.171.171 0 0 0 .235-.007l.01-.012 7.355-7.363Z" fill="#14C0FF"/><path d="M206.601 135.977c.341.269.823.222 1.077-.104.253-.327.183-.81-.157-1.079l-10.635-8.407-3.854-34.988a1.308 1.308 0 0 0-.015-.088l-.003-.013-.008-.035-.032-.133a67.257 67.257 0 0 0-.588-2.272c-.404-1.458-.99-3.4-1.718-5.316-.722-1.904-1.603-3.837-2.609-5.247-.959-1.342-2.289-2.552-3.894-2.193-2.157.483-3.262.572-3.8.556a2.318 2.318 0 0 1-.25-.018c-.692-.825-1.422-1.519-2.15-1.866a.784.784 0 0 0-.176-.06c-2.577-.557-6.18-.33-9.531.16-3.098.455-6.077 1.15-8.005 1.74-.274-.31-.509-.574-.713-.794-.284-.305-.545-.564-.813-.762a2.412 2.412 0 0 0-.91-.43 4.098 4.098 0 0 0-.97-.081c-.921.008-2.49.32-4.313.801a77.425 77.425 0 0 0-6.24 1.963c-2.199.79-4.419 1.693-6.327 2.622-1.89.921-3.536 1.897-4.535 2.849a1.923 1.923 0 0 0-.508 2.047c.226.68.783 1.244 1.494 1.536 3.176 1.303 7.109.904 10.459.31 1.001-.177 2-.382 2.917-.571.608-.125 1.18-.243 1.693-.34 1.073-.203 1.898-.319 2.474-.316 3.801 8.934 6.695 18.095 8.422 28.088a18.662 18.662 0 0 1-1.995-1.153c-1.241-.808-2.622-1.842-4.091-3.021-2.435-1.953-5.074-4.272-7.681-6.562a825.23 825.23 0 0 0-1.619-1.42c-3.101-2.715-6.096-5.281-8.5-6.933-1.194-.821-2.303-1.46-3.241-1.76-.917-.292-1.971-.342-2.614.508-.54.714-.559 1.627-.328 2.549.23.921.738 1.974 1.432 3.124 1.393 2.306 3.661 5.196 6.454 8.532 1.824 2.179 3.877 4.555 6.077 7.101v.001c4.577 5.295 9.79 11.328 14.903 17.86a.9.9 0 0 0 .134.135c9.044 7.239 16.847 12.733 20.916 15.598l.556.391c.355.25.832.176 1.066-.166l22.749-12.343Z" fill="#fff"/><path d="M152.993 76.83c1.832-.484 3.234-.746 3.941-.752.306-.003.477.011.6.04a.8.8 0 0 1 .314.153c.14.104.316.27.586.56.201.216.433.478.724.805l.312.352c.213.24.544.333.837.237 1.794-.589 4.942-1.351 8.245-1.835 3.278-.48 6.599-.669 8.881-.202.433.234.982.743 1.611 1.509l3.473 5.375.262.473a158.586 158.586 0 0 0 2.664 5.08c.206.38.673.537 1.045.35.371-.185.507-.643.302-1.023a83.887 83.887 0 0 1-.642-1.24 150.19 150.19 0 0 0-2.011-3.82l-.17-.336a.741.741 0 0 0-.043-.074l-.099-.153a70.14 70.14 0 0 0-.651-1.143 44.897 44.897 0 0 0-1.909-3.028c.751-.063 1.808-.226 3.304-.561.573-.128 1.319.242 2.25 1.544.882 1.236 1.704 3.013 2.412 4.88.704 1.854 1.275 3.744 1.672 5.176.198.714.352 1.312.456 1.73.052.209.091.373.118.484l.029.125 3.886 35.276a.813.813 0 0 0 .305.544l10.903 8.619c.34.269.822.222 1.076-.104.254-.327.184-.81-.157-1.079l-10.634-8.407-3.855-34.988a.659.659 0 0 0-.015-.088l-.749.135.749-.135-.003-.013-.008-.035-.031-.133a71.255 71.255 0 0 0-.588-2.272 62.27 62.27 0 0 0-1.718-5.316c-.722-1.904-1.603-3.837-2.61-5.247-.959-1.342-2.289-2.552-3.894-2.193-2.156.484-3.261.572-3.799.556a2.363 2.363 0 0 1-.251-.018c-.691-.825-1.421-1.519-2.149-1.866a.81.81 0 0 0-.177-.06c-2.577-.557-6.18-.33-9.531.16-3.098.455-6.077 1.15-8.004 1.74a51.57 51.57 0 0 0-.713-.793c-.284-.306-.546-.565-.814-.763a2.413 2.413 0 0 0-.91-.43 4.09 4.09 0 0 0-.969-.081c-.921.008-2.49.32-4.313.801a77.179 77.179 0 0 0-6.24 1.963c-2.199.79-4.419 1.693-6.327 2.622-1.891.921-3.536 1.897-4.535 2.849a1.923 1.923 0 0 0-.508 2.047c.225.68.782 1.244 1.493 1.536 3.177 1.303 7.11.904 10.459.31 1.002-.177 2-.383 2.918-.571a113.27 113.27 0 0 1 1.693-.34c1.072-.203 1.897-.319 2.473-.316 3.801 8.934 6.696 18.095 8.422 28.088a18.76 18.76 0 0 1-1.995-1.153c-1.241-.808-2.621-1.842-4.09-3.021-2.435-1.953-5.075-4.272-7.681-6.562l-1.619-1.42c-3.102-2.715-6.096-5.281-8.5-6.933-1.195-.821-2.303-1.46-3.242-1.76-.916-.292-1.97-.342-2.613.508-.54.714-.559 1.627-.329 2.549.231.921.738 1.974 1.433 3.124 1.393 2.306 3.661 5.196 6.453 8.532 1.824 2.179 3.877 4.555 6.078 7.101 4.576 5.296 9.79 11.329 14.903 17.861.039.05.084.095.134.135 9.044 7.24 16.846 12.733 20.916 15.598l.556.391c.354.25.831.176 1.065-.166.234-.342.136-.821-.219-1.071l-.554-.39c-4.054-2.855-11.79-8.301-20.762-15.479-5.118-6.532-10.362-12.601-14.934-17.892-2.19-2.535-4.227-4.892-6.021-7.035-2.793-3.337-4.987-6.141-6.307-8.328-.663-1.096-1.075-1.988-1.249-2.683-.174-.695-.082-1.07.082-1.287.061-.08.236-.242.963-.01.705.226 1.653.751 2.816 1.55 2.31 1.588 5.232 4.087 8.348 6.815l1.607 1.41c2.607 2.29 5.28 4.639 7.747 6.618 1.49 1.195 2.918 2.267 4.223 3.116 1.295.844 2.513 1.497 3.575 1.819a.751.751 0 0 0 .71-.143.731.731 0 0 0 .24-.675c-1.746-10.813-4.835-20.641-8.94-30.205a.818.818 0 0 0-.617-.484c-.876-.143-2.116.043-3.43.292-.569.107-1.156.228-1.767.354-.888.183-1.825.376-2.826.553-3.356.595-6.883.898-9.593-.214-.319-.13-.5-.354-.561-.539-.053-.158-.037-.329.141-.498.831-.792 2.307-1.689 4.172-2.597 1.848-.9 4.017-1.783 6.182-2.561a75.878 75.878 0 0 1 6.117-1.924Z" fill="#0C296E"/><path d="M158.289 75.41c-.317.264-.348.748-.068 1.08 2.609 3.09 5.085 7.131 7.241 10.999a251.013 251.013 0 0 1 2.951 5.489l.233.444c.786 1.497 1.487 2.832 2.078 3.88.212.377.682.524 1.048.33.367-.195.491-.66.279-1.036-.578-1.025-1.267-2.338-2.058-3.843l-.23-.439a253.73 253.73 0 0 0-2.97-5.524c-2.168-3.89-4.706-8.044-7.421-11.26-.28-.332-.765-.386-1.083-.12Zm10.38-.436c-.346.23-.426.704-.179 1.06 2.916 4.203 6.721 10.102 10.829 16.58.232.365.708.488 1.064.274.356-.213.457-.683.225-1.048-4.108-6.476-7.929-12.401-10.867-16.636-.246-.356-.727-.459-1.072-.23Z" fill="#0C296E"/></svg>