<svg width="120" height="120" viewBox="0 0 120 120" fill="none" xmlns="http://www.w3.org/2000/svg"><path d="M12 24.246a4 4 0 0 1 4-4h82.836l2.394 10.486a110.006 110.006 0 0 1 0 48.967l-1.684 7.377a4 4 0 0 1-3.9 3.11H16a4 4 0 0 1-4-4v-61.94Z" fill="#BBBFC4" fill-opacity=".45"/><path d="M28.038 28.5a3.5 3.5 0 1 1 7 0 3.5 3.5 0 0 1-7 0Zm3.5-2.5a2.5 2.5 0 1 0 0 5 2.5 2.5 0 0 0 0-5Zm-13.5 2.5a3.5 3.5 0 1 1 7 0 3.5 3.5 0 0 1-7 0Zm3.5-2.5a2.5 2.5 0 1 0 0 5 2.5 2.5 0 0 0 0-5Zm52.937 25.535c2.666 1.54 2.665 5.388 0 6.927L54.162 70.189c-2.666 1.539-5.999-.384-6-3.463l-.007-23.466c-.002-3.08 3.333-5.006 6-3.465l20.32 11.74Z" fill="#8F959E"/><path d="M72.54 92.254c-1.19 1.82-3.183 4.064-5.19 6.223a.5.5 0 0 0 .732.68c2.001-2.152 4.05-4.454 5.295-6.356.617-.941 1.075-1.843 1.198-2.612.062-.392.043-.79-.125-1.146-.174-.366-.478-.63-.873-.797-4.192-1.767-7.725-1.891-11.088-.869-3.336 1.014-6.468 3.146-9.88 5.803-4.854 3.778-9.725 7.442-16.572 7.352a.5.5 0 0 0-.013 1c7.24.095 12.369-3.803 17.198-7.563 3.405-2.65 6.412-4.679 9.557-5.635 3.12-.948 6.411-.852 10.41.834.209.088.306.196.357.303.055.117.083.294.041.56-.087.55-.445 1.303-1.047 2.223Z" fill="#0C296E"/><path d="M72.276 87.733a.5.5 0 0 0-.707.02L61.637 98.29a.5.5 0 0 0 .727.686l9.933-10.536a.5.5 0 0 0-.021-.707Zm-4.71-.556a.5.5 0 0 0-.703-.077c-.716.577-1.563 1.531-2.527 2.619l-.03.034c-.975 1.1-2.097 2.365-3.399 3.626-2.626 2.545-5.949 5.039-10.157 6.053a.5.5 0 0 0 .234.973c4.456-1.075 7.933-3.705 10.619-6.308 1.329-1.288 2.472-2.577 3.443-3.672l.032-.036c.991-1.118 1.775-1.998 2.412-2.51a.5.5 0 0 0 .076-.703Z" fill="#0C296E"/><path d="M77.007 99.595c-.136.378-.59.86-1.727 1.339-5.607 2.363-16.24 4.688-25.52 6.427a480.773 480.773 0 0 1-16.752 2.821l-.265.039-.03.004-26.99-2.649a.5.5 0 1 0-.098.995l27.052 2.656c.04.004.08.003.12-.003l.092-.014.265-.039a413.71 413.71 0 0 0 4.737-.736 481.859 481.859 0 0 0 12.052-2.091c9.261-1.735 20.002-4.077 25.725-6.488 1.218-.514 1.999-1.143 2.28-1.921.292-.81-.019-1.593-.524-2.241a.5.5 0 0 0-.455-.19c-3.053.37-12.892 1.142-21.986 1.823a4448.353 4448.353 0 0 1-15.964 1.167l-1.442.102-.026.003-.01.001-.018.002-.026.002a7.596 7.596 0 0 1-.921.007 10.166 10.166 0 0 1-2.526-.466c-2.014-.638-4.551-2.107-6.574-5.47-.455-.754-.33-1.63.36-2.721.691-1.095 1.877-2.28 3.282-3.532.696-.62 1.436-1.247 2.184-1.882l.007-.006c.749-.635 1.506-1.277 2.225-1.918 1.431-1.274 2.75-2.574 3.583-3.849.471-.72.828-1.344 1.073-1.876.242-.524.39-.994.412-1.4.023-.422-.093-.824-.433-1.099-.313-.252-.727-.322-1.13-.318-.812.01-1.938.325-3.26.813-1.338.494-2.939 1.188-4.723 2-1.295.59-2.689 1.241-4.154 1.927-6.64 3.107-14.752 6.903-21.863 8.685a.5.5 0 1 0 .243.97c7.215-1.808 15.444-5.66 22.082-8.766a431.206 431.206 0 0 1 4.106-1.906c1.78-.81 3.353-1.492 4.656-1.972 1.32-.487 2.302-.744 2.923-.75.312-.004.444.057.49.095.02.015.076.062.065.267-.012.222-.102.558-.322 1.036-.218.472-.546 1.05-1.002 1.747-.755 1.156-1.986 2.381-3.411 3.65-.709.63-1.456 1.265-2.207 1.902l-.011.01a117.7 117.7 0 0 0-2.198 1.893c-1.409 1.255-2.69 2.52-3.463 3.745-.775 1.228-1.111 2.542-.371 3.771 2.16 3.591 4.906 5.203 7.129 5.907 1.107.351 2.078.475 2.776.512.35.018.63.014.828.005.099-.004.176-.01.23-.014l.064-.007.012-.001 1.432-.102a5190.85 5190.85 0 0 0 15.968-1.166c8.808-.66 18.359-1.409 21.736-1.793.27.42.32.768.213 1.063Zm8.438 5.415h8.8c-3.865-.005-7.355-5.675-9.869-14.826h-8.8c2.514 9.151 6.004 14.821 9.869 14.826Zm-9.98-84.765C77.988 10.845 81.525 5 85.445 5h8.8c-3.925 0-7.462 5.845-9.984 15.245h-8.796Zm29.993-3.693c-1.021-3.679-2.197-6.867-3.503-9.43h6.53c1.408 2.52 2.709 5.89 3.846 9.965 1.285 4.64 2.338 10.157 3.088 16.282h-6.786c-.76-6.298-1.84-12-3.175-16.817Zm-4.631-9.43c1.358 2.551 2.594 5.83 3.667 9.697 1.38 4.98 2.49 10.94 3.25 17.55h8.8a144.57 144.57 0 0 0-.118-1c-.755-6.212-1.822-11.822-3.132-16.55-1.225-4.392-2.653-8.026-4.23-10.698h-8.797c.189.32.376.653.56 1Z" fill="#0C296E"/><path d="M107.834 44.95c-.55-9.78-1.89-18.51-3.78-25.3C101.534 10.6 98.074 5 94.244 5h-8.8c3.82 0 7.29 5.6 9.81 14.64 1.89 6.79 3.23 15.53 3.78 25.3h8.8v.01Z" fill="#3370FF"/><path d="M104.054 90.36c1.72-6.21 2.99-14.04 3.62-22.81h-8.8c-.63 8.77-1.9 16.6-3.62 22.81-2.51 9.04-5.98 14.641-9.81 14.641h8.8c3.83 0 7.29-5.6 9.81-14.64Z" fill="#00D6B9"/><path d="M112.694 59.64h-8.8c-.228 8.84-1.085 17.005-2.421 23.9-.065.337-.131.67-.199 1h8.8c1.398-6.853 2.313-15.017 2.592-23.9.01-.332.02-.665.028-1Zm-1.029 1c-.268 8.48-1.118 16.287-2.411 22.9h-6.762c1.278-6.661 2.111-14.469 2.374-22.9h6.799Z" fill="#0C296E"/></svg>