<svg width="350" height="350" viewBox="0 0 350 350" fill="none" xmlns="http://www.w3.org/2000/svg"><path d="M212.977 275.207h-85.002a3.995 3.995 0 0 0-3.996 3.994v44.564a3.995 3.995 0 0 0 3.996 3.994h85.002a3.995 3.995 0 0 0 3.996-3.994v-44.564a3.995 3.995 0 0 0-3.996-3.994Z" fill="#fff" fill-opacity=".3"/><path d="M334.645 269.156a.499.499 0 0 1 .351.476v43.016a.5.5 0 0 1-.999 0v-41.46c-2.798 3.783-5.44 6.213-8.056 7.799-2.902 1.758-5.737 2.456-8.643 2.837-1.324.173-2.658.282-4.019.392-4.628.377-9.58.779-15.608 3.849-5.332 2.715-8.537 6.596-11.663 10.382-1.001 1.212-1.993 2.413-3.045 3.564-2.154 2.357-4.543 4.47-7.733 5.895-3.193 1.425-7.151 2.144-12.422 1.778-10.392-.721-17.46-.356-23.644 1.423-6.181 1.778-11.521 4.979-18.443 10.009-7.624 5.541-15.86 7.95-21.323 8.73a.5.5 0 0 1-.142-.989c5.338-.762 13.412-3.122 20.877-8.548 6.95-5.051 12.403-8.335 18.755-10.162 6.349-1.826 13.553-2.183 23.989-1.459 5.142.357 8.93-.348 11.945-1.694 3.017-1.347 5.297-3.351 7.404-5.656.991-1.085 1.947-2.244 2.926-3.429 3.15-3.818 6.531-7.915 12.065-10.733 6.221-3.168 11.417-3.589 16.07-3.965 1.335-.108 2.625-.213 3.881-.377 2.826-.37 5.513-1.039 8.255-2.701 2.746-1.664 5.581-4.344 8.663-8.785a.497.497 0 0 1 .559-.192Z" fill="#E0E0E0"/><path d="m334.142 288.058.003-.004a.501.501 0 0 1 .855.351v38.922a.5.5 0 0 1-.5.499H199.307a.5.5 0 1 1 0-.998c13.965 0 21.341-4.366 28.097-8.365 2.514-1.488 4.943-2.925 7.592-4.067 8.12-3.513 16.225-2.594 20.171-2.066 7.594.898 14.508.963 20.914-1.254 4.602-1.59 7.181-4.129 9.787-6.693a92.907 92.907 0 0 1 1.587-1.539c3.246-3.053 8.018-6.283 14.805-6.821 2.784-.221 5.698.027 8.516.267.593.051 1.181.101 1.764.146 3.383.263 6.552.365 9.278-.468l.003-.001c3.172-.951 6.25-2.92 8.551-4.671a43.194 43.194 0 0 0 2.751-2.28c.329-.296.586-.538.76-.705l.197-.192.05-.049.012-.012Zm.713.699-.355-.352v.697l.075-.071.207-.201.054-.054.014-.014.004-.004.001-.001ZM77.852 221.953a.526.526 0 0 0-.21 0l-37.863 8.118-.002.001c-7.586 1.556-12.444 9.133-10.696 16.709v.004l11.56 53.845c.049.23.253.395.488.394l45.52-.035a13.434 13.434 0 0 1 7.846 2.507.497.497 0 0 0 .395.082l16.706-3.582h.002c7.586-1.557 12.444-9.133 10.696-16.71v-.004L110.7 229.276a.5.5 0 0 0-.384-.383l-32.464-6.94Z" fill="#42BDEB"/><g filter="url(#ud5bd3p6y65a)"><path d="M110.643 229.002c-1.624-7.497-9.157-12.28-16.69-10.544l-15.699 3.365a.5.5 0 0 0 0 .977l31.796 6.796a.5.5 0 0 0 .593-.594Z" fill="#42BDEB"/></g><path d="m156.161 290.148-1.698-1.697-13.04 13.032-.002.003 13.04 13.032 1.698-1.697-11.343-11.335 11.345-11.338Zm31.368 22.673 1.698 1.697 13.04-13.032.002-.003-13.04-13.032-1.698 1.697 11.342 11.336-11.344 11.337Zm-12.309-23.602h2.594l-12.109 25.299h-2.567l12.082-25.299Z" fill="#fff"/><g filter="url(#uderdxzy6b5b)"><path d="m41.13 300.024 45.519-.036a14.436 14.436 0 0 1 8.428 2.693.5.5 0 0 1-.185.895l-37.475 8.034c-7.574 1.553-14.962-3.107-16.71-10.681l-.002-.008-.063-.293a.5.5 0 0 1 .488-.604Z" fill="#42BDEB"/></g><path d="M100.806 253.461c-.903-1.199-3.278-2.677-7.23-2.677-6.028 0-11.567 1.337-19.023 3.539a.5.5 0 0 1-.283-.957c7.468-2.206 13.124-3.58 19.307-3.58 4.184 0 6.896 1.568 8.032 3.081l.006.009c.513.717.754 1.725.411 2.851-.34 1.116-1.237 2.299-2.903 3.44-2.276 1.659-7.171 3.711-11.51 5.213-2.182.755-4.25 1.38-5.811 1.754-.778.186-1.447.313-1.947.36a3.04 3.04 0 0 1-.675.002 1.07 1.07 0 0 1-.314-.088.678.678 0 0 1-.316-.293c-.503-.911-.484-1.981-.28-2.888.205-.911.616-1.746 1.009-2.237.727-.908 1.799-1.622 2.789-2.282l.038-.025c.301-.201.977-.506 1.768-.845a178.38 178.38 0 0 1 1.823-.767l.966-.403a76.918 76.918 0 0 0 2.735-1.192c.389-.181.722-.347.98-.491.274-.152.42-.256.47-.307a.5.5 0 0 1 .707.706c-.16.16-.417.321-.69.473-.288.16-.645.337-1.044.524-.797.373-1.786.794-2.772 1.208l-.974.406c-.648.27-1.268.528-1.807.76-.826.355-1.4.621-1.608.759-1.035.69-1.98 1.325-2.601 2.1-.286.357-.638 1.048-.814 1.832-.166.733-.16 1.472.119 2.066.086.006.216.005.398-.012.43-.04 1.045-.155 1.807-.337 1.519-.363 3.553-.978 5.717-1.727 4.35-1.505 9.117-3.519 11.254-5.079l.012-.009c1.552-1.061 2.265-2.08 2.518-2.912.25-.82.069-1.505-.264-1.975Z" fill="#000"/><path d="M98.819 259.084a.499.499 0 0 0 0 .706c.348.348.6.61.727.991.013.037.03.073.05.107.413.659.678 1.2.808 1.738.127.528.132 1.084-.022 1.781-.299 1.185-1.119 2.066-2.226 2.79-1.092.715-2.407 1.24-3.666 1.743l-.076.031c-1.59.585-3.69 1.215-5.65 1.72-1.97.508-3.757.88-4.728.96l-.014.002a3.51 3.51 0 0 1-1.942-.371c-.584-.302-.966-.719-1.084-1.135a.214.214 0 0 0-.007-.02c-.19-.572-.086-1.212.44-1.945.537-.747 1.488-1.552 2.901-2.383a.498.498 0 1 0-.506-.86c-1.47.864-2.555 1.754-3.206 2.66-.657.916-.893 1.883-.58 2.833.223.766.857 1.362 1.584 1.737a4.5 4.5 0 0 0 2.503.477c1.065-.09 2.92-.481 4.89-.988 1.982-.511 4.119-1.152 5.75-1.753l.013-.004.12-.049c1.232-.492 2.628-1.049 3.806-1.819 1.223-.8 2.267-1.866 2.649-3.39l.003-.013c.183-.825.188-1.539.019-2.238-.163-.675-.481-1.307-.902-1.985-.212-.589-.608-.984-.925-1.3a.5.5 0 0 0-.73-.023Z" fill="#000"/><path d="M98.95 266.757a.5.5 0 0 0 .087.701c1.315 1.022 1.654 2.984 1.185 4.547l-.004.012c-.216.793-.766 1.474-1.507 2.074-.74.6-1.633 1.089-2.474 1.51-3.365 1.681-6.51 2.831-9.627 2.998-.6 0-1.137-.003-1.606-.097-.46-.091-.802-.262-1.044-.563-.49-.613-.423-1.548.048-2.499.44-.719 1.343-1.336 2.194-1.846a.5.5 0 0 0-.514-.857c-.84.504-1.965 1.237-2.546 2.206a.605.605 0 0 0-.019.033c-.539 1.077-.807 2.507.057 3.586.437.546 1.027.8 1.628.92.579.115 1.214.115 1.789.115h.026l.026-.001c3.324-.174 6.62-1.396 10.034-3.102.855-.428 1.829-.956 2.657-1.627.826-.67 1.547-1.512 1.841-2.581.545-1.826.205-4.267-1.53-5.616a.5.5 0 0 0-.702.087Z" fill="#000"/><path d="M98.51 279.386c.136-1.38-1.125-2.64-2.506-2.502a.5.5 0 0 1-.1-.994c2.01-.2 3.801 1.589 3.6 3.598v.005c-.105.942-.677 1.684-1.364 2.257-.687.572-1.54 1.017-2.316 1.362-3.564 1.695-6.195 2.588-8.35 2.588l-.042-.001c-1.06-.089-2.293-.446-2.975-1.285a2.21 2.21 0 0 1-.486-1.642c.059-.636.35-1.333.89-2.096a.5.5 0 0 1 .816.575c-.479.678-.674 1.21-.71 1.612-.037.387.071.682.266.921.417.514 1.295.834 2.262.918 1.91-.006 4.361-.808 7.905-2.494l.012-.006c.748-.332 1.504-.733 2.088-1.219.584-.487.945-1.015 1.01-1.597Zm-14.663 3.381a.5.5 0 0 0-.673-.216c-6.178 3.171-13.036 4.179-19.918 3.675h-.004c-5.24-.349-10.105 1.922-14.503 4.12a.5.5 0 1 0 .447.893c4.42-2.209 9.054-4.345 13.988-4.017 7.025.514 14.074-.512 20.446-3.782a.5.5 0 0 0 .217-.673Zm-8.239-49.464c-.395-.446-.912-.807-1.54-.807-1.009 0-1.818.674-2.447 1.595-.636.93-1.162 2.215-1.593 3.675-.533 1.721-1.673 3.966-3.162 6.451-1.485 2.479-3.3 5.169-5.161 7.768-3.68 5.139-7.522 9.904-9.32 11.965-1.075.547-2.647 1.498-4.294 2.495l-.634.383c-1.935 1.169-3.904 2.34-5.318 3.005a.499.499 0 1 0 .426.903c1.47-.691 3.486-1.892 5.41-3.054l.628-.38c1.705-1.032 3.28-1.985 4.318-2.503a.497.497 0 0 0 .153-.118c1.793-2.048 5.704-6.891 9.443-12.115 1.87-2.612 3.702-5.326 5.206-7.836 1.5-2.503 2.691-4.833 3.26-6.672l.003-.006c.418-1.42.908-2.592 1.46-3.398.558-.817 1.105-1.159 1.622-1.159.22 0 .488.126.792.47.3.338.582.829.826 1.406.487 1.158.766 2.532.766 3.387 0 2.809-.831 6.567-1.678 9.657a89.001 89.001 0 0 1-1.648 5.325l-.028.079-.007.02-.002.006a.52.52 0 0 0-.013.042c-1.04 3.984-.87 6.449.003 9.416.848 3.05 1.48 6.135.515 9.027a.5.5 0 0 0 .948.316c1.07-3.209.347-6.563-.501-9.614l-.002-.007c-.821-2.789-.99-5.067-.002-8.865l.003-.008.03-.082.108-.315a89.893 89.893 0 0 0 1.56-5.076c.848-3.097 1.713-6.967 1.713-9.921 0-1.009-.314-2.516-.845-3.774-.265-.631-.598-1.231-.998-1.681Z" fill="#000"/><path d="M241.086 196.725a.498.498 0 0 0-.168.685l78.643 129.715a.5.5 0 1 0 .854-.517l-78.643-129.715a.5.5 0 0 0-.686-.168Zm-67.732 4.115a.498.498 0 0 0-.169.685l75.965 125.598a.499.499 0 1 0 .855-.517L174.04 201.009a.5.5 0 0 0-.686-.169Z" fill="#E0E0E0"/><path d="M250.286 211.698a.498.498 0 0 0-.499-.499h-69.581a.5.5 0 0 0 0 .998h69.581a.498.498 0 0 0 .499-.499Zm17.939 29.397a.5.5 0 0 1-.5.499h-69.757a.5.5 0 1 1 0-.999h69.757a.5.5 0 0 1 .5.5Zm19.558 31.869a.5.5 0 0 1-.5.499h-70.252a.498.498 0 1 1 0-.998h70.252a.5.5 0 0 1 .5.499Z" fill="#E0E0E0"/><path d="M27.479 305.162c-5.153.964-8.548 5.919-7.583 11.068.964 5.149 5.923 8.542 11.076 7.578 5.152-.964 8.547-5.919 7.583-11.068-.965-5.149-5.924-8.542-11.076-7.578Z" fill="#41CCB9"/><path d="M135.201 270.044c-12.399-7.154-16.648-22.998-9.489-35.389 7.159-12.391 23.013-16.637 35.412-9.483 12.399 7.154 16.647 22.999 9.489 35.39-7.159 12.391-23.013 16.636-35.412 9.482Z" fill="#FAC823"/><path d="M161.621 255.378a.499.499 0 0 0-.183-.682l-25.858-14.92a.5.5 0 1 0-.499.865l25.858 14.919a.5.5 0 0 0 .682-.182Z" fill="#000"/><path d="M155.929 234.157a.5.5 0 0 0-.682.182l-14.929 25.842a.5.5 0 1 0 .865.499l14.929-25.841a.499.499 0 0 0-.183-.682Z" fill="#000"/><path d="m30.64 173.126-7.191 33.598a4.493 4.493 0 0 0 3.456 5.333l93.869 20.065a4.496 4.496 0 0 0 5.337-3.454l7.191-33.598a4.493 4.493 0 0 0-3.456-5.333l-93.87-20.065a4.496 4.496 0 0 0-5.336 3.454Zm5.127-2.477 93.87 20.064a3.495 3.495 0 0 1 2.688 4.148l-7.191 33.598a3.496 3.496 0 0 1-4.151 2.686l-93.87-20.064a3.495 3.495 0 0 1-2.687-4.148l7.19-33.598a3.496 3.496 0 0 1 4.151-2.686Z" fill="#E0E0E0"/><path d="M45.718 200.143a2.997 2.997 0 0 0-5.854-1.29 2.997 2.997 0 0 0 5.854 1.29Zm6.2 4.348 17.839 3.933a2.996 2.996 0 1 0 1.291-5.85l-17.838-3.933a2.995 2.995 0 1 0-1.291 5.85Zm36.147-8.045a2.998 2.998 0 0 1 5.853 1.291 2.997 2.997 0 0 1-5.853-1.291Zm-7.458 1.339-36.18-7.977a2.995 2.995 0 1 1 1.292-5.85l36.18 7.977a2.995 2.995 0 1 1-1.292 5.85Zm30.106 19.342-28.46-6.275a2.995 2.995 0 1 1 1.292-5.85l28.46 6.275a2.995 2.995 0 1 1-1.292 5.85Z" fill="#fff" fill-opacity=".3"/><path d="M234.831 49.5a.5.5 0 0 1 .5-.5h91.173c4.69 0 8.492 3.8 8.492 8.487v207.011a.5.5 0 1 1-.999 0V57.487a7.49 7.49 0 0 0-7.493-7.489h-91.173a.5.5 0 0 1-.5-.499Zm-149.799 0a.5.5 0 0 0-.5-.5H23.3c-4.69 0-8.493 3.8-8.493 8.487v240.309a.499.499 0 1 0 1 0V57.486a7.49 7.49 0 0 1 7.493-7.488h61.232a.5.5 0 0 0 .5-.499ZM14.011 314.52c-.006-7.996 6.475-14.483 14.476-14.489l58.163-.043c8-.006 14.491 6.471 14.498 14.466.006 7.996-6.475 14.483-14.477 14.489l-58.162.043c-8 .006-14.492-6.471-14.498-14.466Zm14.477-13.491c-7.45.006-13.483 6.045-13.478 13.49.006 7.444 6.05 13.474 13.498 13.468l58.163-.042c7.45-.006 13.483-6.045 13.478-13.49-.006-7.444-6.05-13.474-13.498-13.469l-58.163.043Z" fill="#E0E0E0"/><path d="M291.001 62.04a3.496 3.496 0 0 0-3.497 3.494 3.496 3.496 0 0 0 3.497 3.494 3.495 3.495 0 1 0 0-6.988Zm-4.496 3.494a4.494 4.494 0 0 1 4.496-4.493 4.494 4.494 0 0 1 4.495 4.493 4.494 4.494 0 0 1-4.495 4.493 4.494 4.494 0 0 1-4.496-4.493Zm18.483-3.494a3.495 3.495 0 1 0 0 6.988 3.496 3.496 0 0 0 3.497-3.494 3.496 3.496 0 0 0-3.497-3.495Zm-4.495 3.494a4.493 4.493 0 0 1 4.495-4.493 4.494 4.494 0 0 1 4.496 4.493 4.494 4.494 0 0 1-4.496 4.492 4.494 4.494 0 0 1-4.495-4.492Zm18.482-4.493a4.494 4.494 0 0 0-4.495 4.493 4.494 4.494 0 0 0 4.495 4.492 4.494 4.494 0 0 0 4.496-4.492 4.494 4.494 0 0 0-4.496-4.493Z" fill="#E0E0E0"/><path d="m191.322 186.695 3.606 11.097c.857 4.338 9.029 7.193 14.024 9.225 1.951.796 2.624.787 3.54 1.786 1.273 1.39-1.582.713-1.582.713l-20.99 1.216-5.71-3.249c-1.927-.083-3.319-2.21-2.51-3.957.987-2.187 1.083-4.553.583-6.799l-2.212-7.369" fill="#EBEBEB"/><path d="M191.168 186.222a.5.5 0 0 1 .629.32l3.606 11.097a.6.6 0 0 1 .015.057c.187.946.781 1.85 1.703 2.72.921.868 2.138 1.671 3.506 2.416 2.236 1.217 4.811 2.244 7.052 3.137.507.202.997.398 1.462.587.478.195.878.341 1.228.467l.098.036c.307.11.585.21.838.317a4.096 4.096 0 0 1 1.555 1.091h.001c.176.193.319.389.395.589.081.212.103.482-.059.724-.143.214-.365.302-.517.343a1.978 1.978 0 0 1-.497.058 5.626 5.626 0 0 1-.93-.087 10.363 10.363 0 0 1-.325-.062l-.059-.012-20.92 1.212a.503.503 0 0 1-.276-.064l-5.61-3.192c-2.19-.182-3.766-2.602-2.817-4.656.931-2.065 1.029-4.31.553-6.466l-2.207-7.352a.499.499 0 1 1 .957-.286l2.212 7.369a.357.357 0 0 1 .01.035c.518 2.331.424 4.809-.616 7.112l-.001.004c-.649 1.401.478 3.181 2.077 3.25a.5.5 0 0 1 .226.065l5.582 3.176 20.842-1.208a.473.473 0 0 1 .145.013l.005.001.021.004.081.018c.07.015.17.035.287.054.233.04.51.075.741.074l-.037-.042a3.124 3.124 0 0 0-1.208-.846 16.674 16.674 0 0 0-.792-.299l-.094-.033a32.773 32.773 0 0 1-1.267-.482l.189-.463-.188.463h-.001a182.84 182.84 0 0 0-1.432-.575c-2.242-.894-4.887-1.949-7.182-3.197-1.406-.765-2.705-1.616-3.714-2.567-.998-.941-1.743-2.011-1.991-3.222l.009.027.475-.154-.49.097.006.03-3.597-11.069a.499.499 0 0 1 .321-.629Zm21.278 22.929-.005.002.005-.002Z" fill="#2851A3"/><path d="M219.179 211.502c.077-.756-.239-1.454-.752-1.999-.511-.543-1.236-.958-2.06-1.181l-8.184-2.491a.5.5 0 0 0-.479.106c-2.724 2.436-6.126 2.728-10.401 1.62-4.295-1.114-9.354-3.613-15.283-6.614a.498.498 0 0 0-.723.391l-.088.806c-.351 3.185-.633 5.744.1 8.74a.5.5 0 0 0 .476.381l36.888.689c.26.005.48-.19.506-.448Z" fill="#2851A3"/><path d="m215.602 168.474 7.437 6.783c3.108 3.148 13.193 1.516 18.482.46 2.067-.41 2.624-.789 3.939-.46 1.829.459-.927 1.466-.927 1.466l-16.842 12.578-6.556.435c-1.654.992-3.989-.016-4.277-1.919-.383-2.369-1.608-4.395-3.264-5.994l-5.911-4.93" fill="#EBEBEB"/><path d="M215.233 168.138a.5.5 0 0 1 .706-.032l7.437 6.783.019.018c.672.681 1.767 1.143 3.191 1.408 1.414.264 3.09.323 4.856.25 3.531-.144 7.344-.81 9.982-1.337.506-.1.921-.199 1.282-.287l.102-.024c.316-.077.604-.147.873-.197a4.105 4.105 0 0 1 1.9.053h.001c.253.064.48.149.654.274.185.132.352.345.35.637a.878.878 0 0 1-.241.57 2.008 2.008 0 0 1-.384.323 5.658 5.658 0 0 1-.823.439 7.58 7.58 0 0 1-.306.128l-.056.022-16.786 12.536a.491.491 0 0 1-.265.098l-6.442.428c-1.927 1.054-4.577-.096-4.919-2.333-.362-2.236-1.518-4.163-3.104-5.7l-5.897-4.918a.498.498 0 1 1 .64-.766l5.911 4.93a.291.291 0 0 1 .027.024c1.718 1.659 3.007 3.779 3.41 6.273l.001.004c.231 1.526 2.154 2.39 3.526 1.567a.491.491 0 0 1 .224-.07l6.409-.425 16.723-12.49a.51.51 0 0 1 .128-.069h.001l.004-.002.02-.007.077-.03c.067-.027.162-.065.269-.113a4.7 4.7 0 0 0 .66-.347l-.054-.014a3.117 3.117 0 0 0-1.475-.041c-.241.045-.501.109-.825.187l-.097.024c-.366.088-.796.191-1.323.295-2.651.53-6.525 1.208-10.136 1.356-1.805.074-3.564.017-5.08-.266-1.501-.28-2.828-.792-3.71-1.679l-7.428-6.775a.5.5 0 0 1-.032-.705Zm30.379 7.434-.003.005a.052.052 0 0 0 .003-.005Z" fill="#2851A3"/><path d="M252.528 173.825c-.353-.673-1.002-1.082-1.731-1.254-.726-.171-1.56-.118-2.37.149l-8.202 2.431a.498.498 0 0 0-.341.352c-.929 3.533-3.606 5.651-7.785 7.081-4.198 1.437-9.797 2.139-16.4 2.901a.498.498 0 0 0-.387.725c.127.244.25.484.371.721 1.464 2.851 2.64 5.141 4.904 7.237a.499.499 0 0 0 .607.055l31.158-19.745a.5.5 0 0 0 .176-.653Zm-85.266-52.108c-4.006-.778-8.379.105-12.889 1.966-4.513 1.863-9.21 4.726-13.886 7.969-4.108 2.85-8.217 6.006-12.181 9.051l-.001.001-1.633 1.253c-4.263 3.269-8.329 6.335-12.039 8.692l-2.451-7.359a.5.5 0 0 0-.362-.329l-24.845-5.753a.5.5 0 0 0-.59.342c-3.667 12.124-4.044 21.174-2.493 27.932 1.553 6.77 5.033 11.206 9.008 14.1 3.965 2.886 8.402 4.226 11.871 4.847 1.737.311 3.237.443 4.323.499a30.16 30.16 0 0 0 1.67.037l.107-.001h.033-.001c12.546.502 23.077-7.192 31.361-16.102 4.149-4.464 7.756-9.255 10.79-13.523a450.775 450.775 0 0 0 3.214-4.6c1.326-1.915 2.496-3.606 3.515-4.971l.033.129c.188.743.471 1.831.848 3.208a246.766 246.766 0 0 0 3.404 11.305c3.03 9.276 7.592 21.467 13.717 33.107a.5.5 0 0 0 .571.25l14.689-3.923a.497.497 0 0 0 .351-.619v-.001l-.141-.495-.403-1.419a5084.383 5084.383 0 0 0-6.277-21.851c-3.707-12.782-8.012-27.381-10.394-34.612-1.407-4.279-4.384-8.248-8.919-9.13Z" fill="#2851A3"/><path d="m219.359 170.797.237.231a.5.5 0 0 1-.017.731l-12.262 10.899a.499.499 0 0 1-.647.014l-23.944-19.462-36.445-26.961a.5.5 0 0 1 .01-.81c1.491-1.049 5.974-4.149 10.655-6.867 2.339-1.358 4.74-2.628 6.849-3.499 1.055-.435 2.048-.775 2.931-.976.859-.194 1.657-.266 2.319-.131 4.605.368 9.164 2.649 17.424 12.366 6.131 7.213 14.41 15.885 21.163 22.759a865.878 865.878 0 0 0 11.044 11.039l.683.667ZM107.426 68.945c.286-.678.607-1.236 1.213-1.843 1.32-1.402 2.212-3.316 2.177-5.289-.048-.76.25-1.438.487-2.27.999-2.092 3.295-3.292 5.531-2.936.939.072 1.867-.475 1.939-1.402.035-.476.107-.785.321-1.153 1.141-2.746 4.15-4.124 7.041-3.007.142-.024.178.107.321.071 1.581.82 3.282.238 4.852-.773 1.332-.796 2.45-1.236 4.496-.368.678.285 1.403.713 1.843 1.212 1.261 1.367 3.105 1.973 4.9 1.807.904-.071 1.725.178 2.593.559 1.939 1.034 3.104 3.185 2.938 5.527-.107.784.547 1.545 1.332 1.64.761-.048 1.439.25 2.272.487 2.414 1.07 3.58 3.84 2.866 6.466-.071.32-.178.5-.25.832-.939 1.759-.844 3.887.202 5.598.619 1.213 1.13 2.627.666 3.815-.356 1.01-1.034 1.938-1.974 2.496-1.189.761-1.748 2.14-1.391 3.554.297 1.153.142 2.401-.31 3.602-.999 2.092-3.258 3.423-5.494 3.078-.94-.071-1.844.618-2.082 1.45a2.89 2.89 0 0 1-.428 1.331c-1.118 2.27-3.723 3.4-6.173 2.782-2.45-.607-3.901-2.687-4.15-4.91-2.807.405-5.781.084-8.683-1.01-.678-.285-1.367-.558-1.914-.89-1.463 1.437-3.616 1.984-5.686 1.14-1.51-.535-2.592-1.795-3.104-3.185-.499-1.39-1.522-2.377-2.89-2.936-.178-.107-.357-.202-.499-.178-2.415-1.07-3.58-3.84-2.986-6.288.072-.32.179-.5.25-.832.559-1.367.642-2.924.012-4.136-.725-1.153-.809-2.663-.238-4.041Z" fill="#2851A3"/><path d="m126.206 105.695.142-8.297 4.746-5.336c.892.737 1.486 1.188 2.378 1.485 4.449 1.486 6.53-1.782 9.051-6.37l1.784.737c.143 0 .298 0 .298-.298l-.298-5.194s1.784-5.04 1.927-8.45c.297-8.011-14.391-18.09-23.442-8.451-7.564 7.856-.737 18.684-.737 18.684s-4.246 6.288-8.1 9.402" fill="#EBEBEB"/><path d="M144.366 67.61c1.521 1.98 2.447 4.223 2.367 6.379v.002c-.074 1.765-.568 3.923-1.034 5.616a51.585 51.585 0 0 1-.842 2.751l-.045.133.291 5.096.001.028c0 .222-.059.505-.32.677-.191.126-.413.12-.468.12h-.009a.495.495 0 0 1-.19-.038l-1.372-.567c-1.174 2.12-2.311 4.008-3.697 5.209-.748.647-1.581 1.107-2.543 1.296-.961.19-2.014.1-3.191-.293-.845-.281-1.448-.693-2.165-1.269l-4.304 4.84-.14 8.112a.499.499 0 1 1-.999-.017l.143-8.297a.5.5 0 0 1 .126-.323l4.745-5.336a.5.5 0 0 1 .692-.053c.889.734 1.422 1.131 2.218 1.396 1.048.35 1.924.41 2.682.26.758-.148 1.437-.513 2.081-1.071 1.312-1.136 2.423-3.016 3.693-5.326a.499.499 0 0 1 .628-.221l1.371.566-.276-4.83a.497.497 0 0 1 .027-.196l.005-.013.014-.041.056-.163a51.114 51.114 0 0 0 .825-2.695c.461-1.679.93-3.746.999-5.392.068-1.85-.73-3.87-2.162-5.731-1.427-1.857-3.457-3.519-5.773-4.644-4.628-2.25-10.308-2.331-14.644 2.286l-.004.005c-3.627 3.767-3.818 8.246-3.076 11.841a21.202 21.202 0 0 0 2.138 5.775c.083.151.15.267.196.344l.052.086.012.02.003.005a.5.5 0 0 1-.008.546l-.414-.28.414.28-.004.005-.009.014-.038.055-.143.208a72.244 72.244 0 0 1-2.432 3.28c-1.548 1.968-3.601 4.355-5.574 5.949a.5.5 0 0 1-.628-.777c1.881-1.52 3.878-3.834 5.416-5.789a70.628 70.628 0 0 0 2.397-3.233l.008-.011a20.928 20.928 0 0 1-.81-1.587 22.119 22.119 0 0 1-1.554-4.688c-.781-3.783-.603-8.645 3.332-12.733 4.715-5.02 10.903-4.882 15.807-2.499 2.45 1.19 4.603 2.949 6.129 4.934Z" fill="#2851A3"/><path d="M128.31 87.132a.5.5 0 0 1 .605.365c.414 1.679 1.111 2.784 2.408 4.232a.499.499 0 1 1-.744.666c-1.367-1.524-2.169-2.772-2.634-4.659a.499.499 0 0 1 .365-.604Zm9.08-29.66a.5.5 0 0 0-.418-.15l-16.615 1.913a.498.498 0 0 0-.225.084c-2.837 1.938-5.818 4.718-6.29 8.494-.308 1.861.151 3.556.578 5.134l.029.108.002.006c.159.557.322 1.113.485 1.669 1.07 3.645 2.138 7.284 2.017 10.931v.024c0 .076 0 .222.024.373.023.142.08.382.265.567.128.127.291.23.434.301.113.056.279.124.448.14 3.816.78 7.544-1.45 9.542-4.68a.573.573 0 0 0 .03-.056l1.958-4.317 18.543-1.31a.499.499 0 0 0 .461-.556l-.892-7.713a.506.506 0 0 0-.136-.288l-10.24-10.674Z" fill="#2851A3"/><path d="m130.058 80.496-1.189-.736a5.966 5.966 0 0 1-1.927-1.926c-.594-.891-.892-2.223-.44-3.114.143-.594 1.487-2.674 3.711-1.331.892.44 2.521 2.817 2.819 3.257" fill="#EBEBEB"/><path d="M127.239 74.358a1.68 1.68 0 0 0-.251.478.473.473 0 0 1-.04.109c-.163.32-.207.76-.125 1.25a3.574 3.574 0 0 0 .548 1.383 5.474 5.474 0 0 0 1.754 1.752l.007.004 1.19.737a.5.5 0 0 1-.527.849l-1.186-.735a6.465 6.465 0 0 1-2.089-2.085 4.58 4.58 0 0 1-.683-1.742c-.1-.604-.071-1.255.196-1.815.064-.221.202-.494.388-.758.208-.296.5-.617.877-.872a2.649 2.649 0 0 1 1.4-.466c.547-.02 1.136.133 1.756.504.299.152.611.431.893.722.299.309.607.675.891 1.034a29.768 29.768 0 0 1 1.208 1.658.5.5 0 0 1-.828.56c-.146-.217-.62-.91-1.165-1.6a12.583 12.583 0 0 0-.824-.957c-.277-.286-.496-.463-.637-.532a.438.438 0 0 1-.037-.02c-.486-.294-.892-.383-1.222-.371a1.651 1.651 0 0 0-.876.296 2.44 2.44 0 0 0-.618.617Z" fill="#2851A3"/><path d="M143.95 63.894c-2.119-1.137-4.901-.67-6.397 1.149-1.139 1.281-1.53 3.042-1.19 4.658-1.729-.035-3.472.76-4.477 2.204l-.006.007c-1.624 2.43-1.148 5.72 1.329 7.361 1.841 1.227 3.581.496 4.924-.068.151-.063.297-.125.438-.18l.01-.005c.909-.387 2.089-.38 2.972.118l.006.003c.863.472 2.043.89 3.275.765 1.265-.13 2.511-.823 3.471-2.433l.012-.02c1.267-2.38.974-5.47-1.463-7.274a1.661 1.661 0 0 0-.31-.223c.549-2.316-.43-4.827-2.583-6.056l-.011-.006Z" fill="#2851A3"/><path d="M113.955 93.096c-1.158 0-2.397.397-3.628 1.035-1.235.64-2.492 1.538-3.697 2.58-2.409 2.079-4.653 4.763-6.137 7.203l-.381.627c-3.764 6.192-6.25 10.282-8.322 14.803-2.144 4.678-3.838 9.806-6.065 18.195a.5.5 0 0 0 .373.615l25.321 5.717a.499.499 0 0 0 .468-.138l6.946-7.12.036-.042.005-.006.006-.008.007-.01.016-.022.056-.082.215-.312a162.349 162.349 0 0 0 3.207-4.888 90.565 90.565 0 0 0 2.652-4.457c.787-1.434 1.438-2.776 1.734-3.761.271-.902.426-2.229.506-3.732.081-1.514.086-3.244.045-4.972-.084-3.453-.358-6.931-.618-8.699-.758-5.199-3.256-8.345-5.921-10.181-2.646-1.823-5.44-2.345-6.824-2.345Z" fill="#41CCB9"/><path d="M222.448 84.673a.5.5 0 0 1 .161.688l-21.218 34.1a.5.5 0 0 1-.424.235h-27.891a.5.5 0 0 1 0-.998h27.613l21.071-33.865a.5.5 0 0 1 .688-.16Z" fill="#2851A3"/><path d="M176.598 111.684s14.688-4.54 17.566-3.577c2.878.962-8.539 2.793-8.539 2.793" fill="#EBEBEB"/><path d="m176.745 112.162-.148-.476-.147-.477.043-.014.124-.038.473-.143c.409-.123.996-.297 1.708-.502 1.426-.412 3.358-.951 5.381-1.46 2.021-.509 4.143-.99 5.945-1.284a22.016 22.016 0 0 1 2.435-.281c.688-.033 1.311-.004 1.763.147.202.068.402.158.552.291.17.151.311.401.233.704-.062.239-.237.399-.361.492a2.723 2.723 0 0 1-.493.283c-.718.331-1.923.66-3.167.948a81.238 81.238 0 0 1-3.633.739c-.515.094-.952.17-1.26.222l-.36.06-.096.016-.033.005-.08-.493.08.493a.5.5 0 0 1-.159-.986l.079.492-.079-.492.032-.005.094-.015.355-.06c.305-.051.737-.126 1.248-.219a79.152 79.152 0 0 0 3.586-.73c1.21-.28 2.289-.579 2.913-.854-.275-.048-.664-.065-1.167-.041-.651.031-1.44.126-2.321.269-1.761.287-3.851.761-5.862 1.267a161.124 161.124 0 0 0-5.347 1.451 168.637 168.637 0 0 0-2.167.641l-.123.038-.041.012Zm-.625-.329a.498.498 0 0 1 .33-.624l.147.477.148.476a.499.499 0 0 1-.625-.329Z" fill="#2851A3"/><path d="M191.381 110.698c-6.339-.618-19.005.737-22.383 1.415-2.807.559-7.195 2.781-10.193 5.313-6.291 5.325-27.604 20.895-27.604 20.895l-4.912-14.964-13.713 4.124s6.053 12.92 8.301 17.116c2.129 3.958 7.838 17.091 19.827 1.747 6.85-7.512 20.397-21.133 24.084-25.745l12.214-2.234s14.379-2.104 16.604-2.877c1.926-.689 4.091-4.16-2.225-4.79Z" fill="#EBEBEB"/><path d="M179.039 110.422c4.385-.346 9.174-.534 12.39-.22h.002c1.615.161 2.754.509 3.505.995.77.5 1.142 1.158 1.147 1.871.005.679-.324 1.31-.747 1.797-.426.491-.993.89-1.563 1.094l-.004.001c-.6.209-1.958.491-3.606.795a260.41 260.41 0 0 1-5.614.954c-1.939.312-3.807.599-5.191.809l-1.661.249-.46.068-.154.023-12.023 2.199c-1.921 2.37-6.168 6.86-10.767 11.672l-2.655 2.774c-3.884 4.055-7.77 8.113-10.553 11.163-3.018 3.86-5.687 5.991-8.059 6.901-2.405.922-4.467.575-6.185-.427-1.694-.987-3.033-2.594-4.071-4.168-.817-1.238-1.472-2.493-1.967-3.442a61.548 61.548 0 0 0-.366-.697c-1.131-2.11-3.212-6.401-5.005-10.152-.897-1.878-1.725-3.625-2.328-4.902l-.717-1.522-.264-.563.452-.213-.452.213a.5.5 0 0 1 .308-.691l13.713-4.124a.5.5 0 0 1 .619.322l4.697 14.311.373-.273a1566.066 1566.066 0 0 0 10.511-7.769c6.119-4.561 13.006-9.775 16.138-12.425 3.046-2.573 7.51-4.843 10.418-5.421 1.718-.345 5.753-.855 10.139-1.202ZM131.2 138.321l.295.403a.501.501 0 0 1-.769-.247l-4.761-14.502-12.692 3.818.019.039.716 1.521a1121.31 1121.31 0 0 0 2.326 4.898c1.795 3.756 3.865 8.024 4.983 10.109m0 0c.119.222.247.468.385.733.495.948 1.116 2.139 1.902 3.33 1.005 1.523 2.242 2.981 3.74 3.855 1.474.858 3.22 1.164 5.324.357 2.133-.818 4.67-2.795 7.641-6.598l.025-.029c2.793-3.063 6.696-7.138 10.587-11.2.888-.928 1.776-1.855 2.649-2.769 4.712-4.929 9.001-9.467 10.827-11.751a.502.502 0 0 1 .3-.18l12.215-2.234.018-.003.072.494-.072-.494.161-.024.46-.068 1.657-.248c1.382-.21 3.248-.496 5.182-.807 1.935-.311 3.937-.646 5.592-.951 1.671-.308 2.943-.577 3.457-.755a2.881 2.881 0 0 0 1.142-.807c.327-.377.506-.782.503-1.136-.002-.32-.153-.69-.692-1.04-.56-.363-1.518-.686-3.06-.84-3.123-.304-7.836-.123-12.214.223-4.375.345-8.364.852-10.023 1.185-2.706.538-7.019 2.714-9.967 5.204-3.16 2.674-10.075 7.908-16.186 12.464a1726.302 1726.302 0 0 1-11.206 8.277l-.24.175-.001.001-.295-.403" fill="#2851A3"/><path d="M178.309 115.225a.5.5 0 0 1 .503-.496c.996.006 3.916.249 6.555.487a634 634 0 0 1 3.526.329c.467.044.851.082 1.119.108l.418.041-.049.496.049-.496a.5.5 0 0 1-.098.993l.049-.497-.049.497-.417-.041-1.117-.107c-.933-.09-2.197-.209-3.521-.328-2.663-.241-5.529-.478-6.471-.484a.5.5 0 0 1-.497-.502Zm16.51-2.399-.024.499-.024.499-.529-.026-1.41-.065a773.189 773.189 0 0 0-4.413-.19c-3.317-.133-6.821-.246-7.755-.183a.5.5 0 0 1-.068-.997c1.004-.067 4.583.051 7.863.182 1.651.067 3.241.137 4.418.191.589.026 1.074.049 1.412.065l.53.025Zm.475.523a.5.5 0 0 1-.523.475l.024-.499.024-.499a.5.5 0 0 1 .475.523Z" fill="#2851A3"/><path d="M112.576 127.482c-4.187-12.694-15.117-13.17-3.913-27.575 1.617-2.08 6.672.392 9.277.725 2.628.345 6.719 1.628 8.099 3.875 2.105 9.413 1.237 19.266 1.237 19.266l-14.7 3.709Z" fill="#41CCB9"/><path d="M110.465 99.594c.668-.05 1.476.062 2.357.258.746.167 1.515.387 2.265.602l.395.112c.859.245 1.699.473 2.393.562 1.275.167 2.91.563 4.387 1.188 1.46.618 2.686 1.426 3.308 2.384 1.027 4.634 1.331 9.378 1.377 12.977a76.523 76.523 0 0 1-.068 4.388c-.024.531-.049.949-.069 1.233l-.005.08-13.905 3.508c-1.055-3.021-2.482-5.347-3.868-7.328a99.848 99.848 0 0 0-1.339-1.852c-.941-1.281-1.779-2.422-2.404-3.603-.885-1.672-1.298-3.359-.842-5.49.462-2.161 1.827-4.821 4.61-8.399.285-.368.745-.57 1.408-.62Zm16.811 24.18.497.044v-.003l.001-.005.002-.023.007-.087.024-.334c.02-.291.046-.717.07-1.256.049-1.079.092-2.614.069-4.446-.046-3.659-.357-8.513-1.42-13.266a.502.502 0 0 0-.062-.152c-.772-1.258-2.259-2.192-3.812-2.849a18.716 18.716 0 0 0-4.648-1.259l-.001-.001c-.608-.077-1.377-.283-2.248-.53l-.387-.111a40.821 40.821 0 0 0-2.329-.618c-.91-.203-1.832-.34-2.648-.28-.821.062-1.6.33-2.123 1.003-2.819 3.625-4.29 6.426-4.798 8.803-.515 2.406-.034 4.332.936 6.166.66 1.248 1.568 2.484 2.533 3.798a93.7 93.7 0 0 1 1.274 1.762c1.423 2.034 2.862 4.399 3.888 7.509a.499.499 0 0 0 .597.327l14.7-3.708a.499.499 0 0 0 .375-.44l-.497-.044Z" fill="#41CCB9"/><path d="M106.06 111.215a.5.5 0 0 1 .636.308l5.474 15.716 14.99-3.947a.5.5 0 1 1 .255.965l-15.438 4.065a.5.5 0 0 1-.599-.318l-5.625-16.153a.5.5 0 0 1 .307-.636Z" fill="#2851A3"/><path d="M169.988 122.303a.5.5 0 0 1 .695-.129c2.543 1.744 4.308 4.584 5.306 7.612 2.382 7.237 6.678 21.831 10.388 34.617a.498.498 0 1 1-.959.278c-3.712-12.792-8.003-27.366-10.378-34.582-.953-2.891-2.613-5.518-4.922-7.102a.499.499 0 0 1-.13-.694Z" fill="#EBEBEB"/><defs><filter id="ud5bd3p6y65a" x="73.859" y="214.102" width="40.794" height="19.505" filterUnits="userSpaceOnUse" color-interpolation-filters="sRGB"><feFlood flood-opacity="0" result="BackgroundImageFix"/><feBlend in="SourceGraphic" in2="BackgroundImageFix" result="shape"/><feGaussianBlur stdDeviation="2" result="effect1_foregroundBlur"/></filter><filter id="uderdxzy6b5b" x="36.631" y="295.988" width="62.656" height="19.919" filterUnits="userSpaceOnUse" color-interpolation-filters="sRGB"><feFlood flood-opacity="0" result="BackgroundImageFix"/><feBlend in="SourceGraphic" in2="BackgroundImageFix" result="shape"/><feGaussianBlur stdDeviation="2" result="effect1_foregroundBlur"/></filter></defs></svg>