<svg width="120" height="120" viewBox="0 0 120 120" fill="none" xmlns="http://www.w3.org/2000/svg"><path d="M13.548 18.982V39.97a.5.5 0 1 0 1 0V18.982a3.5 3.5 0 0 1 3.5-3.5h76.25v12.872a.5.5 0 1 0 1 0V14.982a.5.5 0 0 0-.5-.5h-76.75a4.5 4.5 0 0 0-4.5 4.5ZM7.674 83.984A3.374 3.374 0 0 0 4.3 87.36c0 4.45 4.205 7.927 9.218 7.927h69.817c.02 0 .039-.001.058-.003a9.078 9.078 0 0 0 2.907-.49.5.5 0 0 0-.326-.946 8.083 8.083 0 0 1-2.64.436c-3.924 0-6.966-2.697-6.966-5.861a4.437 4.437 0 0 0-4.438-4.438H7.674ZM79.2 94.286H13.518c-4.617 0-8.218-3.173-8.218-6.927a2.374 2.374 0 0 1 2.374-2.374H71.93a3.437 3.437 0 0 1 3.438 3.437c0 2.519 1.552 4.672 3.832 5.864Z" fill="#5F5F5F"/><path d="M14.254 79.115a.5.5 0 0 1 .5.5V84a.5.5 0 0 1-1 0v-4.385a.5.5 0 0 1 .5-.5ZM21.5 26a.5.5 0 0 1 .5-.5h30a.5.5 0 0 1 0 1H22a.5.5 0 0 1-.5-.5Zm0 6a.5.5 0 0 1 .5-.5h22a.5.5 0 0 1 0 1H22a.5.5 0 0 1-.5-.5Z" fill="#5F5F5F"/><path d="M110.12 72c4.827 1.78 5.196 4.841 5.227 6.198v8.927c-.316-3.549-2.019-8.735-6.637-9.125l1.41-6Z" fill="#0C296E"/><path d="M115.368 87.549c-.62 5.217-14.911 8.468-27.136 8.468v-7.992c10.467 0 26.272-2.56 27.118-9.676l.018 9.2Z" fill="#41CCB9"/><path d="M42.636 102.341v7.62c29.614-4.976 65.37 3.639 73.12-6.559v-8.056C105.558 105.95 71.431 97 42.636 102.34Z" fill="#4C88FF"/><path d="M86.137 39.75c9.94 0 18-8.059 18-18s-8.06-18-18-18c-9.941 0-18 8.059-18 18s8.059 18 18 18ZM84.5 14.386a.82.82 0 0 1 .819-.818h1.636c.452 0 .818.367.818.818v5.728H93.5c.452 0 .819.366.819.818v1.636a.818.818 0 0 1-.819.818h-5.727v5.728a.818.818 0 0 1-.818.818h-1.636a.818.818 0 0 1-.819-.818v-5.728h-5.727a.818.818 0 0 1-.818-.818v-1.636c0-.452.366-.818.818-.818H84.5v-5.728Z" fill="#FAC823"/><path d="M84.5 14.386c0-.452.366-.818.818-.818h1.637c.451 0 .818.366.818.818v5.728H93.5c.452 0 .818.366.818.818v1.636a.818.818 0 0 1-.818.818h-5.727v5.728a.818.818 0 0 1-.818.818h-1.637a.818.818 0 0 1-.818-.818v-5.728h-5.727a.818.818 0 0 1-.818-.818v-1.636c0-.452.366-.818.818-.818H84.5v-5.728Z" fill="#fff"/><path d="M102.568 40.848a.5.5 0 0 0-.076-.997l.037.498-.038-.498h-.008l-.018.002a4.684 4.684 0 0 0-.293.036c-.197.03-.48.079-.831.16-.702.165-1.682.46-2.808.984-2.255 1.051-5.09 3.023-7.453 6.697a.5.5 0 0 0 .84.54c2.25-3.494 4.93-5.348 7.036-6.33a13.5 13.5 0 0 1 2.612-.916 9.323 9.323 0 0 1 .943-.17l.046-.005h.009l.002-.001Z" fill="#E0E0E0"/><path d="M112.82 60.799a.481.481 0 0 1-.014.146l-.485-.12.485.12-.076.307-.214.873c-.185.753-.45 1.831-.767 3.135-.634 2.607-1.48 6.112-2.325 9.704a560.678 560.678 0 0 0-2.325 10.227c-.316 1.478-.58 2.772-.763 3.782-.178.978-.273 1.65-.282 1.97l3.708 18.422a.5.5 0 0 1-.981.198l-3.718-18.476a.467.467 0 0 1-.01-.098c0-.407.116-1.189.299-2.195.186-1.025.452-2.33.77-3.812a556.02 556.02 0 0 1 2.328-10.247 1374.172 1374.172 0 0 1 3.095-12.849l.214-.873.059-.236a171.555 171.555 0 0 0-1.095-12.06c-.527-4.113-1.189-7.863-1.927-10.13-1.502-4.617-6.045-16.4-7.453-19.426-.29-.625-.55-1.237-.784-1.79a53.66 53.66 0 0 0-.162-.38c-.28-.656-.515-1.183-.73-1.544a1.776 1.776 0 0 0-.248-.341 1.973 1.973 0 0 0-.28.464c-.385.818-.551 2.095-.499 3.738.052 1.628.315 3.556.735 5.634.84 4.157 2.297 8.868 3.894 12.903.019.048.03.099.034.15.277 4.097.617 10.682-1.386 16.751a.423.423 0 0 1-.013.035c-.996 2.405-2.117 3.856-3.36 4.8-1.04.792-2.14 1.204-3.234 1.54.182.307.374.605.577.897a.5.5 0 1 1-.82.572 15.83 15.83 0 0 1-.895-1.445.497.497 0 0 1-.093-.172c-2.197-4.111-2.76-9.18-3.157-13.503l-.08-.883c-.192-2.128-.364-4.032-.691-5.556-.38-1.768-.928-2.812-1.74-3.193-.42-.196-.708-.174-.934-.061-.252.126-.52.413-.777.928-.516 1.032-.865 2.72-1.103 4.817-.315 2.768-.424 6.103-.53 9.313a242.287 242.287 0 0 1-.184 4.728c-.392 7.995 1.12 13.981 3.802 24.604a982.422 982.422 0 0 1 1.63 6.519.5.5 0 0 1 .012.067l2.248 21.653a.5.5 0 1 1-.995.103l-2.244-21.618c-.574-2.335-1.114-4.471-1.614-6.452-2.684-10.623-4.237-16.771-3.838-24.925v-.002c.076-1.438.129-3.02.182-4.647.106-3.237.218-6.65.537-9.456.24-2.103.601-3.947 1.203-5.151.3-.603.694-1.11 1.224-1.376.558-.279 1.174-.245 1.806.051 1.289.605 1.912 2.115 2.293 3.888.34 1.589.518 3.56.709 5.676l.08.881c.391 4.26.935 9.003 2.899 12.849 1.136-.342 2.161-.71 3.122-1.441 1.064-.809 2.088-2.092 3.034-4.371 1.916-5.822 1.613-12.176 1.337-16.275-1.603-4.065-3.067-8.802-3.915-13-.427-2.11-.7-4.097-.754-5.8-.054-1.688.105-3.159.594-4.197.139-.293.287-.542.457-.725.171-.183.407-.345.708-.35.296-.005.53.145.692.297.163.153.306.356.434.57.255.429.516 1.019.791 1.664l.165.388c.234.552.485 1.145.768 1.752 1.429 3.073 5.986 14.894 7.497 19.538.769 2.364 1.441 6.196 1.967 10.314.529 4.128.915 8.581 1.106 12.208Z" fill="#E0E0E0"/><path d="M103.023 47.84a.5.5 0 0 1-.415.572c-1.551.247-3.764 1.23-5.71 2.461-.966.612-1.848 1.274-2.532 1.918-.697.654-1.145 1.247-1.31 1.715a.5.5 0 0 1-.943-.333c.247-.698.837-1.425 1.568-2.111.742-.698 1.678-1.397 2.683-2.033 1.997-1.265 4.343-2.327 6.086-2.604a.5.5 0 0 1 .573.415Zm-2.716 8.635a.5.5 0 0 1-.696.126c-1.048-.728-2.152-1.05-3.204-.95-1.047.1-2.096.622-3.032 1.68a.5.5 0 0 1-.749-.662c1.08-1.221 2.353-1.886 3.686-2.013 1.33-.126 2.665.287 3.869 1.123a.5.5 0 0 1 .126.696Z" fill="#E0E0E0"/><path d="M7 45a4 4 0 0 1 4-4h53a4 4 0 0 1 4 4v29a4 4 0 0 1-4 4H11a4 4 0 0 1-4-4V45Z" fill="#41CCB9"/><path d="m40.258 63.493 25.908-20.098a.5.5 0 1 0-.613-.79L39.646 62.703a3.5 3.5 0 0 1-4.291 0L9.447 42.605a.5.5 0 1 0-.613.79l25.908 20.098a4.5 4.5 0 0 0 5.516 0Z" fill="#5F5F5F"/><path d="M30.392 59.19a.5.5 0 0 1-.082.702l-20.86 16.5a.5.5 0 0 1-.62-.784l20.86-16.5a.5.5 0 0 1 .702.082Zm14.215 0a.5.5 0 0 1 .703-.082l20.86 16.5a.5.5 0 1 1-.62.784l-20.86-16.5a.5.5 0 0 1-.083-.702Z" fill="#5F5F5F"/></svg>