<svg width="120" height="120" viewBox="0 0 120 120" fill="none" xmlns="http://www.w3.org/2000/svg"><path d="M63.185 103.816c-11.43 0-41.774-3.022-48.031-5.835.184 1.945-.24 4.699 0 7.222 11.251 4.81 48.031 5.829 48.031 5.829v-7.216Z" fill="#3370FF"/><path d="M100.994 20.025c.643-.187 1.055-.306 1.055-1.576v8.666c0 1.915-1.269 3.208-3.544 4.89-4.29 2.928-9.066 5.248-13.724 7.403l-5.74-4.31a3.944 3.944 0 0 0-2.69-.794c.214-.09.42-.176.614-.259 1.203-.59 2.5-1.205 3.848-1.844 6.755-3.205 14.762-7.004 18.384-11.085.679-.767 1.305-.949 1.797-1.091ZM72.669 37.819l-.924 7.669c-3.95 1.734-8.495 3.566-13.091 5.395a3.998 3.998 0 0 0-3.093-2.463l-9.096-1.428c9.657-4.357 19.043-8.218 25.34-10.81h.002l2.212-.91a3.944 3.944 0 0 0-1.35 2.547ZM22.821 58.79c-2.796 1.61-5.335 3.199-7.497 4.735-1.771 1.538-3.199 3.07-4.245 4.55a14.347 14.347 0 0 0-1.3 2.215 9.494 9.494 0 0 0-.719 2.155c-.095.478-.141.95-.141 1.414h-.002v6.988c0-.463.048-.936.142-1.414.139-.7.72-.155.72-.155s.771-1.468 1.3-2.216c1.045-1.48 4.431-4.456 6.203-5.994a81.274 81.274 0 0 1 4.041-2.735l1.498-9.543Z" fill="#0C296E"/><path d="M105.527 54.984c2.462 1.848 2 5.669-.831 6.877L74.252 74.858c-2.832 1.208-5.91-1.1-5.542-4.157l3.959-32.883c.368-3.059 3.91-4.57 6.373-2.72l26.485 19.886ZM55.56 48.42l-26.41-4.146a4 4 0 0 0-4.573 3.33l-4.146 26.412a4 4 0 0 0 3.331 4.572l26.412 4.147a4 4 0 0 0 4.572-3.332l4.146-26.411a4 4 0 0 0-3.331-4.572Z" fill="#BBBFC4" fill-opacity=".45"/><path d="M8.917 73.488a9.112 9.112 0 0 0 .603 3.292c.255.67.587 1.315.983 1.918 2.363 3.595 6.676 5.384 10.687 6.407 4.877 1.245 19.89 3.177 24.907 3.177v8.187c-5.017 0-20.028-1.934-24.907-3.177-4.011-1.023-8.324-2.812-10.687-6.407a9.945 9.945 0 0 1-.983-1.918 9.214 9.214 0 0 1-.603-3.291v-8.188Z" fill="#00D6B9"/><path d="M51.498 41.464c10.34 0 18.723-8.383 18.723-18.723S61.838 4.018 51.498 4.018 32.774 12.4 32.774 22.74c0 10.34 8.383 18.723 18.724 18.723Z" fill="#BBBFC4" fill-opacity=".45"/><path d="M102.045 27.804a11.682 11.682 0 0 0-.451-2.933c-1.73-5.998-7.898-9.236-13.466-10.947V4.971c4.805 1.476 9.915 3.536 12.458 8.1.428.77.767 1.583 1.008 2.415.302 1.044.455 2.143.455 3.252v9.385c0-.107-.001-.213-.004-.319Z" fill="#00D6B9"/><path d="M79.96 69.885a.317.317 0 0 1 .131.005.05.05 0 0 1 .026.017c.022.026.08.128.08.388 0 .25-.055.589-.183 1.011-.245.81-.8 1.818-1.523 2.898-.718 1.072-1.58 2.183-2.415 3.19a68.326 68.326 0 0 1-3.134 3.517l-.051.053-.013.013-.004.004a.5.5 0 1 0 .717.698l-.3-.292.3.292.004-.005.014-.014.053-.055.2-.21a69.339 69.339 0 0 0 2.983-3.363c.848-1.022 1.734-2.161 2.477-3.272.739-1.102 1.36-2.21 1.649-3.163.145-.48.226-.92.226-1.301 0-.372-.076-.754-.32-1.04-.267-.31-.647-.41-1.032-.364-.367.042-.767.214-1.186.475-2.346 1.46-8.254 5.437-13.564 9.041a2820.136 2820.136 0 0 0-9.222 6.289l-.823.563.283.413-.418-.275-.387.588-1.063 1.615-3.566 5.406c-2.82 4.271-6.263 9.473-8.757 13.201a.5.5 0 1 0 .831.556 2931.41 2931.41 0 0 0 8.761-13.206 6454.338 6454.338 0 0 0 4.63-7.022l.333-.506.74-.508a2631.307 2631.307 0 0 1 9.22-6.287c5.318-3.61 11.205-7.573 13.53-9.02.36-.223.614-.312.773-.33ZM55.333 85.673l-.283-.413a.507.507 0 0 0-.135.138l.418.275Zm55.055-16.819c1.75-.923 2.734-.852 3.293-.313.136.131.38.45.362 1.02-.018.585-.313 1.507-1.436 2.824-2.017 2.365-5.751 7.142-7.946 9.95l-.878 1.124a.499.499 0 1 0 .787.617l.883-1.13c2.198-2.811 5.914-7.566 7.914-9.912 1.207-1.414 1.648-2.547 1.676-3.441.028-.908-.372-1.487-.668-1.772-1.074-1.034-2.654-.8-4.454.149-1.837.97-4.145 2.8-6.94 5.442-2.194 2.073-5.868 3.983-9.636 5.516-3.755 1.528-7.54 2.657-9.907 3.19a.5.5 0 0 0 .22.976c2.422-.546 6.26-1.691 10.064-3.24 3.79-1.542 7.61-3.508 9.946-5.716 2.78-2.627 5.008-4.38 6.72-5.284Z" fill="#0C296E"/><path d="M107.732 83.561c-.602.005-1.301.213-1.802.366-.881.27-2.214.941-3.75 1.826-1.524.878-3.21 1.945-4.785 2.978a190.037 190.037 0 0 0-5.703 3.902l-.09.064-.03.021-.292-.405.292.405a.502.502 0 0 1-.254.093c-2.13.164-4.596.091-7.115.017-1.328-.04-2.67-.08-3.986-.085-3.868-.017-7.548.257-10.315 1.593a.5.5 0 1 1-.435-.901c2.993-1.445 6.881-1.709 10.755-1.692 1.378.006 2.751.047 4.092.087 2.424.072 4.741.142 6.789-.006l.008-.005a131.616 131.616 0 0 1 1.62-1.14 190.813 190.813 0 0 1 4.116-2.784c1.581-1.039 3.286-2.116 4.834-3.008 1.535-.885 2.956-1.61 3.956-1.916l.004-.001c.478-.147 1.313-.402 2.083-.409.389-.003.814.056 1.18.268.386.223.66.59.771 1.099a.818.818 0 0 1-.037.444 1.64 1.64 0 0 1-.17.335 5.08 5.08 0 0 1-.564.692c-.469.498-1.146 1.112-1.952 1.792-1.614 1.364-3.792 3.033-5.971 4.65a349.21 349.21 0 0 1-6.018 4.351 392.116 392.116 0 0 1-2.548 1.79l-.198.136-.285-.41.14.48-.056.016-.164.047-.629.181a415.899 415.899 0 0 1-10.029 2.726c-6.053 1.562-13.38 3.291-18.398 3.929-.455.058-1.006.345-1.608.815-.591.461-1.181 1.058-1.71 1.658a24.132 24.132 0 0 0-1.686 2.164l-.1.146-.026.038-.006.009-.001.002a.5.5 0 1 1-.835-.55l.335.221-.335-.221.003-.004.007-.012.029-.042.106-.156a25.225 25.225 0 0 1 1.758-2.255c.55-.625 1.186-1.273 1.846-1.787.648-.506 1.373-.926 2.096-1.018 4.949-.63 12.22-2.343 18.276-3.905a420.178 420.178 0 0 0 10.63-2.9l.139-.04.13-.09.556-.388a347.06 347.06 0 0 0 7.985-5.735c2.175-1.613 4.332-3.267 5.922-4.61.797-.673 1.439-1.257 1.869-1.714a4.25 4.25 0 0 0 .451-.546c.026-.042.043-.073.054-.095a.593.593 0 0 0-.278-.377c-.15-.087-.373-.136-.671-.134Zm.964.474-.001.004.001-.004ZM91.932 97.708l.14.48a.503.503 0 0 0 .144-.07l-.284-.41Zm17.205-28.552a.5.5 0 0 1-.283.648l-21.375 8.381a.496.496 0 0 1-.038.013l-.005.002c-5.864 1.772-11.74 3.548-17.089 4.95a.5.5 0 0 1-.253-.967c5.324-1.396 11.175-3.164 17.039-4.936l21.356-8.374a.5.5 0 0 1 .648.283Zm3.982-1.478a.5.5 0 0 1 .67.742l-.335-.371-.335-.371ZM86.378 87.105a.5.5 0 1 0 .303.952l-.151-.476.151.476.006-.001.015-.005.058-.02a35.499 35.499 0 0 0 1.032-.352 61.29 61.29 0 0 0 2.712-1.032c2.131-.871 4.765-2.096 6.667-3.487 1.14-.834 5.369-3.977 7.67-6.364 1.121-1.162 3.353-3.252 5.315-5.06a513.249 513.249 0 0 1 3.341-3.052l.292-.264-.335-.371-.335-.371-.293.265-.792.718c-.664.605-1.574 1.435-2.556 2.34-1.957 1.803-4.212 3.913-5.357 5.101-2.231 2.314-6.387 5.407-7.54 6.25-1.8 1.317-4.34 2.505-6.456 3.37a60.4 60.4 0 0 1-3.675 1.36l-.055.017-.013.004-.004.002ZM20.636 35.963c-6.027-3.239-10.302-7.931-10.302-11.012v6.762c-.327 5.529 5.183 9.12 10.302 11.939v-7.689Z" fill="#0C296E"/><path d="M11.32 25.203c2.281-3.37 8.002-5.759 12.258-5.76V11.68h-.002c-.34 0-.673.007-.998.02-9.561.371-12.258 6.076-12.258 9.494v7.005c0-1.054.368-2.062 1-2.996Zm0-1.605v-2.404c0-1.516.625-3.627 2.431-5.36 1.669-1.602 4.425-2.955 8.827-3.134v5.782c-2.692.201-5.72 1.183-8.181 2.66-1.138.683-2.212 1.508-3.077 2.456Z" fill="#0C296E"/></svg>