<svg width="120" height="120" viewBox="0 0 120 120" fill="none" xmlns="http://www.w3.org/2000/svg">
  <path d="M10.814 87.3V74.615C4.025 81.153.48 87.179 2.614 91.836c2.525 3.44 1.958 6.033 4.005 8.35-1.376-3.746.356-8.15 4.195-12.887Zm94.681-54.111v-9.014c3.296 0 8.494 2.705 9.174 5.96 0 6.13.135 8.794 0 10.975-1.012-3.654-5.049-8.282-9.174-7.921Z" fill="#fff" fill-opacity=".4"/>
  <path d="m2.136 90.712 3.161 8.184c2.524 4.437 14.186 5.009 33.694 0v-8.899l-1 .262C20.2 94.865 8.528 95.38 3.9 92.508c-.8-.498-1.39-1.098-1.764-1.796Zm2.311 3.21c.381.168.785.32 1.21.454 2.037.645 4.667.941 7.828.906 6.078-.069 14.313-1.364 24.506-3.99v6.827c-9.358 2.358-16.801 3.388-22.204 3.319-2.774-.035-4.963-.359-6.58-.912-1.583-.541-2.527-1.268-3.006-2.065l-1.754-4.54Z" fill="#E0E0E0"/>
  <path d="M99.097 48.74c15.611-8.138 15.649-14.29 15.649-19.589v10.673c0 3.936-1.06 10.218-15.649 18.433V48.74Z" fill="#41CCB9"/>
  <path d="M48.955 99.245c8.283-2.356 14.772-5.492 21.592-8.79 1.01-.487 2.026-.978 3.056-1.471v6.042c-8.274 4.183-12.907 6.32-24.648 9.559v-5.34Zm24.648-11.37c-1.19.568-2.357 1.132-3.512 1.69-7.016 3.391-13.595 6.57-22.136 8.922v7.408l1-.273c12.275-3.373 16.916-5.558 25.648-9.982v-8.239l-1 .475Z" fill="#E0E0E0"/>
  <path d="M9.95 36.438a4.5 4.5 0 0 1 4.5-4.5h44a4.5 4.5 0 0 1 4.5 4.5v70a4.5 4.5 0 0 1-4.5 4.5h-44a4.5 4.5 0 0 1-4.5-4.5v-70Zm4.5-3.5a3.5 3.5 0 0 0-3.5 3.5v70a3.5 3.5 0 0 0 3.5 3.5h44a3.5 3.5 0 0 0 3.5-3.5v-70a3.5 3.5 0 0 0-3.5-3.5h-44Z" fill="#E0E0E0"/>
  <path d="M57.323 5.025h44a3.5 3.5 0 0 1 3.5 3.5v70a3.5 3.5 0 0 1-3.5 3.5H65.177a.5.5 0 1 0 0 1h36.146a4.5 4.5 0 0 0 4.5-4.5v-70a4.5 4.5 0 0 0-4.5-4.5h-44a4.5 4.5 0 0 0-4.5 4.5v20.718a.5.5 0 1 0 1 0V8.525a3.5 3.5 0 0 1 3.5-3.5Z" fill="#E0E0E0"/>
  <path d="M60.823 14.108a.5.5 0 0 1 .5-.5h36a.5.5 0 1 1 0 1h-36a.5.5 0 0 1-.5-.5ZM17.95 41.111a.5.5 0 0 1 .5-.5h36a.5.5 0 0 1 0 1h-36a.5.5 0 0 1-.5-.5Z" fill="#E0E0E0"/>
  <path d="M98 99c9.941 0 18-8.059 18-18s-8.059-18-18-18-18 8.059-18 18 8.059 18 18 18Z" fill="#F2962C"/>
  <path d="M97.181 72.818a.818.818 0 0 0-.818.818v9.819a.82.82 0 0 0 .819.818h1.636a.818.818 0 0 0 .818-.819v-9.818a.818.818 0 0 0-.818-.818h-1.636Zm0 13.091a.818.818 0 0 0-.818.818v1.637a.82.82 0 0 0 .819.818h1.636a.818.818 0 0 0 .818-.818v-1.637a.818.818 0 0 0-.818-.818h-1.636Z" fill="#fff"/>
  <path d="m37.043 71.654.076-.074.149-.15.097-.098.306-.311.416-.423.356-.363.335-.34.35-.356.322-.33.447-.455.259-.248c.16-.152.327-.3.5-.441.161-.13.322-.255.483-.375a10.08 10.08 0 0 1 2.587-1.36l.21-.07a18.33 18.33 0 0 0-3.33-6.88 1.616 1.616 0 0 0-.558-.454 1.57 1.57 0 0 0-.694-.162H26.488c-.05 0-.1.017-.14.047a.256.256 0 0 0-.002.4A38.31 38.31 0 0 1 37.01 71.683l.032-.029Z" fill="#00D6B9"/>
  <path d="M31.938 83.308a17.293 17.293 0 0 0 8.963-2.509 17.952 17.952 0 0 0 6.796-7.434 7.762 7.762 0 0 1-.708 1.144 7.287 7.287 0 0 1-.975 1.056 5.963 5.963 0 0 1-.286.238 6.101 6.101 0 0 1-.575.407 6.642 6.642 0 0 1-1.211.604 5.823 5.823 0 0 1-.513.165 6.583 6.583 0 0 1-1.373.243 7.359 7.359 0 0 1-1.322-.028 7.981 7.981 0 0 1-1.212-.236 36.096 36.096 0 0 1-.662-.19l-.328-.1c-.16-.05-.326-.101-.488-.153-.133-.043-.266-.083-.402-.13l-.377-.128-.256-.09-.312-.111-.222-.083a38.872 38.872 0 0 1-.437-.165l-.253-.094-.338-.135-.356-.145-.23-.097-.286-.119-.22-.096-.229-.101-.198-.09-.181-.083-.183-.083-.19-.09-.24-.113-.25-.123-.265-.132-.225-.115a37.2 37.2 0 0 1-10.527-8.075.235.235 0 0 0-.262-.061.241.241 0 0 0-.11.088.252.252 0 0 0-.044.138l.008 11.679v.947c0 .272.064.539.188.778.124.24.303.444.522.595a17.249 17.249 0 0 0 9.769 3.027Z" fill="#3370FF"/>
  <path d="M51.45 66.84a9.906 9.906 0 0 0-8.14-.358 9.937 9.937 0 0 0-2.653 1.578 10.856 10.856 0 0 0-.76.69l-.443.458-.322.33-.35.356-.335.34-.36.36-.415.422-.307.315-.102.104-.148.148-.076.075-.113.11-.124.117a17.758 17.758 0 0 1-3.665 2.67l.24.115.19.09.183.082.18.083.2.09.228.101.22.096.286.123.23.097.356.146.338.135.254.098.437.165.222.083.312.11.256.09.377.13c.132.043.265.087.402.129.16.052.321.103.488.154l.328.099c.22.065.44.129.662.19a8.553 8.553 0 0 0 .695.16 7.686 7.686 0 0 0 1.214.121c.21 0 .419 0 .625-.017a6.6 6.6 0 0 0 1.373-.242 6.48 6.48 0 0 0 1.951-.92c.118-.083.235-.165.348-.257a6.558 6.558 0 0 0 .768-.71 7.234 7.234 0 0 0 .695-.867 7.89 7.89 0 0 0 .503-.851l.172-.353 1.549-3.198v.007a10.144 10.144 0 0 1 2.032-2.993Z" fill="#133C9A"/>
  <path d="M69 40.556A8.556 8.556 0 0 1 77.556 32h8.555a8.556 8.556 0 0 1 8.556 8.556v8.555a8.556 8.556 0 0 1-8.556 8.556h-8.555A8.556 8.556 0 0 1 69 49.11v-8.555Z" fill="url(#udi4tCiSy5QbfeNtqNKU6g3y__a)"/>
  <path d="M74.931 40.459a.972.972 0 0 0-.972.972v5.153a2.625 2.625 0 0 0 2.625 2.624h7.68a.972.972 0 0 0 .973-.972v-5.152a2.625 2.625 0 0 0-2.625-2.626h-7.68ZM86.33 42.54a1.166 1.166 0 0 0-.413.89v2.796c0 .35.156.68.426.902l2.174 1.783a.73.73 0 0 0 1.191-.564v-7.094a.73.73 0 0 0-1.2-.557L86.33 42.54Z" fill="#fff"/>
  <defs>
    <linearGradient id="udi4tCiSy5QbfeNtqNKU6g3y__a" x1="81.833" y1="32" x2="81.833" y2="57.667" gradientUnits="userSpaceOnUse">
      <stop stop-color="#55A2FE"/>
      <stop offset="1" stop-color="#3C82FB"/>
    </linearGradient>
  </defs>
</svg>
