<svg width="120" height="120" viewBox="0 0 120 120" fill="none" xmlns="http://www.w3.org/2000/svg"><g clip-path="url(#udp1l1lyu6ya)"><path d="M18.776 49.326C6.95 55.753 2.888 62.594 4.128 68.141l2.15 10.092c-1.095-5.26 3.868-12.398 15.103-19.182l-2.605-9.725Zm64.829-12.621.152-.016c5.381-1.826 18.095-8.747 22.582-11.807l-2.592-8.582c-8.521 5.986-15.67 9.75-22.246 12.427l2.104 7.978Z" fill="#fff" fill-opacity=".4"/><path d="M96.594 13.438s-.002.197-.032.353c-.027.135-.073.24-.157.155a4.984 4.984 0 0 0-.705-.588 5.861 5.861 0 0 0-.205-.136c-2.709-1.721-7.42-1.617-11.824-.554-.324.079-.647.162-.968.25l-.243-.97a145.56 145.56 0 0 0-1.444-5.29 57.05 57.05 0 0 1-.228-.793c3.108-1.091 11.836-1.787 13.624.663 1.002 2.957 1.423 4.244 1.945 6.07a103.242 103.242 0 0 1 .237.84ZM93.523 7.02c-.27-.284-.832-.586-1.785-.81-1.016-.237-2.287-.343-3.642-.341-2.228.003-4.533.298-6.071.676.303 1.042.77 2.666 1.403 5.153 2.386-.577 4.882-.886 7.144-.785 1.623.072 3.198.36 4.533.966-.396-1.326-.812-2.584-1.582-4.859Z" fill="#E0E0E0"/><path d="M80.194 23.789c9.078-2.763 17.119-6.36 16.451-10.33a179.43 179.43 0 0 1-.697-2.208c-.43-1.379-.903-2.9-1.535-4.746.705 3.897-7.137 7.418-16.105 10.133l1.885 7.15Z" fill="#41CCB9"/><path d="M12.903 27.4a4 4 0 0 1 2.829-4.898l56.02-15.01a4 4 0 0 1 4.903 2.843l7.13 27.041L67.15 41.67a2 2 0 0 0-1.433 2.45l5.651 21.251a2 2 0 0 0 2.42 1.426l16.531-4.15 2.03 6.708a4 4 0 0 1-2.793 5.022L61.664 81.85l-8.79 2.243L46.985 63.4a2 2 0 0 0-2.452-1.381l-20.76 5.693-.71-2.39-2.239-8.356L12.903 27.4Z" fill="#fff" fill-opacity=".3"/><path d="M50.114 32.339a.5.5 0 0 1-.354.612L24.534 39.71a.5.5 0 0 1-.258-.966L49.5 31.985a.5.5 0 0 1 .613.354Zm-6.226 11.058a.5.5 0 0 1-.354.613l-15.916 4.264a.5.5 0 1 1-.259-.965l15.916-4.265a.5.5 0 0 1 .613.353Z" fill="#fff" fill-opacity=".4"/><path d="M96.304 34.257a1 1 0 0 1 1.225.707l6.046 22.565a1 1 0 0 1-.707 1.225l-29.85 7.998a1 1 0 0 1-1.225-.707L65.747 43.48a1 1 0 0 1 .707-1.225l29.85-7.998Zm-30.109 7.032a2 2 0 0 0-1.414 2.45l6.046 22.565a2 2 0 0 0 2.45 1.414l29.85-7.998a2 2 0 0 0 1.414-2.45l-6.046-22.565a2 2 0 0 0-2.45-1.414l-29.85 7.998ZM45.193 62.108a1 1 0 0 1 1.225.707l7.998 29.85a1 1 0 0 1-.707 1.225l-29.85 7.999a1 1 0 0 1-1.225-.707l-7.998-29.85a1 1 0 0 1 .707-1.225l29.85-7.999Zm-30.109 7.033a2 2 0 0 0-1.414 2.45l7.998 29.85a2 2 0 0 0 2.45 1.414l29.85-7.999a2 2 0 0 0 1.414-2.45l-7.998-29.85a2 2 0 0 0-2.45-1.414l-29.85 7.999Z" fill="#E0E0E0"/><path d="M19.5 75.35a2 2 0 0 1 1.415-2.415l21.165-5.769a2 2 0 0 1 2.459 1.415l3.407 12.786-5.268-2.742a2 2 0 0 0-2.693.843L35 88.948l-5.67-2.984a2 2 0 0 0-2.7.837l-2.9 5.493-4.228-16.945Zm13.176 2.37a2.77 2.77 0 1 0-5.54 0 2.77 2.77 0 0 0 5.54 0Z" fill="#fff" fill-opacity=".3"/><path d="M20.796 76.87c-5.129.45-15.54-3.115-16.785-9.34l2.087 10.43c2.178 7.06 13.128 7.443 16.53 7.06l-1.832-8.15Z" fill="#4C88FF"/><path d="M113.537 67.694c-.859.053-2.004.323-3.357.868l-.001.001c-2.187.871-5.544 2.862-9.424 5.369-3.537 2.286-7.475 4.978-11.302 7.595l-1.07.732c-3.435 2.338-6.673 4.522-9.269 6.139-1.298.808-2.444 1.48-3.38 1.96-.468.24-.891.435-1.259.576-.36.139-.697.237-.986.26-2.117.17-3.757-.729-5.515-2.05a63.079 63.079 0 0 1-1.836-1.455c-1.294-1.05-2.75-2.233-4.61-3.449-2.49-1.617-3.978-2.313-4.967-2.544-.483-.113-.834-.112-1.119-.06-.288.054-.54.164-.828.316l-.008.003a.48.48 0 0 0-.224.193.46.46 0 0 0-.043.251c.015.252.147.577.346.924l.005.008c.073.133.331.457.769.951a88.5 88.5 0 0 0 1.561 1.7c.278.298.568.605.86.917.961 1.021 1.96 2.083 2.724 2.943a.553.553 0 0 1 .017.02c5.545 6.95 6.8 12.06 6.607 15.491-.097 1.712-.554 2.985-.996 3.838a6.69 6.69 0 0 1-.602.963 4.365 4.365 0 0 1-.263.316l-.02.019-.005.006-.002.003-.001.001-.354-.354.353.354a.5.5 0 0 1-.706-.707v-.001l.007-.008.039-.042c.035-.04.089-.104.156-.192.133-.176.318-.447.51-.818.383-.739.797-1.876.886-3.435.175-3.109-.945-7.981-6.383-14.8a152.083 152.083 0 0 0-2.687-2.904l-.87-.926a88.735 88.735 0 0 1-1.58-1.721c-.41-.464-.755-.876-.894-1.128-.217-.379-.446-.869-.475-1.358-.015-.256.023-.53.162-.787a1.47 1.47 0 0 1 .65-.608c.319-.167.674-.331 1.109-.411.44-.08.931-.07 1.527.07 1.169.272 2.78 1.052 5.284 2.679 1.901 1.242 3.44 2.491 4.757 3.56.627.508 1.204.977 1.745 1.383 1.704 1.28 3.093 1.992 4.834 1.852h.001c.146-.012.377-.07.707-.196.322-.124.71-.302 1.16-.533.9-.461 2.02-1.116 3.308-1.919 2.577-1.604 5.796-3.777 9.233-6.116l1.073-.733c3.823-2.614 7.772-5.315 11.321-7.608 3.87-2.5 7.305-4.545 9.595-5.457 1.418-.572 2.671-.877 3.668-.94.498-.03.95-.002 1.333.095.38.097.729.27.97.557.533.635.313 1.469-.213 2.216-.544.77-1.533 1.655-3.007 2.62-4.538 2.97-9.558 7.056-13.45 10.409a229.83 229.83 0 0 0-6.148 5.493c-.16.148-.282.263-.364.34l-.094.088-.03.029-.344-.363-.344-.363.032-.03.095-.09.367-.343a230.617 230.617 0 0 1 6.177-5.519c3.902-3.36 8.961-7.482 13.555-10.488 1.43-.936 2.3-1.738 2.737-2.36.455-.645.338-.909.265-.995-.062-.074-.194-.166-.45-.231-.254-.065-.595-.093-1.025-.066Zm-21.41 20.485-.343-.363a.5.5 0 1 0 .688.726l-.344-.363Z" fill="#E0E0E0"/><path d="M104.888 77.156a.5.5 0 0 1 .175.685c-1.812 3.062-3.834 6.046-5.401 8.262a147.816 147.816 0 0 1-2.636 3.606l-.038.05-.013.018-.397-.304.375.33-.117.134-.335.383a503.316 503.316 0 0 0-5.07 5.889c-2.89 3.412-6.045 7.25-7.271 9.137l-1.46 5.614a.5.5 0 0 1-.967-.252l1.48-5.691a.495.495 0 0 1 .062-.144c1.238-1.931 4.484-5.877 7.392-9.311a505.276 505.276 0 0 1 5.417-6.285l.107-.122.003-.003.037-.049.146-.192a146.34 146.34 0 0 0 2.468-3.385c1.559-2.205 3.564-5.164 5.358-8.194a.5.5 0 0 1 .685-.176Zm-8.31 12.317.375.33a.492.492 0 0 0 .022-.026l-.397-.304Zm13.437-25.606c-.126-.07-.227-.077-.295-.057a.668.668 0 0 1-.027.006c-.138.032-.263.157-.476.419-1.443 1.771-2.451 2.996-3.458 4.22a1068.508 1068.508 0 0 0-3.455 4.218.5.5 0 0 1-.775-.631c1.443-1.772 2.451-2.997 3.458-4.221a1061.187 1061.187 0 0 0 3.479-4.248c.172-.212.492-.607.989-.728a1.391 1.391 0 0 1 1.048.149c.293.164.542.418.694.708a.468.468 0 0 1 .036.089c.121.4.065.873-.039 1.306-.108.45-.289.935-.493 1.398-.407.922-.933 1.817-1.256 2.264a.5.5 0 1 1-.811-.585c.277-.384.77-1.216 1.152-2.083a7.66 7.66 0 0 0 .436-1.228c.084-.349.094-.593.065-.739a.783.783 0 0 0-.272-.257Zm-8.42 2.509c.295.089.549.284.707.593l.005.01c.186.383.138.777.033 1.091a3.182 3.182 0 0 1-.447.823.5.5 0 1 1-.811-.585 2.23 2.23 0 0 0 .31-.557c.057-.168.046-.268.017-.332a.156.156 0 0 0-.102-.086.677.677 0 0 0-.324.01c-.314.069-.684.27-.95.494-2.137 1.929-4.387 5.015-5.769 7.554a.503.503 0 0 1-.064.092l-.375-.33.375.33-.046.052-.134.15-.501.56c-.43.479-1.042 1.153-1.765 1.936-1.445 1.565-3.34 3.57-5.137 5.322a.5.5 0 1 1-.698-.716c1.778-1.734 3.66-3.724 5.1-5.284a206.122 206.122 0 0 0 2.255-2.483l.132-.148.007-.009c1.425-2.604 3.727-5.764 5.956-7.774l.01-.01c.363-.307.88-.601 1.39-.713.256-.056.547-.074.826.01Z" fill="#E0E0E0"/><path d="M107.791 62.835c-.648.098-1.269.466-1.658.794l-.012.01c-.393.31-.896.844-1.436 1.483a48.657 48.657 0 0 0-1.572 1.989c-4.298 5.677-4.733 6.154-8.934 10.759l-.957 1.05a.5.5 0 1 1-.74-.674l.969-1.062c4.175-4.576 4.594-5.035 8.864-10.676a48.344 48.344 0 0 1 1.606-2.031c.544-.644 1.098-1.241 1.574-1.618.477-.4 1.262-.879 2.146-1.013.926-.14 1.944.104 2.755 1.13a.5.5 0 0 1-.784.62c-.564-.713-1.21-.853-1.821-.76Z" fill="#E0E0E0"/><path d="M78.387 46.671c-.397-1.487.965-2.847 2.451-2.447l10.25 2.756c1.488.4 1.984 2.259.894 3.347l-7.512 7.499c-1.09 1.087-2.948.588-3.345-.9l-2.738-10.255Z" fill="#fff" fill-opacity=".3"/></g><defs><clipPath id="udp1l1lyu6ya"><path fill="#fff" d="M0 0h120v120H0z"/></clipPath></defs></svg>