<svg width="372" height="230" viewBox="0 0 372 230" fill="none" xmlns="http://www.w3.org/2000/svg"><path d="M82.5 20a4.5 4.5 0 0 1 4.5-4.5h245a4.5 4.5 0 0 1 4.5 4.5v178a4.5 4.5 0 0 1-4.5 4.5H87a4.5 4.5 0 0 1-4.5-4.5V20Zm4.5-3.5a3.5 3.5 0 0 0-3.5 3.5v178a3.5 3.5 0 0 0 3.5 3.5h245a3.5 3.5 0 0 0 3.5-3.5V20a3.5 3.5 0 0 0-3.5-3.5H87Z" fill="#0C296E"/><path d="M105 37.5c-.204 0-.398.04-.574.114a.5.5 0 1 1-.383-.924c.295-.123.619-.19.957-.19h1.99a.5.5 0 1 1 0 1H105Zm5.471-.5a.5.5 0 0 1 .5-.5h3.981a.5.5 0 0 1 0 1h-3.981a.5.5 0 0 1-.5-.5Zm7.962 0a.5.5 0 0 1 .5-.5h3.98a.5.5 0 1 1 0 1h-3.98a.5.5 0 0 1-.5-.5Zm7.961 0a.5.5 0 0 1 .5-.5h3.981a.5.5 0 0 1 0 1h-3.981a.5.5 0 0 1-.5-.5Zm7.962 0a.5.5 0 0 1 .5-.5h3.981a.5.5 0 0 1 0 1h-3.981a.5.5 0 0 1-.5-.5Zm7.961 0a.5.5 0 0 1 .5-.5h3.981a.5.5 0 0 1 0 1h-3.981a.5.5 0 0 1-.5-.5Zm7.962 0a.5.5 0 0 1 .5-.5h3.981a.5.5 0 0 1 0 1h-3.981a.5.5 0 0 1-.5-.5Zm7.961 0a.5.5 0 0 1 .5-.5h3.981a.5.5 0 0 1 0 1h-3.981a.5.5 0 0 1-.5-.5Zm7.962 0a.5.5 0 0 1 .5-.5h3.981a.5.5 0 0 1 0 1h-3.981a.5.5 0 0 1-.5-.5Zm7.961 0a.5.5 0 0 1 .5-.5h3.981a.5.5 0 0 1 0 1h-3.981a.5.5 0 0 1-.5-.5Zm7.962 0a.5.5 0 0 1 .5-.5h3.981a.5.5 0 0 1 0 1h-3.981a.5.5 0 0 1-.5-.5Zm7.962 0a.5.5 0 0 1 .5-.5h3.98a.5.5 0 0 1 0 1h-3.98a.5.5 0 0 1-.5-.5Zm7.961 0a.5.5 0 0 1 .5-.5h3.981a.5.5 0 0 1 0 1h-3.981a.5.5 0 0 1-.5-.5Zm7.962 0a.5.5 0 0 1 .5-.5h3.98a.5.5 0 1 1 0 1h-3.98a.5.5 0 0 1-.5-.5Zm7.961 0a.5.5 0 0 1 .5-.5h3.981a.5.5 0 0 1 0 1h-3.981a.5.5 0 0 1-.5-.5Zm7.962 0a.5.5 0 0 1 .5-.5h3.98a.5.5 0 1 1 0 1h-3.98a.5.5 0 0 1-.5-.5Zm7.961 0a.5.5 0 0 1 .5-.5h3.981a.5.5 0 0 1 0 1h-3.981a.5.5 0 0 1-.5-.5Zm7.962 0a.5.5 0 0 1 .5-.5h3.981a.5.5 0 0 1 0 1h-3.981a.5.5 0 0 1-.5-.5Zm7.961 0a.5.5 0 0 1 .5-.5h3.981a.5.5 0 0 1 0 1h-3.981a.5.5 0 0 1-.5-.5Zm7.962 0a.5.5 0 0 1 .5-.5h3.981a.5.5 0 0 1 0 1h-3.981a.5.5 0 0 1-.5-.5Zm7.961 0a.5.5 0 0 1 .5-.5h3.981a.5.5 0 0 1 0 1h-3.981a.5.5 0 0 1-.5-.5Zm7.962 0a.5.5 0 0 1 .5-.5h3.981a.5.5 0 0 1 0 1h-3.981a.5.5 0 0 1-.5-.5Zm7.961 0a.5.5 0 0 1 .5-.5h3.981a.5.5 0 0 1 0 1h-3.981a.5.5 0 0 1-.5-.5Zm7.962 0a.5.5 0 0 1 .5-.5h3.981a.5.5 0 0 1 0 1h-3.981a.5.5 0 0 1-.5-.5Zm7.962 0a.5.5 0 0 1 .5-.5h3.98a.5.5 0 0 1 0 1h-3.98a.5.5 0 0 1-.5-.5Zm7.961 0a.5.5 0 0 1 .5-.5h3.981a.5.5 0 0 1 0 1h-3.981a.5.5 0 0 1-.5-.5Zm7.962 0a.5.5 0 0 1 .5-.5H312c.338 0 .662.067.957.19a.5.5 0 0 1-.383.924A1.495 1.495 0 0 0 312 37.5h-1.99a.5.5 0 0 1-.5-.5Zm-206.167.773a.501.501 0 0 1 .271.653c-.073.176-.114.37-.114.574v1.962a.5.5 0 0 1-1 0V39c0-.338.067-.662.19-.957a.5.5 0 0 1 .653-.27Zm210.314 0a.5.5 0 0 1 .653.27c.123.295.19.619.19.957v1.962a.5.5 0 0 1-1 0V39c0-.204-.041-.398-.114-.574a.501.501 0 0 1 .271-.653ZM103 44.385a.5.5 0 0 1 .5.5v3.923a.5.5 0 0 1-1 0v-3.923a.5.5 0 0 1 .5-.5Zm211 0a.5.5 0 0 1 .5.5v3.923a.5.5 0 0 1-1 0v-3.923a.5.5 0 0 1 .5-.5ZM103 52.23a.5.5 0 0 1 .5.5v3.923a.5.5 0 0 1-1 0V52.73a.5.5 0 0 1 .5-.5Zm211 0a.5.5 0 0 1 .5.5v3.923a.5.5 0 0 1-1 0V52.73a.5.5 0 0 1 .5-.5Zm-211 7.846a.5.5 0 0 1 .5.5V64.5a.5.5 0 0 1-1 0v-3.923a.5.5 0 0 1 .5-.5Zm211 0a.5.5 0 0 1 .5.5V64.5a.5.5 0 0 1-1 0v-3.923a.5.5 0 0 1 .5-.5Zm0 7.846a.5.5 0 0 1 .5.5v3.923a.5.5 0 0 1-1 0v-3.923a.5.5 0 0 1 .5-.5Zm-211 0a.5.5 0 0 1 .5.5v3.923a.5.5 0 0 1-1 0v-3.923a.5.5 0 0 1 .5-.5Zm211 7.846a.5.5 0 0 1 .5.5v3.923a.5.5 0 0 1-1 0V76.27a.5.5 0 0 1 .5-.5Zm-211 0a.5.5 0 0 1 .5.5v3.923a.5.5 0 0 1-1 0V76.27a.5.5 0 0 1 .5-.5Zm211 7.846a.5.5 0 0 1 .5.5v3.924a.5.5 0 0 1-1 0v-3.924a.5.5 0 0 1 .5-.5Zm-211 0a.5.5 0 0 1 .5.5v3.924a.5.5 0 0 1-1 0v-3.924a.5.5 0 0 1 .5-.5Zm211 7.847a.5.5 0 0 1 .5.5v3.923a.5.5 0 0 1-1 0V91.96a.5.5 0 0 1 .5-.5Zm-211 0a.5.5 0 0 1 .5.5v3.923a.5.5 0 0 1-1 0V91.96a.5.5 0 0 1 .5-.5Zm211 7.846a.5.5 0 0 1 .5.5v3.923a.5.5 0 0 1-1 0v-3.923a.5.5 0 0 1 .5-.5Zm-211 0a.5.5 0 0 1 .5.5v3.923a.5.5 0 0 1-1 0v-3.923a.5.5 0 0 1 .5-.5Zm211 7.846a.5.5 0 0 1 .5.5v3.923a.5.5 0 0 1-1 0v-3.923a.5.5 0 0 1 .5-.5Zm-211 0a.5.5 0 0 1 .5.5v3.923a.5.5 0 0 1-1 0v-3.923a.5.5 0 0 1 .5-.5Zm0 7.846a.5.5 0 0 1 .5.5v3.923a.5.5 0 0 1-1 0V115.5a.5.5 0 0 1 .5-.5Zm211 0a.5.5 0 0 1 .5.5v3.923a.5.5 0 0 1-1 0V115.5a.5.5 0 0 1 .5-.5Zm-211 7.846a.5.5 0 0 1 .5.5v3.923a.5.5 0 0 1-1 0v-3.923a.5.5 0 0 1 .5-.5Zm211 0a.5.5 0 0 1 .5.5v3.923a.5.5 0 0 1-1 0v-3.923a.5.5 0 0 1 .5-.5Zm-211 7.846a.5.5 0 0 1 .5.5v3.923a.5.5 0 1 1-1 0v-3.923a.5.5 0 0 1 .5-.5Zm211 0a.5.5 0 0 1 .5.5v3.923a.5.5 0 1 1-1 0v-3.923a.5.5 0 0 1 .5-.5Zm-211 7.846a.5.5 0 0 1 .5.5V141c0 .204.041.398.114.574a.5.5 0 0 1-.924.383 2.483 2.483 0 0 1-.19-.957v-1.962a.5.5 0 0 1 .5-.5Zm211 0a.5.5 0 0 1 .5.5V141c0 .338-.067.662-.19.957a.5.5 0 1 1-.924-.383c.073-.176.114-.37.114-.574v-1.962a.5.5 0 0 1 .5-.5Zm-210.227 4.119a.5.5 0 0 1 .653-.271c.176.073.37.114.574.114h1.99a.5.5 0 0 1 0 1H105c-.338 0-.662-.067-.957-.19a.5.5 0 0 1-.27-.653Zm209.454 0a.5.5 0 0 1-.27.653c-.295.123-.619.19-.957.19h-1.99a.5.5 0 1 1 0-1H312c.204 0 .398-.041.574-.114a.5.5 0 0 1 .653.271ZM110.471 143a.5.5 0 0 1 .5-.5h3.981a.5.5 0 0 1 0 1h-3.981a.5.5 0 0 1-.5-.5Zm7.962 0a.5.5 0 0 1 .5-.5h3.98a.5.5 0 1 1 0 1h-3.98a.5.5 0 0 1-.5-.5Zm7.961 0a.5.5 0 0 1 .5-.5h3.981a.5.5 0 0 1 0 1h-3.981a.5.5 0 0 1-.5-.5Zm7.962 0a.5.5 0 0 1 .5-.5h3.981a.5.5 0 0 1 0 1h-3.981a.5.5 0 0 1-.5-.5Zm7.961 0a.5.5 0 0 1 .5-.5h3.981a.5.5 0 0 1 0 1h-3.981a.5.5 0 0 1-.5-.5Zm7.962 0a.5.5 0 0 1 .5-.5h3.981a.5.5 0 0 1 0 1h-3.981a.5.5 0 0 1-.5-.5Zm7.961 0a.5.5 0 0 1 .5-.5h3.981a.5.5 0 0 1 0 1h-3.981a.5.5 0 0 1-.5-.5Zm7.962 0a.5.5 0 0 1 .5-.5h3.981a.5.5 0 0 1 0 1h-3.981a.5.5 0 0 1-.5-.5Zm7.961 0a.5.5 0 0 1 .5-.5h3.981a.5.5 0 0 1 0 1h-3.981a.5.5 0 0 1-.5-.5Zm7.962 0a.5.5 0 0 1 .5-.5h3.981a.5.5 0 0 1 0 1h-3.981a.5.5 0 0 1-.5-.5Zm7.962 0a.5.5 0 0 1 .5-.5h3.98a.5.5 0 0 1 0 1h-3.98a.5.5 0 0 1-.5-.5Zm7.961 0a.5.5 0 0 1 .5-.5h3.981a.5.5 0 0 1 0 1h-3.981a.5.5 0 0 1-.5-.5Zm7.962 0a.5.5 0 0 1 .5-.5h3.98a.5.5 0 1 1 0 1h-3.98a.5.5 0 0 1-.5-.5Zm7.961 0a.5.5 0 0 1 .5-.5h3.981a.5.5 0 0 1 0 1h-3.981a.5.5 0 0 1-.5-.5Zm7.962 0a.5.5 0 0 1 .5-.5h3.98a.5.5 0 1 1 0 1h-3.98a.5.5 0 0 1-.5-.5Zm7.961 0a.5.5 0 0 1 .5-.5h3.981a.5.5 0 0 1 0 1h-3.981a.5.5 0 0 1-.5-.5Zm7.962 0a.5.5 0 0 1 .5-.5h3.981a.5.5 0 0 1 0 1h-3.981a.5.5 0 0 1-.5-.5Zm7.961 0a.5.5 0 0 1 .5-.5h3.981a.5.5 0 0 1 0 1h-3.981a.5.5 0 0 1-.5-.5Zm7.962 0a.5.5 0 0 1 .5-.5h3.981a.5.5 0 0 1 0 1h-3.981a.5.5 0 0 1-.5-.5Zm7.961 0a.5.5 0 0 1 .5-.5h3.981a.5.5 0 0 1 0 1h-3.981a.5.5 0 0 1-.5-.5Zm7.962 0a.5.5 0 0 1 .5-.5h3.981a.5.5 0 0 1 0 1h-3.981a.5.5 0 0 1-.5-.5Zm7.961 0a.5.5 0 0 1 .5-.5h3.981a.5.5 0 0 1 0 1h-3.981a.5.5 0 0 1-.5-.5Zm7.962 0a.5.5 0 0 1 .5-.5h3.981a.5.5 0 0 1 0 1h-3.981a.5.5 0 0 1-.5-.5Zm7.962 0a.5.5 0 0 1 .5-.5h3.98a.5.5 0 0 1 0 1h-3.98a.5.5 0 0 1-.5-.5Zm7.961 0a.5.5 0 0 1 .5-.5h3.981a.5.5 0 0 1 0 1h-3.981a.5.5 0 0 1-.5-.5Z" fill="#0C296E"/><path d="M311 158H106a2 2 0 0 0-2 2v12a2 2 0 0 0 2 2h205a2 2 0 0 0 2-2v-12a2 2 0 0 0-2-2Z" fill="#BBBFC4" fill-opacity=".45"/><path d="M182.658 57a2 2 0 0 1 2-2h37.086l14.213 14.2V124a2 2 0 0 1-2 2h-49.299a2 2 0 0 1-2-2V57Z" fill="#14C0FF"/><path d="M221.744 67.2V55l14.213 14.2h-12.213a2 2 0 0 1-2-2Z" fill="#0C296E"/><path d="M193.774 88.781a.5.5 0 0 1 .5-.5h30.067a.5.5 0 0 1 0 1h-30.067a.5.5 0 0 1-.5-.5Z" fill="#fff"/><path d="M209.308 73.264a.5.5 0 0 1 .5.5v30.038a.5.5 0 0 1-1 0V73.764a.5.5 0 0 1 .5-.5Z" fill="#fff"/><path d="M277.538 193.256h9.393v-9.385h-9.393v9.385Zm17.22 0h48.674v-9.385h-48.674v9.385Z" fill="#3370FF"/><mask id="udof5pokvsga" style="mask-type:alpha" maskUnits="userSpaceOnUse" x="22" y="11" width="152" height="203"><path d="M22 11.576h151.852v201.552H22V11.576Z" fill="#C4C4C4"/></mask><g mask="url(#udof5pokvsga)"><path d="M166.44 69.553c1.327-2.912 2.368-5.232 3.118-5.29-.985 4.437-9.684 30.416-9.474 33.38l-9.48 55.814c-2.246 16.458-16.284 18.489-23.427 11.384-7.137-7.102-16.731-23.44-16.731-23.44l-3.435-4.603 17.094-10.093 11.298 19.14 14.6-49.242s.894-5.724.881-7.798c0-.522-5.475-9.32-5.475-9.32s-1.393-8.959-2.069-12.682c2.728.67 5.191 8.225 6.372 9.423 0 0 2.837-9.258 4.709-15.151 1.361-4.271 2.297-7.275 4.31-8.19 1.79-.817 4.174-.681 5.445.816.783.926 1.018 2.18 1.226 3.373.581 3.338.925 9.107 1.038 12.479Z" fill="#fff"/><path d="M164.557 53.378c-1.466-1.727-4.12-1.822-6.034-.948-1.171.533-1.974 1.648-2.644 3.08-.655 1.397-1.227 3.191-1.881 5.244l-.053.169c-.937 2.948-2.115 6.738-3.059 9.79l-1.18 3.827-.164.534a23.836 23.836 0 0 1-.492-.953c-.143-.288-.295-.6-.454-.929a82.91 82.91 0 0 0-1.046-2.106c-.556-1.068-1.173-2.144-1.833-3-.646-.839-1.401-1.558-2.258-1.768a.5.5 0 0 0-.611.574c.337 1.856.853 5.021 1.286 7.727a1056.723 1056.723 0 0 1 .72 4.551l.061.39v.002l.494-.076-.424.263.234.379a448.236 448.236 0 0 1 2.5 4.08 164.166 164.166 0 0 1 1.875 3.168c.256.448.466.827.61 1.108a5.2 5.2 0 0 1 .159.328c.01.021.016.038.021.05-.002 1.012-.213 2.887-.432 4.554-.11.842-.221 1.62-.304 2.187l-.101.674-.028.184-.005.032-14.264 48.109-10.715-18.151a.498.498 0 0 0-.685-.177l-17.093 10.094a.5.5 0 0 0-.147.729l3.418 4.581.015.024.082.139a210.603 210.603 0 0 0 1.505 2.485 231.77 231.77 0 0 0 4.088 6.407c3.291 4.973 7.498 10.872 11.106 14.462 3.703 3.683 9.2 5.006 14.072 3.261 4.893-1.752 9.058-6.556 10.202-14.923l9.479-55.805a.474.474 0 0 0 .006-.12c-.009-.127.005-.358.057-.706.05-.338.13-.76.239-1.255.217-.99.541-2.256.941-3.713.799-2.915 1.896-6.572 3.031-10.282.587-1.916 1.185-3.849 1.758-5.7 1.637-5.293 3.068-9.918 3.437-11.581a.497.497 0 0 0-.527-.607 1.083 1.083 0 0 0-.55.218 2.31 2.31 0 0 0-.414.404c-.254.308-.514.727-.779 1.212a35.086 35.086 0 0 0-.922 1.856c-.163-3.347-.48-7.712-.959-10.465-.204-1.17-.453-2.565-1.338-3.61Zm-54.111 88.023.431-.253a.463.463 0 0 0-.031-.046l-3.101-4.156 16.184-9.556 11.044 18.709a.501.501 0 0 0 .91-.112l14.599-49.242a.34.34 0 0 0 .015-.065l.01-.066.029-.186.101-.679c.084-.57.196-1.354.307-2.202.221-1.682.447-3.667.441-4.744l-.501.002h.501v-.002a.739.739 0 0 0-.041-.224 1.958 1.958 0 0 0-.062-.162 6.659 6.659 0 0 0-.188-.39 31.57 31.57 0 0 0-.631-1.146 160.53 160.53 0 0 0-1.888-3.19 485.403 485.403 0 0 0-2.505-4.09l-.182-.293-.046-.292-.167-1.066c-.141-.898-.336-2.135-.553-3.488-.362-2.265-.785-4.86-1.112-6.741.291.236.597.562.914.974.606.786 1.19 1.799 1.738 2.852.366.702.706 1.405 1.025 2.062.161.332.316.652.466.955.221.446.431.853.624 1.19.189.327.383.624.579.822a.5.5 0 0 0 .834-.204l-.478-.146.478.146.125-.409.347-1.129c.295-.96.709-2.3 1.18-3.826.943-3.05 2.12-6.837 3.056-9.781m0 0 .038-.121c.667-2.094 1.222-3.835 1.848-5.172.641-1.367 1.313-2.212 2.154-2.594 1.666-.76 3.78-.584 4.857.684.681.806.903 1.919 1.114 3.135.575 3.301.918 9.04 1.031 12.41a.5.5 0 0 0 .955.191l.086-.189c.546-1.197 1.035-2.27 1.472-3.114-.642 2.225-1.659 5.51-2.78 9.133-.577 1.866-1.182 3.822-1.778 5.769-1.136 3.71-2.237 7.38-3.04 10.31a77.538 77.538 0 0 0-.953 3.764c-.111.507-.197.953-.252 1.323-.049.33-.077.625-.068.858l-9.471 55.759-.003.016c-1.103 8.086-5.079 12.525-9.55 14.126-4.493 1.609-9.588.394-13.028-3.028-3.529-3.511-7.687-9.333-10.978-14.305a232.284 232.284 0 0 1-5.251-8.322l-.316-.529-.081-.137-.027-.046-.431.253m34.963-61.916-.424.264a.49.49 0 0 1-.07-.187l.494-.076Z" fill="#0C296E"/><path d="M156.258 65.572c.779-3.15 2.361-9.517 3.138-12.66l-3.138 12.66Z" fill="#fff"/><path d="M159.515 52.427a.5.5 0 0 0-.605.365l-1.801 7.27-1.336 5.39a.5.5 0 1 0 .971.24l1.335-5.388a5498.01 5498.01 0 0 0 1.802-7.272.5.5 0 0 0-.366-.605Z" fill="#0C296E"/><path d="M160.802 66.948c.536-3.63 1.796-9.063 2.166-12.717l-2.166 12.717Z" fill="#fff"/><path d="M163.018 53.734a.5.5 0 0 0-.548.446c-.182 1.803-.586 4.055-1.014 6.326l-.235 1.235c-.35 1.842-.693 3.64-.913 5.135a.5.5 0 1 0 .989.146c.217-1.472.555-3.244.905-5.085l.237-1.245c.428-2.267.839-4.56 1.026-6.41a.5.5 0 0 0-.447-.548Z" fill="#0C296E"/><path d="M154.671 66.663a157.04 157.04 0 0 0 7.318 1.682l-7.318-1.682Z" fill="#fff"/><path d="M154.186 66.54a.5.5 0 0 0 .361.607 158.63 158.63 0 0 0 7.342 1.688.5.5 0 1 0 .2-.98 157.546 157.546 0 0 1-7.295-1.676.5.5 0 0 0-.608.36Z" fill="#0C296E"/><path d="M149.549 75.842c1.423 1.484 2.658 2.942 3.47 4.395l-3.47-4.395Z" fill="#fff"/><path d="M149.203 75.481a.5.5 0 0 0-.015.707c1.416 1.477 2.614 2.897 3.395 4.293a.5.5 0 1 0 .873-.487c-.844-1.51-2.115-3.005-3.545-4.497a.501.501 0 0 0-.708-.016Z" fill="#0C296E"/><path d="M158.989 78.975c1.696-1.606 3.395-3.218 4.978-4.938.568-.621 1.015-1.348 1.375-2.106l1.104-2.382" fill="#fff"/><path d="M166.656 69.096a.5.5 0 0 0-.664.243l-1.103 2.38c-.345.726-.766 1.406-1.291 1.98-1.569 1.705-3.256 3.306-4.953 4.914a.5.5 0 1 0 .688.725c1.694-1.604 3.406-3.228 5.002-4.963h.001c.61-.667 1.083-1.44 1.457-2.23l.002-.004 1.104-2.382a.5.5 0 0 0-.243-.663Zm-132.88 53.19c17.423-.315 34.845-.635 52.267-.951 8.03-.146 28.284-.553 39.296-.553 1.288-3.785-8.033-11.294-9.562-14.322-2.291-4.535-1.892-5.775-2.318-10.776-.593-6.976-5.19-10.979-8.919-16.537-3.464-5.163-4.914-11.89-5.656-18.005-.21-1.725-.573-3.43-1.145-5.069-1.308-3.734-3.579-7.224-7.398-9.853-7.659-5.088-17.513-4.042-24.339.407-5.822 3.797-8.353 8.736-9.48 15.411-1.188 7.043-7.105 11.113-9.068 17.737-1.256 4.247-.177 8.91-1.374 13.173-1.34 4.757-5.265 8.262-7.998 12.383-1.83 2.756-3.192 6.49-2.473 9.826.806 3.75 3.322 5.337-1.833 7.129Z" fill="#0C296E"/><path d="M65.73 46.208c-5.966 3.891-8.557 8.97-9.7 15.747-.574 3.403-2.29 6.1-4.163 8.825l-.484.701c-1.715 2.48-3.486 5.041-4.408 8.152-.65 2.2-.693 4.495-.73 6.714v.055c-.038 2.223-.073 4.369-.646 6.41-.645 2.29-1.916 4.295-3.395 6.266-.52.693-1.073 1.389-1.63 2.092-1.004 1.266-2.026 2.553-2.909 3.885-1.864 2.809-3.304 6.684-2.545 10.208.207.962.521 1.785.786 2.478l.014.038c.277.726.474 1.258.51 1.716.031.405-.064.739-.426 1.089-.397.382-1.122.789-2.392 1.23a.5.5 0 0 0 .173.972c8.712-.157 17.423-.316 26.134-.475h.015l26.118-.476 3.418-.063c9.384-.175 26.196-.489 35.869-.489a.5.5 0 0 0 .474-.339c.395-1.162-.045-2.51-.773-3.814-.742-1.33-1.862-2.75-3.048-4.12-.765-.885-1.574-1.767-2.335-2.597-.415-.453-.816-.89-1.188-1.304-1.079-1.201-1.899-2.187-2.246-2.874-1.13-2.237-1.581-3.631-1.811-5.067-.144-.905-.201-1.814-.273-2.966-.045-.734-.097-1.567-.182-2.56-.306-3.6-1.647-6.424-3.364-9.033-.856-1.3-1.809-2.553-2.772-3.817l-.034-.045c-.955-1.253-1.92-2.52-2.832-3.878-3.395-5.062-4.834-11.69-5.575-17.787-.212-1.754-.583-3.496-1.17-5.174-1.336-3.817-3.665-7.4-7.586-10.1l-.007-.004c-7.855-5.22-17.928-4.133-24.888.404Zm.545.838c-5.678 3.703-8.15 8.502-9.259 15.075-.614 3.64-2.45 6.498-4.325 9.226l-.474.688c-1.729 2.5-3.409 4.932-4.283 7.882m67.397 26.769c-1.161-2.299-1.656-3.793-1.906-5.36-.151-.946-.213-1.934-.289-3.133-.046-.73-.097-1.54-.176-2.467-.286-3.377-1.54-6.042-3.202-8.567-.834-1.267-1.766-2.493-2.732-3.761l-.042-.054c-.95-1.247-1.931-2.534-2.859-3.918-3.532-5.266-4.993-12.09-5.737-18.224-.206-1.696-.563-3.365-1.121-4.964-1.278-3.65-3.49-7.045-7.206-9.604-7.462-4.955-17.096-3.949-23.786.412m-18.341 32.87c-.606 2.049-.652 4.208-.69 6.448l-.001.114c-.036 2.18-.074 4.438-.682 6.605-.695 2.469-2.055 4.594-3.557 6.595-.556.741-1.125 1.457-1.69 2.168-.982 1.238-1.952 2.46-2.816 3.762-1.793 2.702-3.078 6.296-2.4 9.444.19.887.482 1.65.75 2.352l.016.043c.257.675.513 1.346.562 1.97.054.685-.138 1.318-.728 1.887a3.942 3.942 0 0 1-.556.44l23.743-.433.2-.003 25.95-.473 3.415-.063c9.255-.173 25.753-.481 35.494-.489m-88.802 1.461-2.375.043.01.5.164.472c.937-.326 1.661-.657 2.201-1.015Zm88.802-1.461h.395v.5l-.473-.161c.036-.107.062-.22.078-.339Z" fill="#0C296E"/><path d="m64.946 181.527 41.154-.179c3.757 7.691 9.03 22.495 11.954 31.785H47.677c.083-.336.17-.66.258-.971 3.554-14.403 7.187-17.927 17.011-30.635Z" fill="#3370FF"/><path d="M106.549 181.128a.5.5 0 0 0-.452-.28l-41.153.179a.503.503 0 0 0-.393.194c-1.003 1.298-1.943 2.501-2.826 3.632-3.427 4.387-5.996 7.676-8.064 11.097-2.612 4.323-4.425 8.854-6.21 16.084-.09.314-.176.64-.26.979a.5.5 0 0 0 .486.62h70.251a.502.502 0 0 0 .609-.633l-.006-.017c-2.926-9.295-8.207-24.128-11.982-31.855Zm10.823 31.505h-69.05l.093-.333.005-.018c1.769-7.168 3.55-11.599 6.097-15.814 2.034-3.365 4.556-6.594 7.975-10.973.844-1.08 1.742-2.23 2.7-3.469l40.595-.177c3.644 7.552 8.662 21.588 11.585 30.784Z" fill="#3370FF"/><path d="M70.131 96.962c1.151-.986 3.253-3.122 3.253-13.637l19.332-12.597c-.347 15.81-1.407 23.569 2.028 26.252.786.603 2.91 1.681 5.756 1.698l.841 3.724-3.033 12.69-23.883-5.095-4.732-7.96-1.846-4.436 2.284-.639Z" fill="#fff"/><path d="M92.96 70.292a.5.5 0 0 0-.517.018L73.111 82.906a.5.5 0 0 0-.227.419c0 5.231-.524 8.333-1.168 10.231-.602 1.775-1.311 2.504-1.827 2.955l-2.176.608a.5.5 0 0 0-.328.674l1.846 4.436c.01.022.02.043.032.064l4.733 7.959a.5.5 0 0 0 .325.234l23.882 5.095a.5.5 0 0 0 .59-.373l3.034-12.69a.507.507 0 0 0 .002-.226l-.841-3.724a.5.5 0 0 0-.485-.39c-2.73-.016-4.747-1.053-5.453-1.593-.747-.585-1.28-1.465-1.64-2.75-.36-1.293-.538-2.96-.598-5.073-.076-2.663.034-5.966.17-10.025.08-2.395.17-5.053.234-7.997a.5.5 0 0 0-.257-.448Zm-.766 1.373c-.06 2.535-.139 4.861-.21 6.99-.136 4.088-.249 7.443-.172 10.136.061 2.139.241 3.902.636 5.313.397 1.418 1.02 2.513 1.989 3.27l.003.003c.828.635 2.896 1.683 5.659 1.792l.729 3.23-2.893 12.102-23.192-4.948-4.602-7.741-1.615-3.882 1.74-.487a.501.501 0 0 0 .19-.101c.63-.54 1.503-1.392 2.207-3.464.682-2.01 1.203-5.158 1.22-10.282l18.311-11.93Z" fill="#0C296E"/><path d="M52.364 103.806c6.889-2.833 5.77-2.255 15.115-7.501l.22.02c1.398 1.615 9.245 10.194 18.43 12.209 8.426 1.855 12.34-.659 13.478-5.905.539-2.494.36-3.95.04-4.509 4.313 1.536 12.859 3.511 17.172 6.663 6.729 4.928 16.134 26.173 16.134 26.173l-16.134 11.97-1.118-5.107-10.223 42.671-41.154.18-13.697-47.759" fill="#FFC60A"/><path d="M67.524 95.807a.5.5 0 0 0-.29.062l-1.207.678c-3.84 2.157-5.67 3.185-7.248 3.965-1.46.722-2.698 1.229-5.123 2.223l-1.482.608a.5.5 0 0 0 .38.925l1.475-.605c2.424-.993 3.7-1.516 5.193-2.254 1.603-.793 3.459-1.836 7.279-3.981l1.005-.565c.878.994 3.107 3.379 6.177 5.809 3.312 2.619 7.64 5.319 12.338 6.35 4.261.938 7.478.796 9.798-.328 2.349-1.137 3.685-3.23 4.277-5.959.276-1.276.372-2.304.353-3.098a6.168 6.168 0 0 0-.057-.734c.899.297 1.92.61 3.005.941l.12.037c1.443.44 3 .916 4.557 1.439 3.213 1.079 6.361 2.34 8.45 3.867 1.609 1.178 3.419 3.369 5.242 6.046 1.814 2.665 3.611 5.766 5.203 8.722a180.677 180.677 0 0 1 5.363 10.839l-15.19 11.27-.953-4.352a.498.498 0 0 0-.974-.01l-10.132 42.29-40.382.176-13.594-47.394a.5.5 0 1 0-.961.275l13.698 47.759a.5.5 0 0 0 .482.362l41.154-.18a.5.5 0 0 0 .484-.383l9.715-40.55.652 2.976a.498.498 0 0 0 .786.295l16.134-11.97a.499.499 0 0 0 .159-.604l-.457.202.457-.202-.007-.016-.02-.046-.081-.18a175.844 175.844 0 0 0-1.472-3.167 183.272 183.272 0 0 0-3.98-7.865c-1.601-2.971-3.416-6.105-5.258-8.81-1.833-2.692-3.722-5.005-5.477-6.29-2.225-1.626-5.506-2.928-8.723-4.008a168.02 168.02 0 0 0-4.579-1.446l-.124-.038c-1.478-.452-2.809-.86-3.874-1.239a.5.5 0 0 0-.602.72c.1.173.22.579.236 1.291.017.698-.067 1.645-.33 2.863-.547 2.517-1.737 4.303-3.736 5.271-2.027.982-4.98 1.168-9.146.251-4.487-.984-8.675-3.58-11.933-6.158-3.252-2.573-5.541-5.097-6.227-5.89a.5.5 0 0 0-.333-.17l-.22-.02Z" fill="#FFC60A"/><path d="M77.523 126a4.004 4.004 0 0 0-5.466-1.464l-30.82 17.777a3.996 3.996 0 0 0-1.464 5.462l24.33 42.103a4.004 4.004 0 0 0 5.467 1.464l30.82-17.777a3.996 3.996 0 0 0 1.463-5.462L77.523 126Z" fill="#00D6B9"/><path d="M122.111 139.334c1.837-.858 3.394-2.653 3.075-3.75-.2-.539-.999-.419-1.478-.14-4.612 2.534-12.899 5.965-17.771 7.94" fill="#fff"/><path d="M124.712 135.745c.032.133.021.327-.08.587-.104.271-.293.578-.558.896a6.545 6.545 0 0 1-2.174 1.653.5.5 0 1 0 .423.906 7.534 7.534 0 0 0 2.518-1.918c.314-.375.569-.776.724-1.177.154-.398.222-.833.101-1.248a.338.338 0 0 0-.011-.034c-.201-.543-.706-.699-1.098-.703a2.235 2.235 0 0 0-1.094.302c-4.583 2.516-12.836 5.934-17.713 7.911a.5.5 0 0 0 .375.927c4.865-1.972 13.181-5.414 17.824-7.965l.011-.006c.176-.102.408-.171.588-.169a.343.343 0 0 1 .151.027l.001.001c.005.003.008.004.012.01Z" fill="#0C296E"/><path d="m53.263 142.248-4.094 26.174s33.386-13.606 44.947-20.269c7.588-4.369 19.069-7.102 28.514-8.638 6.19-1.017 1.598 11.631-1.637 13.546-2.955 1.735-6.57 1.855-9.984 1.955-2.676.06-7.408-.28-10.084-.2-3.993.14-27.715 20.648-44.967 29.365-8.446 4.25-20.287 7.621-22.963-.259-2.416-7.102-.359-41.434-.359-41.434l20.627-.24Z" fill="#fff"/><path d="M124.71 139.288c-.586-.321-1.312-.406-2.161-.266-9.453 1.537-21.011 4.281-28.682 8.698-5.751 3.314-16.96 8.37-26.758 12.607a1058.608 1058.608 0 0 1-16.673 7.034l-.636.262 3.957-25.298a.499.499 0 0 0-.5-.577l-20.627.24a.5.5 0 0 0-.493.47l.499.03-.5-.03v.001l-.005.098-.017.289-.06 1.104a533.308 533.308 0 0 0-.643 16.58c-.107 4.74-.138 9.708.01 13.939.146 4.204.47 7.757 1.101 9.614.714 2.102 2.054 3.476 3.798 4.258 1.725.773 3.815.956 6.037.757 4.442-.397 9.58-2.334 13.826-4.47 8.668-4.38 18.945-11.712 27.524-17.941l2.062-1.499c3.473-2.526 6.602-4.801 9.153-6.537 1.523-1.037 2.83-1.873 3.875-2.453a12.1 12.1 0 0 1 1.342-.661c.378-.153.64-.215.803-.221 1.317-.039 3.15.025 5.007.092l.176.006c1.788.066 3.582.131 4.895.101h.004c3.388-.099 7.137-.212 10.222-2.023l.002-.001c.931-.552 1.878-1.805 2.674-3.258a20.488 20.488 0 0 0 1.91-4.929c.395-1.662.519-3.327.079-4.542-.227-.623-.611-1.151-1.201-1.474Zm-91.602 3.694 19.57-.227-4.003 25.589a.502.502 0 0 0 .683.541l-.189-.464.189.464.378-.155 1.08-.444a1059.095 1059.095 0 0 0 16.69-7.041c9.786-4.232 21.05-9.31 26.86-12.659 7.504-4.32 18.908-7.043 28.344-8.577.7-.115 1.184-.027 1.519.156.331.181.578.489.742.939.338.93.272 2.356-.112 3.968a19.504 19.504 0 0 1-1.814 4.681c-.781 1.425-1.621 2.471-2.306 2.877-2.825 1.659-6.303 1.785-9.743 1.886-1.283.028-3.051-.036-4.856-.102l-.155-.005c-1.846-.067-3.717-.133-5.075-.093h-.002c-.337.012-.728.126-1.143.293-.424.171-.912.413-1.454.714-1.084.603-2.42 1.459-3.952 2.501-2.565 1.745-5.71 4.032-9.182 6.558l-2.057 1.495c-8.592 6.239-18.803 13.52-27.387 17.858-4.2 2.113-9.205 3.986-13.465 4.367-2.128.19-4.028.004-5.539-.674-1.492-.669-2.636-1.829-3.26-3.667-.576-1.694-.902-5.096-1.05-9.327-.146-4.203-.115-9.15-.01-13.881.107-4.73.288-9.24.443-12.567a536.724 536.724 0 0 1 .256-5.004Z" fill="#0C296E"/><path d="M125.082 143.705a.5.5 0 0 0-.572-.416c-.376.06-.752.114-1.132.169h-.001c-.379.055-.761.11-1.143.171a.5.5 0 1 0 .155.987c.376-.059.752-.113 1.132-.168l.002-.001c.378-.054.76-.109 1.143-.17a.5.5 0 0 0 .416-.572Zm-5.463 4.019a.5.5 0 0 0 .426.564c1.054.148 2.237.104 3.399.024a.5.5 0 0 0-.069-.998c-1.155.08-2.248.116-3.191-.016a.5.5 0 0 0-.565.426Zm-69.995 20.488a.5.5 0 0 0-.663-.246l-8.007 3.67a.5.5 0 0 0 .417.909l8.007-3.67a.5.5 0 0 0 .246-.663Z" fill="#0C296E"/><path d="m55.06 132.252-1.778 13.067-21.765-.958s0-16.558 2.217-24.956c.938-3.033 2.496-9.636 18.63-15.581" fill="#FFC60A"/><path d="M52.833 103.651a.5.5 0 0 0-.642-.296c-8.116 2.99-12.617 6.165-15.21 9.015-2.445 2.686-3.167 5.057-3.636 6.596-.03.101-.06.198-.09.291l-.005.02c-1.123 4.254-1.678 10.539-1.955 15.729a205.543 205.543 0 0 0-.277 9.165v.189l.5.001-.5-.001a.5.5 0 0 0 .477.501l21.765.957a.5.5 0 0 0 .517-.432l1.777-13.067a.5.5 0 1 0-.99-.134l-1.716 12.614-20.828-.916c0-.074 0-.156.002-.245a204.661 204.661 0 0 1 .272-8.579c.276-5.185.828-11.372 1.92-15.517l.086-.279c.46-1.509 1.128-3.701 3.42-6.22 2.453-2.695 6.798-5.795 14.816-8.749a.501.501 0 0 0 .297-.643Z" fill="#FFC60A"/><path d="M55.126 131.757a.5.5 0 0 0-.562.428l-1.778 13.066a.5.5 0 1 0 .991.135l1.777-13.067a.5.5 0 0 0-.428-.562Zm14.705-86.193a6.041 6.041 0 0 0 6.043-6.04 6.041 6.041 0 0 0-6.043-6.04 6.041 6.041 0 0 0-6.043 6.04 6.041 6.041 0 0 0 6.043 6.04Z" fill="#0C296E"/><path d="M69.831 33.984a5.541 5.541 0 0 0-5.543 5.54c0 3.06 2.482 5.54 5.543 5.54a5.541 5.541 0 0 0 5.543-5.54 5.54 5.54 0 0 0-5.543-5.54Zm-6.543 5.54c0-3.612 2.93-6.54 6.543-6.54a6.541 6.541 0 0 1 6.543 6.54c0 3.612-2.93 6.54-6.543 6.54a6.541 6.541 0 0 1-6.543-6.54Z" fill="#0C296E"/><path d="M81.437 47.398h-.038c-9.572 0-17.336 7.471-17.336 16.69 0 9.218 2.225 11.21 6.74 11.21.007 0 10.607 5.479 10.611 5.479h.019c17.336 0 17.253-6.676 17.253-15.894.008-9.219-7.673-17.485-17.25-17.485Z" fill="#fff"/><path d="M63.563 64.088c0-9.513 8.006-17.19 17.836-17.19h.037c9.867 0 17.758 8.505 17.75 17.985v.15c0 2.24 0 4.37-.262 6.29-.27 1.97-.82 3.762-1.965 5.266-2.3 3.022-6.833 4.688-15.526 4.688h-.018a1.058 1.058 0 0 1-.215-.049l-.008-.003-.005-.003-.008-.004-.024-.012-5.275-2.725a22255.55 22255.55 0 0 0-4.849-2.504l-.337-.173-.013-.007h.121a1.002 1.002 0 0 1-.2-.041l-.013-.007-.004-.001.02.01.076.039c-2.273-.018-4.12-.549-5.355-2.367-1.212-1.786-1.763-4.725-1.763-9.342Zm17.836-16.19c-9.314 0-16.836 7.265-16.836 16.19 0 4.601.562 7.266 1.59 8.78.985 1.45 2.463 1.93 4.65 1.93a1 1 0 0 1 .2.041l.014.007.01.004.009.005.025.013.09.046.338.174 1.203.621 3.647 1.884 5.196 2.684c8.573-.014 12.642-1.683 14.628-4.293 1.002-1.317 1.513-2.922 1.77-4.797.253-1.851.253-3.923.253-6.194v-.11c.008-8.957-7.464-16.985-16.75-16.985H81.4Z" fill="#0C296E"/><path d="M98.564 62.576c.78 5.592 1.024 12.133-.23 17.222-1.474 5.978-5.71 9.92-12.075 10.58-3.744.386-7.61-1.024-10.412-3.5-2.803-2.475-4.9-7.692-5.96-11.577" fill="#fff"/><path d="M98.494 62.081a.5.5 0 0 1 .564.426c.784 5.615 1.038 12.23-.238 17.41-1.523 6.175-5.926 10.275-12.51 10.958-3.898.402-7.899-1.064-10.795-3.622-1.475-1.302-2.735-3.295-3.753-5.418-1.022-2.132-1.821-4.437-2.357-6.402a.5.5 0 0 1 .965-.263c.523 1.92 1.302 4.165 2.294 6.232.995 2.076 2.185 3.93 3.513 5.102 2.71 2.393 6.44 3.747 10.03 3.376 6.146-.637 10.215-4.42 11.642-10.202 1.23-4.998.996-11.464.22-17.033a.5.5 0 0 1 .425-.564Z" fill="#0C296E"/><path d="M92.474 67.033a.5.5 0 0 1 .622.335l2.138 7.148a.876.876 0 0 1-1.013 1.11h-.003l-1.527-.319a.5.5 0 1 1 .204-.979l1.322.276-2.08-6.949a.5.5 0 0 1 .337-.622Zm-23.607 2.099c.221-4.599 25.792.008 25.792-17.176 0 0-7.07-12.573-24.824-4.958-8.449 3.62-10.23 15.633-9.341 22.146.367 2.692 2.042 2.87 5.107 2.791 1.019-.028 1.931-2.803 3.266-2.803Z" fill="#0C296E"/><path d="m95.094 51.71-.435.246.436-.245a.5.5 0 0 1 .064.245c0 4.441-1.66 7.514-4.174 9.666-2.49 2.133-5.784 3.335-9.02 4.127-2.067.506-4.169.856-6.035 1.166a95.485 95.485 0 0 0-2.842.5c-1.21.241-2.173.496-2.832.814-.668.323-.875.634-.89.927a.5.5 0 0 1-.499.476c-.154 0-.345.08-.595.306-.249.224-.494.534-.756.885l-.11.146c-.219.295-.454.61-.69.86-.26.275-.63.593-1.102.606-1.51.039-2.811.025-3.779-.398A2.751 2.751 0 0 1 60.597 71c-.31-.475-.5-1.069-.599-1.788-.453-3.327-.226-8.035 1.19-12.38 1.414-4.345 4.043-8.405 8.45-10.294 9.008-3.863 15.377-2.625 19.508-.355a16.993 16.993 0 0 1 4.505 3.596c.485.546.843 1.024 1.08 1.367a9.863 9.863 0 0 1 .338.52l.018.032.005.009.002.002v.002Zm-.935.383-.008-.012a8.866 8.866 0 0 0-.241-.365c-.218-.315-.552-.76-1.007-1.273a15.994 15.994 0 0 0-4.239-3.383c-3.843-2.112-9.886-3.354-18.632.398-4.041 1.731-6.527 5.487-7.894 9.683-1.365 4.194-1.584 8.749-1.149 11.936.086.626.242 1.064.446 1.377.198.306.459.517.801.667.728.318 1.796.354 3.352.314.039-.001.164-.041.402-.293.192-.203.386-.463.608-.762l.117-.156c.26-.347.557-.732.887-1.03.232-.208.512-.403.837-.499.193-.626.743-1.058 1.383-1.367.782-.377 1.853-.651 3.07-.894.907-.18 1.898-.344 2.947-.518 1.835-.305 3.847-.638 5.888-1.138 3.184-.78 6.296-1.935 8.608-3.915 2.264-1.939 3.79-4.694 3.824-8.77Z" fill="#0C296E"/><path d="M70.805 75.3c-1.219-.068-3.133-.47-4.176-1.137-1.28-.817-2.293-2.295-2.522-3.814-.146-.96-.003-4.568 3.46-4.568 1.396 0 3.28 1.79 3.858 2.265" fill="#fff"/><path d="M64.941 67.907c-.403.915-.402 1.957-.34 2.367.207 1.368 1.131 2.723 2.297 3.468.456.292 1.136.543 1.876.73.733.185 1.484.297 2.06.328a.5.5 0 0 1-.056.999 12.437 12.437 0 0 1-2.25-.358c-.782-.197-1.581-.48-2.169-.856-1.392-.89-2.494-2.49-2.746-4.161-.084-.55-.084-1.792.413-2.92.253-.574.641-1.135 1.23-1.552.592-.42 1.354-.67 2.311-.67.45 0 .904.141 1.319.332a7.7 7.7 0 0 1 1.205.713c.57.402 1.089.85 1.416 1.132.096.084.176.153.236.202a.5.5 0 0 1-.636.771c-.08-.065-.176-.148-.286-.243a16.96 16.96 0 0 0-1.307-1.045 6.734 6.734 0 0 0-1.045-.621c-.348-.16-.653-.242-.902-.242-.774 0-1.329.2-1.733.487-.408.29-.695.69-.893 1.139Z" fill="#0C296E"/></g></svg>