<svg width="120" height="120" viewBox="0 0 120 120" fill="none" xmlns="http://www.w3.org/2000/svg"><path d="M63.185 103.817c-11.43 0-41.774-3.023-48.031-5.836.184 1.946-.24 4.699 0 7.222 11.251 4.81 48.031 5.83 48.031 5.83v-7.216Z" fill="#4C88FF"/><path d="M100.994 20.024c.643-.187 1.055-.306 1.055-1.576v8.666c0 1.915-1.269 3.208-3.544 4.89-4.29 2.928-9.066 5.248-13.724 7.403l-5.74-4.31a3.945 3.945 0 0 0-2.69-.794c.214-.09.42-.176.614-.259 1.203-.59 2.5-1.205 3.848-1.844 6.755-3.205 14.762-7.004 18.384-11.085.679-.767 1.305-.949 1.797-1.091ZM72.669 37.818l-.924 7.669c-3.95 1.734-8.495 3.566-13.091 5.395a3.998 3.998 0 0 0-3.093-2.463l-9.096-1.428c9.657-4.357 19.043-8.218 25.34-10.81h.002l2.212-.91a3.944 3.944 0 0 0-1.35 2.547ZM22.821 58.79c-2.796 1.609-5.335 3.198-7.497 4.734-1.771 1.538-3.199 3.07-4.245 4.55a14.341 14.341 0 0 0-1.3 2.215 9.494 9.494 0 0 0-.719 2.155c-.095.478-.141.95-.141 1.414h-.002v6.988c0-.463.048-.936.142-1.414.139-.7.72-.154.72-.154s.771-1.469 1.3-2.216c1.045-1.48 4.431-4.457 6.203-5.995a81.343 81.343 0 0 1 4.041-2.735l1.498-9.543Z" fill="#fff" fill-opacity=".4"/><path d="M105.527 54.984c2.462 1.848 2 5.669-.831 6.877L74.252 74.858c-2.832 1.208-5.91-1.1-5.542-4.157l3.959-32.883c.368-3.059 3.91-4.57 6.373-2.72l26.485 19.886ZM55.56 48.419l-26.41-4.146a4 4 0 0 0-4.573 3.33l-4.146 26.413a4 4 0 0 0 3.331 4.571l26.412 4.147a4 4 0 0 0 4.572-3.331l4.146-26.412a4 4 0 0 0-3.331-4.572Z" fill="#fff" fill-opacity=".3"/><path d="M8.917 73.49a9.113 9.113 0 0 0 .603 3.292c.255.668.587 1.314.983 1.917 2.363 3.594 6.676 5.384 10.687 6.407 4.877 1.245 19.89 3.177 24.907 3.177v8.187c-5.017 0-20.028-1.935-24.907-3.177-4.011-1.023-8.324-2.812-10.687-6.407a9.942 9.942 0 0 1-.983-1.918 9.213 9.213 0 0 1-.603-3.291v-8.188Z" fill="#41CCB9"/><path d="M51.498 41.464c10.34 0 18.723-8.383 18.723-18.723S61.838 4.018 51.498 4.018 32.774 12.4 32.774 22.74c0 10.34 8.383 18.723 18.724 18.723Z" fill="#fff" fill-opacity=".3"/><path d="M102.045 27.805a11.682 11.682 0 0 0-.451-2.933c-1.73-5.998-7.898-9.236-13.466-10.947V4.972c4.805 1.476 9.915 3.536 12.458 8.1.428.77.767 1.583 1.008 2.415.302 1.044.455 2.143.455 3.252v9.385c0-.107-.001-.213-.004-.32Z" fill="#41CCB9"/><path d="M79.96 69.886a.317.317 0 0 1 .131.005.05.05 0 0 1 .026.017c.022.026.08.128.08.388 0 .25-.055.589-.183 1.011-.245.81-.8 1.818-1.523 2.898-.718 1.072-1.58 2.183-2.415 3.19a68.326 68.326 0 0 1-3.134 3.518l-.051.052-.013.013-.004.005a.5.5 0 1 0 .717.697l-.3-.292.3.292.004-.005.014-.014.053-.055.2-.21a69.339 69.339 0 0 0 2.983-3.363c.848-1.022 1.734-2.16 2.477-3.272.739-1.102 1.36-2.21 1.649-3.163.145-.48.226-.92.226-1.301 0-.372-.076-.754-.32-1.039-.267-.311-.647-.41-1.032-.365-.367.043-.767.214-1.186.475-2.346 1.46-8.254 5.437-13.564 9.041a2820.136 2820.136 0 0 0-9.222 6.289l-.823.563.283.413-.418-.274-.387.587-1.063 1.615-3.566 5.406c-2.82 4.271-6.263 9.473-8.757 13.201a.5.5 0 1 0 .831.556 2875.69 2875.69 0 0 0 8.761-13.206 6454.338 6454.338 0 0 0 4.63-7.022l.333-.506.74-.508a2631.307 2631.307 0 0 1 9.22-6.286c5.318-3.61 11.205-7.574 13.53-9.02.36-.224.614-.312.773-.33ZM55.333 85.674l-.283-.413a.507.507 0 0 0-.135.139l.418.274Zm55.055-16.818c1.75-.923 2.734-.852 3.293-.313.136.131.38.45.362 1.02-.018.584-.313 1.507-1.436 2.824-2.017 2.365-5.751 7.142-7.946 9.95l-.878 1.124a.499.499 0 1 0 .787.617l.883-1.13c2.198-2.811 5.914-7.566 7.914-9.912 1.207-1.414 1.648-2.548 1.676-3.441.028-.908-.372-1.487-.668-1.772-1.074-1.035-2.654-.8-4.454.149-1.837.97-4.145 2.8-6.94 5.442-2.194 2.073-5.868 3.983-9.636 5.516-3.755 1.528-7.54 2.657-9.907 3.19a.5.5 0 1 0 .22.976c2.422-.546 6.26-1.692 10.064-3.24 3.79-1.542 7.61-3.508 9.946-5.716 2.78-2.627 5.008-4.38 6.72-5.284Z" fill="#E0E0E0"/><path d="M107.732 83.562c-.602.005-1.301.213-1.802.366-.881.27-2.214.941-3.75 1.826-1.524.878-3.21 1.944-4.785 2.978a190.037 190.037 0 0 0-5.703 3.902l-.09.064-.03.021-.292-.406.292.406a.502.502 0 0 1-.254.093c-2.13.164-4.596.091-7.115.017-1.328-.04-2.67-.08-3.986-.085-3.868-.017-7.548.256-10.315 1.593a.5.5 0 0 1-.435-.901c2.993-1.445 6.881-1.709 10.755-1.692 1.378.006 2.751.047 4.092.087 2.424.072 4.741.141 6.789-.006l.008-.006a136.569 136.569 0 0 1 1.62-1.14 191.183 191.183 0 0 1 4.116-2.783c1.581-1.039 3.286-2.117 4.834-3.008 1.535-.885 2.956-1.61 3.956-1.916l.004-.001c.478-.147 1.313-.402 2.083-.409.389-.003.814.056 1.18.268.386.223.66.59.771 1.098a.819.819 0 0 1-.037.445 1.65 1.65 0 0 1-.17.335c-.135.21-.331.444-.564.692-.469.498-1.146 1.112-1.952 1.792-1.614 1.363-3.792 3.033-5.971 4.649a379.564 379.564 0 0 1-8.566 6.141l-.198.137-.285-.41.14.48-.056.016-.164.047a365.022 365.022 0 0 1-2.947.835c-1.96.547-4.68 1.29-7.71 2.072-6.054 1.562-13.381 3.29-18.4 3.929-.454.058-1.005.345-1.607.814-.591.462-1.181 1.059-1.71 1.659a24.132 24.132 0 0 0-1.686 2.164l-.1.146-.026.038-.006.009-.001.002a.5.5 0 1 1-.835-.55l.335.221-.335-.221.003-.005.007-.011.029-.042.106-.156a25.225 25.225 0 0 1 1.758-2.255c.55-.625 1.186-1.273 1.846-1.787.648-.506 1.373-.926 2.096-1.018 4.949-.63 12.22-2.343 18.276-3.906a413.815 413.815 0 0 0 10.63-2.898l.139-.04.13-.091.556-.388a347.004 347.004 0 0 0 7.985-5.735c2.175-1.613 4.332-3.267 5.922-4.61.797-.673 1.439-1.257 1.869-1.714a4.25 4.25 0 0 0 .451-.546c.026-.042.043-.073.054-.095a.593.593 0 0 0-.278-.378c-.15-.086-.373-.135-.671-.133Zm.964.474-.001.003.001-.003ZM91.932 97.708l.14.48a.5.5 0 0 0 .144-.068l-.284-.412Zm17.205-28.551a.5.5 0 0 1-.283.648l-21.375 8.382a.497.497 0 0 1-.038.013l-.005.001c-5.864 1.773-11.74 3.548-17.089 4.951a.5.5 0 0 1-.253-.967c5.324-1.396 11.175-3.165 17.039-4.937l21.356-8.374a.5.5 0 0 1 .648.283Zm3.982-1.478a.5.5 0 0 1 .67.742l-.335-.371-.335-.371ZM86.378 87.106a.5.5 0 1 0 .303.952l-.151-.476.151.476.006-.002.015-.004.058-.02.221-.072a61.417 61.417 0 0 0 3.523-1.312c2.131-.871 4.765-2.096 6.667-3.487 1.14-.835 5.369-3.978 7.67-6.364 1.121-1.162 3.353-3.252 5.315-5.06a508.375 508.375 0 0 1 3.341-3.052l.292-.264-.335-.371-.335-.371-.293.265-.792.718a544.74 544.74 0 0 0-2.556 2.34c-1.957 1.803-4.212 3.913-5.357 5.101-2.231 2.314-6.387 5.407-7.54 6.25-1.8 1.317-4.34 2.505-6.456 3.37a60.4 60.4 0 0 1-3.675 1.36l-.055.017-.013.004-.004.002Z" fill="#E0E0E0"/><path d="M20.636 35.964c-6.027-3.24-10.302-7.932-10.302-11.012v6.762c-.327 5.528 5.183 9.12 10.302 11.938v-7.688Z" fill="#fff" fill-opacity=".4"/><path d="M11.32 25.203c2.281-3.37 8.002-5.759 12.258-5.76V11.68h-.002c-.34 0-.673.007-.998.02-9.561.371-12.258 6.076-12.258 9.494v7.005c0-1.054.368-2.062 1-2.996Zm0-1.605v-2.404c0-1.516.625-3.627 2.431-5.36 1.669-1.602 4.425-2.955 8.827-3.134v5.782c-2.692.201-5.72 1.183-8.181 2.66-1.138.683-2.212 1.508-3.077 2.456Z" fill="#E0E0E0"/></svg>