<svg width="350" height="350" viewBox="0 0 350 350" fill="none" xmlns="http://www.w3.org/2000/svg"><path d="M113.747 206.867c-4.179-1.138-9.442 1.038-10.677 5.801l-.019.053a3.402 3.402 0 0 0-.066.22 5.2 5.2 0 0 0-.138.804c-.069.696-.05 1.701.272 2.984.645 2.568 2.498 6.221 7.249 10.752a.5.5 0 0 0 .491.116c6.028-1.843 12.192-3.473 18.41-4.952a.499.499 0 0 0 .234-.843c-1.639-1.613-3.097-3.504-4.569-5.415l-.001-.001c-.375-.487-.75-.974-1.129-1.456-2.697-3.44-5.906-6.933-10.057-8.063Z" fill="#0C296E"/><path d="M178.257 150.857a.501.501 0 0 0-.418.148c-4.515 4.633-8.815 9.739-13.368 15.146l-.006.008c-5.73 6.805-11.869 14.095-19.381 21.576-5.502 5.478-13.971 9.044-22.541 12.645l-.019.008c-5.278 2.218-10.584 4.447-15.165 7.141-1.218.601-2.306 1.48-3.113 2.617a7.273 7.273 0 0 0-1.182 2.555.5.5 0 0 0 .97.244c.212-.83.565-1.57 1.024-2.217a7.704 7.704 0 0 1 1.557-1.577c.4-.251.806-.498 1.219-.741 1.755-.857 3.822-1.077 5.654-.578 3.801 1.035 6.832 4.272 9.533 7.715.375.478.748.963 1.124 1.45l.011.014c1.46 1.896 2.956 3.838 4.649 5.503.122.121.299.17.466.13 6.29-1.497 12.634-2.839 18.946-4.093 4.403-.875 8.83-1.723 13.265-2.572l.01-.002c15.147-2.902 30.386-5.821 45.016-9.873a.501.501 0 0 0 .366-.463c.299-7.776.479-15.278.4-21.646-.075-6.007-.296-9.751-1.139-14.074-.839-4.31-2.294-9.186-4.816-17.454a.5.5 0 0 0-.511-.354c-6.06.398-13.939-.226-22.551-1.256Z" fill="#3370FF"/><path d="M181.789 198.04a.5.5 0 0 0-.707-.021l-15.638 14.768a.5.5 0 1 0 .686.727l15.638-14.768a.5.5 0 0 0 .021-.706ZM325.711 48.487a.5.5 0 0 1 .687-.169c.656.397 1.32.718 1.969 1.033l.353.171c.746.364 1.48.741 2.073 1.223a.501.501 0 0 1 .142.59l-16.347 37.067a.5.5 0 0 1-.752.203l-.011-.009-.038-.027-.152-.109a51.11 51.11 0 0 0-.603-.42 88.532 88.532 0 0 0-2.344-1.546 127.473 127.473 0 0 0-8.746-5.089c-7.452-3.96-17.887-8.627-29.832-11.46a.504.504 0 0 1-.369-.61 486.176 486.176 0 0 0 1.491-5.918l.025-.103.486.117-.486-.117a.5.5 0 0 1 .972.234l-.486-.117.486.117-.025.105-.075.308-.294 1.189c-.235.944-.571 2.281-.998 3.941 11.844 2.869 22.176 7.499 29.574 11.431a128.69 128.69 0 0 1 8.816 5.129 88.314 88.314 0 0 1 2.37 1.565l.323.223 15.939-36.144c-.441-.305-.972-.579-1.577-.874l-.342-.166c-.649-.314-1.36-.658-2.059-1.08a.5.5 0 0 1-.17-.688Z" fill="#0C296E"/><path d="m274.018 21.623-.052-.013a.5.5 0 0 0-.611.392l-7.282 38.248a.5.5 0 0 0 .361.576l.041.012.126.034.487.135a317.445 317.445 0 0 1 7.912 2.32c4.852 1.493 10.815 3.464 15.303 5.387 4.497 1.926 9.96 4.853 14.31 7.306a298.668 298.668 0 0 1 6.99 4.07l.423.256.109.066.037.022a.499.499 0 0 0 .718-.225l15.989-36.463a.5.5 0 0 0-.225-.643l-.175-.093-.508-.267c-.442-.231-1.084-.567-1.887-.983a528.527 528.527 0 0 0-6.423-3.27c-5.134-2.57-11.559-5.675-16.697-7.802-5.666-2.345-12.92-4.615-18.746-6.296a340.913 340.913 0 0 0-9.468-2.583l-.581-.148-.151-.038Z" fill="#14C0FF"/><path d="M285.311 38.244a.5.5 0 0 1 .597-.366c8.683 2 17.201 5.127 24.342 10.704.181.142.242.39.148.6l-6.659 14.76a.499.499 0 0 1-.744.203c-6.595-4.658-13.403-7.669-21.294-9.362a.499.499 0 0 1-.38-.61l3.99-15.93Zm.851.72-3.746 14.951c7.615 1.698 14.251 4.626 20.66 9.066l6.248-13.851c-6.788-5.203-14.85-8.21-23.162-10.166Z" fill="#fff"/><path d="M307.188 53.86a.5.5 0 0 1 .456-.294h8.785a.501.501 0 0 1 .456.707l-4.393 9.667a.5.5 0 0 1-.838.115l-5.7-6.765a.5.5 0 0 1-.074-.527l1.308-2.902Zm.779.706-1.046 2.32 4.988 5.92 3.744-8.24h-7.686Z" fill="#fff"/><path d="M303.439 52.907a2.084 2.084 0 0 0 2.087-2.08c0-1.15-.934-2.08-2.087-2.08a2.084 2.084 0 0 0-2.087 2.08c0 1.149.934 2.08 2.087 2.08Zm-31.796-21.715c5.04 0 9.125-4.073 9.125-9.096 0-5.024-4.085-9.096-9.125-9.096s-9.125 4.072-9.125 9.096c0 5.023 4.085 9.096 9.125 9.096Z" fill="#FFC60A"/><path d="M326.517 269.518a.499.499 0 0 0-.366-.377l-.001-.001h-.002l-.007-.002-.024-.005a9.44 9.44 0 0 0-.428-.089 24.149 24.149 0 0 0-1.371-.21c-1.233-.156-3.119-.323-5.752-.372-5.264-.099-13.517.275-25.509 2.153-31.752 4.719-62.134 16.664-92.432 28.576l-.013.006c-2.137.84-4.274 1.68-6.41 2.517-32.457 12.719-64.927 24.815-99.105 27.476a.5.5 0 0 0-.46.538l.001.008-2.036.192-5.94.06a.5.5 0 0 0 .01 1l204.762-2.065a.5.5 0 0 0 .451-.296l6.01-13.446a.5.5 0 0 0-.453-.704l-.004.5c.004-.5.002-.5.002-.5h-.018l-.034.001-.035.001-.087.006c-.107.008-.272.024-.517.055-.489.063-1.302.187-2.613.436-2.253.427-5.99 1.224-12.103 2.708a136.002 136.002 0 0 1 11.388-5.958 116.023 116.023 0 0 1 4.427-1.947 74.261 74.261 0 0 1 1.53-.613l.08-.03.019-.007.006-.003a.501.501 0 0 0 .3-.31c4.528-13.59 14.355-28.89 26.561-38.802a.5.5 0 0 0 .173-.496Z" fill="#00D6B9"/><path d="M282.994 290.669c-8.874 1.4-17.47 3.654-23.862 5.676-43.002 13.606-93.74 28.078-138.655 29.996a.499.499 0 1 1-.042-.999c44.767-1.912 95.39-16.344 138.395-29.95 6.429-2.034 15.074-4.302 24.008-5.711 8.926-1.408 18.179-1.966 25.806-.553a.5.5 0 1 1-.182.983c-7.463-1.382-16.586-.843-25.468.558Zm-82.733-188.216-.436-.244.436.244a.5.5 0 0 0-.184-.676c-1.147-.67-2.203-1.976-3.126-3.505-.908-1.505-1.652-3.166-2.205-4.497-.904-3.17-2.293-5.077-4.21-5.776-1.905-.695-4.142-.123-6.562 1.186-2.435 1.318-5.165 3.442-8.12 6.047-2.958 2.609-6.164 5.72-9.549 9.026a.48.48 0 0 0-.117.178c-.172.445-.035.877.2 1.224.231.342.593.662 1.021.957.861.594 2.112 1.17 3.532 1.658 2.687.924 6.106 1.573 8.877 1.372 8.066.124 13.157-1.625 16.249-3.442 1.547-.909 2.587-1.831 3.245-2.535.329-.351.562-.648.715-.861a4.902 4.902 0 0 0 .215-.324l.013-.021.004-.007.001-.003.001-.001Z" fill="#0C296E"/><path d="m220.164 124.26 16.169-6.717c6.11-2.441 8.095-4.873 10.836-10.839l10.957-28.577s3.321-1.888 7.654-4.292c5.219-2.891 1.357-8.677-1.009-10.559l.017-.148c2.009-2.331 1.638-1.927 4.126-4.794.93-1.072 1.696-2.815 1.342-3.507-.975-.408-4.6 3.66-7.841 6.443-.933.803-1.87 1.609-2.693 2.529-4.788 4.921-23.098 41.916-23.098 41.916l-20.294 6.312" fill="#fff"/><path d="M269.591 54.407c.235-.092.554-.168.859-.04a.5.5 0 0 1 .252.233c.155.304.163.662.121.982-.044.331-.15.69-.292 1.043a7.573 7.573 0 0 1-1.239 2.037c-1.488 1.714-1.951 2.256-2.513 2.913-.337.395-.711.832-1.364 1.591 1.189 1.059 2.597 2.896 3.184 4.868.325 1.089.409 2.253.031 3.358-.381 1.114-1.212 2.108-2.607 2.88a963.498 963.498 0 0 0-7.064 3.958l-.43.243-10.893 28.41a.388.388 0 0 1-.013.03c-1.375 2.994-2.585 5.158-4.249 6.88-1.669 1.728-3.763 2.979-6.852 4.213l-.003.002-16.163 6.713a.5.5 0 0 1-.384-.923l16.176-6.719c3.019-1.207 4.972-2.392 6.507-3.981 1.539-1.593 2.69-3.624 4.053-6.588l10.952-28.562a.5.5 0 0 1 .219-.255l.588-.334c.379-.214.93-.526 1.616-.912a993.09 993.09 0 0 1 5.455-3.05c1.215-.672 1.858-1.486 2.146-2.329.292-.852.241-1.794-.043-2.748-.574-1.926-2.061-3.762-3.181-4.652a.499.499 0 0 1-.186-.45l.018-.148a.49.49 0 0 1 .118-.269c.804-.933 1.227-1.428 1.606-1.872.565-.66 1.032-1.208 2.52-2.922a6.56 6.56 0 0 0 1.067-1.755c.121-.303.199-.578.228-.801l.007-.06a3.798 3.798 0 0 0-.477.29c-.498.347-1.122.884-1.838 1.54-.505.463-1.055.984-1.627 1.528-1.021.969-2.114 2.006-3.155 2.9-.938.807-1.849 1.591-2.646 2.483a.165.165 0 0 1-.014.015c-.561.577-1.347 1.655-2.306 3.137-.952 1.472-2.055 3.313-3.248 5.39-2.385 4.152-5.119 9.231-7.706 14.16a980.065 980.065 0 0 0-6.814 13.249 1032.036 1032.036 0 0 0-2.728 5.438l-.205.414-.001.002-.801-.636.112-.225.589-1.183c.511-1.022 1.245-2.487 2.141-4.26a998.92 998.92 0 0 1 6.821-13.263c2.589-4.934 5.33-10.026 7.725-14.195 1.197-2.084 2.31-3.94 3.275-5.434.956-1.477 1.786-2.627 2.421-3.283l-.006.007.373.334-.359-.349-.008.008c.845-.943 1.802-1.766 2.727-2.562l.006-.005c1.027-.881 2.08-1.882 3.086-2.837.578-.549 1.14-1.083 1.673-1.57.718-.659 1.385-1.236 1.942-1.624.277-.193.549-.355.801-.453Zm-33.319 50.894-20.09 6.249a.5.5 0 1 0 .297.954l20.294-6.311a.504.504 0 0 0 .3-.256l-.801-.636Z" fill="#0C296E"/><path d="M126.814 126.527h-8.525l8.101 7.379 5.811-1.06-5.387-6.319Z" fill="#fff" stroke="#0C296E" stroke-linecap="round" stroke-linejoin="round"/><path d="M117.787 125.08c-1.444.567-2.051 1.769 0 4.889 2.05 3.119 3.671 4.911 5.367 5.201 1.697.291 8.644.45 9.608-.605.961-1.055 5.59 7.785 5.59 7.785l11.988 21.688c2.512 4.544 9.153 4.278 11.29-.457l6.423-13.519-10.458-6.716-2.422 10.925c-4.351-6.256-12.099-15.954-17.047-22.39 0 0-3.521-4.928-11.512-6.353-6.804-1.214-9.306-1.093-9.306-1.093.913 1.664 3.681 2.57 7.082 3.216 0 0 1.62 3.78 5.232 5.015" fill="#fff"/><path d="M119.45 124.028c1.494.123 3.837.398 7.252 1.008 4.083.728 7.033 2.353 8.965 3.803a16.864 16.864 0 0 1 2.149 1.907 11.74 11.74 0 0 1 .667.777l.035.047.009.012c1.307 1.7 2.811 3.63 4.399 5.667 4.119 5.285 8.794 11.283 12.004 15.807l2.177-9.818a.497.497 0 0 1 .758-.313l10.458 6.717a.5.5 0 0 1 .181.635l-6.42 13.515c-2.309 5.105-9.472 5.391-12.182.488l-11.993-21.698.443-.232-.443.232-.013-.025-.038-.072a82.569 82.569 0 0 0-2.367-4.161c-.636-1.036-1.289-2.016-1.834-2.667-.276-.331-.496-.541-.648-.639-.2.164-.456.277-.708.362a7.205 7.205 0 0 1-1.13.259c-.844.134-1.88.205-2.925.233-2.08.056-4.279-.056-5.176-.209-.993-.17-1.912-.77-2.82-1.679-.91-.911-1.85-2.173-2.881-3.741-1.036-1.576-1.484-2.782-1.39-3.726.076-.763.491-1.268 1.032-1.608a3.088 3.088 0 0 1-.141-.234.498.498 0 0 1 .414-.739l.024.499-.024-.499.001-.001h.011l.027-.001.1-.002c.088-.001.218-.001.393.003.352.008.887.031 1.634.093Zm-1.067.929c.426.369 1.002.703 1.726 1.006 1.183.496 2.686.876 4.374 1.197a.499.499 0 0 1 .366.294l-.803.64c-1.616-.316-3.107-.699-4.323-1.208-.788-.33-1.491-.725-2.039-1.212-.443.231-.668.527-.71.943-.058.579.216 1.533 1.231 3.077 1.019 1.551 1.915 2.745 2.752 3.583.839.839 1.578 1.28 2.282 1.4.8.137 2.923.251 4.98.195 1.025-.027 2.012-.097 2.795-.221.393-.062.72-.136.969-.219.264-.089.378-.169.41-.205a.76.76 0 0 1 .629-.247c.205.016.386.105.527.196.285.184.584.491.875.839.594.71 1.278 1.742 1.919 2.785a74.865 74.865 0 0 1 1.708 2.943c.226.409.411.752.541.993l.15.281.039.075.01.019.001.002 11.985 21.683c2.313 4.184 8.43 3.939 10.397-.42l.004-.009 6.234-13.122-9.484-6.091-2.267 10.225a.5.5 0 0 1-.898.178c-3.188-4.584-8.203-11.019-12.607-16.669a1150.485 1150.485 0 0 1-4.436-5.716l-.001-.001-.005-.007-.027-.036-.115-.146a10.396 10.396 0 0 0-.485-.551 15.725 15.725 0 0 0-2.021-1.792c-1.826-1.371-4.633-2.922-8.54-3.619-3.389-.605-5.7-.875-7.158-.995a32.343 32.343 0 0 0-.985-.068Zm5.663 3.137a11.874 11.874 0 0 0 1.211 1.909c.89 1.143 2.272 2.476 4.203 3.136a.5.5 0 1 0 .324-.946c-1.681-.574-2.915-1.748-3.738-2.805a10.827 10.827 0 0 1-.91-1.37 9.094 9.094 0 0 1-.287-.564" fill="#0C296E"/><path d="M116.38 128.328a.5.5 0 0 1 .545-.451l4.847.46a.5.5 0 0 1-.094.996l-4.847-.46a.5.5 0 0 1-.451-.545Zm1.398 2.14a.5.5 0 0 1 .545-.45l4.847.46a.5.5 0 1 1-.095.995l-4.847-.46a.5.5 0 0 1-.45-.545Zm1.732 2.157a.5.5 0 0 1 .545-.451l3.452.329a.499.499 0 1 1-.095.995l-3.452-.328a.5.5 0 0 1-.45-.545Zm147.801-68.069a.68.68 0 0 1 .067.47c-.042.2-.155.389-.261.538a4.867 4.867 0 0 1-.414.5c-.314.34-.71.707-1.092 1.042a33.837 33.837 0 0 1-1.379 1.145l-.095.075-.014.01c-.248.238-.445.536-.645.887-.058.102-.118.212-.181.326-.145.265-.303.554-.474.813-1.017 1.55-2.817 2.542-4.67 2.587a.5.5 0 0 1-.024-1c1.527-.037 3.023-.863 3.858-2.136l.001-.001c.149-.225.272-.451.406-.697.068-.123.138-.252.216-.387.218-.384.478-.791.844-1.135a.508.508 0 0 1 .037-.032l.008-.006.024-.018.091-.072.329-.262c.273-.221.639-.523 1.008-.848a14.68 14.68 0 0 0 1.019-.97c.084-.09.157-.175.219-.251-.328.015-.799.093-1.382.24-1.326.339-3.105 1.014-4.794 1.98a.5.5 0 1 1-.496-.869c1.767-1.01 3.631-1.72 5.043-2.08.7-.177 1.321-.278 1.775-.274.215.002.46.027.662.129a.726.726 0 0 1 .314.296Z" fill="#0C296E"/><path d="M199.371 114.945a25.857 25.857 0 0 1-3.539-.366 7.426 7.426 0 0 1-5.93-5.478c-.306-1.19-.33-1.546-.34-3.376l-9.636-6.754c.143 3.635-.17 15.086-2.529 18.302-.597.816-2.55 2.027-4.875 3.33 12.293 3.532 21.641 2.293 26.849-5.658Z" fill="#fff"/><path d="M179.687 98.532a.5.5 0 0 1 .526.03l9.636 6.754a.501.501 0 0 1 .213.406c.01 1.812.034 2.122.324 3.254v.001a6.925 6.925 0 0 0 5.532 5.109c1.166.204 2.32.319 3.47.36a.5.5 0 0 1 .401.773c-2.682 4.095-6.442 6.466-11.092 7.352-4.631.883-10.127.29-16.313-1.487a.501.501 0 0 1-.107-.917c1.159-.65 2.216-1.271 3.054-1.828.856-.57 1.423-1.033 1.662-1.361l.001-.001c.525-.716.97-1.949 1.326-3.52.352-1.554.606-3.378.782-5.226.353-3.697.395-7.446.325-9.24a.499.499 0 0 1 .26-.46Zm.764 1.417a83.137 83.137 0 0 1-.353 8.377c-.179 1.871-.438 3.741-.803 5.352-.361 1.594-.841 2.999-1.495 3.89-.357.489-1.066 1.038-1.916 1.604-.602.4-1.306.828-2.069 1.271 5.625 1.499 10.558 1.934 14.695 1.146 4.114-.784 7.458-2.78 9.941-6.191a25.802 25.802 0 0 1-2.705-.327h-.001a7.925 7.925 0 0 1-6.327-5.846c-.305-1.187-.343-1.609-.355-3.239l-8.612-6.037Z" fill="#0C296E"/><path d="M194.037 94.672c.309 2.296.347 4.413-.19 7.259-.174.91-.531 1.771-1.114 2.494-1.055 1.311-2.051 2.179-3.161 2.244-2.047.125-4.296-.238-6.853-2.161 0 0-1.35-1.46-2.255-3.217 0 0-3.21-1.37-1.995-3.731.937-1.826 2.38-.146 2.38-.146" fill="#fff"/><path d="M186.679 89.222a.5.5 0 0 1 .559.013l7.089 5.03a.5.5 0 0 1 .206.34c.315 2.343.354 4.514-.195 7.42-.186.976-.573 1.917-1.216 2.714-1.053 1.308-2.171 2.35-3.52 2.43-2.15.131-4.519-.258-7.183-2.261a.478.478 0 0 1-.067-.06l.367-.34-.367.34v-.001l-.002-.001-.003-.004-.013-.014-.048-.053-.172-.197c-.145-.17-.348-.414-.579-.714a16.15 16.15 0 0 1-1.436-2.191 6.523 6.523 0 0 1-.371-.201 5.567 5.567 0 0 1-1.067-.803c-.363-.355-.712-.82-.874-1.393-.166-.588-.122-1.246.237-1.944l.445.228-.445-.228c.271-.528.618-.877 1.038-1.034.42-.156.822-.085 1.135.04.13.053.251.117.36.185l.961-3.833a.5.5 0 0 1 .215-.3l4.946-3.168Zm-6.019 11.61h.001a.5.5 0 0 1 .247.231c.434.842.979 1.62 1.419 2.191.219.284.411.515.547.674l.158.181.025.028c2.435 1.818 4.55 2.151 6.485 2.034.872-.052 1.745-.746 2.801-2.059l.001-.001c.523-.648.851-1.43 1.011-2.273.51-2.698.491-4.716.215-6.884l-6.635-4.708-4.495 2.88-1.106 4.41a.5.5 0 0 1-.863.206h-.001l-.007-.009-.036-.038a2.234 2.234 0 0 0-.144-.135 1.732 1.732 0 0 0-.459-.293c-.165-.067-.3-.074-.414-.031-.114.042-.299.167-.496.552h-.001c-.248.484-.258.882-.164 1.216.099.348.324.668.612.95.286.282.613.503.873.656.129.075.239.132.315.17l.087.041.021.009.003.002Z" fill="#0C296E"/><path d="M191.117 94.184a.5.5 0 0 1 .595.381c.261 1.192.564 2.379.901 3.552a.498.498 0 0 1-.564.63l-.428-.074h-.001l-.421-.074a.5.5 0 1 1 .168-.986l.07.012a57.718 57.718 0 0 1-.702-2.846.5.5 0 0 1 .382-.595Z" fill="#0C296E"/><path d="m194.765 93.847-.491.093.491-.093a.5.5 0 0 1-.469.593c-1.639.072-3.477.252-5.32.439l-.299.03c-1.612.163-3.22.325-4.672.414-.053.163-.123.39-.199.676a19.554 19.554 0 0 0-.52 2.738 21.929 21.929 0 0 0 .841 9.116.5.5 0 0 1-.521.647c-1.907-.168-3.838-.866-5.681-1.618-.438-.179-.87-.361-1.296-.539-1.393-.585-2.723-1.144-3.996-1.501l-.001-.001a17.902 17.902 0 0 0-3.057-.531c-.654-.048-1.263-.038-1.728.064-.484.105-.671.276-.729.426a.5.5 0 0 1-.966-.201c.07-1.654.886-4.017 1.809-6.208a64.381 64.381 0 0 1 2.658-5.514c2.28-4.165 4.975-6.508 7.596-7.75a12.918 12.918 0 0 1 6.992-1.157c3.957.442 6.355 2.95 7.745 5.292a16.102 16.102 0 0 1 1.722 4.184c.031.125.054.223.068.29l.017.08.004.022.002.006v.003Zm-21.028 46.069-5.5 11-11.5-7.5 2.86-9.169c1.052-4.783 2.636-8.878 6.956-11.205 1.775-.96 3.684-2.126 5.684-3.126 11.727 3.797 21.06 2.537 27-5.5 3.518.118 7.153.066 10.966-.875l6.034-2.125 4 13.5-14.416 5c.708 2.315.564 4.873 0 7.266-.667 2.824-1.286 4.903-1.912 7.003l-.146.49c-.674 2.268-1.365 4.644-2.152 8.112a.793.793 0 0 1-.721.615c-6.251.406-14.224-.235-22.793-1.26a.791.791 0 0 1-.673-.589c-1.163-4.53-2.18-7.539-3.687-11.637Z" fill="#0C296E"/><path d="M198.86 138.213a.5.5 0 0 1-.279.65 18.518 18.518 0 0 0-4.422 2.525.499.499 0 1 1-.611-.791 19.536 19.536 0 0 1 4.661-2.663.501.501 0 0 1 .651.279Zm-26.452-4.101a.5.5 0 0 1 .6.374l1.185 5.095a.5.5 0 0 1-.974.226l-1.185-5.094a.5.5 0 0 1 .374-.601Zm30.712-11.657a.501.501 0 0 1 .654.268l2.767 6.612a.5.5 0 1 1-.922.386l-2.768-6.612a.5.5 0 0 1 .269-.654Z" fill="#fff"/><path d="M54.34 97.094c3.989.675 7.044 3.936 9.123 7.397 0 0 .252-2.649 3.204-2.861 4.555-.326 4.256 5.345 4.256 5.345s8.073-7.157 15.242-11.581C81.102 72.47 81.278 41.26 81.278 41.26S59.15 46.332 43.3 67.948c5.655 17.579 4.608 14.654 8.945 29.044 0 0 1.402-.016 2.095.102Z" fill="#14C0FF"/><path d="M60.594 298.811a.5.5 0 0 0-.68-.022l-.007.006-.018.016-.068.06-.26.233a69.588 69.588 0 0 0-4.006 3.973c-2.357 2.539-5.124 5.923-6.659 9.227a.336.336 0 0 0-.013.031c-1.971 5.128-2.21 8.977-1.174 11.854 1.043 2.894 3.338 4.698 6.183 5.816 2.836 1.115 6.264 1.569 9.675 1.75 2.581.136 5.185.117 7.54.099.757-.005 1.49-.011 2.186-.011 20.345 0 34.631-1.646 43.839-3.295 4.604-.825 7.939-1.651 10.127-2.272 1.094-.31 1.901-.57 2.437-.752.268-.091.468-.164.602-.213l.152-.058.04-.015.01-.004.003-.001.002-.001a.5.5 0 0 0-.221-.963c-9.861.688-20.01.863-29.38-1.035-4-.811-16.597-4.032-26.937-8.495-5.18-2.236-9.733-4.758-12.368-7.407-1.316-1.322-2.11-2.633-2.311-3.913-.197-1.255.165-2.562 1.334-3.928a.5.5 0 0 0-.028-.68ZM70.846 62.2a.5.5 0 0 1-.152.69c-5.97 3.816-13.863 10.47-16.409 12.836a.5.5 0 1 1-.68-.732c2.571-2.39 10.513-9.087 16.55-12.947a.5.5 0 0 1 .691.153Zm-4.63 11.572a.5.5 0 0 1-.058.705l-4.623 3.911-.002.002-4.623 3.912a.5.5 0 0 1-.647-.763l4.625-3.913 4.623-3.912a.5.5 0 0 1 .705.058Z" fill="#0C296E"/><path d="M293.394 155.143c4.582-24.264-45.84-35.768-45.84-35.768-1.361 12.443-2.528 23.331-4.116 40.429 0 0 44.12 10.868 39.157 37.736" fill="#3370FF"/><path d="M332.471 149.406c0 3.679.073-7.514 0-8.273-.147-4.729-3.354-7.944-9.689-10.77a888.118 888.118 0 0 0-.036 7.397c5.371 4.442 6.798 6.43 6.274 13.832" fill="#0C296E"/><path d="M332.47 141.131c.817 8.022.738 13.212-.384 19.727-2.537 4.364-5.543 7.992-9.469 11.955.561-6.837-.263-12.24-.263-12.24 3.799-4.619 7.683-9.39 9.488-15.091.792-2.674.628-4.351.628-4.351Z" fill="#3370FF"/><path d="M294.808 93.73a.499.499 0 0 1 .132-.015c.839.018 1.55.514 1.975 1.147.425.633.615 1.479.313 2.262-.302.782-1.011 1.282-1.752 1.467-.74.185-1.601.077-2.236-.47-.637-.546-.87-1.381-.795-2.14.076-.76.47-1.532 1.202-1.943a.494.494 0 0 1 .124-.049l1.037-.26Zm.172.988-.896.224c-.359.227-.595.653-.644 1.138-.05.509.114.993.451 1.283h.001c.337.29.843.382 1.342.258.499-.125.901-.443 1.061-.857.16-.414.075-.92-.21-1.344-.273-.406-.682-.67-1.105-.702Z" fill="#0C296E"/><path d="M324.887 218.39a.5.5 0 0 0-.903-.343c-6.731 9.307-15.858 14.488-25.221 19.804-.926.525-1.854 1.052-2.782 1.584a.502.502 0 0 0-.249.383l-.099.952-.275 2.68c-.235 2.303-.567 5.579-.952 9.47a.502.502 0 0 0 .73.492c9.208-4.839 16.406-11.384 21.299-16.713a85.067 85.067 0 0 0 5.585-6.729c.631-.85 1.11-1.534 1.432-2.007.161-.236.283-.419.364-.544l.093-.143.024-.037.006-.01.002-.003.001-.001" fill="#00D6B9"/><path d="M253.203 147.845a.5.5 0 0 1 .634-.312c5.862 1.994 11.289 5.044 15.863 8.917a.501.501 0 0 1-.647.764c-4.475-3.791-9.791-6.779-15.538-8.735a.5.5 0 0 1-.312-.634Zm1.656-11.305a.5.5 0 0 1 .63-.32c8.826 2.88 16.976 7.45 23.759 13.319a.5.5 0 1 1-.654.756c-6.679-5.779-14.712-10.284-23.415-13.124a.5.5 0 0 1-.32-.631Z" fill="#fff"/><path d="M25 193.854c4.009-6.154 9.12-14.879 15.142-19.106l1.507 12.262s-8.694 11.894-11.363 20.058C25.908 197.156 25 193.854 25 193.854Z" fill="#3370FF"/><path d="M319.997 199.564a37.912 37.912 0 0 0-14.876-.245.5.5 0 0 1-.18-.984 38.894 38.894 0 0 1 15.269.252c2.844.62 6.014 1.764 7.653 4.407.898 1.447 1.169 3.013 1.019 4.582a.578.578 0 0 1-.003.058l-1.621 13.38a.492.492 0 0 1-.093.236l-.403-.296.403.296-.001.002-.003.004-.009.012-.033.044-.13.166c-.115.145-.287.355-.519.625a37.471 37.471 0 0 1-2.136 2.26c-1.936 1.896-4.927 4.494-9.161 7.317l-.011.007c-9.037 5.688-19.24 10.921-27.176 14.729a380.43 380.43 0 0 1-9.789 4.529 298.92 298.92 0 0 1-3.577 1.562l-.195.082-.065.028c-.001 0-.002 0-.195-.46l.193.46a.5.5 0 0 1-.691-.511l.704-6.979a.502.502 0 0 1 .309-.413c17.588-7.183 35.635-14.718 48.5-28.469 1.679-1.796 3.264-4.012 4.109-6.275.28-.749.476-1.496.57-2.232l.012-.102c.166-1.447-.07-2.845-.857-4.115-1.408-2.269-4.205-3.344-7.017-3.957Zm7.307 12.754c-.923 1.69-2.144 3.273-3.393 4.61-12.971 13.863-31.107 21.462-48.575 28.599l-.589 5.837.23-.099c.655-.282 1.61-.699 2.813-1.234a378.35 378.35 0 0 0 9.763-4.516c7.92-3.801 18.081-9.013 27.071-14.671 4.176-2.785 7.117-5.341 9.01-7.196a36.093 36.093 0 0 0 2.078-2.198 20.9 20.9 0 0 0 .494-.594l.076-.097 1.022-8.441Z" fill="#0C296E"/><path d="M303.583 315.399a.499.499 0 0 0-.534.292l-5.458 12.371a.502.502 0 0 0 .457.702h23.053a.501.501 0 0 0 .462-.692c-2.663-6.415-9.817-11.408-17.98-12.673Z" fill="#00D6B9"/><path d="M89.179 150.933a.5.5 0 0 1 .23.421v11.24a.501.501 0 0 1-.313.464l-.187-.464.187.464h-.001l-.005.002-.02.008-.077.032-.307.127c-.27.114-.67.283-1.184.508-1.029.45-2.518 1.119-4.354 1.996a173.637 173.637 0 0 0-14.281 7.67c-11.11 6.663-24.12 16.263-31.892 28.056a.501.501 0 0 1-.91-.185c-.28-1.533-.75-3.62-1.151-5.33-.2-.853-.383-1.611-.516-2.155l-.158-.641-.057-.231.485-.122-.485.122a.501.501 0 0 1 .09-.43c12.176-15.595 32.258-31.445 54.428-41.586a.5.5 0 0 1 .478.034Zm-53.967 41.976a250.534 250.534 0 0 1 .675 2.805c.307 1.305.656 2.841.93 4.188 7.959-11.52 20.7-20.86 31.535-27.359a174.706 174.706 0 0 1 14.365-7.714 141.51 141.51 0 0 1 4.385-2.01 84.54 84.54 0 0 1 1.307-.56v-10.125c-21.667 10.051-41.246 25.546-53.197 40.775Zm267.606 116.149a.5.5 0 0 1 .545-.45c6.181.589 12.751 1.267 18.155 4.617 2.724 1.689 5.038 4.263 6.386 7.169 1.35 2.908 1.744 6.18.565 9.231a.499.499 0 1 1-.932-.36c1.059-2.742.723-5.728-.54-8.45-1.263-2.724-3.443-5.151-6.006-6.74-5.172-3.207-11.502-3.878-17.723-4.472a.5.5 0 0 1-.45-.545Z" fill="#0C296E"/><g filter="url(#udi3um90ah8a)"><path d="M55.052 98.079c3.585.61 6.33 3.537 8.199 6.648 0 0 .226-2.381 2.884-2.575 4.302-.307 3.82 4.842 3.82 4.842l-11.226 9.807-5.953-18.792a8.639 8.639 0 0 1 2.276.07Z" fill="#14C0FF"/></g><path d="M45.219 99.05c2.707-1.922 6.118-2.974 9.205-2.452 3.832.653 6.792 3.544 8.879 6.699.064-.137.14-.281.232-.426.507-.808 1.446-1.625 3.1-1.746 1.303-.093 2.295.227 3.029.803.724.569 1.151 1.35 1.403 2.103.252.754.339 1.509.365 2.068a8.653 8.653 0 0 1-.005.881c0 .014-.002.025-.003.036l-.001.019-.001.016v.007l-.499-.046.498.046a.498.498 0 0 1-.169.33l-24.984 21.823a.499.499 0 0 1-.377.121l.048-.498-.048.498h-.003l-.005-.001-.016-.001-.057-.007a10.282 10.282 0 0 1-.93-.168 10.103 10.103 0 0 1-2.196-.77c-1.61-.796-3.312-2.291-3.312-4.974 0-2.445 1.217-4.255 2.399-5.434a10.617 10.617 0 0 1 1.75-1.406c-1.383-1.246-2.337-2.525-2.904-3.981-.636-1.635-.767-3.445-.533-5.601m4.514 10.109-.007.004-.032.016a8.35 8.35 0 0 0-.61.368 9.657 9.657 0 0 0-1.472 1.199c-1.07 1.068-2.105 2.639-2.105 4.726 0 2.155 1.33 3.373 2.755 4.078a9.123 9.123 0 0 0 1.976.691 9.347 9.347 0 0 0 .677.13l24.656-21.537.001-.024a7.61 7.61 0 0 0-.004-.604 6.783 6.783 0 0 0-.315-1.797c-.213-.636-.55-1.223-1.072-1.633-.511-.402-1.248-.67-2.339-.592-1.302.095-1.968.71-2.325 1.28a3.058 3.058 0 0 0-.42 1.121l-.002.013v-.001a.5.5 0 0 1-.926.21c-2.055-3.421-5.008-6.52-8.777-7.162-2.764-.468-5.91.472-8.459 2.282-2.549 1.81-4.417 4.43-4.72 7.231-.223 2.059-.088 3.694.471 5.13.559 1.434 1.559 2.717 3.147 4.038a.501.501 0 0 1-.098.833Zm.621-18.047c-2.707 1.922-4.793 4.773-5.135 7.938l5.135-7.939Zm25.206 7.915Z" fill="#0C296E"/><g filter="url(#udqoz5gnuv7b)"><path d="m111.062 227.291-.182-.172.425-.129.142-.044.515-.155.052-.016c5.679-1.707 11.47-3.228 17.306-4.617.958.943 1.979 1.794 3.096 2.498 4.823 3.04 10.739 2.905 16.245 2.009 1.373-.223 2.747-.488 4.121-.754 4.135-.799 8.276-1.599 12.43-1.258 5.991.49 12.797 4.86 19.511 9.17 7.118 4.569 14.131 9.072 19.957 8.814 0 0 .027.113.013.307l-.003.045c-.017.17-.065.394-.183.654-.01.024-.022.047-.033.071-.597 1.22-2.722 3.17-10.033 4.193-15.996 2.241-47.688 1.56-65.293-8.11-6.219-3.416-10.951-6.579-14.545-9.446a56.32 56.32 0 0 1-3.541-3.06Z" fill="#0C296E"/></g><path d="M84.215 293.343c-.774-.368 1.296-3.55 4.629-12.807l17.435-8.184c-16.92 19.649-19.522 22.203-22.064 20.991Z" fill="#fff"/><path d="M106.677 272.049a.5.5 0 0 1-.019.629c-8.453 9.816-13.353 15.39-16.458 18.354-1.547 1.477-2.693 2.351-3.645 2.764-.486.211-.934.309-1.367.299a2.877 2.877 0 0 1-1.188-.3c-.308-.147-.424-.433-.444-.689-.018-.23.033-.49.105-.751.147-.531.452-1.284.867-2.275l.328-.779c.842-1.998 2.058-4.88 3.517-8.934a.498.498 0 0 1 .258-.283l17.436-8.185a.5.5 0 0 1 .61.15Zm-17.433 8.852a168.526 168.526 0 0 1-3.467 8.789l-.327.776c-.422 1.008-.698 1.698-.825 2.156a2.084 2.084 0 0 0-.069.326c.223.093.434.142.654.147.262.006.566-.051.946-.216.78-.338 1.818-1.104 3.354-2.57 2.872-2.742 7.328-7.777 14.861-16.509l-15.127 7.101Zm-4.814 11.991Z" fill="#0C296E"/><path d="M191.764 249.725c1.136 8.261 2.474 19.188 3.323 34.913.276 5.086-.265 8.909-3.323 13.963-4.46 7.38 1.306 4.194 8.579 19.368 4.12 8.601 7.603 9.758 4.746-2.092-1.9-7.889-3.047-21.258-2.176-31.579.785-9.216 1.879-29.943 2.176-38.278" fill="#fff"/><path d="M205.107 245.52a.5.5 0 0 1 .482.517c-.297 8.34-1.391 29.076-2.178 38.304-.866 10.269.277 23.583 2.165 31.419.717 2.975 1.045 5.168 1.056 6.649.006.735-.066 1.338-.236 1.783-.172.452-.49.838-1.007.897-.459.052-.906-.183-1.29-.485-.401-.316-.829-.781-1.273-1.364-.889-1.17-1.896-2.888-2.934-5.055-3.137-6.545-5.978-9.624-7.848-11.652-.277-.3-.533-.577-.765-.839-.898-1.014-1.547-1.901-1.579-3.073-.031-1.137.521-2.434 1.636-4.278 2.995-4.951 3.524-8.669 3.252-13.678-.849-15.708-2.185-26.62-3.32-34.872a.5.5 0 0 1 .991-.136c1.137 8.271 2.477 19.211 3.327 34.954.281 5.164-.274 9.091-3.395 14.249-1.115 1.846-1.514 2.917-1.491 3.733.021.781.433 1.429 1.328 2.438.228.257.481.531.756.83 1.881 2.039 4.807 5.21 8.01 11.892 1.022 2.134 1.996 3.786 2.828 4.881.418.55.787.942 1.096 1.184.326.257.503.284.558.277.014-.001.029-.005.054-.029a.634.634 0 0 0 .132-.23c.104-.274.175-.731.17-1.419-.01-1.367-.317-3.472-1.029-6.423-1.913-7.943-3.064-21.365-2.189-31.738.785-9.205 1.879-29.924 2.176-38.254a.5.5 0 0 1 .517-.482Z" fill="#0C296E"/><g filter="url(#udhffmzsb0nc)"><path d="M206.664 206.031c-.351 9.095-.866 18.573-1.328 27.06-.191 3.522-.374 6.873-.531 9.956-5.826.258-12.839-4.245-19.957-8.814-6.714-4.31-13.52-8.68-19.511-9.17-4.154-.34-8.295.46-12.43 1.259-1.374.265-2.748.53-4.121.754-5.506.895-11.422 1.03-16.245-2.01-1.118-.705-2.139-1.556-3.097-2.499 6.296-1.498 12.644-2.841 18.958-4.096 4.406-.875 8.834-1.723 13.268-2.572 15.156-2.904 30.381-5.82 44.994-9.868Z" fill="#3370FF"/></g><path d="m316.098 112.106-5.704-6.121 3.261-2.985-11.925-3.365c.229.408 3.053 11.489 3.053 11.489l3.213-2.943 5.718 6.135 2.384-2.21Z" fill="#0C296E"/><g filter="url(#ud4k7p0ki2bd)"><path d="m131.427 225.695-22.992 33.064s-4.125 4.214-8.865 4.432c-2.446.112-6.301 4.876-10.609 17.709l9.5-5 6.5-2.5c24.824-27.227 45.505-45.987 45.505-45.987" fill="#fff"/></g><g filter="url(#udyyd6x0wbae)"><path d="M131.712 225.285a.5.5 0 0 1 .125.696l-22.991 33.064a.546.546 0 0 1-.053.064l-.357-.35.357.35-.005.005-.01.01-.039.039-.146.141c-.127.12-.312.291-.549.495-.473.409-1.154.956-1.987 1.511-1.656 1.102-3.963 2.265-6.464 2.38-.983.045-2.156.661-3.652 2.981-1.494 2.317-3.24 6.23-5.391 12.638a.5.5 0 0 1-.948-.319c2.156-6.425 3.934-10.435 5.499-12.861 1.563-2.424 2.982-3.371 4.446-3.438 2.238-.103 4.364-1.155 5.956-2.214a19.066 19.066 0 0 0 1.887-1.434 15.549 15.549 0 0 0 .647-.593l.013-.013 22.966-33.027a.5.5 0 0 1 .696-.125Zm18.419 1.756a.5.5 0 0 1 .669.744l-.334-.372-.335-.372Zm-12.189 12.921a787.07 787.07 0 0 0-31.471 32.591.5.5 0 0 1-.739-.673 787.327 787.327 0 0 1 31.511-32.633 599.5 599.5 0 0 1 9.44-9.028 374.255 374.255 0 0 1 3.221-2.972l.17-.154.057-.052.335.372.334.372h-.001l-.013.012-.042.038-.168.152-.661.603c-.581.533-1.441 1.325-2.549 2.36a592.565 592.565 0 0 0-9.424 9.012Z" fill="#0C296E"/></g><g filter="url(#udsvzp02k7hf)"><path d="M190.129 238.846s.227 2.558.359 3.533c.306 2.259.474 7.52.474 7.52l14-4-.977-3.244" fill="#fff"/></g><g filter="url(#udc8dgzgd0zg)"><path d="M190.085 238.348a.5.5 0 0 1 .542.454l-.498.044-.498.044a.5.5 0 0 1 .454-.542Zm1.087 10.059-.498.05-.017-.166-.047-.457c-.04-.388-.096-.929-.163-1.54a157.136 157.136 0 0 0-.455-3.848 71 71 0 0 1-.231-2.151l-.092-.989-.028-.304-.01-.112.498-.044.498-.044.01.111.028.302c.023.255.055.604.092.984.073.763.162 1.637.226 2.113.154 1.136.326 2.649.458 3.874a248.108 248.108 0 0 1 .211 2.004l.017.166-.497.051Zm0 0-.498.05a.5.5 0 1 0 .995-.101l-.497.051Zm12.831-6.252a.5.5 0 0 1 .482.517l-.065 1.828a.499.499 0 1 1-.999-.035l.065-1.828a.499.499 0 0 1 .517-.482Z" fill="#0C296E"/></g><path opacity=".5" d="M47.35 321.554c.127-12.737 5.753-16.685 17.349-25.124 26.387-19.201 48.163-27.336 77.707-34.419 29.545-7.082 58.946-12.899 89.757-26.195 30.811-13.297 46.931-25.145 50.63-37.672l11.001-44.363c-9.386 39.785-115.447 58.373-145.895 64.422-30.641 6.087-62.094 14.273-84.491 32.05-7.429 5.896-13.706 10.154-17.536 27.626-1.974 15.909-3.904 24.978 1.477 43.675Z" fill="#fff"/><path d="m63.408 250.253-1.018.804c-6.983 5.512-12.864 10.153-16.518 26.822l-.25 2.001c-1.756 14.038-3.07 24.532 1.579 41.055.272.966.564 1.953.878 2.962.01-1.064.054-2.083.133-3.062.86-10.741 5.86-16.671 16.487-24.405 26.387-19.201 48.163-27.336 77.707-34.419 4.345-1.041 8.687-2.055 13.031-3.07 25.192-5.885 50.446-11.784 76.726-23.125 30.811-13.297 46.931-25.145 50.63-37.672l10.862-43.801c.049-.187.095-.374.139-.562l-.139.562c-.585 2.251-1.481 4.433-2.654 6.549-18.295 32.98-104.214 49.726-137.762 56.264-1.968.384-3.756.732-5.34 1.047-30.641 6.087-62.094 14.273-84.491 32.05Zm226.804-86.179-8.384 33.808c-1.767 5.959-6.526 11.883-14.779 18.006-8.254 6.124-19.907 12.374-35.282 19.01-26.192 11.302-51.351 17.18-76.544 23.066a2270.351 2270.351 0 0 0-13.05 3.075c-29.633 7.104-51.54 15.283-78.063 34.583-5.824 4.238-10.072 8.01-12.865 12.392-1.934 3.036-3.148 6.326-3.738 10.201-3.804-14.938-2.555-24.921-.89-38.225l.242-1.942c1.892-8.612 4.369-13.89 7.233-17.725 2.62-3.508 5.592-5.855 8.927-8.488l1.01-.799c22.188-17.61 53.419-25.764 84.065-31.852 1.581-.314 3.367-.662 5.334-1.046 16.951-3.303 47.347-9.227 75.63-18.545 15.781-5.2 30.958-11.472 42.797-18.968 7.775-4.922 14.187-10.42 18.357-16.551Z" fill="#0C296E"/><path d="M128.396 71.901c-4.424 1.287-8.967 3.084-12.505 7.883-3.087 4.188-4.47 6.81-4.997 13.484l-.014-19.703c0-4.352 1.473-8.03 3.759-10.579 4.324-4.82 10.381-8.451 13.757-9.947v18.862Z" fill="#3370FF"/><path d="M110.918 76.296c-.015 3.577-.034 9.953-.025 17.967 5.76 14.928 23.695 23.131 28.132 24.964.64.265 1 .397 1 .397V91.112c-11.162-2.103-16.388-5.035-23.813-10.486-2.047-1.634-3.427-2.984-4.292-4.575-.476-.875-.796-1.822-.986-2.93 0 0-.007 1.13-.016 3.175Zm.994 1.57c.916 1.2 2.134 2.31 3.676 3.541l.032.025c3.732 2.74 6.957 4.881 10.677 6.6 3.542 1.637 7.497 2.875 12.728 3.906v26.205a61.667 61.667 0 0 1-2.199-.984 70.61 70.61 0 0 1-8.35-4.647c-6.347-4.132-13.368-10.271-16.583-18.438-.007-6.212.003-11.428.015-15.1l.004-1.108Zm44.139-56.714h-.001c-.991-1.164-3.387-2.879-7.588-3.662l.08 2.979c3.235.764 5.73 1.87 7.228 3.653.432.514.769 1.07 1.017 1.665l.026-.163c.297-1.935.077-3.49-.762-4.472Zm1.244 6.844a26.226 26.226 0 0 1-1.431 3.702c.388-1.446.527-2.706.419-3.808-.35-3.553-3.273-5.456-8.72-6.616l-.133-4.962c.345.047.679.099 1.005.156 4.511.8 7.192 2.645 8.376 4.035 1.532 1.792 1.306 4.71.484 7.493Z" fill="#0C296E"/><path d="M157.935 23.35s.678 19.932-2.072 25.074c-5.873 10.977-19.56 19.115-19.56 19.115V48.424c12.539-6.184 15.697-9.56 19.56-17.727 0 0 1.625-3.142 2.072-7.347Z" fill="#3370FF"/><defs><filter id="udi3um90ah8a" x="48.776" y="93.965" width="25.196" height="26.836" filterUnits="userSpaceOnUse" color-interpolation-filters="sRGB"><feFlood flood-opacity="0" result="BackgroundImageFix"/><feBlend in="SourceGraphic" in2="BackgroundImageFix" result="shape"/><feGaussianBlur stdDeviation="2" result="effect1_foregroundBlur"/></filter><filter id="udqoz5gnuv7b" x="109.88" y="221.158" width="95.817" height="28.814" filterUnits="userSpaceOnUse" color-interpolation-filters="sRGB"><feFlood flood-opacity="0" result="BackgroundImageFix"/><feBlend in="SourceGraphic" in2="BackgroundImageFix" result="shape"/><feGaussianBlur stdDeviation=".5" result="effect1_foregroundBlur"/></filter><filter id="udhffmzsb0nc" x="127.444" y="204.031" width="81.22" height="41.025" filterUnits="userSpaceOnUse" color-interpolation-filters="sRGB"><feFlood flood-opacity="0" result="BackgroundImageFix"/><feBlend in="SourceGraphic" in2="BackgroundImageFix" result="shape"/><feGaussianBlur stdDeviation="1" result="effect1_foregroundBlur"/></filter><filter id="ud4k7p0ki2bd" x="85.961" y="222.695" width="67.504" height="61.205" filterUnits="userSpaceOnUse" color-interpolation-filters="sRGB"><feFlood flood-opacity="0" result="BackgroundImageFix"/><feBlend in="SourceGraphic" in2="BackgroundImageFix" result="shape"/><feGaussianBlur stdDeviation="1.5" result="effect1_foregroundBlur"/></filter><filter id="udyyd6x0wbae" x="86.576" y="222.195" width="67.39" height="60.455" filterUnits="userSpaceOnUse" color-interpolation-filters="sRGB"><feFlood flood-opacity="0" result="BackgroundImageFix"/><feBlend in="SourceGraphic" in2="BackgroundImageFix" result="shape"/><feGaussianBlur stdDeviation="1.5" result="effect1_foregroundBlur"/></filter><filter id="udsvzp02k7hf" x="188.129" y="236.846" width="18.832" height="15.053" filterUnits="userSpaceOnUse" color-interpolation-filters="sRGB"><feFlood flood-opacity="0" result="BackgroundImageFix"/><feBlend in="SourceGraphic" in2="BackgroundImageFix" result="shape"/><feGaussianBlur stdDeviation="1" result="effect1_foregroundBlur"/></filter><filter id="udc8dgzgd0zg" x="187.629" y="236.346" width="18.856" height="14.56" filterUnits="userSpaceOnUse" color-interpolation-filters="sRGB"><feFlood flood-opacity="0" result="BackgroundImageFix"/><feBlend in="SourceGraphic" in2="BackgroundImageFix" result="shape"/><feGaussianBlur stdDeviation="1" result="effect1_foregroundBlur"/></filter></defs></svg>