<svg width="120" height="120" viewBox="0 0 120 120" fill="none" xmlns="http://www.w3.org/2000/svg"><path d="M115.79 42.602h-7.234c-.505.758-.755 1.737-1.189 3.69-.34 1.528-2.18 7.673.328 7.673 6.381 0 4.121-6.496 8.095-11.363Zm-6.065-20.329h-9.992a94.512 94.512 0 0 0-2.066 6.315c-.774 2.658-3.267 8.317-.439 9.159 2.828.842 5.404-4.215 6.716-8.845 1.051-3.704 4.603-5.962 5.781-6.629Z" fill="#0C296E"/><path d="M99.047 10.475c-.507-.377-1.205-.608-2.17-.608a.5.5 0 1 1 0-1c1.127 0 2.05.272 2.767.805.716.533 1.182 1.292 1.459 2.182.547 1.755.393 4.116-.081 6.635-.692 3.684-2.113 7.914-3.303 11.454a167.77 167.77 0 0 0-1.176 3.584c-.452 1.46-.435 2.536-.188 3.2.122.326.294.541.482.671.186.128.42.195.706.175.592-.04 1.42-.456 2.336-1.478.906-1.01 1.851-2.567 2.678-4.763.913-2.425 1.995-4.791 3.236-6.49 1.22-1.67 2.728-2.868 4.495-2.535.767.145 1.461.401 1.896 1.044.42.621.522 1.493.429 2.66-.185 2.34-1.206 6.35-3.03 13.279a251.41 251.41 0 0 1-1.629 5.854l-.256.891c-.529 1.848-.924 3.277-1.118 4.37-.199 1.123-.157 1.75.032 2.089.149.268.472.48 1.331.48a.5.5 0 0 1 0 1c-.983 0-1.787-.244-2.205-.993-.377-.678-.342-1.63-.142-2.752.204-1.152.615-2.634 1.141-4.47l.257-.894a251.074 251.074 0 0 0 1.622-5.83c1.837-6.98 2.824-10.877 3-13.104.089-1.117-.04-1.694-.26-2.02-.205-.303-.562-.49-1.254-.621-1.151-.217-2.32.526-3.501 2.142-1.16 1.587-2.204 3.851-3.108 6.253-.858 2.278-1.86 3.951-2.869 5.077-.999 1.115-2.051 1.743-3.013 1.81a2.077 2.077 0 0 1-1.341-.35c-.387-.267-.672-.664-.852-1.146-.355-.952-.317-2.275.17-3.845.341-1.102.76-2.349 1.207-3.68 1.184-3.521 2.566-7.637 3.245-11.247.468-2.491.578-4.645.108-6.152-.23-.741-.593-1.3-1.1-1.677Z" fill="#0C296E"/><path d="M93.67 9.808a8.813 8.813 0 0 0-1.157.854c-1.7 1.475-3.507 4.05-5.078 8.452-.946 2.647-2.487 9.62-4.064 17.218-.816 3.93-1.64 8.026-2.402 11.807-.718 3.566-1.38 6.852-1.924 9.453a.5.5 0 1 0 .979.205 1429.21 1429.21 0 0 0 1.926-9.464c.763-3.79 1.59-7.892 2.4-11.797 1.584-7.633 3.11-14.52 4.026-17.086 1.535-4.297 3.262-6.704 4.792-8.032 1.522-1.321 2.867-1.59 3.691-1.58a.5.5 0 0 0 .014-1c-7.962-.124-49.298-.049-65.398-.014a8.494 8.494 0 0 0-8.284 6.707c-1.142 5.219-2.848 12.89-4.514 19.908-.492 2.07-.98 4.079-1.447 5.95h1.031c-.004.017.013-.052 0 0 .451-1.811.919-3.74 1.388-5.719 1.67-7.027 3.377-14.704 4.519-19.925a7.494 7.494 0 0 1 7.31-5.921c14.55-.032 49.676-.096 62.191-.016Z" fill="#0C296E"/><path d="M5.71 45.383v61.405a4 4 0 0 0 4 4h86.008a4 4 0 0 0 4-4V61.935a4 4 0 0 0-4-4H49.887a4 4 0 0 1-3.507-2.075l-6.81-12.402a4 4 0 0 0-3.506-2.075H9.709a4 4 0 0 0-4 4Z" fill="#BBBFC4" fill-opacity=".45"/><path d="M110.466 91.433c-.006-.799-.012-1.285-.012-1.285-.303.247-.605.497-.911.75l-.081.068c-3.632 3.014-7.78 6.386-20.235 7.13-7.943.474-16.088.126-24.781-.246-5.887-.251-12.025-.513-18.522-.538-.332-.002-.665-.002-1-.002v7.767c2.948.112 5.73.221 8.366.325 15.996.629 26.581 1.046 35.937.465 10.898-.677 18.829-4.063 21.227-6.854.037-2.852.024-5.905.012-7.58Zm-.995.824.003.748c.007 1.584.007 3.63-.016 5.613-1.13 1.143-3.421 2.498-6.762 3.671-3.55 1.248-8.167 2.247-13.53 2.58-9.302.578-19.827.163-35.832-.466-2.348-.093-4.813-.19-7.41-.289v-5.802c6.473.025 12.588.286 18.473.537 1.254.054 2.498.107 3.732.157 7.314.298 14.305.497 21.158.088 6.889-.411 11.346-1.62 14.608-3.177 2.365-1.128 4.079-2.433 5.576-3.66Zm1.326-20.84c0-3.877-2.531-6.25-11.069-9.276v7.774c8.271 2.27 10.442 6.371 11.069 9.279.074-3.393 0-3.9 0-7.777Z" fill="#0C296E"/><path d="M65.28 90.249v-7.77c8.77.593 16.806 2.15 28.602 0 12.052-2.198 16.915-6.506 16.915-11.963v10.79c-.627 3.433-6.265 7.958-16.288 8.927-10.024.97-19.252.938-29.23.016Z" fill="#3370FF"/><path d="M12.954 72.223a.5.5 0 0 1 .5-.5h21.04a.5.5 0 1 1 0 1h-21.04a.5.5 0 0 1-.5-.5Zm0 9.365a.5.5 0 0 0 .5.5h21.04a.5.5 0 1 0 0-1h-21.04a.5.5 0 0 0-.5.5Zm2.326-33.113a2 2 0 1 1 0 4 2 2 0 0 1 0-4Zm3 2a3 3 0 1 0-6 0 3 3 0 0 0 6 0Zm6.915-2a2 2 0 1 1 0 4 2 2 0 0 1 0-4Zm3 2a3 3 0 1 0-6 0 3 3 0 0 0 6 0Z" fill="#8F959E"/><path d="M83.231 38.055a.5.5 0 0 1 .5-.5h13.483a.5.5 0 1 1 0 1H83.731a.5.5 0 0 1-.5-.5ZM80.599 52.97h26.889a.5.5 0 1 1 0 1H80.599a.5.5 0 1 1 0-1ZM32.516 23.46a.5.5 0 0 1 .5-.5h38.223a.5.5 0 0 1 0 1H33.016a.5.5 0 0 1-.5-.5Zm-2.769 11a.5.5 0 0 1 .5-.5h38.224a.5.5 0 1 1 0 1H30.247a.5.5 0 0 1-.5-.5Z" fill="#0C296E"/></svg>