<svg width="150" height="128" viewBox="0 0 150 128" fill="none" xmlns="http://www.w3.org/2000/svg"><path d="M0 8a8 8 0 0 1 8-8h134a8 8 0 0 1 8 8v112a8 8 0 0 1-8 8H8a8 8 0 0 1-8-8V8Z" fill="#F5F6F7"/><path d="M13.948 14.574c-.384.416-.864.784-1.44 1.136-.576.32-1.104.544-1.616.672v1.728c1.056-.304 1.936-.784 2.624-1.44v9.328h1.744V14.574h-1.312Z" fill="#0C296E"/><g opacity=".9"><path d="M62 38.5C62 32.149 67.147 27 73.5 27H125v23H73.5C67.147 50 62 44.851 62 38.5Z" fill="#3370FF"/><path d="M69.24 36v8.217h6.849v-8.218H69.24Zm8.218-.685v9.663c0 .336-.286.608-.64.608H68.51c-.353 0-.639-.272-.639-.608v-9.74c0-.336.286-.608.64-.608h8.262c.379 0 .685.306.685.684Zm2.539-3.224c.124.124.2.295.2.484v8.56c0 .19-.153.343-.342.343h-.685a.342.342 0 0 1-.342-.343V33.26h-6.506a.342.342 0 0 1-.342-.342v-.685c0-.19.153-.342.342-.342h7.19c.19 0 .36.076.485.2Zm6.832 3.316a1.49 1.49 0 0 0-.99.341c-.236.165-.437.413-.59.743v-.92h-1.25v6.095h1.25v-3.23c0-.53.153-.967.472-1.297.294-.306.636-.46 1.013-.46.283 0 .578.036.884.13v-1.25c-.212-.105-.483-.152-.79-.152Zm3.407-1.804-1.25.519v1.45h-1.131v1.037h1.132v3.536c0 .484.106.849.341 1.108.236.271.625.413 1.144.413h1.002v-1.037h-.802a.446.446 0 0 1-.33-.118c-.07-.083-.106-.2-.106-.366V36.61h1.391v-1.037h-1.39v-1.969Zm5.32 1.804c-.612 0-1.178.27-1.673.837v-.672h-1.25v6.094h1.25V38c0-.425.118-.79.377-1.085.236-.306.566-.46.966-.46.826 0 1.25.472 1.25 1.439v3.772h1.25v-3.749c0-.448.117-.813.353-1.072a1.12 1.12 0 0 1 .872-.39c.472 0 .826.107 1.038.343.212.224.318.589.318 1.084v3.784h1.25V37.67c0-.684-.213-1.226-.613-1.639-.413-.424-.932-.624-1.556-.624-.413 0-.755.07-1.038.224-.306.153-.6.424-.872.801-.377-.684-1.026-1.025-1.921-1.025Zm10.468 0c-.826 0-1.462.294-1.886.895v-.73h-1.167V44h1.249v-3.23c.495.707 1.108 1.06 1.863 1.06.872 0 1.567-.317 2.062-.954.46-.59.696-1.332.696-2.228 0-.943-.236-1.697-.707-2.287-.519-.636-1.215-.954-2.11-.954Zm-.189 1.013c.613 0 1.061.212 1.356.66.235.378.365.896.365 1.568s-.141 1.19-.401 1.568c-.294.4-.742.601-1.355.601-.472 0-.849-.188-1.132-.554-.33-.4-.483-.931-.483-1.58v-.105c0-.625.129-1.132.389-1.51.294-.435.719-.648 1.261-.648Zm5.076-.801c-.259 0-.459.082-.612.26a.819.819 0 0 0-.26.624c0 .236.083.448.26.625.153.165.353.247.612.247a.893.893 0 0 0 .625-.247.905.905 0 0 0 .26-.625.864.864 0 0 0-.26-.625.856.856 0 0 0-.625-.26Zm0 4.314c-.259 0-.459.083-.612.26a.819.819 0 0 0-.26.624c0 .236.083.448.26.625.153.165.353.248.612.248a.893.893 0 0 0 .625-.248.905.905 0 0 0 .26-.625.864.864 0 0 0-.26-.625.856.856 0 0 0-.625-.259Zm5.845-6.433-3.894 9.345h1.096l3.882-9.345h-1.084Zm3.894 0-3.894 9.345h1.096l3.882-9.345h-1.084Z" fill="#fff"/><path d="M62 67.5C62 61.149 67.147 56 73.5 56H125v23H73.5C67.147 79 62 73.851 62 67.5Z" fill="#3370FF"/><path d="M85.555 64.754c-.71 0-1.295.149-1.742.458-.447.298-.665.722-.665 1.26 0 .505.23.906.688 1.193.275.183.768.355 1.467.515.608.138 1.009.253 1.192.344.344.16.527.39.527.677 0 .527-.48.802-1.42.802-.46 0-.78-.08-.986-.23-.207-.16-.356-.446-.424-.847H83C83.136 70.3 84.007 71 85.635 71c1.753 0 2.636-.63 2.636-1.88 0-.527-.241-.94-.71-1.238-.322-.206-.826-.4-1.502-.561-.596-.15-.986-.264-1.192-.355-.321-.15-.482-.321-.482-.528 0-.229.104-.412.321-.527.184-.114.459-.16.826-.16.412 0 .733.069.94.206.194.126.332.344.423.665h1.18c-.137-1.25-.985-1.868-2.52-1.868ZM91.097 63l-1.215.504v1.41h-1.1v1.009h1.1v3.438c0 .47.103.825.333 1.077.229.264.607.401 1.111.401h.975v-1.008h-.78a.434.434 0 0 1-.32-.115c-.07-.08-.104-.194-.104-.355v-3.438h1.353v-1.009h-1.353V63Zm5.082 1.754a1.45 1.45 0 0 0-.963.332c-.23.16-.424.401-.573.722v-.894h-1.215v5.925h1.215V67.7c0-.516.149-.94.458-1.26.287-.299.62-.448.986-.448.275 0 .562.035.86.127v-1.215c-.207-.104-.47-.15-.768-.15Zm4.023 0c-.87 0-1.57.298-2.074.905-.527.596-.78 1.33-.78 2.212 0 .974.276 1.742.826 2.315.504.539 1.203.814 2.074.814.791 0 1.444-.23 1.96-.676.413-.367.676-.837.814-1.387h-1.215c-.16.344-.332.607-.539.768-.263.195-.607.298-1.031.298-.482 0-.86-.16-1.135-.459-.275-.309-.424-.756-.47-1.33h4.493c-.011-1.053-.252-1.879-.711-2.475-.504-.665-1.249-.985-2.212-.985Zm.035.997c.963 0 1.501.515 1.616 1.547h-3.198c.069-.504.24-.883.493-1.146.275-.275.63-.401 1.089-.401Zm6.595-.997c-.733 0-1.329.126-1.765.4-.504.299-.825.78-.951 1.422l1.203.103c.069-.332.241-.573.516-.733.229-.138.539-.207.917-.207.894 0 1.341.413 1.341 1.238v.24l-1.33.035c-.871.023-1.558.195-2.04.539-.527.355-.79.87-.79 1.536 0 .493.183.894.561 1.203.344.31.825.47 1.444.47.527 0 .986-.103 1.376-.287a2.46 2.46 0 0 0 .859-.71v.837h1.123v-3.783c0-.722-.183-1.272-.538-1.65-.413-.436-1.055-.653-1.926-.653Zm1.261 3.346v.344c0 .459-.195.848-.562 1.158a1.97 1.97 0 0 1-1.318.47c-.309 0-.561-.08-.745-.23a.672.672 0 0 1-.286-.561c0-.734.55-1.123 1.662-1.146l1.249-.035Zm5.437-3.346c-.596 0-1.147.263-1.628.813v-.653h-1.215v5.925h1.215v-3.564c0-.413.115-.768.367-1.054.229-.298.55-.447.94-.447.802 0 1.214.458 1.214 1.398v3.668h1.215v-3.645c0-.436.115-.791.344-1.043a1.09 1.09 0 0 1 .848-.378c.459 0 .803.103 1.009.332.206.218.309.573.309 1.055v3.678h1.215v-3.885c0-.665-.206-1.192-.596-1.593-.401-.413-.905-.607-1.513-.607-.401 0-.733.068-1.008.217-.298.15-.585.413-.848.78-.367-.665-.997-.997-1.868-.997Zm7.094 2.613v1.008h3.787v-1.008h-3.787Zm-51.083-3.035v8h7.084v-8H69.54Zm8.5-.667v9.408c0 .327-.296.592-.66.592h-8.595c-.365 0-.662-.265-.662-.592V63.59c0-.327.297-.592.662-.592h8.547c.391 0 .708.298.708.666Zm2.626-3.138c.128.12.207.288.207.472v8.333c0 .184-.158.333-.354.333h-.708c-.196 0-.354-.149-.354-.333v-7.667h-6.73c-.195 0-.353-.149-.353-.333v-.667c0-.184.158-.333.354-.333h7.437a.73.73 0 0 1 .501.195Z" fill="#fff"/><path d="M35.5 23a4.5 4.5 0 0 1 4.5-4.5h87a4.5 4.5 0 0 1 4.5 4.5v60a4.5 4.5 0 0 1-4.5 4.5H72.9a.5.5 0 0 1 0-1H127a3.5 3.5 0 0 0 3.5-3.5V23a3.5 3.5 0 0 0-3.5-3.5H40a3.5 3.5 0 0 0-3.5 3.5v30a.5.5 0 1 1-1 0V23Z" fill="#0C296E"/></g><path d="M17.011 80.556v8.297c0-4.69 3.73-7.206 7.988-8.853l3.5-10c-3.875 1.53-11.488 5.789-11.488 10.556Z" fill="#0C296E"/><path d="M32.512 99.438h-.336c-5.185 0-9.597-.34-12.722-1.41-.291-.097-.56-.214-.829-.321v8.576c.27.117.538.224.83.321 3.124 1.069 7.536 1.41 12.721 1.41h.336v-8.576Z" fill="#FFC60A"/><path d="M68.115 86.678a104.71 104.71 0 0 0-7.161-.235c-9.805 0-20.12 1.054-28.3 1.054-4.593 0-8.504-.33-11.267-1.355C18.614 85.098 17 83.358 17 80.555v8.296c0 2.803 1.614 4.553 4.387 5.578 2.774 1.035 6.674 1.355 11.268 1.355 8.18 0 18.494-1.054 28.299-1.054 2.437 0 4.832.066 7.161.235v-8.287Z" fill="#00D6B9"/><path d="M41.725 99.807v6.576c4.553-.215 9.226-.409 13.816-.409 6.175 0 12.234.337 17.602 1.401v-6.535c-5.28-1.09-11.324-1.442-17.602-1.442-4.573 0-9.24.187-13.816.41Zm32.418.225v8.576c-.33-.074-.664-.145-1-.213-5.32-1.077-11.377-1.421-17.602-1.421-4.581 0-9.25.195-13.816.41l-1 .047v-8.576c4.882-.243 9.9-.457 14.816-.457 6.619 0 13.036.39 18.602 1.634ZM55.134 61.61a.5.5 0 0 1 .127.695 168.873 168.873 0 0 0-3.26 5.087l-.495.793a251.053 251.053 0 0 1-5.13 7.897.5.5 0 0 1-.692.145.5.5 0 0 1-.125-.697 248.541 248.541 0 0 0 5.11-7.866l.494-.79a172.274 172.274 0 0 1 3.28-5.117.5.5 0 0 1 .69-.147Zm4.065 7.022a.505.505 0 0 1 .048.708 480.258 480.258 0 0 0-8.365 10.165.496.496 0 0 1-.7.084.504.504 0 0 1-.064-.707c3.3-4.105 4.977-6.143 8.38-10.182a.496.496 0 0 1 .7-.068ZM38.557 59.27c-1.833.184-3.51.364-4.752.516a41.69 41.69 0 0 0-1.512.207 7.54 7.54 0 0 0-.467.088c-.06.014-.121.03-.176.048l-.003.001c-.032.011-.143.048-.238.132a.567.567 0 0 0-.148.215l-.03.077a114.335 114.335 0 0 0-.407 1.127c-.268.754-.644 1.823-1.092 3.102-.895 2.558-2.078 5.958-3.258 9.354a13428.382 13428.382 0 0 0-4.3 12.404l-.386 1.113-.02.033-.14.23a353.631 353.631 0 0 1-2.317 3.757c-1.442 2.305-3.256 5.139-4.751 7.276-.16.23-.11.543.111.7a.499.499 0 0 0 .694-.134c1.512-2.16 3.337-5.013 4.78-7.32a351.244 351.244 0 0 0 2.325-3.769l.141-.233.049-.08-.422-.254c.468.154.469.153.469.153l.403-1.164a12774.657 12774.657 0 0 1 4.3-12.403c1.18-3.396 2.363-6.794 3.258-9.352a572.775 572.775 0 0 1 1.402-3.97l.03-.08a9.4 9.4 0 0 1 .323-.057 41.08 41.08 0 0 1 1.473-.202c1.23-.15 2.9-.33 4.731-.514 3.653-.369 7.94-.76 10.658-1.003.197 0 .347 0 .477.023a.475.475 0 0 1 .223.083c.03.041.052.107.03.242a1.77 1.77 0 0 1-.223.563c-1.07 1.854-2.754 3.137-4.744 4.09-1.994.956-4.26 1.563-6.455 2.087a.52.52 0 0 0-.395.54c.261 3.75-.744 7.621-2.784 10.816a.5.5 0 0 0 .142.693.5.5 0 0 0 .688-.164c2.08-3.257 3.142-7.173 2.97-11.007 2.078-.505 4.27-1.115 6.238-2.057 2.104-1.008 3.985-2.413 5.195-4.51v-.003c.147-.256.295-.579.35-.915.054-.346.014-.756-.287-1.085a1.385 1.385 0 0 0-.759-.367 3.832 3.832 0 0 0-.645-.035h-.018c-.014 0-.027 0-.041.002a997.49 997.49 0 0 0-10.69 1.005ZM22.238 87.86l.422.253a.516.516 0 0 0 .046-.099l-.468-.154Zm9.7-26.776.002-.001a.103.103 0 0 1-.002 0Z" fill="#0C296E"/><path d="M57.142 31.004c.37-.222.894-.41 1.332-.07.59.456.921 1.16 1.007 2.058.086.889-.065 1.993-.454 3.318-.779 2.651-2.554 6.313-5.593 11.16a374.446 374.446 0 0 0-4.225 6.984 223.806 223.806 0 0 0-1.227 2.108c7.111 4.494 10.908 7.208 11.877 13.088v.002c.501 3.14.235 5.351-.913 7.468-1.124 2.071-3.076 4.015-5.804 6.663-2.554 2.48-6.525 4.958-9.823 6.805a104.337 104.337 0 0 1-5.523 2.873 63.28 63.28 0 0 1-.3.143l-.03.07-.317.691a464.533 464.533 0 0 1-4.76 10.074.505.505 0 0 1-.666.243.496.496 0 0 1-.221-.669 438.225 438.225 0 0 0 4.748-10.05l.315-.69.11-.242.45.198-.195-.456.007-.004.022-.01.09-.042.343-.163a103.416 103.416 0 0 0 5.465-2.843c3.29-1.842 7.159-4.266 9.608-6.645 2.762-2.68 4.581-4.509 5.613-6.41 1.006-1.857 1.278-3.82.8-6.814-.904-5.488-4.401-7.984-11.836-12.672a.499.499 0 0 1-.158-.67l.024-.042.07-.125.282-.49c.247-.43.616-1.065 1.1-1.887a376.377 376.377 0 0 1 4.237-7.004l.002-.002c3.021-4.82 4.738-8.386 5.476-10.901.37-1.258.485-2.221.417-2.931-.065-.685-.297-1.107-.613-1.362a.71.71 0 0 0-.247.11c-.272.163-.64.484-1.108.98-.928.984-2.137 2.539-3.601 4.53a471.151 471.151 0 0 0-3.715 5.161c-2.241 3.14-4.812 6.743-7.622 10.482a527.858 527.858 0 0 0-4.319 5.816l-.635.864a.498.498 0 0 1-.696.116.502.502 0 0 1-.094-.703l.633-.862a530.07 530.07 0 0 1 4.327-5.827c2.81-3.737 5.355-7.304 7.586-10.431a467.097 467.097 0 0 1 3.744-5.202c1.463-1.99 2.706-3.592 3.683-4.628.484-.514.93-.92 1.327-1.158Zm.755.753-.01-.001h.01ZM37.126 93.229l-.196-.456a.52.52 0 0 0-.255.258l.45.198Z" fill="#0C296E"/><path d="M45.23 64.763c.267.06.428.328.361.6-1.045 4.234-.766 6.737-.432 8.665v.005c.378 2.319 1.909 3.912 4 4.799 2.1.89 4.737 1.048 7.207.484.27-.062.53.108.584.38a.52.52 0 0 1-.392.601c-2.643.604-5.493.445-7.805-.535-2.322-.984-4.13-2.813-4.573-5.535-.352-2.033-.638-4.683.448-9.082a.512.512 0 0 1 .603-.382Z" fill="#0C296E"/></svg>