<svg width="350" height="350" viewBox="0 0 350 350" fill="none" xmlns="http://www.w3.org/2000/svg">
  <path d="M61.9 89.346v17.447a3.206 3.206 0 0 0 1.064 2.186 3.167 3.167 0 0 0 2.286.799h17.66a3.167 3.167 0 0 0 2.285-.799 3.206 3.206 0 0 0 1.064-2.186V89.345a3.214 3.214 0 0 0-1.047-2.218 3.175 3.175 0 0 0-2.302-.817H65.2a3.167 3.167 0 0 0-2.27.835 3.206 3.206 0 0 0-1.029 2.2Z" fill="#FFC60A"/>
  <path d="M73.21 100.527c0-3.532 2.571-6.396 5.743-6.396h177.304c3.172 0 5.743 2.864 5.743 6.396v106.338c0 3.533-2.571 6.396-5.743 6.396H78.953c-3.172 0-5.743-2.863-5.743-6.396V100.527Z" fill="#fff"/>
  <path d="M73.298 200.643v6.396c0 3.532 2.645 6.396 5.908 6.396h113.63M73.298 135.413v-34.712c0-3.533 2.645-6.396 5.908-6.396h177.039c3.263 0 5.908 2.863 5.908 6.396v1.999m0 41.975v62.364c0 3.532-2.645 6.396-5.908 6.396h-14.254" stroke="#002270" stroke-width=".98" stroke-linecap="round"/>
  <path d="M251.009 121.303H83.331c-1.746 0-3.161 4.417-3.161 9.867v62.49c0 5.449 1.415 9.867 3.161 9.867H251.01c1.746 0 3.161-4.418 3.161-9.867v-62.49c0-5.45-1.415-9.867-3.161-9.867Z" fill="#DEE0E3" fill-opacity=".5"/>
  <path fill-rule="evenodd" clip-rule="evenodd" d="M87.76 105.54a2.402 2.402 0 0 0-2.215 1.481 2.393 2.393 0 0 0 1.753 3.265 2.398 2.398 0 0 0 2.46-1.025 2.393 2.393 0 0 0-1.997-3.721Zm-1.883-.42a3.395 3.395 0 0 1 4.276.417 3.385 3.385 0 0 1-1.087 5.524 3.386 3.386 0 0 1-3.19-5.941Zm13.455.42a2.402 2.402 0 0 0-2.215 1.481 2.394 2.394 0 0 0 1.753 3.265 2.398 2.398 0 0 0 2.859-2.359 2.393 2.393 0 0 0-2.397-2.387Zm-1.884-.42a3.395 3.395 0 0 1 4.276.417 3.39 3.39 0 0 1 .431 4.272 3.383 3.383 0 0 1-3.477 1.45 3.388 3.388 0 0 1-1.23-6.139Z" fill="#002270"/>
  <path d="M113.796 107.924a2.896 2.896 0 0 1-1.778 2.679 2.895 2.895 0 0 1-3.951-2.101 2.891 2.891 0 0 1 4.878-2.616c.543.54.849 1.273.851 2.038Z" fill="#002270"/>
  <path fill-rule="evenodd" clip-rule="evenodd" d="M110.903 105.457a2.48 2.48 0 1 0 0 4.958 2.48 2.48 0 0 0 0-4.958Zm-1.838-.268a3.303 3.303 0 0 1 4.171.406 3.3 3.3 0 0 1-1.06 5.39 3.305 3.305 0 0 1-3.111-5.796Z" fill="#002270"/>
  <path d="M182.834 168.753c0-.427.346-.773.774-.773h2.629c.428 0 .774.346.774.773v13.052a.773.773 0 0 1-.774.773h-2.629a.773.773 0 0 1-.774-.773v-13.052Z" fill="#14C0FF"/>
  <path d="M186.315 172.129h4.099c.427 0 .774.347.774.773v1.237a.775.775 0 0 1-.774.774h-4.099v-2.784Zm0 4.278h4.099c.427 0 .774.346.774.773v1.237a.774.774 0 0 1-.774.773h-4.099v-2.783Z" fill="#14C0FF"/>
  <path fill-rule="evenodd" clip-rule="evenodd" d="M184.683 170.299a8.119 8.119 0 0 0 8.121-8.117 8.12 8.12 0 0 0-8.121-8.118 8.12 8.12 0 0 0-8.121 8.118 8.119 8.119 0 0 0 8.121 8.117Zm0-4.638a3.48 3.48 0 1 0 0-6.958 3.48 3.48 0 1 0 0 6.958Zm-18.989-4.645c-5.481 0-9.93-4.435-9.93-9.907 0-5.471 4.449-9.906 9.93-9.906s9.93 4.435 9.93 9.906c0 5.472-4.449 9.907-9.93 9.907Zm-17.874 13.868c0-6.565 5.333-11.887 11.916-11.887h11.916c.398 0 .791.019 1.179.057a8.722 8.722 0 0 0-.012.458c0 4.384 3.051 8.055 7.147 9.008v9.358a4.13 4.13 0 0 1-.37.017h-27.804a3.983 3.983 0 0 1-3.972-3.97v-3.041Z" fill="#14C0FF"/>
  <path fill-rule="evenodd" clip-rule="evenodd" d="M27.994 217.424a.455.455 0 0 1 .626.119c2.723 3.969 5.204 6.347 7.594 7.811 2.384 1.46 4.708 2.029 7.156 2.332 1.069.132 2.166.212 3.301.295 4.062.298 8.623.633 14.155 3.494l-.209.393.209-.394v.001c4.896 2.519 7.89 6.182 10.677 9.594.865 1.059 1.71 2.093 2.586 3.061 1.864 2.06 3.88 3.85 6.542 5.052 2.66 1.201 6.002 1.831 10.539 1.511 9.213-.648 15.58-.328 21.194 1.302 5.615 1.632 10.438 4.563 16.575 9.066h.001c6.582 4.839 14.411 6.776 19.139 7.447.246.035.417.26.381.503a.45.45 0 0 1-.51.376c-4.805-.683-12.8-2.653-19.549-7.615l.269-.355-.269.355c-6.114-4.484-10.833-7.34-16.292-8.926-5.461-1.586-11.703-1.913-20.875-1.268-4.656.328-8.155-.315-10.978-1.589-2.822-1.274-4.934-3.163-6.84-5.269-.93-1.027-1.807-2.101-2.692-3.183-2.767-3.383-5.603-6.851-10.316-9.276v-.001c-5.352-2.767-9.687-3.087-13.726-3.385-1.16-.086-2.296-.17-3.424-.309-2.525-.312-4.988-.908-7.52-2.459-2.528-1.548-5.094-4.03-7.865-8.067a.44.44 0 0 1 .121-.616Z" fill="#002270"/>
  <path d="M38.83 241.192c4.975 1.575 11.469-.411 17.311.07a20.407 20.407 0 0 1 12.77 6.125c2.814 2.747 5.21 5.827 10.167 7.611 5.739 2.057 11.911 1.995 18.613 1.173 3.473-.481 10.496-1.304 17.529 1.846 8.447 3.771 14.611 11.374 31.592 11.374H27.796v-35.522s5.296 5.538 11.034 7.323Z" fill="#33D6C0"/>
  <g clip-path="url(#illustration_passport_initialization_function_addpasskey__a)">
    <path d="M289.639 202.391c0 2-1.333 5.5-2 7 .334 2.5 2.2 7.6 7 8 4.8.4 8.333-3.167 9.5-5l-.5-12c.667-.667 2-2.1 2-2.5 0-.5 2-2 3.5-4s-.5-5.5-1-6.5-6-3.5-9.5-4.5-3.5-6-5-7.5-3.5 3.5-7 13.5c-2.8 8 .834 12.333 3 13.5Z" fill="#fff"/>
    <path fill-rule="evenodd" clip-rule="evenodd" d="M279.46 170.862a.369.369 0 0 1 .388-.184l6.744 1.202a.368.368 0 0 1 .212.119l9.547 10.765a.37.37 0 0 1 .093.245v4.031a.372.372 0 0 1-.087.239l-3.477 4.114a.28.28 0 0 1-.038.039l-3.156 2.768.639 14.272a.37.37 0 0 1-.151.314l-7.559 5.526a.368.368 0 0 1-.277.066l-10.527-1.703a.367.367 0 0 1-.294-.476l.353.112-.353-.112.001-.001v-.003l.001-.001.104-.329.282-.888c.235-.74.554-1.735.885-2.759.33-1.024.674-2.077.962-2.933a36.95 36.95 0 0 1 .591-1.676l.019-.06a60.23 60.23 0 0 0 1.599-3.947c.475-1.324.85-2.601.95-3.523-1.397-.777-2.499-2.162-3.252-4.555-.335-1.038-.281-2.562-.046-4.206.237-1.662.669-3.51 1.138-5.23a85.214 85.214 0 0 1 1.843-5.887l.136-.384.037-.1.009-.026.003-.009s.001-.001.347.127l-.347-.127a.365.365 0 0 1 .025-.053l2.656-4.767Zm-1.996 5.101-.003.007-.035.098c-.032.086-.077.214-.135.378a86.406 86.406 0 0 0-1.827 5.836c-.464 1.706-.888 3.521-1.119 5.14-.234 1.637-.261 3.013.018 3.876l.001.003c.751 2.386 1.824 3.597 3.102 4.235a.37.37 0 0 1 .203.353c-.062 1.048-.495 2.521-1.012 3.962a59.203 59.203 0 0 1-1.577 3.898.28.28 0 0 1-.008.031l-2.716 8.235 9.948 1.609 7.274-5.317-.638-14.252a.37.37 0 0 1 .125-.294l3.268-2.866 3.372-3.99v-3.756l-9.369-10.564-6.359-1.134-2.513 4.512Z" fill="#002270"/>
    <path d="M232.073 201.646c-.217-3.815.1-7.846-.369-10.946a128.054 128.054 0 0 0-1.381-7.646c-1.178-5.622-6.037-12.13-6.703-12.444-1.02.084-.148 2.882.748 4.552 1.317 2.462 2.001 5.993 2.001 5.993-3.914-.013-6.61.604-8.482 2.167-1.868 1.565.764 9.182 1.466 10.579 1.055 2.097 5.438 9.961 5.438 9.961" fill="#fff"/>
    <path d="M223.522 170.17a.619.619 0 0 1 .313.058c.13.061.243.158.318.227.09.082.189.184.294.3.212.234.471.548.76.926a35.54 35.54 0 0 1 2.026 2.987c1.457 2.389 2.995 5.472 3.598 8.35.606 2.898.995 5.076 1.385 7.668.239 1.582.277 3.39.284 5.261l.001 1.09c0 1.536.001 3.1.088 4.63.01.181-.11.339-.302.397l-7.282 2.216a.597.597 0 0 1-.676-.261l.462-.157-.462.157-.001-.001-.19-.341-.511-.92c-.427-.77-1.008-1.819-1.623-2.934-1.225-2.224-2.59-4.724-3.122-5.782-.372-.739-1.215-3.028-1.732-5.324-.259-1.151-.442-2.326-.437-3.323.003-.499.052-.967.17-1.371.117-.401.31-.767.625-1.031 1.901-1.587 4.573-2.23 8.252-2.277a32.597 32.597 0 0 0-.398-1.57c-.333-1.181-.824-2.643-1.459-3.832-.465-.865-.922-2.019-1.134-2.981-.105-.476-.158-.942-.1-1.311.055-.346.253-.802.853-.851Zm2.847 10.985.509-.031a.367.367 0 0 1-.1.333.503.503 0 0 1-.361.14c-3.857-.013-6.404.597-8.152 2.056-.152.128-.285.342-.379.662-.092.317-.138.712-.141 1.169-.004.915.165 2.024.418 3.148.507 2.253 1.331 4.471 1.661 5.129.523 1.039 1.877 3.52 3.107 5.751a882.767 882.767 0 0 0 1.621 2.931l.479.862 6.511-1.981c-.073-1.458-.073-2.943-.073-4.382l-.002-1.079c-.006-1.873-.045-3.63-.275-5.148a127.173 127.173 0 0 0-1.377-7.624c-.575-2.744-2.055-5.727-3.488-8.076a34.06 34.06 0 0 0-1.968-2.902 14.06 14.06 0 0 0-.674-.827c-.023.23.009.56.098.965.193.876.62 1.956 1.051 2.76.681 1.274 1.192 2.808 1.53 4.007a31.72 31.72 0 0 1 .481 1.944l.025.119.006.032.002.008v.003l-.509.031Zm-2.608-10.121c.001.001-.002.005-.01.009.006-.008.01-.01.01-.009Z" fill="#002270"/>
    <path d="M225.383 182.045c.304 2.06.932 4.098 1.851 6.037l.035.072c.227.472.523 1.088.453 1.719-.036.315-.158.591-.283.829a8.584 8.584 0 0 1-.161.29l-.03.053c-.062.11-.119.212-.168.314-.487 1.003-.313 2.27.42 3.189.167.21.117.481-.114.605a.598.598 0 0 1-.721-.157c-.951-1.193-1.156-2.783-.545-4.042a6.49 6.49 0 0 1 .191-.356l.032-.057c.053-.092.102-.178.148-.265.109-.209.182-.39.203-.572.045-.402-.153-.82-.41-1.358l-.001-.001a22.107 22.107 0 0 1-1.996-6.815c-.028-.228.152-.42.414-.442.714-.061 1.321.235 1.787.602.461.362.838.833 1.132 1.237 1.361 1.875 2.724 3.757 3.997 5.691a.386.386 0 0 1-.181.588.598.598 0 0 1-.707-.212c-1.259-1.913-2.609-3.778-3.971-5.655-.281-.387-.59-.761-.927-1.025a1.834 1.834 0 0 0-.448-.269Z" fill="#002270"/>
    <path d="M221.399 181.269c.271-.055.563.093.655.331l-.182.037.182-.037.007.02.024.06.09.229a50.927 50.927 0 0 0 1.397 3.225c.413.861.844 1.669 1.222 2.202.154.216.278.356.367.436a.61.61 0 0 1 .559.12c.212.18.229.46.038.624a.782.782 0 0 1-.594.182 1.138 1.138 0 0 1-.538-.207c-.257-.178-.492-.459-.7-.751-.429-.604-.888-1.473-1.304-2.341a52.118 52.118 0 0 1-1.422-3.281l-.092-.234-.024-.062-.008-.022.489-.1-.489.1c-.092-.238.053-.476.323-.531Zm-2.411 1.57c.261-.077.566.048.682.28.089.177.225.472.389.826l.238.514c.273.586.595 1.263.921 1.892.33.634.652 1.195.924 1.561.089.119.16.2.212.253a.612.612 0 0 1 .463.169c.197.192.188.47-.018.62a.732.732 0 0 1-.543.121 1.029 1.029 0 0 1-.433-.183c-.2-.139-.38-.349-.536-.558-.322-.433-.673-1.052-1.006-1.692a51.158 51.158 0 0 1-.938-1.926l-.249-.537a37.449 37.449 0 0 0-.367-.781c-.116-.231.001-.482.261-.559Zm3.447 5.396-.003-.002.003.002Z" fill="#002270"/>
    <path d="m233.495 200.586 7.398 29.593 8.08-11.871c3.477-5.275 7.732-10.07 13.573-12.461 1.697-.695 9.401-2.856 9.401-2.856l3.303-1.39a7.915 7.915 0 0 0 14.471 2.251l.521-.854 16.264 3.475c5.709 1.64 9.561 7.374 12.28 12.649l13.733 26.625a9.496 9.496 0 0 1-2.559 11.815l-13.628 11.926h-13.08l17.161-19.362-14.755-17.848-12.071 26.41-33.419-.459-.73-24.554-13.817 13.997c-3.177 3.795-10.77 4.74-14.463-.403l-7.162-43.938 9.499-2.745Z" fill="#336DF4"/>
    <path fill-rule="evenodd" clip-rule="evenodd" d="M233.678 200.266c.087.05.15.133.175.231l7.198 28.793 7.613-11.184.001-.003c3.492-5.297 7.798-10.165 13.741-12.597.87-.357 3.244-1.077 5.373-1.702a417.754 417.754 0 0 1 3.733-1.074l.313-.088 3.281-1.382a.371.371 0 0 1 .503.255 7.543 7.543 0 0 0 10.527 5.082 7.553 7.553 0 0 0 3.268-2.935l.001-.002.521-.854a.37.37 0 0 1 .393-.169l16.264 3.475a.114.114 0 0 1 .025.006c2.945.846 5.392 2.742 7.437 5.073 2.045 2.33 3.704 5.112 5.069 7.762l13.733 26.625a9.866 9.866 0 0 1-2.651 12.269l-13.621 11.919a.37.37 0 0 1-.244.092h-13.079a.369.369 0 0 1-.277-.614l16.951-19.126-14.177-17.15-11.827 25.874a.368.368 0 0 1-.341.216l-33.418-.459a.37.37 0 0 1-.365-.358l-.704-23.691-13.199 13.371c-1.669 1.984-4.463 3.201-7.304 3.271-2.856.07-5.804-1.019-7.734-3.707a.37.37 0 0 1-.064-.156l-7.162-43.938a.368.368 0 0 1 .262-.414l9.498-2.746a.37.37 0 0 1 .287.035Zm38.269 2.725.1.356-.334.094-.895.254c-.748.213-1.763.505-2.831.818-2.148.63-4.475 1.338-5.301 1.676-5.739 2.349-9.943 7.071-13.405 12.323l-.003.005-8.08 11.87a.368.368 0 0 1-.664-.118l-7.306-29.221-8.815 2.547 7.095 43.529c1.764 2.404 4.433 3.394 7.065 3.329 2.668-.065 5.254-1.214 6.765-3.017a.22.22 0 0 1 .02-.023l13.816-13.997a.37.37 0 0 1 .633.248l.72 24.201 32.823.451 11.971-26.191a.37.37 0 0 1 .621-.082l14.756 17.848a.37.37 0 0 1-.008.48l-16.617 18.748h12.119l13.525-11.834.014-.013a9.13 9.13 0 0 0 2.459-11.355l-13.733-26.626c-1.353-2.625-2.98-5.348-4.968-7.613-1.985-2.262-4.314-4.051-7.073-4.847l-15.995-3.417-.384.63h-.001a8.28 8.28 0 0 1-12.707 1.803 8.275 8.275 0 0 1-2.327-3.741l-2.912 1.225a.316.316 0 0 1-.043.016l-.1-.356Z" fill="#336DF4"/>
    <path d="m289.706 191.356 6.516-6.004c-.146-3.712-7.148-1.682-8.72-2.085-3.115-.695-7.315-1.738-7.085-5.109.2-1.014.486-2.009.855-2.974a2.54 2.54 0 0 0-.459-2.481c-.542-.487-1.342-.23-1.912-.23-1.057-1.258 1.689-4.114 2.489-4.545 1.655-.911 4.916-2.453 9.172.973 3.372 2.71 9.436 3.857 8.949 11.627-.32 5.255-5.174 12.225-10.034 14.456l.229-3.628Z" fill="#002270"/>
    <path d="M280.848 169.242c1.773-2.259 3.574.695 6.717 1.23 1.744.25 3.434.791 4.999 1.598 0 0-9.915-.973-13.003 1.488-3.087 2.46-4.944 10.939-4.944 10.939-1.147-2.085-4.374-6.512-.542-10.029.8-.695 3.539-2.342 4.513-1.939a27.353 27.353 0 0 1 2.26-3.287Z" fill="#002270"/>
    <path d="M295.339 186.526s2.51-5.143 1.258-10.313c-1.251-5.171-15.207-8.243-15.207-8.243-.8.458-3.546 3.287-2.489 4.545.605 0 1.39-.285 1.919.229a2.563 2.563 0 0 1 .452 2.482c-.239.91-.39 1.841-.452 2.78-.202 3.37 1.856 4.343 4.972 5.052 1.571.376 5.43 0 5.562 3.719l3.985-.251Z" fill="#002270"/>
    <path fill-rule="evenodd" clip-rule="evenodd" d="M281.055 167.314c.85-.468 2.195-1.146 3.913-1.224 1.742-.08 3.785.458 6.031 2.266.738.592 1.617 1.11 2.581 1.677l.226.133c1.033.609 2.14 1.276 3.13 2.119.997.848 1.889 1.885 2.494 3.245.605 1.361.905 3.004.778 5.04-.17 2.799-1.534 5.977-3.438 8.718-1.905 2.742-4.421 5.146-7.002 6.33a.698.698 0 0 1-.989-.678l.23-3.628a.697.697 0 0 1 .223-.47l3.765-3.469-1.599.1a.696.696 0 0 1-.742-.672c-.029-.802-.253-1.322-.546-1.679-.3-.365-.719-.619-1.231-.801-.517-.183-1.09-.28-1.664-.354a34.58 34.58 0 0 0-.405-.05c-.418-.05-.846-.1-1.177-.179-1.56-.355-3.006-.804-4.026-1.678a4.12 4.12 0 0 1-.775-.876c-.737-.772-1.202-1.774-1.113-3.074a.664.664 0 0 1 .012-.088c.207-1.049.503-2.079.884-3.078.057-.165.09-.337.099-.51a1.907 1.907 0 0 0-.12-.709 3.613 3.613 0 0 0-.598.378c-.661.527-1.302 1.419-1.893 2.53-.586 1.098-1.094 2.352-1.512 3.547a43.93 43.93 0 0 0-1.209 4.11l-.062.266-.016.068-.003.017-.001.004m3.587-11.432a.71.71 0 0 1-.113-.012.697.697 0 0 1-.454-.027s.001 0 0 0a.443.443 0 0 0-.141-.009 2.01 2.01 0 0 0-.414.073 6.759 6.759 0 0 0-1.189.474c-.864.427-1.689.977-2.036 1.276-.857.79-1.294 1.602-1.478 2.394-.186.803-.123 1.633.093 2.46.266 1.019.739 1.968 1.207 2.806.222-.808.527-1.837.91-2.93.431-1.232.966-2.559 1.597-3.742.568-1.065 1.238-2.062 2.018-2.763Zm-3.587 11.432a.699.699 0 0 1-1.295.188c-.101-.182-.224-.393-.36-.627-.59-1.007-1.437-2.455-1.843-4.011-.255-.98-.352-2.046-.101-3.128.252-1.09.847-2.147 1.901-3.114l.014-.013c.457-.397 1.396-1.014 2.34-1.48a8.13 8.13 0 0 1 1.447-.571c.172-.046.363-.087.56-.108 0-.232.036-.459.093-.67.152-.565.473-1.131.822-1.625.355-.501.768-.969 1.146-1.341.362-.357.74-.674 1.031-.831m9.746 16.518a20.776 20.776 0 0 1 1.593-.066c.957.004 1.765.112 2.321.379.267.129.454.284.58.465l.028.042c-.093.28-.183.527-.265.739l-.049.127-.382.352-2.646.167c-.124-.725-.396-1.321-.791-1.801a3.552 3.552 0 0 0-.389-.404Zm4.409 3.402.172-.011a.698.698 0 0 0 .584-.391l-.21-.103.21.103.001-.001.003-.006.006-.014.024-.05a8.72 8.72 0 0 0 .188-.429l.507-.468a.696.696 0 0 0 .225-.541 3.13 3.13 0 0 0-.112-.728c.105-.344.21-.719.308-1.122.485-1.991.822-4.691.16-7.425-.375-1.552-1.665-2.84-3.189-3.882-1.547-1.058-3.465-1.95-5.31-2.666a54.323 54.323 0 0 0-5-1.643l-.319-.088a6.194 6.194 0 0 1 1.574-.284c1.366-.063 3.081.341 5.091 1.959.821.66 1.787 1.228 2.729 1.782l.244.143c1.037.612 2.047 1.225 2.934 1.979.879.749 1.623 1.625 2.123 2.75.5 1.124.776 2.538.66 4.386v.001c-.15 2.456-1.373 5.39-3.191 8.006-1.533 2.207-3.44 4.117-5.369 5.288l.133-2.1 4.824-4.445Zm.549-4.095a3.278 3.278 0 0 0-.437-.252c-.847-.408-1.916-.514-2.923-.518-.915-.003-1.865.08-2.675.151l-.277.024c-.441.038-.826.068-1.145.077-.335.009-.532-.007-.627-.032l-.021-.005c-1.572-.35-3.304-.768-4.615-1.482a5.037 5.037 0 0 1-1.098-.78c-.319-.538-.485-1.257-.424-2.273.058-.886.2-1.764.424-2.623a3.24 3.24 0 0 0 .169-.939 3.227 3.227 0 0 0-.195-1.259 13.1 13.1 0 0 1 1.108-.255c1.313-.245 2.8-.352 4.213-.384a49.229 49.229 0 0 1 4.841.14l.313.026.023.002c.308.182.604.37.885.562 1.445.988 2.369 2.023 2.62 3.057.589 2.435.297 4.89-.159 6.763Zm-8.142-11.954-.152-.023a.11.11 0 0 1-.018-.002c-.879-.15-1.65-.466-2.32-.799a25.179 25.179 0 0 1-.938-.498l-.012-.006c-.29-.159-.548-.301-.793-.422-.513-.252-.861-.352-1.133-.333-.221.015-.499.118-.854.57l-.004.005a26.603 26.603 0 0 0-1.473 2.029c.343.003.766.06 1.154.317a13.3 13.3 0 0 1 1.693-.423c1.415-.264 2.985-.375 4.437-.408l.413-.007Zm12.466 54.628a.444.444 0 0 1 .618.107l5.152 7.305a.444.444 0 0 1-.725.511l-5.152-7.305a.442.442 0 0 1 .107-.618Zm-41.074-4.473a.442.442 0 0 1 .448.438l.167 14.894a.443.443 0 0 1-.887.01l-.167-14.894a.444.444 0 0 1 .439-.448Z" fill="#002270"/>
    <path d="m260.057 257.088 33.586.889 5.82 11.086-40.936-.362 1.53-11.613Z" fill="#002270"/>
    <path fill-rule="evenodd" clip-rule="evenodd" d="M259.691 257.038a.37.37 0 0 1 .376-.321l33.586.89a.368.368 0 0 1 .317.197l5.82 11.085a.37.37 0 0 1-.33.542l-40.935-.362a.37.37 0 0 1-.364-.417l1.53-11.614Zm.69.426-1.432 10.87 39.9.352-5.433-10.347-33.035-.875Z" fill="#002270"/>
    <path d="m278.748 182.945-1.85 5.241 1.697.305" fill="#fff"/>
    <path fill-rule="evenodd" clip-rule="evenodd" d="M278.87 182.597a.37.37 0 0 1 .225.472l-1.705 4.831 1.269.228a.369.369 0 1 1-.131.727l-1.697-.305a.372.372 0 0 1-.283-.487l1.85-5.24a.37.37 0 0 1 .472-.226Z" fill="#002270"/>
    <path d="M202.894 266.831h48.376l-8.602-32.227h-48.375l8.601 32.227Z" fill="#3EC3F7"/>
    <path d="M202.895 267.88v.389h63.186v-1.439h-63.186v1.05Z" fill="#002270"/>
    <path fill-rule="evenodd" clip-rule="evenodd" d="M202.581 266.83c0-.172.14-.312.313-.312h63.186c.173 0 .313.14.313.312v1.439c0 .173-.14.313-.313.313h-63.186a.313.313 0 0 1-.313-.313v-1.439Zm.626.313v.813h62.56v-.813h-62.56Z" fill="#002270"/>
    <path d="M223.407 250.63a2.631 2.631 0 0 0-1.628-2.434 2.64 2.64 0 0 0-2.873.574 2.635 2.635 0 1 0 4.501 1.86Z" fill="#fff"/>
  </g>
  <path fill-rule="evenodd" clip-rule="evenodd" d="M148.03 268.893c0-.288.338-.522.755-.522h182.93c.417 0 .755.234.755.522 0 .288-.338.522-.755.522h-182.93c-.417 0-.755-.234-.755-.522Z" fill="#002270"/>
  <path d="M167.344 235h-6.612v5.783h6.612V235Zm-10.745 0H137.59v5.783h19.009V235Z" fill="#3EC3F7"/>
  <path d="M33.674 196.06h3.153v14.857l15.71-14.872h58.137a4.847 4.847 0 0 0 4.849-4.845v-45.089a4.839 4.839 0 0 0-4.835-4.845H33.674a4.846 4.846 0 0 0-4.468 2.993 4.833 4.833 0 0 0-.366 1.852v45.075a4.85 4.85 0 0 0 1.405 3.44 4.858 4.858 0 0 0 3.43 1.434Z" fill="#fff"/>
  <path d="M28.535 153.262v-7.151a4.833 4.833 0 0 1 2.982-4.474 4.845 4.845 0 0 1 1.853-.371h77.014a4.847 4.847 0 0 1 3.421 1.422 4.833 4.833 0 0 1 1.413 3.423V191.2a4.843 4.843 0 0 1-4.849 4.845H52.232l-15.71 14.872V196.06H33.37a4.858 4.858 0 0 1-3.43-1.434 4.85 4.85 0 0 1-1.405-3.44V176.74" stroke="#002270" stroke-width=".977" stroke-linecap="round" stroke-linejoin="round"/>
  <path d="M16.678 153.816h17.881c6.152 0 11.138 4.994 11.138 11.156v8.229a2.926 2.926 0 0 1-2.923 2.927H16.678c-6.152 0-11.138-4.994-11.138-11.156 0-6.162 4.986-11.156 11.138-11.156Z" fill="#BBBFC4" fill-opacity=".45"/>
  <rect x="244.34" y="103.707" width="82.329" height="39.34" rx="19.67" fill="#DBDDE0"/>
  <path fill-rule="evenodd" clip-rule="evenodd" d="M285.555 116.53c0-.281.227-.509.508-.509h29.368a.509.509 0 0 1 0 1.017h-29.368a.508.508 0 0 1-.508-.508Z" fill="#002270" stroke="#0C296E" stroke-width=".25" stroke-linecap="round" stroke-linejoin="round"/>
  <path fill-rule="evenodd" clip-rule="evenodd" d="M285.504 116.53c0-.309.25-.559.559-.559h29.368a.559.559 0 1 1 0 1.117h-29.368a.558.558 0 0 1-.559-.558Zm.559-.458a.457.457 0 0 0 0 .915h29.368a.458.458 0 0 0 0-.915h-29.368Zm-.508 11.669c0-.281.227-.509.508-.509h17.768a.508.508 0 0 1 0 1.017h-17.768a.508.508 0 0 1-.508-.508Z" fill="#002270"/>
  <path fill-rule="evenodd" clip-rule="evenodd" d="M285.504 127.741c0-.309.25-.559.559-.559h17.768a.559.559 0 1 1 0 1.117h-17.768a.558.558 0 0 1-.559-.558Zm.559-.458a.457.457 0 0 0 0 .915h17.768a.457.457 0 1 0 0-.915h-17.768Z" fill="#002270" stroke="#0C296E" stroke-width=".25" stroke-linecap="round" stroke-linejoin="round"/>
  <path d="M265.012 137.158c7.591 0 13.744-6.15 13.744-13.737s-6.153-13.737-13.744-13.737-13.744 6.15-13.744 13.737 6.153 13.737 13.744 13.737Z" fill="#F5F6F7"/>
  <path d="M282.086 123.424c0 9.424-7.644 17.064-17.073 17.064-9.43 0-17.074-7.64-17.074-17.064s7.644-17.065 17.074-17.065c9.429 0 17.073 7.641 17.073 17.065Z" stroke="#0C296E"/>
  <path d="M73.297 183.416c7.892 0 14.29-6.395 14.29-14.282 0-7.888-6.398-14.282-14.29-14.282-7.892 0-14.29 6.394-14.29 14.282 0 7.887 6.398 14.282 14.29 14.282Z" fill="#F5F6F7"/>
  <path d="M91.067 169.134c0 9.809-7.955 17.761-17.77 17.761-9.814 0-17.77-7.952-17.77-17.761s7.956-17.761 17.77-17.761c9.815 0 17.77 7.952 17.77 17.761Z" stroke="#0C296E"/>
  <path fill="#002270" fill-opacity=".4" d="M17.564 156.848v1.385h14.77v-1.385zm1.428 15.007v1.4h14.282v-1.4z"/>
  <path fill="#002270" fill-opacity=".4" d="m18.302 171.588.967.966 14.695-14.691-.967-.967z"/>
  <path d="M18.11 156.275a1.19 1.19 0 1 1 0 2.38 1.19 1.19 0 0 1 0-2.38Zm0 7.507a1.189 1.189 0 1 1 .002 2.378 1.189 1.189 0 0 1-.002-2.378Zm0 7.506a1.19 1.19 0 1 1 0 2.38 1.19 1.19 0 0 1 0-2.38Zm7.509-15.013a1.19 1.19 0 1 1 0 2.38 1.19 1.19 0 0 1 0-2.38Zm0 7.507a1.189 1.189 0 1 1 .001 2.378 1.189 1.189 0 0 1-.001-2.378Zm0 7.506a1.19 1.19 0 1 1 0 2.38 1.19 1.19 0 0 1 0-2.38Zm7.508-15.013a1.19 1.19 0 1 1 0 2.38 1.19 1.19 0 0 1 0-2.38Zm0 7.507a1.189 1.189 0 1 1 .001 2.378 1.189 1.189 0 0 1 0-2.378Zm0 7.506a1.19 1.19 0 1 1 0 2.38 1.19 1.19 0 0 1 0-2.38Z" fill="#002270"/>
  <path d="M271.951 117.701c-.805-1.418-1.945-2.57-3.297-3.331a.43.43 0 0 0-.363-.032.46.46 0 0 0-.162.099.563.563 0 0 0-.054.739c.04.052.09.095.145.126 1.218.684 2.24 1.726 2.953 3.009a8.778 8.778 0 0 1 1.09 4.264v1.91c0 .766-.085 4.013-.234 4.779a.567.567 0 0 0 .066.394.475.475 0 0 0 .4.24.457.457 0 0 0 .299-.117.53.53 0 0 0 .165-.297c.186-.951.256-4.452.256-4.998v-1.912a9.885 9.885 0 0 0-1.264-4.873Zm-11.754-1.484a7.172 7.172 0 0 1 2.976-1.593 6.775 6.775 0 0 1 3.309-.014.427.427 0 0 0 .364-.063.498.498 0 0 0 .137-.141.55.55 0 0 0 .081-.396.544.544 0 0 0-.2-.341.455.455 0 0 0-.173-.08c-2.159-.536-4.422-.108-6.296 1.188-1.873 1.297-3.204 3.357-3.701 5.73a.565.565 0 0 0 .056.4.481.481 0 0 0 .299.237.442.442 0 0 0 .363-.07.499.499 0 0 0 .135-.143.55.55 0 0 0 .074-.19c.376-1.782 1.283-3.375 2.576-4.524Zm-3.239 5.833a.442.442 0 0 0-.182.04.487.487 0 0 0-.258.283.572.572 0 0 0-.036.201v2.065c0 1.505-.393 2.622-1.201 3.415a.545.545 0 0 0-.153.36.55.55 0 0 0 .119.374.448.448 0 0 0 .667.048c.613-.602 1.047-1.366 1.289-2.27a7.383 7.383 0 0 0 .231-1.927v-2.065a.547.547 0 0 0-.14-.37.452.452 0 0 0-.336-.154Zm13.509 5.047v-.006l-.014-1.581a.55.55 0 0 0-.142-.368.459.459 0 0 0-.338-.15.43.43 0 0 0-.182.042.471.471 0 0 0-.153.115.536.536 0 0 0-.136.372l.013 1.578c0 .126 0 .263.002.409.005 1.046.014 2.626-.249 3.496a.578.578 0 0 0 .025.4.533.533 0 0 0 .114.162.47.47 0 0 0 .161.101.441.441 0 0 0 .51-.154.525.525 0 0 0 .092-.177c.313-1.034.305-2.652.299-3.834-.002-.145-.002-.281-.002-.405Z" fill="#0C296E" stroke="#0C296E" stroke-width=".3"/>
  <path d="M269.503 123.833c0 .139.05.272.139.37.089.098.21.154.336.154a.456.456 0 0 0 .337-.154.551.551 0 0 0 .139-.37v-1.347c0-3.417-2.525-6.195-5.629-6.195-.539 0-1.074.084-1.591.251a.484.484 0 0 0-.283.251.578.578 0 0 0-.039.399.517.517 0 0 0 .229.312c.11.067.241.082.362.043.429-.139.874-.21 1.322-.21 2.579 0 4.678 2.31 4.678 5.149v1.347Zm-9.356-1.348a5.587 5.587 0 0 1 .528-2.374 5.054 5.054 0 0 1 1.462-1.841.5.5 0 0 0 .131-.147.552.552 0 0 0 .069-.192.569.569 0 0 0-.079-.395.485.485 0 0 0-.311-.215.437.437 0 0 0-.358.093 6.068 6.068 0 0 0-1.757 2.214 6.718 6.718 0 0 0-.635 2.857v3.244a6.634 6.634 0 0 1-.187 1.651 4.952 4.952 0 0 1-1.283 2.327.56.56 0 0 0-.032.742.486.486 0 0 0 .151.121.443.443 0 0 0 .524-.091c.756-.764 1.281-1.713 1.558-2.821a7.718 7.718 0 0 0 .22-1.929l-.001-3.244Zm2.094 2.507a.454.454 0 0 0-.336.153.552.552 0 0 0-.14.37l-.003 1.702c0 .374-.073 2.322-1.522 3.946a.546.546 0 0 0-.136.372.55.55 0 0 0 .142.369c.09.097.212.151.338.15a.455.455 0 0 0 .335-.157 7.027 7.027 0 0 0 1.528-2.831 7.195 7.195 0 0 0 .268-1.848l.003-1.701a.55.55 0 0 0-.139-.372.487.487 0 0 0-.155-.113.431.431 0 0 0-.183-.04Z" fill="#0C296E" stroke="#0C296E" stroke-width=".3"/>
  <path d="M266.681 120.615a.565.565 0 0 0 .003-.582.52.52 0 0 0-.131-.145c-.462-.343-1-.541-1.557-.573a2.835 2.835 0 0 0-1.603.392 3.222 3.222 0 0 0-1.19 1.243 3.633 3.633 0 0 0-.439 1.742v1.141c0 .139.05.272.139.37.089.098.21.153.336.153a.455.455 0 0 0 .337-.153.551.551 0 0 0 .139-.37v-1.141c0-.424.105-.839.303-1.202s.482-.66.822-.859a1.967 1.967 0 0 1 1.106-.27c.384.022.755.159 1.074.395a.435.435 0 0 0 .357.08.445.445 0 0 0 .172-.077.506.506 0 0 0 .132-.144Zm.399.548a.495.495 0 0 0-.262.278.576.576 0 0 0-.008.401c.097.27.146.559.145.85v6.174a8.702 8.702 0 0 1-.535 2.981.57.57 0 0 0 .005.401c.025.063.061.12.106.168a.482.482 0 0 0 .156.11.428.428 0 0 0 .364-.006.478.478 0 0 0 .153-.116.528.528 0 0 0 .1-.172 9.797 9.797 0 0 0 .603-3.366v-6.174c0-.422-.071-.839-.21-1.231a.496.496 0 0 0-.253-.29.423.423 0 0 0-.364-.008Z" fill="#0C296E" stroke="#0C296E" stroke-width=".3"/>
  <path d="M265.206 122.659a.55.55 0 0 0-.14-.371.454.454 0 0 0-.336-.153.454.454 0 0 0-.336.153.55.55 0 0 0-.14.371v5.218c0 .015 0 .03.002.046.002.026.19 2.668-1.391 4.573a.555.555 0 0 0-.124.376.565.565 0 0 0 .044.199.514.514 0 0 0 .269.27.426.426 0 0 0 .364-.018.479.479 0 0 0 .149-.121c1.795-2.159 1.659-5.027 1.639-5.345v-5.198Z" fill="#0C296E" stroke="#0C296E" stroke-width=".3"/>
  <g clip-path="url(#illustration_passport_initialization_function_addpasskey__b)" fill="#0C296E" stroke="#0C296E" stroke-width=".4">
    <path d="M66.485 160.854h3.735a.414.414 0 1 1 0 .83h-3.735a.83.83 0 0 0-.83.831v3.737a.415.415 0 0 1-.83 0v-3.737a1.66 1.66 0 0 1 1.66-1.661ZM65.24 171.65a.415.415 0 0 0-.415.416v3.737a1.66 1.66 0 0 0 1.66 1.661h3.735a.415.415 0 0 0 0-.831h-3.735a.83.83 0 0 1-.83-.83v-3.737a.415.415 0 0 0-.415-.416Zm15.769 0a.415.415 0 0 0-.415.416v3.737a.83.83 0 0 1-.83.83h-3.735a.415.415 0 0 0 0 .831h3.735a1.66 1.66 0 0 0 1.66-1.661v-3.737a.415.415 0 0 0-.415-.416Zm0-4.983a.415.415 0 0 0 .415-.415v-3.737a1.66 1.66 0 0 0-1.66-1.661h-3.735a.414.414 0 1 0 0 .83h3.735a.83.83 0 0 1 .83.831v3.737c0 .229.186.415.415.415Zm-7.214-.702a.477.477 0 1 0-.952 0v3.65h-.953a.476.476 0 0 0 0 .953h1.043a.862.862 0 0 0 .862-.862v-3.741Zm-3.911-.046a.431.431 0 1 0-.862 0v1.997a.431.431 0 1 0 .862 0v-1.997Zm7.648 0a.43.43 0 1 0-.862 0v1.997a.431.431 0 1 0 .862 0v-1.997Zm-.858 4.89c.236.049.39.282.316.511a4.062 4.062 0 0 1-7.734-.005c-.074-.23.08-.462.316-.511.236-.049.464.105.545.332a3.19 3.19 0 0 0 6.012.004c.081-.227.31-.38.545-.331Z"/>
  </g>
  <defs>
    <clipPath id="illustration_passport_initialization_function_addpasskey__a">
      <path fill="#fff" transform="translate(194.14 152.391)" d="M0 0h140.07v116.522H0z"/>
    </clipPath>
    <clipPath id="illustration_passport_initialization_function_addpasskey__b">
      <path fill="#fff" transform="translate(64.162 160.078)" d="M0 0h18.096v18.109H0z"/>
    </clipPath>
  </defs>
</svg>
