<svg width="120" height="120" viewBox="0 0 120 120" fill="none" xmlns="http://www.w3.org/2000/svg"><g clip-path="url(#udm47rj7w1na)"><path d="M4.218 81.304v7.507c0-1.658 3.964-3.227 6.92-4.113v-1.386l-.908-6.169c-2.846.588-6.012 2.052-6.012 4.16Z" fill="#fff" fill-opacity=".4"/><path d="M4.222 80.985v8.403c-1.29 11.894 32.01 8.007 37.46 6.904 5.442-1.102 13.395-2.415 21.332-.729.07.001-.07.003 0 .004v-8.51c-10.212-1.412-13.315-.59-21.332.87-8.017 1.461-38.465 5.75-37.46-6.942Zm0-.221v.22c.006-.072-.008-.146 0-.22Z" fill="#4C88FF"/><path d="M25.683 15.126a4 4 0 0 1 4-4h67.669a4 4 0 0 1 4 4v37.493H70.779a4 4 0 0 0-4 4v11.695H35.848L25.683 79.38V15.126Z" fill="#FAC823"/><path d="M18.296 110.76v-8.158c-3.553-.392-9.319-.628-11.764-3.752v8.158c2.451 3.131 8.028 3.339 11.764 3.752Z" fill="#41CCB9"/><path d="M30.082 22.375c1.456 10.501 2.221 19.218 3.088 29.078.152 1.736.308 3.508.47 5.33.61-.879 1.275-1.842 1.962-2.837 1.086-1.571 2.226-3.222 3.285-4.75a831.104 831.104 0 0 1 2.626-3.774c.687-.979 1.183-1.675 1.325-1.84.176-.206.518-.465.897-.654.371-.185.892-.358 1.399-.241.268.061.519.202.72.438.198.231.329.53.403.885.146.698.093 1.7-.215 3.102-.313 1.426-1.443 4.56-2.936 8.41-1.5 3.87-3.385 8.508-5.232 12.97a1470.677 1470.677 0 0 1-7.076 16.793l-.134.311-1.772 12.05a.5.5 0 0 1-.99-.145l1.782-12.115a.505.505 0 0 1 .036-.125l.46.198-.46-.198.16-.37a1089.756 1089.756 0 0 0 2.07-4.86 1433.97 1433.97 0 0 0 5-11.92c1.846-4.461 3.728-9.092 5.224-12.95 1.503-3.877 2.598-6.93 2.891-8.263.298-1.357.316-2.193.213-2.683-.05-.239-.123-.37-.184-.44a.327.327 0 0 0-.185-.114c-.167-.038-.428.013-.729.163a2.158 2.158 0 0 0-.583.408c-.1.118-.557.755-1.266 1.764-.696.994-1.615 2.316-2.622 3.77a3075.686 3075.686 0 0 0-3.287 4.753l-2.745 3.969a.5.5 0 0 1-.909-.24c-.209-2.316-.404-4.544-.595-6.715-.866-9.858-1.63-18.546-3.082-29.02v-.005l-.002-.014-.004-.028-.005-.032a14.129 14.129 0 0 0-.222-1.075c-.172-.695-.45-1.6-.87-2.458-.424-.865-.975-1.645-1.675-2.139-.599-.421-1.327-.649-2.24-.51.038 6.16.264 11.144.51 16.012l.09 1.758c.226 4.379.451 8.771.554 13.946a.5.5 0 1 1-1 .02c-.102-5.158-.327-9.535-.552-13.914l-.09-1.76c-.244-4.807-.468-9.738-.51-15.807-.587.198-1.072.45-1.481.766-.543.419-.977.97-1.335 1.713-.728 1.512-1.122 3.766-1.473 7.185l-1.604 23.713v.007a.5.5 0 0 1-.999-.06l.5.026c-.5-.026-.5-.028-.5-.028l.016-.293.046-.833a1264.719 1264.719 0 0 1 .738-12.173c.224-3.381.472-6.822.712-9.532.12-1.354.238-2.53.351-3.427.056-.448.112-.831.166-1.134.041-.228.086-.438.139-.6-.052-1.045-.276-1.734-.545-2.128-.262-.384-.536-.463-.783-.415-.295.058-.701.326-1.105.948-.396.61-.753 1.51-.97 2.703-1.675 9.219-2.828 17.18-3.673 28.129a.5.5 0 1 1-.997-.077c.062-.806.126-1.595.192-2.37a.498.498 0 0 1-.155-.279l-2.9-15.814c-.285-1.106-.583-1.695-.863-1.959a.546.546 0 0 0-.34-.168c-.114-.01-.27.017-.487.118-.376.235-.604.74-.703 1.468-.097.718-.049 1.506-.01 2.114l.001.015c.109 3.142 1.59 14.047 3.14 25.007.442 3.118.888 6.238 1.308 9.179 1.053 7.367 1.946 13.61 2.194 15.88a.504.504 0 0 1-.003.134l-3.72 23.326a.5.5 0 1 1-.987-.157l3.709-23.26c-.256-2.307-1.137-8.468-2.178-15.75-.422-2.947-.87-6.078-1.313-9.212C5.62 48.357 4.127 37.385 4.014 34.164c-.038-.594-.095-1.477.017-2.306.11-.81.401-1.728 1.2-2.203a.509.509 0 0 1 .039-.021c.327-.158.672-.252 1.022-.224.36.029.678.184.947.438.505.477.859 1.322 1.15 2.454a.499.499 0 0 1 .007.035l2.375 12.952c.792-8.221 1.818-14.953 3.193-22.522.234-1.289.63-2.321 1.115-3.07.478-.736 1.083-1.253 1.752-1.384.718-.14 1.363.189 1.802.833.104.154.198.326.281.516.134-.4.28-.77.445-1.11.414-.86.939-1.542 1.623-2.07.683-.527 1.498-.883 2.468-1.124 1.382-.345 2.526-.056 3.439.587.892.629 1.535 1.575 1.996 2.515.464.946.762 1.923.944 2.659a15.117 15.117 0 0 1 .25 1.23l.002.02v.005h.001Z" fill="#E0E0E0"/><path d="M25.683 16.418v-1.056c.44.126.841.327 1.206.584.892.628 1.535 1.575 1.996 2.515.464.945.762 1.923.944 2.658a15.117 15.117 0 0 1 .25 1.23l.002.02.001.006c1.456 10.502 2.221 19.218 3.088 29.079.152 1.736.308 3.507.47 5.33.608-.877 1.271-1.837 1.956-2.83l.006-.007c1.086-1.572 2.226-3.222 3.285-4.75a836.073 836.073 0 0 1 2.626-3.774c.687-.98 1.183-1.676 1.325-1.841.176-.206.518-.465.897-.653.371-.185.892-.359 1.399-.242.268.062.519.202.72.439.198.23.329.53.403.885.146.697.093 1.699-.215 3.102-.313 1.425-1.443 4.56-2.936 8.41-1.48 3.817-3.335 8.384-5.158 12.792h-1.083l.085-.204c1.846-4.46 3.728-9.09 5.224-12.95 1.503-3.876 2.598-6.929 2.891-8.263.298-1.357.316-2.193.213-2.682-.05-.239-.123-.37-.184-.44a.327.327 0 0 0-.185-.114c-.167-.039-.428.012-.729.162a2.152 2.152 0 0 0-.583.409c-.1.117-.557.754-1.266 1.764-.696.993-1.615 2.315-2.622 3.769-1.04 1.5-2.188 3.163-3.282 4.745l-.005.009c-1.005 1.454-1.963 2.84-2.745 3.968a.5.5 0 0 1-.909-.24c-.209-2.314-.404-4.54-.595-6.71v-.004c-.866-9.858-1.63-18.547-3.082-29.021v-.005l-.002-.014-.004-.027-.005-.033a14.112 14.112 0 0 0-.222-1.075 12.654 12.654 0 0 0-.87-2.458c-.424-.864-.975-1.645-1.675-2.138a3.09 3.09 0 0 0-.63-.345Zm24.514 10.175a.5.5 0 0 1 .5-.5h38.695a.5.5 0 1 1 0 1H50.697a.5.5 0 0 1-.5-.5Zm16.295 10a.5.5 0 0 1 .5-.5h22.4a.5.5 0 1 1 0 1h-22.4a.5.5 0 0 1-.5-.5Z" fill="#5F5F5F"/><path d="M116.061 56.622a4 4 0 0 0-4-4h-10.708v11.696a4 4 0 0 1-4 4H66.781v12.328a4 4 0 0 0 4 4h38.67l6.61 6.27V56.621Z" fill="#41CCB9"/><path d="M31.311 109.716v-6.093c6.559.704 13.796.031 20.848-.624l1.214-.113c7.584-.7 14.886-1.285 21.134-.174v5.641c-6.696-1.016-14.012-.3-21.295.469l-.84.089c-7.18.76-14.326 1.516-21.06.805Zm0-7.099a40.153 40.153 0 0 1-1-.122v8.112c7.107.893 14.666.092 22.121-.697 7.67-.812 15.23-1.613 22.075-.546.335.052.668.109 1 .171v-7.65c-6.919-1.416-15.12-.655-23.4.114-7.129.662-14.316 1.33-20.796.618Z" fill="#E0E0E0"/></g><defs><clipPath id="udm47rj7w1na"><path fill="#fff" d="M0 0h120v120H0z"/></clipPath></defs></svg>