<svg width="350" height="350" viewBox="0 0 350 350" fill="none" xmlns="http://www.w3.org/2000/svg"><mask id="udwpg3wsvuia" style="mask-type:alpha" maskUnits="userSpaceOnUse" x="34" y="142" width="141" height="187"><path d="M34.246 142.323H174.86v186.636H34.246V142.323Z" fill="#C4C4C4"/></mask><g mask="url(#udwpg3wsvuia)"><path d="M167.996 196.009c1.23-2.697 2.193-4.845 2.888-4.899-.912 4.109-8.967 28.166-8.773 30.911l-8.779 51.682c-2.079 15.241-15.078 17.121-21.693 10.542-6.608-6.576-15.493-21.705-15.493-21.705l-3.18-4.262 15.828-9.347 10.463 17.724 13.519-45.598s.828-5.3.816-7.221c0-.483-5.07-8.63-5.07-8.63s-1.29-8.296-1.916-11.743c2.527.62 4.806 7.616 5.9 8.725 0 0 2.627-8.573 4.361-14.03 1.26-3.955 2.127-6.736 3.991-7.584 1.658-.757 3.865-.631 5.042.756.725.858.943 2.018 1.135 3.123.539 3.091.857 8.433.961 11.556Z" fill="#EBEBEB"/><path d="M166.253 181.031c-1.357-1.599-3.815-1.687-5.587-.878-1.085.493-1.828 1.526-2.449 2.851-.607 1.294-1.136 2.956-1.741 4.857l-.05.156a1347.92 1347.92 0 0 0-2.832 9.065c-.437 1.413-.819 2.656-1.093 3.545l-.152.494a24.83 24.83 0 0 1-.456-.882c-.132-.267-.272-.557-.42-.86a73.097 73.097 0 0 0-.969-1.95c-.515-.99-1.086-1.986-1.697-2.78-.598-.775-1.297-1.441-2.091-1.636a.464.464 0 0 0-.566.532c.312 1.718.791 4.649 1.192 7.155a1016.305 1016.305 0 0 1 .666 4.214l.056.361.001.002.457-.071-.393.245.217.35.574.928c.475.771 1.108 1.803 1.741 2.85a153.876 153.876 0 0 1 1.737 2.934c.236.414.43.765.564 1.025.068.131.117.233.148.304l.019.048c-.002.935-.197 2.672-.4 4.216-.102.78-.205 1.5-.282 2.025l-.093.624-.027.171-.004.029-13.208 44.548-9.922-16.807a.463.463 0 0 0-.634-.164l-15.829 9.347a.462.462 0 0 0-.135.675l3.165 4.242.013.022.076.129.295.493a214.96 214.96 0 0 0 4.884 7.741c3.048 4.605 6.944 10.067 10.285 13.392 3.428 3.41 8.518 4.635 13.03 3.019 4.531-1.622 8.388-6.071 9.447-13.818l8.777-51.676a.45.45 0 0 0 .006-.11c-.009-.119.005-.332.052-.654.047-.313.121-.703.222-1.162.201-.917.501-2.089.871-3.439.74-2.698 1.756-6.086 2.807-9.521.544-1.774 1.097-3.564 1.628-5.278 1.516-4.901 2.841-9.184 3.183-10.724a.46.46 0 0 0-.488-.562 1.013 1.013 0 0 0-.51.202 2.177 2.177 0 0 0-.383.374c-.235.285-.476.674-.721 1.122a31.782 31.782 0 0 0-.854 1.719c-.151-3.099-.444-7.142-.888-9.691-.189-1.084-.42-2.375-1.239-3.343Zm-50.107 81.508.399-.234a.383.383 0 0 0-.028-.042l-2.872-3.849 14.986-8.849 10.227 17.324a.463.463 0 0 0 .843-.103l13.519-45.598.007-.028a.18.18 0 0 0 .006-.032l.01-.061.026-.172.094-.629c.078-.528.181-1.253.284-2.039.205-1.557.414-3.395.408-4.393l-.463.002h.463v-.002a.668.668 0 0 0-.037-.208 1.752 1.752 0 0 0-.058-.149 5.8 5.8 0 0 0-.174-.362 29.146 29.146 0 0 0-.584-1.061 147.464 147.464 0 0 0-1.749-2.953 406.835 406.835 0 0 0-2.319-3.787l-.169-.272-.042-.27-.155-.988c-.13-.832-.311-1.977-.512-3.23a505.734 505.734 0 0 0-1.029-6.242c.269.219.552.521.846.902.561.728 1.102 1.666 1.61 2.641.338.65.653 1.301.948 1.909.149.308.293.605.432.885.205.413.399.79.578 1.101.174.303.354.579.536.762a.464.464 0 0 0 .772-.189l-.443-.135.443.135.116-.378.322-1.046c.273-.889.655-2.131 1.092-3.543a1332 1332 0 0 1 2.829-9.058m0 0 .036-.111c.618-1.939 1.131-3.551 1.712-4.79.593-1.266 1.215-2.047 1.994-2.402 1.543-.704 3.5-.54 4.497.634.63.746.836 1.777 1.032 2.903.532 3.057.85 8.371.955 11.492a.464.464 0 0 0 .884.177l.08-.175c.505-1.109.958-2.102 1.362-2.884-.594 2.06-1.535 5.101-2.574 8.457-.534 1.728-1.094 3.539-1.646 5.342-1.052 3.436-2.071 6.834-2.815 9.547a72.726 72.726 0 0 0-.883 3.485c-.103.47-.182.883-.233 1.225a4.602 4.602 0 0 0-.063.795l-8.77 51.633-.003.014c-1.021 7.488-4.703 11.598-8.843 13.081-4.161 1.49-8.878.365-12.064-2.804-3.268-3.252-7.118-8.642-10.165-13.246a213.494 213.494 0 0 1-5.155-8.196l-.075-.127-.026-.043-.399.234m32.376-57.333-.393.245a.458.458 0 0 1-.064-.174l.457-.071Z" fill="#2851A3"/><path d="M161.584 180.15a.464.464 0 0 0-.561.339c-.407 1.648-1.053 4.252-1.667 6.731l-1.238 4.991a.464.464 0 0 0 .899.223l1.237-4.989c.615-2.48 1.262-5.086 1.669-6.734a.465.465 0 0 0-.339-.561Zm3.244 1.211a.463.463 0 0 0-.508.414c-.169 1.669-.542 3.754-.939 5.857l-.217 1.143c-.325 1.706-.642 3.371-.846 4.755a.462.462 0 1 0 .916.136c.201-1.363.514-3.004.838-4.709l.219-1.153c.396-2.099.777-4.221.951-5.936a.464.464 0 0 0-.414-.507Zm-8.179 11.857c-.063.248.087.5.335.563 2.25.574 4.517 1.096 6.798 1.563a.462.462 0 1 0 .185-.907 145.863 145.863 0 0 1-6.755-1.553.463.463 0 0 0-.563.334Zm-4.614 8.281a.464.464 0 0 0-.014.655c1.311 1.367 2.421 2.682 3.143 3.975a.463.463 0 1 0 .809-.451c-.781-1.398-1.958-2.782-3.283-4.164a.464.464 0 0 0-.655-.015Zm16.161-5.914a.461.461 0 0 0-.614.225l-1.022 2.204c-.319.672-.709 1.302-1.195 1.833-1.453 1.579-3.015 3.062-4.586 4.55a.463.463 0 1 0 .637.672c1.569-1.485 3.153-2.989 4.632-4.595l.001-.001c.564-.618 1.002-1.332 1.349-2.064l.002-.004 1.022-2.206a.461.461 0 0 0-.226-.614ZM45.15 244.839c16.134-.292 32.267-.588 48.4-.881 7.435-.135 26.191-.511 36.388-.511 1.192-3.506-7.44-10.459-8.855-13.262-2.121-4.2-1.752-5.348-2.147-9.98-.549-6.459-4.806-10.166-8.258-15.312-3.208-4.782-4.55-11.011-5.238-16.673-.194-1.597-.53-3.177-1.061-4.694-1.21-3.458-3.313-6.689-6.85-9.124-7.092-4.711-16.217-3.743-22.537.377-5.391 3.516-7.736 8.089-8.778 14.271-1.1 6.521-6.58 10.29-8.398 16.424-1.163 3.933-.164 8.25-1.272 12.198-1.24 4.405-4.876 7.651-7.407 11.467-1.693 2.552-2.955 6.01-2.29 9.099.747 3.472 3.077 4.942-1.696 6.601Z" fill="#2851A3"/><path d="M74.739 174.391c-5.524 3.604-7.923 8.306-8.982 14.582-.531 3.151-2.12 5.649-3.855 8.172l-.447.649c-1.589 2.297-3.229 4.668-4.082 7.549-.603 2.037-.642 4.162-.676 6.217l-.001.051c-.034 2.058-.067 4.045-.598 5.936-.596 2.119-1.774 3.977-3.144 5.802-.481.642-.993 1.286-1.509 1.937-.93 1.172-1.875 2.364-2.693 3.598-1.727 2.6-3.06 6.189-2.357 9.451.192.892.483 1.654.728 2.296l.013.035c.256.672.438 1.165.471 1.589.03.375-.058.684-.394 1.008-.367.354-1.038.73-2.214 1.139a.464.464 0 0 0 .16.901l24.2-.441h.013a195079.503 195079.503 0 0 1 27.35-.499c8.69-.162 24.258-.453 33.216-.453a.463.463 0 0 0 .438-.314c.366-1.076-.041-2.324-.716-3.532-.687-1.231-1.724-2.545-2.822-3.814-.709-.82-1.457-1.636-2.163-2.405-.384-.419-.755-.824-1.099-1.208-1-1.111-1.759-2.025-2.08-2.661-1.046-2.071-1.464-3.362-1.677-4.692-.134-.838-.186-1.679-.253-2.747-.042-.679-.09-1.45-.169-2.371-.283-3.332-1.525-5.947-3.114-8.363-.793-1.205-1.676-2.365-2.567-3.535l-.032-.041c-.884-1.161-1.778-2.334-2.622-3.592-3.144-4.687-4.477-10.825-5.162-16.47-.197-1.625-.541-3.238-1.084-4.791-1.237-3.535-3.394-6.854-7.025-9.353l-.006-.004c-7.273-4.833-16.601-3.827-23.046.374Zm.506.776c-5.258 3.43-7.548 7.874-8.575 13.96-.569 3.371-2.269 6.017-4.004 8.543l-.44.637c-1.6 2.316-3.156 4.567-3.965 7.298m62.409 24.789c-1.075-2.129-1.533-3.512-1.765-4.964-.14-.876-.198-1.791-.267-2.901-.043-.677-.09-1.426-.163-2.284-.266-3.127-1.427-5.595-2.966-7.933-.772-1.174-1.635-2.309-2.53-3.483l-.038-.05c-.88-1.155-1.788-2.346-2.648-3.628-3.271-4.876-4.623-11.196-5.313-16.875-.19-1.57-.52-3.116-1.038-4.597-1.183-3.38-3.232-6.523-6.672-8.893-6.91-4.588-15.831-3.657-22.025.381M58.26 205.605c-.56 1.897-.603 3.896-.637 5.97l-.002.106c-.034 2.019-.068 4.11-.632 6.117-.643 2.285-1.903 4.253-3.294 6.107a94.857 94.857 0 0 1-1.564 2.007c-.91 1.146-1.808 2.278-2.608 3.484-1.66 2.502-2.85 5.83-2.223 8.745.177.821.447 1.527.695 2.177l.015.041c.238.624.475 1.246.52 1.824.05.634-.127 1.22-.674 1.747-.146.14-.317.276-.514.407l21.985-.4.185-.004 24.03-.437 3.162-.059c8.571-.16 23.848-.445 32.867-.453m-82.23 1.353-2.199.04.009.463.152.437c.867-.302 1.538-.608 2.039-.94Zm82.23-1.353h.367v.463l-.439-.149a1.58 1.58 0 0 0 .072-.314Zm-55.557 56.713 37.521-.166c3.48 7.122 8.948 20.83 11.657 29.433h-65.17c.078-.312.157-.611.24-.899 3.29-13.337 6.655-16.601 15.752-28.368Z" fill="#2851A3"/><path d="M78.815 221.389c1.066-.913 3.012-2.891 3.012-12.628l17.902-11.664c-.322 14.64-1.303 21.824 1.878 24.309.727.558 2.693 1.556 5.33 1.572l.778 3.449-2.809 11.75-22.115-4.718-4.382-7.37-1.709-4.108 2.115-.592Z" fill="#EBEBEB"/><path d="M99.954 196.692a.463.463 0 0 0-.478.017l-17.902 11.664a.463.463 0 0 0-.21.388c0 4.844-.485 7.716-1.082 9.474-.557 1.643-1.213 2.318-1.691 2.736l-2.015.564a.46.46 0 0 0-.303.623l1.709 4.108c.008.02.018.04.03.059l4.382 7.37c.066.111.175.19.3.217l22.116 4.718a.464.464 0 0 0 .547-.345l2.808-11.751a.465.465 0 0 0 .002-.21l-.779-3.448a.462.462 0 0 0-.448-.361c-2.528-.015-4.396-.975-5.05-1.475-.692-.542-1.185-1.357-1.518-2.547-.335-1.197-.5-2.741-.555-4.697-.07-2.467.032-5.525.158-9.283.074-2.218.157-4.679.217-7.406a.465.465 0 0 0-.238-.415Zm-.708 1.272a679.535 679.535 0 0 1-.195 6.472c-.127 3.786-.23 6.893-.16 9.386.057 1.981.224 3.614.59 4.921.367 1.312.944 2.327 1.841 3.028l.003.002c.767.588 2.682 1.558 5.24 1.659l.675 2.991-2.679 11.207-21.475-4.582-4.262-7.168-1.495-3.595 1.611-.45a.46.46 0 0 0 .176-.095c.584-.499 1.392-1.289 2.043-3.207.632-1.861 1.114-4.776 1.13-9.521l16.957-11.048Z" fill="#2851A3"/><path d="M62.363 227.726c6.379-2.624 5.343-2.088 13.996-6.946l.204.018c1.294 1.497 8.56 9.44 17.066 11.306 7.803 1.718 11.427-.61 12.481-5.468.499-2.309.333-3.658.037-4.175 3.994 1.422 11.907 3.251 15.901 6.17 6.231 4.563 14.94 24.236 14.94 24.236l-14.94 11.084-1.035-4.729-9.467 40.519-38.108.166-12.684-45.23" fill="#41CCB9"/><path d="M85.66 248.279a3.708 3.708 0 0 0-5.062-1.356l-28.54 16.462a3.7 3.7 0 0 0-1.355 5.057l22.53 38.987a3.708 3.708 0 0 0 5.062 1.357l28.539-16.462a3.7 3.7 0 0 0 1.355-5.058l-22.53-38.987Z" fill="#4C88FF"/><path d="M126.948 260.626c1.701-.794 3.143-2.457 2.847-3.473-.185-.498-.924-.388-1.368-.129-4.271 2.346-11.944 5.523-16.456 7.352" fill="#EBEBEB"/><path d="M129.356 257.303c.03.123.02.303-.073.543a3.074 3.074 0 0 1-.518.83 6.058 6.058 0 0 1-2.013 1.531.462.462 0 0 0 .392.839 6.98 6.98 0 0 0 2.332-1.776c.29-.348.527-.719.67-1.09.143-.368.206-.772.094-1.156l-.01-.031c-.187-.503-.654-.648-1.018-.651a2.076 2.076 0 0 0-1.012.279c-4.244 2.33-11.886 5.495-16.403 7.326a.463.463 0 1 0 .348.858c4.505-1.826 12.205-5.013 16.505-7.375l.01-.006c.163-.095.378-.158.544-.156a.326.326 0 0 1 .141.025.027.027 0 0 1 .011.01Z" fill="#2851A3"/><path d="m63.195 263.324-3.79 24.237s30.915-12.599 41.62-18.769c7.027-4.045 17.658-6.576 26.404-7.998 5.732-.943 1.479 10.769-1.516 12.543-2.737 1.607-6.083 1.718-9.245 1.81-2.478.055-6.86-.259-9.338-.185-3.698.13-25.663 19.12-41.639 27.192-7.821 3.935-18.786 7.057-21.263-.24-2.237-6.576-.333-38.368-.333-38.368l19.1-.222Z" fill="#EBEBEB"/><path d="M129.355 260.583c-.543-.297-1.215-.376-2.001-.247-8.753 1.424-19.456 3.965-26.56 8.055-5.325 3.069-15.705 7.751-24.777 11.674a986.32 986.32 0 0 1-16.028 6.756l3.663-23.426a.462.462 0 0 0-.462-.534l-19.1.222a.462.462 0 0 0-.457.435l.462.028-.462-.028v.001l-.006.091-.015.268-.057 1.021c-.048.884-.113 2.152-.185 3.695a493.797 493.797 0 0 0-.41 11.659c-.099 4.389-.127 8.989.01 12.907.135 3.894.434 7.183 1.02 8.903.66 1.946 1.901 3.218 3.516 3.942 1.598.717 3.533.886 5.59.702 4.114-.368 8.87-2.161 12.803-4.14 8.027-4.056 17.543-10.845 25.488-16.613l1.909-1.388c3.216-2.339 6.113-4.446 8.475-6.053 1.411-.96 2.621-1.735 3.588-2.272.484-.269.899-.473 1.243-.612.351-.141.593-.199.744-.204 1.22-.037 2.917.022 4.636.085l.163.006c1.656.06 3.317.121 4.533.093h.003c3.138-.091 6.61-.196 9.466-1.874h.002c.862-.511 1.739-1.672 2.476-3.017a19.002 19.002 0 0 0 1.769-4.565c.366-1.539.481-3.08.073-4.205-.21-.577-.566-1.066-1.112-1.365Zm-84.823 3.421 18.121-.211-3.706 23.696a.461.461 0 0 0 .632.5l-.174-.429.174.429.35-.143 1.001-.411a987.542 987.542 0 0 0 15.454-6.52c9.062-3.919 19.492-8.621 24.872-11.722 6.949-4.001 17.509-6.522 26.247-7.943.648-.106 1.097-.025 1.407.145.306.168.535.453.686.869.313.862.252 2.182-.103 3.675a18.045 18.045 0 0 1-1.68 4.334c-.723 1.32-1.501 2.288-2.136 2.664-2.616 1.536-5.836 1.654-9.021 1.747-1.188.026-2.826-.033-4.496-.094l-.144-.005c-1.71-.063-3.442-.124-4.699-.086h-.003c-.312.011-.674.117-1.058.271-.392.158-.844.383-1.346.661-1.004.558-2.242 1.351-3.66 2.316-2.375 1.616-5.287 3.734-8.502 6.073l-1.905 1.384c-7.957 5.777-17.412 12.52-25.36 16.536-3.889 1.957-8.525 3.692-12.469 4.044-1.97.177-3.73.004-5.129-.624-1.382-.619-2.441-1.694-3.019-3.395-.533-1.569-.835-4.72-.971-8.637-.136-3.892-.108-8.473-.01-12.854a493.396 493.396 0 0 1 .647-16.27Z" fill="#2851A3"/><path d="M129.699 264.674a.464.464 0 0 0-.53-.386c-.348.055-.696.106-1.048.157h-.002c-.35.05-.704.102-1.058.158a.462.462 0 1 0 .144.914c.348-.054.697-.105 1.048-.156h.002c.35-.051.704-.102 1.059-.158a.463.463 0 0 0 .385-.529Zm-5.059 3.72a.463.463 0 0 0 .394.523c.977.136 2.072.096 3.148.022a.463.463 0 0 0-.064-.924c-1.07.073-2.082.107-2.955-.015a.462.462 0 0 0-.523.394Zm-64.815 18.973a.462.462 0 0 0-.613-.228l-7.415 3.399a.463.463 0 1 0 .386.842l7.414-3.399a.464.464 0 0 0 .228-.614Z" fill="#2851A3"/><path d="m64.859 254.068-1.646 12.1-20.154-.887s0-15.333 2.052-23.11c.87-2.807 2.312-8.922 17.252-14.427" fill="#41CCB9"/><path d="M64.921 253.609a.463.463 0 0 0-.521.397l-1.646 12.099a.464.464 0 0 0 .918.125l1.645-12.1a.463.463 0 0 0-.396-.521Zm13.616-79.814a5.594 5.594 0 0 0 5.596-5.593 5.594 5.594 0 0 0-5.596-5.593 5.594 5.594 0 0 0-5.596 5.593 5.594 5.594 0 0 0 5.596 5.593Z" fill="#2851A3"/><path d="M78.537 163.072a5.131 5.131 0 0 0-5.133 5.13 5.131 5.131 0 0 0 5.133 5.13 5.131 5.131 0 0 0 5.133-5.13 5.131 5.131 0 0 0-5.133-5.13Zm-6.059 5.13a6.058 6.058 0 0 1 6.06-6.056 6.058 6.058 0 0 1 6.058 6.056 6.057 6.057 0 0 1-6.059 6.056 6.057 6.057 0 0 1-6.059-6.056Z" fill="#2851A3"/><path d="M89.284 175.494h-.035c-8.864 0-16.053 6.918-16.053 15.454 0 8.536 2.06 10.38 6.24 10.38.008 0 9.824 5.074 9.827 5.074h.017c16.054 0 15.977-6.181 15.977-14.718.007-8.536-7.106-16.19-15.973-16.19Z" fill="#EBEBEB"/><path d="M72.733 190.948c0-8.808 7.413-15.917 16.516-15.917h.034c9.137 0 16.444 7.876 16.437 16.654v.138c0 2.074 0 4.047-.243 5.825-.25 1.824-.76 3.484-1.82 4.877-2.129 2.798-6.327 4.34-14.377 4.34h-.017a1.011 1.011 0 0 1-.199-.044l-.007-.004-.005-.002-.007-.004-.022-.011-4.885-2.523-3.376-1.744-1.114-.575-.312-.161-.012-.006.112.001a.995.995 0 0 1-.185-.039l-.012-.006-.004-.002.02.01.07.036c-2.105-.017-3.816-.508-4.96-2.191-1.122-1.654-1.632-4.376-1.632-8.652Zm16.516-14.991c-8.625 0-15.59 6.727-15.59 14.991 0 4.261.52 6.729 1.473 8.131.911 1.343 2.28 1.787 4.304 1.787a.95.95 0 0 1 .186.038l.013.006.009.004.009.005.023.012.084.043.313.161 1.114.575 3.377 1.744 4.81 2.485c7.94-.012 11.707-1.558 13.546-3.975.928-1.219 1.402-2.705 1.639-4.441.235-1.715.235-3.633.235-5.737v-.101c.007-8.295-6.912-15.728-15.51-15.728h-.035Z" fill="#2851A3"/><path d="M105.143 189.548c.723 5.178.949 11.234-.212 15.947-1.366 5.536-5.288 9.186-11.181 9.797-3.468.358-7.047-.948-9.643-3.24-2.596-2.292-4.537-7.123-5.518-10.721" fill="#EBEBEB"/><path d="M105.079 189.089a.465.465 0 0 1 .523.395c.725 5.2.96 11.325-.221 16.122-1.411 5.717-5.488 9.514-11.584 10.147-3.61.372-7.314-.986-9.996-3.354-1.366-1.206-2.533-3.052-3.476-5.018-.946-1.974-1.686-4.108-2.182-5.928a.462.462 0 1 1 .893-.244c.485 1.778 1.206 3.858 2.124 5.772.922 1.922 2.024 3.638 3.254 4.724 2.51 2.216 5.962 3.469 9.288 3.126 5.69-.59 9.459-4.092 10.78-9.447 1.139-4.628.922-10.616.203-15.772a.463.463 0 0 1 .394-.523Z" fill="#2851A3"/><path d="M99.504 193.675a.463.463 0 0 1 .576.311l1.98 6.618h.001a.811.811 0 0 1-.939 1.028h-.003l-1.414-.295a.464.464 0 0 1 .19-.907l1.223.256-1.925-6.435a.463.463 0 0 1 .31-.576Zm-21.859 1.943c.205-4.258 23.883.007 23.883-15.905 0 0-6.547-11.642-22.987-4.591-7.823 3.352-9.473 14.476-8.65 20.507.34 2.493 1.89 2.658 4.73 2.585.943-.026 1.788-2.596 3.024-2.596Z" fill="#2851A3"/><path d="m101.931 179.486-.403.227.403-.227c.039.07.06.148.06.227 0 4.112-1.538 6.958-3.865 8.951-2.305 1.975-5.356 3.088-8.353 3.822-1.913.468-3.86.792-5.589 1.079-.958.16-1.85.308-2.63.463-1.122.223-2.013.459-2.623.754-.619.299-.81.587-.824.859a.463.463 0 0 1-.462.44c-.142 0-.32.074-.552.283-.23.207-.456.495-.7.82a17.03 17.03 0 0 0-.1.135c-.204.273-.422.566-.64.796-.24.255-.584.55-1.02.561h-.001c-1.397.036-2.603.024-3.499-.368a2.55 2.55 0 0 1-1.147-.96c-.286-.44-.463-.99-.554-1.656-.42-3.081-.209-7.44 1.101-11.464 1.31-4.023 3.745-7.783 7.826-9.531 8.341-3.578 14.238-2.432 18.064-.329a15.728 15.728 0 0 1 4.171 3.329c.449.506.781.948 1.001 1.266.11.159.193.287.249.377l.063.105.017.029.005.008.002.003v.001Zm-.867.354-.007-.011a7.261 7.261 0 0 0-.223-.338 12.645 12.645 0 0 0-.932-1.179 14.819 14.819 0 0 0-3.925-3.133c-3.559-1.956-9.155-3.105-17.254.369-3.742 1.603-6.044 5.081-7.31 8.966-1.264 3.884-1.466 8.102-1.063 11.053.079.58.224.986.412 1.275.184.283.425.479.742.618.674.295 1.663.328 3.104.291.036-.002.152-.039.373-.272.177-.187.357-.429.563-.705l.108-.145c.24-.321.516-.677.821-.953.215-.193.474-.374.776-.463.178-.58.687-.979 1.28-1.265.724-.35 1.716-.603 2.844-.828.838-.167 1.756-.319 2.727-.48 1.7-.282 3.563-.591 5.453-1.054 2.948-.721 5.83-1.791 7.97-3.625 2.097-1.795 3.51-4.346 3.541-8.121Z" fill="#2851A3"/><path d="M79.44 201.329c-1.13-.062-2.902-.434-3.868-1.052-1.184-.757-2.123-2.125-2.335-3.532-.135-.889-.003-4.23 3.204-4.23 1.293 0 3.037 1.657 3.572 2.098" fill="#EBEBEB"/><path d="M74.01 194.483c-.374.848-.373 1.813-.315 2.192v.001c.19 1.266 1.047 2.521 2.127 3.211.422.27 1.05.503 1.736.676.679.171 1.375.274 1.907.304a.463.463 0 0 1-.051.925 11.487 11.487 0 0 1-2.083-.332c-.724-.183-1.464-.445-2.008-.793-1.29-.824-2.31-2.306-2.544-3.853-.077-.51-.077-1.659.383-2.704.234-.531.594-1.05 1.138-1.437.549-.388 1.254-.621 2.14-.621.417 0 .837.132 1.222.308.389.178.77.416 1.116.66.527.373 1.008.788 1.311 1.049l.218.187a.462.462 0 1 1-.589.714 17.15 17.15 0 0 1-.264-.225 15.685 15.685 0 0 0-1.21-.968 6.242 6.242 0 0 0-.968-.575c-.323-.148-.605-.224-.835-.224-.717 0-1.23.185-1.605.451-.378.268-.644.639-.827 1.054Z" fill="#2851A3"/></g><path d="M184.891 215.871c-4.742 0-8.587-3.851-8.587-8.602v-80.05c0-4.75 3.823-8.601 8.566-8.601h136.359c4.742 0 8.565 3.851 8.565 8.601v14.799h-24.248c-9.035 0-16.358 7.338-16.358 16.392v12.091a4.297 4.297 0 0 0 4.293 4.301h36.313v32.467c0 4.751-3.844 8.602-8.587 8.602h-5.582l-27.814 26.397v-26.397h-102.92Z" fill="#373737"/><path d="M184.869 119.155c-4.444 0-8.028 3.609-8.028 8.064v80.05c0 4.454 3.604 8.065 8.05 8.065h102.92c.297 0 .537.24.537.537v25.147l26.907-25.537a.535.535 0 0 1 .369-.147h5.583c4.446 0 8.05-3.611 8.05-8.065v-31.734a.538.538 0 1 1 1.074 0v31.734c0 5.048-4.085 9.14-9.124 9.14h-5.369l-27.658 26.249a.535.535 0 0 1-.906-.39v-25.859H184.891c-5.039 0-9.124-4.092-9.124-9.14v-80.05c0-5.045 4.062-9.139 9.102-9.139h136.36c5.04 0 9.102 4.094 9.102 9.139V141.1a.537.537 0 1 1-1.074 0v-13.881c0-4.455-3.584-8.064-8.028-8.064h-136.36Z" fill="#E0E0E0"/><g clip-path="url(#ud8ubmvfidlb)"><path d="M158.276 134.509c3.895 7.663 2.298 11.51 9.757 18.029 0 0 21.053 26.817 31.951 42.102 4.351 6.101 11.91 5.887 18.207.831l20.513-16.368-14.632-11.18-15.034 16.27c-6.668-6.765-29.806-29.713-34.897-35.735-.727-2.582-.641-5.309-.96-7.968-.782-6.452-4.125-10.743-7.586-16.262l-.065 1.303c-.538-.852-1.077-1.705-1.726-2.474-.898-1.068-2.035-1.991-3.513-2.113-1.892-.169-1.736.433-1.422 1.544 2.495 5.184 3.669 8.493 4.935 12.887l.447 5.698c-2.216-3.809-4.279-6.488-5.975-6.564Z" fill="#EBEBEB"/><path d="M208.274 200.092a12.453 12.453 0 0 1-1.568-.108 11.005 11.005 0 0 1-7.513-4.72c-10.734-15.107-31.718-41.815-31.932-42.084-4.949-4.301-5.99-7.602-7.192-11.397a41.78 41.78 0 0 0-2.619-6.72.54.54 0 0 1 .232-.727.537.537 0 0 1 .273-.058c1.47.064 3.112 1.602 5.238 4.903l-.269-3.398a73.174 73.174 0 0 0-4.905-12.752c-.225-.764-.408-1.409 0-1.892.408-.484.891-.517 1.953-.42a5.713 5.713 0 0 1 3.886 2.301c.333.398.633.807.923 1.226a.513.513 0 0 1 .311-.226.526.526 0 0 1 .591.226c.504.806 1.009 1.58 1.492 2.333 2.951 4.57 5.495 8.516 6.182 14.15.097.903.161 1.796.226 2.699.062 1.714.292 3.417.687 5.086 4.035 4.741 18.569 19.354 28.207 29.031a1276.66 1276.66 0 0 1 6.183 6.225l14.651-15.859a.544.544 0 0 1 .73-.065l14.63 11.182a.535.535 0 0 1 .204.42.527.527 0 0 1-.193.43L218.127 196.2a16.087 16.087 0 0 1-9.853 3.892Zm-49.289-64.288a45.513 45.513 0 0 1 2.147 5.645c1.213 3.807 2.146 6.807 6.944 10.989.279.344 21.253 27.074 32.04 42.192a9.934 9.934 0 0 0 6.784 4.301c3.424.473 7.202-.796 10.647-3.559l19.9-15.946-13.696-10.472-14.705 15.913a.508.508 0 0 1-.386.172.567.567 0 0 1-.386-.161c-1.492-1.517-3.822-3.85-6.58-6.613-9.66-9.742-24.387-24.461-28.348-29.149a.742.742 0 0 1-.107-.205 27.453 27.453 0 0 1-.751-5.376 43.738 43.738 0 0 0-.226-2.645c-.59-4.913-2.715-8.548-5.259-12.537a352.676 352.676 0 0 0 3.048 5.613.528.528 0 0 1-.053.596.547.547 0 0 1-.891-.069c-1.235-2.247-4.047-7.387-4.444-8.376a20.197 20.197 0 0 0-1.653-2.376 4.695 4.695 0 0 0-3.145-1.925c-.869-.075-1.073.054-1.073.054.039.274.104.544.193.806a73.214 73.214 0 0 1 4.927 12.903.32.32 0 0 1 0 .107l.45 5.699a.538.538 0 0 1-.728.541.536.536 0 0 1-.27-.229c-1.717-3.108-3.198-5.065-4.379-5.893Zm8.061-1.236a.542.542 0 0 1-.483-.301c-3.403-6.871-4.648-8.806-6.687-11.118a.52.52 0 0 1-.158-.376.527.527 0 0 1 .158-.377.514.514 0 0 1 .751 0c2.147 2.387 3.392 4.366 6.848 11.355a.55.55 0 0 1-.247.72.625.625 0 0 1-.182.097Z" fill="#2851A3"/><path d="M234.59 152.507a.535.535 0 0 1 .874.133l10.006 20.623a.54.54 0 0 1-.105.617l-14.105 14.021a.537.537 0 0 1-.773-.017l-14.1-15.295a.539.539 0 0 1 .004-.734l18.199-19.348Z" fill="#4C88FF"/><path d="m234.107 148.633 17.075-7.805c-1.787-4.605-3.397-10.004-3.397-10.004s3.692-11.877 2.851-12.962c-.842-1.079-13.133-12.362-13.133-12.362l-11.477-.58-3.237 1.224s-3.529 8.228-2.14 12.161l-3.925 6.938 3.661.651s-.99 10.465 4.555 12.09c5.541 1.624 11.108-3.043 11.108-3.043" fill="#EBEBEB"/><path d="M234.215 149.178a.533.533 0 0 0 .215-.054l17.077-7.806a.527.527 0 0 0 .279-.678c-1.588-4.096-3.059-8.892-3.338-9.806 1.417-4.559 3.585-12.171 2.716-13.3-.87-1.129-11.936-11.268-13.192-12.43a.568.568 0 0 0-.332-.139l-11.485-.581a.704.704 0 0 0-.215 0l-3.22 1.226a.572.572 0 0 0-.301.29c-.139.344-3.467 8.161-2.232 12.322l-3.8 6.731a.542.542 0 0 0 0 .495.553.553 0 0 0 .386.301l3.221.559c-.129 2.15-.269 10.623 4.969 12.16 5.753 1.689 11.367-2.946 11.603-3.139a.548.548 0 0 0 .192-.365.55.55 0 0 0-.122-.393.526.526 0 0 0-.573-.17.54.54 0 0 0-.184.1c-.053 0-5.367 4.462-10.605 2.935-5.238-1.527-4.186-11.419-4.175-11.515a.545.545 0 0 0-.44-.581l-2.92-.527 3.553-6.268a.553.553 0 0 0 0-.452c-1.191-3.355 1.514-10.268 2.04-11.559l2.919-1.075 11.163.559c3.521 3.226 12.279 11.322 12.88 12.172.322.806-1.234 6.978-2.941 12.472a.519.519 0 0 0 0 .312c0 .054 1.525 5.107 3.22 9.57l-16.615 7.591a.543.543 0 0 0-.268.709.535.535 0 0 0 .525.334Z" fill="#2851A3"/><path d="M232.979 136.644a.538.538 0 0 0-.478.591l1.074 10.215a.536.536 0 1 0 1.067-.113l-1.073-10.215a.537.537 0 0 0-.59-.478Zm15.883-38.218s15.155 2.3 8.266 20.412c-3.972 10.442-8.84 13.519-8.84 13.519l-4.821-6.96s5.434-6.619.838-9.187c-4.592-2.561-6.297 5.972-5.568 8.641l-3.613-7.615s-6.771-1.87-5.67-9.316c0 0-12.154.548-12.131.08.019-.469 1.625-14.216 12.534-11.936 0 0 .647-5.02 9.008-3.56 8.36 1.463 9.997 5.922 9.997 5.922Z" fill="#2851A3"/><path d="M246.641 96.417c-1.373-1.225-3.778-2.666-7.868-3.382-4.074-.71-6.143.175-7.191 1.106a3.897 3.897 0 0 0-1 1.375 3.246 3.246 0 0 0-.161.47c-.014.055-.022.097-.027.123l-.005.026v.003-.002.002a.54.54 0 0 1-.642.454c-2.609-.545-4.618-.127-6.18.777-1.573.911-2.737 2.343-3.591 3.895-.854 1.55-1.383 3.193-1.7 4.484a20.373 20.373 0 0 0-.366 1.853c.308.026.755.043 1.305.05 1.126.014 2.634-.011 4.151-.05 1.514-.039 3.03-.093 4.168-.137.569-.022 1.043-.042 1.375-.056l.385-.016.135-.006.025.537-.025-.537a.535.535 0 0 1 .556.616c-.521 3.521.81 5.677 2.249 6.971a8.694 8.694 0 0 0 2.782 1.665 5.054 5.054 0 0 0 .24.079l.01.003a.54.54 0 0 1 .342.288l2.482 5.232c.009-.094.019-.189.03-.283.133-1.177.432-2.465.911-3.595.473-1.118 1.151-2.149 2.086-2.715.981-.595 2.156-.625 3.449.096 1.296.724 1.918 1.766 2.078 2.914.155 1.114-.129 2.283-.536 3.31-.411 1.035-.968 1.977-1.417 2.655-.22.331-.415.603-.559.795l4.281 6.181c.099-.08.215-.176.345-.289.497-.433 1.209-1.123 2.046-2.137 1.675-2.027 3.856-5.355 5.822-10.523 1.699-4.466 2.02-7.908 1.587-10.553-.432-2.638-1.619-4.521-3.008-5.868-1.396-1.353-3.004-2.173-4.273-2.655a13.49 13.49 0 0 0-1.56-.488 9.351 9.351 0 0 0-.558-.12l-.027-.004-.005-.001a.538.538 0 0 1-.423-.344l-.001-.003-.01-.025c-.011-.024-.028-.064-.055-.118a4.549 4.549 0 0 0-.268-.47 7.844 7.844 0 0 0-1.384-1.583Zm1.646 35.942.287.454a.536.536 0 0 1-.728-.148l-4.821-6.959a.539.539 0 0 1 .027-.648l.414.341-.414-.341.002-.003.01-.012a.225.225 0 0 1 .017-.021l.024-.031a16.282 16.282 0 0 0 .691-.963c.427-.644.941-1.517 1.314-2.458.377-.949.589-1.915.471-2.765-.114-.815-.536-1.563-1.538-2.123-1.003-.559-1.763-.483-2.371-.115-.654.396-1.217 1.185-1.653 2.215-.431 1.017-.708 2.202-.833 3.296-.126 1.106-.088 2.062.068 2.634a.537.537 0 0 1-1.002.372l-3.514-7.404a8.738 8.738 0 0 1-.884-.364 9.722 9.722 0 0 1-2.337-1.543c-1.578-1.419-3.006-3.729-2.672-7.286a313.709 313.709 0 0 1-5.452.189 120.09 120.09 0 0 1-4.191.05 20.754 20.754 0 0 1-1.413-.056 3.27 3.27 0 0 1-.462-.069.893.893 0 0 1-.236-.089.584.584 0 0 1-.304-.536l.536.027-.536-.021c.006-.166.118-1.151.447-2.491.33-1.347.888-3.087 1.802-4.746.913-1.66 2.198-3.266 3.994-4.306 1.701-.985 3.82-1.438 6.432-.995.035-.106.079-.224.133-.35a4.969 4.969 0 0 1 1.275-1.757c1.365-1.214 3.8-2.109 8.087-1.361 4.269.747 6.863 2.268 8.398 3.638a8.904 8.904 0 0 1 1.571 1.803c.139.214.239.396.308.534a14.498 14.498 0 0 1 2.078.617c1.358.515 3.107 1.402 4.64 2.887 1.538 1.492 2.848 3.58 3.32 6.467.471 2.881.103 6.518-1.643 11.11-2.006 5.273-4.245 8.704-5.998 10.826-.876 1.06-1.629 1.792-2.169 2.262-.27.236-.486.405-.638.518a5.114 5.114 0 0 1-.178.127l-.05.034-.015.009-.004.004-.002.001-.288-.454Zm-30.716-24.805.004.001-.004-.001Z" fill="#2851A3"/><path d="m250.841 189.227-.662-.258a405.881 405.881 0 0 1-6.572-2.643c-5.057-2.087-10.949-4.66-14.165-6.558a.536.536 0 0 1-.263-.486c.138-3.287.138-6.335.138-9.344v-.003c0-.83.001-1.657.003-2.485.014-3.825.09-7.662.52-11.882.544-5.337 2.129-9.033 4.247-11.556 2.118-2.524 4.735-3.833 7.265-4.455 2.524-.62 4.967-.56 6.771-.349.904.106 1.652.251 2.176.369.263.06.469.113.612.151l.164.046.038.011c1.068.234 2.411.857 3.871 1.791 1.478.945 3.105 2.228 4.731 3.806 3.25 3.154 6.516 7.509 8.562 12.741 3.891 9.953 8.256 22.502 11.647 32.559 1.696 5.03 3.149 9.437 4.178 12.588.7 2.143 1.372 4.093 1.634 6.819.219 2.26-.11 5.814-.11 5.814h-13.554c-2.689 0-5.915-.538-5.915-.538-5.104 1.428-11.4-.028-17.206 0-.539.963.703-1.742.701-2.039-.079.423-.325.002-.029 0 .01 0-.307.964.029 0l1.189-24.099Z" fill="#4C88FF"/><path d="M235.251 203.562c-12.88 7.133-17.663 10.964-26.559 15.381 8.896 0 6.872.051 25.504 0 11.269-.031 15.098 0 15.937-8.248.994-9.764 1.128-21.815 1.128-21.815l-18.055-8.029" fill="#EBEBEB"/><path d="M232.815 181.218a.537.537 0 0 1 .608-.86l18.056 8.029a.54.54 0 0 1 .319.498l-.002.139-.006.4a311.755 311.755 0 0 1-.184 6.721c-.158 4.238-.44 9.705-.939 14.603-.213 2.095-.621 3.724-1.326 4.975-.717 1.269-1.722 2.117-3.06 2.673-1.317.548-2.948.809-4.923.941-1.935.129-4.248.135-6.979.143h-.182c-12.327.034-15.615.023-19.004.012-1.733-.006-3.493-.012-6.501-.012a.537.537 0 0 1-.239-1.019c4.426-2.197 7.829-4.249 11.744-6.649l.888-.545.004-.002c3.64-2.234 7.795-4.784 13.609-8.011a197.62 197.62 0 0 0-.303-3.525c-.192-2.108-.449-4.819-.706-7.498a4274.336 4274.336 0 0 0-.939-9.681l-.089-.9a.539.539 0 0 1 .154-.432Zm.928.459.075.768.233 2.382c.192 1.976.449 4.622.706 7.301.257 2.679.514 5.392.707 7.503.188 2.053.319 3.581.323 3.915a.535.535 0 0 1-.063.269.521.521 0 0 1-.22.22c-5.943 3.291-10.157 5.878-13.856 8.147l-.89.547c-3.316 2.032-6.286 3.828-9.828 5.677 1.746.002 3.014.006 4.267.01h.002c3.387.012 6.67.023 18.995-.011l.155-.001c2.755-.007 5.037-.013 6.938-.14 1.939-.129 3.43-.381 4.583-.861 1.133-.471 1.946-1.164 2.536-2.209.601-1.065.987-2.525 1.193-4.555.496-4.865.777-10.305.935-14.534a351.692 351.692 0 0 0 .183-6.698l.003-.181-16.977-7.549Zm-.548-.08.302-.029-.302.029Zm-.534.053.534-.053-.534.053Z" fill="#2851A3"/><path d="M230.592 153.841a.536.536 0 0 0-.601.464c-.43 3.31-.632 9.573-.728 14.979a582.787 582.787 0 0 0-.085 9.213l-.001.596.001.208.536-.001-.536.001c0 .212.125.405.319.491l24.384 10.843a.536.536 0 0 0 .753-.537l-1.478-17.097a.537.537 0 1 0-1.07.092l1.4 16.19-23.235-10.332v-.452a560.61 560.61 0 0 1 .086-9.196c.096-5.42.298-11.62.718-14.86a.537.537 0 0 0-.463-.602Z" fill="#2851A3"/></g><path d="M331.807 142.018h-26.262c-9.035 0-16.357 7.338-16.357 16.392v12.091a4.297 4.297 0 0 0 4.293 4.301h38.326c9.035 0 16.357-7.338 16.357-16.392 0-9.054-7.322-16.392-16.357-16.392Z" fill="#fff" fill-opacity=".3"/><path d="M300.999 154.824c0-.297.24-.538.537-.538h30.226a.538.538 0 0 1 0 1.076h-30.226a.537.537 0 0 1-.537-.538Zm0 8.668c0-.297.24-.537.537-.537h18.337a.537.537 0 0 1 0 1.075h-18.337a.537.537 0 0 1-.537-.538Z" fill="#E0E0E0"/><path d="M267.664 266.728h-89.786l-15.968 59.937h89.786l15.968-59.937Z" fill="#42BDEB"/><path d="M251.697 326.666H134.434v2.682h117.263v-2.682Z" fill="#E0E0E0"/><path d="M218.513 301.477a4.89 4.89 0 0 0 4.884-4.894 4.889 4.889 0 0 0-4.884-4.893 4.89 4.89 0 0 0-4.885 4.893 4.89 4.89 0 0 0 4.885 4.894Z" fill="#fff"/><path d="M17.124 329.348c0-.277.225-.502.501-.502h237.443a.502.502 0 0 1 0 1.004H17.625a.502.502 0 0 1-.5-.502Z" fill="#E0E0E0"/><path d="M25.92 161.667a3.38 3.38 0 0 0-3.377 3.384v7.653h19.5a1.69 1.69 0 0 1 1.688 1.692v7.647h16.116a3.38 3.38 0 0 0 3.377-3.383v-13.609a3.38 3.38 0 0 0-3.377-3.384H25.92Z" fill="#42BDEB"/><g filter="url(#udjeg87x2pqc)"><path d="M22.543 172.705H43.73v9.339H25.92a3.38 3.38 0 0 1-3.378-3.384v-5.955Z" fill="#42BDEB"/></g><path d="M40.515 172.702a2.959 2.959 0 0 1 2.956 2.961v24.475l-6.974-6.816a.422.422 0 0 0-.295-.12H7.867a2.959 2.959 0 0 1-2.956-2.961v-14.578a2.959 2.959 0 0 1 2.956-2.961h32.648Zm3.8 2.961a3.804 3.804 0 0 0-3.8-3.807H7.867a3.804 3.804 0 0 0-3.8 3.807v14.578a3.804 3.804 0 0 0 3.8 3.807H36.03l7.568 7.396a.421.421 0 0 0 .717-.303v-25.478Z" fill="#E0E0E0"/><path d="M14.393 88.987a6.078 6.078 0 0 0 2.164 8.318l28.828 16.923 10.102-17.207c-10.72-6.73-14.213-20.81-7.762-31.8 6.451-10.989 20.448-14.802 31.55-8.721l9.38-15.98-28.828-16.923a6.078 6.078 0 0 0-8.319 2.165L14.393 88.987Z" fill="#FAC823"/><path d="M76.155 61.814c8.684 5.098 11.591 16.27 6.493 24.955-5.098 8.684-16.27 11.592-24.955 6.494-8.684-5.099-11.592-16.271-6.494-24.956 5.098-8.684 16.271-11.591 24.956-6.493Z" fill="#FAC823"/><path d="M107.569 67.415a.504.504 0 0 1 .496.51c-.139 10.14-2.833 20.384-8.333 29.754-4.569 7.782-10.607 14.167-17.557 19.009a.503.503 0 1 1-.575-.825c6.833-4.761 12.77-11.039 17.264-18.693 5.41-9.216 8.058-19.288 8.195-29.259a.503.503 0 0 1 .51-.496Zm-13.184 82.252a.503.503 0 0 0 .687.187c13.954-7.992 26.075-19.623 34.798-34.482 8.723-14.86 12.971-31.112 13.148-47.192a.503.503 0 0 0-1.006-.01c-.175 15.908-4.377 31.988-13.009 46.692-8.633 14.705-20.625 26.211-34.431 34.119a.503.503 0 0 0-.187.686Z" fill="#E0E0E0"/><path d="M99.494 167.63a.503.503 0 0 1 .213-.678c18.128-9.443 33.908-23.93 45.02-42.859 11.112-18.928 16.07-39.767 15.48-60.199a.503.503 0 0 1 1.006-.029c.595 20.615-4.409 41.642-15.619 60.738-11.21 19.096-27.131 33.713-45.422 43.241a.503.503 0 0 1-.678-.214Zm26.31-100.081a.502.502 0 0 1 .497.509c-.159 13.239-3.663 26.618-10.845 38.852-6.755 11.506-15.98 20.666-26.607 27.199a.504.504 0 0 1-.527-.857c10.49-6.449 19.597-15.49 26.267-26.851 7.091-12.08 10.549-25.287 10.706-38.355a.504.504 0 0 1 .509-.497ZM88.94 25.038c0-.278.226-.503.504-.503H322.46a8.551 8.551 0 0 1 8.551 8.55v64.383a.503.503 0 1 1-1.006 0V33.085a7.545 7.545 0 0 0-7.545-7.544H89.444a.503.503 0 0 1-.503-.503Zm-64.785 95.447c.278 0 .503.225.503.503v29.631a.504.504 0 0 1-1.006 0v-29.631c0-.278.225-.503.503-.503Zm0 92.91a.503.503 0 0 0-.503.503v88.391a.504.504 0 0 0 1.006 0v-88.391a.503.503 0 0 0-.503-.503Z" fill="#E0E0E0"/><path d="M278.772 51.191a3.512 3.512 0 0 0-3.509 3.515 3.512 3.512 0 0 0 3.509 3.515 3.512 3.512 0 0 0 3.508-3.515 3.512 3.512 0 0 0-3.508-3.515Zm-4.512 3.515a4.515 4.515 0 0 1 4.512-4.519 4.515 4.515 0 0 1 4.511 4.52 4.515 4.515 0 0 1-4.511 4.518 4.516 4.516 0 0 1-4.512-4.519Zm19.304-3.515a3.512 3.512 0 0 0-3.508 3.515 3.512 3.512 0 0 0 3.508 3.515 3.512 3.512 0 0 0 3.509-3.515 3.512 3.512 0 0 0-3.509-3.515Zm-4.511 3.515a4.515 4.515 0 0 1 4.511-4.519 4.516 4.516 0 0 1 4.512 4.52 4.515 4.515 0 0 1-4.512 4.518 4.515 4.515 0 0 1-4.511-4.519Zm14.793 0a4.515 4.515 0 0 1 4.512-4.519 4.515 4.515 0 0 1 4.511 4.52 4.515 4.515 0 0 1-4.511 4.518 4.516 4.516 0 0 1-4.512-4.519Z" fill="#E0E0E0"/><g filter="url(#ud0pwkszdzvd)"><path d="M297.885 313.325c6.451 0 11.68-5.221 11.68-11.661 0-6.441-5.229-11.662-11.68-11.662-6.45 0-11.679 5.221-11.679 11.662 0 6.44 5.229 11.661 11.679 11.661Z" fill="#FAC823"/></g><path d="M302.784 298.053c0-14.078 12.791-25.396 28.442-25.396a.503.503 0 0 1 0 1.006c-15.208 0-27.436 10.974-27.436 24.39v6.551a.503.503 0 0 1-.503.503h-8.12c-15.017 0-27.128 10.7-27.429 23.887h22.413a.503.503 0 1 1 0 1.006h-22.922a.503.503 0 0 1-.503-.503c0-14.078 12.791-25.396 28.441-25.396h7.617v-6.048Z" fill="#E0E0E0"/><defs><filter id="udjeg87x2pqc" x="18.543" y="168.705" width="29.188" height="17.339" filterUnits="userSpaceOnUse" color-interpolation-filters="sRGB"><feFlood flood-opacity="0" result="BackgroundImageFix"/><feBlend in="SourceGraphic" in2="BackgroundImageFix" result="shape"/><feGaussianBlur stdDeviation="2" result="effect1_foregroundBlur_15300_3434"/></filter><filter id="ud0pwkszdzvd" x="281.206" y="285.002" width="33.359" height="33.323" filterUnits="userSpaceOnUse" color-interpolation-filters="sRGB"><feFlood flood-opacity="0" result="BackgroundImageFix"/><feBlend in="SourceGraphic" in2="BackgroundImageFix" result="shape"/><feGaussianBlur stdDeviation="2.5" result="effect1_foregroundBlur_15300_3434"/></filter><clipPath id="ud8ubmvfidlb"><path fill="#fff" transform="matrix(-1 0 0 1 285.698 88.415)" d="M0 0h142.757v126.876H0z"/></clipPath></defs></svg>