<svg width="263" height="143" viewBox="0 0 263 143" fill="none" xmlns="http://www.w3.org/2000/svg">
  <g clip-path="url(#illustration_specialized_CTA-banner-Mobile__a)">
    <g clip-path="url(#illustration_specialized_CTA-banner-Mobile__b)">
      <rect width="263" height="143" rx="6" fill="url(#illustration_specialized_CTA-banner-Mobile__c)"/>
      <rect width="263" height="143" rx="6" fill="#F0F4FF"/>
    </g>
    <g clip-path="url(#illustration_specialized_CTA-banner-Mobile__d)">
      <rect x="-86" y="16.27" width="429.761" height="111.333" rx="4.671" fill="#F0F4FF"/>
      <path fill-rule="evenodd" clip-rule="evenodd" d="M54.367 38.89a3.504 3.504 0 0 1 3.503-3.503h24.06a3.504 3.504 0 0 1 3.504 3.503v4.192a.39.39 0 0 1-.778 0V38.89a2.725 2.725 0 0 0-2.725-2.725H57.87a2.725 2.725 0 0 0-2.726 2.725v21.462a2.725 2.725 0 0 0 2.725 2.725h12.575a.39.39 0 0 1 0 .779H57.87a3.503 3.503 0 0 1-3.503-3.504V38.89Z" fill="#002270"/>
      <path fill-rule="evenodd" clip-rule="evenodd" d="M64.27 63.12V35.782h.779v27.34h-.779Z" fill="#002270"/>
      <path fill-rule="evenodd" clip-rule="evenodd" d="M70.79 44.915a.39.39 0 0 1-.389.39h-15.39v-.779h15.39a.39.39 0 0 1 .39.39Zm3.753-1.814v-7.216a.39.39 0 0 1 .778 0v7.216a.39.39 0 1 1-.778 0ZM54.622 54.108H70.4a.39.39 0 1 1 0 .779H54.622v-.779Z" fill="#002270"/>
      <path d="M36.305 56.39c-.718 0-1.3.58-1.3 1.296v13.235c0 .715.582 1.295 1.3 1.295h18.954c.718 0 1.3-.58 1.3-1.295v-3.297l3.842 2.21c.867.499 1.95-.124 1.95-1.12l.003-9.012c0-.997-1.083-1.62-1.95-1.122l-3.845 2.214v-3.108c0-.715-.582-1.295-1.3-1.295H36.305Z" fill="#33D6C0"/>
      <path d="M50.151 63.315c.52.3.52 1.048.001 1.347l-5.477 3.151a.78.78 0 0 1-1.17-.675l-.002-6.306a.779.779 0 0 1 1.169-.672l5.479 3.155Z" fill="#fff"/>
      <path fill-rule="evenodd" clip-rule="evenodd" d="M72.06 51.1a5.06 5.06 0 0 1 5.06-5.06h106.74a5.06 5.06 0 0 1 5.061 5.06v65.017a.389.389 0 1 1-.779 0V51.1a4.282 4.282 0 0 0-4.282-4.282H77.12a4.282 4.282 0 0 0-4.282 4.282v64.724h-.779V51.1Z" fill="#002270"/>
      <path d="M164.706 56.324c.825 0 1.493-.67 1.493-1.497 0-.826-.668-1.496-1.493-1.496-.824 0-1.492.67-1.492 1.496 0 .827.668 1.497 1.492 1.497Zm2.239-1.497a2.242 2.242 0 0 1-2.239 2.245 2.242 2.242 0 0 1-2.239-2.245 2.242 2.242 0 0 1 2.239-2.245 2.242 2.242 0 0 1 2.239 2.245Zm5.225 1.497c.824 0 1.493-.67 1.493-1.497 0-.826-.669-1.496-1.493-1.496-.824 0-1.493.67-1.493 1.496 0 .827.669 1.497 1.493 1.497Zm2.239-1.497a2.242 2.242 0 0 1-2.239 2.245 2.242 2.242 0 0 1-2.239-2.245 2.242 2.242 0 0 1 2.239-2.245 2.242 2.242 0 0 1 2.239 2.245Zm7.465 0a2.243 2.243 0 0 1-2.24 2.245 2.242 2.242 0 0 1-2.239-2.245 2.242 2.242 0 0 1 2.239-2.245 2.243 2.243 0 0 1 2.24 2.245Z" fill="#002270"/>
      <path d="M198.703 12.547v26.037h7.616V12.547h-7.616Z" fill="#FFC60A"/>
      <path d="M193.188 36.632a.38.38 0 0 1 .38-.378h7.616a.38.38 0 0 1 .379.378v7.59a.38.38 0 0 1-.379.378h-7.616a.38.38 0 0 1-.38-.379v-7.589Zm.759.378v6.833h6.857V37.01h-6.857Z" fill="#002270"/>
      <path fill-rule="evenodd" clip-rule="evenodd" d="M-60.54 69.193c-30.943 0-56.027 25.084-56.027 56.027 0 2.522.167 5.006.49 7.44l-.772.102a57.394 57.394 0 0 1-.496-7.542c0-31.373 25.433-56.806 56.805-56.806 23.07 0 42.927 13.752 51.822 33.505a40.436 40.436 0 0 1 20.986-5.833c15.173 0 28.404 8.319 35.38 20.643a25.56 25.56 0 0 1 13.633-3.914c8.815 0 16.592 4.441 21.217 11.206a18.985 18.985 0 0 1 11.557-3.901c5.938 0 11.242 2.715 14.737 6.97a19.04 19.04 0 0 1 3.15 5.486l-.73.27a18.275 18.275 0 0 0-3.021-5.262c-3.354-4.083-8.44-6.686-14.136-6.686a18.207 18.207 0 0 0-11.404 3.992.39.39 0 0 1-.568-.09c-4.455-6.752-12.108-11.207-20.802-11.207a24.789 24.789 0 0 0-13.56 4.012.39.39 0 0 1-.552-.138c-6.79-12.284-19.874-20.602-34.901-20.602a39.66 39.66 0 0 0-20.956 5.948.392.392 0 0 1-.56-.174c-8.685-19.698-28.383-33.446-51.292-33.446Zm331.132 32.726c8.895-19.753 28.752-33.505 51.822-33.505 31.373 0 56.805 25.433 56.805 56.806 0 2.557-.169 5.074-.496 7.542l-.772-.102c.323-2.434.49-4.918.49-7.44 0-30.943-25.084-56.027-56.027-56.027-22.909 0-42.606 13.748-51.291 33.446a.387.387 0 0 1-.561.174 39.662 39.662 0 0 0-20.955-5.948c-15.028 0-28.113 8.318-34.902 20.602a.39.39 0 0 1-.553.138 24.786 24.786 0 0 0-13.559-4.012c-8.693 0-16.347 4.455-20.802 11.207a.39.39 0 0 1-.568.09 18.204 18.204 0 0 0-11.404-3.992c-5.717 0-10.821 2.623-14.174 6.733a18.268 18.268 0 0 0-2.983 5.215l-.73-.27a19.052 19.052 0 0 1 3.109-5.437c3.495-4.283 8.817-7.019 14.778-7.019 4.345 0 8.351 1.454 11.557 3.901 4.625-6.765 12.402-11.206 21.217-11.206a25.56 25.56 0 0 1 13.633 3.914c6.976-12.324 20.207-20.643 35.381-20.643 7.678 0 14.859 2.13 20.985 5.833Z" fill="#0C296E"/>
      <path d="M123.703 109.087c.193 0 .349.156.349.348v8.146a.348.348 0 0 1-.698 0v-8.146c0-.192.156-.348.349-.348Zm5.181 0c.193 0 .349.156.349.348v10.859a.348.348 0 0 1-.698 0v-10.859c0-.192.156-.348.349-.348Zm5.174 0c.193 0 .349.156.349.348v8.146a.348.348 0 0 1-.698 0v-8.146c0-.192.156-.348.349-.348Z" fill="#002270"/>
      <path d="M128.888 23.215c-7.292 0-17.597 10.976-17.597 36.899 0 9.28 2.592 30.334 3.391 36.613.131 1.036.915 1.794 1.845 1.794h24.707c.93 0 1.714-.758 1.845-1.794.799-6.27 3.392-27.334 3.392-36.613.007-25.923-10.291-36.9-17.583-36.9Z" fill="#3EC3F7"/>
      <path d="M120.418 98.522h16.919l2.257 4.823c.66 1.402-.24 3.074-1.642 3.074h-18.135c-1.401 0-2.309-1.672-1.655-3.074l2.256-4.823Z" fill="#336DF4"/>
      <path d="M128.882 62.18c3.609 0 6.536-2.92 6.536-6.52 0-3.602-2.927-6.522-6.536-6.522-3.61 0-6.537 2.92-6.537 6.521 0 3.602 2.927 6.521 6.537 6.521Zm-.001 21.04c3.61 0 6.536-2.92 6.536-6.52 0-3.602-2.926-6.522-6.536-6.522-3.61 0-6.537 2.92-6.537 6.521 0 3.602 2.927 6.521 6.537 6.521Zm-12.942-45.781c0-.215.156-.388.349-.388h25.187c.193 0 .349.173.349.388 0 .214-.156.388-.349.388h-25.187c-.193 0-.349-.174-.349-.388Z" fill="#fff"/>
      <path d="M143.778 91.12h13.377c1.353 0 2.192-1.469 1.501-2.63l-12.497-21.007c-.028.4-.057.806-.088 1.216l11.985 20.147a1.045 1.045 0 0 1-.901 1.578h-13.294l-.083.697Zm-32.072-22.348L99.976 88.49c-.691 1.16.147 2.63 1.5 2.63h12.518l-.084-.696h-12.434a1.044 1.044 0 0 1-.9-1.579l11.223-18.866-.093-1.207Z" fill="#002270"/>
      <path d="M168.176 90.376c0 .86.697 1.557 1.557 1.557h34.061c.86 0 1.558-.697 1.558-1.557V68.16c0-.86-.698-1.557-1.558-1.557h-34.061c-.86 0-1.557.697-1.557 1.557v22.217Z" fill="#336DF4"/>
      <path d="M168.176 90.376c0 .86.697 1.557 1.557 1.557h34.061c.86 0 1.558-.697 1.558-1.557V68.16c0-.86-.698-1.557-1.558-1.557h-34.061c-.86 0-1.557.697-1.557 1.557v22.217Z" fill="#DADCDF"/>
      <path d="M198.531 75.073h-24.449a.282.282 0 0 1-.219-.114.443.443 0 0 1-.091-.274c0-.103.033-.202.091-.275a.282.282 0 0 1 .219-.113h24.449c.082 0 .161.04.219.114.058.072.09.17.09.274a.442.442 0 0 1-.09.274.282.282 0 0 1-.219.114Zm-7.278 7.105h-17.171a.282.282 0 0 1-.219-.113.443.443 0 0 1-.091-.275c0-.103.033-.201.091-.274a.282.282 0 0 1 .219-.114h17.171c.082 0 .161.041.219.114.058.073.09.171.09.274a.443.443 0 0 1-.09.275.282.282 0 0 1-.219.113Z" fill="#fff"/>
      <rect x="194.959" y="80.262" width="36.988" height="14.309" rx="7.155" fill="#F0F4FF"/>
      <path d="M223.482 82.977a4.551 4.551 0 0 0-3.65 5.31c.464 2.47 2.851 4.097 5.331 3.634a4.55 4.55 0 0 0 3.651-5.309c-.465-2.47-2.852-4.097-5.332-3.635Z" fill="#33D6C0"/>
      <g filter="url(#illustration_specialized_CTA-banner-Mobile__e)">
        <path d="M205.351 80.262h-2.213c-3.965 0-7.18 3.203-7.18 7.154 0 1.712.604 3.283 1.609 4.514h7.784V80.262Z" fill="#DADCDF"/>
      </g>
      <path fill-rule="evenodd" clip-rule="evenodd" d="M224.551 81.04h-22.426a6.616 6.616 0 0 0-6.616 6.617 6.616 6.616 0 0 0 6.616 6.617h22.426a6.617 6.617 0 1 0 0-13.234Zm-22.426-.778a7.395 7.395 0 0 0 0 14.79h22.426a7.396 7.396 0 1 0 0-14.79h-22.426Z" fill="#0C296E"/>
      <rect x="59.046" y="82.913" width="35.119" height="22.764" rx="1.557" fill="#FFC60A" stroke="#FFC60A" stroke-width=".779"/>
      <path fill-rule="evenodd" clip-rule="evenodd" d="M71.113 92.488a.311.311 0 0 1 .018.44l-11.284 12.28a.312.312 0 0 1-.459-.422l11.285-12.279a.311.311 0 0 1 .44-.019Zm10.985 0a.311.311 0 0 0-.018.44l11.284 12.28a.312.312 0 0 0 .458-.422L82.538 92.507a.311.311 0 0 0-.44-.019Z" fill="#0C296E"/>
      <path d="M59.618 83.55 75.38 96.33c.714.58 1.736.58 2.45 0l15.763-12.78" fill="#FFC60A"/>
      <path fill-rule="evenodd" clip-rule="evenodd" d="M59.376 83.358a.312.312 0 0 1 .438-.046l15.762 12.78c.6.486 1.459.486 2.059 0l15.762-12.78a.312.312 0 0 1 .392.484l-15.762 12.78a2.257 2.257 0 0 1-2.843 0l-15.762-12.78a.311.311 0 0 1-.046-.439Z" fill="#0C296E"/>
      <path d="M167.082 102.475c0-.003-.003-.005-.005-.005a6.65 6.65 0 0 1-6.895-6.629 6.649 6.649 0 0 1-6.895 6.629c-.002 0-.004.002-.004.005 0 .002.002.004.004.004a6.649 6.649 0 0 1 6.895 6.609 6.65 6.65 0 0 1 6.895-6.609c.002 0 .005-.002.005-.004Z" fill="#FFE284"/>
      <path d="M167.082 102.475c0-.003-.003-.005-.005-.005a6.65 6.65 0 0 1-6.895-6.629 6.649 6.649 0 0 1-6.895 6.629c-.002 0-.004.002-.004.005 0 .002.002.004.004.004a6.649 6.649 0 0 1 6.895 6.609 6.65 6.65 0 0 1 6.895-6.609c.002 0 .005-.002.005-.004Z" fill="#FFC60A"/>
      <path d="M160.182 109.369c.003 0 .005-.002.005-.004-.003-.068-.004-.137-.005-.205 0 .068-.001.137-.004.205 0 .002.002.004.004.004Z" fill="#FFE284"/>
      <path d="M160.182 109.369c.003 0 .005-.002.005-.004-.003-.068-.004-.137-.005-.205 0 .068-.001.137-.004.205 0 .002.002.004.004.004Z" fill="#FFC60A"/>
      <path d="M160.187 95.575a.005.005 0 0 0-.005-.005c-.002 0-.004.003-.004.005.003.078.004.157.004.236 0-.08.002-.158.005-.236Z" fill="#FFE284"/>
      <path d="M160.187 95.575a.005.005 0 0 0-.005-.005c-.002 0-.004.003-.004.005.003.078.004.157.004.236 0-.08.002-.158.005-.236Z" fill="#FFC60A"/>
      <path d="M151.004 108.713a5.332 5.332 0 0 1-5.53 5.329c-.002 0-.003.001-.003.003 0 .003.001.004.003.004.066-.002.132-.004.198-.004a5.333 5.333 0 0 1 5.332 5.316 5.333 5.333 0 0 1 5.53-5.312c.002 0 .004-.001.004-.004 0-.002-.002-.003-.004-.003-.066.002-.131.004-.197.004a5.333 5.333 0 0 1-5.329-5.534.004.004 0 0 0-.004-.004c-.002 0-.003.002-.003.004.002.066.003.134.003.201Z" fill="#FFE284"/>
      <path d="M151.004 108.713a5.332 5.332 0 0 1-5.53 5.329c-.002 0-.003.001-.003.003 0 .003.001.004.003.004.066-.002.132-.004.198-.004a5.333 5.333 0 0 1 5.332 5.316 5.333 5.333 0 0 1 5.53-5.312c.002 0 .004-.001.004-.004 0-.002-.002-.003-.004-.003-.066.002-.131.004-.197.004a5.333 5.333 0 0 1-5.329-5.534.004.004 0 0 0-.004-.004c-.002 0-.003.002-.003.004.002.066.003.134.003.201Z" fill="#FFC60A"/>
      <path d="M151.004 119.575a.004.004 0 0 0 .004-.004l-.004-.176c0 .059-.001.118-.003.176 0 .002.001.004.003.004Z" fill="#FFE284"/>
      <path d="M151.004 119.575a.004.004 0 0 0 .004-.004l-.004-.176c0 .059-.001.118-.003.176 0 .002.001.004.003.004Z" fill="#FFC60A"/>
    </g>
  </g>
  <defs>
    <clipPath id="illustration_specialized_CTA-banner-Mobile__a">
      <path fill="#fff" d="M0 0h263v143H0z"/>
    </clipPath>
    <clipPath id="illustration_specialized_CTA-banner-Mobile__b">
      <rect width="263" height="143" rx="6" fill="#fff"/>
    </clipPath>
    <clipPath id="illustration_specialized_CTA-banner-Mobile__d">
      <rect x="-86" y=".5" width="430" height="127" rx="4.671" fill="#fff"/>
    </clipPath>
    <linearGradient id="illustration_specialized_CTA-banner-Mobile__c" x1="323" y1="-47.5" x2="21.5" y2="143.5" gradientUnits="userSpaceOnUse">
      <stop stop-color="#E0E9FF" stop-opacity="0"/>
      <stop offset="1" stop-color="#E0E9FF"/>
    </linearGradient>
    <filter id="illustration_specialized_CTA-banner-Mobile__e" x="193.623" y="77.926" width="14.064" height="16.339" filterUnits="userSpaceOnUse" color-interpolation-filters="sRGB">
      <feFlood flood-opacity="0" result="BackgroundImageFix"/>
      <feBlend in="SourceGraphic" in2="BackgroundImageFix" result="shape"/>
      <feGaussianBlur stdDeviation="1.168" result="effect1_foregroundBlur_24831_320"/>
    </filter>
  </defs>
</svg>
