<svg width="350" height="350" viewBox="0 0 350 350" fill="none" xmlns="http://www.w3.org/2000/svg"><path d="M20.516 297.809c11.35-4.809 29.004-2.732 40.933 3.411 25.386 13.061 38.21 19.465 69.468 19.465 16 0 33.993-3.85 49.258 0 9.046 2.292 16.06 4.69 25.163 6.661 7.915 1.696 16.17 1.925 24.368 2.154H20.516v-31.691Z" fill="#42BDEB"/><path d="M67.184 35a8 8 0 0 1 8-8h250a8 8 0 0 1 8 8v25.944h-266V35Zm154 107.809c-2.21 0-4 1.788-4 3.993v31.201a3.996 3.996 0 0 0 4 3.993h13v-21.178a3.996 3.996 0 0 1 4-3.994h29v-10.022a3.997 3.997 0 0 0-4-3.993h-42Z" fill="#fff" fill-opacity=".3"/><g filter="url(#ud6qtxwxx89a)"><path d="M234.184 161.179a3.995 3.995 0 0 1 4-3.993h29v20.817a3.997 3.997 0 0 1-4 3.993h-29v-20.817Z" fill="#fff" fill-opacity=".3"/></g><path d="M121.184 73.923a3.996 3.996 0 0 1 4-3.994h40c2.209 0 4 1.788 4 3.994v38.935a3.997 3.997 0 0 1-4 3.994h-40c-2.21 0-4-1.788-4-3.994V73.923Zm51.245 0a3.997 3.997 0 0 1 4-3.994h40c2.209 0 4 1.788 4 3.994v38.935a3.997 3.997 0 0 1-4 3.994h-40c-2.209 0-4-1.788-4-3.994V73.923Zm94.575 33.943a3.997 3.997 0 0 1 4-3.993h41.775c2.209 0 4 1.788 4 3.993v31.2a3.996 3.996 0 0 1-4 3.993h-41.775c-2.209 0-4-1.787-4-3.993v-31.2Z" fill="#fff" fill-opacity=".3"/><path d="M68.377 65.556a.5.5 0 0 1 .5.499v159.509c0 4.135 3.358 7.487 7.5 7.487h153.328a.5.5 0 1 1 0 .998l-153.328.001c-4.694 0-8.5-3.8-8.5-8.486V66.054a.5.5 0 0 1 .5-.498Z" fill="#E0E0E0"/><path d="M97.572 39.362c-.384.416-.864.783-1.44 1.134-.576.32-1.104.543-1.616.671v1.725c1.056-.303 1.936-.782 2.624-1.437v9.313h1.744V39.361h-1.312Zm47.544-.224c-1.216 0-2.208.4-2.944 1.23-.72.767-1.088 1.79-1.104 3.067h1.744c.032-.926.224-1.613.608-2.093.368-.495.912-.734 1.632-.734.672 0 1.2.16 1.552.479.352.32.528.799.528 1.438 0 .67-.272 1.294-.784 1.869-.32.335-.864.766-1.632 1.31-1.296.894-2.16 1.58-2.576 2.076a4.333 4.333 0 0 0-1.136 2.987h7.872v-1.534h-5.712c.24-.622.976-1.341 2.208-2.156 1.136-.767 1.92-1.374 2.368-1.837.736-.815 1.12-1.71 1.12-2.7 0-1.006-.352-1.82-1.04-2.46-.704-.638-1.616-.942-2.704-.942Zm50.738 0c-1.12 0-2.032.304-2.736.943-.752.639-1.168 1.517-1.264 2.651h1.712c.064-.703.304-1.23.688-1.581.384-.352.928-.527 1.616-.527.672 0 1.2.143 1.552.463.32.303.496.735.496 1.31 0 .575-.192 1.022-.544 1.326-.352.303-.88.463-1.584.463h-.816v1.31h.832c.752 0 1.328.16 1.712.479.416.32.624.815.624 1.486 0 .575-.208 1.038-.592 1.421-.448.415-1.04.64-1.776.64-.672 0-1.216-.193-1.632-.576-.48-.415-.72-1.006-.752-1.773h-1.76c.096 1.278.544 2.252 1.344 2.923.704.591 1.648.895 2.816.895 1.216 0 2.224-.352 2.992-1.023.72-.67 1.088-1.533 1.088-2.587 0-.671-.192-1.23-.576-1.662-.352-.415-.864-.735-1.536-.942 1.248-.415 1.888-1.262 1.888-2.508 0-.974-.352-1.741-1.024-2.3-.704-.56-1.616-.83-2.768-.83Zm51.838.224-5.632 7.284v1.646h5.568v2.475h1.664v-2.475h1.728v-1.39h-1.728v-7.54h-1.6Zm-.112 2.205h.048v5.335h-4.144l4.096-5.335Zm46.481-2.205-.624 6.39h1.632c.224-.416.528-.72.944-.91.384-.192.816-.272 1.328-.272.768 0 1.344.223 1.76.67.416.448.624 1.07.624 1.87 0 .734-.24 1.31-.72 1.757-.48.43-1.072.655-1.776.655-.64 0-1.152-.144-1.536-.432-.432-.32-.688-.814-.752-1.453h-1.712c.08 1.054.528 1.9 1.344 2.508.736.559 1.616.846 2.64.846 1.136 0 2.112-.335 2.928-1.006.864-.751 1.312-1.71 1.312-2.892 0-1.23-.352-2.188-1.024-2.89-.672-.704-1.552-1.055-2.624-1.055-.512 0-.992.08-1.408.256-.464.16-.864.415-1.216.782h-.048l.336-3.29h5.472v-1.534h-6.88Z" fill="#fff"/><path d="M27.631 94.358a3.997 3.997 0 0 1 4-3.994h66.432c2.209 0 4 1.788 4 3.994v66.322a3.997 3.997 0 0 1-4 3.993H31.63c-2.209 0-4-1.788-4-3.993V94.358Z" fill="#42BDEB"/><path d="M65.336 109.604c-3.984 0-7.152 1.725-9.456 5.175-2.352 3.451-3.504 7.955-3.504 13.562 0 5.223 1.056 9.297 3.264 12.268 2.208 3.019 5.424 4.552 9.648 4.552 3.408 0 6.288-1.15 8.592-3.354 2.304-2.204 3.504-5.032 3.504-8.482 0-3.355-1.008-6.134-3.024-8.29-2.016-2.157-4.704-3.211-8.064-3.211-1.728 0-3.264.287-4.608.958-1.44.671-2.64 1.677-3.6 3.115h-.24v-.431c0-3.163.624-5.799 1.968-7.907 1.344-2.252 3.168-3.355 5.472-3.355 3.264 0 5.28 1.582 5.952 4.745h5.472c-.864-6.23-4.656-9.345-11.376-9.345Zm-.24 16.772c2.064 0 3.696.623 4.944 1.917 1.152 1.246 1.776 2.923 1.776 5.032 0 2.108-.624 3.834-1.872 5.175-1.248 1.342-2.832 2.013-4.848 2.013-1.968 0-3.552-.623-4.8-1.869-1.248-1.246-1.872-2.971-1.872-5.127 0-2.205.576-3.978 1.776-5.224 1.152-1.294 2.784-1.917 4.896-1.917Z" fill="#fff"/><path d="M264.113 92.225c9.164 0 16.585-7.41 16.585-16.558 0-9.15-7.43-16.558-16.585-16.558-9.156 0-16.585 7.408-16.585 16.558 0 9.149 7.42 16.558 16.585 16.558Z" fill="#FAC823"/><path d="M264.611 66.054a.5.5 0 0 0-1 0v9.114h-9.128a.5.5 0 1 0 0 .999h9.128v8.956a.5.5 0 0 0 1 0v-8.956h8.972a.5.5 0 1 0 0-.999h-8.972v-9.114Z" fill="#000"/><path d="M263.684 132.664a3.335 3.335 0 0 1 3.338-3.333 3.337 3.337 0 0 1 3.3 2.833h46.245a.5.5 0 1 1 0 .999h-46.245a3.337 3.337 0 0 1-3.3 2.833 3.335 3.335 0 0 1-3.338-3.332Z" fill="#41CCB9"/><path d="M242.806 106.174c.607-.917 6.307-4.343 7.252-5.233 4.903-4.071 1.621-8.061-.689-9.315l-.815.873s3.678-5.214 5.394-9.151c-.379-.445-1.121.026-1.486.485a141.51 141.51 0 0 0-7.833 10.854c.662-1.2 1.31-2.387 1.972-3.587.175-.31.351-.66.297-1.011-.054-.35-.446-.674-.797-.54-2.661 4.531-5.159 9.21-7.712 13.794l4.417 2.831Z" fill="#EBEBEB"/><path d="M253.002 82.792c.361-.155.926-.24 1.327.232a.5.5 0 0 1 .077.522c-.873 2.005-2.238 4.318-3.375 6.119a87.408 87.408 0 0 1-1.106 1.706c1.165.725 2.474 2.042 2.972 3.713a4.773 4.773 0 0 1-.083 3.028c-.381 1.066-1.155 2.146-2.425 3.203-.276.256-.84.656-1.496 1.102-.452.308-.97.653-1.504 1.008-.266.177-.537.357-.805.537a67.74 67.74 0 0 0-2.226 1.535c-.313.229-.578.433-.781.605-.215.183-.321.297-.354.347a.5.5 0 0 1-.687.145l-4.417-2.832a.498.498 0 0 1-.167-.662c.771-1.384 1.538-2.779 2.307-4.177 1.771-3.223 3.553-6.463 5.411-9.626a.498.498 0 0 1 .252-.214c.374-.144.737-.029.983.15.191.139.352.342.436.58a139.527 139.527 0 0 1 4.73-6.292c.223-.28.562-.57.931-.729Zm-3.541 9.468-.541.578a.5.5 0 0 1-.774-.627l.002-.004.008-.01.03-.044.118-.17c.103-.15.253-.367.437-.64.37-.547.88-1.318 1.444-2.21.998-1.581 2.153-3.53 2.989-5.294a1.66 1.66 0 0 0-.32.304 140.993 140.993 0 0 0-7.806 10.816.5.5 0 0 1-.857-.514c.331-.6.658-1.195.985-1.792l.001-.001.986-1.793.002-.005c.185-.326.263-.532.239-.69a.166.166 0 0 0-.025-.057.186.186 0 0 0-.014-.02c-1.79 3.06-3.507 6.182-5.222 9.302-.695 1.264-1.389 2.527-2.089 3.786l3.667 2.351c.066-.062.137-.123.208-.184.229-.194.516-.415.838-.65a69.925 69.925 0 0 1 2.26-1.56l.814-.542c.531-.353 1.041-.692 1.489-.997.688-.469 1.184-.826 1.385-1.015l.023-.021c1.175-.975 1.826-1.918 2.135-2.781a3.783 3.783 0 0 0 .066-2.407c-.403-1.35-1.483-2.473-2.478-3.11Z" fill="#2851A3"/><path d="M112.304 150.721c-1.013-1.241-2.944-3.384-4.538-3.829-.959-.27-1.985-.378-2.836-.85-1.377-.755-2.039-2.292-3.255-3.263l-1.35-.458c.378.445.702.944.945 1.47a3.627 3.627 0 0 1-1.404-.364c-.69-.324-1.662-1.241-1.432-1.929.122-.377.81-.512.81-.512-.486-.027-1.614.048-1.614-.747 0-.62 1.425-.763 2.209-.871 0 0-2.364.162-2.485-.283-.338-1.2 1.85-1.025 2.35-1.308l-1.932.121c-2.039.135-4.457.499-6.131-.593 2.62-.445 3.336-.445 5.334-.782 1.54-.256 6.402-.445 6.888-.35.851.188 1.486.849 2.053 1.469 2.661 2.926 7.306 8.427 9.967 11.353l-3.579 1.726Z" fill="#EBEBEB"/><path d="M112.368 151.31a.473.473 0 0 1-.38-.18c-1.66-1.997-3.22-3.364-4.29-3.664-.28-.08-.57-.15-.86-.209a7.526 7.526 0 0 1-2.08-.689 7.004 7.004 0 0 1-2.05-1.927 11.032 11.032 0 0 0-1-1.138l.08.169a.481.481 0 0 1 0 .49.497.497 0 0 1-.44.219 4.002 4.002 0 0 1-1.6-.419c-.75-.349-2-1.468-1.68-2.526a1.085 1.085 0 0 1-.83-1.088.905.905 0 0 1 .18-.549.641.641 0 0 1-.44-.469 1.167 1.167 0 0 1 0-.749c-1.87.14-4 .279-5.52-.749a.5.5 0 0 1 .19-.908c1.42-.24 2.28-.35 3.09-.45.81-.1 1.33-.179 2.24-.329a51.072 51.072 0 0 1 7.07-.35c.93.282 1.746.852 2.33 1.628 1.33 1.467 3.19 3.614 5 5.69 1.81 2.077 3.65 4.203 5 5.661a.49.49 0 0 1 .12.429.51.51 0 0 1-.27.36l-3.58 1.717a.423.423 0 0 1-.28.03Zm-12-9.395a.539.539 0 0 1 .17 0l1.36.48a.368.368 0 0 1 .15.079 9.76 9.76 0 0 1 1.43 1.528 6.387 6.387 0 0 0 1.75 1.687 7.06 7.06 0 0 0 1.82.579c.3.07.61.14.91.23 1.53.419 3.27 2.176 4.54 3.684l2.63-1.268c-1.29-1.428-2.94-3.335-4.54-5.182-1.8-2.066-3.66-4.213-5-5.67a3.789 3.789 0 0 0-1.8-1.318 54.376 54.376 0 0 0-6.69.359c-.93.15-1.59.24-2.28.33l-1.11.149c1.09.115 2.19.115 3.28 0l2.72-.179a.499.499 0 0 1 .28.928 2.705 2.705 0 0 1-.93.24c-.37.06-1.07.16-1.19.359a8.366 8.366 0 0 0 2 .05.503.503 0 0 1 .11.999h-.18a4.419 4.419 0 0 0-1.62.409c0 .14.49.17 1 .19h.21a.51.51 0 0 1 .373.807.48.48 0 0 1-.303.181c-.16.032-.31.1-.44.2-.09.279.55.998 1.18 1.297a.65.65 0 0 0 .19.09c-.1-.139-.21-.279-.33-.419a.499.499 0 0 1 0-.599.503.503 0 0 1 .33-.22h-.02Z" fill="#2851A3"/><path d="M177.426 131.739c-1.026-.405-3.889-.243-4.619-1.969l-10.547 2.562c.635 2.076-4.092 4.193-5.916 5.407" fill="#EBEBEB"/><path d="M172.689 129.285a.5.5 0 0 1 .579.291c.264.625.94.967 1.855 1.188.394.095.795.16 1.183.222l.148.024c.41.066.839.139 1.156.264a.498.498 0 1 1-.367.929c-.197-.078-.51-.136-.949-.208l-.146-.023c-.384-.062-.825-.132-1.26-.237-.836-.202-1.799-.564-2.338-1.389l-9.731 2.364c.002.536-.233 1.037-.559 1.471-.429.572-1.068 1.105-1.747 1.585-.685.484-1.443.936-2.134 1.339l-.394.229c-.538.311-1.008.583-1.363.82a.5.5 0 0 1-.555-.831c.384-.255.89-.549 1.43-.861l.378-.22c.689-.401 1.414-.834 2.06-1.291.651-.46 1.189-.922 1.525-1.369.334-.445.415-.801.322-1.105a.496.496 0 0 1 .36-.63l10.547-2.562Z" fill="#2851A3"/><path d="M160.235 173.292a152.244 152.244 0 0 0 2.62 5.919c8.522-.809 22.945-5.164 22.945-5.164a24.551 24.551 0 0 1-.162-6.149" fill="#EBEBEB"/><path d="M185.69 167.402a.5.5 0 0 1 .446.548 23.986 23.986 0 0 0 .159 6.023.5.5 0 0 1-.35.552l-.145-.478.145.478-.042.012-.124.037-.474.141a230.451 230.451 0 0 1-7.658 2.094c-4.673 1.191-10.442 2.49-14.745 2.899a.501.501 0 0 1-.5-.284l-.016-.036-.048-.101a138.598 138.598 0 0 1-.798-1.738 137.033 137.033 0 0 1-1.768-4.067.5.5 0 1 1 .925-.38 137.48 137.48 0 0 0 1.754 4.036c.252.556.466 1.022.617 1.348l.09.193c4.181-.436 9.7-1.68 14.242-2.837a232.958 232.958 0 0 0 7.623-2.085l.222-.066a24.912 24.912 0 0 1-.104-5.844.5.5 0 0 1 .549-.445Zm-3.877-39.267-.497.057.497-.057a.5.5 0 0 1-.391.545l-38.868 8.44a.5.5 0 0 1-.574-.312c-.375-.995-.454-1.868-.31-2.655.144-.783.503-1.442.942-2.019.435-.572.964-1.082 1.459-1.557l.027-.026c.495-.475.953-.915 1.318-1.384v-.001c.314-.402.469-.733.538-1.027.068-.293.06-.582-.002-.914a9.675 9.675 0 0 0-.248-.945l-.064-.216c-.13-.446-.271-.958-.364-1.557-.241-1.553.397-3.928 2.404-5.265 1.674-1.123 2.58-2.311 3.148-3.49.467-.97.707-1.931.951-2.905.058-.234.117-.469.179-.705l.001-.002c.505-1.89 1.746-4.147 4.096-5.858 2.356-1.716 5.787-2.857 10.623-2.575 3.179.186 5.714 1.869 7.71 4.219 1.991 2.345 3.474 5.383 4.567 8.364 1.094 2.987 1.808 5.946 2.248 8.155a58.42 58.42 0 0 1 .47 2.671c.048.322.083.576.106.749l.025.2.007.052.001.013.001.004v.001Z" fill="#2851A3"/><path d="M238.661 102.915a.502.502 0 0 0-.675.152l-8.587 12.947c-4.527 6.824-9.685 14.601-12.378 18.657a634.307 634.307 0 0 1-11.654-1.735l-.949-.148c-3.659-.572-6.914-1.081-9.899-1.464-6.484-.832-11.733-1.075-17.182-.077l-.047.011-21.081 5.96a.487.487 0 0 0-.139.063c-1.331.877-2.659 1.757-3.986 2.637-1.327.88-2.653 1.759-3.983 2.635l-.002.001c-2.656 1.768-5.49 3.655-7.271 6.371-1.123 1.697-1.749 3.623-2.34 5.446l-2.766 8.493-.013.039-2.005 6.156c-2.548-3.091-6.681-7.933-10.284-12.124-1.947-2.265-3.74-4.341-5.046-5.851l-1.553-1.794-.574-.661a.5.5 0 0 0-.595-.122l-4.66 2.252a.495.495 0 0 0-.198.726l.022.033.064.095a124.74 124.74 0 0 0 1.023 1.498c.608.873 1.359 1.923 1.923 2.616l.452.914 1.273 2.567c1.061 2.137 2.494 5.014 3.979 7.977 2.961 5.908 6.156 12.204 7.015 13.597.968 1.568 2.283 3.532 4.037 4.921 1.774 1.404 4.017 2.232 6.782 1.475.979-.256 1.945-.917 2.874-1.813.936-.902 1.871-2.077 2.783-3.416 1.825-2.678 3.596-6.066 5.144-9.38a151.78 151.78 0 0 0 3.825-9.005 147.159 147.159 0 0 0 1.163-3.083l.036-.098.416.994c1.957 4.671 3.919 9.353 6.083 13.936a.5.5 0 0 0 .575.271l25.795-6.553a.5.5 0 0 0 .377-.488c-.021-2.54.577-5.367 1.205-8.336.177-.837.356-1.686.525-2.542.707-3.593 1.216-7.306.399-10.694 6.541.607 13.516 1.233 19.449 1.299 3.076.035 5.889-.08 8.227-.431 2.321-.347 4.246-.937 5.484-1.902 3.85-3.003 7.571-8.567 10.684-14.685 3.11-6.11 5.647-12.838 7.123-18.278l3.83-6.673a.498.498 0 0 0-.176-.676l-4.524-2.71Z" fill="#42BDEB"/><path d="M122.379 304.563c-5.767.634-10.98-3.195-14.694-7.362-3.7-4.166-6.86-9.559-11.952-12.148-3.646-1.847-7.252-.35-7.252-.35s-4.403 4.018 5.348 11.231c6.05 4.719 19.826 11.42 24.647 12.499" fill="#2851A3"/><path d="M90.687 283.689c1.422-.15 3.339-.06 5.272.919v.001c2.632 1.338 4.746 3.39 6.651 5.601.888 1.031 1.737 2.104 2.572 3.159l.183.231c.897 1.133 1.78 2.241 2.694 3.27 3.689 4.138 8.753 7.803 14.265 7.197l.11.993c-6.021.661-11.383-3.332-15.122-7.527h-.001c-.936-1.054-1.835-2.182-2.731-3.314l-.18-.228c-.838-1.058-1.675-2.116-2.548-3.13-1.874-2.174-3.886-4.112-6.346-5.363-1.712-.867-3.421-.953-4.714-.816a9.44 9.44 0 0 0-1.555.296 7.342 7.342 0 0 0-.428.135l-.046.016-.065.076a2.928 2.928 0 0 0-.311.473c-.225.421-.442 1.057-.39 1.905.105 1.691 1.304 4.38 6.13 7.95l.01.008c2.985 2.329 7.906 5.166 12.7 7.561 4.803 2.4 9.404 4.319 11.748 4.844l-.218.974c-2.477-.554-7.175-2.525-11.978-4.925-4.809-2.403-9.798-5.274-12.863-7.663-4.92-3.642-6.395-6.567-6.527-8.688-.066-1.059.208-1.877.505-2.435.147-.277.3-.49.42-.635a2.847 2.847 0 0 1 .195-.217l.015-.014.006-.005.002-.002v-.001s.001-.001.339.368l-.192-.461.002-.001.003-.001.011-.005.037-.014.134-.05c.115-.04.28-.095.49-.154a10.453 10.453 0 0 1 1.72-.328Zm-2.206 1.014-.192-.461a.494.494 0 0 0-.146.092l.338.369Z" fill="#2851A3"/><path d="M114.965 312.451s.027 7.267 1.823 10.584c.149.27 1.702 1.618 4.133 2.414 1.634.552 2.539 1.725 2.174 2.305-5.389.095-10.359-1.82-12.465-6.512-.743-1.658-1.702-5.164-2.35-6.863-.635-1.699-3.755-3.384-3.755-3.384l4.133-2.346c2.822-1.403 5.631-4.692 6.158-5.663 2.31 1.456 4.795 2.103 7.563 1.577l-7.414 7.888Z" fill="#EBEBEB"/><path d="M114.69 302.503a.499.499 0 0 1 .393.061c2.222 1.401 4.579 2.007 7.203 1.509a.501.501 0 0 1 .458.832l-7.277 7.741.002.114c.005.202.012.495.028.858.03.726.089 1.727.203 2.83.231 2.225.679 4.771 1.519 6.334.004.005.019.024.051.057.048.05.118.117.212.198.187.161.453.367.793.592.678.449 1.634.964 2.801 1.345l.005.002c.887.3 1.6.775 2.051 1.285.224.254.401.535.486.825.087.294.089.634-.1.934a.494.494 0 0 1-.414.233c-5.489.097-10.708-1.856-12.931-6.807-.385-.859-.819-2.179-1.23-3.469l-.211-.664c-.339-1.067-.656-2.065-.92-2.756l-.001-.003c-.124-.334-.386-.7-.746-1.075a9.661 9.661 0 0 0-1.198-1.028 15.874 15.874 0 0 0-1.549-1l-.024-.013-.006-.003-.001-.001a.498.498 0 0 1-.009-.873l4.133-2.346.024-.013c1.342-.667 2.706-1.798 3.809-2.899 1.111-1.109 1.904-2.134 2.133-2.555a.498.498 0 0 1 .313-.245Zm-9.171 8.502c.274.174.602.392.942.643.444.327.917.716 1.325 1.14.403.419.769.9.961 1.415.275.72.603 1.754.941 2.819l.208.652c.415 1.303.832 2.565 1.19 3.364 1.931 4.302 6.434 6.196 11.53 6.22a1.534 1.534 0 0 0-.233-.336c-.319-.36-.875-.747-1.621-1a12.767 12.767 0 0 1-3.04-1.461 9.09 9.09 0 0 1-.895-.669 4.245 4.245 0 0 1-.28-.263 1.302 1.302 0 0 1-.197-.253l-.002-.003c-.95-1.755-1.411-4.491-1.643-6.722a47.873 47.873 0 0 1-.239-4.012l-.001-.063v-.022l.5-.003-.5.003a.498.498 0 0 1 .135-.344l6.469-6.882c-2.191.123-4.209-.462-6.094-1.561-.419.599-1.144 1.463-2.023 2.342-1.136 1.133-2.583 2.344-4.059 3.081l-3.374 1.915Zm89.059 1.811s14.384 2.184 22.905.715c6.402-1.106 7.82-5.164 7.239-7.74-.378-1.698-6.941-.957-10.628 1.241-3.768 2.238-11.385 5.622-19.516 5.784Z" fill="#2851A3"/><path d="M224.572 304.843c.3.186.554.46.638.84l-.488.109.488-.11c.321 1.422.086 3.229-1.085 4.825-1.176 1.602-3.259 2.946-6.556 3.516-4.327.746-10.107.562-14.773.199a132.97 132.97 0 0 1-7.652-.82 71.161 71.161 0 0 1-.474-.068l-.124-.018-.032-.004-.01-.002.074-.494-.074.494a.5.5 0 0 1 .064-.993c8.014-.159 15.545-3.501 19.27-5.714 1.918-1.143 4.553-1.895 6.753-2.148 1.1-.127 2.126-.134 2.921.014.396.074.765.191 1.06.374Zm-25.328 8.05c1.087.115 2.316.232 3.63.334 4.656.362 10.329.536 14.524-.188 3.104-.536 4.931-1.774 5.92-3.122.993-1.353 1.177-2.862.916-4.016v-.001c-.01-.044-.044-.119-.189-.209-.151-.093-.386-.179-.716-.241-.658-.122-1.574-.124-2.623-.003-2.098.241-4.588.96-6.356 2.014-3.081 1.83-8.707 4.42-15.106 5.432Zm-89.734-4.756a.502.502 0 0 0-.451-.187c-2.176.251-3.519.846-4.469 1.641-.757.631-1.246 1.383-1.69 2.064-.1.154-.198.305-.296.449a.497.497 0 0 0-.036.498l1.444 2.977c.86 1.796 3.541 6.622 5.049 8.73.734 1.028 1.586 2.202 2.61 3.17 1.028.971 2.258 1.765 3.757 1.995.825.129 2.04.141 3.538.124.493-.006 1.018-.014 1.576-.024 1.16-.019 2.46-.04 3.89-.04.556 0 .946-.118 1.177-.372a.74.74 0 0 0 .162-.273.495.495 0 0 0 .024-.31l-.001-.008-.006-.021s-.003-.014-.01-.032c-.2-.688-.699-1.265-1.265-1.733-.586-.485-1.292-.893-1.96-1.219a17.864 17.864 0 0 0-2.541-.997l-.044-.014-.012-.003-.003-.001-.002-.001a.534.534 0 0 0-.138-.019c-.73 0-1.446-.038-2.136-.158a6.847 6.847 0 0 1-1.781-.548c-.676-.324-1.218-.851-1.66-1.482a8.185 8.185 0 0 1-.772-1.397c-.683-1.545-1.018-3.377-1.368-5.287a120.27 120.27 0 0 0-.22-1.181c-.437-2.281-.998-4.605-2.366-6.341Z" fill="#2851A3"/><path d="M240.308 318.572c-2.485.836-13.857-.486-14.856-2.926-.999-2.44-1.189-7.429-1.972-13.672l-9.251 1.901c2.728 7.51 5.186 10.342 4.16 19.065 14.18-.755 25.727-1.779 21.919-4.368Z" fill="#EBEBEB"/><path d="M223.771 301.568a.496.496 0 0 1 .205.344c.237 1.888.422 3.679.59 5.31.109 1.058.211 2.049.316 2.956.271 2.343.563 4.132 1.033 5.279.068.167.256.385.634.631.367.24.865.473 1.468.693 1.204.439 2.763.801 4.386 1.063 1.619.263 3.283.423 4.691.467 1.434.045 2.528-.036 3.054-.213a.5.5 0 0 1 .441.061c.493.335.911.751.951 1.275.043.571-.371.971-.794 1.231-.446.274-1.076.505-1.83.709-.763.206-1.687.392-2.742.562-4.214.679-10.672 1.125-17.759 1.502a.5.5 0 0 1-.523-.556c.786-6.679-.488-9.776-2.393-14.41-.54-1.313-1.131-2.75-1.74-4.427a.497.497 0 0 1 .369-.659l9.251-1.901a.5.5 0 0 1 .392.083Zm-8.872 2.679a114.691 114.691 0 0 0 1.497 3.769c1.876 4.555 3.228 7.839 2.554 14.394 6.86-.371 13.027-.809 17.064-1.459a26.6 26.6 0 0 0 2.641-.541c.725-.195 1.244-.397 1.567-.595.16-.099.247-.181.289-.239a.166.166 0 0 0 .029-.052c.003-.007.003-.011.002-.015-.001-.026-.041-.16-.332-.391-.74.181-1.877.231-3.147.191a38.586 38.586 0 0 1-4.82-.479c-1.656-.268-3.283-.642-4.569-1.111-.643-.234-1.217-.498-1.672-.795-.446-.29-.832-.647-1.013-1.089-.53-1.294-.832-3.219-1.101-5.542a246.42 246.42 0 0 1-.32-2.997c-.15-1.462-.313-3.039-.518-4.724l-8.151 1.675Z" fill="#2851A3"/><path d="M185.642 312.482c3.018.595 6.085.906 9.16.928a33.767 33.767 0 0 0 18.27-5.191 16.105 16.105 0 0 1 11.58-2.087.492.492 0 0 0 .439-.128.488.488 0 0 0 .151-.431c-.07-.489-7.38-48.799-11.18-62.247-6.45-22.932-14.55-43.738-27.08-69.585a.484.484 0 0 0-.231-.235.499.499 0 0 0-.329-.035l-24.21 5.481a.596.596 0 0 0-.27.17c-8.63 10.473-11.25 24.28-13.18 37.528a123.7 123.7 0 0 0-.63 5.122c-.78 6.998-1.67 14.925-6.72 25.837-7.617 6.997-16.963 12.635-26.008 18.091l-.172.103c-7.152 4.316-14.537 8.773-21.02 13.873-2.84 2.196-6 4.732-6 4.732a.502.502 0 0 0-.11.636.503.503 0 0 0 .61.213 9.017 9.017 0 0 1 6.84.339c3.63 1.837 6.3 5.212 8.88 8.476a66.396 66.396 0 0 0 2.92 3.554c3.39 3.824 8.78 8.227 15.12 7.528a.468.468 0 0 0 .33-.17c.27-.319 27-32.087 35-47.651a132.256 132.256 0 0 0 6.09-15.055c.283-.752.552-1.505.821-2.255.234-.655.467-1.307.709-1.958 2.39-6.32 4.8-11.921 7.39-17.841.68-1.497 1.33-2.965 2-4.492 1.24 1.557 4.45 5.451 9.6 11.64a59.224 59.224 0 0 1 12.73 25.558l-.016.278c-.162 2.809-1.282 22.161-3.664 32.668-1.62 7.091-7.186 23.148-8.048 25.633l-.112.324a.498.498 0 0 0 0 .409.54.54 0 0 0 .145.156.538.538 0 0 0 .195.084Z" fill="#4C88FF"/><path d="M219.545 328.299a.488.488 0 0 0 .275.08h.06c1.529-.259 3.039-.482 4.539-.702l.181-.027a93.034 93.034 0 0 0 13.13-2.586 43.572 43.572 0 0 0 9.82-4.662.993.993 0 0 0 .5-1.188c-.29-.998-2.1-1.767-3.53-1.767a29.762 29.762 0 0 0-3.63.199l-.267.025c-.884.081-1.694.155-2.603.155a.51.51 0 0 0-.477.285.503.503 0 0 0 .427.714 3.35 3.35 0 0 1 1.06.269 2.74 2.74 0 0 1-.69.449c-3.27 1.678-10.63 1.188-16 .819-.413-.026-.821-.056-1.218-.084-.964-.07-1.863-.136-2.622-.136a.504.504 0 0 0-.49.34 6.884 6.884 0 0 0 .28 5.191c.48 1.029 1.07 2.406 1.07 2.406a.49.49 0 0 0 .185.22ZM166.25 196.348a.498.498 0 0 1 .494.504c-.039 3.677 1.333 7.306 3.317 10.562 1.999 3.259 4.588 6.179 7.199 9.11a.499.499 0 1 1-.747.663c-2.602-2.92-5.253-5.905-7.305-9.253l-.001-.001c-2.041-3.35-3.505-7.164-3.463-11.091a.5.5 0 0 1 .506-.494Zm20.468-53.824a.502.502 0 0 1 .636.311c.662 1.931 1.355 4.189 1.564 6.26a.5.5 0 0 1-.995.1c-.197-1.948-.855-4.112-1.515-6.037a.498.498 0 0 1 .31-.634Zm7.254 99.1a.5.5 0 0 1 .634.312 167.92 167.92 0 0 1 4.606 16.052.5.5 0 0 1-.974.226 167.143 167.143 0 0 0-4.579-15.957.499.499 0 0 1 .313-.633Zm-51.996 5.76a.5.5 0 0 1 .214.673l-4.525 8.71a.5.5 0 0 1-.887-.46l4.524-8.71a.5.5 0 0 1 .674-.213Z" fill="#2851A3"/><path d="M333.333 160.779a4.496 4.496 0 0 0-4.5-4.492h-90.649a4.495 4.495 0 0 0-4.5 4.492v106.596a4.495 4.495 0 0 0 4.5 4.492h90.649c2.485 0 4.5-2.011 4.5-4.492V160.779Zm-4.5-3.494c1.933 0 3.5 1.564 3.5 3.494v106.596a3.497 3.497 0 0 1-3.5 3.494h-90.649a3.497 3.497 0 0 1-3.5-3.494V160.779a3.497 3.497 0 0 1 3.5-3.494h90.649Z" fill="#E0E0E0"/><path d="M249.477 197.49a.5.5 0 0 0 .5.499h38a.5.5 0 1 0 0-.998h-38a.5.5 0 0 0-.5.499Zm0 13.811c0-.276.223-.499.5-.499h21a.5.5 0 1 1 0 .998h-21a.499.499 0 0 1-.5-.499Zm54.17-47.129a2.498 2.498 0 0 0-2.5 2.496 2.497 2.497 0 0 0 2.5 2.495c1.38 0 2.5-1.117 2.5-2.495a2.499 2.499 0 0 0-2.5-2.496Zm-3.5 2.496a3.497 3.497 0 0 1 3.5-3.494c1.933 0 3.5 1.564 3.5 3.494a3.497 3.497 0 0 1-3.5 3.494 3.497 3.497 0 0 1-3.5-3.494Zm13.5-2.496a2.497 2.497 0 0 0-2.5 2.495 2.497 2.497 0 0 0 2.5 2.496c1.38 0 2.5-1.117 2.5-2.496a2.498 2.498 0 0 0-2.5-2.495Zm-3.5 2.495a3.497 3.497 0 0 1 3.5-3.494c1.933 0 3.5 1.565 3.5 3.494a3.497 3.497 0 0 1-3.5 3.494 3.497 3.497 0 0 1-3.5-3.494Zm13.5-3.493a3.497 3.497 0 0 0-3.5 3.494 3.497 3.497 0 0 0 3.5 3.494c1.933 0 3.5-1.564 3.5-3.494a3.497 3.497 0 0 0-3.5-3.494Z" fill="#E0E0E0"/><path d="M248.977 244.636c0-3.983 3.235-7.212 7.224-7.212h54.597c3.989 0 7.224 3.229 7.224 7.212 0 3.984-3.235 7.213-7.224 7.213h-54.597c-3.989 0-7.224-3.229-7.224-7.213Z" fill="#41CCB9"/><path d="M18 329.501a.5.5 0 0 1 .5-.5h321a.5.5 0 0 1 0 .999h-321a.5.5 0 0 1-.5-.499Z" fill="#E0E0E0"/><defs><filter id="ud6qtxwxx89a" x="227.184" y="150.186" width="47" height="38.81" filterUnits="userSpaceOnUse" color-interpolation-filters="sRGB"><feFlood flood-opacity="0" result="BackgroundImageFix"/><feBlend in="SourceGraphic" in2="BackgroundImageFix" result="shape"/><feGaussianBlur stdDeviation="3.5" result="effect1_foregroundBlur"/></filter></defs></svg>