<svg width="260" height="163" viewBox="0 0 260 163" fill="none" xmlns="http://www.w3.org/2000/svg"><path d="M15.5 20a4.5 4.5 0 0 1 4.5-4.5h220a4.5 4.5 0 0 1 4.5 4.5v123a4.5 4.5 0 0 1-4.5 4.5H20a4.5 4.5 0 0 1-4.5-4.5V20Zm4.5-3.5a3.5 3.5 0 0 0-3.5 3.5v123a3.5 3.5 0 0 0 3.5 3.5h220a3.5 3.5 0 0 0 3.5-3.5V20a3.5 3.5 0 0 0-3.5-3.5H20Z" fill="#0C296E"/><path d="M23.5 115a.5.5 0 0 1 .5-.5h96a.5.5 0 0 1 0 1H24a.5.5 0 0 1-.5-.5Zm0 12a.5.5 0 0 1 .5-.5h67a.5.5 0 0 1 0 1H24a.5.5 0 0 1-.5-.5Z" fill="#0C296E"/><path d="M96 47a4 4 0 0 1 4-4h130a4 4 0 0 1 4 4v43a4 4 0 0 1-4 4H100a4 4 0 0 1-4-4V47ZM61.98 69.849a11.59 11.59 0 0 1-11.607 11.606 11.59 11.59 0 0 1-11.606-11.606 11.59 11.59 0 0 1 11.606-11.607v-12.69C36.91 45.553 26 56.463 26 69.927 26 83.39 36.91 94.3 50.373 94.3c13.464 0 24.374-10.91 24.374-24.373H61.98v-.077Z" fill="#BBBFC4" fill-opacity=".45"/><path d="M232.497 26h-8.481v8.481h8.481V26Zm-15.548 0H173v8.481h43.949V26Z" fill="#14C0FF"/><path d="M29 29a2 2 0 1 0 0-4 2 2 0 0 0 0 4Zm3-2a3 3 0 1 1-6 0 3 3 0 0 1 6 0Zm7 2a2 2 0 1 0 0-4 2 2 0 0 0 0 4Zm3-2a3 3 0 1 1-6 0 3 3 0 0 1 6 0Zm7 3a3 3 0 1 0 0-6 3 3 0 0 0 0 6Z" fill="#0C296E"/><path d="M52.927 43v12.767a11.59 11.59 0 0 1 11.606 11.606H77.3C77.223 53.91 66.313 43 52.927 43Z" fill="#00D6B9"/><path d="m199.3 127.939-24.08.03a676.92 676.92 0 0 0-7.75 18.54h42.48c-4.1-10.29-10.65-18.57-10.65-18.57Z" fill="#0C296E"/><path d="m199.7 127.63-.39.31.39-.31.02.03.06.07c.05.06.12.16.22.28.19.25.46.62.81 1.09.68.94 1.64 2.31 2.72 3.99 2.16 3.37 4.84 8.04 6.91 13.22a.5.5 0 0 1-.46.68H167.5c-.17 0-.32-.08-.42-.22a.492.492 0 0 1-.05-.47c2.63-6.56 5.26-12.84 7.75-18.55.08-.18.26-.3.46-.3l24.08-.03c.14.02.28.09.38.21Zm-.64.81-23.51.03c-2.36 5.42-4.84 11.35-7.34 17.54h41c-2-4.83-4.5-9.18-6.54-12.37a79.473 79.473 0 0 0-2.69-3.95c-.34-.46-.61-.82-.79-1.07-.05-.07-.09-.13-.13-.18Z" fill="#0C296E"/><path d="m220.37 108.221 2.41 27.6-.2 8.73c-.03 1.09.51 1.95-.58 1.95h-7c-1.03 0-.94-.79-1.04-1.81l-.81-8.6-4.91-26.12c-.21-1.11-.36-1.801.76-1.971l9.5-1.5c1.13-.16 1.76.571 1.87 1.721Z" fill="#fff"/><path d="M220.49 105.709c.11.08.18.21.19.35l2.6 29.72v.06l-.25 10.67h-1l.25-10.67-2.55-29.16-11.29 1.68 5.2 27.65c0 .02.01.03.01.05l.99 10.46h-1l-.98-10.34-5.29-28.13c-.02-.13.01-.27.08-.38.08-.11.2-.18.33-.2l12.33-1.84c.13-.05.27-.01.38.08Z" fill="#0C296E"/><path d="M216.95 135.68a.5.5 0 0 1 .23.67l-1.15 2.33a.5.5 0 1 1-.9-.44l1.15-2.33c.13-.25.43-.35.67-.23Z" fill="#0C296E"/><path d="M123.39 81.64c-1.37-1.37-2.45-2.47-2.89-2.35 1.5 2.31 11.94 15.23 12.45 16.96l17.2 29.7c4.76 8.87 13.16 7.06 15.71 1.51 2.55-5.54 4.53-16.85 4.53-16.85l.97-3.34-11.84-2.12-2.36 13.26-18.72-24.88s-1.72-3.06-2.15-4.24c-.11-.3 1.13-6.45 1.13-6.45s-1.11-5.38-1.51-7.64c-1.41.96-1.21 5.77-1.62 6.7 0 0-3.57-4.66-5.88-7.61-1.68-2.14-2.84-3.65-4.18-3.74-1.19-.09-2.51.5-2.92 1.61-.25.69-.12 1.45.02 2.17.38 2.03 1.41 5.38 2.06 7.31Z" fill="#fff"/><path d="M158.74 132.619c-3.55 0-6.83-2.33-9.03-6.43l-17.19-29.68c-.02-.04-.04-.07-.05-.11-.29-1-4.92-7-7.99-10.98-2.06-2.67-3.84-4.98-4.4-5.85a.51.51 0 0 1-.05-.45c.05-.15.18-.26.33-.3.48-.14 1.01.19 1.93 1.05-.55-1.77-1.17-3.95-1.45-5.44-.13-.71-.3-1.6 0-2.44.51-1.4 2.11-2.05 3.42-1.94 1.54.11 2.78 1.68 4.49 3.86 1.73 2.21 4.11 5.3 5.26 6.79.03-.25.05-.52.08-.79.18-1.94.41-4.36 1.55-5.13a.495.495 0 0 1 .77.32c.4 2.23 1.5 7.57 1.51 7.63.01.07.01.13 0 .2-.46 2.29-1.11 5.67-1.13 6.24.45 1.18 2.08 4.08 2.09 4.11l17.99 23.91 2.16-12.13c.02-.13.1-.25.21-.32.11-.08.24-.1.37-.08l11.84 2.12c.14.03.26.11.34.23.08.12.09.27.05.4l-.97 3.34c-.07.41-2.01 11.38-4.56 16.92-1.34 2.9-4.21 4.84-7.33 4.94-.08.01-.16.01-.24.01Zm-25.33-36.57 17.18 29.65c2.07 3.86 5.12 5.99 8.37 5.91 2.74-.08 5.27-1.79 6.45-4.36 2.49-5.42 4.47-16.61 4.5-16.73l.83-2.86-10.8-1.93-2.27 12.77c-.04.2-.18.35-.38.4-.2.04-.4-.03-.52-.19l-18.72-24.88c-.11-.18-1.78-3.17-2.22-4.37-.05-.15-.16-.42 1.09-6.62-.13-.62-.82-4.01-1.26-6.33-.33.98-.47 2.48-.57 3.5-.1 1.09-.17 1.72-.33 2.09a.49.49 0 0 1-.4.29.53.53 0 0 1-.46-.19s-3.57-4.66-5.88-7.61c-1.6-2.04-2.72-3.47-3.82-3.55-.92-.06-2.08.36-2.41 1.29-.21.58-.08 1.29.04 1.91.39 2.07 1.46 5.52 2.04 7.24.07.22-.01.46-.21.58-.14.09-.31.1-.46.03.63.82 1.33 1.74 2.08 2.71 4.48 5.83 7.7 10.06 8.13 11.25Z" fill="#0C296E"/><path d="M128.34 77.23c-1.11-1.62-3.36-4.91-4.46-6.53l4.46 6.53Z" fill="#fff"/><path d="M128.34 77.73a.49.49 0 0 1-.41-.22l-4.46-6.53c-.16-.23-.1-.54.13-.69.23-.15.54-.1.69.13l4.46 6.53a.5.5 0 0 1-.13.7c-.09.05-.19.08-.28.08Z" fill="#0C296E"/><path d="M126.05 78.97c-1.07-1.95-2.94-4.77-3.92-6.77l3.92 6.77Z" fill="#fff"/><path d="M126.05 79.47a.49.49 0 0 1-.44-.26c-.43-.79-1-1.72-1.59-2.7-.86-1.42-1.75-2.88-2.34-4.08a.5.5 0 1 1 .9-.44c.57 1.16 1.45 2.61 2.3 4.01.6.99 1.17 1.93 1.62 2.74.13.24.04.55-.2.68-.09.03-.17.05-.25.05Z" fill="#0C296E"/><path d="M129.46 77.51c-1.24.86-2.51 1.7-3.8 2.5l3.8-2.5Z" fill="#fff"/><path d="M125.67 80.51a.47.47 0 0 1-.42-.24.504.504 0 0 1 .16-.69 94.46 94.46 0 0 0 3.78-2.49.5.5 0 0 1 .7.13.5.5 0 0 1-.13.7 86.3 86.3 0 0 1-3.82 2.51.47.47 0 0 1-.27.08Zm7.61 4.86c-.03 0-.05 0-.08-.01a.505.505 0 0 1-.42-.57c.14-.93.47-1.96 1.07-3.35.11-.25.4-.37.66-.26.25.11.37.4.26.66-.56 1.29-.88 2.28-1 3.11-.04.25-.25.42-.49.42Zm-3.66.55c-.07 0-.13-.01-.2-.04-1.22-.52-2.6-1.11-3.9-1.77a5.97 5.97 0 0 1-1.35-.99L123.04 82c-.2-.19-.2-.51 0-.71.19-.2.51-.2.71 0l1.13 1.12c.36.35.73.63 1.1.82 1.27.65 2.58 1.2 3.84 1.74.25.11.37.4.26.66-.08.17-.26.29-.46.29Zm29.13 35.059c-.15 0-.3-.07-.4-.2l-1.58-2.06a.496.496 0 0 1 .09-.7c.22-.17.53-.13.7.09l1.58 2.06c.17.22.13.53-.09.7-.09.07-.19.11-.3.11ZM189.16 41.5c-7.75 0-14.08 6.32-14.08 14.05v19.54h28.16V55.55c0-7.73-6.34-14.05-14.08-14.05Z" fill="#0C296E"/><path d="M174.58 55.55c0-8 6.56-14.55 14.58-14.55s14.58 6.55 14.58 14.55v19.54c0 .28-.22.5-.5.5h-28.16c-.28 0-.5-.22-.5-.5V55.55ZM189.16 42c-7.47 0-13.58 6.1-13.58 13.55v19.04h27.16V55.55c0-7.45-6.11-13.55-13.58-13.55Z" fill="#0C296E"/><path d="M203.03 83.72c0-.96-.7-1.78-1.63-2.02-5.87-1.52-5.37-4.36-5.27-10.35.01-.88-.56-1.65-1.39-1.91l-8.99-2.79c-1.29-.4-2.59.57-2.59 1.92.03 8.82.01 11.1-3.62 12.69-.8.35-1.36 1.11-1.34 1.99l.06 3.32c.02 1.11.94 1.99 2.04 1.96l20.77-.48a1.99 1.99 0 0 0 1.95-2v-2.33h.01Z" fill="#fff"/><path d="M182.86 65.44c.13-.09.29-.12.44-.07l12.99 4.03c.21.07.35.26.35.48 0 .95-.02 1.83-.04 2.64v.02c-.02.81-.03 1.54-.03 2.21.01 1.37.11 2.44.43 3.31.61 1.65 2.09 2.76 6.11 3.51.24.04.41.25.41.49V88c0 .27-.22.49-.49.5l-24.74.57c-.13 0-.26-.05-.36-.14a.47.47 0 0 1-.15-.35l-.13-6.79c0-.22.13-.41.34-.48 1.34-.45 2.26-.89 2.9-1.44.63-.54 1.04-1.23 1.3-2.27.27-1.05.38-2.44.43-4.36.03-1.34.02-2.92.02-4.8 0-.81-.01-1.67-.01-2.59.02-.17.1-.31.23-.41Zm.79 1.08c0 .66 0 1.29.01 1.89 0 1.89.01 3.48-.02 4.84-.04 1.93-.16 3.42-.46 4.59-.3 1.19-.8 2.07-1.62 2.78-.73.63-1.68 1.09-2.89 1.51l.11 5.93 23.74-.54v-5.04c-3.83-.77-5.68-1.97-6.46-4.07-.38-1.04-.48-2.26-.49-3.65 0-.69.01-1.44.03-2.23v-.03c.02-.7.03-1.45.04-2.25l-11.99-3.73Z" fill="#0C296E"/><path d="M199.38 58.25c.51-.65 1.41-.55 1.86-.18.76.64.67 1.69.55 2.34-.3 1.67-1.68 3.48-3.48 3.96" fill="#fff"/><path d="M200.34 58.27c-.22.01-.42.09-.57.28-.17.22-.48.26-.7.09a.496.496 0 0 1-.09-.7c.36-.46.86-.65 1.33-.67.46-.01.92.14 1.24.41.5.42.71.98.78 1.49.07.5 0 .99-.06 1.33-.33 1.83-1.82 3.82-3.85 4.36a.5.5 0 0 1-.61-.35.5.5 0 0 1 .35-.61c1.58-.42 2.85-2.05 3.12-3.57.06-.31.1-.67.05-1.02-.05-.34-.17-.63-.43-.85-.11-.11-.32-.19-.56-.19Z" fill="#0C296E"/><path d="M189 45.3h-.02c-6.1 0-11.03 4.9-11.03 10.93 0 6.03 0 10.93 11.03 10.93h.02c11.03 0 10.98-4.37 10.98-10.41 0-6.03-4.88-11.45-10.98-11.45Z" fill="#fff"/><path d="M178.94 58.25c-.51-.65-1.41-.55-1.86-.18-.77.64-.67 1.69-.55 2.34.3 1.67 1.68 3.48 3.49 3.96" fill="#fff"/><path d="M178 57.27c.47.01.97.21 1.33.67.17.22.13.53-.09.7-.22.17-.53.13-.7-.09a.705.705 0 0 0-.57-.28.882.882 0 0 0-.57.18c-.26.22-.39.51-.43.85-.05.35 0 .71.05 1.02.27 1.52 1.54 3.15 3.12 3.57.27.07.43.34.36.61-.07.27-.35.43-.61.35-2.02-.54-3.52-2.53-3.85-4.36-.06-.34-.12-.83-.06-1.33.07-.51.28-1.06.78-1.49.32-.26.78-.41 1.24-.4Z" fill="#0C296E"/><path d="M178.94 58.25c0 3.54.53 5.86 1.42 8.16 1.38 3.59 3.51 4.93 5.49 5.99 3.29 1.77 7.43 1.29 9.98-1.13 3.68-3.49 4.43-8.99 4.15-14.51" fill="#fff"/><path d="M199.96 56.25c.28-.01.51.2.52.47.28 5.54-.46 11.24-4.31 14.89-2.72 2.58-7.1 3.07-10.56 1.21-2.02-1.09-4.27-2.5-5.71-6.25-.91-2.35-1.46-4.74-1.46-8.34 0-.28.22-.5.5-.5s.5.22.5.5c0 3.48.52 5.74 1.39 7.98 1.32 3.43 3.33 4.69 5.26 5.73 3.11 1.67 7.02 1.21 9.4-1.06 3.51-3.33 4.27-8.63 4-14.12-.02-.26.19-.49.47-.51Zm-10.18-11.92c-6.32 0-11.49 5.16-11.49 11.47v.43h6.47l1.1-5.63 1.14 5.63h14.28v-.43c-.01-6.31-5.18-11.47-11.5-11.47Z" fill="#0C296E"/><path d="M177.79 55.8c0-6.59 5.4-11.97 11.99-11.97s11.99 5.38 11.99 11.97v.43c0 .28-.22.5-.5.5H187c-.24 0-.44-.17-.49-.4l-.64-3.16-.62 3.16c-.05.23-.25.4-.49.4h-6.47c-.28 0-.5-.22-.5-.5v-.43Zm1-.06h5.56l1.02-5.22c.05-.23.25-.4.49-.4s.44.17.49.4l1.06 5.23h13.37c-.04-6-4.97-10.9-10.99-10.9-6.03-.02-10.96 4.88-11 10.89Z" fill="#0C296E"/><path d="M181.65 52.94h-3.36v23.88h3.36V52.94Z" fill="#0C296E"/><path d="M177.79 52.94c0-.28.22-.5.5-.5h3.36c.28 0 .5.22.5.5v23.88c0 .28-.22.5-.5.5h-3.36c-.28 0-.5-.22-.5-.5V52.94Zm1 .5v22.88h2.36V53.44h-2.36Zm12.38 5.33c.28-.02.52.19.54.46l.39 5.11c.02.28-.19.52-.46.54a.51.51 0 0 1-.54-.46l-.39-5.11c-.02-.28.19-.52.46-.54Z" fill="#0C296E"/><path d="M221.15 95.59c-.8-4.78-3.54-8.84-8.77-10.44l-9.55-3.69c-7.95 3.82-15.75 4.56-23.28-.25l-10.65 4.34c-4.47 1.64-7.65 5.52-8.25 10.09l-1.61 9.461 10.47 1.9 5.85 22.09 25.04-.03 7.62-25.1.84 3.97 13.25-1.9-.96-10.44Z" fill="#FFC60A"/><path d="M179.36 80.74c.15-.06.32-.05.46.04 7.34 4.69 14.95 3.99 22.8.22.12-.06.27-.07.4-.02l9.53 3.68c5.43 1.67 8.28 5.9 9.1 10.83v.04l.96 10.451c.03.27-.16.5-.43.54l-13.25 1.9a.493.493 0 0 1-.56-.39l-.44-2.07-7.05 23.23c-.06.21-.26.35-.48.36l-25.04.03c-.23 0-.43-.15-.48-.37l-5.77-21.78-10.16-1.85a.489.489 0 0 1-.4-.57l1.6-9.45c.63-4.75 3.93-8.77 8.56-10.48l10.65-4.34Zm.14 1.03-10.42 4.25s-.01 0-.02.01c-4.31 1.58-7.35 5.31-7.92 9.68v.02l-1.52 8.971 9.99 1.82c.19.03.34.18.39.36l5.75 21.71 24.28-.03 7.51-24.74c.07-.22.27-.36.5-.35a.5.5 0 0 1 .47.4l.74 3.51 12.32-1.76-.91-9.96c-.78-4.63-3.41-8.49-8.42-10.03-.01 0-.02-.01-.03-.01L202.85 82c-7.91 3.75-15.76 4.51-23.35-.23Z" fill="#FFC60A"/><path d="M172.57 94.3c.25.11.37.41.26.66l-2.3 5.2a9.784 9.784 0 0 0-.6 6.06l2.49 11.15a.503.503 0 0 1-.98.22l-2.49-11.15c-.5-2.24-.27-4.58.66-6.69l2.3-5.2c.11-.25.4-.36.66-.25Zm33.14 5.811c.27-.07.54.08.61.35l2.1 7.77a.5.5 0 0 1-.35.61.5.5 0 0 1-.61-.35l-2.1-7.77c-.08-.27.08-.54.35-.61Z" fill="#0C296E"/></svg>