<svg width="350" height="350" viewBox="0 0 350 350" fill="none" xmlns="http://www.w3.org/2000/svg"><path d="M327.5 292.902V328.4H190.988c19.484 0 26.558-7.607 36.238-11.376 8.066-3.152 16.133-2.33 20.104-1.85 7.694.822 14.768.891 21.346-1.165 5.708-1.782 8.438-4.866 11.665-7.607 3.227-2.741 7.943-5.619 14.644-6.099 6.702-.479 14.148 1.508 19.856-.068 6.578-1.782 12.659-7.333 12.659-7.333Z" fill="#42BDEB"/><path d="M108.488 45.498c0-4.693 3.808-8.498 8.505-8.498h202.503c4.697 0 8.504 3.805 8.504 8.498v134.514a.5.5 0 0 1-1 0V45.498A7.501 7.501 0 0 0 319.496 38H116.993a7.5 7.5 0 0 0-7.504 7.498v79.652c0 .115-.04.227-.114.317l-20.499 24.979a.5.5 0 1 1-.773-.634l20.385-24.841V45.498Zm-13.05 122.375a.5.5 0 0 1 .5-.5h13.05a.5.5 0 0 1 .501.5v32.635a.5.5 0 0 1-1.001 0v-32.135h-12.55a.5.5 0 0 1-.5-.5Zm28.784 57.064a.5.5 0 0 1 .5-.5h125.82a.5.5 0 0 1 0 1h-125.82a.5.5 0 0 1-.5-.5Z" fill="#E0E0E0"/><path d="M129.8 59.45a4 4 0 0 1 4.002-3.999h46.025a4 4 0 0 1 4.002 4v31.992a4 4 0 0 1-4.002 4h-46.025a4 4 0 0 1-4.002-4V59.45Z" fill="#41CCB9"/><path d="M241.615 55.451H195.59a4 4 0 0 0-4.003 4v31.992a4 4 0 0 0 4.003 4h46.025a4 4 0 0 0 4.002-4V59.45a4 4 0 0 0-4.002-3.999Z" fill="#FAC823"/><g clip-path="url(#udfr8gna3mya)"><path d="M212.865 90.671c1.719-.558 1.39-4.627 1.467-9.255h9.809c-.12 7.943-.23 8.249 1.357 9.091" fill="#EBEBEB"/><path d="M213.831 81.408a.501.501 0 0 1 .501-.492h9.809a.5.5 0 0 1 .5.508l-.021 1.361c-.05 3.112-.076 4.782.055 5.773.073.547.186.812.32.983.139.179.341.314.738.525a.5.5 0 1 1-.469.882c-.397-.21-.776-.43-1.059-.793-.289-.371-.438-.838-.522-1.465-.142-1.07-.114-2.828-.064-5.892l.014-.882h-8.808c-.006.573-.007 1.14-.009 1.694-.003 1.48-.006 2.863-.104 4.002-.072.848-.199 1.612-.439 2.213-.241.605-.627 1.118-1.254 1.322a.5.5 0 1 1-.309-.951c.233-.076.45-.281.633-.74.185-.464.303-1.11.373-1.929.093-1.098.096-2.41.099-3.861.002-.722.004-1.477.016-2.258Z" fill="#2851A3"/><path d="M214.092 87.858a.502.502 0 0 0-.576.005c-.219.156-.587.329-1.101.516-.507.185-1.119.371-1.806.568-.383.11-.789.223-1.21.34-1.075.3-2.247.626-3.376.995-1.57.513-3.116 1.125-4.276 1.903-1.153.774-2.033 1.787-2.033 3.118a.5.5 0 0 0 .5.5h36.775a.5.5 0 0 0 .5-.5c0-1.336-.803-2.362-1.889-3.151-1.085-.789-2.528-1.4-3.992-1.907a68.145 68.145 0 0 0-3.193-.991c-.377-.11-.741-.217-1.085-.32a25.117 25.117 0 0 1-1.686-.557c-.481-.184-.824-.353-1.03-.508l-.3.4-.312-.39a7.909 7.909 0 0 1-9.419.319l-.491-.34Z" fill="#2851A3"/><path d="M219.685 66.287s.011 0 0 0h.011c4.193 0 7.587 3.369 7.587 7.526s.219 5.535-7.368 5.535c0 0-.219 1.991-.23 1.991h-.011c-7.587 0-7.554-3.008-7.554-7.165.022-4.157 3.383-7.887 7.565-7.887Z" fill="#EBEBEB"/><path d="M225.784 74.765c.35-.514.985-.437 1.291-.142.537.503.471 1.324.384 1.827-.208 1.313-1.15 3.096-2.42 3.096" fill="#EBEBEB"/><path d="M226.463 74.89a.323.323 0 0 0-.266.157.5.5 0 0 1-.827-.563 1.32 1.32 0 0 1 1.059-.593c.37-.012.737.127.991.37.38.357.53.813.578 1.216.048.4.001.785-.046 1.055a5.713 5.713 0 0 1-.893 2.242c-.454.66-1.138 1.272-2.02 1.272a.5.5 0 0 1 0-1c.389 0 .811-.279 1.196-.839a4.72 4.72 0 0 0 .73-1.835l.001-.007c.04-.233.07-.508.039-.769-.031-.257-.116-.462-.272-.608l-.005-.005a.383.383 0 0 0-.265-.092Z" fill="#2851A3"/><path d="M225.816 77.028c0 2.166-.493 3.042-.92 4.496-.678 2.33-2.222 3.02-3.481 3.665-2.08 1.083-4.861.788-6.481-.689-2.332-2.144-2.803-6.334-2.803-9.835" fill="#EBEBEB"/><path d="M212.132 74.165a.5.5 0 0 1 .5.5c0 1.733.117 3.613.514 5.313.398 1.705 1.065 3.178 2.126 4.153 1.452 1.322 4.001 1.61 5.912.615l.003-.002.167-.085c1.215-.62 2.476-1.262 3.062-3.274l.001-.001c.1-.34.2-.644.296-.932.33-.994.603-1.818.603-3.424a.5.5 0 0 1 1.001 0c0 1.779-.328 2.764-.668 3.784-.092.276-.185.555-.272.853-.709 2.431-2.315 3.248-3.549 3.875l-.183.093c-2.249 1.17-5.259.867-7.048-.764l-.001-.001c-1.271-1.168-2.005-2.863-2.425-4.663-.421-1.806-.54-3.771-.54-5.54a.5.5 0 0 1 .501-.5Z" fill="#2851A3"/><path d="M218.099 62.925c-.953-.241-2.076-.207-2.99.354l-.006.004c-.419.267-.822.662-1.003 1.207-.169.45-.077.874.062 1.19-.955.186-1.868.717-2.633 1.464-.567.555-.938 1.078-1.161 1.685-.22.598-.281 1.24-.292 2.001a.499.499 0 0 0 .495.507l.542.006a12.718 12.718 0 0 0 .272 2.867 12.364 12.364 0 0 0 .358 1.35l.027.08.008.022.003.006v.002l.001.001a.5.5 0 0 0 .957-.064l.975-4.348 10.188-.04.018.116c.055.337.139.795.259 1.277.119.479.278.997.484 1.447.157.342.364.695.642.951l.01 2.339a.5.5 0 0 0 .945.227c.839-1.621 1.475-3.54 1.642-5.392.166-1.838-.127-3.67-1.222-5.054-.913-1.361-2.34-2.053-3.49-2.407a9.607 9.607 0 0 0-1.936-.378c-.438-.388-.99-.678-1.517-.895a11.928 11.928 0 0 0-1.638-.525Zm-7.506 7.413h-.012l-.005.5c.003-.176.008-.342.017-.5Zm.011.5.472.007v-.002l-.472-.005Z" fill="#2851A3"/></g><g clip-path="url(#udpc5q3azm1b)"><path d="M150.095 69.01c.533-1.385 1.303-2.72 2.858-3.72 2.966-1.974 6.665-1.519 9.251.096l.007.005c2.194 1.425 3.176 3.306 3.604 5.867v.004c.186 1.158.765 2.075 1.441 3.044l.201.286c.611.868 1.274 1.81 1.623 2.953l.004.017c.22.823.247 1.666.272 2.442l.001.026c.026.801.052 1.535.238 2.237.233.786.653 1.471 1.162 2.153.228.306.469.605.717.912l.09.112a23.354 23.354 0 0 1 .848 1.104c.632 1.052 1.224 2.518.986 3.83l-.006.027-.003.011a7.65 7.65 0 0 1-.373 1.04l-.002.004c-.125.297-.187.453-.201.569-.003.022-.003.037-.003.045l.002.012.005.009a.225.225 0 0 0 .03.034c.083.079.282.198.729.347a.499.499 0 0 1-.166.974c-3.126-.05-6.227-.102-9.327-.153l-9.327-.154h-.01c-2.862-.102-10.03-.205-14.024-.205a.501.501 0 0 1-.478-.353c-.168-.545.059-1.125.327-1.596.282-.499.696-1.022 1.116-1.513.235-.274.495-.564.739-.837.18-.2.351-.392.499-.561.382-.44.631-.763.724-.967l.008-.017c.398-.795.555-1.258.633-1.728.06-.356.076-.715.099-1.237.01-.213.021-.453.036-.73l.001-.015c.112-1.34.617-2.394 1.246-3.355.299-.459.632-.904.961-1.344l.038-.052c.345-.462.688-.923 1.011-1.42l.004-.005c1.163-1.743 1.664-4.001 1.97-6.242l.002-.015.003-.016c.101-.604.209-1.251.426-1.903l.008-.022Z" fill="#2851A3"/><path d="M163.687 87.712c-.486-.18-.835-.344-1.047-.495a.5.5 0 0 0-.291-.093H152.1a.5.5 0 0 0-.3.1c-.194.145-.526.303-1.005.476-.47.17-1.039.34-1.682.522l-.721.202c-1.115.31-2.372.661-3.584 1.095-1.479.529-2.941 1.197-4.04 2.11-1.111.922-1.878 2.12-1.878 3.676a.5.5 0 0 0 .5.5h35.669a.5.5 0 0 0 .5-.5c0-1.498-.767-2.662-1.865-3.568-1.088-.898-2.538-1.575-4.009-2.12-1.216-.45-2.48-.822-3.604-1.152l-.695-.205a28.97 28.97 0 0 1-1.699-.548Z" fill="#4C88FF"/><path d="M152.203 87.52c.512-.409 1.332-1.33 1.332-5.632l7.892-5.223c-.102 6.452-.615 9.831.82 10.753-3.177 3.073-7.175 2.97-10.044.103Z" fill="#EBEBEB"/><path d="M161.667 76.226a.5.5 0 0 0-.516.022l-7.893 5.223a.502.502 0 0 0-.224.417c0 2.126-.203 3.372-.449 4.12-.237.722-.511.975-.695 1.122a.5.5 0 0 0-.041.744c1.516 1.516 3.356 2.323 5.26 2.323s3.818-.807 5.486-2.42a.5.5 0 0 0-.078-.78c-.218-.14-.403-.394-.536-.874-.135-.486-.202-1.146-.221-2.019-.021-.998.019-2.205.067-3.659.036-1.108.078-2.36.1-3.773a.5.5 0 0 0-.26-.446Zm-.759 1.381c-.022.993-.052 1.913-.08 2.759-.049 1.487-.09 2.744-.068 3.76.02.894.088 1.655.257 2.264.108.39.265.74.492 1.025-1.405 1.214-2.93 1.782-4.4 1.782-1.464 0-2.917-.563-4.187-1.686.215-.264.431-.635.614-1.192.28-.853.482-2.142.498-4.162l6.874-4.55Z" fill="#2851A3"/><path d="M157.58 65.97c3.775 0 6.902 2.91 6.902 6.573 0 3.664-.862 4.419-2.696 4.419l-4.206 2.155c-6.794 0-6.794-2.586-6.794-6.25s3.02-6.897 6.794-6.897Z" fill="#EBEBEB" stroke="#2851A3" stroke-miterlimit="10" stroke-linecap="round" stroke-linejoin="round"/><path d="M150.836 72.058c-.321 2.136-.428 4.7.107 6.729.534 2.35 2.244 3.845 4.703 4.165a5.562 5.562 0 0 0 4.062-1.388c1.068-.961 2.137-2.243 2.351-4.486" fill="#EBEBEB"/><path d="M150.91 71.564a.5.5 0 0 0-.569.42c-.324 2.16-.441 4.797.116 6.922.586 2.56 2.473 4.196 5.124 4.542l.029.003a6.06 6.06 0 0 0 4.432-1.516c1.123-1.01 2.285-2.398 2.515-4.81a.5.5 0 1 0-.996-.094c-.197 2.073-1.173 3.248-2.188 4.161a5.062 5.062 0 0 1-3.677 1.263c-2.255-.3-3.781-1.65-4.265-3.779l-.004-.016c-.509-1.933-.413-4.418-.096-6.528a.5.5 0 0 0-.421-.568Zm.781-3.707-.435-.247.001-.003.003-.004.009-.015.028-.046a5.165 5.165 0 0 1 .518-.678 6.449 6.449 0 0 1 1.697-1.352c1.568-.86 3.936-1.295 7.196.147l.002.001c1.66.744 2.653 2.27 3.19 3.855.537 1.584.647 3.297.484 4.547a1.73 1.73 0 0 1-.249.76 1.327 1.327 0 0 1-.577.492c-.422.194-.968.212-1.515.212a.701.701 0 0 1-.409-.138 1.156 1.156 0 0 1-.209-.202c-.077-.09-.158-.21-.225-.307a4.17 4.17 0 0 1-.054-.078 1.671 1.671 0 0 0-.218-.269.282.282 0 0 0-.039-.03.5.5 0 0 1-.471-.442.548.548 0 0 0-.145-.09c-.198-.094-.509-.179-.94-.265a33.849 33.849 0 0 0-.975-.171c-.679-.114-1.463-.245-2.213-.429-1.173-.288-2.408-.734-3.354-1.547-.968-.832-1.601-2.02-1.601-3.7a.5.5 0 0 1 .066-.248l.435.247Z" fill="#2851A3"/><path d="M161.098 76.886c.41 0 1.127-.205 1.537-.41.513-.307.82-.82.923-1.434.102-.41 0-1.742-1.333-1.742-.512 0-1.229.717-1.434.82" fill="#EBEBEB"/><path d="M162.977 74.228a1.245 1.245 0 0 1 .088.731c-.082.489-.314.857-.671 1.078a4.003 4.003 0 0 1-.659.237c-.265.073-.497.11-.637.11a.5.5 0 0 0 0 1c.271 0 .602-.064.901-.145a4.914 4.914 0 0 0 .894-.335c.654-.392 1.03-1.037 1.156-1.763.072-.314.06-.853-.166-1.335a1.706 1.706 0 0 0-.593-.706c-.288-.193-.644-.3-1.064-.3-.237 0-.457.08-.629.164a3.49 3.49 0 0 0-.495.3 9.558 9.558 0 0 0-.381.291c-.085.067-.129.098-.146.11l-.008.007a.5.5 0 1 0 .448.895c.102-.051.225-.148.309-.214l.014-.011.034-.027c.098-.076.201-.158.312-.237.123-.088.242-.163.348-.214a.53.53 0 0 1 .194-.064c.246 0 .402.06.505.13a.711.711 0 0 1 .246.298Z" fill="#2851A3"/></g><path d="M303.403 55.451h-46.025a4 4 0 0 0-4.003 4v31.992a4 4 0 0 0 4.003 4h46.025a4 4 0 0 0 4.002-4V59.45a4 4 0 0 0-4.002-3.999Z" fill="#4C88FF"/><path d="M129.57 106.007a4 4 0 0 1 4.003-3.999h170.059a4 4 0 0 1 4.002 3.999v85.553h-39.823a2 2 0 0 0-2.002 2v13.613H133.573a4 4 0 0 1-4.003-3.999v-97.167Z" fill="#42BDEB"/><g filter="url(#ud6oefs9a4pc)"><path d="M264.676 191.93h42.958v16.667h-42.958V191.93Z" fill="#42BDEB"/></g><path d="M12 262.357a.5.5 0 0 1 .5-.5h56.923a.5.5 0 0 1 0 1H12.5a.5.5 0 0 1-.5-.5Z" fill="#E0E0E0"/><path d="M51.687 130.063a6.972 6.972 0 0 1 6.982-6.971c3.858 0 6.981 3.103 6.981 6.958a6.93 6.93 0 0 1-.721 3.089c2.716.122 5.109 1.012 7.12 2.285 3.988 2.522 6.48 6.542 7.055 8.965.38 1.573.98 3.275 1.607 5.055.27.768.546 1.55.812 2.343.87 2.599 1.62 5.29 1.593 7.77-.02 2.373.141 3.818.802 5.203.67 1.404 1.874 2.793 4.071 4.993 1.198 1.2 1.777 2.774 1.992 4.414.215 1.638.07 3.374-.209 4.946a28.712 28.712 0 0 1-1.046 4.042 27.555 27.555 0 0 1-.58 1.571l-.016.038-.022.052-.01.024-.002.006-.001.002-.46-.197.46.198a.5.5 0 0 1-.46.302H31.527a.5.5 0 0 1-.496-.433l-.017-.124c-.498-3.67-1.01-7.444-.658-11.214.341-3.802 1.685-7.73 4.3-9.946a13.974 13.974 0 0 1 1.532-1.102c.147-.095.292-.186.435-.277a26.53 26.53 0 0 0 1.074-.703c.953-.666 1.75-1.406 2.215-2.531.373-.92.475-1.986.584-3.131l.041-.425c.04-.393.084-.796.147-1.196-.063.345-.112.708-.157 1.086l-.05.428c-.127 1.131-.267 2.372-.789 3.453l-.002.004c-.693 1.398-1.862 2.273-3.08 2.985-.444.259-.909.505-1.363.745v.001l-.492.26c-.612.329-1.198.66-1.73 1.038-2.804 1.993-4.356 5.644-4.774 9.337-.412 3.634.182 7.291.783 10.993l.028.174a.5.5 0 0 1-.987.16l-.038-.233c-.595-3.658-1.208-7.434-.78-11.206.435-3.85 2.066-7.821 5.187-10.039.586-.416 1.217-.772 1.838-1.105l.515-.273c.447-.237.883-.467 1.307-.715 1.161-.679 2.126-1.431 2.688-2.564.442-.915.563-1.974.695-3.128l.05-.433c.151-1.273.366-2.65 1.225-3.748.77-.98 1.849-1.469 2.868-1.866.175-.068.348-.133.518-.198.855-.323 1.641-.621 2.312-1.116.154-.115.3-.239.441-.372a8.61 8.61 0 0 0 .816-1.337c.27-.534.508-1.086.752-1.651.132-.306.266-.616.407-.929l.002-.003c1.452-3.15 3.48-6.065 6.13-7.829a6.946 6.946 0 0 1-3.317-5.925Z" fill="#2851A3"/><path d="m82.397 193.832 10.333-3.395 3.48 11.4h-8.24l-1.863 4.653-3.71-12.658Z" fill="#EBEBEB"/><path d="M93.048 188.955a.5.5 0 0 1 .238.31l2.99 11.621a.5.5 0 1 1-.97.249l-2.86-11.117-9.847 2.942c.466 1.257.953 2.957 1.479 4.846l.281 1.013c.527 1.904 1.098 3.965 1.733 5.986a.5.5 0 1 1-.954.3c-.641-2.039-1.217-4.119-1.744-6.023l-.28-1.009c-.605-2.175-1.14-4.026-1.64-5.248a.5.5 0 0 1 .32-.668l10.864-3.246a.5.5 0 0 1 .39.044Z" fill="#2851A3"/><path d="M87.971 201.838h44.34l-14.119 34.187H74.286l13.685-34.187Z" fill="#fff" fill-opacity=".3"/><path d="M73.689 171.865c-2.277-.607-3.092-3.423-3.092-10.256l-12.55-8.203c.22 10.282.92 15.333-1.319 17.077-.505.4-.453.413-2.316 1.111l-1.966 2.428 5.123 5.981 12.342-1.033 3.079-5.18 1.54-1.615-.841-.31Z" fill="#EBEBEB"/><path d="M57.805 152.969a.5.5 0 0 1 .517.019l12.549 8.202c.141.093.226.25.226.419 0 3.412.205 5.761.671 7.32.459 1.534 1.137 2.21 2.05 2.453a.65.65 0 0 1 .044.014l.84.31a.5.5 0 0 1 .19.814l-1.5 1.574-3.05 5.131a.501.501 0 0 1-.389.243l-12.342 1.033a.502.502 0 0 1-.422-.173l-5.123-5.981a.499.499 0 0 1-.009-.639l1.967-2.429a.499.499 0 0 1 .213-.153c.94-.352 1.365-.52 1.62-.647.197-.098.276-.161.466-.313a4.47 4.47 0 0 0 .094-.075l.004-.002c.449-.35.78-.885 1.007-1.699.229-.82.343-1.888.382-3.258.048-1.714-.023-3.832-.11-6.436-.052-1.576-.11-3.33-.152-5.279a.5.5 0 0 1 .257-.448Zm.765 1.376c.038 1.54.085 2.961.129 4.268.088 2.635.16 4.805.11 6.547-.038 1.396-.155 2.561-.418 3.499-.264.944-.684 1.695-1.353 2.217l-.086.068c-.196.157-.353.283-.65.431-.296.147-.746.324-1.586.639l-1.62 1.999 4.687 5.47 11.83-.99 2.947-4.959a.497.497 0 0 1 .068-.089l1.015-1.064-.106-.039c-1.351-.37-2.212-1.403-2.727-3.127-.498-1.664-.702-4.054-.713-7.336l-11.527-7.534Z" fill="#2851A3"/><path d="M64.917 136.846c-.013 0-.013 0 0 0h-.026c-5.693 0-10.298 4.43-10.298 9.907 0 5.464 1.32 6.653 3.997 6.653l6.3 3.255h.014c10.298 0 10.246-3.966 10.246-9.43.013-5.477-4.554-10.385-10.233-10.385Z" fill="#EBEBEB" stroke="#2851A3" stroke-linecap="round" stroke-linejoin="round"/><path d="M75.085 145.861c.466 3.32.608 7.195-.142 10.218-.88 3.552-3.39 5.89-7.167 6.278-2.226.232-4.515-.607-6.184-2.08-1.67-1.473-3.3-3.449-3.545-6.872" fill="#EBEBEB"/><path d="M75.016 145.366a.5.5 0 0 1 .565.426c.469 3.343.62 7.293-.152 10.407-.928 3.747-3.604 6.245-7.602 6.655-2.38.248-4.805-.648-6.566-2.202-1.727-1.524-3.454-3.612-3.713-7.211a.5.5 0 0 1 .998-.072c.233 3.247 1.766 5.112 3.377 6.533 1.577 1.391 3.73 2.174 5.8 1.957 3.558-.364 5.903-2.543 6.734-5.9.728-2.931.595-6.732.133-10.028a.5.5 0 0 1 .426-.565Z" fill="#2851A3"/><path d="M71.41 148.302a.5.5 0 0 1 .622.336l1.268 4.235c.174.57-.334.997-.814.923a.282.282 0 0 1-.029-.005l-.905-.194a.5.5 0 1 1 .21-.977l.446.095-1.134-3.791a.5.5 0 0 1 .336-.622Z" fill="#2851A3"/><path d="M56.312 169.904a.5.5 0 0 1 .566.185l.005.007.022.03c.02.028.053.069.096.124.087.11.22.27.4.469.357.396.898.942 1.62 1.529a15.692 15.692 0 0 0 6.522 3.145c2.408.526 4.17.287 5.388-.388 1.21-.67 1.958-1.81 2.27-3.247a.501.501 0 0 1 .62-.376l4.817 1.303.005.001.02.005.07.018.272.071a60.405 60.405 0 0 1 4.147 1.268c1.208.419 2.506.92 3.668 1.477 1.152.552 2.212 1.178 2.912 1.859.274.268.521.65.747 1.082.229.44.452.962.666 1.535.43 1.145.842 2.525 1.22 3.911.326 1.196.63 2.406.9 3.484l.128.507c.304 1.208.556 2.183.745 2.737a.5.5 0 0 1-.284.624l-.57.232-.013.005-9.706 3.647c.03 2.37-.526 4.992-1.964 7.994l-5.84 15.056a.5.5 0 0 1-.467.32H47.362a.5.5 0 0 1-.5-.481l-.98-25.643-1.342 6.504a.5.5 0 0 1-.672.364l-10.57-4.146a.5.5 0 0 1-.313-.536c.27-1.887.364-3.599.455-5.234.035-.628.07-1.245.113-1.856.154-2.188.424-4.275 1.275-6.395 1.476-3.693 4.035-7.246 9.739-8.783 1.392-.377 3.012-.632 4.691-.897l.96-.152c2.034-.328 4.13-.707 6.094-1.359Z" fill="#42BDEB"/><path d="m44.72 198.088-1.602 8.986s18.514-13.238 19.38-15.137c1.346-3.307 1.579-10.024 1.579-10.024.931-2.273 1.876-4.547 2.807-6.82.414-1.008.841-2.028 1.553-2.842.194-.22.737-.465.737-.168.026.607-.57 2.519-1.126 3.823 0 0 3.105-5.296 4.18-6.768 1.021-1.292.788 1.485.297 2.351 0 0 .931-1.757 1.475-1.408.465.31-.298 1.782-.298 1.782-1.734 4.289-3.79 6.239-4.166 11.897 0 0 3.196-5.942 3.765-5.322.453.439-1.23 4.767-1.746 5.929-1.605 3.565-3.157 7.053-5.887 10.657 0 0-14.153 17.064-16.948 19.854-3.738 3.746-7.749 6.859-11.63 4.973-3.648-1.77-5.822-5.206-5.033-12.517.401-3.449 1.035-9.274 1.45-12.723l11.212 3.477Z" fill="#EBEBEB"/><path d="M69.851 171.919c.757-1.238 1.528-2.466 1.972-3.076a.78.78 0 0 1 .012-.015c.142-.18.305-.346.492-.441a.742.742 0 0 1 .37-.086.668.668 0 0 1 .392.149c.189.152.263.374.298.519.04.164.055.348.057.529v.134c.22-.105.523-.166.826.028l.007.005c.342.227.38.615.373.842a2.776 2.776 0 0 1-.149.736 6.011 6.011 0 0 1-.317.776l-.026.052a37.142 37.142 0 0 1-1.339 2.89l-.255.503c-.353.693-.689 1.351-.998 2.039a16.62 16.62 0 0 0-1.224 3.824c.142-.238.289-.482.438-.723.437-.707.903-1.414 1.304-1.91.195-.242.4-.466.598-.609a.97.97 0 0 1 .398-.182.643.643 0 0 1 .58.187.75.75 0 0 1 .19.366c.025.11.03.223.028.327a4.021 4.021 0 0 1-.096.706c-.108.514-.3 1.154-.516 1.801a42.914 42.914 0 0 1-1.254 3.28l-.001.002-.078.173c-1.575 3.502-3.142 6.985-5.866 10.581l-.013.017-.386-.319.385.32-.614.738-1.641 1.972a1675.208 1675.208 0 0 1-5.173 6.173c-3.878 4.603-8.133 9.589-9.55 11.004-1.875 1.879-3.858 3.641-5.886 4.689-2.043 1.056-4.189 1.415-6.317.381-1.912-.927-3.462-2.307-4.418-4.425-.95-2.104-1.294-4.889-.894-8.595v-.005c.168-1.442.378-3.306.594-5.238.3-2.677.616-5.485.856-7.487a.501.501 0 0 1 .645-.418l11.213 3.477a.5.5 0 0 1 .344.565l-1.385 7.774a564.468 564.468 0 0 0 8.356-6.132c2.367-1.772 4.757-3.6 6.606-5.102a50.64 50.64 0 0 0 2.289-1.95c.289-.267.52-.495.69-.682a2.01 2.01 0 0 0 .272-.347c.641-1.583 1.03-4.019 1.255-6.105a59.947 59.947 0 0 0 .28-3.662l.001-.055.001-.018a.49.49 0 0 1 .037-.172c.466-1.137.935-2.274 1.403-3.41l.001-.002c.47-1.137.938-2.273 1.404-3.409.409-.996.863-2.095 1.638-2.981l.002-.002a1.61 1.61 0 0 1 .663-.423.873.873 0 0 1 .498-.025.62.62 0 0 1 .3.189.506.506 0 0 1 .328.258Zm3.407-.285-.1-.238a6.054 6.054 0 0 0-.155.262l-.014.025-.029.052a.5.5 0 0 1-.44.254c-.405 1.028-.889 1.893-1.375 2.728l-.208.355c-.632 1.079-1.247 2.128-1.731 3.483a.5.5 0 0 1-.942-.336c.517-1.448 1.178-2.575 1.808-3.649l.001-.003.207-.353c.678-1.164 1.309-2.319 1.737-3.873a123.51 123.51 0 0 0-1.853 2.991c-.454.753-.876 1.46-1.183 1.979l-.058.097c-.087.202-.173.397-.252.577-.096.217-.183.414-.252.58-.421 1.013-.69 2.092-.738 3.175v.002c-.025.482 0 .974.038 1.482l.033.423c.03.37.06.751.075 1.122.04 1.037-.038 2.124-.644 3.134a.5.5 0 0 1-.858-.514c.455-.759.54-1.61.502-2.581-.014-.349-.042-.698-.07-1.061a63.356 63.356 0 0 1-.036-.449 12.985 12.985 0 0 1-.04-1.605c.055-1.216.356-2.409.814-3.513l.001-.003.066-.154a.5.5 0 0 1 .026-.313c.27-.633.552-1.42.763-2.121.07-.233.13-.454.18-.654-.489.677-.83 1.484-1.184 2.347-.466 1.137-.935 2.275-1.404 3.411-.457 1.11-.915 2.219-1.37 3.328l-.009.211a60.914 60.914 0 0 1-.274 3.506c-.227 2.094-.626 4.662-1.328 6.387l-.008.019c-.09.195-.26.408-.446.612-.197.216-.452.467-.752.744a51.56 51.56 0 0 1-2.336 1.991c-1.865 1.514-4.267 3.352-6.637 5.126a566.86 566.86 0 0 1-9.165 6.713l-.208.149-.292-.405.291.406a.5.5 0 0 1-.783-.494l1.524-8.552-10.218-3.168c-.229 1.94-.511 4.458-.782 6.873-.217 1.933-.426 3.799-.595 5.251-.389 3.603-.04 6.191.81 8.075.846 1.87 2.207 3.094 3.944 3.936 1.752.852 3.552.597 5.42-.369 1.882-.973 3.774-2.64 5.637-4.507 1.378-1.376 5.597-6.317 9.494-10.942a1694.537 1694.537 0 0 0 6.81-8.14l.606-.73c2.65-3.502 4.177-6.892 5.758-10.408l.064-.141c.252-.566.796-1.924 1.22-3.191.188-.564.348-1.098.45-1.531-.34.439-.741 1.047-1.137 1.687-.43.696-.844 1.413-1.15 1.958a57.966 57.966 0 0 0-.469.845l-.026.049-.007.012-.001.003a.5.5 0 0 1-.94-.269c.191-2.895.817-4.855 1.616-6.634.32-.712.669-1.397 1.023-2.092l.25-.491a35.852 35.852 0 0 0 1.33-2.876Zm-.83-1.746a.522.522 0 0 0-.15.056c.057-.085.11-.165.162-.24-.003.06-.007.121-.013.184Zm1.457.64-.007.003.007-.003Zm-.237-.119-.002-.007v.001l.002.006Z" fill="#2851A3"/><path d="M43.522 206.774a.499.499 0 0 1-.023.706l-3.406 3.185a.5.5 0 0 1-.684-.731l3.406-3.184a.5.5 0 0 1 .707.024Z" fill="#2851A3"/><path d="M138.841 296.917c18.216 13.163 21.838 16.354 21.838 16.354 4.515 3.681 5.55 5.283 5.848 6.109.307.874-.062 2.216-.432 3.556-.624 2.266-1.248 4.531 1.402 4.531 4.217 0 20.674.284 31.114.271.737 0 1.177-.84.75-1.434l-5.019-2.273c-9.134-3.656-14.193-6.537-18.138-9.094-2.609-1.689-4.868-3.709-7.284-5.632-10.336-9.224-17.929-17.093-25.912-25.367l-4.167 12.979Z" fill="#EBEBEB"/><path d="M198.267 328.349c-6.444 0-15.068-.1-21.422-.18-4.092-.05-7.424-.09-9.005-.09a2.452 2.452 0 0 1-2.001-.79c-.77-1-.33-2.65.15-4.369.34-1.25.701-2.53.44-3.26-.42-1.169-2.341-3.149-5.693-5.888-.05 0-3.862-3.359-21.812-16.337a.478.478 0 0 1-.18-.56l4.162-12.997a.483.483 0 0 1 .361-.33.513.513 0 0 1 .48.14c8.004 8.289 15.559 16.127 25.884 25.335.631.51 1.271 1 1.901 1.559a61.117 61.117 0 0 0 5.313 4 97.866 97.866 0 0 0 18.06 8.998l5.003 2.289c.081.033.15.089.2.16a1.382 1.382 0 0 1 .11 1.45 1.412 1.412 0 0 1-1.261.77l-.69.1Zm-58.502-31.514c17.77 12.858 21.432 16.047 21.582 16.177 4.712 3.839 5.673 5.439 6.003 6.319.33.879 0 2.399-.42 3.849-.421 1.449-.791 2.869-.31 3.499a1.478 1.478 0 0 0 1.23.4c1.591 0 4.933 0 9.005.09 6.584.08 15.599.18 22.092.18a.428.428 0 0 0 .37-.22.452.452 0 0 0 0-.32l-4.872-2.21a98.203 98.203 0 0 1-18.2-9.128 60.55 60.55 0 0 1-5.403-4.099c-.63-.52-1.271-.999-1.921-1.559-10.116-8.998-17.57-16.727-25.374-24.815l-3.782 11.837Z" fill="#2851A3"/><path d="M204.402 328.551c.081-.792-.251-1.526-.792-2.1-.539-.573-1.304-1.012-2.175-1.247l-8.7-2.648a.501.501 0 0 0-.479.106c-2.907 2.6-6.536 2.909-11.086 1.729-4.568-1.185-9.95-3.842-16.251-7.032a.5.5 0 0 0-.724.392l-.094.855c-.373 3.387-.672 6.101.106 9.28a.5.5 0 0 0 .476.381l39.212.733a.5.5 0 0 0 .507-.449Z" fill="#2851A3"/><path d="M117.882 243.723c-73.186-18.697-108.307 24.055-14.179 17.528h3.157c-10.812 10.061-15.17 16.934-22.536 30.069-4.043 7.212-12.507 20.785-14.877 24.48-2.37 3.695-7.084 11.285.464 11.138l31.393.819c1.306-.013.075-1.783-1.076-2.39-1.413-.736-3.504-1.504-6.686-2.215-2.996-.669-15.12-4.686-12.613-7.352 0 0 17.845-21.351 34.534-39.539 5.835-6.368 13.105-15.19 13.105-22.993 0-4.947-5.563-8.241-10.686-9.545Z" fill="#EBEBEB"/><path d="M56.068 258.16c8.71 2.77 24.089 4.223 47.601 2.593l.019-.001.015-.001h3.157a.502.502 0 0 1 .341.866c-10.758 10.011-15.087 16.833-22.44 29.947-4.05 7.225-12.521 20.809-14.892 24.506-1.198 1.867-2.912 4.611-3.42 6.85-.255 1.12-.176 1.982.267 2.552.439.564 1.36 1.002 3.186.966l.022.001 31.383.818a.52.52 0 0 0 .043-.002 1.091 1.091 0 0 0-.1-.228c-.241-.434-.765-.959-1.255-1.217-1.361-.71-3.407-1.465-6.562-2.17-1.533-.342-5.346-1.525-8.47-2.961-1.554-.714-2.989-1.514-3.88-2.331-.443-.406-.805-.863-.938-1.366-.145-.542-.004-1.067.409-1.513l.196-.234.595-.709a1496.697 1496.697 0 0 1 10.213-12.001c6.55-7.613 15.187-17.502 23.536-26.602 2.913-3.178 6.165-6.95 8.688-10.89 2.53-3.95 4.286-8.007 4.286-11.765 0-2.266-1.27-4.197-3.232-5.746-1.961-1.55-4.563-2.675-7.077-3.315-18.245-4.661-34.103-5.488-46.152-4.218-6.025.635-11.088 1.793-15.018 3.253-3.941 1.464-6.693 3.214-8.152 4.998-.725.886-1.115 1.762-1.197 2.602-.082.834.134 1.678.703 2.522 1.155 1.715 3.757 3.407 8.125 4.796Zm24.86 57.64.385.32a.297.297 0 0 1-.02.022c-.205.219-.23.398-.181.583.061.231.259.53.647.886.77.706 2.084 1.453 3.622 2.16 3.06 1.406 6.807 2.566 8.27 2.893 3.209.717 5.345 1.497 6.808 2.26l.003.001c.661.349 1.328 1.013 1.663 1.618.157.282.313.678.205 1.057a.843.843 0 0 1-.402.51 1.268 1.268 0 0 1-.619.147h-.018l-31.381-.819c-1.942.036-3.259-.42-3.983-1.352-.722-.927-.732-2.166-.454-3.387.554-2.443 2.38-5.341 3.553-7.169 2.369-3.692 10.826-17.256 14.862-24.454 7.164-12.778 11.51-19.676 21.708-29.325h-1.875c-23.543 1.631-39.067.188-47.956-2.638-4.432-1.409-7.304-3.19-8.652-5.19-.684-1.014-.976-2.088-.87-3.179.107-1.084.604-2.14 1.42-3.137 1.622-1.984 4.566-3.812 8.578-5.302 4.024-1.495 9.173-2.669 15.261-3.31 12.179-1.284 28.156-.444 46.504 4.243 2.609.665 5.35 1.839 7.451 3.499 2.101 1.661 3.612 3.851 3.612 6.531 0 4.045-1.879 8.3-4.444 12.304-2.571 4.014-5.871 7.837-8.793 11.027-8.339 9.088-16.97 18.968-23.515 26.578a1493.104 1493.104 0 0 0-10.206 11.992l-.594.708-.203.242s-.001.001-.385-.319Z" fill="#2851A3"/><path d="M85.501 249.203a.5.5 0 0 0-.508.798l24.028 30.096 15.235 25.778a.501.501 0 0 0 .494.242c7.198-.909 14.145-5.312 19.258-9.436a75.119 75.119 0 0 0 6.161-5.575 63.89 63.89 0 0 0 1.715-1.799c.197-.216.349-.386.452-.502l.085-.096.032-.037.03-.035.01-.012.001-.001a.499.499 0 0 0-.015-.666l-27.297-29.142a.507.507 0 0 0-.249-.144l-39.432-9.469Z" fill="#2851A3"/><path d="M46.872 217.492a.5.5 0 0 0-.38.175l.38.325-.38-.324-.002.002-.007.008-.027.031-.1.12c-.086.105-.213.259-.373.459-.32.401-.775.986-1.318 1.726a61.375 61.375 0 0 0-3.926 6.075c-2.8 4.969-5.523 11.568-5.01 17.903.257 3.18 1.33 6.294 3.61 9.087 2.279 2.79 5.74 5.233 10.73 7.113 9.819 3.701 25.636 5.257 50.304 2.951-.464.658-1.215 1.768-2.405 3.62-2.535 3.942-7.069 11.257-15.072 24.758a.5.5 0 0 0 .04.568l.002.001.002.003.008.01.033.04.126.151c.11.132.275.323.49.567a48.341 48.341 0 0 0 1.909 2.024 62.892 62.892 0 0 0 7.27 6.244c6.282 4.617 15.337 9.47 26.38 10.345a.5.5 0 0 0 .528-.388l12.398-54.846v-.003c.742-3.117.373-5.828-.761-8.167-1.13-2.329-3.006-4.258-5.233-5.851-4.448-3.18-10.394-5.088-14.991-6.182a.504.504 0 0 0-.116-.014H74.294l6.142-15.343a.5.5 0 0 0-.201-.611l-4.051-2.502a.5.5 0 0 0-.263-.075H46.872Z" fill="#2851A3"/><path d="M66.441 230.742a.5.5 0 0 1 .571-.418l7.385 1.146a.5.5 0 1 1-.154.988l-7.384-1.145a.5.5 0 0 1-.418-.571Zm35.186 31.868a.5.5 0 0 1-.054.552l-3.037 3.716a.5.5 0 0 1-.775-.633l2.279-2.788c-1.697.16-3.356.303-4.979.431a.5.5 0 1 1-.079-.997c1.996-.157 4.047-.338 6.155-.543a.5.5 0 0 1 .49.262Zm28.331.494a.5.5 0 0 1 .377.598l-8.512 37.466a.5.5 0 0 1-.976-.222l8.512-37.465a.502.502 0 0 1 .599-.377Z" fill="#EBEBEB"/><path fill-rule="evenodd" clip-rule="evenodd" d="M58.448 136.192a.5.5 0 0 0-.474.305l-4.321 10.257a.498.498 0 0 0 .006.401l3.713 8.125a.5.5 0 0 0 .955-.229l-.252-5.835a37.118 37.118 0 0 0 2.393-.42 21.33 21.33 0 0 0 2.316-.608c.723-.242 1.414-.541 1.878-.916l.001-.001c.282-.23.694-.667 1.133-1.161.447-.504.947-1.098 1.414-1.663.468-.566.905-1.107 1.225-1.506l.074-.093c.14.226.312.498.502.784.487.736 1.133 1.64 1.672 2.105l.002.002c.427.363 1.038.637 1.666.849.638.215 1.342.381 1.99.506.65.127 1.254.214 1.694.27.22.028.401.048.527.062l.146.015.04.003.01.001.004.001a.501.501 0 0 0 .544-.498v-2.844c-.007-1.638-.751-3.514-1.87-4.976-1.112-1.452-2.685-2.611-4.42-2.614l-12.568-.322Z" fill="#2851A3"/><path d="M59.187 153.871c-.725-.038-1.863-.284-2.484-.671-.763-.478-1.359-1.357-1.5-2.261-.091-.568 0-2.712 2.056-2.712.828 0 1.566.723 1.915.994" fill="#EBEBEB"/><path d="M55.883 149.572a2.63 2.63 0 0 0-.187 1.288v.001c.12.758.629 1.512 1.272 1.915.247.154.63.296 1.06.406.426.107.86.173 1.185.19a.5.5 0 1 1-.053.998 7.535 7.535 0 0 1-1.377-.219c-.474-.12-.971-.294-1.345-.527l-.001-.001c-.883-.553-1.564-1.556-1.73-2.606l.495-.078-.494.079a3.608 3.608 0 0 1 .26-1.85c.161-.366.413-.732.8-1.005.39-.277.885-.436 1.49-.436.556 0 1.045.239 1.41.476.266.172.52.382.683.518.054.044.098.081.13.105a.5.5 0 1 1-.614.79 9.135 9.135 0 0 1-.208-.169 5.248 5.248 0 0 0-.535-.405c-.299-.194-.592-.316-.865-.316-.423 0-.71.109-.913.252a1.4 1.4 0 0 0-.463.594Z" fill="#2851A3"/><path d="M105.729 221.877a2.428 2.428 0 1 0 0-4.856 2.429 2.429 0 1 0 0 4.856Z" fill="#fff"/><path d="M45.19 172.717a.501.501 0 0 0-.623-.405c-5.704 1.538-8.263 5.091-9.74 8.784-.85 2.12-1.12 4.206-1.275 6.394a123.75 123.75 0 0 0-.112 1.856c-.091 1.636-.186 3.347-.455 5.234a.5.5 0 0 0 .331.543l11.934 4.133a.504.504 0 0 0 .652-.363l1.998-8.854a.499.499 0 0 0 .006-.188l-2.715-17.134Z" fill="#42BDEB"/><path d="M47.454 190.767a.5.5 0 0 1 .383.594l-1.626 7.528a.5.5 0 0 1-.978-.211l1.627-7.528a.5.5 0 0 1 .594-.383Zm35.264-2.844a.5.5 0 0 1 .591.387c.66 3.173 1.156 6.659.509 10.087a.5.5 0 0 1-.983-.186c.609-3.226.149-6.553-.505-9.697a.5.5 0 0 1 .388-.591Zm23.128 140.626c.081-.792-.25-1.525-.792-2.1-.538-.572-1.304-1.011-2.175-1.247l-8.7-2.647a.5.5 0 0 0-.48.106c-2.928 2.619-6.22 3.099-10.383 2.123-4.205-.986-9.224-3.441-15.528-6.632a.5.5 0 0 0-.669.213c-.934 1.777-1.63 3.281-1.981 4.779-.354 1.513-.352 2.999.075 4.74a.5.5 0 0 0 .476.382l39.65.732a.5.5 0 0 0 .507-.449Z" fill="#2851A3"/><path d="M264.604 195.929a4.5 4.5 0 0 1 4.502-4.499h54.391a4.5 4.5 0 0 1 4.503 4.499v74.248a4.5 4.5 0 0 1-4.503 4.499h-54.391a4.5 4.5 0 0 1-4.502-4.499v-74.248Zm4.502-3.5a3.501 3.501 0 0 0-3.502 3.5v74.248a3.5 3.5 0 0 0 3.502 3.499h54.391a3.5 3.5 0 0 0 3.502-3.499v-74.248c0-1.933-1.568-3.5-3.502-3.5h-54.391Z" fill="#E0E0E0"/><path d="m291.139 217.361 16.515 9.878c2.592 1.55 2.597 5.301.009 6.857l-16.516 9.934c-2.667 1.604-6.066-.315-6.066-3.427v-19.811c0-3.106 3.39-5.026 6.058-3.431Z" fill="#41CCB9"/><path d="m290.625 218.219 16.515 9.877c1.944 1.163 1.948 3.976.007 5.144l-16.516 9.933c-2 1.204-4.549-.236-4.549-2.57v-19.811c0-2.33 2.542-3.77 4.543-2.573Zm17.029 9.02-16.515-9.878c-2.668-1.595-6.058.325-6.058 3.431v19.811c0 3.112 3.399 5.031 6.066 3.427l16.516-9.934c2.588-1.556 2.583-5.307-.009-6.857Z" fill="#41CCB9"/><path d="M194.239 140.084c0-1.918 1.628-3.473 3.637-3.473h25.459c2.008 0 3.637 1.555 3.637 3.473v4.124l6.761-3.425c2.424-1.303 4.149-.376 4.149 2.28v18.188c0 2.656-1.725 3.867-4.149 2.565l-6.761-3.546v4.124c0 1.918-1.629 3.473-3.637 3.473h-25.459c-2.009 0-3.637-1.555-3.637-3.473v-24.31Zm10.911 10.419c2.008 0 3.637-1.555 3.637-3.473s-1.629-3.473-3.637-3.473c-2.009 0-3.637 1.555-3.637 3.473s1.628 3.473 3.637 3.473Z" fill="#fff"/><g clip-path="url(#udooz732dlhd)"><path d="M271.88 78.954a.5.5 0 0 1 .509-.213c3.449.655 6.3 2.838 8.703 5.753 2.403 2.915 4.392 6.6 6.113 10.341a.5.5 0 0 1-.455.71l-21.412-.035a.5.5 0 0 1-.489-.398c-.151-.725-.027-1.461.219-2.148s.625-1.355 1.023-1.958c.391-.593.812-1.14 1.162-1.595l.021-.027c.371-.482.623-.816.727-1.022.377-.746.518-1.19.589-1.64.048-.296.065-.582.089-.961.015-.252.033-.544.064-.907.111-1.305.599-2.325 1.205-3.246.3-.457.634-.895.963-1.326l.009-.012c.328-.432.654-.859.96-1.316Z" fill="#2851A3"/><path d="M273.946 69.969c-.839 1.665-1.318 4.568-1.318 4.568l-1.54 2.44a.135.135 0 0 0 .101.207l1.051.1c0 2.856.141 5.006 2.69 5.442.447.052.885-.001 1.522-.128l.862 3.806-1.284 2.394c-.16.348 1.175.95 2.702 1.009 3.632.142 6.539-2.093 6.539-2.093l-1.196-3.034-1.186-3.417s6.215-3.376 4.609-9.16c-1.828-7.09-11.571-6.067-13.552-2.134Z" fill="#EBEBEB"/><path d="M280.755 67.401c2.756.132 5.413 1.55 6.258 4.826l.003.009c.742 2.674-.31 4.796-1.6 6.29a11.308 11.308 0 0 1-2.755 2.291l-.01.006-.001.001c-.001 0 0 0 0 0l.238.44c.239.439.24.438.24.438h.002l.005-.004.016-.009.058-.033a8.674 8.674 0 0 0 .285-.173 12.358 12.358 0 0 0 2.68-2.304c1.416-1.64 2.668-4.098 1.807-7.206-.984-3.81-4.112-5.424-7.178-5.57-1.531-.073-3.069.215-4.363.785-1.288.568-2.378 1.437-2.941 2.556-.447.887-.787 2.076-1.013 3.017a27.34 27.34 0 0 0-.334 1.593l-1.487 2.356a.635.635 0 0 0 .476.972c.001 0 0 0 0 0l.6.057c.009 1.242.071 2.413.419 3.348.201.538.502 1.017.955 1.391.452.374 1.025.62 1.731.74a4.314 4.314 0 0 0 1.223-.044l.715 3.158-1.195 2.23a.66.66 0 0 0-.002.595c.067.138.17.243.261.32.185.155.44.288.715.398.56.223 1.332.4 2.15.431 1.92.075 3.635-.477 4.859-1.038.613-.281 1.11-.567 1.454-.784a9.824 9.824 0 0 0 .508-.343l.029-.022.008-.006.003-.002h.001l-.305-.397.305.396a.502.502 0 0 0 .161-.58l-1.192-3.024-1.05-3.023m1.166 6.047-1.051-2.667-.007-.02-1.186-3.416a.5.5 0 0 1 .234-.603m2.01 6.706c-.05.033-.106.07-.167.108-.314.198-.772.461-1.338.721-1.138.522-2.692 1.015-4.403.948a5.729 5.729 0 0 1-1.818-.36 2.386 2.386 0 0 1-.331-.16l1.151-2.147a.496.496 0 0 0 .047-.347l-.861-3.806a.5.5 0 0 0-.586-.38c-.618.124-.992.164-1.353.124-.562-.098-.959-.284-1.248-.523-.291-.24-.502-.56-.655-.97-.317-.85-.358-2.008-.358-3.454a.5.5 0 0 0-.453-.497l-.46-.044 1.224-1.94a.497.497 0 0 0 .071-.185v-.001l.001-.006.004-.023.016-.091.064-.344c.057-.293.142-.7.252-1.159.223-.927.541-2.022.933-2.8.427-.848 1.299-1.583 2.452-2.09 1.147-.507 2.53-.769 3.911-.703m-9.244 9.843Zm-.275-.557c.001 0 0 0 0 0Z" fill="#2851A3"/><path d="M279.227 80.78a.5.5 0 0 0-.707.003c-.666.67-1.245 1.013-2.228 1.342a.5.5 0 1 0 .318.948c1.111-.371 1.83-.79 2.62-1.586a.5.5 0 0 0-.003-.707Z" fill="#2851A3"/><path d="M287.519 64.533a2.569 2.569 0 1 0-5.052.669 10.122 10.122 0 0 0-5.271.532 6.302 6.302 0 0 0-3.915 3.95.808.808 0 0 0-.028.267c-.038.74.421 1.244.953 1.59.534.348 1.258.616 1.96.871l.005.002c.647.227 1.317.468 1.846.752.263.142.469.283.612.422.141.136.199.247.217.333a.98.98 0 0 0 .119.331l.807 1.32.001.002a.99.99 0 0 0 .441.387c.012.053.024.124.034.213.031.276.035.66-.014 1.087-1.784 3.182-1.204 6.742-.676 9.984l.007.043c.241 1.509.466 2.933.469 4.243.002 1.305-.217 2.448-.827 3.407a1.001 1.001 0 0 0-.036 1.018 1.003 1.003 0 0 0 .878.52h8.493c2.464 0 4.533 0 5.989-.002a342.02 342.02 0 0 0 2.156-.01 6.85 6.85 0 0 0 .181-.007l.015-.001a1.001 1.001 0 0 0 .864-1.399l-.004-.008a6.486 6.486 0 0 1-.586-2.92 5.777 5.777 0 0 0-1.004-4.069c-.275-.429-.594-.83-.888-1.2l-.136-.172a.591.591 0 0 0-.05-.053 5.504 5.504 0 0 1-1.715-4.454l.001-.016.001-.013a9.587 9.587 0 0 0-.297-2.593 10.617 10.617 0 0 0-1.628-3.032l-.009-.012a7.224 7.224 0 0 1-1.438-2.912c-.542-3.215-1.671-5.48-3.52-6.806l-.013-.008a7.462 7.462 0 0 0-.133-.088 2.566 2.566 0 0 0 1.191-2.168Z" fill="#2851A3"/><path d="m279.748 77.916.616-.054a2.493 2.493 0 0 0 1.195-.39c.444-.28.796-.785.875-1.306.05-.329.002-1.563-1.199-1.563-.484 0-1.111.704-1.311.866" fill="#EBEBEB"/><path d="m279.748 77.916.616-.054a2.493 2.493 0 0 0 1.195-.39c.444-.28.796-.785.875-1.306.05-.329.002-1.563-1.199-1.563-.484 0-1.111.704-1.311.866" stroke="#2851A3" stroke-linecap="round" stroke-linejoin="round"/><path d="M280.724 73.93c-.052.467-.873 1.569-.873 1.569-.418-2.146-3.428-.644-4.92-2.35-.675-.711-1.086-2.158-.975-3.575.458-1.509 1.9-2.368 3.442-2.919.001 0 3.55 5.233 3.326 7.275Z" fill="#2851A3"/><path d="M277.799 66.358a1.039 1.039 0 0 0-.401-.202.501.501 0 0 0-.169.03c-1.569.56-3.22 1.492-3.752 3.244a.43.43 0 0 0-.02.106c-.06.767.02 1.541.209 2.224.186.673.486 1.293.894 1.726.827.94 2.039 1.058 2.941 1.147l.239.024c.504.054.877.116 1.147.255.226.116.398.295.473.683a.5.5 0 0 0 .892.203l-.401-.298.401.298.001-.001.003-.003.007-.01.028-.039.099-.137c.08-.115.189-.274.301-.45.11-.174.227-.372.322-.562.088-.175.185-.4.208-.61.07-.64-.152-1.449-.456-2.234-.312-.807-.746-1.674-1.181-2.465a40.506 40.506 0 0 0-1.731-2.85l-.031-.046-.009-.013-.004-.006-.003-.005-.007-.009Zm2.131 8.13a1.85 1.85 0 0 0-.585-.465c-.459-.236-1.011-.308-1.498-.36l-.187-.02c-.982-.102-1.798-.188-2.353-.822l-.008-.01-.005-.005c-.263-.277-.504-.733-.663-1.312a5.543 5.543 0 0 1-.181-1.825c.369-1.134 1.426-1.878 2.751-2.405.087.135.198.307.325.508.326.517.757 1.226 1.181 1.996.424.773.835 1.597 1.125 2.345.299.77.436 1.382.394 1.764l-.005.022a2.036 2.036 0 0 1-.103.251 4.901 4.901 0 0 1-.188.337Zm.296-.611Z" fill="#2851A3"/></g><path d="M288.254 184.89a2 2 0 1 1 0-4.002 2 2 0 0 1 0 4.002Zm-3.002-2a3 3 0 0 0 3.002 2.999 3 3 0 1 0 0-5.998 3 3 0 0 0-3.002 2.999Zm-7.004 2a2 2 0 1 1 0-4.002 2 2 0 0 1 0 4.002Zm-3.001-2a3 3 0 0 0 3.001 2.999 3 3 0 1 0 0-5.998 3 3 0 0 0-3.001 2.999Zm-7.004 2.999a3 3 0 1 1 0-5.998 3 3 0 1 1 0 5.998Z" fill="#E0E0E0"/><path d="M225.156 279.068h-8.004v7.999h8.004v-7.999Zm-15.008 0h-25.014v7.999h25.014v-7.999Z" fill="#42BDEB"/><path d="M267.787 259.461a.5.5 0 0 1 .5-.5h56.031a.5.5 0 0 1 0 1h-56.031a.5.5 0 0 1-.5-.5Z" fill="#E0E0E0"/><defs><clipPath id="udfr8gna3mya"><path fill="#fff" transform="translate(198.665 61.45)" d="M0 0h40.022v33.992H0z"/></clipPath><clipPath id="udpc5q3azm1b"><path fill="#fff" transform="translate(138.632 63.45)" d="M0 0h38.021v31.993H0z"/></clipPath><clipPath id="udooz732dlhd"><path fill="#fff" transform="matrix(-1 0 0 1 298.759 61.605)" d="M0 0h35.019v33.992H0z"/></clipPath><filter id="ud6oefs9a4pc" x="258.676" y="185.93" width="54.958" height="28.668" filterUnits="userSpaceOnUse" color-interpolation-filters="sRGB"><feFlood flood-opacity="0" result="BackgroundImageFix"/><feBlend in="SourceGraphic" in2="BackgroundImageFix" result="shape"/><feGaussianBlur stdDeviation="3" result="effect1_foregroundBlur"/></filter></defs></svg>