<svg width="120" height="120" viewBox="0 0 120 120" fill="none" xmlns="http://www.w3.org/2000/svg"><path d="M113.664 88.025c-4.897 1.59-10.607 2.23-16.793 2.23-13.46 0-34.47-3.992-50.371-6.754l-.882-5.516v-2.573c15.797 2.712 37.26 6.546 51.253 6.546 6.186 0 11.896-.64 16.793-2.23v8.297Z" fill="#3370FF"/><path d="M104.11 12.278a4.76 4.76 0 0 1 3.259 1.28 4.778 4.778 0 0 1 1.455 3.403v11.764c0 43.386-28.938 48.987-30.184 49.201-.275.074-.558.074-.833.074-.275 0-.558 0-.833-.074C75.794 77.711 47 72.111 47 28.726V16.96c0-1.28.558-2.552 1.528-3.403.898-.851 2.006-1.28 3.259-1.28h.275c.065 0 .826.074 2.079.074 1.94 0 5.895-.148 9.573-1.066 5.555-1.346 11.247-7.369 11.45-7.51C75.997 3.282 76.902 3 77.8 3a4.99 4.99 0 0 1 2.636.777c1.6 1.065 7.083 6.378 11.804 7.51 3.68.924 7.496 1.065 9.509 1.065 1.18 0 1.941-.074 2.013-.074h.348Z" fill="#FFC60A"/><path d="M94.445 29.476a2.1 2.1 0 0 0-2.97.08L75 46.946l-7.475-7.89a2.1 2.1 0 0 0-3.05 2.889l8.275 8.733a3.1 3.1 0 0 0 4.5 0l17.275-18.233a2.1 2.1 0 0 0-.08-2.97Z" fill="#fff"/><path d="M40.641 100.819c4.884-.243 9.912-.458 14.842-.458 6.633 0 13.092.39 18.71 1.646a.5.5 0 0 1 .391.488v8.576a.499.499 0 0 1-.61.488c-5.501-1.233-11.887-1.622-18.492-1.622-4.903 0-9.909.223-14.792.457a.5.5 0 0 1-.524-.5v-8.576a.5.5 0 0 1 .475-.499Zm.525.975v7.576c4.718-.224 9.563-.433 14.317-.433 6.394 0 12.637.362 18.101 1.513v-7.553c-5.423-1.165-11.653-1.536-18.102-1.536-4.744 0-9.585.2-14.316.433Z" fill="#0C296E"/><path d="M28.454 101.899h-.336c-5.185 0-9.597-.341-12.722-1.41-.291-.097-.56-.214-.829-.321v8.576c.27.117.538.224.83.321 3.124 1.069 7.536 1.41 12.721 1.41h.336v-8.576Z" fill="#FFC60A"/><path d="M11.953 91.313v-8.297c0-4.767 6.198-8.772 10.074-10.301l1.385 4.336v3.814c-4.26 1.648-11.459 5.759-11.459 10.448Z" fill="#0C296E"/><path d="M34.803 12.033c3.104 10.14 5.22 18.638 7.615 28.251.422 1.693.852 3.42 1.298 5.197l1.609-3.172c.89-1.756 1.826-3.6 2.695-5.31a862.475 862.475 0 0 1 2.158-4.22c.566-1.096.976-1.877 1.099-2.067.152-.236.468-.556.833-.812.359-.251.873-.519 1.418-.496.288.012.57.105.816.303.24.193.421.465.552.803.258.664.354 1.667.246 3.113-.109 1.47-.808 4.783-1.777 8.873-.973 4.11-2.23 9.051-3.474 13.813-1.019 4.81-1.97 9.378-2.889 12.77-.46 1.698-.841 3.097-1.108 4.072-.134.487-.227 1.237-.298 1.497l2.107 15.082a.538.538 0 0 1-.526.522.493.493 0 0 1-.524-.485L44.545 74.62a.48.48 0 0 1 .018-.13l.017-.063c.072-.26.165-1.01.298-1.497.267-.974.649-2.372 1.108-4.067.92-3.392 1.757-8.006 2.886-12.763 1.243-4.758 2.498-9.692 3.469-13.79.975-4.118 1.651-7.344 1.754-8.719.104-1.4-.004-2.231-.185-2.697-.088-.228-.185-.344-.258-.403a.339.339 0 0 0-.21-.079c-.18-.008-.443.091-.733.295a2.353 2.353 0 0 0-.544.511c-.087.135-.465.85-1.049 1.98a869.882 869.882 0 0 0-2.155 4.216 3171.5 3171.5 0 0 0-2.697 5.314 4008.73 4008.73 0 0 1-2.252 4.436.553.553 0 0 1-.53.296.494.494 0 0 1-.451-.367c-.569-2.257-1.11-4.429-1.637-6.545-2.394-9.612-4.504-18.082-7.6-28.196v-.002l-.002-.003-.004-.013-.008-.027-.01-.03a13.306 13.306 0 0 0-.393-1.025c-.285-.658-.71-1.503-1.278-2.277-.572-.779-1.263-1.452-2.065-1.812-.687-.309-1.478-.4-2.406-.096.973 6.099 1.963 10.996 2.957 15.775l.36 1.726c.897 4.298 1.797 8.61 2.688 13.72a.528.528 0 0 1-.432.594.502.502 0 0 1-.605-.392c-.887-5.093-1.784-9.39-2.681-13.688l-.36-1.727c-.982-4.72-1.962-9.565-2.926-15.572-.58.304-1.046.642-1.424 1.03-.5.515-.868 1.14-1.127 1.943-.529 1.631-.597 3.938-.444 7.39L25.56 41.66v.008a.533.533 0 0 1-.479.558.498.498 0 0 1-.567-.436l.523-.065-.523.064-.028-.293-.078-.834a1210.075 1210.075 0 0 1-1.077-12.2c-.28-3.391-.543-6.847-.704-9.576a95.625 95.625 0 0 1-.155-3.461c-.01-.454-.01-.844.001-1.154.008-.234.023-.45.053-.62-.212-1.026-.55-1.668-.888-2.01-.33-.332-.628-.36-.878-.267-.298.111-.679.451-1.004 1.142-.32.678-.555 1.635-.6 2.857-.344 9.443-.337 17.544.444 28.549.02.277-.2.525-.489.554a.497.497 0 0 1-.56-.448c-.057-.81-.11-1.604-.16-2.384a.48.48 0 0 1-.202-.248l-5.41-15.14c-.465-1.044-.864-1.573-1.195-1.783a.574.574 0 0 0-.38-.105c-.119.012-.278.066-.488.206-.355.302-.516.844-.508 1.584.008.73.178 1.502.31 2.097l.004.014c.588 3.095 3.781 13.63 7.053 24.208.93 3.009 1.531 6.097 2.414 8.934 1.435 4.612 2.773 10.808 3.4 15.476.34 2.526.504 4.814.716 5.588.012.043 0-.045 0 0l2.063 25.33a.539.539 0 0 1-.532.516.492.492 0 0 1-.518-.491L23.07 82.7c-.223-.81-.396-3.19-.748-5.813-.62-4.632-1.936-10.639-3.331-15.124-.885-2.844-1.489-5.942-2.424-8.966-3.258-10.531-6.472-21.131-7.078-24.303-.13-.581-.322-1.445-.331-2.287-.01-.825.155-1.787.913-2.404a.577.577 0 0 1 .037-.028c.317-.217.66-.373 1.029-.41.38-.037.732.059 1.05.261.598.38 1.094 1.153 1.568 2.222l.013.032 4.431 12.402c-.422-8.293-.376-15.152-.093-22.906.049-1.32.304-2.415.695-3.246.385-.817.935-1.441 1.611-1.693.725-.271 1.446-.063 2 .495.132.134.255.287.37.46a9.48 9.48 0 0 1 .294-1.181c.3-.928.743-1.7 1.375-2.35.629-.647 1.424-1.149 2.395-1.566 1.385-.594 2.618-.518 3.664-.048 1.023.46 1.835 1.28 2.456 2.127.625.852 1.083 1.766 1.384 2.462a14.166 14.166 0 0 1 .446 1.173l.006.019.001.005v.001Z" fill="#0C296E"/><path d="M63.057 89.14c-2.33-.16-4.724-.236-7.162-.236-9.804 0-20.119 1.053-28.298 1.053-4.594 0-8.505-.329-11.268-1.354-2.773-1.044-4.388-2.784-4.388-5.587v8.296c0 2.803 1.615 4.553 4.388 5.578 2.774 1.035 6.674 1.355 11.268 1.355 8.18 0 18.494-1.054 28.298-1.054 2.438 0 4.832.066 7.162.235V89.14Z" fill="#00D6B9"/><path d="M47.704 39.892a75.294 75.294 0 0 1-.22-1.831l.536-1.056a866.85 866.85 0 0 1 2.158-4.22c.566-1.097.977-1.878 1.099-2.068.152-.236.468-.556.834-.812.358-.25.872-.518 1.417-.495.288.012.57.105.816.302.24.193.422.466.553.804.257.664.353 1.666.246 3.113-.11 1.47-.809 4.783-1.778 8.873a570.166 570.166 0 0 1-2.569 10.32 52.992 52.992 0 0 1-.614-1.784 529.563 529.563 0 0 0 2.16-8.724c.974-4.117 1.65-7.343 1.753-8.718.104-1.4-.004-2.232-.185-2.698-.088-.227-.185-.344-.258-.403a.34.34 0 0 0-.21-.079c-.18-.007-.443.091-.733.295a2.35 2.35 0 0 0-.544.512c-.087.135-.465.85-1.049 1.98a870.477 870.477 0 0 0-2.155 4.216l-1.257 2.474Z" fill="#0C296E"/></svg>