<svg width="120" height="120" viewBox="0 0 120 120" fill="none" xmlns="http://www.w3.org/2000/svg"><path d="M83.51 71.612a4 4 0 0 1 3.934-3.28h23.999a4 4 0 0 1 3.935 4.721l-5.404 29.5a4 4 0 0 1-3.934 3.28H82.041a4 4 0 0 1-3.934-4.721l5.403-29.5Z" fill="#41CCB9"/><path d="M77.826 41.826a.5.5 0 0 1 .499-.502l18.876-.061a.5.5 0 1 1 .004 1l-18.877.061a.5.5 0 0 1-.502-.498Z" fill="#E0E0E0"/><path d="M45.092 32.267a2 2 0 0 0-2 2v16.487a2 2 0 0 0 2 2h14.959a2 2 0 0 1 1.19.393L75.139 63.43c1.32.977 3.19.035 3.19-1.607V23.197c0-1.642-1.87-2.584-3.19-1.607L61.241 31.874a2 2 0 0 1-1.19.393H45.092Z" fill="#FAC823"/><path d="M4.666 96.87c0 .35.134.698.399 1.037 2.411 3.082 8.097 3.314 11.601 3.701v8.046c-3.684-.408-9.184-.613-11.601-3.701-.265-.339-.399-1.062-.399-1.411v-7.671Z" fill="#41CCB9"/><path d="M3.818 79.58c0-3.987 5.542-5.789 7.178-5.981l-1.07 7.981c-1.493.176-6.108 3.43-6.108 6.645V79.58Z" fill="#fff" fill-opacity=".4"/><path d="M3.79 79.251v8.482c0 11.884 30.916 9.123 36.475 7.828v-8.482C34.575 88.415 3.79 91.985 3.79 79.25Zm43.093 15.744v-7.946c7.235-1.202 12.715-.355 19.213-.186v7.945c-6.249-.28-13.028-.875-19.213.187Z" fill="#4C88FF"/><path d="M27.092 109.417c6.894.881 14.663.204 22.446-.58l1.708-.173c7.046-.717 14.056-1.43 20.184-.963v-6.003c-6.764-.809-14.556-.067-22.39.73l-.828.085c-7.385.754-14.783 1.509-21.12.893v6.011Zm0-7.016c6.253.624 13.604-.126 21.08-.889 8.388-.856 16.934-1.728 24.258-.692v7.974c-.33-.034-.664-.064-1-.09-6.048-.472-13.002.235-20.113.958-8.623.877-17.478 1.777-25.225.626v-8c.33.042.664.079 1 .113Z" fill="#E0E0E0"/><path d="M112.158 9.258c-2.528 0-4.904 2.01-5.352 4.511l-1.177 6.65a.499.499 0 0 0 .493.587h4.904a4.5 4.5 0 0 0 4.431-3.716l.592-3.345c.227-1.267-.082-2.443-.798-3.306-.717-.864-1.813-1.381-3.093-1.381Z" fill="#fff" fill-opacity=".4"/><path d="M55.607 9.258c-2.528 0-4.904 2.01-5.351 4.511l-1.423 8.01a.5.5 0 1 0 .985.175l1.422-8.009c.364-2.031 2.33-3.687 4.367-3.687h53.508c-1.175.826-2.054 2.09-2.309 3.512l-1.175 6.642-.001.007-11.057 58.037a3.5 3.5 0 0 1-3.438 2.844H42.667a3.5 3.5 0 0 1-3.446-4.112l1.341-7.553a.5.5 0 0 0-.984-.175l-1.342 7.554a4.5 4.5 0 0 0 4.43 5.287h48.469a4.5 4.5 0 0 0 4.42-3.658l11.058-58.041.001-.009 1.177-6.647c.364-2.032 2.331-3.688 4.367-3.688a.5.5 0 1 0 0-1h-56.55Z" fill="#E0E0E0"/><path d="M36.735 24.49a.5.5 0 0 0-.556.437c-.137 1.144-.338 5.407-.505 9.35a1432.157 1432.157 0 0 0-.279 7l-.023.636.5.018-.5-.018c-.001.02 0 .042.001.063.224 2.516 2.064 4.52 4.605 4.565h.011c.687-.003 1.431-.263 2.157-.631.733-.372 1.491-.878 2.216-1.426 1.448-1.094 2.805-2.386 3.62-3.195 1.526-1.5 3.155-2.691 4.632-3.444 1.498-.764 2.75-1.031 3.568-.833a.171.171 0 0 1 .121.099c.035.069.062.192.052.377-.021.373-.184.837-.4 1.182l-.005.008a76.43 76.43 0 0 1-1.5 2.348 204.302 204.302 0 0 1-.866 1.308l-.072.108-.001.002c-2.838 4.209-5.73 8.922-8.644 13.67-.929 1.514-1.86 3.03-2.792 4.536-3.862 6.238-7.744 12.278-11.595 17.091a.5.5 0 0 0-.108.28l-1.056 16.367a.5.5 0 0 0 .998.064l1.045-16.21c3.86-4.844 7.737-10.88 11.566-17.066.938-1.514 1.872-3.036 2.803-4.553 2.91-4.744 5.788-9.431 8.612-13.62l.001-.002.075-.111a142.039 142.039 0 0 0 .87-1.315 80.993 80.993 0 0 0 1.518-2.378c.289-.461.518-1.084.55-1.654.015-.286-.017-.6-.155-.878a1.17 1.17 0 0 0-.762-.62l-.01-.003c-1.18-.29-2.709.117-4.267.912-1.584.807-3.294 2.064-4.879 3.623l-.001.002c-.805.798-2.125 2.053-3.52 3.107-.7.528-1.405.996-2.067 1.332-.667.339-1.246.52-1.704.523-1.94-.037-3.42-1.553-3.617-3.623l.023-.604.064-1.696c.055-1.414.13-3.321.214-5.299.168-3.97.368-8.179.5-9.273a.5.5 0 0 0-.438-.556ZM9.17 17.43c-.113.05-.314.23-.343.86-.031.669.096 2.295.316 4.498.186 1.86.433 4.095.692 6.44l.137 1.235c.613 5.557 1.25 11.49 1.25 14.25 0 2.727-.025 10.05-.05 16.688l-.035 8.789-.015 3.808-.5-.002.498.046-.021.231-.06.66-.221 2.389c-.186 1.997-.444 4.71-.73 7.57-.57 5.708-1.251 12.042-1.695 14.428a.5.5 0 1 1-.984-.183c.435-2.334 1.113-8.616 1.684-14.344a1227.451 1227.451 0 0 0 1.01-10.61l.019-.21.015-3.787.035-8.789c.025-6.64.05-13.959.05-16.683 0-2.69-.627-8.552-1.244-14.142l-.137-1.234c-.259-2.344-.507-4.585-.693-6.45-.217-2.172-.355-3.885-.32-4.644.036-.799.32-1.449.928-1.725.578-.263 1.24-.086 1.8.24 1.142.665 2.322 2.193 2.827 4.148.485 1.881 1.184 6.3 1.758 10.215a575.26 575.26 0 0 1 1.013 7.24l.02.156-.495.066-.496.065-.02-.156-.06-.445-.22-1.619a569.819 569.819 0 0 0-.731-5.162c-.577-3.936-1.269-8.293-1.738-10.11-.45-1.745-1.49-3.026-2.361-3.534-.447-.26-.74-.259-.883-.194Zm1.452 56.566.498.046a.513.513 0 0 0 .002-.043l-.5-.002Zm5.122-34.916a.5.5 0 0 1-.56-.43l.495-.066.495-.066a.5.5 0 0 1-.43.562Z" fill="#E0E0E0"/><path d="M32.102 21.413a.5.5 0 0 1-.32.63l-.155-.475-.155-.475a.5.5 0 0 1 .63.32ZM21.92 26.167c1.287-.722 2.81-1.42 4.276-2.034a81.98 81.98 0 0 1 5.468-2.05l.089-.03.022-.007.007-.002-.154-.476-.155-.475-.009.003-.023.007-.092.03-.346.117a82.877 82.877 0 0 0-5.192 1.96c-1.483.621-3.046 1.337-4.38 2.084-1.315.737-2.476 1.54-3.09 2.356-.54.71-.988 1.83-1.36 3.048-.379 1.233-.696 2.628-.951 3.932a72.727 72.727 0 0 0-.765 4.8l-.01.077-.002.02v.008l.414.048-.415-.048a.5.5 0 1 0 .994.115v-.005l.003-.02.009-.074.036-.29a71.7 71.7 0 0 1 .717-4.439c.252-1.287.562-2.644.925-3.832.369-1.203.776-2.175 1.202-2.737.48-.636 1.476-1.355 2.782-2.086Z" fill="#E0E0E0"/><path d="M39.951 20.63c-2.098.05-4.784.517-6.853.948l-.011.002c-.81.15-1.501.377-1.956.829-.334.358-.5.876-.647 1.466l-.002.009c-.847 3.159-1.158 5.37-1.662 9.599a.5.5 0 1 1-.993-.119c.505-4.235.822-6.506 1.688-9.735.146-.585.359-1.343.892-1.91l.01-.012c.682-.682 1.636-.953 2.483-1.11 2.078-.432 4.838-.915 7.032-.967h.008c.799-.006 1.69.032 2.468.369.05.021.096.05.136.087a766.046 766.046 0 0 1 4.42 4.007c2.509 2.287 4.318 3.937 6.452 5.698.721.595.98 1.59.476 2.404-.499.805-1.607 1.222-3.178 1.049-.798-.087-1.856-.577-2.935-1.193-1.102-.63-2.304-1.436-3.41-2.227a81.761 81.761 0 0 1-3.907-2.98l-3.606.655a.5.5 0 1 1-.178-.984l3.833-.697a.5.5 0 0 1 .407.107l.005.004.016.013.062.05.238.194a81.005 81.005 0 0 0 3.711 2.825c1.094.781 2.264 1.566 3.325 2.171 1.083.619 1.978 1.006 2.547 1.068 1.397.154 2.015-.251 2.22-.581.199-.321.139-.776-.263-1.107-2.153-1.777-3.989-3.45-6.51-5.75a769.442 769.442 0 0 0-4.33-3.925c-.556-.22-1.233-.262-1.988-.257Zm-15.046 3.012a.5.5 0 0 1 .308.637c-1.167 3.343-2.139 6.763-2.78 10.25a.5.5 0 0 1-.984-.18c.653-3.55 1.64-7.02 2.82-10.4a.5.5 0 0 1 .636-.307Z" fill="#E0E0E0"/></svg>