<svg width="120" height="120" viewBox="0 0 120 120" fill="none" xmlns="http://www.w3.org/2000/svg">
  <path d="M58.451 32.435h-44a4 4 0 0 0-4 4v70.001a4 4 0 0 0 4 4h44a4 4 0 0 0 4-4v-70a4 4 0 0 0-4-4Z" fill="#BBBFC4" fill-opacity=".45"/>
  <path d="M58 4.436h44a4 4 0 0 1 4 4v70a4 4 0 0 1-4 4H65.89V32.999a4 4 0 0 0-4-4H54V8.436a4 4 0 0 1 4-4Z" fill="#BBBFC4" fill-opacity=".45"/>
  <path d="M70 40.667A8.667 8.667 0 0 1 78.668 32h8.667A8.667 8.667 0 0 1 96 40.667v8.666A8.667 8.667 0 0 1 87.335 58h-8.667a8.667 8.667 0 0 1-8.666-8.667v-8.666Z" fill="url(#udi4tCiSy5QbfeNtqNKU6g3y__a)"/>
  <path fill-rule="evenodd" clip-rule="evenodd" d="M76.008 40.568a.985.985 0 0 0-.985.985v5.22a2.66 2.66 0 0 0 2.66 2.659h7.78c.544 0 .985-.44.985-.985v-5.22a2.66 2.66 0 0 0-2.66-2.659h-7.78Zm11.547 2.108a1.182 1.182 0 0 0-.418.903v2.832c0 .354.158.689.432.913l2.202 1.807a.739.739 0 0 0 1.207-.571v-7.187a.739.739 0 0 0-1.216-.564l-2.207 1.867Z" fill="#fff"/>
  <path d="M106 33.002v-9.514c3.001.015 8.069 3.56 8.75 6.815-.25 7.864 0 8.527-.081 10.81-1.013-3.654-4.544-8.472-8.669-8.111ZM10.45 87.185V74.502C3.662 81.039 1 87.002 3.614 91.838c2.525 3.44 1.958 6.033 4.006 8.35-1.377-3.746-1.01-8.266 2.83-13.003Z" fill="#0C296E"/>
  <path d="m3.136 90.713 3.161 8.184c2.524 4.437 14.186 5.009 33.694 0v-8.899c-.336.089-.669.176-1 .261C21.2 94.867 9.528 95.383 4.9 92.51c-.8-.5-1.39-1.1-1.764-1.798Zm2.311 3.209c.381.17.785.32 1.21.455 2.037.645 4.667.94 7.828.905 6.078-.068 14.313-1.364 24.506-3.99v6.828c-9.358 2.358-16.801 3.387-22.204 3.319-2.774-.035-4.963-.359-6.58-.912-1.583-.541-2.527-1.268-3.006-2.065l-1.754-4.54Z" fill="#0C296E"/>
  <path d="M99.098 48.742c12.402-6.74 15.648-13.242 15.648-18.54l.001 9.623c0 3.936-1.06 10.218-15.649 18.433V48.74Z" fill="#00D6B9"/>
  <path d="M44.955 100.246c8.283-2.356 14.772-5.493 21.593-8.79 1.009-.487 2.025-.978 3.056-1.471v6.041c-8.275 4.184-12.907 6.321-24.649 9.56v-5.34Zm24.649-11.37c-1.19.568-2.358 1.132-3.513 1.69-7.016 3.391-13.594 6.57-22.136 8.922v7.408l1-.273c12.275-3.373 16.916-5.559 25.649-9.982v-8.239c-.335.158-.669.317-1 .475Z" fill="#0C296E"/>
  <path d="m37.044 71.654.075-.075.15-.148.096-.1.306-.31.416-.423.357-.363.335-.34.35-.356.322-.33.447-.455c.085-.083.17-.165.258-.248.161-.153.328-.3.501-.441.16-.13.321-.255.482-.375a10.142 10.142 0 0 1 2.171-1.204 10.156 10.156 0 0 1 .627-.226 18.328 18.328 0 0 0-3.33-6.88 1.616 1.616 0 0 0-.559-.455 1.57 1.57 0 0 0-.694-.161H26.488c-.05 0-.1.017-.14.047a.255.255 0 0 0-.002.4 38.31 38.31 0 0 1 10.666 12.472l.032-.03Z" fill="#00D6B9"/>
  <path d="M31.938 83.308a17.292 17.292 0 0 0 8.964-2.509 17.95 17.95 0 0 0 6.795-7.434 7.754 7.754 0 0 1-.708 1.144 7.29 7.29 0 0 1-.492.585 7.562 7.562 0 0 1-.482.47 5.847 5.847 0 0 1-.286.239 6.151 6.151 0 0 1-.576.408 6.679 6.679 0 0 1-1.211.604 5.782 5.782 0 0 1-.513.165 6.6 6.6 0 0 1-1.372.242 7.401 7.401 0 0 1-1.323-.027 8.051 8.051 0 0 1-1.211-.237 36.106 36.106 0 0 1-.662-.19l-.328-.1-.489-.153c-.133-.042-.266-.083-.401-.13l-.377-.128-.257-.09-.312-.111-.221-.083a27.78 27.78 0 0 1-.438-.165l-.253-.093-.337-.135-.356-.146-.23-.096-.286-.12-.22-.096-.23-.101-.198-.09-.18-.083-.184-.083-.189-.089-.24-.114-.25-.122-.265-.133-.225-.115a37.206 37.206 0 0 1-10.528-8.075.24.24 0 0 0-.262-.061.241.241 0 0 0-.11.089.252.252 0 0 0-.044.137l.009 11.679v.948c0 .27.064.538.187.777.124.24.304.444.523.595a17.248 17.248 0 0 0 9.768 3.027Z" fill="#3370FF"/>
  <path d="M51.451 66.841a9.906 9.906 0 0 0-8.14-.359 9.937 9.937 0 0 0-2.654 1.579 10.911 10.911 0 0 0-.759.69l-.444.457-.321.331-.35.356-.336.34-.359.36-.415.422-.308.315-.101.103-.149.149-.075.074-.114.111-.123.117a17.758 17.758 0 0 1-3.666 2.67l.241.114.19.09.182.082.181.083.199.09.229.102.22.096.286.123.23.097.356.145.337.135.254.098.438.166.221.082.312.111.256.09.377.129c.133.043.265.087.402.13.16.051.322.103.489.153l.328.1c.22.065.44.128.662.19a8.556 8.556 0 0 0 .694.16 7.751 7.751 0 0 0 1.214.12c.21 0 .42 0 .626-.017a6.581 6.581 0 0 0 1.373-.242 8.73 8.73 0 0 0 .512-.165 6.527 6.527 0 0 0 1.438-.754 6.549 6.549 0 0 0 1.116-.966 7.223 7.223 0 0 0 .695-.867 7.85 7.85 0 0 0 .503-.853l.172-.353 1.55-3.197v.006a10.142 10.142 0 0 1 2.031-2.993Z" fill="#133C9A"/>
  <path d="M17.5 41a.5.5 0 0 0 .5.5h36a.5.5 0 0 0 0-1H18a.5.5 0 0 0-.5.5Zm44-28a.5.5 0 0 0 .5.5h36a.5.5 0 0 0 0-1H62a.5.5 0 0 0-.5.5Z" fill="#8F959E"/>
  <path d="M98 99c9.941 0 18-8.059 18-18s-8.059-18-18-18-18 8.059-18 18 8.059 18 18 18Z" fill="#F80"/>
  <path d="M97.182 72.818a.818.818 0 0 0-.818.819v9.818c0 .452.366.818.818.818h1.636a.818.818 0 0 0 .819-.818v-9.819a.818.818 0 0 0-.819-.818h-1.636Zm0 13.092a.818.818 0 0 0-.818.818v1.636c0 .452.366.818.818.818h1.636a.818.818 0 0 0 .819-.818v-1.636a.818.818 0 0 0-.819-.819h-1.636Z" fill="#fff"/>
  <defs>
    <linearGradient id="udi4tCiSy5QbfeNtqNKU6g3y__a" x1="83.001" y1="32" x2="83.001" y2="58" gradientUnits="userSpaceOnUse">
      <stop stop-color="#4594FF"/>
      <stop offset="0" stop-color="#4594FF"/>
      <stop offset="1" stop-color="#2D75FB"/>
    </linearGradient>
  </defs>
</svg>
