<svg width="120" height="120" viewBox="0 0 120 120" fill="none" xmlns="http://www.w3.org/2000/svg">
  <path d="M65.528 104.17c-11.43 0-41.774-3.023-48.032-5.836.184 1.945-.239 4.699 0 7.222 11.252 4.81 48.032 5.83 48.032 5.83v-7.216Z" fill="#528CFF"/>
  <path d="M108.261 68.124c-.86.054-2.005.324-3.357.87h-.002c-2.186.87-5.543 2.861-9.423 5.368-3.538 2.286-7.476 4.98-11.302 7.595l-1.071.733c-3.435 2.337-6.672 4.522-9.268 6.139-1.298.808-2.444 1.48-3.38 1.96-.469.24-.891.435-1.26.576-.36.139-.697.237-.986.26-2.116.17-3.757-.73-5.514-2.05-.593-.445-1.195-.934-1.837-1.455-1.294-1.051-2.75-2.233-4.61-3.45-2.489-1.617-3.978-2.312-4.966-2.543-.483-.113-.834-.112-1.12-.06-.288.053-.539.164-.828.315l-.007.004a.481.481 0 0 0-.224.192.46.46 0 0 0-.043.252c.015.251.146.576.346.923l.005.009c.072.132.33.456.768.95.42.476.965 1.064 1.562 1.701l.86.917a154.741 154.741 0 0 1 2.74 2.963c5.545 6.95 6.801 12.06 6.608 15.49-.097 1.713-.555 2.986-.997 3.839a6.61 6.61 0 0 1-.601.962 4.033 4.033 0 0 1-.264.316l-.019.02-.006.006-.002.002v.001s-.002.001-.354-.354l.352.355a.5.5 0 0 1-.706-.708v-.001l.008-.007.038-.042c.035-.04.09-.104.156-.192.133-.176.318-.448.51-.818.384-.74.798-1.876.886-3.435.176-3.11-.944-7.981-6.382-14.8-.752-.846-1.733-1.889-2.687-2.904-.295-.314-.588-.624-.87-.926a89.034 89.034 0 0 1-1.58-1.721c-.41-.464-.755-.877-.895-1.129-.217-.378-.445-.868-.474-1.358a1.444 1.444 0 0 1 .161-.786 1.47 1.47 0 0 1 .65-.608c.319-.167.674-.331 1.11-.411.44-.081.93-.07 1.526.069 1.169.273 2.78 1.052 5.284 2.68h.001c1.9 1.242 3.44 2.491 4.756 3.559.628.51 1.204.977 1.745 1.384 1.705 1.28 3.093 1.992 4.835 1.851.146-.011.378-.069.707-.195.323-.124.711-.303 1.161-.533.9-.462 2.02-1.117 3.308-1.92 2.576-1.604 5.796-3.776 9.233-6.115l1.072-.733c3.824-2.615 7.773-5.315 11.322-7.608 3.87-2.501 7.305-4.545 9.595-5.458 1.418-.571 2.67-.876 3.667-.939.499-.03.95-.002 1.333.095.381.096.729.27.97.557.534.634.313 1.468-.213 2.215-.543.771-1.532 1.656-3.006 2.62-4.539 2.97-9.558 7.057-13.451 10.41a230.429 230.429 0 0 0-6.148 5.493l-.364.34-.093.088-.03.029-.345-.363-.344-.363.033-.031.095-.09.367-.342c.32-.299.788-.73 1.377-1.268a231.214 231.214 0 0 1 4.8-4.251c3.902-3.361 8.961-7.482 13.555-10.489 1.43-.935 2.299-1.737 2.737-2.359.454-.645.337-.91.265-.996-.062-.073-.194-.166-.451-.23-.253-.065-.595-.093-1.024-.067ZM86.851 88.61l-.344-.363a.5.5 0 1 0 .688.726l-.344-.363Z" fill="#E0E0E0"/>
  <path d="M99.61 77.586a.5.5 0 0 1 .177.685c-1.813 3.062-3.835 6.046-5.403 8.262a147.32 147.32 0 0 1-2.486 3.41l-.148.197-.039.05-.013.017-.397-.304.375.33-.117.134-.335.383c-.29.332-.708.81-1.216 1.396a504.98 504.98 0 0 0-3.855 4.493c-2.89 3.412-6.044 7.25-7.27 9.138l-1.46 5.613a.5.5 0 1 1-.967-.252l1.48-5.691a.507.507 0 0 1 .062-.144c1.238-1.931 4.484-5.877 7.392-9.31a505.462 505.462 0 0 1 5.417-6.285l.107-.122.003-.004.037-.048a66.615 66.615 0 0 0 .697-.93 147.35 147.35 0 0 0 1.917-2.648c1.559-2.205 3.564-5.164 5.358-8.194a.5.5 0 0 1 .685-.176Zm-8.309 12.317.375.33a.448.448 0 0 0 .022-.026l-.397-.304Zm13.437-25.606c-.126-.07-.227-.077-.295-.058a.536.536 0 0 1-.027.007c-.138.032-.263.157-.476.418-1.443 1.772-2.451 2.997-3.458 4.221a1034.167 1034.167 0 0 0-3.455 4.218.5.5 0 1 1-.775-.632 960.73 960.73 0 0 1 3.458-4.22 1038.988 1038.988 0 0 0 3.479-4.248c.172-.212.492-.608.989-.728a1.386 1.386 0 0 1 1.048.149c.293.163.542.418.694.708a.468.468 0 0 1 .036.088c.121.4.065.874-.039 1.307-.108.45-.289.935-.493 1.397-.407.923-.933 1.818-1.256 2.264a.5.5 0 1 1-.811-.585c.277-.383.77-1.215 1.152-2.082a7.66 7.66 0 0 0 .436-1.228c.084-.349.094-.593.065-.74a.783.783 0 0 0-.272-.256Zm-8.42 2.509c.296.09.549.285.707.593l.005.01c.186.384.138.778.033 1.092a3.197 3.197 0 0 1-.447.823.5.5 0 0 1-.81-.585c.137-.191.25-.383.309-.557.056-.168.046-.268.017-.332a.154.154 0 0 0-.102-.086.676.676 0 0 0-.324.01c-.314.068-.684.269-.95.493-2.137 1.93-4.387 5.015-5.769 7.555a.503.503 0 0 1-.064.092l-.046.052-.134.15-.501.56a206.4 206.4 0 0 1-1.765 1.936c-1.445 1.565-3.34 3.57-5.137 5.321a.5.5 0 0 1-.698-.716c1.778-1.733 3.66-3.724 5.1-5.284a205.8 205.8 0 0 0 2.255-2.482l.132-.148.007-.01c1.425-2.604 3.727-5.764 5.956-7.773l.011-.01c.362-.308.88-.602 1.389-.714.256-.056.547-.074.826.01Z" fill="#E0E0E0"/>
  <path d="M102.514 63.266c-.648.098-1.269.466-1.658.793l-.012.01c-.393.31-.896.845-1.436 1.484a47.567 47.567 0 0 0-1.572 1.988v.001c-4.298 5.677-4.733 6.153-8.934 10.758l-.957 1.05a.5.5 0 0 1-.74-.673l.969-1.062c4.175-4.576 4.594-5.035 8.864-10.676a48.66 48.66 0 0 1 1.606-2.031c.544-.644 1.098-1.242 1.574-1.619.477-.4 1.262-.878 2.146-1.012.926-.14 1.944.104 2.755 1.129a.5.5 0 0 1-.784.62c-.564-.712-1.21-.853-1.821-.76ZM11 28.522c2.281-3.37 8.002-5.76 12.257-5.76V15c-.342 0-.674.006-1 .019C12.698 15.39 10 21.095 10 24.512v7.006c0-1.054.368-2.063 1-2.996Zm0-1.605v-2.405c0-1.516.625-3.627 2.43-5.36 1.67-1.602 4.426-2.955 8.828-3.133V21.8c-2.692.2-5.72 1.183-8.181 2.66-1.138.682-2.212 1.508-3.077 2.456Z" fill="#E0E0E0"/>
  <path d="M9.86 38.61a4 4 0 0 0-2.547 5.05L20.1 82.477a4 4 0 0 0 5.05 2.547l55.395-18.249a4 4 0 0 0 2.548-5.05l-3.186-9.67 13.366 2.784c3.014.627 5.578-2.242 4.615-5.167l-8.697-26.429c-.963-2.926-4.733-3.711-6.784-1.413L73.31 32.024l-3.004-9.116a4 4 0 0 0-5.05-2.547L9.86 38.61Z" fill="#fff" fill-opacity=".3"/>
  <path d="M14.134 64.367c-.599.398-1.175.793-1.727 1.185-1.771 1.539-3.199 3.07-4.245 4.55a14.343 14.343 0 0 0-1.3 2.216 9.494 9.494 0 0 0-.719 2.154c-.095.478-.142.95-.142 1.414v6.988c0-.462.047-.936.14-1.413.14-.7.72-.155.72-.155s.772-1.468 1.3-2.216c1.046-1.48 4.432-4.457 6.203-5.995a76.77 76.77 0 0 1 2.151-1.5l-2.381-7.228Zm79.107-28.818-2.611-7.936c2.304-1.439 4.287-2.934 5.65-4.47.678-.767 1.305-.948 1.797-1.091.642-.186 1.055-.306 1.055-1.575v8.666c0 1.914-1.27 3.207-3.545 4.89a56.865 56.865 0 0 1-2.346 1.516Zm-73.878-.069-7.107 2.34c-1.476-1.732-2.38-3.722-2.242-6.058V25c0 2.916 3.83 7.275 9.349 10.48Zm40.853 9.713c1.507.314 2.109 2.141 1.084 3.29L45.955 65.665c-1.025 1.148-2.909.756-3.39-.706l-7.22-21.89c-.482-1.462.8-2.898 2.308-2.584l22.563 4.708Z" fill="#fff" fill-opacity=".4"/>
  <path d="M99.128 29.833a11.7 11.7 0 0 0-.451-2.932c-1.73-6-7.899-9.236-13.466-10.947V7c4.804 1.476 9.915 3.536 12.458 8.1.428.77.766 1.584 1.008 2.416.302 1.043.455 2.142.455 3.252v9.385c0-.107-.001-.214-.004-.32ZM6 75.518a9.113 9.113 0 0 0 .603 3.292c.255.669.587 1.315.983 1.917 2.363 3.595 6.675 5.384 10.687 6.407 4.877 1.245 19.89 3.177 24.907 3.177v8.187c-5.017 0-20.028-1.934-24.907-3.177-4.011-1.023-8.324-2.812-10.687-6.406a9.944 9.944 0 0 1-.983-1.918A9.213 9.213 0 0 1 6 83.705v-8.187Z" fill="#17CFB5"/>
</svg>
