<svg width="120" height="120" viewBox="0 0 120 120" fill="none" xmlns="http://www.w3.org/2000/svg"><mask id="udq080i90ora" style="mask-type:alpha" maskUnits="userSpaceOnUse" x="17" y="98" width="49" height="14"><path fill="#C4C4C4" d="M17 98h49v14H17z"/></mask><g mask="url(#udq080i90ora)"><path d="M65.528 104.17c-11.43 0-41.774-3.023-48.032-5.836.184 1.945-.238 4.699 0 7.222 11.252 4.81 48.032 5.83 48.032 5.83v-7.216Z" fill="#4C88FF"/></g><path d="M98.077 22.052c.642-.186 1.055-.306 1.055-1.575v8.666c0 1.914-1.27 3.207-3.545 4.89-4.946 3.375-10.539 5.943-15.85 8.381-1.867.857-2.817 1.286-4.574 2.14-.494.252-1.884.916-2.406 1.168-.135.069.135-.069 0 0-4.817 2.302-11.16 4.858-17.56 7.404-13.638 5.423-29.372 11.68-40.833 19.97-1.771 1.537-5.157 4.514-6.203 5.994-.528.748-1.3 2.216-1.3 2.216s-.58-.545-.72.155A7.346 7.346 0 0 0 6 82.874v-6.988h.001c0-.463.047-.936.142-1.413.137-.7.38-1.424.719-2.155.335-.722.772-1.468 1.3-2.216 1.046-1.48 2.473-3.011 4.245-4.55 13.72-9.748 42.602-21.632 56.48-27.342a680.5 680.5 0 0 0 5.16-2.137c1.204-.59 2.501-1.206 3.849-1.845 6.755-3.205 14.762-7.004 18.384-11.085.678-.767 1.305-.948 1.797-1.091Z" fill="#fff" fill-opacity=".4"/><path d="M99.128 29.833a11.696 11.696 0 0 0-.451-2.932c-1.73-6-7.899-9.236-13.466-10.947V7c4.804 1.476 9.915 3.536 12.458 8.1.427.77.766 1.584 1.008 2.416.302 1.043.455 2.142.455 3.252v9.385c0-.107-.001-.214-.004-.32ZM6 75.518a9.112 9.112 0 0 0 .603 3.292 9.98 9.98 0 0 0 .983 1.917c2.363 3.595 6.675 5.384 10.687 6.407 4.877 1.245 19.89 3.177 24.906 3.177v8.187c-5.017 0-20.028-1.934-24.906-3.177-4.012-1.023-8.324-2.812-10.687-6.406a9.944 9.944 0 0 1-.983-1.918A9.213 9.213 0 0 1 6 83.705v-8.187Z" fill="#41CCB9"/><path d="M108.26 68.123c-.859.054-2.004.324-3.356.87h-.002c-2.186.871-5.544 2.861-9.424 5.369-3.537 2.285-7.475 4.978-11.301 7.595l-1.072.732c-3.434 2.337-6.671 4.522-9.268 6.139-1.297.808-2.444 1.48-3.38 1.96-.468.24-.89.435-1.258.576-.36.138-.698.237-.987.26-2.117.17-3.757-.73-5.515-2.05a63.079 63.079 0 0 1-1.836-1.455c-1.294-1.051-2.75-2.233-4.61-3.45-2.49-1.617-3.978-2.312-4.967-2.543-.483-.113-.834-.112-1.118-.06-.29.053-.54.164-.83.315l-.007.004a.48.48 0 0 0-.223.192.46.46 0 0 0-.044.252c.016.251.147.576.346.924l.005.008c.073.132.331.456.77.951.42.475.964 1.063 1.56 1.7l.86.917a154.086 154.086 0 0 1 2.741 2.963c5.545 6.95 6.801 12.06 6.607 15.49-.097 1.713-.554 2.986-.996 3.839-.22.426-.437.746-.602.962a4.11 4.11 0 0 1-.263.316l-.019.02-.006.006-.002.002-.001.001-.353-.354.352.355a.5.5 0 0 1-.706-.708v-.001l.008-.007.038-.042c.035-.04.089-.104.156-.192.133-.176.318-.448.51-.818.383-.74.798-1.876.886-3.435.175-3.11-.945-7.981-6.382-14.8a152.352 152.352 0 0 0-2.688-2.904l-.87-.926a88.735 88.735 0 0 1-1.58-1.721c-.41-.464-.755-.876-.894-1.129-.217-.378-.446-.868-.475-1.358a1.454 1.454 0 0 1 .162-.786 1.47 1.47 0 0 1 .65-.608c.319-.167.674-.331 1.109-.411.44-.081.931-.07 1.527.069 1.169.273 2.78 1.052 5.284 2.68h.001c1.9 1.242 3.44 2.491 4.756 3.56.627.508 1.204.976 1.745 1.383 1.704 1.28 3.093 1.992 4.834 1.851h.001c.146-.011.377-.069.707-.195.322-.124.71-.303 1.16-.533.9-.462 2.02-1.117 3.309-1.92 2.576-1.604 5.796-3.776 9.233-6.115l1.072-.733c3.823-2.615 7.772-5.315 11.322-7.608 3.87-2.501 7.304-4.545 9.595-5.458 1.417-.571 2.67-.876 3.667-.939.498-.03.95-.002 1.333.095.38.097.729.27.97.557.533.634.313 1.468-.213 2.215-.543.771-1.533 1.656-3.007 2.62-4.538 2.97-9.558 7.057-13.45 10.41a229.903 229.903 0 0 0-6.148 5.493c-.16.148-.282.262-.364.34l-.093.087-.031.03-.344-.363-.344-.363.032-.031.095-.09a181.426 181.426 0 0 1 1.745-1.61 230.906 230.906 0 0 1 4.8-4.251c3.902-3.361 8.961-7.482 13.555-10.489 1.43-.935 2.299-1.737 2.736-2.359.455-.645.338-.91.265-.995-.062-.074-.194-.167-.45-.232-.253-.064-.595-.092-1.025-.066ZM86.85 88.61l-.343-.363a.5.5 0 1 0 .688.726l-.344-.363Z" fill="#E0E0E0"/><path d="M99.611 77.586a.5.5 0 0 1 .176.685c-1.813 3.062-3.835 6.046-5.402 8.262a147.32 147.32 0 0 1-2.487 3.41l-.148.196-.039.05-.013.018-.397-.304.375.33-.117.134-.335.382a490.408 490.408 0 0 0-5.07 5.89c-2.89 3.412-6.045 7.25-7.27 9.137l-1.46 5.614a.5.5 0 0 1-.968-.252l1.48-5.691a.495.495 0 0 1 .063-.144c1.237-1.931 4.483-5.877 7.392-9.311a502.02 502.02 0 0 1 5.416-6.285l.107-.122.003-.003.037-.049a69.807 69.807 0 0 0 .697-.929c.472-.636 1.138-1.547 1.917-2.649 1.559-2.204 3.564-5.163 5.358-8.194a.5.5 0 0 1 .685-.175Zm-8.31 12.317.375.33a.546.546 0 0 0 .022-.026l-.397-.304Zm13.437-25.606c-.126-.07-.227-.077-.295-.058a.536.536 0 0 1-.027.007c-.138.032-.263.157-.476.418-1.443 1.772-2.451 2.997-3.458 4.221a1034.167 1034.167 0 0 0-3.455 4.218.5.5 0 1 1-.775-.632 960.73 960.73 0 0 1 3.458-4.22 1038.988 1038.988 0 0 0 3.479-4.248c.172-.212.492-.608.989-.728a1.386 1.386 0 0 1 1.048.149c.293.163.542.418.694.708a.468.468 0 0 1 .036.088c.121.4.065.874-.039 1.307-.108.45-.289.935-.493 1.397-.407.923-.933 1.818-1.256 2.264a.5.5 0 1 1-.811-.585c.277-.383.77-1.215 1.152-2.082a7.66 7.66 0 0 0 .436-1.228c.084-.349.094-.593.065-.74a.783.783 0 0 0-.272-.256Zm-8.42 2.508c.296.09.549.285.707.593l.005.01c.186.384.138.778.033 1.092a3.198 3.198 0 0 1-.447.823.5.5 0 1 1-.81-.585c.137-.191.25-.383.309-.557.057-.168.046-.268.017-.332a.154.154 0 0 0-.102-.086.675.675 0 0 0-.324.01c-.314.068-.684.269-.95.493-2.137 1.93-4.387 5.015-5.769 7.555a.492.492 0 0 1-.064.092l-.046.052-.134.15-.501.56c-.43.478-1.042 1.153-1.765 1.936-1.445 1.565-3.34 3.57-5.137 5.321a.5.5 0 1 1-.698-.716c1.778-1.733 3.66-3.724 5.1-5.284a207.214 207.214 0 0 0 2.255-2.482l.132-.148.007-.01c1.425-2.604 3.727-5.764 5.956-7.773l.011-.01c.362-.308.88-.602 1.389-.714.256-.056.547-.074.826.01Z" fill="#E0E0E0"/><path d="M102.514 63.265c-.648.098-1.269.466-1.658.793l-.012.01c-.393.31-.896.845-1.436 1.484a47.65 47.65 0 0 0-1.572 1.988v.001c-4.298 5.677-4.733 6.153-8.934 10.758l-.957 1.05a.5.5 0 0 1-.74-.673l.97-1.062c4.174-4.576 4.593-5.035 8.863-10.676a48.589 48.589 0 0 1 1.606-2.031c.544-.644 1.098-1.241 1.574-1.618.477-.401 1.262-.88 2.146-1.013.926-.14 1.944.104 2.755 1.129a.5.5 0 0 1-.784.62c-.564-.712-1.21-.853-1.821-.76Z" fill="#E0E0E0"/><path d="M20.316 36.012C14.29 32.773 10.014 28.081 10.014 25v6.762c-.327 5.529 5.183 9.12 10.302 11.939v-7.689Z" fill="#fff" fill-opacity=".4"/><path d="M11 28.523c2.281-3.37 8.002-5.76 12.258-5.76V15h-.002c-.34 0-.673.007-.998.02C12.697 15.39 10 21.095 10 24.513v7.005c0-1.054.368-2.063 1-2.996Zm0-1.605v-2.404c0-1.517.625-3.627 2.43-5.36 1.67-1.603 4.426-2.956 8.828-3.134v5.782c-2.692.201-5.72 1.183-8.181 2.66-1.138.682-2.212 1.508-3.077 2.456Z" fill="#E0E0E0"/><path d="M9.86 38.61a4 4 0 0 0-2.547 5.05L20.1 82.477a4 4 0 0 0 5.05 2.547l55.395-18.249a4 4 0 0 0 2.548-5.05l-3.186-9.67 13.367 2.784c3.013.627 5.577-2.242 4.615-5.167l-8.699-26.43c-.963-2.926-4.733-3.711-6.784-1.413L73.31 32.024l-3.003-9.116a4 4 0 0 0-5.051-2.547L9.86 38.61Z" fill="#FAC823"/><path d="M60.216 45.194c1.507.314 2.109 2.142 1.084 3.29L45.955 65.666c-1.025 1.148-2.909.756-3.39-.706l-7.22-21.89c-.482-1.462.8-2.898 2.308-2.583l22.563 4.707Z" fill="#fff"/></svg>