<svg width="120" height="120" viewBox="0 0 120 120" fill="none" xmlns="http://www.w3.org/2000/svg"><path d="M58.451 32.435h-44a4 4 0 0 0-4 4v70.001a4 4 0 0 0 4 4h44a4 4 0 0 0 4-4v-70a4 4 0 0 0-4-4Z" fill="#BBBFC4" fill-opacity=".45"/><path d="M58 4.436h44a4 4 0 0 1 4 4v70a4 4 0 0 1-4 4H65.89V32.999a4 4 0 0 0-4-4H54V8.436a4 4 0 0 1 4-4Z" fill="#fff" fill-opacity=".3"/><path d="M94.48 44.295c0-.922-.083-1.808-.236-2.659H82v5.029h6.996a5.98 5.98 0 0 1-2.594 3.924v3.261h4.202c2.458-2.263 3.876-5.596 3.876-9.555Z" fill="#4285F4"/><path d="M82 57c3.51 0 6.453-1.164 8.604-3.15l-4.202-3.261c-1.164.78-2.653 1.24-4.402 1.24-3.386 0-6.252-2.286-7.274-5.359h-4.343v3.368A12.995 12.995 0 0 0 82 57Z" fill="#34A853"/><path d="M74.726 46.47a7.815 7.815 0 0 1-.408-2.47c0-.857.148-1.69.408-2.47v-3.368h-4.343A12.996 12.996 0 0 0 69 44c0 2.097.502 4.083 1.383 5.838l4.343-3.368Z" fill="#FBBC05"/><path d="M82 36.17c1.909 0 3.622.656 4.97 1.944l3.728-3.728C88.447 32.288 85.504 31 82 31a12.995 12.995 0 0 0-11.617 7.162l4.343 3.368c1.022-3.073 3.888-5.36 7.274-5.36Z" fill="#EA4335"/><path d="M106 33v-9.513c3.001.015 8.069 3.56 8.75 6.815-.25 7.864 0 8.527-.081 10.81-1.013-3.654-4.544-8.473-8.669-8.111ZM10.45 87.185V74.5C3.662 81.038 1 87.001 3.614 91.837c2.525 3.44 1.958 6.034 4.006 8.35-1.377-3.746-1.01-8.265 2.83-13.002Z" fill="#0C296E"/><path d="m3.136 90.712 3.161 8.184c2.524 4.436 14.186 5.009 33.694 0v-8.9c-.336.09-.669.177-1 .262C21.2 94.865 9.528 95.38 4.9 92.508c-.801-.499-1.392-1.098-1.765-1.796Zm2.311 3.209c.381.169.785.32 1.21.455 2.037.645 4.667.94 7.828.905 6.078-.068 14.313-1.364 24.506-3.99v6.827c-9.358 2.358-16.801 3.388-22.204 3.32-2.774-.035-4.963-.36-6.58-.912-1.583-.541-2.527-1.268-3.006-2.065l-1.754-4.54Z" fill="#E0E0E0"/><path d="M99.098 48.74C111.5 42 114.746 35.498 114.746 30.2l.001 9.624c0 3.936-1.06 10.218-15.649 18.433V48.74Z" fill="#00D6B9"/><path d="M44.955 100.245c8.283-2.356 14.772-5.493 21.593-8.79 1.009-.487 2.025-.979 3.056-1.471v6.041c-8.275 4.184-12.907 6.321-24.649 9.56v-5.34Zm24.649-11.37c-1.19.568-2.358 1.132-3.513 1.69-7.016 3.39-13.594 6.57-22.136 8.922v7.408l1-.273c12.275-3.373 16.916-5.559 25.649-9.982V88.4l-1 .475Z" fill="#E0E0E0"/><path d="m37.044 71.654.075-.075.15-.148.096-.1.306-.31.416-.423.357-.363.335-.34.35-.356.322-.33.447-.455c.085-.083.17-.165.258-.248.161-.153.328-.3.501-.441.16-.13.321-.255.482-.375a10.142 10.142 0 0 1 2.171-1.204 10.156 10.156 0 0 1 .627-.226 18.328 18.328 0 0 0-3.33-6.88 1.616 1.616 0 0 0-.559-.455 1.57 1.57 0 0 0-.694-.161H26.488c-.05 0-.1.017-.14.047a.255.255 0 0 0-.002.4 38.31 38.31 0 0 1 10.666 12.472l.032-.03Z" fill="#00D6B9"/><path d="M31.938 83.308a17.292 17.292 0 0 0 8.964-2.51 17.95 17.95 0 0 0 6.795-7.433 7.754 7.754 0 0 1-.708 1.144 7.29 7.29 0 0 1-.492.584 7.562 7.562 0 0 1-.482.471 5.847 5.847 0 0 1-.286.239 6.103 6.103 0 0 1-.576.407 6.643 6.643 0 0 1-1.211.603 5.782 5.782 0 0 1-.513.166 6.6 6.6 0 0 1-1.372.242 7.401 7.401 0 0 1-1.323-.027 8.051 8.051 0 0 1-1.211-.236 35.332 35.332 0 0 1-.662-.19l-.328-.1-.489-.154c-.133-.042-.266-.082-.401-.13l-.377-.127-.257-.09-.312-.112-.221-.082c-.147-.054-.292-.11-.438-.165l-.253-.094-.337-.135-.356-.145-.23-.097-.286-.119-.22-.096-.23-.102-.198-.09-.18-.083-.184-.082-.189-.09-.24-.114-.25-.122-.265-.132-.225-.115a37.206 37.206 0 0 1-10.528-8.076.24.24 0 0 0-.262-.06.242.242 0 0 0-.11.088.252.252 0 0 0-.044.138l.009 11.678v.948c0 .271.064.538.187.778.124.24.304.444.523.595a17.248 17.248 0 0 0 9.768 3.027Z" fill="#3370FF"/><path d="M51.451 66.84a9.906 9.906 0 0 0-8.14-.358 9.98 9.98 0 0 0-2.654 1.578 10.974 10.974 0 0 0-.759.69l-.444.458-.321.33-.35.356-.336.34-.359.36-.415.422-.308.315-.101.103-.149.15-.075.074-.114.11-.123.117a17.755 17.755 0 0 1-3.666 2.67l.241.115.19.089.182.083.181.082.199.09.229.102.22.096.286.123.23.097.356.145.337.135.254.099.438.165.221.083.312.11.256.09.377.129c.133.044.265.087.402.13.16.052.322.103.489.153l.328.1c.22.065.44.129.662.19a8.912 8.912 0 0 0 .694.16 7.751 7.751 0 0 0 1.214.12c.21 0 .42 0 .626-.016a6.6 6.6 0 0 0 1.373-.242 6.479 6.479 0 0 0 1.951-.92c.117-.083.234-.165.347-.257a6.476 6.476 0 0 0 .769-.71 7.276 7.276 0 0 0 .695-.867c.185-.273.352-.557.502-.852l.172-.353 1.55-3.197v.007a10.142 10.142 0 0 1 2.031-2.993Z" fill="#133C9A"/><path d="M17.5 41a.5.5 0 0 0 .5.5h36a.5.5 0 0 0 0-1H18a.5.5 0 0 0-.5.5Zm44-28a.5.5 0 0 0 .5.5h36a.5.5 0 0 0 0-1H62a.5.5 0 0 0-.5.5Z" fill="#fff" fill-opacity=".4"/><path d="M98 99c9.941 0 18-8.059 18-18s-8.059-18-18-18-18 8.059-18 18 8.059 18 18 18Z" fill="#F2962C"/><path d="M97.182 72.818a.818.818 0 0 0-.818.818v9.819c0 .451.366.818.818.818h1.636a.818.818 0 0 0 .819-.819v-9.818a.818.818 0 0 0-.819-.818h-1.636Zm0 13.091a.818.818 0 0 0-.818.818v1.637c0 .451.366.818.818.818h1.636a.818.818 0 0 0 .819-.818v-1.637a.818.818 0 0 0-.819-.818h-1.636Z" fill="#fff"/></svg>