<svg width="88" height="88" viewBox="0 0 88 88" fill="none" xmlns="http://www.w3.org/2000/svg"><path d="M44.12 22.669s-1-6 2.11-7.81c2.42-1.44 5.47-.88 6.27 0l-8.38 7.81Zm-1.55 1.921s-1.57-2.25-2.09-1.92c-.52.33.73 3.26.73 3.26l1.36-1.34Zm19.8 6.517-13.75 12.76L61 70.367s14.41-1.06 17.68-3.47l-11.91-19.2s8-20.55 5.62-22.16c-2.38-1.61-7.39 10.92-7.39 10.92l-2.63-5.35Z" fill="#fff"/><path d="M40.936 23.569a4.253 4.253 0 0 1-.015-.077c.266.258.618.66 1.065 1.233a.5.5 0 0 0 .788-.615c-.556-.713-1.012-1.226-1.37-1.531-.174-.148-.365-.283-.563-.349a.77.77 0 0 0-.385-.03.66.66 0 0 0-.39.23c-.167.204-.19.466-.191.64a3.6 3.6 0 0 0 .08.692c.1.512.297 1.185.572 1.988a.5.5 0 0 0 .946-.325c-.27-.787-.45-1.41-.537-1.857Zm7.506 19.844a.5.5 0 0 1 .663.247c2.91 6.376 6.025 12.98 8.426 18.075 1.92 4.073 3.386 7.18 3.928 8.434a.5.5 0 1 1-.918.397c-.54-1.25-1.994-4.333-3.904-8.383-2.397-5.085-5.513-11.693-8.442-18.108a.5.5 0 0 1 .247-.663ZM70.072 28.1c-1.083 1.575-2.517 3.9-4.378 7.145a.5.5 0 1 1-.868-.497c1.867-3.255 3.316-5.607 4.422-7.214.552-.803 1.024-1.428 1.423-1.89.39-.45.744-.784 1.063-.959a1.07 1.07 0 0 1 .577-.148.779.779 0 0 1 .573.307c.121.156.183.342.217.51.036.175.05.37.05.575.004.805-.204 2.017-.522 3.433-.583 2.595-1.576 6.035-2.52 9.31-.095.325-.188.649-.28.97-1.009 3.5-1.898 6.658-2.138 8.308 1.06 1.594 3.369 5.441 5.671 9.276l.034.057c2.449 4.079 4.883 8.132 5.847 9.541a.5.5 0 1 1-.826.565c-.985-1.44-3.44-5.529-5.874-9.585l-.004-.006c-2.449-4.08-4.877-8.125-5.832-9.52a.5.5 0 0 1 .01-.578c.275-1.766 1.174-4.947 2.15-8.335l.279-.965c.948-3.284 1.931-6.693 2.507-9.257.32-1.418.502-2.53.499-3.21 0-.132-.008-.238-.02-.32-.158.11-.39.322-.705.686-.365.422-.814 1.014-1.356 1.802ZM46.901 13.855a6.32 6.32 0 0 1 6.103.739.5.5 0 1 1-.588.809 5.32 5.32 0 0 0-5.12-.629c-2.471 1.23-3.413 4.551-2.717 7.79a.5.5 0 0 1-.978.21c-.742-3.456.19-7.388 3.268-8.904a.462.462 0 0 1 .032-.015Z" fill="#0C296E"/><path d="M62.21 30.669a.5.5 0 0 1 .669.227 47.783 47.783 0 0 0 3.7 6.265.5.5 0 1 1-.819.573 48.771 48.771 0 0 1-3.779-6.396.5.5 0 0 1 .228-.67ZM11.502 19.133a.5.5 0 0 1 .545-.451l11.45 1.07a.5.5 0 1 1-.093.996l-11.45-1.07a.5.5 0 0 1-.452-.545Zm11.33-8.613a.5.5 0 0 1 .707.011l3.87 4a.5.5 0 0 1-.718.696l-3.87-4a.5.5 0 0 1 .011-.707Zm7.924-5.718a.5.5 0 0 1 .68.193l2.57 4.6a.5.5 0 0 1-.872.487l-2.57-4.6a.5.5 0 0 1 .192-.68Z" fill="#0C296E"/><path d="M17.18 54c.55-.17 11.12-7.83 11.12-7.83s1.93-28.76 4-29c2.07-.24 4.24 13 4.24 13s7.9-8.09 10.7-10.43c2.8-2.34 11-10.55 16.06-6.1 5.06 4.45-3.5 15.36-6.66 18.58 0 0 11-9.39 11.94-8.66.94.73-32 35.64-32 35.64L17.18 54Z" fill="#fff"/><path d="M41.379 54.912c-3.072 3.173-5.45 5.631-6.44 6.713a.5.5 0 0 1-.738-.675c1-1.092 3.397-3.57 6.479-6.754 1.37-1.416 2.877-2.972 4.455-4.608 5.133-5.322 11.042-11.5 15.592-16.514 2.277-2.508 4.207-4.717 5.529-6.38.662-.832 1.163-1.516 1.477-2.024a5.37 5.37 0 0 0 .133-.227c-.505.245-1.273.72-2.348 1.472-2.145 1.502-5.434 4.055-10.14 7.92a.5.5 0 0 1-.635-.774c4.71-3.867 8.024-6.44 10.201-7.965 1.085-.76 1.907-1.272 2.488-1.553.284-.138.552-.24.783-.271a.888.888 0 0 1 .415.034.66.66 0 0 1 .387.357.803.803 0 0 1 .053.427c-.015.119-.05.238-.093.349a4.693 4.693 0 0 1-.394.756c-.345.56-.874 1.28-1.544 2.122-1.344 1.689-3.291 3.917-5.571 6.43-4.562 5.026-10.48 11.214-15.613 16.535a5566.28 5566.28 0 0 1-4.476 4.63Zm26.982-30.65h-.002.002Zm-.283-.299v-.003.003Zm-33.174-3.66c.628 1.973 1.33 4.89 2.117 8.952a.5.5 0 1 1-.982.19c-.785-4.05-1.477-6.921-2.088-8.839-.306-.96-.587-1.665-.84-2.153-.267-.51-.465-.706-.564-.76a.221.221 0 0 0-.013-.006.322.322 0 0 0-.066.054c-.13.132-.296.416-.473.9-.347.95-.655 2.43-.93 4.26-.55 3.646-.95 8.535-1.304 12.987l-.05.637c-.317 3.986-.602 7.572-.934 9.425a.5.5 0 0 1-.178.55l-10 7.46a.5.5 0 0 1-.598-.8l9.775-7.293c.329-1.761.616-5.37.944-9.497l.044-.561c.354-4.442.756-9.37 1.312-13.057.276-1.838.596-3.403.98-4.453.188-.516.412-.97.7-1.261.15-.152.342-.284.578-.334a.996.996 0 0 1 .69.11c.38.206.693.639.973 1.177.292.56.593 1.326.907 2.312Z" fill="#0C296E"/><path d="M42.615 25.259c-2.51 2.48-5.06 4.886-7.596 6.679a.5.5 0 0 1-.578-.817c2.464-1.741 4.963-4.094 7.471-6.573.624-.617 1.249-1.242 1.873-1.866 1.874-1.875 3.746-3.747 5.582-5.385 2.445-2.181 4.88-3.998 7.25-4.877 2.402-.891 4.766-.826 6.97.797a.493.493 0 0 1 .031.025c1.628 1.418 2.037 3.288 1.756 5.244-.278 1.932-1.231 3.987-2.374 5.894-1.147 1.915-2.51 3.722-3.648 5.16-.34.43-.665.835-.957 1.198-.192.24-.37.46-.527.658-.413.519-.682.874-.793 1.07a.5.5 0 1 1-.87-.494c.159-.278.484-.7.88-1.199l.539-.671c.287-.358.603-.75.944-1.182 1.128-1.428 2.46-3.195 3.574-5.054 1.119-1.866 1.992-3.786 2.242-5.523.246-1.707-.112-3.197-1.407-4.333-1.872-1.37-3.862-1.45-6.012-.653-2.187.811-4.507 2.522-6.932 4.686-1.813 1.617-3.655 3.46-5.524 5.33-.628.628-1.26 1.26-1.894 1.886Z" fill="#0C296E"/><path d="M61.828 12.4a.5.5 0 0 1-.029.706c-4.866 4.487-10.91 10.251-15.044 14.424a.5.5 0 1 1-.71-.704c4.147-4.187 10.203-9.962 15.076-14.455a.5.5 0 0 1 .707.028Zm2.67 2.374a.5.5 0 0 1 .068.704c-2.035 2.476-4.412 5.216-6.8 7.958l-.683.784c-2.162 2.481-4.308 4.944-6.2 7.201a.5.5 0 1 1-.766-.642c1.898-2.265 4.05-4.735 6.21-7.215l.685-.785c2.389-2.743 4.757-5.473 6.782-7.936a.5.5 0 0 1 .704-.07ZM84.3 61.148a3.371 3.371 0 0 0-2.09-2.9 12.001 12.001 0 0 0-5-1.17l.79 6.34c1.46.097 2.886.478 4.2 1.12a3.36 3.36 0 0 1 2.09 2.9l.01-6.29ZM3.81 38.9c0-2.68 1.55-5.31 4.73-7.7v6.29c-3.18 2.38-4.73 5-4.73 7.7V38.9Z" fill="#0C296E"/><path d="M9.19 53.608c-3.29-2.61-5.38-6.03-5.38-8.71v-3a18.699 18.699 0 0 0 5.38 6.37v5.34Zm39.46 11.159c-14.65-1.21-25.95-4.12-33.52-7.77v-5.52c7.68 3.66 19 6.53 33.52 7.72v5.57Z" fill="#00D6B9"/><path d="M53.8 69.208c-25.41-1.31-41.92-7.55-47.75-14.61v6.29c5.84 7 22.34 13.29 47.75 14.61v-6.29Zm6.87.219h-1.4v6.27h1.4c16.14 0 23.63-4.85 23.63-8.54v-6.27c0 3.69-7.49 8.54-23.63 8.54Z" fill="#3370FF"/><path d="M16.9 71.656a.5.5 0 0 1 .466-.05 91.399 91.399 0 0 0 22.616 5.828.5.5 0 0 1 .438.496v6.29a.5.5 0 0 1-.562.496 91.795 91.795 0 0 1-22.864-5.902.5.5 0 0 1-.314-.464v-6.28a.5.5 0 0 1 .22-.414Zm.78 1.15v5.206a90.797 90.797 0 0 0 21.74 5.64v-5.281a92.402 92.402 0 0 1-21.74-5.566Z" fill="#0C296E"/></svg>