<svg width="350" height="350" viewBox="0 0 350 350" fill="none" xmlns="http://www.w3.org/2000/svg"><g filter="url(#ud34wcf5kwra)"><path d="M316.517 271.531c8.784 0 15.905-7.121 15.905-15.905 0-8.784-7.121-15.904-15.905-15.904-8.784 0-15.904 7.12-15.904 15.904 0 8.784 7.12 15.905 15.904 15.905Z" fill="#FFC60A"/></g><path d="M299.595 45.154h-32v18.09h32v-18.09Z" fill="#42BDEB"/><path d="M291.475 48.674h-32a.5.5 0 0 1-.5-.5v-18.09a.499.499 0 0 1 .5-.5h32a.5.5 0 0 1 .5.5v18.09a.5.5 0 0 1-.5.5Zm-31.5-1h31v-17.09h-31v17.09Z" fill="#E0E0E0"/><path d="M269.475 43.824a.56.56 0 0 1-.32-.11l-5.09-4.09a.52.52 0 0 1-.134-.605.499.499 0 0 1 .134-.175l5.38-4.38a.508.508 0 0 1 .71.08.499.499 0 0 1-.08.7l-4.9 4 4.61 3.7a.499.499 0 0 1-.022.796.5.5 0 0 1-.288.094v-.01Zm11.77-.001a.48.48 0 0 1-.39-.19.488.488 0 0 1-.094-.171c-.019-.063-.026-.129-.019-.194a.487.487 0 0 1 .183-.335l4.9-3.94-4.66-3.75a.498.498 0 0 1-.07-.7.498.498 0 0 1 .7-.08l5.14 4.14a.504.504 0 0 1 .14.607.494.494 0 0 1-.14.173l-5.38 4.33a.513.513 0 0 1-.31.11Zm-8.62.001a.528.528 0 0 1-.24-.06.494.494 0 0 1-.258-.486.499.499 0 0 1 .058-.184l4.48-8.47a.5.5 0 0 1 .88.46l-4.48 8.47a.504.504 0 0 1-.44.27Zm-189.33 207.47h-40.17c-14.42 0-14.42-10.89-14.42-23.5V30.224a13.25 13.25 0 0 1 13.25-13.22h136.24a13.25 13.25 0 0 1 13.25 13.25v180.42h-1V30.254a12.26 12.26 0 0 0-12.25-12.25H41.955a12.26 12.26 0 0 0-12.25 12.22v197.6c0 12.57 0 22.5 13.42 22.5h40.17v.97Z" fill="#E0E0E0"/><path d="M212.375 332.505H96.055a13.252 13.252 0 0 1-13.21-13.26v-89.6c0-11.61-4.8-18-13.5-18a.5.5 0 0 1 0-1h133.15a23.15 23.15 0 0 1 23.14 23.18v85.45a13.26 13.26 0 0 1-13.26 13.26v-.03Zm-137.53-120.86c5.76 2.32 9 8.6 9 18v89.6a12.259 12.259 0 0 0 12.23 12.26h116.3a12.261 12.261 0 0 0 12.26-12.26v-85.42a22.162 22.162 0 0 0-22.14-22.15l-127.65-.03Z" fill="#E0E0E0"/><path d="M14.445 332.394a.496.496 0 0 1-.353-.14.493.493 0 0 1-.147-.35l-.68-53.39a.495.495 0 0 1 .3-.468.482.482 0 0 1 .19-.042.558.558 0 0 1 .51.49c0 .25.23 6 9.55 8.29 12.23 1.83 17 5.08 20.89 7.69 2.86 1.93 5.11 3.46 9.53 4 5.41.6 9.14-.26 13.46-1.26a80.729 80.729 0 0 1 10.15-1.87c1.511-.16 3.03-.24 4.55-.24a.503.503 0 0 1 .5.5.5.5 0 0 1-.5.5c-1.487 0-2.972.08-4.45.24-3.39.38-6.75.984-10.06 1.81-4.41 1-8.22 1.89-13.79 1.28-4.67-.54-7.13-2.2-10-4.13-3.78-2.56-8.47-5.74-20.53-7.55-5.54-1.35-8.11-3.9-9.31-6l.64 50.11a.501.501 0 0 1-.5.51l.05.02Z" fill="#E0E0E0"/><path d="M86.175 328.823a12.71 12.71 0 0 1-3.73-9v-10a24.517 24.517 0 0 0-15.69.47c-6.06 2.31-12.14 5.66-18.49 5-10.66-1.15-18.13-13.14-28.42-16.47-1.94-.63-4.94-.52-6 1.43l.28 32.11 78.89.11a12.795 12.795 0 0 1-6.84-3.65Z" fill="#42BDEB"/><path d="m92.985 332.983-78.89-.11a.503.503 0 0 1-.5-.5l-.28-32.11a.53.53 0 0 1 .06-.24c1.14-2.1 4.25-2.43 6.59-1.67 4.74 1.53 8.9 4.85 12.92 8.07 5 4 9.72 7.77 15.43 8.4 5 .52 9.86-1.52 14.6-3.49 1.22-.51 2.44-1 3.66-1.48a25.15 25.15 0 0 1 16-.48.512.512 0 0 1 .36.48v10a12.217 12.217 0 0 0 3.58 8.65 12.221 12.221 0 0 0 6.55 3.49.503.503 0 0 1-.09 1l.01-.01Zm-78.4-1.11 75.16.11a13.308 13.308 0 0 1-3.9-2.78 13.167 13.167 0 0 1-3.9-9.38v-9.6a24.191 24.191 0 0 0-15 .57c-1.2.46-2.41 1-3.62 1.46-4.86 2-9.89 4.12-15.09 3.57-6-.67-11.07-4.71-15.95-8.62-4-3.16-8-6.43-12.61-7.89-1.64-.54-4.35-.54-5.34 1.08l.25 31.48Z" fill="#42BDEB"/><path d="M40.425 250.824a14.002 14.002 0 0 0 14-14v-11.72a13.997 13.997 0 0 1 8.42-13.83 14.006 14.006 0 0 1 15.83 3.3 13.868 13.868 0 0 1 2.95 4.88c.64 1.812.901 3.734.77 5.65v25.72h-41.97Z" fill="#E0E0E0"/><path d="M40.425 251.285a.5.5 0 0 1 0-1h.52a13.502 13.502 0 0 0 13-13.49v-11.69a14.498 14.498 0 0 1 8.66-14.28 14.589 14.589 0 0 1 11.57 0 14.485 14.485 0 0 1 7.88 8.46 14.45 14.45 0 0 1 .8 5.86v25.68a.499.499 0 0 1-.5.5h-41.93v-.04Zm5.34-1h36.08v-25.18a13.528 13.528 0 0 0-8.08-13.37 13.503 13.503 0 0 0-8.14-.836 13.504 13.504 0 0 0-9.983 8.721 13.445 13.445 0 0 0-.727 5.455v11.75a14.558 14.558 0 0 1-9.16 13.49l.01-.03Zm296.89 38.539h-32.81v-1h32.36c-.31-19.2-17.93-34.74-39.55-34.74h-11.7a.51.51 0 0 1-.5-.5v-9.41c0-19.43-17.74-35.25-39.55-35.25v-1c22.36 0 40.55 16.26 40.55 36.25v8.91h11.15c22.36 0 40.55 16.26 40.55 36.24a.497.497 0 0 1-.5.5ZM82.585 42.934a5.3 5.3 0 0 1-3.75-9 5.3 5.3 0 0 1 8.15.8 5.301 5.301 0 0 1-4.39 8.23l-.01-.03Zm0-9.58a4.79 4.79 0 0 0-.84.08 4.29 4.29 0 0 0-3.12 5.86 4.18 4.18 0 0 0 1.58 1.92c.704.47 1.532.72 2.38.72a4.3 4.3 0 0 0 4.26-4.29 4.32 4.32 0 0 0-2.65-4 4.25 4.25 0 0 0-1.61-.29Zm-15.94 9.58a5.28 5.28 0 0 1-4.89-3.27 5.28 5.28 0 0 1 1.15-5.76 5.29 5.29 0 0 1 9 3.74 5.171 5.171 0 0 1-.41 2 5.119 5.119 0 0 1-1.14 1.72 5.41 5.41 0 0 1-3.71 1.57Zm0-9.58a4.782 4.782 0 0 0-.84.08 4.301 4.301 0 0 0-3.13 5.85 4.39 4.39 0 0 0 1.58 1.93 4.31 4.31 0 0 0 4 .39c.52-.213.994-.53 1.39-.93.399-.397.715-.87.93-1.39a4.24 4.24 0 0 0-.4-4 4.29 4.29 0 0 0-3.56-1.91l.03-.02Zm-15.94 9.08a4.86 4.86 0 0 1-2.67-.8 4.75 4.75 0 0 1-1.76-2.15 4.69 4.69 0 0 1-.28-2.77 4.74 4.74 0 0 1 1.31-2.45 4.78 4.78 0 0 1 5.22-1 4.89 4.89 0 0 1 2.15 1.77 4.789 4.789 0 0 1-4 7.45l.03-.05Z" fill="#E0E0E0"/><path d="M50.695 42.934a5.3 5.3 0 0 1-3.75-9 5.3 5.3 0 0 1 8.413 1.238 5.29 5.29 0 0 1-4.643 7.792l-.02-.03Zm0-9.58a4.782 4.782 0 0 0-.84.08 4.29 4.29 0 0 0-3.12 5.86 4.18 4.18 0 0 0 1.58 1.92 4.29 4.29 0 1 0 2.38-7.86Z" fill="#E0E0E0"/><path d="M42.845 127.093v-64.09a4.39 4.39 0 0 1 4.39-4.39h126.25a4.402 4.402 0 0 1 4.36 4.39v64.09a4.402 4.402 0 0 1-4.39 4.39H47.215a4.388 4.388 0 0 1-4.37-4.39Z" fill="#42BDEB"/><path d="M173.485 131.983H47.215a4.872 4.872 0 0 1-4.52-3.017 4.88 4.88 0 0 1-.37-1.873v-64.09a4.88 4.88 0 0 1 4.89-4.89h126.27a4.999 4.999 0 0 1 3.46 1.43 4.871 4.871 0 0 1 1.43 3.46v64.09a4.872 4.872 0 0 1-1.43 3.46 4.995 4.995 0 0 1-3.46 1.43Zm-126.27-72.87a3.92 3.92 0 0 0-2.75 1.14 3.85 3.85 0 0 0-1.14 2.75v64.09a3.833 3.833 0 0 0 1.14 2.73 3.862 3.862 0 0 0 2.75 1.14h126.27a3.893 3.893 0 0 0 3.89-3.89v-64.07a3.863 3.863 0 0 0-1.14-2.75 4 4 0 0 0-2.75-1.14H47.215Z" fill="#42BDEB"/><path d="m123.625 83.954-25.52-.13a8.52 8.52 0 0 0-8.55 8.45l-.07 12.78a8.478 8.478 0 0 0 2.45 6 8.732 8.732 0 0 0 2.75 1.86 8.419 8.419 0 0 0 3.25.66l25.52.14a8.486 8.486 0 0 0 7.89-5.2 8.638 8.638 0 0 0 .67-3.25l.07-12.77a8.671 8.671 0 0 0-.63-3.26 8.542 8.542 0 0 0-7.83-5.29v.01Zm-9.86-9.28h-5.67c-.562.004-1.1.226-1.5.62a2.108 2.108 0 0 0-.63 1.49v3.39h3v3.7h4v-3.7h3v-3.35a2.17 2.17 0 0 0-2.16-2.15h-.04Zm-29.92 20.33a1.323 1.323 0 0 1 .28-.82c.175-.24.419-.422.7-.52l3.29-1-.07 13.09-3.2-1.16a1.432 1.432 0 0 1-.69-.52 1.35 1.35 0 0 1-.27-.8l-.04-8.27Zm53.92.331a1.468 1.468 0 0 0-1-1.32l-3.31-1.12-.07 13.05 3.3-1.06c.281-.098.525-.28.7-.52.179-.237.277-.524.28-.82l.1-8.21Z" fill="#fff"/><path d="M102.675 93.043a2.6 2.6 0 0 1 1 .19c.298.128.566.315.79.55.231.222.412.492.53.79.135.316.2.657.19 1v3.54a2.37 2.37 0 0 1-.19 1c-.124.3-.308.573-.54.8-.228.234-.5.421-.8.55a2.453 2.453 0 0 1-1.89 0 2.591 2.591 0 0 1-.8-.55 2.389 2.389 0 0 1-.72-1.75v-3.65a2.49 2.49 0 0 1 2.47-2.47h-.04Zm16.34.101c.342-.005.682.06 1 .19a2.461 2.461 0 0 1 1.33 1.36c.123.301.187.624.19.95v3.55a2.81 2.81 0 0 1-.2.94 2.44 2.44 0 0 1-.55.79c-.232.22-.499.399-.79.53a2.607 2.607 0 0 1-1.9 0 2.589 2.589 0 0 1-1.33-1.33 2.537 2.537 0 0 1-.18-1v-3.5a2.357 2.357 0 0 1 .2-1c.127-.299.311-.57.54-.8.235-.23.514-.41.82-.53.29-.127.603-.195.92-.2l-.05.05Z" fill="#42BDEB"/><path d="M178.235 151.824H43.945a.498.498 0 0 1-.353-.853.5.5 0 0 1 .353-.147h134.29a.5.5 0 0 1 0 1Zm-30.07 20h-94.32a.498.498 0 0 1-.354-.853.5.5 0 0 1 .354-.147h94.3a.498.498 0 0 1 .5.5.5.5 0 0 1-.5.5h.02Z" fill="#E0E0E0"/><path d="M132.925 154.823h18.42a3.37 3.37 0 0 0 3.16-3.56 3.39 3.39 0 0 0-3.16-3.56h-18.42a3.389 3.389 0 0 0-3.16 3.56 3.39 3.39 0 0 0 3.16 3.56Zm10.82-14.348-.98-.24 12.02-50.43h8.67v1h-7.87l-11.84 49.67Z" fill="#FAC823"/><path d="M163.335 92.303a1.838 1.838 0 0 0 1.805-2.199 1.836 1.836 0 0 0-1.446-1.446 1.84 1.84 0 1 0-.359 3.645Z" fill="#fff"/><path d="M163.335 92.825a2.34 2.34 0 1 1 0-4.68 2.34 2.34 0 0 1 0 4.68Zm0-3.68a1.337 1.337 0 0 0-1.238.827 1.341 1.341 0 0 0 2.352 1.257c.148-.22.226-.48.226-.745a1.336 1.336 0 0 0-.822-1.256 1.342 1.342 0 0 0-.518-.103v.02Z" fill="#FAC823"/><path d="M143.255 142.194a1.839 1.839 0 0 0 .359-3.645 1.841 1.841 0 0 0-1.66 3.106 1.84 1.84 0 0 0 1.301.539Z" fill="#fff"/><path d="M143.255 142.694a2.341 2.341 0 0 1-1.655-3.995 2.344 2.344 0 0 1 3.601.355 2.338 2.338 0 0 1-1.05 3.462 2.355 2.355 0 0 1-.896.178Zm0-3.68c-.265 0-.524.078-.744.226a1.331 1.331 0 0 0-.57 1.375 1.336 1.336 0 0 0 2.428.483 1.34 1.34 0 0 0-1.114-2.084Z" fill="#FAC823"/><path d="M77.605 174.823h18.41a3.389 3.389 0 0 0 2.983-2.261 3.35 3.35 0 0 0 .177-1.299 3.346 3.346 0 0 0-1.887-3.232 3.354 3.354 0 0 0-1.273-.328h-18.41a3.325 3.325 0 0 0-2.31 1.12 3.38 3.38 0 0 0-.85 2.43 3.39 3.39 0 0 0 3.16 3.57Zm9.48-12.179-5.63-24.47h-9.11v-1h9.9l5.81 25.25-.97.22Z" fill="#4C88FF"/><path d="M72.345 139.664a1.841 1.841 0 0 0 1.301-3.141 1.842 1.842 0 0 0-3.141 1.301 1.84 1.84 0 0 0 1.84 1.84Z" fill="#fff"/><path d="M72.345 140.164a2.341 2.341 0 0 1-.457-4.635 2.343 2.343 0 0 1 2.796 2.295 2.34 2.34 0 0 1-2.34 2.34Zm0-3.68a1.342 1.342 0 0 0-1.314 1.602 1.338 1.338 0 0 0 1.827.976 1.338 1.338 0 0 0 .434-2.185 1.342 1.342 0 0 0-.947-.393Z" fill="#4C88FF"/><path d="M87.575 164.373a1.841 1.841 0 0 0 1.301-3.141 1.841 1.841 0 0 0-3.14 1.301 1.84 1.84 0 0 0 1.84 1.84Z" fill="#fff"/><path d="M87.575 164.873a2.34 2.34 0 1 1 0-4.681 2.34 2.34 0 0 1 0 4.681Zm0-3.68a1.342 1.342 0 0 0-1.314 1.602 1.342 1.342 0 0 0 1.827.976 1.338 1.338 0 0 0 .435-2.185 1.342 1.342 0 0 0-.948-.393Z" fill="#4C88FF"/><path d="M168.015 142.194h60.14v-64.88h-60.14v64.88Z" fill="#FAC823"/><path d="M218.135 91.885h-39.54a.5.5 0 1 1 0-1h39.54a.498.498 0 0 1 .353.853.498.498 0 0 1-.353.147Zm-11.78 11.529h-27.76a.5.5 0 1 1 0-1h27.76a.498.498 0 0 1 .5.5.5.5 0 0 1-.5.5Z" fill="#5F5F5F"/><path d="M6.845 164.374h60.12v-41.11H6.845v41.11Z" fill="#4C88FF"/><path d="M55.935 136.754h-39.54a.5.5 0 0 1 0-1h39.54a.503.503 0 0 1 .5.5.497.497 0 0 1-.5.5Zm-11.77 11.529h-27.77a.498.498 0 0 1-.354-.853.5.5 0 0 1 .354-.147h27.77a.5.5 0 0 1 0 1Z" fill="#fff"/><path d="M260.645 308.424v7.61h7.67v-7.71l-7.67.1Z" fill="#EBEBEB"/><path d="M268.315 316.534h-7.67a.5.5 0 0 1-.5-.5v-7.61a.5.5 0 0 1 .49-.5l7.67-.1c.133.004.26.053.36.14a.551.551 0 0 1 .15.36v7.71a.5.5 0 0 1-.5.5Zm-7.17-1h6.7v-6.71l-6.67.08-.03 6.63Z" fill="#2851A3"/><path d="M240.285 313.174h-7.67l-.5-6.91 7.55-2.76.62 9.67Z" fill="#EBEBEB"/><path d="M240.285 313.674h-7.67a.497.497 0 0 1-.5-.46l-.5-6.91a.501.501 0 0 1 .33-.51l7.55-2.76a.535.535 0 0 1 .44.05.527.527 0 0 1 .23.39l.62 9.67a.475.475 0 0 1-.14.37.48.48 0 0 1-.36.16Zm-7.21-1h6.67l-.54-8.47-6.57 2.4.44 6.07Z" fill="#2851A3"/><path d="M328.965 87.944a7.83 7.83 0 0 0 .17-4.81c1.71-.83 3.56-1.85 4.13-3.67.07-.21.09-.47-.07-.59a.551.551 0 0 0-.46 0c-2.18.69-6.91 2.19-7 2.34-.09.15-1.43 12-1.43 12s-1.75 4.74-2.59 6.76c-2.78 7.88-9.17 19.5-12.58 26.43 0 0-19.77-2.12-27.1-3.07-6.39-.81-13.31-.82-16.86-2-2.25-.76-7.23-2.24-7.23-9.59l-.18-7.4-12-4.7.42 6.15c0 5.27.72 8.9-2.73 12.36-3.21 3.2-10.25 3.55-14.29 4.81-5.12 1.61-7.8 4.79-9.83 11.76-2.03 6.97-8 22.29-8 22.29s-13-19.39-15.28-24.37c-.12-.33.68-6.46.68-6.46s-1.22-6-1.66-8.46c-1.56 1.06-1.33 6.38-1.79 7.41 0 0-3.95-5.15-6.5-8.41-1.84-2.37-3.14-4-4.61-4.14a3.136 3.136 0 0 0-1.9.38 3.107 3.107 0 0 0-1.32 1.41 4.446 4.446 0 0 0 0 2.4c.41 2.24 3.31 7.07 3.31 7.07-.95-.83-.91-3.42-3.43-4.23a.259.259 0 0 0-.19-.05.312.312 0 0 0-.18.07.411.411 0 0 0-.09.17.26.26 0 0 0 0 .19c1.26 2.61 5.1 11.16 8.14 13.56a17.068 17.068 0 0 1 4.31 4.61c.61 1.15 10 20.06 15.69 32.21 2.56 5.42 8.63 6.42 12.79-.09 3.26-5.11 11.78-21.19 11.78-21.19l4.76 19.49 29.53 3.17 7.56-30.6 34.35-.87c5.59-.34 9.25-1.93 11.41-7.1 3.37-8 8-22.51 10.66-31.54.61-2.53 2.2-7.63 2.2-7.63a36.995 36.995 0 0 0 4.79-5.37c1.77-2.68 2.41-3.77 1.46-6.2-.91-2.27-2.66-3-6.12-4.23 0 0 .51-1.66 1.48-4.42 1.61-4.5 1.55-6.55.68-7-.7-.34-2.39 4.54-5 10.28-.52 1.14-1 2.19-1.43 3.19" fill="#EBEBEB"/><path d="M212.625 175.313h-.4c-2.52-.16-4.81-1.92-6.12-4.71-5.68-12.11-15.12-31.12-15.68-32.19a16.587 16.587 0 0 0-4.17-4.44c-2.84-2.24-6.22-9.37-7.84-12.8l-.45-.94a.721.721 0 0 1-.08-.49.807.807 0 0 1 .25-.46.773.773 0 0 1 .48-.2.793.793 0 0 1 .43.09l.24.09a11.076 11.076 0 0 1-.82-2.38 4.762 4.762 0 0 1 0-2.62 3.552 3.552 0 0 1 1.56-1.72 3.71 3.71 0 0 1 2.19-.44c1.72.17 3.15 2 5 4.33s4.59 5.93 5.83 7.54c0-.31.07-.66.1-1 .2-2.14.45-4.8 1.69-5.64a.476.476 0 0 1 .47 0 .51.51 0 0 1 .3.37c.43 2.43 1.65 8.39 1.66 8.45.01.056.01.114 0 .17-.3 2.29-.7 5.68-.69 6.25 2.06 4.41 12.22 19.75 14.68 23.43 1.3-3.38 5.92-15.45 7.64-21.35 2.08-7.14 4.83-10.42 10.16-12.1a43.158 43.158 0 0 1 4.23-1c3.61-.73 7.7-1.55 9.85-3.7 2.77-2.78 2.71-5.67 2.62-9.68v-2.33l-.42-6.12a.478.478 0 0 1 .2-.43.52.52 0 0 1 .48-.07l12 4.7a.516.516 0 0 1 .32.46l.18 7.4c0 6.81 4.36 8.28 6.71 9.07l.18.06c2.17.72 5.79 1 9.63 1.3 2.34.18 4.76.37 7.13.67 6.71.87 24.07 2.75 26.74 3 .84-1.69 1.84-3.64 2.91-5.73 3.31-6.45 7.43-14.48 9.5-20.34.78-1.89 2.37-6.16 2.57-6.71 1.34-11.89 1.42-12 1.49-12.14.07-.14.13-.22 1.64-.74a.42.42 0 0 1 0-.15c.41-.95.87-1.95 1.36-3l.07-.16c.81-1.78 1.53-3.47 2.17-5 1.67-3.94 2.28-5.31 3-5.57a.678.678 0 0 1 .54 0c1.3.68 1.16 3.17-.43 7.62-.67 1.89-1.12 3.27-1.33 3.94 3.24 1.16 5 2 6 4.35 1 2.65.33 3.88-1.51 6.67a37.417 37.417 0 0 1-4.76 5.37c-.25.8-1.61 5.2-2.16 7.47-2.27 7.73-7.08 23.06-10.68 31.61-2 4.88-5.47 7-11.84 7.41l-34 .86-7.6 30.23a.5.5 0 0 1-.54.38l-29.46-3.17a.507.507 0 0 1-.43-.38l-4.44-18.22c-2 3.79-8.46 15.8-11.18 20.07-1.95 3.08-4.52 4.76-7.17 4.76Zm-33.54-55.06.23.47c1.47 3.1 4.9 10.35 7.55 12.44a17.486 17.486 0 0 1 4.42 4.73c.59 1.1 10 20.14 15.72 32.27 1.18 2.49 3.1 4 5.29 4.13 2.41.16 4.76-1.36 6.63-4.28 3.21-5 11.67-21 11.76-21.15a.494.494 0 0 1 .5-.27.497.497 0 0 1 .42.38l4.67 19.15 28.75 3.09 7.45-30.18a.51.51 0 0 1 .47-.38l34.35-.87c5-.3 8.79-1.58 11-6.79 3.58-8.51 8.37-23.8 10.64-31.49.6-2.49 2.18-7.59 2.2-7.64a.515.515 0 0 1 .14-.22 35.913 35.913 0 0 0 4.72-5.29c1.77-2.68 2.25-3.56 1.4-5.73-.61-1.52-1.58-2.27-3.6-3.1v.1c-.58 1.86-2.33 2.94-4 3.78a8.233 8.233 0 0 1-.28 4.71.508.508 0 0 1-.809.201.492.492 0 0 1-.131-.541 7.216 7.216 0 0 0 .16-4.5.502.502 0 0 1 .26-.59c1.65-.8 3.31-1.72 3.85-3.29-3.73 1.18-5.94 1.9-6.59 2.16-.18 1.25-.9 7.5-1.38 11.72a.338.338 0 0 1 0 .11s-1.77 4.78-2.6 6.78c-2.08 5.89-6.22 14-9.54 20.44-1.14 2.22-2.19 4.27-3.05 6a.518.518 0 0 1-.51.28c-.19 0-19.86-2.13-27.11-3.07-2.35-.3-4.75-.49-7.08-.67-4.06-.32-7.57-.59-9.87-1.36h-.18c-2.4-.81-7.39-2.49-7.39-10l-.17-7-11-4.3.37 5.37v2.34c.09 4.09.16 7.32-2.91 10.4-2.37 2.37-6.62 3.22-10.36 4a39.295 39.295 0 0 0-4.13 1c-5 1.56-7.53 4.65-9.5 11.42-1.97 6.77-8 22.18-8 22.33a.476.476 0 0 1-.673.27.542.542 0 0 1-.207-.17c-.53-.79-13-19.48-15.32-24.44-.06-.17-.17-.48.63-6.65-.13-.62-.94-4.65-1.43-7.23a17.295 17.295 0 0 0-.69 4.07 8.937 8.937 0 0 1-.37 2.29.478.478 0 0 1-.39.3.518.518 0 0 1-.46-.19s-3.95-5.15-6.5-8.41c-1.84-2.37-3-3.83-4.26-3.95a2.652 2.652 0 0 0-1.61.31 2.711 2.711 0 0 0-1.11 1.19 3.892 3.892 0 0 0 0 2.06 17.979 17.979 0 0 0 1.61 4c.355.503.647 1.047.87 1.62.44.8.77 1.34.78 1.35a.503.503 0 0 1-.094.659.503.503 0 0 1-.666-.019 4.27 4.27 0 0 1-.91-1.52c-.25-.45-.54-1-.83-1.55a2.918 2.918 0 0 0-1.13-1.08Zm154.76-52.87a37.31 37.31 0 0 0-2.29 4.9c-.64 1.5-1.36 3.2-2.18 5l-.07.16c-.38.83-.74 1.61-1.07 2.36l3.42-1.1h-.06a.5.5 0 0 1-.31-.62s.52-1.7 1.49-4.44c1.38-4.02 1.34-5.74 1.07-6.26Z" fill="#2851A3"/><path d="M335.265 87.884a4.437 4.437 0 0 1-1.65-.3 3.22 3.22 0 0 1-1.84-1.83 8.463 8.463 0 0 1-.66-3.89.485.485 0 0 1 .335-.446.489.489 0 0 1 .195-.024.519.519 0 0 1 .47.53 7.53 7.53 0 0 0 .59 3.45 2.188 2.188 0 0 0 1.28 1.28 4.48 4.48 0 0 0 3.39-.26.5.5 0 0 1 .42.9 6 6 0 0 1-2.53.59Z" fill="#2851A3"/><path d="M332.925 86.643a.63.63 0 0 1-.19 0 .509.509 0 0 1-.28-.65c.76-1.93 1.16-3 1.5-4 .27-.77.52-1.47.89-2.41a.494.494 0 0 1 .259-.304.499.499 0 0 1 .719.466.523.523 0 0 1-.048.198c-.36.94-.61 1.62-.87 2.38-.35 1-.75 2.12-1.52 4.06a.486.486 0 0 1-.46.26Zm2.15.98a.644.644 0 0 1-.23 0 .51.51 0 0 1-.22-.67l.34-.67c.79-1.6 1.27-2.57 2.19-4.27a.512.512 0 0 1 .299-.24.497.497 0 0 1 .531.166.498.498 0 0 1 .05.554c-.91 1.68-1.39 2.64-2.18 4.23l-.34.67a.475.475 0 0 1-.44.23Zm-148.47 33.322a.514.514 0 0 1-.42-.22l-5.18-7.6c-.072-.11-.098-.245-.072-.374a.497.497 0 0 1 .212-.316.482.482 0 0 1 .372-.081.482.482 0 0 1 .318.211l5.18 7.6a.499.499 0 0 1 .08.372.482.482 0 0 1-.21.318.512.512 0 0 1-.28.09Zm-2.18 1.878a.495.495 0 0 1-.44-.26c-.5-.91-1.27-2.22-2.08-3.6-1.11-1.9-2.27-3.87-2.93-5.15a.498.498 0 0 1 .215-.675.498.498 0 0 1 .675.215c.65 1.26 1.79 3.21 2.91 5.11.81 1.38 1.58 2.7 2.09 3.62a.507.507 0 0 1-.2.68.53.53 0 0 1-.24.06Z" fill="#2851A3"/><path d="M183.725 123.535a.505.505 0 0 1-.478-.359.498.498 0 0 1 .208-.561c1.42-.89 2.82-1.81 4.17-2.76a.513.513 0 0 1 .7.12.5.5 0 0 1-.13.7c-1.36 1-2.78 1.89-4.21 2.78a.418.418 0 0 1-.26.08Zm8.4 5.378h-.09a.487.487 0 0 1-.4-.58c.23-1.279.627-2.523 1.18-3.7a.505.505 0 0 1 .284-.26.509.509 0 0 1 .386.02.506.506 0 0 1 .259.279.506.506 0 0 1-.019.381 14.569 14.569 0 0 0-1.11 3.46.51.51 0 0 1-.49.4Zm-4.03.591a.543.543 0 0 1-.24-.06 17.216 17.216 0 0 1-4.68-3.62l-1.25-1.67a.503.503 0 0 1 .1-.7.498.498 0 0 1 .7.1l1.22 1.63a16.021 16.021 0 0 0 4.38 3.38.492.492 0 0 1 .248.558.496.496 0 0 1-.478.382Z" fill="#2851A3"/><path d="M213.155 160.243a.483.483 0 0 1-.42-.23l-1.77-2.71a.499.499 0 0 1 .14-.69.51.51 0 0 1 .7.15l1.77 2.71a.498.498 0 0 1-.15.69.528.528 0 0 1-.27.08Z" fill="#E0E0E0"/><path d="M233.765 174.184c-6.65 29.51-10.54 54.43-12.82 70.78-.82 5.84-1.29 8.12-.73 14l8.51 51 12.61-5.14-2.42-52.08 12.37-40.92 7.45 99 12.58.08s4.73-94.92 4.67-112.16c0-8-5.59-24.31-5.59-24.31l-17.2-5.86" fill="#2851A3"/><path d="m271.315 311.385-12.58-.08a.489.489 0 0 1-.49-.46l-7.25-96.28-11.58 38.26 2.43 52a.506.506 0 0 1-.31.48l-12.61 5.13a.522.522 0 0 1-.44 0 .57.57 0 0 1-.163-.154.56.56 0 0 1-.087-.206l-8.51-51a43.851 43.851 0 0 1 .51-12.61l.22-1.54c3.42-24.53 7.62-47.69 12.83-70.82a.512.512 0 1 1 1 .22c-5.21 23.1-9.4 46.24-12.82 70.74l-.22 1.55a42.384 42.384 0 0 0-.5 12.33l8.4 50.35 11.7-4.76-2.43-51.71a.43.43 0 0 1 0-.16l12.43-40.95a.517.517 0 0 1 .53-.36.507.507 0 0 1 .45.46l7.41 98.49 11.64.08c.36-7.32 4.7-95.26 4.65-111.66 0-7.31-4.81-21.9-5.49-23.92l-17-5.78a.503.503 0 0 1-.294-.247.48.48 0 0 1-.026-.383.509.509 0 0 1 .64-.31l17.2 5.86a.49.49 0 0 1 .31.31c.23.67 5.62 16.48 5.62 24.47.06 17.1-4.64 111.24-4.64 112.19a.515.515 0 0 1-.17.342.516.516 0 0 1-.36.128Z" fill="#2851A3"/><path d="M250.905 217.323a.5.5 0 0 1-.5-.45l-1.87-20.83a.495.495 0 0 1 .115-.367.518.518 0 0 1 .152-.123.495.495 0 0 1 .555.06.502.502 0 0 1 .178.34l1.87 20.87a.507.507 0 0 1-.46.54l-.04-.04Zm-12.67 35.791a.501.501 0 0 1-.49-.38l-1.9-7.52a.513.513 0 0 1 1-.24l1.91 7.52a.488.488 0 0 1-.36.6.252.252 0 0 1-.16.02Z" fill="#EBEBEB"/><path d="M257.945 109.754c3-2 5.25-10.47 4.93-13.59-.62-6.36-5.69-6.47-8.77-8.22-3.91-2.2-6.33-.52-7.55.43-.59.46-2.43 3.13-1.4 4 .46-.08 1.08-.4 1.57-.06a2.1 2.1 0 0 1 .61.91c.121.35.149.726.08 1.09-.17.83-.27 1.673-.3 2.52.27 2.76 3.8 3 6.42 3.2 1.32.09 2.32.92 2.93 3.92l1.5.72v3.74l-.02 1.34Z" fill="#2851A3"/><path d="M257.945 110.254a.5.5 0 0 1-.5-.51v-4.75l-1.22-.59a.501.501 0 0 1-.27-.35c-.61-3-1.55-3.46-2.48-3.52-2.82-.22-6.57-.5-6.88-3.65.029-.897.132-1.79.31-2.67.05-.278.029-.563-.06-.83a1.587 1.587 0 0 0-.47-.69c-.13-.08-.38 0-.76.08l-.4.09a.479.479 0 0 1-.41-.11 1.443 1.443 0 0 1-.48-1.18 6.42 6.42 0 0 1 1.9-3.59c1-.8 3.75-2.92 8.1-.48.749.385 1.525.72 2.32 1 2.76 1.06 6.2 2.39 6.7 7.58.33 3.19-1.89 11.89-5.15 14.06a.532.532 0 0 1-.25.11Zm-1-6.64 1.27.61c.086.039.16.102.212.182.051.08.078.173.078.268v4c2.43-2.71 4.19-9.75 3.92-12.41-.45-4.58-3.3-5.68-6.07-6.75a18.308 18.308 0 0 1-2.51-1.14c-3.77-2.12-6-.36-7 .39a5.573 5.573 0 0 0-1.51 2.83c-.007.07-.007.14 0 .21a1.859 1.859 0 0 1 1.63.1 2.617 2.617 0 0 1 .9 2.51c-.162.804-.259 1.62-.29 2.44.2 2.07 2.78 2.44 5.87 2.68 1.85.12 2.86 1.34 3.46 4.08h.04Z" fill="#2851A3"/><path d="M244.895 92.505c-2.45.13-3.58 1.25-3.9 2-1.81 4.49 1.08 6.62 2.29 8.18l12.86-12.46c-1.37-.44-2.802-.65-4.24-.62-2.61 0-4.46-2.18-5.6-.1a19.53 19.53 0 0 0-1.41 3Z" fill="#2851A3"/><path d="M243.285 103.184a.515.515 0 0 1-.36-.19c-.17-.23-.38-.46-.6-.71-1.36-1.53-3.42-3.85-1.76-8 .42-1 1.69-2.07 4-2.29a22.68 22.68 0 0 1 1.28-2.74c.91-1.66 2.32-1.15 3.56-.71a7.445 7.445 0 0 0 2.48.56 13.42 13.42 0 0 1 4.39.64.51.51 0 0 1 .33.37.5.5 0 0 1-.13.47l-12.86 12.46a.522.522 0 0 1-.33.14Zm4.35-14.08c-.39 0-.64.18-.89.64a19.089 19.089 0 0 0-1.38 2.93.51.51 0 0 1-.45.33c-2.07.11-3.16 1-3.46 1.7-1.43 3.53.24 5.41 1.58 6.92l.29.33 11.85-11.49a12.349 12.349 0 0 0-3.26-.36 8.25 8.25 0 0 1-2.83-.62 4.994 4.994 0 0 0-1.45-.38Z" fill="#2851A3"/><path d="M252.595 107.504c-8.41.83-9.32-2.94-9.37-7.61 0-5.21 3.07-8.77 7.7-9.21l7.32 10.73c4.63-.46 1.33 4.78-.71 4.78" fill="#EBEBEB"/><path d="M250.435 108.113c-2.57 0-4.43-.54-5.66-1.65-1.76-1.57-2-4.08-2.05-6.56 0-5.44 3.2-9.25 8.15-9.72a.508.508 0 0 1 .46.22l7.16 10.49a2.437 2.437 0 0 1 2.32.83 2.507 2.507 0 0 1-.17 2.55c-.63 1.17-1.93 2.42-3.11 2.42a.5.5 0 1 1 0-1c.66 0 1.68-.87 2.22-1.89.35-.65.43-1.22.22-1.53-.21-.31-.81-.44-1.68-.36a.503.503 0 0 1-.47-.22l-7.15-10.48c-4.23.54-7 3.91-7 8.68 0 2.6.33 4.58 1.71 5.83s3.67 1.62 7.11 1.28a.484.484 0 0 1 .365.111.49.49 0 0 1 .175.339.503.503 0 0 1-.44.55c-.718.072-1.439.109-2.16.11Z" fill="#2851A3"/><path d="M243.215 99.824c-.2 2.744.112 5.501.92 8.13a6.193 6.193 0 0 0 6.28 4.42 9.997 9.997 0 0 0 5-2.46 4.469 4.469 0 0 0 1.27-2.1" fill="#EBEBEB"/><path d="M250.115 112.913a6.712 6.712 0 0 1-6.46-4.78 22.451 22.451 0 0 1-.94-8.31.492.492 0 0 1 .53-.46.501.501 0 0 1 .47.54c-.202 2.68.103 5.374.9 7.94a5.717 5.717 0 0 0 2.18 3 5.805 5.805 0 0 0 3.59 1 9.427 9.427 0 0 0 4.69-2.33.503.503 0 0 1 .564-.105.497.497 0 0 1 .291.495.488.488 0 0 1-.185.35 10.404 10.404 0 0 1-5.25 2.58l-.38.08Zm7.95-10.669c-.61-3-4-2.45-5.29-2.54-2.61-.18-4.42-.68-4.7-3.43-.07-.762-.07-1.528 0-2.29.07-.72-.49-.32-1.08-.74-.59-.42-.72-1.22-1.19-1.15-1-.87.81-3.54 1.4-4 0 0 11.7.66 13.4 4.66 1.7 4 .63 8.79.63 8.79l-3.17.7Z" fill="#2851A3"/><path d="M258.065 102.743a.575.575 0 0 1-.28-.08.469.469 0 0 1-.21-.32c-.41-2-2.18-2.17-4.09-2.13h-.75c-2.43-.17-4.83-.61-5.16-3.88-.07-.782-.07-1.568 0-2.35a2 2 0 0 1-.86-.32 2.855 2.855 0 0 1-.71-.8 1.205 1.205 0 0 0-.21-.28.322.322 0 0 1-.31-.1 1.477 1.477 0 0 1-.47-1.18 6.429 6.429 0 0 1 1.89-3.59.468.468 0 0 1 .34-.11c.49 0 12 .73 13.83 5a16.906 16.906 0 0 1 .66 9.1.522.522 0 0 1-.38.38l-3.17.7-.12-.04Zm-4.34-3.53c1.5 0 3.93.11 4.7 2.44l2.38-.53a15.783 15.783 0 0 0-.66-8.17c-1.27-3-9.44-4.13-12.76-4.35a5.698 5.698 0 0 0-1.38 2.71.75.75 0 0 0 .05.3c.337.125.615.37.78.69a2 2 0 0 0 .45.53 1 1 0 0 0 .44.15.856.856 0 0 1 .65.307.86.86 0 0 1 .19.693 12.322 12.322 0 0 0 0 2.19c.23 2.3 1.55 2.8 4.23 3h.92l.01.04Z" fill="#2851A3"/><path d="M261.685 119.824s6.36.79 9.66 1c6.7.47 20.55 3.33 20.55 3.33s-3.22 13.15-2.85 18.1l-14.46-.21-4.19 32.51-36.63-.31-3-24-1.78 4.6-13.73-8.15s2.42-6.87 4.34-12.77c1.92-5.9 3.8-10.37 11.49-11.9 4.47-.89 11.21-3.11 11.21-3.11s9.39 11.3 19.39.91Z" fill="#4C88FF"/><path d="m270.395 175.003-36.63-.31a.504.504 0 0 1-.49-.44l-2.75-22-1.07 2.75a.486.486 0 0 1-.3.29.52.52 0 0 1-.42 0l-13.73-8.15a.499.499 0 0 1-.21-.6c0-.06 2.44-6.93 4.33-12.75 2-6.19 4-10.68 11.87-12.24 4.39-.87 11.08-3.07 11.15-3.09a.48.48 0 0 1 .54.15s4.16 4.94 9.67 5.14c3.13.11 6.16-1.32 9-4.26a.5.5 0 0 1 .42-.15c.06 0 6.38.79 9.63 1 6.66.47 20.48 3.31 20.62 3.34a.518.518 0 0 1 .32.22.477.477 0 0 1 .06.39c0 .13-3.19 13.13-2.83 17.94a.504.504 0 0 1-.138.38.514.514 0 0 1-.372.16l-14-.2-4.22 31.99a.498.498 0 0 1-.45.44Zm-36.19-1.31 35.75.31 4.13-32.07a.512.512 0 0 1 .5-.44l13.93.2c-.12-4.75 2.2-14.8 2.77-17.2-2.55-.52-14.11-2.81-20-3.22-2.9-.19-8.23-.83-9.44-1-3 3-6.18 4.5-9.56 4.38-5.26-.19-9.2-4.17-10.17-5.24-1.39.45-7.06 2.24-11 3-7.31 1.45-9.14 5.52-11.11 11.56-1.64 5.05-3.67 10.86-4.21 12.4l12.87 7.64 1.57-4.05a.504.504 0 0 1 .53-.32.49.49 0 0 1 .43.44l3.01 23.61Z" fill="#4C88FF"/><path d="M230.955 152.264a.514.514 0 0 1-.5-.42 49.674 49.674 0 0 1-.57-11.49.496.496 0 0 1 .168-.345.496.496 0 0 1 .551-.076.515.515 0 0 1 .255.287.51.51 0 0 1 .026.194 47.8 47.8 0 0 0 .56 11.27.47.47 0 0 1-.005.194.48.48 0 0 1-.222.309.499.499 0 0 1-.183.067l-.08.01Zm38.89 161.7a11.281 11.281 0 0 0 8.36 10.86c5.54 1.51 10.09 3.13 11.22 7h-28.78v-17.9l9.2.04Z" fill="#2851A3"/><path d="M289.425 332.324h-28.78a.5.5 0 0 1-.5-.5v-17.9a.5.5 0 0 1 .14-.35.507.507 0 0 1 .36-.15h9.23a.508.508 0 0 1 .5.5 10.752 10.752 0 0 0 8 10.38c5.4 1.47 10.34 3.14 11.57 7.34a.521.521 0 0 1-.08.44.51.51 0 0 1-.44.24Zm-28.28-1h27.57c-1.41-3.25-5.84-4.71-10.64-6a11.774 11.774 0 0 1-8.69-10.84h-8.24v16.84Zm-29.7-19.19a11.562 11.562 0 0 1-7.68 11.79c-5.57 2-10.11 4-10.95 8.08h14.71l14.7-4.27-1.3-16.4-9.48.8Z" fill="#2851A3"/><path d="M227.525 332.504h-14.68a.516.516 0 0 1-.39-.18.487.487 0 0 1-.1-.42c.9-4.39 5.85-6.5 11.27-8.45a11.055 11.055 0 0 0 7.35-11.28.507.507 0 0 1 .46-.54l9.41-.81a.496.496 0 0 1 .36.12.52.52 0 0 1 .18.34l1.3 16.4a.524.524 0 0 1-.36.52l-14.7 4.27-.1.03Zm-14.07-1h14l14.24-4.14-1.23-15.49-8.5.72a12.001 12.001 0 0 1-8 11.8c-5.12 1.82-9.38 3.62-10.51 7.11Z" fill="#2851A3"/><path d="m248.665 104.413-1.38-.07a.236.236 0 0 1-.11-.09.193.193 0 0 1 0-.13l1.47-3.18" fill="#fff"/><path d="m248.665 104.914-1.38-.07a.42.42 0 0 1-.15 0 .761.761 0 0 1-.36-.3.776.776 0 0 1-.09-.47.565.565 0 0 1 0-.13l1.47-3.18a.49.49 0 0 1 .284-.26.509.509 0 0 1 .386.02.488.488 0 0 1 .288.472.512.512 0 0 1-.048.188l-1.22 2.69h.87a.492.492 0 0 1 .452.334.502.502 0 0 1 .028.196.508.508 0 0 1-.329.477.512.512 0 0 1-.201.033Z" fill="#2851A3"/><path d="M205.431 235.064h-101.84a4 4 0 0 0-4 4v17.62a4 4 0 0 0 4 4h101.84a4 4 0 0 0 4-4v-17.62a4 4 0 0 0-4-4Z" fill="#BBBFC4" fill-opacity=".45"/><path d="M118.065 274.824h-5.53v9.05h7v-7.53h-1.36l-.07-.06a.206.206 0 0 1-.06-.08.17.17 0 0 1 0-.1l.02-1.28Zm-6-1h6.78a.454.454 0 0 1 .17.11l1.46 1.47c.089.096.142.22.15.35v8.59a.615.615 0 0 1-.15.36.535.535 0 0 1-.36.14h-8a.45.45 0 0 1-.2 0 .425.425 0 0 1-.16-.1.438.438 0 0 1-.11-.17.407.407 0 0 1 0-.19v-10a.465.465 0 0 1 .14-.36.546.546 0 0 1 .29-.15l-.01-.05Zm2 4.53h4.09a.302.302 0 0 1 .09.06.215.215 0 0 1 0 .08.335.335 0 0 1 0 .1v.5c.004.03.004.06 0 .09a.198.198 0 0 1-.051.09.18.18 0 0 1-.089.05h-4.27a.256.256 0 0 1-.07-.18v-.5a.238.238 0 0 1 .07-.18.211.211 0 0 1 .16-.08l.07-.03Zm0 2.51h2.36l.08.05a.392.392 0 0 1 .06.09v.69a.384.384 0 0 1-.14.14h-2.46l-.12-.01a.226.226 0 0 1-.07-.17v-.51a.285.285 0 0 1 .07-.18.232.232 0 0 1 .16 0l.06-.1Zm75.09-.501h-57.78a.508.508 0 0 1-.5-.5.501.501 0 0 1 .5-.5h57.78a.5.5 0 0 1 0 1Zm-73.31 21.91a.682.682 0 0 1-.42-.15l-.33-.28a1.806 1.806 0 0 1-.53-.67 1.904 1.904 0 0 1 0-1.66c.121-.262.302-.491.53-.67l2.66-2.28a2.83 2.83 0 0 1 3.56 0l.33.28c.221.182.399.411.52.67a1.91 1.91 0 0 1 0 1.66c-.121.26-.299.489-.52.67l-1 .88a.653.653 0 0 1-.42.15.654.654 0 0 1-.57-.31.496.496 0 0 1 0-.21.45.45 0 0 1 0-.2.536.536 0 0 1 .14-.16l1-.88a1 1 0 0 0 .38-.78 1.157 1.157 0 0 0-.1-.44 1.022 1.022 0 0 0-.28-.34l-.33-.28a1.397 1.397 0 0 0-.91-.32 1.327 1.327 0 0 0-.91.32l-2.68 2.26a.914.914 0 0 0-.28.34.99.99 0 0 0-.1.44.9.9 0 0 0 .1.43.983.983 0 0 0 .28.35l.33.28a.515.515 0 0 1 .13.16.481.481 0 0 1 0 .2.53.53 0 0 1 0 .21.67.67 0 0 1-.13.16.683.683 0 0 1-.41.15l-.04.02Z" fill="#E0E0E0"/><path d="M113.615 305.823a2.745 2.745 0 0 1-1.78-.63l-.33-.28a2.089 2.089 0 0 1-.54-.68 1.95 1.95 0 0 1 .54-2.36l1.17-1a.667.667 0 0 1 .43-.15.68.68 0 0 1 .43.15.515.515 0 0 1 .13.16.53.53 0 0 1 .05.21.59.59 0 0 1-.18.37l-1.16 1a.87.87 0 0 0-.28.35.998.998 0 0 0 .28 1.22l.33.28c.258.208.579.321.91.32.33-.003.65-.116.91-.32l2.66-2.28a.996.996 0 0 0 .27-.35.904.904 0 0 0 .1-.43.988.988 0 0 0-.37-.78l-.33-.28a.426.426 0 0 1-.13-.17.45.45 0 0 1 0-.2.53.53 0 0 1 0-.21.406.406 0 0 1 .13-.16.667.667 0 0 1 .43-.15.704.704 0 0 1 .43.15l.33.28c.222.182.399.411.52.67.122.26.187.543.19.83-.003.287-.068.57-.19.83-.121.26-.298.489-.52.67l-2.66 2.27a2.817 2.817 0 0 1-1.77.67Zm75.54-5.268h-57.78a.5.5 0 0 1-.5-.5.513.513 0 0 1 .5-.5h57.78a.5.5 0 1 1 0 1Z" fill="#E0E0E0"/><defs><filter id="ud34wcf5kwra" x="285.613" y="224.722" width="61.809" height="61.809" filterUnits="userSpaceOnUse" color-interpolation-filters="sRGB"><feFlood flood-opacity="0" result="BackgroundImageFix"/><feBlend in="SourceGraphic" in2="BackgroundImageFix" result="shape"/><feGaussianBlur stdDeviation="7.5" result="effect1_foregroundBlur"/></filter></defs></svg>